<?xml version="1.0" standalone="no"?>
<!DOCTYPE svg PUBLIC "-//W3C//DTD SVG 1.1//EN" "http://www.w3.org/Graphics/SVG/1.1/DTD/svg11.dtd" >
<svg xmlns="http://www.w3.org/2000/svg" xmlns:xlink="http://www.w3.org/1999/xlink" version="1.1">
<metadata>
Created by FontForge 20170731 at Mon Sep 13 13:56:44 2021
 By Aleksey,,,
Copyright (c) 2020 The Coca-Cola Company. All Rights Reserved.
</metadata>
<defs>
<font id="TCCC-UnityText_CYR-Light" horiz-adv-x="1388" >
  <font-face 
    font-family="TCCC-UnityText_CYR"
    font-weight="300"
    font-stretch="normal"
    units-per-em="2048"
    panose-1="2 11 3 5 3 3 3 2 2 4"
    ascent="1638"
    descent="-410"
    x-height="1110"
    cap-height="1475"
    bbox="-1077 -553 2865 2546"
    underline-thickness="102"
    underline-position="-307"
    unicode-range="U+0020-FB02"
  />
<missing-glyph horiz-adv-x="1681" 
d="M1468 0h-1255v1470h1255v-1470zM307 1378v-1286h1067v1286h-1067z" />
    <glyph glyph-name="fi" unicode="fi" horiz-adv-x="1261" 
d="M379 1249v-139h356v-102h-356v-1008h-119v1008h-190v102h190v143q0 135 88.5 224.5t224.5 89.5q84 0 160 -27v-106q-77 26 -149 26q-88 0 -146.5 -58t-58.5 -153zM1006 1491q38 0 63 -25t25 -63t-25 -63t-63 -25t-63 25t-25 63t25 63t63 25zM1065 0h-119v1110h119v-1110z
" />
    <glyph glyph-name="fl" unicode="fl" horiz-adv-x="1325" 
d="M379 1249v-139h356v-102h-356v-1008h-119v1008h-190v102h190v143q0 135 88.5 224.5t224.5 89.5q84 0 160 -27v-106q-77 26 -149 26q-88 0 -146.5 -58t-58.5 -153zM1186 92q46 0 84 14v-104q-43 -16 -92 -16q-110 0 -171 55.5t-61 157.5v1341h119v-1331q0 -58 32.5 -87.5
t88.5 -29.5z" />
    <glyph glyph-name="f_f" unicode="ff" horiz-adv-x="1318" 
d="M1221 1460q-121 0 -183.5 -62.5t-62.5 -178.5v-109h307v-102h-307v-1008h-119v1008h-477v-1008h-119v1008h-192v102h192v162q0 126 80 206.5t221 80.5q65 0 144 -27v-107q-79 27 -138 27q-95 0 -142.5 -51.5t-47.5 -132.5v-158h479v111q0 156 93.5 251t262.5 95
q94 0 168 -27v-108q-80 28 -159 28z" />
    <glyph glyph-name="f_f_i" unicode="ffi" horiz-adv-x="1857" 
d="M975 1249v-139h356v-102h-356v-1008h-119v1008h-477v-1008h-119v1008h-192v102h192v162q0 126 80 206.5t221 80.5q65 0 144 -27v-107q-79 27 -138 27q-95 0 -142.5 -51.5t-47.5 -132.5v-158h479v143q0 135 88.5 224.5t224.5 89.5q83 0 160 -27v-106q-77 26 -149 26
q-88 0 -146.5 -58t-58.5 -153zM1602 1491q38 0 63 -25t25 -63t-25 -63t-63 -25t-63.5 25t-25.5 63t25.5 63t63.5 25zM1661 0h-119v1110h119v-1110z" />
    <glyph glyph-name="f_f_l" unicode="ffl" horiz-adv-x="1921" 
d="M975 1249v-139h356v-102h-356v-1008h-119v1008h-477v-1008h-119v1008h-192v102h192v162q0 126 80 206.5t221 80.5q65 0 144 -27v-107q-79 27 -138 27q-95 0 -142.5 -51.5t-47.5 -132.5v-158h479v143q0 135 88.5 224.5t224.5 89.5q83 0 160 -27v-106q-77 26 -149 26
q-88 0 -146.5 -58t-58.5 -153zM1782 92q46 0 84 14v-104q-43 -16 -92 -16q-110 0 -171 55.5t-61 157.5v1341h119v-1331q0 -58 32.5 -87.5t88.5 -29.5z" />
    <glyph glyph-name=".notdef" horiz-adv-x="1681" 
d="M1468 0h-1255v1470h1255v-1470zM307 1378v-1286h1067v1286h-1067z" />
    <glyph glyph-name=".null" horiz-adv-x="0" 
 />
    <glyph glyph-name="nonmarkingreturn" horiz-adv-x="682" 
 />
    <glyph glyph-name="space" unicode=" " horiz-adv-x="673" 
 />
    <glyph glyph-name="exclam" unicode="!" horiz-adv-x="552" 
d="M313 457h-73l-31 1018h135zM276 -12q-41 0 -66.5 26.5t-25.5 67.5t25.5 67.5t66.5 26.5t67 -26.5t26 -67.5t-26 -67.5t-67 -26.5z" />
    <glyph glyph-name="quotedbl" unicode="&#x22;" horiz-adv-x="763" 
d="M236 963h-78l41 512h133zM547 963h-78l41 512h133z" />
    <glyph glyph-name="numbersign" unicode="#" horiz-adv-x="1497" 
d="M1415 1055v-94h-299l-74 -445h263v-94h-279l-70 -422h-104l70 422h-463l-70 -422h-104l69 422h-272v94h289l73 445h-245v94h262l69 420h105l-70 -420h463l70 420h104l-69 -420h282zM475 516h463l74 445h-463z" />
    <glyph glyph-name="dollar" unicode="$" horiz-adv-x="1333" 
d="M1241 403q0 -179 -137.5 -294t-358.5 -127v-240h-110v240q-162 9 -305 62.5t-248 143.5l76 95q201 -174 477 -193v625l-133 26q-187 37 -285 125t-98 226q0 171 146.5 280.5t369.5 120.5v182h110v-184q279 -21 459 -188l-76 -89q-160 144 -383 166v-567l99 -18
q196 -38 296.5 -139.5t100.5 -252.5zM551 852l84 -16v548q-171 -9 -282 -87.5t-111 -198.5q0 -94 74 -154t235 -92zM745 692v-602q161 12 267 95.5t106 211.5q0 221 -319 285z" />
    <glyph glyph-name="percent" unicode="%" horiz-adv-x="1822" 
d="M426 748q155 0 250.5 103.5t95.5 272.5t-95.5 273t-250.5 104t-250.5 -104t-95.5 -273t95.5 -272.5t250.5 -103.5zM489 0h-120l964 1475h121zM426 1401q104 0 167.5 -76t63.5 -201t-63.5 -200.5t-167.5 -75.5t-167.5 75.5t-63.5 200.5t63.5 201t167.5 76zM1397 -27
q155 0 250.5 104t95.5 273t-95.5 273t-250.5 104t-250.5 -104t-95.5 -273t95.5 -273t250.5 -104zM1397 627q104 0 167.5 -76t63.5 -201t-63.5 -200.5t-167.5 -75.5t-168 76t-64 200t64 200.5t168 76.5z" />
    <glyph glyph-name="ampersand" unicode="&#x26;" horiz-adv-x="1523" 
d="M1239 272l301 -254v-18h-154l-219 184q-208 -211 -514 -211q-239 0 -388.5 119.5t-149.5 296.5q0 247 340 393l-2 2q-203 172 -203 361q0 153 120 254.5t296 101.5q172 0 290.5 -96.5t118.5 -241.5q0 -129 -104.5 -228.5t-306.5 -178.5l489 -412q64 93 98.5 201t36.5 211
h115q-2 -120 -44 -248t-120 -236zM371 1145q0 -143 178 -293l31 -25q207 76 292.5 155t85.5 173q0 105 -83.5 173.5t-206.5 68.5q-127 0 -212 -72t-85 -180zM657 82q250 0 424 174l-542 457q-154 -64 -227.5 -142.5t-73.5 -177.5q0 -134 117 -222.5t302 -88.5z" />
    <glyph glyph-name="quotesingle" unicode="'" horiz-adv-x="452" 
d="M236 963h-78l41 512h133z" />
    <glyph glyph-name="parenleft" unicode="(" horiz-adv-x="604" 
d="M516 -285h-106q-277 419 -277 947q0 527 277 946h106q-266 -441 -266 -946q0 -506 266 -947z" />
    <glyph glyph-name="parenright" unicode=")" horiz-adv-x="604" 
d="M195 -285h-107q266 441 266 947q0 505 -266 946h107q276 -417 276 -946q0 -530 -276 -947z" />
    <glyph glyph-name="asterisk" unicode="*" horiz-adv-x="997" 
d="M854 1296l33 -104l-322 -86l207 -254l-86 -64l-186 273l-189 -273l-86 64l207 254l-321 86l32 104l316 -114l-15 323h109l-14 -323z" />
    <glyph glyph-name="plus" unicode="+" horiz-adv-x="1280" 
d="M692 788h447v-104h-447v-446h-106v446h-447v104h447v447h106v-447z" />
    <glyph glyph-name="comma" unicode="," horiz-adv-x="495" 
d="M166 -279h-94l137 576h131z" />
    <glyph glyph-name="hyphen" unicode="-" horiz-adv-x="770" 
d="M123 600l33 115h491l-35 -115h-489z" />
    <glyph glyph-name="period" unicode="." horiz-adv-x="483" 
d="M242 -12q-41 0 -66.5 26.5t-25.5 67.5t25.5 67.5t66.5 26.5t66.5 -26.5t25.5 -67.5t-25.5 -67.5t-66.5 -26.5z" />
    <glyph glyph-name="slash" unicode="/" horiz-adv-x="960" 
d="M66 -285l716 1893h113l-717 -1893h-112z" />
    <glyph glyph-name="zero" unicode="0" horiz-adv-x="1536" 
d="M768 -27q-287 0 -458 208t-171 556t171 556t458 208t458 -208t171 -556t-171 -556t-458 -208zM768 84q231 0 368.5 177t137.5 476t-137.5 476.5t-368.5 177.5t-368.5 -177.5t-137.5 -476.5t137.5 -476t368.5 -177z" />
    <glyph glyph-name="one" unicode="1" horiz-adv-x="831" 
d="M467 1475h108v-1475h-120v1257q-127 -173 -381 -241v110q152 40 245.5 125.5t147.5 223.5z" />
    <glyph glyph-name="two" unicode="2" horiz-adv-x="1363" 
d="M137 1288l78 -88q92 85 217 137t266 52q171 0 280 -84.5t109 -221.5q0 -70 -33.5 -131t-89.5 -109t-129.5 -93t-154 -87t-161 -86t-154 -96t-129.5 -111t-89.5 -137t-33.5 -167v-66h1132v111h-1003q7 70 45.5 131.5t96 109.5t130.5 93t152 86.5t157 83.5t148 91
t124 103.5t85.5 125.5t31.5 152q0 184 -142 299t-368 115q-165 0 -310 -56t-255 -157z" />
    <glyph glyph-name="three" unicode="3" horiz-adv-x="1335" 
d="M694 870q142 0 260 -50.5t191.5 -152t73.5 -237.5q0 -203 -160.5 -330t-427.5 -127q-167 0 -324 50.5t-250 134.5l74 94q85 -74 222 -120t282 -46q206 0 333.5 95t127.5 251q0 81 -36 146t-96.5 106t-136 62.5t-159.5 21.5q-101 0 -205 -33l-57 66l579 565h-850v109h1006
v-101l-531 -510q44 6 84 6z" />
    <glyph glyph-name="four" unicode="4" horiz-adv-x="1409" 
d="M1085 508h232v-109h-232v-399h-118v399h-897v95l860 981h155v-967zM967 1358l-744 -850h744v850z" />
    <glyph glyph-name="five" unicode="5" horiz-adv-x="1372" 
d="M717 936q244 0 392 -134t148 -339q0 -214 -159.5 -352t-425.5 -138q-158 0 -316 50t-252 133l76 94q82 -71 222 -117.5t274 -46.5q204 0 331.5 106.5t127.5 270.5q0 158 -119.5 262t-313.5 104q-145 0 -256 -58.5t-167 -149.5h-103l94 854h908v-111h-807l-68 -588
q150 160 414 160z" />
    <glyph glyph-name="six" unicode="6" horiz-adv-x="1439" 
d="M776 948q238 0 392.5 -135.5t154.5 -345.5q0 -213 -156.5 -353.5t-400.5 -140.5q-193 0 -336 95t-217 263.5t-74 389.5q0 177 50 324t138 247t211.5 154.5t268.5 54.5q123 0 243 -38.5t210 -114.5l-72 -93q-74 66 -177 101t-208 35q-241 0 -391 -180t-150 -494
q0 -62 4 -113q51 168 188 256t322 88zM768 84q185 0 308.5 110t123.5 273t-123 269t-309 106q-190 0 -318 -108t-128 -267q0 -160 129.5 -271.5t316.5 -111.5z" />
    <glyph glyph-name="seven" unicode="7" horiz-adv-x="1202" 
d="M53 1368v107h1077v-97q-221 -254 -383.5 -626t-214.5 -752h-131q56 381 213.5 745.5t382.5 622.5h-944z" />
    <glyph glyph-name="eight" unicode="8" horiz-adv-x="1482" 
d="M991 780q167 -38 266 -145t99 -240q0 -186 -172.5 -304t-442.5 -118t-442 118t-172 304q0 133 99 240t266 145q-128 48 -203.5 138t-75.5 202q0 167 148 274t380 107t380.5 -107t148.5 -274q0 -112 -75.5 -202t-203.5 -138zM334 1116q0 -120 115 -204.5t292 -84.5
t292.5 85t115.5 204q0 123 -114 201t-294 78t-293.5 -78t-113.5 -201zM741 82q215 0 352.5 91t137.5 233q0 139 -138 226t-352 87t-351.5 -87t-137.5 -226q0 -143 137 -233.5t352 -90.5z" />
    <glyph glyph-name="nine" unicode="9" horiz-adv-x="1437" 
d="M676 1501q192 0 334 -94.5t215 -263t73 -389.5q0 -178 -49 -325t-136.5 -247t-210 -154.5t-267.5 -54.5q-124 0 -245.5 39t-209.5 115l72 92q73 -66 177 -100.5t208 -34.5q241 0 391 179.5t150 494.5q0 55 -2 94q-50 -163 -189.5 -252.5t-327.5 -89.5q-236 0 -389 136
t-153 351q0 219 157 361.5t402 142.5zM674 614q191 0 317.5 109t126.5 276q0 168 -129.5 280t-316.5 112q-186 0 -309 -112t-123 -282q0 -168 122 -275.5t312 -107.5z" />
    <glyph glyph-name="colon" unicode=":" horiz-adv-x="528" 
d="M264 766q-41 0 -66.5 26.5t-25.5 67.5t25.5 67.5t66.5 26.5t66.5 -26.5t25.5 -67.5t-25.5 -67.5t-66.5 -26.5zM264 -12q-41 0 -66.5 26.5t-25.5 67.5t25.5 67.5t66.5 26.5t66.5 -26.5t25.5 -67.5t-25.5 -67.5t-66.5 -26.5z" />
    <glyph glyph-name="semicolon" unicode=";" horiz-adv-x="569" 
d="M303 766q-41 0 -66.5 26.5t-25.5 67.5t25.5 67.5t66.5 26.5t66.5 -26.5t25.5 -67.5t-25.5 -67.5t-66.5 -26.5zM211 -279h-94l137 576h131z" />
    <glyph glyph-name="less" unicode="&#x3c;" horiz-adv-x="1280" 
d="M135 772l973 461v-121l-817 -381l817 -381v-121l-973 461v82z" />
    <glyph glyph-name="equal" unicode="=" horiz-adv-x="1280" 
d="M1126 928h-972v102h972v-102zM1126 440h-972v103h972v-103z" />
    <glyph glyph-name="greater" unicode="&#x3e;" horiz-adv-x="1280" 
d="M172 1112v121l973 -461v-82l-973 -461v121l817 381z" />
    <glyph glyph-name="question" unicode="?" horiz-adv-x="1132" 
d="M72 1098h121q6 119 111.5 206t270.5 87q151 0 250 -71t99 -183q0 -68 -45.5 -126t-167.5 -159q-67 -56 -101 -88t-65 -72t-42 -78.5t-11 -89.5v-71h116v65q0 73 40 122.5t163 150.5q130 106 184 181t54 169q0 159 -131 259.5t-336 100.5q-222 0 -363 -118t-147 -285z
M551 -12q-41 0 -66.5 26.5t-25.5 67.5t25.5 67.5t66.5 26.5t66.5 -26.5t25.5 -67.5t-25.5 -67.5t-66.5 -26.5z" />
    <glyph glyph-name="at" unicode="@" horiz-adv-x="2019" 
d="M1298 829v138h111v-549q0 -60 35 -90.5t96 -30.5q110 0 182 92.5t72 249.5q0 140 -61.5 270t-166 226t-250 153.5t-304.5 57.5q-161 0 -306.5 -59t-251 -160t-167.5 -241.5t-62 -297.5q0 -159 64.5 -301.5t176 -244t267 -161t330.5 -59.5q252 0 444 121l52 -82
q-83 -60 -216.5 -95.5t-281.5 -35.5q-195 0 -369.5 66.5t-300 180.5t-199 274t-73.5 339q0 176 70.5 333.5t190 270t285 178.5t347.5 66q180 0 343 -64.5t280 -172.5t186 -254.5t69 -305.5q0 -200 -100.5 -318t-255.5 -118q-87 0 -147.5 38.5t-77.5 108.5
q-45 -78 -127.5 -125t-192.5 -47q-176 0 -292.5 116.5t-116.5 287.5q0 170 117 285.5t294 115.5q100 0 179 -41.5t128 -114.5zM999 281q129 0 215 87t86 216q0 128 -86 213.5t-215 85.5t-215 -86.5t-86 -212.5q0 -128 86.5 -215.5t214.5 -87.5z" />
    <glyph glyph-name="A" unicode="A" horiz-adv-x="1519" 
d="M1475 0h-134l-184 436h-797l-186 -436h-129l641 1475h150zM762 1368l-354 -823h702z" />
    <glyph glyph-name="B" unicode="B" horiz-adv-x="1558" 
d="M1116 774q163 -33 246.5 -133t83.5 -238q0 -174 -127 -288.5t-352 -114.5h-750v1475h680q202 0 316 -106t114 -267q0 -104 -52 -192.5t-159 -135.5zM883 1366h-545v-557h555q87 0 151 25t97.5 67.5t49 89.5t15.5 99q0 125 -82.5 200.5t-240.5 75.5zM338 109h618
q169 0 268 81t99 220q0 134 -94.5 213t-259.5 79h-631v-593z" />
    <glyph glyph-name="C" unicode="C" horiz-adv-x="1536" 
d="M928 -27q-227 0 -411.5 98.5t-289 273t-104.5 390.5q0 217 105 393t286 274.5t401 98.5q158 0 300 -49.5t231 -140.5l-82 -88q-81 78 -202 122t-251 44q-178 0 -329 -83.5t-241.5 -234.5t-90.5 -336q0 -184 89.5 -333t243.5 -232.5t341 -83.5q130 0 251 41t199 121
l86 -86q-95 -96 -236 -142.5t-296 -46.5z" />
    <glyph glyph-name="D" unicode="D" horiz-adv-x="1662" 
d="M772 1475q230 0 404 -93t267 -260t93 -385q0 -163 -54 -299.5t-152.5 -233t-241.5 -150.5t-316 -54h-555v1475h555zM340 111h428q293 0 467 171.5t174 454.5t-174 455t-467 172h-428v-1253z" />
    <glyph glyph-name="E" unicode="E" horiz-adv-x="1415" 
d="M340 111h971l32 -111h-1126v1475h1106l-33 -111h-950v-530h651v-111h-651v-612z" />
    <glyph glyph-name="F" unicode="F" horiz-adv-x="1368" 
d="M1286 1475v-111h-946v-541h664v-110h-664v-713h-123v1475h1069z" />
    <glyph glyph-name="G" unicode="G" horiz-adv-x="1671" 
d="M1528 797v-641q-102 -94 -254.5 -138.5t-315.5 -44.5q-187 0 -343.5 57.5t-264 158.5t-167.5 241.5t-60 304.5q0 219 103 394t288 273.5t418 98.5q172 0 313 -52t225 -132l-77 -90q-73 68 -196 115t-271 47q-192 0 -346.5 -83t-242 -232.5t-87.5 -338.5
q0 -286 195 -467.5t518 -181.5q273 0 444 125v477h-502v109h623z" />
    <glyph glyph-name="H" unicode="H" horiz-adv-x="1720" 
d="M1380 840v635h123v-1475h-123v729h-1040v-729h-123v1475h123v-635h1040z" />
    <glyph glyph-name="I" unicode="I" horiz-adv-x="557" 
d="M217 0v1475h123v-1475h-123z" />
    <glyph glyph-name="J" unicode="J" horiz-adv-x="1204" 
d="M877 434v1041h122v-1045q0 -213 -126.5 -335t-333.5 -122q-202 0 -329.5 117.5t-131.5 325.5h121q6 -161 99.5 -245.5t240.5 -84.5q156 0 247 92t91 256z" />
    <glyph glyph-name="K" unicode="K" horiz-adv-x="1546" 
d="M1526 0h-150l-606 817l-430 -395v-422h-123v1475h123v-906l983 906h160l-627 -576z" />
    <glyph glyph-name="L" unicode="L" horiz-adv-x="1353" 
d="M340 1475v-1364h940v-111h-1063v1475h123z" />
    <glyph glyph-name="M" unicode="M" horiz-adv-x="2023" 
d="M1806 1475v-1475h-118v1329l-635 -1292h-90l-627 1278v-1315h-119v1475h166l627 -1280l628 1280h168z" />
    <glyph glyph-name="N" unicode="N" horiz-adv-x="1687" 
d="M1352 168v1307h118v-1475h-135l-999 1309v-1309h-119v1475h137z" />
    <glyph glyph-name="O" unicode="O" horiz-adv-x="1773" 
d="M887 -27q-163 0 -305 57.5t-242 158.5t-157.5 243t-57.5 305t57.5 305t157.5 243t242 158.5t305 57.5t305 -57.5t242 -158.5t157.5 -243t57.5 -305t-57.5 -305t-157.5 -243t-242 -158.5t-305 -57.5zM887 86q182 0 327 83t226.5 232t81.5 336t-81.5 336t-226.5 232.5
t-327 83.5t-327 -83.5t-226.5 -232.5t-81.5 -336t81.5 -336t226.5 -232t327 -83z" />
    <glyph glyph-name="P" unicode="P" horiz-adv-x="1470" 
d="M907 1475q224 0 350.5 -115.5t126.5 -302.5q0 -189 -126.5 -304.5t-350.5 -115.5h-567v-637h-123v1475h690zM340 748h563q170 0 263.5 83.5t93.5 225.5q0 141 -93.5 224t-263.5 83h-563v-616z" />
    <glyph glyph-name="Q" unicode="Q" horiz-adv-x="1773" 
d="M1649 737q0 -191 -76 -349t-211 -261l211 -266l-90 -72l-217 277q-172 -93 -379 -93q-163 0 -305 57.5t-242 158.5t-157.5 243t-57.5 305t57.5 305t157.5 243t242 158.5t305 57.5t305 -57.5t242 -158.5t157.5 -243t57.5 -305zM887 86q164 0 305 72l-199 254l88 71
l207 -262q110 88 172 221.5t62 294.5q0 187 -81.5 336t-226.5 232.5t-327 83.5t-327 -83.5t-226.5 -232.5t-81.5 -336t81.5 -336t226.5 -232t327 -83z" />
    <glyph glyph-name="R" unicode="R" horiz-adv-x="1562" 
d="M1479 0h-146l-461 668h-534v-668h-121v1475h735q205 0 328 -114t123 -290q0 -163 -107.5 -273.5t-287.5 -127.5zM940 1364h-602v-588h602q157 0 247.5 81.5t90.5 211.5q0 132 -90.5 213.5t-247.5 81.5z" />
    <glyph glyph-name="S" unicode="S" horiz-adv-x="1419" 
d="M745 -20q-186 0 -349 55t-281 155l82 97q111 -96 251.5 -145.5t292.5 -49.5q182 0 307.5 85t125.5 222q0 221 -328 285l-305 59q-387 76 -387 353q0 120 75.5 212.5t204 141.5t287.5 49q336 0 536 -186l-75 -90q-186 166 -463 166q-189 0 -316 -80.5t-127 -206.5
q0 -93 76.5 -152.5t241.5 -93.5l297 -59q200 -39 302.5 -140t102.5 -251q0 -189 -154 -307.5t-397 -118.5z" />
    <glyph glyph-name="T" unicode="T" horiz-adv-x="1343" 
d="M1274 1475v-111h-541v-1364h-123v1364h-540v111h1204z" />
    <glyph glyph-name="U" unicode="U" horiz-adv-x="1617" 
d="M809 -27q-272 0 -440 150.5t-168 400.5v951h123v-940q0 -207 133.5 -328t351.5 -121t351.5 121t133.5 328v940h123v-951q0 -250 -168 -400.5t-440 -150.5z" />
    <glyph glyph-name="V" unicode="V" horiz-adv-x="1495" 
d="M748 119l567 1356h131l-623 -1475h-153l-621 1475h135z" />
    <glyph glyph-name="W" unicode="W" horiz-adv-x="2267" 
d="M1622 131l463 1344h127l-516 -1475h-152l-416 1311l-399 -1311h-154l-524 1475h131l471 -1346l410 1339h135z" />
    <glyph glyph-name="X" unicode="X" horiz-adv-x="1396" 
d="M776 760l586 -760h-156l-508 670l-514 -670h-149l588 750l-564 725h156l487 -633l484 633h149z" />
    <glyph glyph-name="Y" unicode="Y" horiz-adv-x="1454" 
d="M1268 1475h139l-619 -967v-508h-122v506l-623 969h143l541 -859z" />
    <glyph glyph-name="Z" unicode="Z" horiz-adv-x="1314" 
d="M1210 1378l-981 -1269h1016v-109h-1171v94l983 1272h-936v109h1089v-97z" />
    <glyph glyph-name="bracketleft" unicode="[" horiz-adv-x="675" 
d="M608 1608v-99h-284v-1695h284v-99h-391v1893h391z" />
    <glyph glyph-name="backslash" unicode="\" horiz-adv-x="960" 
d="M66 1608h112l717 -1893h-113z" />
    <glyph glyph-name="bracketright" unicode="]" horiz-adv-x="675" 
d="M459 1608v-1893h-391v99h284v1695h-284v99h391z" />
    <glyph glyph-name="asciicircum" unicode="^" horiz-adv-x="1280" 
d="M707 1475l385 -709h-125l-328 612l-328 -612h-125l385 709h136z" />
    <glyph glyph-name="underscore" unicode="_" horiz-adv-x="989" 
d="M-2 -242v101h993v-101h-993z" />
    <glyph glyph-name="grave" unicode="`" horiz-adv-x="1200" 
d="M369 1556v17h137l237 -320h-118z" />
    <glyph glyph-name="a" unicode="a" horiz-adv-x="1288" 
d="M1202 94q34 0 55 8v-98q-24 -12 -69 -12q-92 0 -147.5 57t-55.5 160v37q-44 -95 -123.5 -158t-166.5 -88t-185 -25q-117 0 -211.5 37t-153.5 113t-59 180q0 166 145 258t418 92h334v50q0 147 -101 234t-268 87q-104 0 -204 -35t-162 -96l-74 86q80 74 198.5 114t245.5 40
q218 0 349 -113.5t131 -308.5v-498q0 -59 27 -90t77 -31zM520 80q53 0 105 10.5t105 32.5t97.5 60t79.5 88.5t55 123.5t21 160h-334q-224 0 -335 -66t-111 -180q0 -106 90 -167.5t227 -61.5z" />
    <glyph glyph-name="b" unicode="b" horiz-adv-x="1449" 
d="M780 1137q159 0 287.5 -76t200 -209t71.5 -297t-71.5 -297t-200 -209t-287.5 -76q-153 0 -276.5 70t-192.5 195v-238h-114v1540h118v-661q69 122 191.5 190t273.5 68zM768 82q198 0 324.5 134.5t126.5 338.5t-126.5 338.5t-324.5 134.5q-124 0 -228 -57.5t-167.5 -167
t-63.5 -248.5q0 -140 63.5 -249.5t167.5 -166.5t228 -57z" />
    <glyph glyph-name="c" unicode="c" horiz-adv-x="1202" 
d="M721 -27q-132 0 -245.5 43.5t-193.5 120.5t-125.5 185t-45.5 233q0 253 173 417.5t439 164.5q241 0 395 -148l-76 -88q-131 125 -325 125q-134 0 -244.5 -59t-176 -167.5t-65.5 -244.5q0 -206 140.5 -338.5t347.5 -132.5q100 0 190 33t142 92l79 -82q-64 -74 -172.5 -114
t-236.5 -40z" />
    <glyph glyph-name="d" unicode="d" horiz-adv-x="1449" 
d="M1135 879v661h118v-1540h-114v238q-69 -125 -192.5 -195t-276.5 -70q-159 0 -287.5 76t-200 209t-71.5 297t71.5 297t200 209t287.5 76q151 0 273.5 -68t191.5 -190zM682 82q124 0 228 57t167.5 166.5t63.5 249.5q0 139 -63.5 248.5t-167.5 167t-228 57.5
q-198 0 -324.5 -134.5t-126.5 -338.5t126.5 -338.5t324.5 -134.5z" />
    <glyph glyph-name="e" unicode="e" horiz-adv-x="1341" 
d="M1243 559q0 -7 -4 -39h-1006q12 -195 144.5 -316.5t339.5 -121.5q123 0 220.5 41t158.5 108l78 -81q-69 -80 -187.5 -128.5t-273.5 -48.5q-268 0 -434 163t-166 417t160 419t407 165q166 0 295.5 -78t198.5 -209t69 -291zM680 1028q-176 0 -299 -112t-143 -298h882
q-12 174 -134 292t-306 118z" />
    <glyph glyph-name="f" unicode="f" horiz-adv-x="722" 
d="M625 1460q-121 0 -183.5 -62.5t-62.5 -178.5v-109h307v-102h-307v-1008h-119v1008h-188v102h188v111q0 156 93.5 251t262.5 95q94 0 168 -27v-108q-80 28 -159 28z" />
    <glyph glyph-name="g" unicode="g" horiz-adv-x="1419" 
d="M1114 895v215h115v-1010q0 -223 -152.5 -354t-408.5 -131q-268 0 -453 109l53 102q170 -102 400 -102q202 0 322 101.5t120 280.5v166q-70 -110 -188.5 -171.5t-259.5 -61.5q-152 0 -278 73t-197.5 199t-71.5 277q0 113 42.5 214.5t115 175t174 116.5t215.5 43
q145 0 264 -64t188 -178zM668 147q124 0 226 52.5t164 154.5t62 234q0 197 -131 318.5t-321 121.5q-181 0 -306.5 -127.5t-125.5 -312.5q0 -187 125.5 -314t306.5 -127z" />
    <glyph glyph-name="h" unicode="h" horiz-adv-x="1366" 
d="M743 1137q203 0 323 -113t120 -305v-719h-119v700q0 153 -89.5 239.5t-254.5 86.5q-181 0 -294.5 -100.5t-113.5 -245.5v-680h-118v1540h118v-610q73 107 185 157t243 50z" />
    <glyph glyph-name="i" unicode="i" horiz-adv-x="512" 
d="M256 1491q38 0 63 -25t25 -63t-25 -63t-63 -25t-63 25t-25 63t25 63t63 25zM315 0h-118v1110h118v-1110z" />
    <glyph glyph-name="j" unicode="j" horiz-adv-x="528" 
d="M272 1491q38 0 63 -25t25 -63t-25 -63t-63 -25t-63 25t-25 63t25 63t63 25zM63 -383q-65 0 -118 21v104q46 -18 104 -18q77 0 120.5 42t43.5 115v1229h119v-1235q0 -118 -73 -188t-196 -70z" />
    <glyph glyph-name="k" unicode="k" horiz-adv-x="1263" 
d="M1257 0h-149l-485 588l-308 -269v-319h-118v1540h118v-1083l748 653h158l-512 -448z" />
    <glyph glyph-name="l" unicode="l" horiz-adv-x="579" 
d="M201 199v1341h118v-1331q0 -58 32.5 -87.5t88.5 -29.5q46 0 84 14v-104q-43 -16 -92 -16q-109 0 -170 55.5t-61 157.5z" />
    <glyph glyph-name="m" unicode="m" horiz-adv-x="2125" 
d="M1524 1137q189 0 305.5 -113.5t116.5 -304.5v-719h-119v700q0 150 -85.5 238t-230.5 88q-163 0 -272 -101.5t-109 -244.5v-680h-118v700q0 150 -85.5 238t-230.5 88q-163 0 -272 -101.5t-109 -244.5v-680h-118v1110h114v-186q70 109 179.5 161t222.5 52q137 0 238 -63.5
t147 -176.5q48 83 124 139t151 78.5t151 22.5z" />
    <glyph glyph-name="n" unicode="n" horiz-adv-x="1361" 
d="M741 1137q201 0 321 -113t120 -305v-719h-119v700q0 153 -89 239.5t-253 86.5q-180 0 -293 -100.5t-113 -245.5v-680h-118v1110h114v-186q71 110 184.5 161.5t245.5 51.5z" />
    <glyph glyph-name="o" unicode="o" 
d="M694 -27q165 0 299 76.5t209.5 210t75.5 295.5t-75.5 295.5t-209.5 210t-299 76.5q-124 0 -232.5 -45t-185.5 -122.5t-121 -185.5t-44 -229t44 -229t121 -185.5t185.5 -122.5t232.5 -45zM694 1026q196 0 329.5 -135.5t133.5 -335.5t-133.5 -335.5t-329.5 -135.5
t-329.5 135.5t-133.5 335.5t133.5 335.5t329.5 135.5z" />
    <glyph glyph-name="p" unicode="p" horiz-adv-x="1449" 
d="M780 1137q159 0 287.5 -76t200 -209t71.5 -297t-71.5 -297t-200 -209t-287.5 -76q-150 0 -273 68t-192 188v-598h-118v1479h114v-238q69 125 192.5 195t276.5 70zM768 82q198 0 324.5 134.5t126.5 338.5t-126.5 338.5t-324.5 134.5q-124 0 -228 -57.5t-167.5 -167
t-63.5 -248.5q0 -140 63.5 -249.5t167.5 -166.5t228 -57z" />
    <glyph glyph-name="q" unicode="q" horiz-adv-x="1449" 
d="M1139 872v238h114v-1479h-118v598q-69 -120 -192 -188t-273 -68q-159 0 -287.5 76t-200 209t-71.5 297t71.5 297t200 209t287.5 76q153 0 276.5 -70t192.5 -195zM682 82q124 0 228 57t167.5 166.5t63.5 249.5q0 139 -63.5 248.5t-167.5 167t-228 57.5
q-198 0 -324.5 -134.5t-126.5 -338.5t126.5 -338.5t324.5 -134.5z" />
    <glyph glyph-name="r" unicode="r" horiz-adv-x="847" 
d="M700 1126q63 0 115 -14v-113q-59 15 -113 15q-166 0 -276.5 -102.5t-110.5 -260.5v-651h-118v1110h114v-207q42 77 110.5 129t138 73t140.5 21z" />
    <glyph glyph-name="s" unicode="s" horiz-adv-x="1175" 
d="M100 145l70 93q75 -63 194.5 -107.5t249.5 -44.5q149 0 241.5 59.5t92.5 157.5q0 74 -57.5 119t-173.5 67l-273 52q-162 31 -236.5 102.5t-74.5 171.5q0 137 122.5 227.5t336.5 90.5q273 0 448 -146l-67 -90q-73 62 -178 95.5t-213 33.5q-146 0 -238 -58.5t-92 -148.5
q0 -64 58.5 -104.5t187.5 -65.5l262 -51q166 -33 236.5 -110t70.5 -179q0 -147 -126 -238t-331 -91q-142 0 -281.5 44t-228.5 121z" />
    <glyph glyph-name="t" unicode="t" horiz-adv-x="841" 
d="M610 90q95 0 178 39v-111q-63 -38 -186 -38q-168 0 -263 94t-95 258v676h-189v102h189v287l118 55v-342h418v-102h-418v-664q0 -121 67 -187.5t181 -66.5z" />
    <glyph glyph-name="u" unicode="u" horiz-adv-x="1353" 
d="M1038 430v680h119v-1110h-115v186q-71 -110 -183.5 -161.5t-242.5 -51.5q-199 0 -317.5 113.5t-118.5 304.5v719h119v-700q0 -152 88.5 -239t249.5 -87q177 0 289 100.5t112 245.5z" />
    <glyph glyph-name="v" unicode="v" horiz-adv-x="1230" 
d="M616 104l441 1006h129l-498 -1110h-145l-498 1110h133z" />
    <glyph glyph-name="w" unicode="w" horiz-adv-x="1906" 
d="M1364 113l369 997h127l-428 -1110h-142l-336 948l-336 -948h-143l-430 1110h131l371 -991l348 979h121z" />
    <glyph glyph-name="x" unicode="x" horiz-adv-x="1159" 
d="M653 571l475 -571h-151l-397 489l-404 -489h-147l479 565l-449 545h152l373 -459l368 459h148z" />
    <glyph glyph-name="y" unicode="y" horiz-adv-x="1224" 
d="M616 131l437 979h129l-584 -1268q-107 -231 -328 -231q-109 0 -211 45l41 104q84 -43 166 -43q156 0 236 174l53 115l-512 1104h133z" />
    <glyph glyph-name="z" unicode="z" horiz-adv-x="1077" 
d="M977 1028l-750 -928h777v-100h-928v82l749 928h-714v100h866v-82z" />
    <glyph glyph-name="braceleft" unicode="{" horiz-adv-x="733" 
d="M666 1509h-84q-101 0 -156 -55.5t-55 -144.5q0 -65 9 -192.5t9 -190.5q0 -111 -50.5 -172.5t-137.5 -91.5q188 -65 188 -265q0 -63 -9 -190.5t-9 -192.5q0 -89 55 -144.5t156 -55.5h84v-99h-91q-151 0 -233 82t-82 217q0 61 10.5 188t10.5 191q0 95 -47.5 145.5
t-143.5 73.5v99q96 23 143.5 73.5t47.5 145.5q0 64 -10.5 191t-10.5 188q0 135 82 217t233 82h91v-99z" />
    <glyph glyph-name="bar" unicode="|" horiz-adv-x="532" 
d="M217 -285v1893h98v-1893h-98z" />
    <glyph glyph-name="braceright" unicode="}" horiz-adv-x="733" 
d="M453 930q0 -95 47 -145.5t143 -73.5v-99q-96 -23 -143 -73.5t-47 -145.5q0 -64 10 -191t10 -188q0 -135 -82 -217t-233 -82h-90v99h84q101 0 155.5 55.5t54.5 144.5q0 65 -9 192.5t-9 190.5q0 200 188 265q-87 30 -137.5 91.5t-50.5 172.5q0 63 9 190.5t9 192.5
q0 89 -54.5 144.5t-155.5 55.5h-84v99h90q151 0 233 -82t82 -217q0 -61 -10 -188t-10 -191z" />
    <glyph glyph-name="asciitilde" unicode="~" horiz-adv-x="1280" 
d="M858 571q-58 0 -110 23t-89 56t-72 66t-74.5 56t-80.5 23q-71 0 -117 -59.5t-49 -157.5h-106q2 145 74 233t196 88q59 0 111 -23t89.5 -55.5t72.5 -65.5t74.5 -56t80.5 -23q71 0 117 59.5t47 155.5h108q-3 -145 -75 -232.5t-197 -87.5z" />
    <glyph glyph-name="uni00A0" unicode="&#xa0;" horiz-adv-x="673" 
 />
    <glyph glyph-name="exclamdown" unicode="&#xa1;" horiz-adv-x="548" 
d="M274 1487q41 0 67 -26.5t26 -67.5t-26 -68t-67 -27t-66.5 26.5t-25.5 68.5q0 41 25.5 67.5t66.5 26.5zM207 0l31 1018h73l31 -1018h-135z" />
    <glyph glyph-name="cent" unicode="&#xa2;" horiz-adv-x="1230" 
d="M1057 209l80 -82q-61 -71 -164.5 -111t-227.5 -43v-231h-104v235q-234 28 -379 187.5t-145 390.5q0 230 146 388.5t378 186.5v224h104v-217q231 -6 379 -148l-75 -88q-121 115 -304 125v-942q95 3 179 36t133 89zM238 555q0 -184 113 -311t290 -154v930
q-176 -27 -289.5 -154t-113.5 -311z" />
    <glyph glyph-name="sterling" unicode="&#xa3;" horiz-adv-x="1437" 
d="M362 109h969v-109h-1165v92q53 22 103 54t99.5 77t80 105.5t30.5 126.5q0 58 -22.5 107.5t-65.5 107.5h-295v106h215q-42 64 -65 125.5t-23 138.5q0 200 154 330.5t391 130.5q230 0 383.5 -122.5t157.5 -309.5h-121q-5 135 -127 229.5t-293 94.5q-179 0 -300.5 -102.5
t-121.5 -252.5q0 -50 18 -99.5t37.5 -81.5t55.5 -81h600v-106h-525q70 -104 70 -215q0 -215 -240 -346z" />
    <glyph glyph-name="currency" unicode="&#xa4;" horiz-adv-x="1280" 
d="M1092 737q0 -152 -97 -280l140 -140l-76 -73l-139 137q-127 -96 -281 -96q-155 0 -279 96l-139 -137l-76 73l138 140q-97 128 -97 280q0 153 97 281l-138 139l76 74l139 -137q124 96 279 96q154 0 281 -96l139 137l76 -74l-140 -139q97 -128 97 -281zM639 395
q141 0 241.5 100.5t100.5 241.5t-100.5 241.5t-241.5 100.5t-241.5 -100.5t-100.5 -241.5t100.5 -241.5t241.5 -100.5z" />
    <glyph glyph-name="yen" unicode="&#xa5;" horiz-adv-x="1460" 
d="M1255 1475h134l-459 -725h327v-101h-391l-73 -117v-86h464v-100h-464v-346h-123v346h-465v100h465v86l-74 117h-391v101h327l-460 725h135l524 -826z" />
    <glyph glyph-name="brokenbar" unicode="&#xa6;" horiz-adv-x="532" 
d="M217 799v809h98v-809h-98zM217 -285v809h98v-809h-98z" />
    <glyph glyph-name="section" unicode="&#xa7;" horiz-adv-x="1265" 
d="M944 223q170 -90 170 -254q0 -158 -130.5 -257t-354.5 -99q-149 0 -290 45t-224 115l69 90q98 -77 222.5 -110.5t228.5 -33.5q96 0 177 27.5t133 84t52 132.5q0 67 -49 118.5t-168 90.5l-362 123q-147 50 -212 120.5t-65 168.5q0 101 61 176t169 117q-201 108 -201 280
q0 153 136 248.5t358 95.5q247 0 456 -147l-67 -88q-173 131 -394 131q-168 0 -270 -67.5t-102 -166.5q0 -70 56.5 -127.5t180.5 -105.5l385 -148q228 -86 228 -278q0 -88 -49.5 -161t-143.5 -120zM461 397l368 -125q2 -1 6.5 -2t6.5 -2q182 84 182 224q0 131 -178 198
l-367 139q-100 -28 -162.5 -88t-62.5 -141q0 -67 50 -117t157 -86z" />
    <glyph glyph-name="dieresis" unicode="&#xa8;" horiz-adv-x="1216" 
d="M371 1315q-38 0 -63 25t-25 63t25 63t63 25t63 -25t25 -63t-25 -63t-63 -25zM805 1315q-38 0 -63 25t-25 63t25 63t63 25t63 -25t25 -63t-25 -63t-63 -25z" />
    <glyph glyph-name="copyright" unicode="&#xa9;" horiz-adv-x="1910" 
d="M954 -74q-177 0 -332 64t-263.5 173t-171 259t-62.5 317q0 166 62.5 315.5t171 258.5t263.5 173t332 64t332.5 -64t264.5 -173t172 -258.5t63 -315.5q0 -167 -63 -317t-172 -259t-264.5 -173t-332.5 -64zM954 12q157 0 295 57.5t235.5 155.5t153.5 231.5t56 282.5
q0 148 -56.5 281.5t-153.5 231t-235 155t-295 57.5q-156 0 -294 -57.5t-234.5 -155t-152.5 -231t-56 -281.5q0 -199 94.5 -365t264 -264t378.5 -98zM991 358q-175 0 -291 109t-116 274t116 274t287 109q180 0 279 -102l-62 -68q-86 86 -219 86q-126 0 -215.5 -86.5
t-89.5 -212.5q0 -128 90 -213.5t221 -85.5q132 0 217 82l62 -65q-49 -50 -123 -75.5t-156 -25.5z" />
    <glyph glyph-name="ordfeminine" unicode="&#xaa;" horiz-adv-x="1198" 
d="M1038 674q20 0 41 6v-92q-17 -10 -61 -10q-74 0 -122.5 41.5t-49.5 111.5l-2 33q-55 -103 -158 -152t-221 -49q-147 0 -246.5 70.5t-99.5 195.5q0 137 126.5 211t372.5 74h222v33q0 116 -78 184t-209 68q-85 0 -165 -28t-134 -79l-64 82q66 61 164 92t203 31
q180 0 286.5 -91t106.5 -251v-391q0 -41 24 -65.5t64 -24.5zM475 659q52 0 100.5 11.5t96.5 38.5t84 67.5t59 104.5t25 143h-222q-197 0 -292 -50t-95 -138q0 -81 69 -129t175 -48z" />
    <glyph glyph-name="guillemotleft" unicode="&#xab;" horiz-adv-x="1081" 
d="M444 1012h127l-338 -445l338 -444h-127l-340 444zM827 1012h127l-338 -445l338 -444h-127l-340 444z" />
    <glyph glyph-name="logicalnot" unicode="&#xac;" horiz-adv-x="1280" 
d="M129 926v104h983v-590h-106v486h-877z" />
    <glyph glyph-name="uni00AD" unicode="&#xad;" horiz-adv-x="770" 
d="M123 600l33 115h491l-35 -115h-489z" />
    <glyph glyph-name="registered" unicode="&#xae;" horiz-adv-x="1347" 
d="M674 1501q145 0 268 -71.5t194.5 -194.5t71.5 -268t-71.5 -268.5t-194.5 -195t-268 -71.5q-109 0 -208 42.5t-170.5 114t-114 170.5t-42.5 208q0 145 71.5 268t195 194.5t268.5 71.5zM674 504q124 0 230 63t167.5 169.5t61.5 230.5t-61.5 230.5t-167.5 169.5t-230 63
t-230 -63t-167.5 -169.5t-61.5 -230.5t61.5 -230.5t167.5 -169.5t230 -63zM897 1077q0 -53 -30.5 -91t-82.5 -50l144 -211h-88l-138 207h-147v-207h-76v498h264q70 0 112 -42t42 -104zM731 1157h-176v-158h176q41 0 64.5 22t23.5 56q0 36 -23.5 58t-64.5 22z" />
    <glyph glyph-name="macron" unicode="&#xaf;" horiz-adv-x="1200" 
d="M989 1323h-622v98h622v-98z" />
    <glyph glyph-name="degree" unicode="&#xb0;" horiz-adv-x="942" 
d="M471 825q-149 0 -249.5 96.5t-100.5 241.5t100.5 241.5t249.5 96.5t249.5 -96.5t100.5 -241.5t-100.5 -241.5t-249.5 -96.5zM471 918q108 0 180 70t72 175q0 106 -72 176t-180 70t-180 -70t-72 -176q0 -105 72 -175t180 -70z" />
    <glyph glyph-name="plusminus" unicode="&#xb1;" horiz-adv-x="1280" 
d="M694 1280v-365h428v-104h-428v-365h-108v365h-428v104h428v365h108zM1122 135h-964v107h964v-107z" />
    <glyph glyph-name="uni00B2" unicode="&#xb2;" horiz-adv-x="892" 
d="M106 1427l64 -75q54 49 129.5 77.5t151.5 28.5q94 0 153.5 -44t59.5 -114q0 -47 -31.5 -87.5t-82.5 -72t-112 -63t-122 -67t-112 -76.5t-82.5 -100t-31.5 -129v-29h703v96h-582q13 39 45 74.5t73.5 62t91.5 54.5t99 52t95 55.5t81 64t56.5 77.5t21.5 97q0 109 -88 177
t-233 68q-204 0 -347 -127z" />
    <glyph glyph-name="uni00B3" unicode="&#xb3;" horiz-adv-x="874" 
d="M465 1190q144 0 229.5 -73.5t85.5 -182.5q0 -120 -98 -197.5t-266 -77.5q-102 0 -202 30.5t-157 82.5l60 84q124 -98 297 -98q119 0 186.5 49t67.5 127q0 76 -63.5 124t-168.5 48q-64 0 -125 -23l-47 52l334 309h-494v96h629v-88l-287 -262h19z" />
    <glyph glyph-name="acute" unicode="&#xb4;" horiz-adv-x="1200" 
d="M920 1575v-14l-275 -310h-121l256 324h140z" />
    <glyph glyph-name="uni00B5" unicode="&#xb5;" horiz-adv-x="1402" 
d="M1075 430v680h119v-1110h-115v186q-72 -110 -184.5 -160.5t-241.5 -50.5q-216 0 -325 131v-475h-119v1479h119v-700q0 -152 89 -238t253 -86q180 0 292.5 99.5t112.5 244.5z" />
    <glyph glyph-name="paragraph" unicode="&#xb6;" horiz-adv-x="1359" 
d="M1130 1475v-1719h-96v1626h-256v-1626h-96v961h-190q-203 0 -312.5 105t-109.5 272q0 169 109.5 275t312.5 106h638z" />
    <glyph glyph-name="periodcentered" unicode="&#xb7;" horiz-adv-x="528" 
d="M264 702q-41 0 -66.5 26.5t-25.5 68.5q0 41 25.5 67.5t66.5 26.5t66.5 -26.5t25.5 -67.5q0 -42 -25.5 -68.5t-66.5 -26.5z" />
    <glyph glyph-name="cedilla" unicode="&#xb8;" horiz-adv-x="1200" 
d="M715 -94q100 0 163.5 -45.5t63.5 -118.5q0 -82 -74.5 -130t-201.5 -48q-88 0 -164.5 22.5t-126.5 55.5l47 71q109 -67 244 -67q80 0 124 25t44 67t-41 67t-111 25q-72 0 -135 -29l-41 31l151 205h111l-127 -141q33 10 74 10z" />
    <glyph glyph-name="uni00B9" unicode="&#xb9;" horiz-adv-x="585" 
d="M315 1540h95v-864h-109v688q-79 -85 -227 -125v96q179 47 241 205z" />
    <glyph glyph-name="ordmasculine" unicode="&#xba;" horiz-adv-x="1183" 
d="M594 563q-205 0 -340 134t-135 333q0 200 135.5 335.5t339.5 135.5q203 0 338 -135.5t135 -335.5q0 -199 -135 -333t-338 -134zM594 664q152 0 256 105.5t104 260.5q0 158 -103.5 263.5t-256.5 105.5q-154 0 -257.5 -105.5t-103.5 -263.5q0 -155 103.5 -260.5
t257.5 -105.5z" />
    <glyph glyph-name="guillemotright" unicode="&#xbb;" horiz-adv-x="1081" 
d="M127 1012h127l340 -445l-340 -444h-127l338 444zM510 1012h127l340 -445l-340 -444h-127l338 444z" />
    <glyph glyph-name="onequarter" unicode="&#xbc;" horiz-adv-x="1785" 
d="M301 610v688q-78 -84 -227 -124v96q179 47 241 205h95v-865h-109zM246 0l1046 1475h111l-1047 -1475h-110zM1571 324h135v-95h-135v-229h-105v229h-530v84l502 551h133v-540zM1466 762l-393 -438h393v438z" />
    <glyph glyph-name="onehalf" unicode="&#xbd;" horiz-adv-x="1925" 
d="M301 610v688q-78 -84 -227 -124v96q179 47 241 205h95v-865h-109zM246 0l1046 1475h111l-1047 -1475h-110zM1247 96h582v-96h-703v29q0 70 31.5 129t82.5 100t112 77t122 67t112 63t82.5 72.5t31.5 87.5q0 70 -59.5 113.5t-153.5 43.5q-76 0 -151.5 -28.5t-129.5 -77.5
l-63 76q143 127 346 127q145 0 233 -68t88 -178q0 -52 -21.5 -97t-56.5 -77.5t-81 -64t-95 -55.5t-99 -52t-91.5 -54.5t-73.5 -62t-45 -74.5z" />
    <glyph glyph-name="threequarters" unicode="&#xbe;" horiz-adv-x="2023" 
d="M803 868q0 -120 -98.5 -197t-266.5 -77q-102 0 -201.5 30.5t-156.5 82.5l59 84q126 -99 297 -99q119 0 186.5 49t67.5 127q0 76 -63 124t-168 48q-67 0 -125 -22l-47 51l334 309h-494v97h629v-89l-287 -262h18q144 0 230 -73.5t86 -182.5zM504 0l1046 1475h111
l-1047 -1475h-110zM1812 324h136v-95h-136v-229h-104v229h-530v84l501 551h133v-540zM1708 762l-393 -438h393v438z" />
    <glyph glyph-name="questiondown" unicode="&#xbf;" horiz-adv-x="1134" 
d="M584 1487q41 0 66.5 -26.5t25.5 -67.5q0 -42 -25.5 -68.5t-66.5 -26.5t-66.5 26.5t-25.5 68.5q0 41 25.5 67.5t66.5 26.5zM1063 377h-121q-6 -118 -112 -205.5t-271 -87.5q-150 0 -249 71t-99 183q0 68 45.5 126t167.5 159q67 56 100.5 87.5t65 71.5t42.5 78.5t11 89.5
v72h-117v-66q0 -73 -39.5 -122t-162.5 -150q-130 -106 -184 -181t-54 -169q0 -159 131 -260t336 -101q148 0 264.5 56.5t179 148t66.5 199.5z" />
    <glyph glyph-name="Agrave" unicode="&#xc0;" horiz-adv-x="1519" 
d="M625 1937l237 -319h-119l-256 303v16h138zM1475 0h-134l-184 436h-797l-186 -436h-129l641 1475h150zM762 1368l-354 -823h702z" />
    <glyph glyph-name="Aacute" unicode="&#xc1;" horiz-adv-x="1519" 
d="M1038 1939v-14l-274 -309h-121l256 323h139zM1475 0h-134l-184 436h-797l-186 -436h-129l641 1475h150zM762 1368l-354 -823h702z" />
    <glyph glyph-name="Acircumflex" unicode="&#xc2;" horiz-adv-x="1519" 
d="M973 1618l-213 233l-213 -233h-117l262 321h133l265 -321h-117zM1475 0h-134l-184 436h-797l-186 -436h-129l641 1475h150zM762 1368l-354 -823h702z" />
    <glyph glyph-name="Atilde" unicode="&#xc3;" horiz-adv-x="1519" 
d="M588 1821q-54 0 -86 -48.5t-35 -130.5h-98q3 125 61.5 201t159.5 76q47 0 89 -19t72 -46.5t57.5 -55t58 -46.5t61.5 -19q54 0 86 48t35 130h98q-3 -125 -61.5 -200t-159.5 -75q-46 0 -88 19t-72 46t-58 54.5t-58.5 46.5t-61.5 19zM1475 0h-134l-184 436h-797l-186 -436
h-129l641 1475h150zM762 1368l-354 -823h702z" />
    <glyph glyph-name="Adieresis" unicode="&#xc4;" horiz-adv-x="1519" 
d="M543 1679q-38 0 -63 25t-25 63t25 63t63 25t63 -25t25 -63t-25 -63t-63 -25zM977 1679q-38 0 -63 25t-25 63t25 63t63 25t63 -25t25 -63t-25 -63t-63 -25zM1475 0h-134l-184 436h-797l-186 -436h-129l641 1475h150zM762 1368l-354 -823h702z" />
    <glyph glyph-name="Aring" unicode="&#xc5;" horiz-adv-x="1519" 
d="M756 1616q-118 0 -194.5 73t-76.5 181q0 110 76.5 183t194.5 73q119 0 194.5 -73t75.5 -183q0 -109 -75.5 -181.5t-194.5 -72.5zM756 2042q-74 0 -124 -49t-50 -123q0 -73 50 -121.5t124 -48.5q75 0 125.5 48.5t50.5 121.5q0 75 -50.5 123.5t-125.5 48.5zM1475 0h-134
l-184 436h-797l-186 -436h-129l641 1475h150zM762 1368l-354 -823h702z" />
    <glyph glyph-name="AE" unicode="&#xc6;" horiz-adv-x="2211" 
d="M1184 111h923l33 -111h-1077v426h-657l-295 -426h-138l1024 1475h1123l-33 -111h-903v-530h618v-111h-618v-612zM1063 1380l-584 -845h584v845z" />
    <glyph glyph-name="Ccedilla" unicode="&#xc7;" horiz-adv-x="1536" 
d="M928 -27h-21l-69 -77q33 10 73 10q100 0 164 -45.5t64 -118.5q0 -82 -75 -130t-202 -48q-88 0 -164.5 22.5t-126.5 55.5l47 71q109 -67 244 -67q80 0 124 25t44 67t-40.5 67t-110.5 25q-73 0 -136 -29l-41 31l111 148q-150 18 -278 82.5t-218.5 162.5t-142 230t-51.5 280
q0 217 105 393t286 274.5t401 98.5q158 0 300 -49.5t231 -140.5l-82 -88q-81 78 -202 122t-251 44q-178 0 -329 -83.5t-241.5 -234.5t-90.5 -336q0 -184 89.5 -333t243.5 -232.5t341 -83.5q130 0 251 41t199 121l86 -86q-95 -96 -236 -142.5t-296 -46.5z" />
    <glyph glyph-name="Egrave" unicode="&#xc8;" horiz-adv-x="1415" 
d="M627 1937l237 -319h-119l-256 303v16h138zM340 111h971l32 -111h-1126v1475h1106l-33 -111h-950v-530h651v-111h-651v-612z" />
    <glyph glyph-name="Eacute" unicode="&#xc9;" horiz-adv-x="1415" 
d="M1040 1939v-14l-274 -309h-121l256 323h139zM340 111h971l32 -111h-1126v1475h1106l-33 -111h-950v-530h651v-111h-651v-612z" />
    <glyph glyph-name="Ecircumflex" unicode="&#xca;" horiz-adv-x="1415" 
d="M975 1618l-213 233l-213 -233h-117l262 321h133l265 -321h-117zM340 111h971l32 -111h-1126v1475h1106l-33 -111h-950v-530h651v-111h-651v-612z" />
    <glyph glyph-name="Edieresis" unicode="&#xcb;" horiz-adv-x="1415" 
d="M545 1679q-38 0 -63 25t-25 63t25 63t63 25t63 -25t25 -63t-25 -63t-63 -25zM979 1679q-38 0 -63 25t-25 63t25 63t63 25t63 -25t25 -63t-25 -63t-63 -25zM340 111h971l32 -111h-1126v1475h1106l-33 -111h-950v-530h651v-111h-651v-612z" />
    <glyph glyph-name="Igrave" unicode="&#xcc;" horiz-adv-x="557" 
d="M6 1921v16h137l238 -319h-119zM217 0v1475h123v-1475h-123z" />
    <glyph glyph-name="Iacute" unicode="&#xcd;" horiz-adv-x="557" 
d="M557 1939v-14l-274 -309h-121l256 323h139zM217 0v1475h123v-1475h-123z" />
    <glyph glyph-name="Icircumflex" unicode="&#xce;" horiz-adv-x="557" 
d="M211 1939h133l264 -321h-116l-213 233l-213 -233h-117zM340 0h-123v1475h123v-1475z" />
    <glyph glyph-name="Idieresis" unicode="&#xcf;" horiz-adv-x="557" 
d="M98 1679q-38 0 -63 25t-25 63t25 63t63 25t63 -25t25 -63t-25 -63t-63 -25zM459 1679q-38 0 -63 25t-25 63t25 63t63 25t63 -25t25 -63t-25 -63t-63 -25zM217 0v1475h123v-1475h-123z" />
    <glyph glyph-name="Eth" unicode="&#xd0;" horiz-adv-x="1689" 
d="M799 1475q230 0 404 -93t267 -260t93 -385q0 -163 -54 -299.5t-152.5 -233t-241.5 -150.5t-316 -54h-555v729h-185v107h185v639h555zM367 111h428q293 0 467 171.5t174 454.5t-174 455t-467 172h-428v-528h610v-107h-610v-618z" />
    <glyph glyph-name="Ntilde" unicode="&#xd1;" horiz-adv-x="1687" 
d="M676 1821q-54 0 -86 -48.5t-35 -130.5h-98q3 125 61.5 201t159.5 76q47 0 89 -19t72 -46.5t57.5 -55t58 -46.5t61.5 -19q54 0 86 48t35 130h98q-3 -125 -61.5 -200t-159.5 -75q-46 0 -88 19t-72 46t-58 54.5t-58.5 46.5t-61.5 19zM1352 168v1307h118v-1475h-135
l-999 1309v-1309h-119v1475h137z" />
    <glyph glyph-name="Ograve" unicode="&#xd2;" horiz-adv-x="1773" 
d="M614 1921v16h138l237 -319h-119zM887 -27q-163 0 -305 57.5t-242 158.5t-157.5 243t-57.5 305t57.5 305t157.5 243t242 158.5t305 57.5t305 -57.5t242 -158.5t157.5 -243t57.5 -305t-57.5 -305t-157.5 -243t-242 -158.5t-305 -57.5zM887 86q182 0 327 83t226.5 232
t81.5 336t-81.5 336t-226.5 232.5t-327 83.5t-327 -83.5t-226.5 -232.5t-81.5 -336t81.5 -336t226.5 -232t327 -83z" />
    <glyph glyph-name="Oacute" unicode="&#xd3;" horiz-adv-x="1773" 
d="M1165 1939v-14l-274 -309h-121l256 323h139zM887 -27q-163 0 -305 57.5t-242 158.5t-157.5 243t-57.5 305t57.5 305t157.5 243t242 158.5t305 57.5t305 -57.5t242 -158.5t157.5 -243t57.5 -305t-57.5 -305t-157.5 -243t-242 -158.5t-305 -57.5zM887 86q182 0 327 83
t226.5 232t81.5 336t-81.5 336t-226.5 232.5t-327 83.5t-327 -83.5t-226.5 -232.5t-81.5 -336t81.5 -336t226.5 -232t327 -83z" />
    <glyph glyph-name="Ocircumflex" unicode="&#xd4;" horiz-adv-x="1773" 
d="M1100 1618l-213 233l-213 -233h-117l262 321h133l265 -321h-117zM887 1501q163 0 305 -57.5t242 -158.5t157.5 -243t57.5 -305t-57.5 -305t-157.5 -243t-242 -158.5t-305 -57.5t-305 57.5t-242 158.5t-157.5 243t-57.5 305t57.5 305t157.5 243t242 158.5t305 57.5z
M887 86q182 0 327 83t226.5 232t81.5 336t-81.5 336t-226.5 232.5t-327 83.5t-327 -83.5t-226.5 -232.5t-81.5 -336t81.5 -336t226.5 -232t327 -83z" />
    <glyph glyph-name="Otilde" unicode="&#xd5;" horiz-adv-x="1773" 
d="M1053 1636q-46 0 -88 19t-72 46t-58 54.5t-58.5 46.5t-61.5 19q-54 0 -86 -48.5t-35 -130.5h-98q3 125 61.5 201t159.5 76q47 0 89 -19t72 -46.5t57.5 -55t58 -46.5t61.5 -19q54 0 86 48t35 130h98q-3 -125 -61.5 -200t-159.5 -75zM887 -27q-163 0 -305 57.5t-242 158.5
t-157.5 243t-57.5 305t57.5 305t157.5 243t242 158.5t305 57.5t305 -57.5t242 -158.5t157.5 -243t57.5 -305t-57.5 -305t-157.5 -243t-242 -158.5t-305 -57.5zM887 86q182 0 327 83t226.5 232t81.5 336t-81.5 336t-226.5 232.5t-327 83.5t-327 -83.5t-226.5 -232.5
t-81.5 -336t81.5 -336t226.5 -232t327 -83z" />
    <glyph glyph-name="Odieresis" unicode="&#xd6;" horiz-adv-x="1773" 
d="M670 1679q-38 0 -63 25t-25 63t25 63t63 25t63 -25t25 -63t-25 -63t-63 -25zM1104 1679q-38 0 -63 25t-25 63t25 63t63 25t63 -25t25 -63t-25 -63t-63 -25zM887 -27q-163 0 -305 57.5t-242 158.5t-157.5 243t-57.5 305t57.5 305t157.5 243t242 158.5t305 57.5t305 -57.5
t242 -158.5t157.5 -243t57.5 -305t-57.5 -305t-157.5 -243t-242 -158.5t-305 -57.5zM887 86q182 0 327 83t226.5 232t81.5 336t-81.5 336t-226.5 232.5t-327 83.5t-327 -83.5t-226.5 -232.5t-81.5 -336t81.5 -336t226.5 -232t327 -83z" />
    <glyph glyph-name="multiply" unicode="&#xd7;" horiz-adv-x="1280" 
d="M639 662l-371 -371l-75 76l370 370l-370 371l75 74l371 -371l371 371l75 -74l-370 -371l370 -370l-75 -76z" />
    <glyph glyph-name="Oslash" unicode="&#xd8;" horiz-adv-x="1771" 
d="M1575 1565l-182 -244q121 -105 187.5 -255t66.5 -329q0 -163 -57.5 -305.5t-157.5 -243.5t-242 -159t-305 -58q-238 0 -418 117l-135 -180h-135l182 244q-120 104 -187 255t-67 330q0 163 57.5 305t157.5 243t241 158.5t304 57.5q238 0 420 -115l135 179h135zM250 737
q0 -148 53 -274t148 -215l784 1044q-156 97 -350 97q-182 0 -327 -83.5t-226.5 -232.5t-81.5 -336zM885 86q182 0 327.5 83t227.5 232t82 336q0 148 -52.5 273.5t-148.5 214.5l-784 -1043q154 -96 348 -96z" />
    <glyph glyph-name="Ugrave" unicode="&#xd9;" horiz-adv-x="1617" 
d="M537 1921v16h137l237 -319h-118zM809 -27q-272 0 -440 150.5t-168 400.5v951h123v-940q0 -207 133.5 -328t351.5 -121t351.5 121t133.5 328v940h123v-951q0 -250 -168 -400.5t-440 -150.5z" />
    <glyph glyph-name="Uacute" unicode="&#xda;" horiz-adv-x="1617" 
d="M1087 1939v-14l-274 -309h-121l256 323h139zM809 -27q-272 0 -440 150.5t-168 400.5v951h123v-940q0 -207 133.5 -328t351.5 -121t351.5 121t133.5 328v940h123v-951q0 -250 -168 -400.5t-440 -150.5z" />
    <glyph glyph-name="Ucircumflex" unicode="&#xdb;" horiz-adv-x="1617" 
d="M1022 1618l-213 233l-213 -233h-117l262 321h133l265 -321h-117zM1294 535v940h123v-951q0 -250 -168 -400.5t-440 -150.5t-440 150.5t-168 400.5v951h123v-940q0 -207 133.5 -328t351.5 -121t351.5 121t133.5 328z" />
    <glyph glyph-name="Udieresis" unicode="&#xdc;" horiz-adv-x="1617" 
d="M592 1679q-38 0 -63 25t-25 63t25 63t63 25t63 -25t25 -63t-25 -63t-63 -25zM1026 1679q-38 0 -63 25t-25 63t25 63t63 25t63 -25t25 -63t-25 -63t-63 -25zM809 -27q-272 0 -440 150.5t-168 400.5v951h123v-940q0 -207 133.5 -328t351.5 -121t351.5 121t133.5 328v940
h123v-951q0 -250 -168 -400.5t-440 -150.5z" />
    <glyph glyph-name="Yacute" unicode="&#xdd;" horiz-adv-x="1454" 
d="M1004 1939v-14l-275 -309h-121l256 323h140zM1268 1475h139l-619 -967v-508h-122v506l-623 969h143l541 -859z" />
    <glyph glyph-name="Thorn" unicode="&#xde;" horiz-adv-x="1490" 
d="M340 1167h565q225 0 351 -115t126 -302q0 -189 -126 -304.5t-351 -115.5h-565v-330h-123v1475h123v-308zM340 440h561q170 0 263 84t93 226q0 141 -93 224t-263 83h-561v-617z" />
    <glyph glyph-name="germandbls" unicode="&#xdf;" 
d="M315 0v1071q0 177 109 282t281 105q133 0 220 -62.5t87 -158.5q0 -56 -33 -99t-123 -126q-89 -82 -118 -121t-29 -92q0 -97 110 -162l213 -129q95 -58 129.5 -103t34.5 -100q0 -95 -78.5 -156t-228.5 -61q-189 0 -371 90v-119q176 -79 373 -79q200 0 313 91.5t113 235.5
q0 96 -51 160.5t-154 128.5l-197 121q-54 33 -71 52.5t-17 39.5q0 7 1 12.5t4 12t6 11.5t10 12.5t12 13t16 16t18.5 17t23 20.5t26.5 24q107 98 146.5 159t39.5 132q0 144 -119.5 236t-305.5 92q-223 0 -365.5 -134.5t-142.5 -359.5v-1073h118z" />
    <glyph glyph-name="agrave" unicode="&#xe0;" horiz-adv-x="1288" 
d="M496 1573l237 -320h-119l-256 303v17h138zM1202 94q34 0 55 8v-98q-24 -12 -69 -12q-92 0 -147.5 57t-55.5 160v37q-44 -95 -123.5 -158t-166.5 -88t-185 -25q-117 0 -211.5 37t-153.5 113t-59 180q0 166 145 258t418 92h334v50q0 147 -101 234t-268 87q-104 0 -204 -35
t-162 -96l-74 86q80 74 198.5 114t245.5 40q218 0 349 -113.5t131 -308.5v-498q0 -59 27 -90t77 -31zM520 80q53 0 105 10.5t105 32.5t97.5 60t79.5 88.5t55 123.5t21 160h-334q-224 0 -335 -66t-111 -180q0 -106 90 -167.5t227 -61.5z" />
    <glyph glyph-name="aacute" unicode="&#xe1;" horiz-adv-x="1288" 
d="M909 1575v-14l-274 -310h-121l256 324h139zM1202 94q34 0 55 8v-98q-24 -12 -69 -12q-92 0 -147.5 57t-55.5 160v37q-44 -95 -123.5 -158t-166.5 -88t-185 -25q-117 0 -211.5 37t-153.5 113t-59 180q0 166 145 258t418 92h334v50q0 147 -101 234t-268 87q-104 0 -204 -35
t-162 -96l-74 86q80 74 198.5 114t245.5 40q218 0 349 -113.5t131 -308.5v-498q0 -59 27 -90t77 -31zM520 80q53 0 105 10.5t105 32.5t97.5 60t79.5 88.5t55 123.5t21 160h-334q-224 0 -335 -66t-111 -180q0 -106 90 -167.5t227 -61.5z" />
    <glyph glyph-name="acircumflex" unicode="&#xe2;" horiz-adv-x="1288" 
d="M844 1253l-213 234l-213 -234h-117l262 322h133l265 -322h-117zM1202 94q34 0 55 8v-98q-24 -12 -69 -12q-92 0 -147.5 57t-55.5 160v37q-44 -95 -123.5 -158t-166.5 -88t-185 -25q-117 0 -211.5 37t-153.5 113t-59 180q0 166 145 258t418 92h334v50q0 147 -101 234
t-268 87q-104 0 -204 -35t-162 -96l-74 86q80 74 198.5 114t245.5 40q218 0 349 -113.5t131 -308.5v-498q0 -59 27 -90t77 -31zM520 80q53 0 105 10.5t105 32.5t97.5 60t79.5 88.5t55 123.5t21 160h-334q-224 0 -335 -66t-111 -180q0 -106 90 -167.5t227 -61.5z" />
    <glyph glyph-name="atilde" unicode="&#xe3;" horiz-adv-x="1288" 
d="M459 1456q-54 0 -86 -48t-35 -130h-98q3 125 61.5 200.5t159.5 75.5q47 0 89 -19t72 -46.5t57.5 -55t58 -46.5t61.5 -19q54 0 86 48t35 130h98q-3 -125 -61.5 -199.5t-159.5 -74.5q-46 0 -88 19t-72 46t-58 54t-58.5 46t-61.5 19zM1202 94q34 0 55 8v-98q-24 -12 -69 -12
q-92 0 -147.5 57t-55.5 160v37q-44 -95 -123.5 -158t-166.5 -88t-185 -25q-117 0 -211.5 37t-153.5 113t-59 180q0 166 145 258t418 92h334v50q0 147 -101 234t-268 87q-104 0 -204 -35t-162 -96l-74 86q80 74 198.5 114t245.5 40q218 0 349 -113.5t131 -308.5v-498
q0 -59 27 -90t77 -31zM520 80q53 0 105 10.5t105 32.5t97.5 60t79.5 88.5t55 123.5t21 160h-334q-224 0 -335 -66t-111 -180q0 -106 90 -167.5t227 -61.5z" />
    <glyph glyph-name="adieresis" unicode="&#xe4;" horiz-adv-x="1288" 
d="M414 1315q-38 0 -63 25t-25 63t25 63t63 25t63 -25t25 -63t-25 -63t-63 -25zM848 1315q-38 0 -63 25t-25 63t25 63t63 25t63 -25t25 -63t-25 -63t-63 -25zM1202 94q34 0 55 8v-98q-24 -12 -69 -12q-92 0 -147.5 57t-55.5 160v37q-44 -95 -123.5 -158t-166.5 -88t-185 -25
q-117 0 -211.5 37t-153.5 113t-59 180q0 166 145 258t418 92h334v50q0 147 -101 234t-268 87q-104 0 -204 -35t-162 -96l-74 86q80 74 198.5 114t245.5 40q218 0 349 -113.5t131 -308.5v-498q0 -59 27 -90t77 -31zM520 80q53 0 105 10.5t105 32.5t97.5 60t79.5 88.5
t55 123.5t21 160h-334q-224 0 -335 -66t-111 -180q0 -106 90 -167.5t227 -61.5z" />
    <glyph glyph-name="aring" unicode="&#xe5;" horiz-adv-x="1288" 
d="M627 1251q-118 0 -194.5 73t-76.5 181q0 110 76.5 183t194.5 73q119 0 194.5 -73t75.5 -183q0 -109 -75.5 -181.5t-194.5 -72.5zM627 1677q-74 0 -124 -49t-50 -123q0 -73 50 -121.5t124 -48.5q75 0 125.5 48.5t50.5 121.5q0 75 -50.5 123.5t-125.5 48.5zM1202 94
q34 0 55 8v-98q-24 -12 -69 -12q-92 0 -147.5 57t-55.5 160v37q-44 -95 -123.5 -158t-166.5 -88t-185 -25q-117 0 -211.5 37t-153.5 113t-59 180q0 166 145 258t418 92h334v50q0 147 -101 234t-268 87q-104 0 -204 -35t-162 -96l-74 86q80 74 198.5 114t245.5 40
q218 0 349 -113.5t131 -308.5v-498q0 -59 27 -90t77 -31zM520 80q53 0 105 10.5t105 32.5t97.5 60t79.5 88.5t55 123.5t21 160h-334q-224 0 -335 -66t-111 -180q0 -106 90 -167.5t227 -61.5z" />
    <glyph glyph-name="ae" unicode="&#xe6;" horiz-adv-x="2156" 
d="M2058 584q0 -21 -4 -49h-960q8 -202 137 -327.5t332 -125.5q114 0 204 40t146 105l80 -80q-69 -80 -180.5 -127t-251.5 -47q-196 0 -332.5 92t-196.5 254q-29 -90 -86.5 -159t-130 -108.5t-150 -59t-157.5 -19.5q-114 0 -209 38t-154 114t-59 176q0 166 144.5 254
t410.5 88h336v59q0 149 -96.5 236.5t-264.5 87.5q-105 0 -205 -35.5t-165 -97.5l-70 86q79 75 198 114.5t247 39.5q173 0 286.5 -71.5t155.5 -203.5q66 130 189 203.5t288 73.5q113 0 211.5 -45.5t165 -121.5t104 -176t37.5 -208zM1542 1026q-181 0 -300.5 -107t-143.5 -284
h839q-14 164 -123.5 277.5t-271.5 113.5zM518 78q62 0 122.5 14t120.5 48.5t106 86t76.5 132.5t33.5 182l-336 2q-214 1 -324 -61.5t-110 -178.5q0 -101 89 -163t222 -62z" />
    <glyph glyph-name="ccedilla" unicode="&#xe7;" horiz-adv-x="1202" 
d="M721 -27h-12l-70 -77q33 10 74 10q100 0 163.5 -45.5t63.5 -118.5q0 -82 -74.5 -130t-201.5 -48q-88 0 -164.5 22.5t-126.5 55.5l47 71q109 -67 244 -67q80 0 123.5 25t43.5 67t-40.5 67t-110.5 25q-72 0 -135 -29l-41 31l110 150q-225 32 -364 189.5t-139 383.5
q0 253 173 417.5t439 164.5q241 0 395 -148l-76 -88q-131 125 -325 125q-134 0 -244.5 -59t-176 -167.5t-65.5 -244.5q0 -206 140.5 -338.5t347.5 -132.5q100 0 190 33t142 92l79 -82q-64 -74 -172.5 -114t-236.5 -40z" />
    <glyph glyph-name="egrave" unicode="&#xe8;" horiz-adv-x="1341" 
d="M545 1573l237 -320h-118l-256 303v17h137zM1243 559q0 -7 -4 -39h-1006q12 -195 144.5 -316.5t339.5 -121.5q123 0 220.5 41t158.5 108l78 -81q-69 -80 -187.5 -128.5t-273.5 -48.5q-268 0 -434 163t-166 417t160 419t407 165q166 0 295.5 -78t198.5 -209t69 -291z
M680 1028q-176 0 -299 -112t-143 -298h882q-12 174 -134 292t-306 118z" />
    <glyph glyph-name="eacute" unicode="&#xe9;" horiz-adv-x="1341" 
d="M958 1575v-14l-274 -310h-121l256 324h139zM1243 559q0 -7 -4 -39h-1006q12 -195 144.5 -316.5t339.5 -121.5q123 0 220.5 41t158.5 108l78 -81q-69 -80 -187.5 -128.5t-273.5 -48.5q-268 0 -434 163t-166 417t160 419t407 165q166 0 295.5 -78t198.5 -209t69 -291z
M680 1028q-176 0 -299 -112t-143 -298h882q-12 174 -134 292t-306 118z" />
    <glyph glyph-name="ecircumflex" unicode="&#xea;" horiz-adv-x="1341" 
d="M893 1253l-213 234l-213 -234h-117l262 322h133l265 -322h-117zM1243 559q0 -7 -4 -39h-1006q12 -195 144.5 -316.5t339.5 -121.5q123 0 220.5 41t158.5 108l78 -81q-69 -80 -187.5 -128.5t-273.5 -48.5q-268 0 -434 163t-166 417t160 419t407 165q166 0 295.5 -78
t198.5 -209t69 -291zM680 1028q-176 0 -299 -112t-143 -298h882q-12 174 -134 292t-306 118z" />
    <glyph glyph-name="edieresis" unicode="&#xeb;" horiz-adv-x="1341" 
d="M463 1315q-38 0 -63 25t-25 63t25 63t63 25t63 -25t25 -63t-25 -63t-63 -25zM897 1315q-38 0 -63 25t-25 63t25 63t63 25t63 -25t25 -63t-25 -63t-63 -25zM1243 559q0 -7 -4 -39h-1006q12 -195 144.5 -316.5t339.5 -121.5q123 0 220.5 41t158.5 108l78 -81
q-69 -80 -187.5 -128.5t-273.5 -48.5q-268 0 -434 163t-166 417t160 419t407 165q166 0 295.5 -78t198.5 -209t69 -291zM680 1028q-176 0 -299 -112t-143 -298h882q-12 174 -134 292t-306 118z" />
    <glyph glyph-name="igrave" unicode="&#xec;" horiz-adv-x="512" 
d="M330 1253h-119l-215 303v17h137zM315 0h-118v1110h118v-1110z" />
    <glyph glyph-name="iacute" unicode="&#xed;" horiz-adv-x="512" 
d="M535 1575v-14l-275 -310h-121l256 324h140zM315 0h-118v1110h118v-1110z" />
    <glyph glyph-name="icircumflex" unicode="&#xee;" horiz-adv-x="512" 
d="M188 1575h134l264 -322h-117l-213 234l-213 -234h-117zM315 0h-118v1110h118v-1110z" />
    <glyph glyph-name="idieresis" unicode="&#xef;" horiz-adv-x="512" 
d="M76 1315q-38 0 -63 25t-25 63t25 63t63 25t63 -25t25 -63t-25 -63t-63 -25zM436 1315q-38 0 -63 25t-25 63t25 63t63 25t63 -25t25 -63t-25 -63t-63 -25zM315 0h-118v1110h118v-1110z" />
    <glyph glyph-name="eth" unicode="&#xf0;" horiz-adv-x="1368" 
d="M1083 1460l-266 -106q209 -175 323.5 -396t114.5 -417q0 -117 -42.5 -221.5t-117 -181t-181 -121t-228.5 -44.5q-164 0 -296.5 76t-205.5 203t-73 278q0 150 73 277t205 202.5t293 75.5q117 0 206 -44.5t163 -139.5q-124 227 -349 408l-321 -129l-35 86l268 106
q-100 69 -215 119l43 86q155 -63 289 -158l318 127zM686 84q191 0 319 130.5t128 317.5q0 188 -127.5 316.5t-319.5 128.5q-128 0 -232.5 -61t-162.5 -163.5t-58 -222.5q0 -185 129.5 -315.5t323.5 -130.5z" />
    <glyph glyph-name="ntilde" unicode="&#xf1;" horiz-adv-x="1361" 
d="M522 1456q-54 0 -86 -48t-35 -130h-98q3 125 61.5 200.5t159.5 75.5q47 0 89 -19t72 -46.5t57.5 -55t58 -46.5t61.5 -19q54 0 86 48t35 130h98q-3 -125 -61.5 -199.5t-159.5 -74.5q-46 0 -88 19t-72 46t-58 54t-58.5 46t-61.5 19zM741 1137q201 0 321 -113t120 -305v-719
h-119v700q0 153 -89 239.5t-253 86.5q-180 0 -293 -100.5t-113 -245.5v-680h-118v1110h114v-186q71 110 184.5 161.5t245.5 51.5z" />
    <glyph glyph-name="ograve" unicode="&#xf2;" 
d="M422 1556v17h137l238 -320h-119zM694 -27q165 0 299 76.5t209.5 210t75.5 295.5t-75.5 295.5t-209.5 210t-299 76.5q-124 0 -232.5 -45t-185.5 -122.5t-121 -185.5t-44 -229t44 -229t121 -185.5t185.5 -122.5t232.5 -45zM694 1026q196 0 329.5 -135.5t133.5 -335.5
t-133.5 -335.5t-329.5 -135.5t-329.5 135.5t-133.5 335.5t133.5 335.5t329.5 135.5z" />
    <glyph glyph-name="oacute" unicode="&#xf3;" 
d="M973 1575v-14l-275 -310h-120l256 324h139zM694 -27q165 0 299 76.5t209.5 210t75.5 295.5t-75.5 295.5t-209.5 210t-299 76.5q-124 0 -232.5 -45t-185.5 -122.5t-121 -185.5t-44 -229t44 -229t121 -185.5t185.5 -122.5t232.5 -45zM694 1026q196 0 329.5 -135.5
t133.5 -335.5t-133.5 -335.5t-329.5 -135.5t-329.5 135.5t-133.5 335.5t133.5 335.5t329.5 135.5z" />
    <glyph glyph-name="ocircumflex" unicode="&#xf4;" 
d="M907 1253l-213 234l-213 -234h-116l262 322h133l264 -322h-117zM694 1137q165 0 299 -76.5t209.5 -210t75.5 -295.5t-75.5 -295.5t-209.5 -210t-299 -76.5q-124 0 -232.5 45t-185.5 122.5t-121 185.5t-44 229t44 229t121 185.5t185.5 122.5t232.5 45zM694 84
q196 0 329.5 135.5t133.5 335.5t-133.5 335.5t-329.5 135.5t-329.5 -135.5t-133.5 -335.5t133.5 -335.5t329.5 -135.5z" />
    <glyph glyph-name="otilde" unicode="&#xf5;" 
d="M860 1272q-46 0 -88 19t-72 46t-58 54t-58.5 46t-61.5 19q-54 0 -86 -48t-35 -130h-98q3 125 61.5 200.5t159.5 75.5q47 0 89 -19t72 -46.5t57.5 -55t58 -46.5t61.5 -19q54 0 86 48t35 130h98q-3 -125 -61.5 -199.5t-159.5 -74.5zM694 -27q165 0 299 76.5t209.5 210
t75.5 295.5t-75.5 295.5t-209.5 210t-299 76.5q-124 0 -232.5 -45t-185.5 -122.5t-121 -185.5t-44 -229t44 -229t121 -185.5t185.5 -122.5t232.5 -45zM694 1026q196 0 329.5 -135.5t133.5 -335.5t-133.5 -335.5t-329.5 -135.5t-329.5 135.5t-133.5 335.5t133.5 335.5
t329.5 135.5z" />
    <glyph glyph-name="odieresis" unicode="&#xf6;" 
d="M477 1315q-38 0 -63 25t-25 63t25 63t63 25t63 -25t25 -63t-25 -63t-63 -25zM911 1315q-38 0 -63 25t-25 63t25 63t63 25t63 -25t25 -63t-25 -63t-63 -25zM694 -27q165 0 299 76.5t209.5 210t75.5 295.5t-75.5 295.5t-209.5 210t-299 76.5q-124 0 -232.5 -45
t-185.5 -122.5t-121 -185.5t-44 -229t44 -229t121 -185.5t185.5 -122.5t232.5 -45zM694 1026q196 0 329.5 -135.5t133.5 -335.5t-133.5 -335.5t-329.5 -135.5t-329.5 135.5t-133.5 335.5t133.5 335.5t329.5 135.5z" />
    <glyph glyph-name="divide" unicode="&#xf7;" horiz-adv-x="1280" 
d="M639 1034q-39 0 -65.5 26.5t-26.5 65.5q0 38 26.5 64.5t65.5 26.5t65.5 -26.5t26.5 -64.5q0 -39 -26.5 -65.5t-65.5 -26.5zM1124 684h-968v104h968v-104zM639 258q-40 0 -66 26t-26 64q0 39 26.5 65.5t65.5 26.5t65.5 -26.5t26.5 -65.5q0 -38 -26 -64t-66 -26z" />
    <glyph glyph-name="oslash" unicode="&#xf8;" 
d="M1237 1204l-154 -207q92 -81 143.5 -195.5t51.5 -246.5q0 -162 -75.5 -295.5t-209.5 -210t-299 -76.5q-172 0 -305 82l-110 -149h-127l153 209q-92 79 -143 193.5t-51 246.5q0 121 44 229t121 185.5t185.5 122.5t232.5 45q171 0 307 -82l109 149h127zM231 555
q0 -102 38.5 -192t105.5 -154l559 754q-108 63 -240 63q-196 0 -329.5 -135.5t-133.5 -335.5zM694 84q198 0 331.5 135t133.5 336q0 104 -38 194t-107 154l-557 -756q108 -63 237 -63z" />
    <glyph glyph-name="ugrave" unicode="&#xf9;" horiz-adv-x="1353" 
d="M535 1573l237 -320h-119l-256 303v17h138zM1038 430v680h119v-1110h-115v186q-71 -110 -183.5 -161.5t-242.5 -51.5q-199 0 -317.5 113.5t-118.5 304.5v719h119v-700q0 -152 88.5 -239t249.5 -87q177 0 289 100.5t112 245.5z" />
    <glyph glyph-name="uacute" unicode="&#xfa;" horiz-adv-x="1353" 
d="M948 1575v-14l-274 -310h-121l256 324h139zM1038 430v680h119v-1110h-115v186q-71 -110 -183.5 -161.5t-242.5 -51.5q-199 0 -317.5 113.5t-118.5 304.5v719h119v-700q0 -152 88.5 -239t249.5 -87q177 0 289 100.5t112 245.5z" />
    <glyph glyph-name="ucircumflex" unicode="&#xfb;" horiz-adv-x="1353" 
d="M883 1253l-213 234l-213 -234h-117l262 322h133l264 -322h-116zM1038 430v680h119v-1110h-115v186q-71 -110 -183.5 -161.5t-242.5 -51.5q-199 0 -317.5 113.5t-118.5 304.5v719h119v-700q0 -152 88.5 -239t249.5 -87q177 0 289 100.5t112 245.5z" />
    <glyph glyph-name="udieresis" unicode="&#xfc;" horiz-adv-x="1353" 
d="M453 1315q-38 0 -63 25t-25 63t25 63t63 25t63 -25t25 -63t-25 -63t-63 -25zM887 1315q-38 0 -63 25t-25 63t25 63t63 25t63 -25t25 -63t-25 -63t-63 -25zM1038 430v680h119v-1110h-115v186q-71 -110 -183.5 -161.5t-242.5 -51.5q-199 0 -317.5 113.5t-118.5 304.5v719
h119v-700q0 -152 88.5 -239t249.5 -87q177 0 289 100.5t112 245.5z" />
    <glyph glyph-name="yacute" unicode="&#xfd;" horiz-adv-x="1224" 
d="M891 1575v-14l-275 -310h-120l256 324h139zM616 131l437 979h129l-584 -1268q-107 -231 -328 -231q-109 0 -211 45l41 104q84 -43 166 -43q156 0 236 174l53 115l-512 1104h133z" />
    <glyph glyph-name="thorn" unicode="&#xfe;" horiz-adv-x="1449" 
d="M780 1137q159 0 287.5 -76t200 -209t71.5 -297t-71.5 -297t-200 -209t-287.5 -76q-150 0 -273 68t-192 188v-598h-118v1909h118v-661q69 122 191.5 190t273.5 68zM768 82q198 0 324.5 134.5t126.5 338.5t-126.5 338.5t-324.5 134.5q-124 0 -228 -57.5t-167.5 -167
t-63.5 -248.5q0 -140 63.5 -249.5t167.5 -166.5t228 -57z" />
    <glyph glyph-name="ydieresis" unicode="&#xff;" horiz-adv-x="1224" 
d="M395 1315q-38 0 -63 25t-25 63t25 63t63 25t63 -25t25 -63t-25 -63t-63 -25zM829 1315q-38 0 -63 25t-25 63t25 63t63 25t63.5 -25t25.5 -63t-25.5 -63t-63.5 -25zM616 131l437 979h129l-584 -1268q-107 -231 -328 -231q-109 0 -211 45l41 104q84 -43 166 -43
q156 0 236 174l53 115l-512 1104h133z" />
    <glyph glyph-name="Amacron" unicode="&#x100;" horiz-adv-x="1519" 
d="M449 1786h622v-98h-622v98zM1475 0h-134l-184 436h-797l-186 -436h-129l641 1475h150zM762 1368l-354 -823h702z" />
    <glyph glyph-name="amacron" unicode="&#x101;" horiz-adv-x="1288" 
d="M319 1421h623v-98h-623v98zM1202 94q34 0 55 8v-98q-24 -12 -69 -12q-92 0 -147.5 57t-55.5 160v37q-44 -95 -123.5 -158t-166.5 -88t-185 -25q-117 0 -211.5 37t-153.5 113t-59 180q0 166 145 258t418 92h334v50q0 147 -101 234t-268 87q-104 0 -204 -35t-162 -96
l-74 86q80 74 198.5 114t245.5 40q218 0 349 -113.5t131 -308.5v-498q0 -59 27 -90t77 -31zM520 80q53 0 105 10.5t105 32.5t97.5 60t79.5 88.5t55 123.5t21 160h-334q-224 0 -335 -66t-111 -180q0 -106 90 -167.5t227 -61.5z" />
    <glyph glyph-name="Abreve" unicode="&#x102;" horiz-adv-x="1519" 
d="M760 1614q-139 0 -229.5 90.5t-90.5 234.5h95q1 -100 65 -163.5t160 -63.5t160 63.5t65 163.5h94q0 -144 -90 -234.5t-229 -90.5zM1475 0h-134l-184 436h-797l-186 -436h-129l641 1475h150zM762 1368l-354 -823h702z" />
    <glyph glyph-name="abreve" unicode="&#x103;" horiz-adv-x="1288" 
d="M631 1249q-139 0 -229.5 91t-90.5 235h95q1 -100 65 -163.5t160 -63.5t160 63.5t65 163.5h94q0 -144 -90 -235t-229 -91zM1202 94q34 0 55 8v-98q-24 -12 -69 -12q-92 0 -147.5 57t-55.5 160v37q-44 -95 -123.5 -158t-166.5 -88t-185 -25q-117 0 -211.5 37t-153.5 113
t-59 180q0 166 145 258t418 92h334v50q0 147 -101 234t-268 87q-104 0 -204 -35t-162 -96l-74 86q80 74 198.5 114t245.5 40q218 0 349 -113.5t131 -308.5v-498q0 -59 27 -90t77 -31zM520 80q53 0 105 10.5t105 32.5t97.5 60t79.5 88.5t55 123.5t21 160h-334
q-224 0 -335 -66t-111 -180q0 -106 90 -167.5t227 -61.5z" />
    <glyph glyph-name="Aogonek" unicode="&#x104;" horiz-adv-x="1519" 
d="M1448 -244l51 -73q-87 -80 -221 -80q-90 0 -146.5 46t-56.5 126q0 69 60 138.5t192 123.5l-170 397h-797l-186 -434h-129l641 1475h150l637 -1471q-289 -103 -289 -215q0 -41 31 -65.5t77 -24.5q87 0 156 57zM762 1368l-354 -823h702z" />
    <glyph glyph-name="aogonek" unicode="&#x105;" horiz-adv-x="1288" 
d="M1257 106v-102q-97 -32 -163.5 -63.5t-98.5 -59.5t-44.5 -50t-12.5 -44q0 -41 32 -64.5t81 -23.5q84 0 153 57l51 -73q-83 -80 -219 -80q-91 0 -150 44.5t-59 123.5q0 69 59.5 134t190.5 113q-96 52 -96 172l2 48q-45 -91 -123.5 -152.5t-165.5 -87t-184 -25.5
q-180 0 -302 88.5t-122 243.5q0 167 154.5 258.5t455.5 91.5h283v47q0 147 -99.5 234.5t-265.5 87.5q-105 0 -204.5 -34.5t-161.5 -96.5l-74 86q79 75 197.5 114.5t246.5 39.5q218 0 349 -113.5t131 -308.5v-502q0 -53 27.5 -82t76.5 -29q34 0 55 8zM520 80q65 0 126.5 14.5
t122.5 49.5t106 88t74 136t30 187h-283q-250 0 -369.5 -65.5t-119.5 -180.5q0 -106 89 -167.5t224 -61.5z" />
    <glyph glyph-name="Cacute" unicode="&#x106;" horiz-adv-x="1536" 
d="M1153 1939v-14l-274 -309h-121l256 323h139zM928 -27q-227 0 -411.5 98.5t-289 273t-104.5 390.5q0 217 105 393t286 274.5t401 98.5q158 0 300 -49.5t231 -140.5l-82 -88q-81 78 -202 122t-251 44q-178 0 -329 -83.5t-241.5 -234.5t-90.5 -336q0 -184 89.5 -333
t243.5 -232.5t341 -83.5q130 0 251 41t199 121l86 -86q-95 -96 -236 -142.5t-296 -46.5z" />
    <glyph glyph-name="cacute" unicode="&#x107;" horiz-adv-x="1202" 
d="M952 1575v-14l-274 -310h-121l256 324h139zM721 -27q-132 0 -245.5 43.5t-193.5 120.5t-125.5 185t-45.5 233q0 253 173 417.5t439 164.5q241 0 395 -148l-76 -88q-131 125 -325 125q-134 0 -244.5 -59t-176 -167.5t-65.5 -244.5q0 -206 140.5 -338.5t347.5 -132.5
q100 0 190 33t142 92l79 -82q-64 -74 -172.5 -114t-236.5 -40z" />
    <glyph glyph-name="Ccircumflex" unicode="&#x108;" horiz-adv-x="1536" 
d="M1087 1618l-213 233l-212 -233h-117l262 321h133l264 -321h-117zM1374 248l86 -86q-95 -96 -236 -142.5t-296 -46.5q-227 0 -411.5 98.5t-289 273t-104.5 390.5q0 217 105 393t286 274.5t401 98.5q158 0 300 -49.5t231 -140.5l-82 -88q-81 78 -202 122t-251 44
q-178 0 -329 -83.5t-241.5 -234.5t-90.5 -336q0 -184 89.5 -333t243.5 -232.5t341 -83.5q130 0 251 41t199 121z" />
    <glyph glyph-name="ccircumflex" unicode="&#x109;" horiz-adv-x="1202" 
d="M887 1253l-213 234l-213 -234h-117l262 322h133l265 -322h-117zM1051 209l79 -82q-64 -74 -172.5 -114t-236.5 -40q-132 0 -245.5 43.5t-193.5 120.5t-125.5 185t-45.5 233q0 253 173 417.5t439 164.5q241 0 395 -148l-76 -88q-131 125 -325 125q-134 0 -244.5 -59
t-176 -167.5t-65.5 -244.5q0 -206 140.5 -338.5t347.5 -132.5q100 0 190 33t142 92z" />
    <glyph glyph-name="Cdotaccent" unicode="&#x10a;" horiz-adv-x="1536" 
d="M874 1855q38 0 63.5 -25t25.5 -63t-25.5 -63t-63.5 -25t-63 25t-25 63t25 63t63 25zM928 -27q-227 0 -411.5 98.5t-289 273t-104.5 390.5q0 217 105 393t286 274.5t401 98.5q158 0 300 -49.5t231 -140.5l-82 -88q-81 78 -202 122t-251 44q-178 0 -329 -83.5
t-241.5 -234.5t-90.5 -336q0 -184 89.5 -333t243.5 -232.5t341 -83.5q130 0 251 41t199 121l86 -86q-95 -96 -236 -142.5t-296 -46.5z" />
    <glyph glyph-name="cdotaccent" unicode="&#x10b;" horiz-adv-x="1202" 
d="M674 1491q38 0 63 -25t25 -63t-25 -63t-63 -25t-63 25t-25 63t25 63t63 25zM721 -27q-132 0 -245.5 43.5t-193.5 120.5t-125.5 185t-45.5 233q0 253 173 417.5t439 164.5q241 0 395 -148l-76 -88q-131 125 -325 125q-134 0 -244.5 -59t-176 -167.5t-65.5 -244.5
q0 -206 140.5 -338.5t347.5 -132.5q100 0 190 33t142 92l79 -82q-64 -74 -172.5 -114t-236.5 -40z" />
    <glyph glyph-name="Ccaron" unicode="&#x10c;" horiz-adv-x="1536" 
d="M1204 1939l-264 -321h-133l-262 321h117l212 -233l213 233h117zM1374 248l86 -86q-95 -96 -236 -142.5t-296 -46.5q-227 0 -411.5 98.5t-289 273t-104.5 390.5q0 217 105 393t286 274.5t401 98.5q158 0 300 -49.5t231 -140.5l-82 -88q-81 78 -202 122t-251 44
q-178 0 -329 -83.5t-241.5 -234.5t-90.5 -336q0 -184 89.5 -333t243.5 -232.5t341 -83.5q130 0 251 41t199 121z" />
    <glyph glyph-name="ccaron" unicode="&#x10d;" horiz-adv-x="1202" 
d="M1004 1575l-265 -322h-133l-262 322h117l213 -234l213 234h117zM1051 209l79 -82q-64 -74 -172.5 -114t-236.5 -40q-132 0 -245.5 43.5t-193.5 120.5t-125.5 185t-45.5 233q0 253 173 417.5t439 164.5q241 0 395 -148l-76 -88q-131 125 -325 125q-134 0 -244.5 -59
t-176 -167.5t-65.5 -244.5q0 -206 140.5 -338.5t347.5 -132.5q100 0 190 33t142 92z" />
    <glyph glyph-name="Dcaron" unicode="&#x10e;" horiz-adv-x="1662" 
d="M1163 1939l-264 -321h-133l-262 321h117l213 -233l213 233h116zM772 1475q230 0 404 -93t267 -260t93 -385q0 -163 -54 -299.5t-152.5 -233t-241.5 -150.5t-316 -54h-555v1475h555zM340 111h428q293 0 467 171.5t174 454.5t-174 455t-467 172h-428v-1253z" />
    <glyph glyph-name="dcaron" unicode="&#x10f;" horiz-adv-x="1492" 
d="M1135 879v661h118v-1540h-114v238q-69 -125 -192.5 -195t-276.5 -70q-159 0 -287.5 76t-200 209t-71.5 297t71.5 297t200 209t287.5 76q151 0 273.5 -68t191.5 -190zM1376 1090l76 450h115l-101 -450h-90zM682 82q124 0 228 57t167.5 166.5t63.5 249.5q0 139 -63.5 248.5
t-167.5 167t-228 57.5q-198 0 -324.5 -134.5t-126.5 -338.5t126.5 -338.5t324.5 -134.5z" />
    <glyph glyph-name="Dcroat" unicode="&#x110;" horiz-adv-x="1689" 
d="M799 1475q230 0 404 -93t267 -260t93 -385q0 -163 -54 -299.5t-152.5 -233t-241.5 -150.5t-316 -54h-555v729h-185v107h185v639h555zM367 111h428q293 0 467 171.5t174 454.5t-174 455t-467 172h-428v-528h610v-107h-610v-618z" />
    <glyph glyph-name="dcroat" unicode="&#x111;" horiz-adv-x="1454" 
d="M1257 1374h183v-96h-183v-1278h-114v246q-69 -128 -195 -200.5t-278 -72.5q-164 0 -292 76t-197.5 208t-69.5 296t69.5 296t197.5 208t292 76q151 0 275.5 -70.5t193.5 -194.5v410h-443v96h443v166h118v-166zM678 82q194 0 328.5 130.5t134.5 340.5t-134.5 340.5
t-328.5 130.5q-193 0 -320 -134t-127 -337q0 -202 127 -336.5t320 -134.5z" />
    <glyph glyph-name="Emacron" unicode="&#x112;" horiz-adv-x="1415" 
d="M451 1786h622v-98h-622v98zM340 111h971l32 -111h-1126v1475h1106l-33 -111h-950v-530h651v-111h-651v-612z" />
    <glyph glyph-name="emacron" unicode="&#x113;" horiz-adv-x="1341" 
d="M369 1421h622v-98h-622v98zM1243 559q0 -7 -4 -39h-1006q12 -195 144.5 -316.5t339.5 -121.5q123 0 220.5 41t158.5 108l78 -81q-69 -80 -187.5 -128.5t-273.5 -48.5q-268 0 -434 163t-166 417t160 419t407 165q166 0 295.5 -78t198.5 -209t69 -291zM680 1028
q-176 0 -299 -112t-143 -298h882q-12 174 -134 292t-306 118z" />
    <glyph glyph-name="Ebreve" unicode="&#x114;" horiz-adv-x="1415" 
d="M762 1614q-139 0 -229.5 90.5t-90.5 234.5h95q1 -100 65 -163.5t160 -63.5t160 63.5t65 163.5h94q0 -144 -90 -234.5t-229 -90.5zM340 111h971l32 -111h-1126v1475h1106l-33 -111h-950v-530h651v-111h-651v-612z" />
    <glyph glyph-name="ebreve" unicode="&#x115;" horiz-adv-x="1341" 
d="M680 1249q-139 0 -229.5 91t-90.5 235h95q1 -100 65 -163.5t160 -63.5t160 63.5t65 163.5h94q0 -144 -90 -235t-229 -91zM1243 559q0 -7 -4 -39h-1006q12 -195 144.5 -316.5t339.5 -121.5q123 0 220.5 41t158.5 108l78 -81q-69 -80 -187.5 -128.5t-273.5 -48.5
q-268 0 -434 163t-166 417t160 419t407 165q166 0 295.5 -78t198.5 -209t69 -291zM680 1028q-176 0 -299 -112t-143 -298h882q-12 174 -134 292t-306 118z" />
    <glyph glyph-name="Edotaccent" unicode="&#x116;" horiz-adv-x="1415" 
d="M762 1679q-38 0 -63 25t-25 63t25 63t63 25t63 -25t25 -63t-25 -63t-63 -25zM340 111h971l32 -111h-1126v1475h1106l-33 -111h-950v-530h651v-111h-651v-612z" />
    <glyph glyph-name="edotaccent" unicode="&#x117;" horiz-adv-x="1341" 
d="M680 1315q-38 0 -63 25t-25 63t25 63t63 25t63 -25t25 -63t-25 -63t-63 -25zM1243 559q0 -7 -4 -39h-1006q12 -195 144.5 -316.5t339.5 -121.5q123 0 220.5 41t158.5 108l78 -81q-69 -80 -187.5 -128.5t-273.5 -48.5q-268 0 -434 163t-166 417t160 419t407 165
q166 0 295.5 -78t198.5 -209t69 -291zM680 1028q-176 0 -299 -112t-143 -298h882q-12 174 -134 292t-306 118z" />
    <glyph glyph-name="Eogonek" unicode="&#x118;" horiz-adv-x="1415" 
d="M1083 -301q87 0 156 57l53 -73q-87 -80 -221 -80q-86 0 -141.5 44.5t-55.5 123.5q0 57 43 121.5t136 107.5h-836v1475h1106l-33 -111h-950v-530h666v-111h-666v-612h971l30 -109h-24q-140 -7 -237 -77t-97 -138q0 -42 29 -65t71 -23z" />
    <glyph glyph-name="eogonek" unicode="&#x119;" horiz-adv-x="1327" 
d="M1229 559q0 -23 -2 -41h-991q11 -195 140.5 -315.5t332.5 -120.5q121 -1 217.5 40t158.5 107l76 -79q-31 -36 -85.5 -71.5t-106.5 -63.5t-101.5 -59.5t-79.5 -72t-30 -88.5q0 -44 34.5 -70t84.5 -26q82 0 151 57l49 -73q-83 -80 -215 -80q-91 0 -153 46t-62 130
q0 109 127 198q-46 -4 -65 -4q-267 0 -431.5 162.5t-164.5 417.5q0 252 158.5 417t402.5 165q123 0 228 -45.5t176 -123.5t111 -183.5t40 -223.5zM674 1026q-173 0 -294.5 -112t-141.5 -296h868q-12 173 -131 290.5t-301 117.5z" />
    <glyph glyph-name="Ecaron" unicode="&#x11a;" horiz-adv-x="1415" 
d="M1092 1939l-265 -321h-133l-262 321h117l213 -233l213 233h117zM340 111h971l32 -111h-1126v1475h1106l-33 -111h-950v-530h651v-111h-651v-612z" />
    <glyph glyph-name="ecaron" unicode="&#x11b;" horiz-adv-x="1341" 
d="M1010 1575l-265 -322h-133l-262 322h117l213 -234l213 234h117zM1243 559q0 -7 -4 -39h-1006q12 -195 144.5 -316.5t339.5 -121.5q123 0 220.5 41t158.5 108l78 -81q-69 -80 -187.5 -128.5t-273.5 -48.5q-268 0 -434 163t-166 417t160 419t407 165q166 0 295.5 -78
t198.5 -209t69 -291zM680 1028q-176 0 -299 -112t-143 -298h882q-12 174 -134 292t-306 118z" />
    <glyph glyph-name="Gcircumflex" unicode="&#x11c;" horiz-adv-x="1671" 
d="M1104 1618l-213 233l-213 -233h-117l262 321h133l265 -321h-117zM1528 797v-641q-102 -94 -254.5 -138.5t-315.5 -44.5q-187 0 -343.5 57.5t-264 158.5t-167.5 241.5t-60 304.5q0 219 103 394t288 273.5t418 98.5q172 0 313 -52t225 -132l-77 -90q-73 68 -196 115
t-271 47q-192 0 -346.5 -83t-242 -232.5t-87.5 -338.5q0 -286 195 -467.5t518 -181.5q273 0 444 125v477h-502v109h623z" />
    <glyph glyph-name="gcircumflex" unicode="&#x11d;" horiz-adv-x="1419" 
d="M913 1253l-213 234l-213 -234h-116l262 322h133l264 -322h-117zM1114 895v215h115v-1010q0 -223 -152.5 -354t-408.5 -131q-268 0 -453 109l53 102q170 -102 400 -102q202 0 322 101.5t120 280.5v166q-70 -110 -188.5 -171.5t-259.5 -61.5q-152 0 -278 73t-197.5 199
t-71.5 277q0 113 42.5 214.5t115 175t174 116.5t215.5 43q145 0 264 -64t188 -178zM668 147q124 0 226 52.5t164 154.5t62 234q0 197 -131 318.5t-321 121.5q-181 0 -306.5 -127.5t-125.5 -312.5q0 -187 125.5 -314t306.5 -127z" />
    <glyph glyph-name="Gbreve" unicode="&#x11e;" horiz-adv-x="1671" 
d="M891 1614q-139 0 -229.5 90.5t-90.5 234.5h95q1 -100 65 -163.5t160 -63.5t160 63.5t65 163.5h94q0 -144 -90 -234.5t-229 -90.5zM1528 797v-641q-102 -94 -254.5 -138.5t-315.5 -44.5q-187 0 -343.5 57.5t-264 158.5t-167.5 241.5t-60 304.5q0 219 103 394t288 273.5
t418 98.5q172 0 313 -52t225 -132l-77 -90q-73 68 -196 115t-271 47q-192 0 -346.5 -83t-242 -232.5t-87.5 -338.5q0 -286 195 -467.5t518 -181.5q273 0 444 125v477h-502v109h623z" />
    <glyph glyph-name="gbreve" unicode="&#x11f;" horiz-adv-x="1419" 
d="M700 1249q-139 0 -229 91t-90 235h94q1 -100 65 -163.5t160 -63.5t160.5 63.5t65.5 163.5h94q0 -144 -90.5 -235t-229.5 -91zM1114 895v215h115v-1010q0 -223 -152.5 -354t-408.5 -131q-268 0 -453 109l53 102q170 -102 400 -102q202 0 322 101.5t120 280.5v166
q-70 -110 -188.5 -171.5t-259.5 -61.5q-152 0 -278 73t-197.5 199t-71.5 277q0 113 42.5 214.5t115 175t174 116.5t215.5 43q145 0 264 -64t188 -178zM668 147q124 0 226 52.5t164 154.5t62 234q0 197 -131 318.5t-321 121.5q-181 0 -306.5 -127.5t-125.5 -312.5
q0 -187 125.5 -314t306.5 -127z" />
    <glyph glyph-name="Gdotaccent" unicode="&#x120;" horiz-adv-x="1671" 
d="M891 1679q-38 0 -63 25t-25 63t25 63t63 25t63 -25t25 -63t-25 -63t-63 -25zM1528 797v-641q-102 -94 -254.5 -138.5t-315.5 -44.5q-187 0 -343.5 57.5t-264 158.5t-167.5 241.5t-60 304.5q0 219 103 394t288 273.5t418 98.5q172 0 313 -52t225 -132l-77 -90
q-73 68 -196 115t-271 47q-192 0 -346.5 -83t-242 -232.5t-87.5 -338.5q0 -286 195 -467.5t518 -181.5q273 0 444 125v477h-502v109h623z" />
    <glyph glyph-name="gdotaccent" unicode="&#x121;" horiz-adv-x="1419" 
d="M700 1315q-38 0 -63 25t-25 63t25 63t63 25t63 -25t25 -63t-25 -63t-63 -25zM1114 895v215h115v-1010q0 -223 -152.5 -354t-408.5 -131q-268 0 -453 109l53 102q170 -102 400 -102q202 0 322 101.5t120 280.5v166q-70 -110 -188.5 -171.5t-259.5 -61.5q-152 0 -278 73
t-197.5 199t-71.5 277q0 113 42.5 214.5t115 175t174 116.5t215.5 43q145 0 264 -64t188 -178zM668 147q124 0 226 52.5t164 154.5t62 234q0 197 -131 318.5t-321 121.5q-181 0 -306.5 -127.5t-125.5 -312.5q0 -187 125.5 -314t306.5 -127z" />
    <glyph glyph-name="uni0122" unicode="&#x122;" horiz-adv-x="1671" 
d="M1528 797v-641q-102 -94 -254.5 -138.5t-315.5 -44.5q-187 0 -343.5 57.5t-264 158.5t-167.5 241.5t-60 304.5q0 219 103 394t288 273.5t418 98.5q172 0 313 -52t225 -132l-77 -90q-73 68 -196 115t-271 47q-192 0 -346.5 -83t-242 -232.5t-87.5 -338.5
q0 -286 195 -467.5t518 -181.5q273 0 444 125v477h-502v109h623zM856 -432h-84l72 299h139z" />
    <glyph glyph-name="uni0123" unicode="&#x123;" horiz-adv-x="1419" 
d="M721 1575h82l-66 -324h-139zM1114 895v215h115v-1010q0 -223 -152.5 -354t-408.5 -131q-268 0 -453 109l53 102q170 -102 400 -102q202 0 322 101.5t120 280.5v166q-70 -110 -188.5 -171.5t-259.5 -61.5q-152 0 -278 73t-197.5 199t-71.5 277q0 113 42.5 214.5t115 175
t174 116.5t215.5 43q145 0 264 -64t188 -178zM668 147q124 0 226 52.5t164 154.5t62 234q0 197 -131 318.5t-321 121.5q-181 0 -306.5 -127.5t-125.5 -312.5q0 -187 125.5 -314t306.5 -127z" />
    <glyph glyph-name="Hcircumflex" unicode="&#x124;" horiz-adv-x="1720" 
d="M1073 1618l-213 233l-213 -233h-117l263 321h133l264 -321h-117zM1380 840v635h123v-1475h-123v729h-1040v-729h-123v1475h123v-635h1040z" />
    <glyph glyph-name="hcircumflex" unicode="&#x125;" horiz-adv-x="1366" 
d="M586 1583h-117l-213 234l-213 -234h-117l262 322h134zM743 1137q203 0 323 -113t120 -305v-719h-119v700q0 153 -89.5 239.5t-254.5 86.5q-181 0 -294.5 -100.5t-113.5 -245.5v-680h-118v1540h118v-610q73 107 185 157t243 50z" />
    <glyph glyph-name="Hbar" unicode="&#x126;" horiz-adv-x="1806" 
d="M1550 1196h195v-106h-195v-1090h-123v721h-1046v-721h-123v1090h-197v106h197v279h123v-279h1046v279h123v-279zM381 831h1046v259h-1046v-259z" />
    <glyph glyph-name="hbar" unicode="&#x127;" horiz-adv-x="1363" 
d="M737 1133q206 0 326.5 -112.5t120.5 -303.5v-717h-119v698q0 151 -89.5 236.5t-252.5 85.5q-183 0 -295.5 -99t-112.5 -245v-676h-118v1276h-183v96h183v168h118v-168h441v-96h-441v-350q72 107 184 157t238 50z" />
    <glyph glyph-name="Itilde" unicode="&#x128;" horiz-adv-x="557" 
d="M406 1636q-47 0 -81 19t-54 46t-37 54.5t-39.5 46.5t-51.5 19q-49 0 -80 -48.5t-36 -130.5h-93q2 125 58.5 201t154.5 76q39 0 70.5 -14t49.5 -34.5t35.5 -44.5t30.5 -44.5t33 -34.5t44 -14q49 0 80 48t34 130h94q-2 -125 -58 -200t-154 -75zM217 0v1475h123v-1475h-123z
" />
    <glyph glyph-name="itilde" unicode="&#x129;" horiz-adv-x="512" 
d="M383 1272q-47 0 -81 19t-54 46t-37 54t-39 46t-51 19q-49 0 -80.5 -48t-36.5 -130h-92q2 125 58.5 200.5t154.5 75.5q39 0 70.5 -14t49.5 -34.5t35 -44.5t30 -44.5t33 -34.5t44 -14q50 0 81 48t34 130h94q-2 -125 -58.5 -199.5t-154.5 -74.5zM315 0h-118v1110h118v-1110z
" />
    <glyph glyph-name="Imacron" unicode="&#x12a;" horiz-adv-x="557" 
d="M590 1688h-623v98h623v-98zM217 0v1475h123v-1475h-123z" />
    <glyph glyph-name="imacron" unicode="&#x12b;" horiz-adv-x="512" 
d="M473 1331h-446v99h446v-99zM315 0h-118v1110h118v-1110z" />
    <glyph glyph-name="Ibreve" unicode="&#x12c;" horiz-adv-x="557" 
d="M279 1614q-139 0 -229.5 90.5t-90.5 234.5h94q1 -100 65.5 -163.5t160.5 -63.5t160 63.5t65 163.5h94q0 -144 -90 -234.5t-229 -90.5zM217 0v1475h123v-1475h-123z" />
    <glyph glyph-name="ibreve" unicode="&#x12d;" horiz-adv-x="512" 
d="M256 1249q-139 0 -229 91t-90 235h94q1 -100 65 -163.5t160 -63.5t160 63.5t65 163.5h94q0 -144 -90 -235t-229 -91zM315 0h-118v1110h118v-1110z" />
    <glyph glyph-name="Iogonek" unicode="&#x12e;" horiz-adv-x="559" 
d="M399 -250l52 -76q-76 -71 -199 -71q-87 0 -143 46.5t-56 127.5q0 143 166 248v1450h123v-1475q-99 -54 -138.5 -104t-39.5 -105q0 -41 28.5 -66.5t73.5 -25.5q70 0 133 51z" />
    <glyph glyph-name="iogonek" unicode="&#x12f;" horiz-adv-x="514" 
d="M258 1315q-38 0 -63 25t-25 63t25 63t63 25t63 -25t25 -63t-25 -63t-63 -25zM375 -250l51 -76q-76 -71 -199 -71q-86 0 -141 46.5t-55 127.5q0 145 168 250v1083h118v-1110q-98 -54 -138 -104.5t-40 -104.5q0 -41 30 -66.5t75 -25.5q68 0 131 51z" />
    <glyph glyph-name="Idotaccent" unicode="&#x130;" horiz-adv-x="557" 
d="M279 1855q38 0 63 -25t25 -63t-25 -63t-63 -25t-63.5 25t-25.5 63t25.5 63t63.5 25zM217 0v1475h123v-1475h-123z" />
    <glyph glyph-name="dotlessi" unicode="&#x131;" horiz-adv-x="512" 
d="M315 0h-118v1110h118v-1110z" />
    <glyph glyph-name="Jcircumflex" unicode="&#x134;" horiz-adv-x="1204" 
d="M870 1939h134l264 -321h-117l-213 233l-213 -233h-117zM877 434v1041h122v-1045q0 -213 -126.5 -335t-333.5 -122q-202 0 -329.5 117.5t-131.5 325.5h121q6 -161 99.5 -245.5t240.5 -84.5q156 0 247 92t91 256z" />
    <glyph glyph-name="jcircumflex" unicode="&#x135;" horiz-adv-x="528" 
d="M205 1575h133l264 -322h-117l-213 234l-213 -234h-116zM213 -119v1229h119v-1235q0 -118 -73 -188t-196 -70q-65 0 -118 21v104q46 -18 104 -18q77 0 120.5 42t43.5 115z" />
    <glyph glyph-name="uni0136" unicode="&#x136;" horiz-adv-x="1546" 
d="M1483 1475l-627 -576l670 -899h-150l-606 817l-430 -395v-422h-123v1475h123v-906l983 906h160zM741 -432h-84l72 299h139z" />
    <glyph glyph-name="uni0137" unicode="&#x137;" horiz-adv-x="1263" 
d="M1221 1110l-512 -448l548 -662h-149l-485 588l-308 -269v-319h-118v1540h118v-1083l748 653h158zM571 -432h-84l72 299h139z" />
    <glyph glyph-name="kgreenlandic" unicode="&#x138;" horiz-adv-x="1263" 
d="M1257 0h-149l-485 588l-308 -269v-319h-118v1110h118v-653l748 653h158l-512 -448z" />
    <glyph glyph-name="Lacute" unicode="&#x139;" horiz-adv-x="1353" 
d="M557 1939v-14l-274 -309h-121l256 323h139zM340 1475v-1364h940v-111h-1063v1475h123z" />
    <glyph glyph-name="lacute" unicode="&#x13a;" horiz-adv-x="579" 
d="M553 2005v-14l-274 -310h-121l256 324h139zM201 199v1341h118v-1331q0 -58 32.5 -87.5t88.5 -29.5q46 0 84 14v-104q-43 -16 -92 -16q-109 0 -170 55.5t-61 157.5z" />
    <glyph glyph-name="uni013B" unicode="&#x13b;" horiz-adv-x="1353" 
d="M340 1475v-1364h940v-111h-1063v1475h123zM711 -432h-84l71 299h140z" />
    <glyph glyph-name="uni013C" unicode="&#x13c;" horiz-adv-x="579" 
d="M201 199v1341h118v-1331q0 -58 32.5 -87.5t88.5 -29.5q46 0 84 14v-104q-43 -16 -92 -16q-109 0 -170 55.5t-61 157.5zM311 -432h-84l72 299h139z" />
    <glyph glyph-name="Lcaron" unicode="&#x13d;" horiz-adv-x="1353" 
d="M700 1540h115l-100 -450h-90zM340 1475v-1364h940v-111h-1063v1475h123z" />
    <glyph glyph-name="lcaron" unicode="&#x13e;" horiz-adv-x="616" 
d="M201 199v1341h118v-1331q0 -58 32.5 -87.5t88.5 -29.5q46 0 84 14v-104q-43 -16 -92 -16q-109 0 -170 55.5t-61 157.5zM455 1090l75 450h115l-100 -450h-90z" />
    <glyph glyph-name="Ldot" unicode="&#x13f;" horiz-adv-x="1357" 
d="M340 1475v-1364h940v-111h-1063v1475h123zM987 739q-41 0 -66.5 26.5t-25.5 68.5q0 41 25.5 67.5t66.5 26.5t66.5 -26.5t25.5 -67.5q0 -42 -25.5 -68.5t-66.5 -26.5z" />
    <glyph glyph-name="ldot" unicode="&#x140;" horiz-adv-x="647" 
d="M201 199v1341h118v-1331q0 -58 32.5 -87.5t88.5 -29.5q46 0 84 14v-104q-43 -16 -92 -16q-109 0 -170 55.5t-61 157.5zM567 698q-41 0 -66.5 26t-25.5 67t25.5 67.5t66.5 26.5t66.5 -26.5t25.5 -67.5t-25.5 -67t-66.5 -26z" />
    <glyph glyph-name="Lslash" unicode="&#x141;" horiz-adv-x="1441" 
d="M426 625v-514h940v-111h-1063v563l-209 -104v116l209 105v795h123v-734l528 263v-117z" />
    <glyph glyph-name="lslash" unicode="&#x142;" horiz-adv-x="747" 
d="M659 1032v-108l-253 -164v-551q0 -58 32 -87.5t88 -29.5q46 0 84 14v-104q-43 -16 -92 -16q-109 0 -170 55.5t-61 157.5v483l-199 -129h-14v111l213 137v739h119v-661l239 153h14z" />
    <glyph glyph-name="Nacute" unicode="&#x143;" horiz-adv-x="1687" 
d="M1126 1939v-14l-274 -309h-121l256 323h139zM1352 168v1307h118v-1475h-135l-999 1309v-1309h-119v1475h137z" />
    <glyph glyph-name="nacute" unicode="&#x144;" horiz-adv-x="1361" 
d="M973 1575v-14l-275 -310h-120l256 324h139zM741 1137q201 0 321 -113t120 -305v-719h-119v700q0 153 -89 239.5t-253 86.5q-180 0 -293 -100.5t-113 -245.5v-680h-118v1110h114v-186q71 110 184.5 161.5t245.5 51.5z" />
    <glyph glyph-name="uni0145" unicode="&#x145;" horiz-adv-x="1687" 
d="M1352 168v1307h118v-1475h-135l-999 1309v-1309h-119v1475h137zM813 -432h-84l72 299h139z" />
    <glyph glyph-name="uni0146" unicode="&#x146;" horiz-adv-x="1361" 
d="M741 1137q201 0 321 -113t120 -305v-719h-119v700q0 153 -89 239.5t-253 86.5q-180 0 -293 -100.5t-113 -245.5v-680h-118v1110h114v-186q71 110 184.5 161.5t245.5 51.5zM659 -432h-84l72 299h139z" />
    <glyph glyph-name="Ncaron" unicode="&#x147;" horiz-adv-x="1687" 
d="M1178 1939l-265 -321h-133l-262 321h117l213 -233l213 233h117zM1352 168v1307h118v-1475h-135l-999 1309v-1309h-119v1475h137z" />
    <glyph glyph-name="ncaron" unicode="&#x148;" horiz-adv-x="1361" 
d="M1024 1575l-264 -322h-133l-262 322h116l213 -234l213 234h117zM741 1137q201 0 321 -113t120 -305v-719h-119v700q0 153 -89 239.5t-253 86.5q-180 0 -293 -100.5t-113 -245.5v-680h-118v1110h114v-186q71 110 184.5 161.5t245.5 51.5z" />
    <glyph glyph-name="Eng" unicode="&#x14a;" horiz-adv-x="1687" 
d="M1350 186v1289h120v-1532q0 -151 -91 -238.5t-246 -87.5q-91 0 -154 27v110q67 -28 149 -28q101 0 161.5 59.5t60.5 161.5v53l-1014 1311v-1311h-119v1475h137z" />
    <glyph glyph-name="eng" unicode="&#x14b;" horiz-adv-x="1361" 
d="M741 1137q201 0 321 -113t120 -305v-844q0 -119 -70 -188.5t-190 -69.5q-75 0 -117 18v107q40 -18 102 -18q73 0 114.5 41.5t41.5 115.5v819q0 153 -89 239.5t-253 86.5q-180 0 -293 -100.5t-113 -245.5v-680h-118v1110h114v-186q71 110 184.5 161.5t245.5 51.5z" />
    <glyph glyph-name="Omacron" unicode="&#x14c;" horiz-adv-x="1773" 
d="M1198 1688h-623v98h623v-98zM887 -27q-163 0 -305 57.5t-242 158.5t-157.5 243t-57.5 305t57.5 305t157.5 243t242 158.5t305 57.5t305 -57.5t242 -158.5t157.5 -243t57.5 -305t-57.5 -305t-157.5 -243t-242 -158.5t-305 -57.5zM887 86q182 0 327 83t226.5 232t81.5 336
t-81.5 336t-226.5 232.5t-327 83.5t-327 -83.5t-226.5 -232.5t-81.5 -336t81.5 -336t226.5 -232t327 -83z" />
    <glyph glyph-name="omacron" unicode="&#x14d;" 
d="M1006 1323h-623v98h623v-98zM694 -27q165 0 299 76.5t209.5 210t75.5 295.5t-75.5 295.5t-209.5 210t-299 76.5q-124 0 -232.5 -45t-185.5 -122.5t-121 -185.5t-44 -229t44 -229t121 -185.5t185.5 -122.5t232.5 -45zM694 1026q196 0 329.5 -135.5t133.5 -335.5
t-133.5 -335.5t-329.5 -135.5t-329.5 135.5t-133.5 335.5t133.5 335.5t329.5 135.5z" />
    <glyph glyph-name="Obreve" unicode="&#x14e;" horiz-adv-x="1773" 
d="M887 1614q-139 0 -229.5 90.5t-90.5 234.5h95q1 -100 65 -163.5t160 -63.5t160 63.5t65 163.5h94q0 -144 -90 -234.5t-229 -90.5zM887 -27q-163 0 -305 57.5t-242 158.5t-157.5 243t-57.5 305t57.5 305t157.5 243t242 158.5t305 57.5t305 -57.5t242 -158.5t157.5 -243
t57.5 -305t-57.5 -305t-157.5 -243t-242 -158.5t-305 -57.5zM887 86q182 0 327 83t226.5 232t81.5 336t-81.5 336t-226.5 232.5t-327 83.5t-327 -83.5t-226.5 -232.5t-81.5 -336t81.5 -336t226.5 -232t327 -83z" />
    <glyph glyph-name="obreve" unicode="&#x14f;" 
d="M694 1249q-139 0 -229 91t-90 235h94q1 -100 65 -163.5t160 -63.5t160.5 63.5t65.5 163.5h94q0 -144 -90.5 -235t-229.5 -91zM694 -27q165 0 299 76.5t209.5 210t75.5 295.5t-75.5 295.5t-209.5 210t-299 76.5q-124 0 -232.5 -45t-185.5 -122.5t-121 -185.5t-44 -229
t44 -229t121 -185.5t185.5 -122.5t232.5 -45zM694 1026q196 0 329.5 -135.5t133.5 -335.5t-133.5 -335.5t-329.5 -135.5t-329.5 135.5t-133.5 335.5t133.5 335.5t329.5 135.5z" />
    <glyph glyph-name="Ohungarumlaut" unicode="&#x150;" horiz-adv-x="1773" 
d="M940 1939v-14l-178 -309h-107l160 323h125zM1268 1939v-14l-211 -309h-107l195 323h123zM887 -27q-163 0 -305 57.5t-242 158.5t-157.5 243t-57.5 305t57.5 305t157.5 243t242 158.5t305 57.5t305 -57.5t242 -158.5t157.5 -243t57.5 -305t-57.5 -305t-157.5 -243
t-242 -158.5t-305 -57.5zM887 86q182 0 327 83t226.5 232t81.5 336t-81.5 336t-226.5 232.5t-327 83.5t-327 -83.5t-226.5 -232.5t-81.5 -336t81.5 -336t226.5 -232t327 -83z" />
    <glyph glyph-name="ohungarumlaut" unicode="&#x151;" 
d="M748 1575v-14l-179 -310h-106l160 324h125zM1075 1575v-14l-211 -310h-106l194 324h123zM694 -27q165 0 299 76.5t209.5 210t75.5 295.5t-75.5 295.5t-209.5 210t-299 76.5q-124 0 -232.5 -45t-185.5 -122.5t-121 -185.5t-44 -229t44 -229t121 -185.5t185.5 -122.5
t232.5 -45zM694 1026q196 0 329.5 -135.5t133.5 -335.5t-133.5 -335.5t-329.5 -135.5t-329.5 135.5t-133.5 335.5t133.5 335.5t329.5 135.5z" />
    <glyph glyph-name="OE" unicode="&#x152;" horiz-adv-x="2633" 
d="M1608 111h921l31 -111h-1071v344q-89 -173 -252 -272t-373 -99t-379 98t-264.5 273t-95.5 393t95.5 393t264.5 273t379 98t373 -99t252 -272v345h1051l-31 -111h-901v-530h618v-113h-618v-610zM870 86q175 0 317.5 83t224 232.5t81.5 335.5t-81.5 335.5t-224 233
t-317.5 83.5t-316.5 -83.5t-222.5 -232.5t-81 -336t81 -336t222.5 -232t316.5 -83z" />
    <glyph glyph-name="oe" unicode="&#x153;" horiz-adv-x="2304" 
d="M2206 559q0 -23 -4 -43h-969q12 -195 139.5 -314.5t327.5 -119.5q117 0 211 40.5t153 106.5l76 -82q-65 -78 -178.5 -126t-259.5 -48q-198 0 -335.5 92.5t-195.5 253.5q-60 -158 -192 -252t-307 -94q-158 0 -287 76.5t-201.5 210t-72.5 295.5t72.5 295.5t201.5 210
t287 76.5q175 0 307 -94.5t192 -254.5q57 160 186 253.5t304 93.5q161 0 286.5 -78t192 -208.5t66.5 -289.5zM674 84q187 0 314.5 135.5t127.5 335.5t-127.5 335.5t-314.5 135.5q-185 0 -313 -135.5t-128 -335.5t128 -335.5t313 -135.5zM1661 1026q-172 0 -290.5 -113.5
t-137.5 -298.5h850q-11 174 -128 293t-294 119z" />
    <glyph glyph-name="Racute" unicode="&#x154;" horiz-adv-x="1562" 
d="M1051 1939v-14l-275 -309h-121l256 323h140zM1479 0h-146l-461 668h-534v-668h-121v1475h735q205 0 328 -114t123 -290q0 -163 -107.5 -273.5t-287.5 -127.5zM940 1364h-602v-588h602q157 0 247.5 81.5t90.5 211.5q0 132 -90.5 213.5t-247.5 81.5z" />
    <glyph glyph-name="racute" unicode="&#x155;" horiz-adv-x="847" 
d="M772 1575v-14l-274 -310h-121l256 324h139zM700 1126q63 0 115 -14v-113q-59 15 -113 15q-166 0 -276.5 -102.5t-110.5 -260.5v-651h-118v1110h114v-207q42 77 110.5 129t138 73t140.5 21z" />
    <glyph glyph-name="uni0156" unicode="&#x156;" horiz-adv-x="1562" 
d="M1008 670l471 -670h-146l-461 668h-534v-668h-121v1475h735q205 0 328 -114t123 -290q0 -163 -107.5 -273.5t-287.5 -127.5zM940 1364h-602v-588h602q157 0 247.5 81.5t90.5 211.5q0 132 -90.5 213.5t-247.5 81.5zM737 -432h-84l72 299h139z" />
    <glyph glyph-name="uni0157" unicode="&#x157;" horiz-adv-x="847" 
d="M700 1126q63 0 115 -14v-113q-59 15 -113 15q-166 0 -276.5 -102.5t-110.5 -260.5v-651h-118v1110h114v-207q42 77 110.5 129t138 73t140.5 21zM221 -432h-84l72 299h139z" />
    <glyph glyph-name="Rcaron" unicode="&#x158;" horiz-adv-x="1562" 
d="M1102 1939l-264 -321h-133l-263 321h117l213 -233l213 233h117zM1479 0h-146l-461 668h-534v-668h-121v1475h735q205 0 328 -114t123 -290q0 -163 -107.5 -273.5t-287.5 -127.5zM940 1364h-602v-588h602q157 0 247.5 81.5t90.5 211.5q0 132 -90.5 213.5t-247.5 81.5z" />
    <glyph glyph-name="rcaron" unicode="&#x159;" horiz-adv-x="847" 
d="M823 1575l-264 -322h-133l-262 322h117l213 -234l213 234h116zM311 1110v-207q42 77 110.5 129t138 73t140.5 21q63 0 115 -14v-113q-59 15 -113 15q-166 0 -276.5 -102.5t-110.5 -260.5v-651h-118v1110h114z" />
    <glyph glyph-name="Sacute" unicode="&#x15a;" horiz-adv-x="1419" 
d="M989 1939v-14l-274 -309h-121l256 323h139zM745 -20q-186 0 -349 55t-281 155l82 97q111 -96 251.5 -145.5t292.5 -49.5q182 0 307.5 85t125.5 222q0 221 -328 285l-305 59q-387 76 -387 353q0 120 75.5 212.5t204 141.5t287.5 49q336 0 536 -186l-75 -90
q-186 166 -463 166q-189 0 -316 -80.5t-127 -206.5q0 -93 76.5 -152.5t241.5 -93.5l297 -59q200 -39 302.5 -140t102.5 -251q0 -189 -154 -307.5t-397 -118.5z" />
    <glyph glyph-name="sacute" unicode="&#x15b;" horiz-adv-x="1175" 
d="M879 1575v-14l-275 -310h-121l256 324h140zM100 145l70 93q75 -63 194.5 -107.5t249.5 -44.5q149 0 241.5 59.5t92.5 157.5q0 74 -57.5 119t-173.5 67l-273 52q-162 31 -236.5 102.5t-74.5 171.5q0 137 122.5 227.5t336.5 90.5q273 0 448 -146l-67 -90q-73 62 -178 95.5
t-213 33.5q-146 0 -238 -58.5t-92 -148.5q0 -64 58.5 -104.5t187.5 -65.5l262 -51q166 -33 236.5 -110t70.5 -179q0 -147 -126 -238t-331 -91q-142 0 -281.5 44t-228.5 121z" />
    <glyph glyph-name="Scircumflex" unicode="&#x15c;" horiz-adv-x="1419" 
d="M924 1618l-213 233l-213 -233h-117l262 321h133l264 -321h-116zM594 856l297 -59q200 -39 302.5 -140t102.5 -251q0 -189 -154 -307.5t-397 -118.5q-186 0 -349 55t-281 155l82 97q111 -96 251.5 -145.5t292.5 -49.5q182 0 307.5 85t125.5 222q0 221 -328 285l-305 59
q-387 76 -387 353q0 120 75.5 212.5t204 141.5t287.5 49q336 0 536 -186l-75 -90q-186 166 -463 166q-189 0 -316 -80.5t-127 -206.5q0 -93 76.5 -152.5t241.5 -93.5z" />
    <glyph glyph-name="scircumflex" unicode="&#x15d;" horiz-adv-x="1175" 
d="M813 1253l-213 234l-213 -234h-117l262 322h134l264 -322h-117zM498 649l262 -51q166 -33 236.5 -110t70.5 -179q0 -147 -126 -238t-331 -91q-142 0 -281.5 44t-228.5 121l70 93q75 -63 194.5 -107.5t249.5 -44.5q149 0 241.5 59.5t92.5 157.5q0 74 -57.5 119t-173.5 67
l-273 52q-162 31 -236.5 102.5t-74.5 171.5q0 137 122.5 227.5t336.5 90.5q273 0 448 -146l-67 -90q-73 62 -178 95.5t-213 33.5q-146 0 -238 -58.5t-92 -148.5q0 -64 58.5 -104.5t187.5 -65.5z" />
    <glyph glyph-name="Scedilla" unicode="&#x15e;" horiz-adv-x="1419" 
d="M1296 406q0 -189 -152 -306.5t-394 -119.5l-76 -84q33 10 74 10q100 0 163.5 -45.5t63.5 -118.5q0 -82 -75 -130t-202 -48q-172 0 -290 78l47 71q109 -67 243 -67q80 0 124 25t44 67t-40.5 67t-110.5 25q-72 0 -135 -29l-41 31l112 152q-327 25 -536 206l82 97
q111 -96 251.5 -145.5t292.5 -49.5q182 0 307.5 85t125.5 222q0 221 -328 285l-305 59q-387 76 -387 353q0 120 75.5 212.5t204 141.5t287.5 49q336 0 536 -186l-75 -90q-186 166 -463 166q-189 0 -316 -80.5t-127 -206.5q0 -93 76.5 -152.5t241.5 -93.5l297 -59
q200 -39 302.5 -140t102.5 -251z" />
    <glyph glyph-name="scedilla" unicode="&#x15f;" horiz-adv-x="1175" 
d="M1067 309q0 -141 -117.5 -231.5t-310.5 -97.5l-76 -84q33 10 74 10q100 0 163.5 -45.5t63.5 -118.5q0 -82 -74.5 -130t-201.5 -48q-88 0 -164.5 22.5t-126.5 55.5l47 71q109 -67 244 -67q80 0 124 25t44 67t-41 67t-111 25q-72 0 -135 -29l-41 31l111 150
q-127 11 -244.5 53.5t-194.5 109.5l70 93q75 -63 194.5 -107.5t249.5 -44.5q149 0 241.5 59.5t92.5 157.5q0 74 -57.5 119t-173.5 67l-273 52q-162 31 -236.5 102.5t-74.5 171.5q0 137 122.5 227.5t336.5 90.5q273 0 448 -146l-67 -90q-73 62 -178 95.5t-213 33.5
q-146 0 -238 -58.5t-92 -148.5q0 -64 58.5 -104.5t187.5 -65.5l262 -51q166 -33 236.5 -110t70.5 -179z" />
    <glyph glyph-name="Scaron" unicode="&#x160;" horiz-adv-x="1419" 
d="M1040 1939l-264 -321h-133l-262 321h117l213 -233l213 233h116zM594 856l297 -59q200 -39 302.5 -140t102.5 -251q0 -189 -154 -307.5t-397 -118.5q-186 0 -349 55t-281 155l82 97q111 -96 251.5 -145.5t292.5 -49.5q182 0 307.5 85t125.5 222q0 221 -328 285l-305 59
q-387 76 -387 353q0 120 75.5 212.5t204 141.5t287.5 49q336 0 536 -186l-75 -90q-186 166 -463 166q-189 0 -316 -80.5t-127 -206.5q0 -93 76.5 -152.5t241.5 -93.5z" />
    <glyph glyph-name="scaron" unicode="&#x161;" horiz-adv-x="1175" 
d="M930 1575l-264 -322h-134l-262 322h117l213 -234l213 234h117zM498 649l262 -51q166 -33 236.5 -110t70.5 -179q0 -147 -126 -238t-331 -91q-142 0 -281.5 44t-228.5 121l70 93q75 -63 194.5 -107.5t249.5 -44.5q149 0 241.5 59.5t92.5 157.5q0 74 -57.5 119t-173.5 67
l-273 52q-162 31 -236.5 102.5t-74.5 171.5q0 137 122.5 227.5t336.5 90.5q273 0 448 -146l-67 -90q-73 62 -178 95.5t-213 33.5q-146 0 -238 -58.5t-92 -148.5q0 -64 58.5 -104.5t187.5 -65.5z" />
    <glyph glyph-name="uni0162" unicode="&#x162;" horiz-adv-x="1343" 
d="M733 1364v-1364l-106 -102q46 8 73 8q102 0 168 -45.5t66 -118.5q0 -82 -76.5 -130t-208.5 -48q-90 0 -169 22.5t-130 55.5l47 71q112 -67 252 -67q83 0 129.5 25t46.5 67t-42 67t-115 25q-77 0 -140 -29l-43 31l140 168h-15v1364h-540v111h1204v-111h-541z" />
    <glyph glyph-name="uni0163" unicode="&#x163;" horiz-adv-x="841" 
d="M602 -20q-53 0 -94 8l-82 -92q33 10 74 10q100 0 163.5 -45.5t63.5 -118.5q0 -82 -74.5 -130t-201.5 -48q-89 0 -165 22.5t-126 55.5l47 71q109 -67 244 -67q80 0 123.5 25t43.5 67t-40.5 67t-110.5 25q-72 0 -135 -29l-41 31l135 182q-88 40 -135 122t-47 196v676h-189
v102h189v287l118 55v-342h418v-102h-418v-664q0 -121 67 -187.5t181 -66.5q95 0 178 39v-111q-63 -38 -186 -38z" />
    <glyph glyph-name="Tcaron" unicode="&#x164;" horiz-adv-x="1343" 
d="M1001 1939l-264 -321h-133l-262 321h117l213 -233l213 233h116zM1274 1475v-111h-541v-1364h-123v1364h-540v111h1204z" />
    <glyph glyph-name="tcaron" unicode="&#x165;" horiz-adv-x="841" 
d="M602 1696h115l-96 -428h-91zM610 90q95 0 178 39v-111q-63 -38 -186 -38q-168 0 -263 94t-95 258v676h-189v102h189v287l118 55v-342h418v-102h-418v-664q0 -121 67 -187.5t181 -66.5z" />
    <glyph glyph-name="Tbar" unicode="&#x166;" horiz-adv-x="1380" 
d="M1292 1475v-111h-540v-473h376v-107h-376v-784h-123v784h-377v107h377v473h-541v111h1204z" />
    <glyph glyph-name="tbar" unicode="&#x167;" horiz-adv-x="880" 
d="M641 90q95 0 178 39v-111q-63 -38 -186 -38q-168 0 -263.5 94.5t-95.5 257.5v340h-217v96h217v240h-188v102h188v287l119 55v-342h418v-102h-418v-240h389v-96h-389v-328q0 -121 67 -187.5t181 -66.5z" />
    <glyph glyph-name="Utilde" unicode="&#x168;" horiz-adv-x="1617" 
d="M975 1636q-46 0 -88 19t-72 46t-58 54.5t-58.5 46.5t-61.5 19q-54 0 -86 -48.5t-35 -130.5h-98q3 125 61.5 201t159.5 76q47 0 89 -19t72 -46.5t57.5 -55t58 -46.5t61.5 -19q54 0 86 48t35 130h98q-3 -125 -61.5 -200t-159.5 -75zM809 -27q-272 0 -440 150.5t-168 400.5
v951h123v-940q0 -207 133.5 -328t351.5 -121t351.5 121t133.5 328v940h123v-951q0 -250 -168 -400.5t-440 -150.5z" />
    <glyph glyph-name="utilde" unicode="&#x169;" horiz-adv-x="1353" 
d="M498 1456q-54 0 -86 -48t-35 -130h-98q3 125 61.5 200.5t159.5 75.5q47 0 89 -19t72 -46.5t57.5 -55t58 -46.5t61.5 -19q54 0 85.5 48t34.5 130h99q-3 -125 -61.5 -199.5t-159.5 -74.5q-46 0 -88 19t-72 46t-58 54t-58.5 46t-61.5 19zM1038 430v680h119v-1110h-115v186
q-71 -110 -183.5 -161.5t-242.5 -51.5q-199 0 -317.5 113.5t-118.5 304.5v719h119v-700q0 -152 88.5 -239t249.5 -87q177 0 289 100.5t112 245.5z" />
    <glyph glyph-name="Umacron" unicode="&#x16a;" horiz-adv-x="1617" 
d="M1120 1688h-622v98h622v-98zM809 -27q-272 0 -440 150.5t-168 400.5v951h123v-940q0 -207 133.5 -328t351.5 -121t351.5 121t133.5 328v940h123v-951q0 -250 -168 -400.5t-440 -150.5z" />
    <glyph glyph-name="umacron" unicode="&#x16b;" horiz-adv-x="1353" 
d="M358 1421h623v-98h-623v98zM1038 430v680h119v-1110h-115v186q-71 -110 -183.5 -161.5t-242.5 -51.5q-199 0 -317.5 113.5t-118.5 304.5v719h119v-700q0 -152 88.5 -239t249.5 -87q177 0 289 100.5t112 245.5z" />
    <glyph glyph-name="Ubreve" unicode="&#x16c;" horiz-adv-x="1617" 
d="M809 1614q-139 0 -229.5 90.5t-90.5 234.5h95q1 -100 65 -163.5t160 -63.5t160 63.5t65 163.5h94q0 -144 -90 -234.5t-229 -90.5zM809 -27q-272 0 -440 150.5t-168 400.5v951h123v-940q0 -207 133.5 -328t351.5 -121t351.5 121t133.5 328v940h123v-951
q0 -250 -168 -400.5t-440 -150.5z" />
    <glyph glyph-name="ubreve" unicode="&#x16d;" horiz-adv-x="1353" 
d="M670 1249q-139 0 -229.5 91t-90.5 235h94q1 -100 65.5 -163.5t160.5 -63.5t160 63.5t65 163.5h94q0 -144 -90 -235t-229 -91zM1038 430v680h119v-1110h-115v186q-71 -110 -183.5 -161.5t-242.5 -51.5q-199 0 -317.5 113.5t-118.5 304.5v719h119v-700q0 -152 88.5 -239
t249.5 -87q177 0 289 100.5t112 245.5z" />
    <glyph glyph-name="Uring" unicode="&#x16e;" horiz-adv-x="1617" 
d="M805 1616q-117 0 -193.5 73t-76.5 181q0 110 76 183t194 73q119 0 194.5 -73t75.5 -183q0 -109 -75.5 -181.5t-194.5 -72.5zM805 1700q75 0 125.5 48.5t50.5 121.5q0 75 -50.5 123.5t-125.5 48.5q-74 0 -124 -49t-50 -123q0 -73 50 -121.5t124 -48.5zM809 -27
q-272 0 -440 150.5t-168 400.5v951h123v-940q0 -207 133.5 -328t351.5 -121t351.5 121t133.5 328v940h123v-951q0 -250 -168 -400.5t-440 -150.5z" />
    <glyph glyph-name="uring" unicode="&#x16f;" horiz-adv-x="1353" 
d="M666 1251q-118 0 -194.5 73t-76.5 181q0 110 76.5 183t194.5 73q119 0 194.5 -73t75.5 -183q0 -109 -75.5 -181.5t-194.5 -72.5zM666 1677q-74 0 -124 -49t-50 -123q0 -73 50 -121.5t124 -48.5q75 0 125.5 48.5t50.5 121.5q0 75 -50.5 123.5t-125.5 48.5zM1038 430v680
h119v-1110h-115v186q-71 -110 -183.5 -161.5t-242.5 -51.5q-199 0 -317.5 113.5t-118.5 304.5v719h119v-700q0 -152 88.5 -239t249.5 -87q177 0 289 100.5t112 245.5z" />
    <glyph glyph-name="Uhungarumlaut" unicode="&#x170;" horiz-adv-x="1617" 
d="M862 1939v-14l-178 -309h-106l159 323h125zM1190 1939v-14l-211 -309h-107l195 323h123zM809 -27q-272 0 -440 150.5t-168 400.5v951h123v-940q0 -207 133.5 -328t351.5 -121t351.5 121t133.5 328v940h123v-951q0 -250 -168 -400.5t-440 -150.5z" />
    <glyph glyph-name="uhungarumlaut" unicode="&#x171;" horiz-adv-x="1353" 
d="M723 1575v-14l-178 -310h-107l160 324h125zM1051 1575v-14l-211 -310h-107l195 324h123zM1038 430v680h119v-1110h-115v186q-71 -110 -183.5 -161.5t-242.5 -51.5q-199 0 -317.5 113.5t-118.5 304.5v719h119v-700q0 -152 88.5 -239t249.5 -87q177 0 289 100.5t112 245.5z
" />
    <glyph glyph-name="Uogonek" unicode="&#x172;" horiz-adv-x="1619" 
d="M1419 520q0 -92 -25 -173.5t-64 -141t-86.5 -111.5t-94.5 -93t-86 -76.5t-63.5 -70.5t-24.5 -67q0 -42 33 -65t88 -23q92 0 161 57l52 -73q-87 -80 -230 -80q-95 0 -155 44.5t-60 123.5q0 101 166 233q-105 -31 -219 -31q-273 0 -441.5 150.5t-168.5 400.5v951h123v-940
q0 -207 134 -328t353 -121q227 0 356 117.5t129 331.5v940h123v-951v-2v-2z" />
    <glyph glyph-name="uogonek" unicode="&#x173;" horiz-adv-x="1361" 
d="M1139 -244l51 -73q-83 -80 -219 -80q-86 0 -141.5 43.5t-55.5 120.5q0 155 277 266v162q-71 -115 -183.5 -168.5t-242.5 -53.5q-206 0 -325.5 112.5t-119.5 303.5v721h119v-702q0 -151 89 -236.5t253 -85.5q181 0 293.5 99t112.5 245v680h118v-1108q-88 -33 -147 -65.5
t-86 -60t-37 -48t-10 -41.5q0 -42 28 -65t72 -23q85 0 154 57z" />
    <glyph glyph-name="Wcircumflex" unicode="&#x174;" horiz-adv-x="2267" 
d="M1341 1618l-213 233l-213 -233h-116l262 321h133l264 -321h-117zM1622 131l463 1344h127l-516 -1475h-152l-416 1311l-399 -1311h-154l-524 1475h131l471 -1346l410 1339h135z" />
    <glyph glyph-name="wcircumflex" unicode="&#x175;" horiz-adv-x="1906" 
d="M1167 1253l-213 234l-213 -234h-116l262 322h133l264 -322h-117zM1364 113l369 997h127l-428 -1110h-142l-336 948l-336 -948h-143l-430 1110h131l371 -991l348 979h121z" />
    <glyph glyph-name="Ycircumflex" unicode="&#x176;" horiz-adv-x="1454" 
d="M938 1618l-213 233l-213 -233h-117l262 321h134l264 -321h-117zM1268 1475h139l-619 -967v-508h-122v506l-623 969h143l541 -859z" />
    <glyph glyph-name="ycircumflex" unicode="&#x177;" horiz-adv-x="1224" 
d="M825 1253l-213 234l-213 -234h-116l262 322h133l264 -322h-117zM616 131l437 979h129l-584 -1268q-107 -231 -328 -231q-109 0 -211 45l41 104q84 -43 166 -43q156 0 236 174l53 115l-512 1104h133z" />
    <glyph glyph-name="Ydieresis" unicode="&#x178;" horiz-adv-x="1454" 
d="M508 1679q-38 0 -63 25t-25 63t25 63t63 25t63 -25t25 -63t-25 -63t-63 -25zM942 1679q-38 0 -63 25t-25 63t25 63t63 25t63 -25t25 -63t-25 -63t-63 -25zM1268 1475h139l-619 -967v-508h-122v506l-623 969h143l541 -859z" />
    <glyph glyph-name="Zacute" unicode="&#x179;" horiz-adv-x="1314" 
d="M952 1939v-14l-274 -309h-121l256 323h139zM1210 1378l-981 -1269h1016v-109h-1171v94l983 1272h-936v109h1089v-97z" />
    <glyph glyph-name="zacute" unicode="&#x17a;" horiz-adv-x="1077" 
d="M825 1575v-14l-274 -310h-121l256 324h139zM977 1028l-750 -928h777v-100h-928v82l749 928h-714v100h866v-82z" />
    <glyph glyph-name="Zdotaccent" unicode="&#x17b;" horiz-adv-x="1314" 
d="M674 1679q-38 0 -63 25t-25 63t25 63t63 25t63 -25t25 -63t-25 -63t-63 -25zM1210 1378l-981 -1269h1016v-109h-1171v94l983 1272h-936v109h1089v-97z" />
    <glyph glyph-name="zdotaccent" unicode="&#x17c;" horiz-adv-x="1077" 
d="M547 1315q-38 0 -63 25t-25 63t25 63t63 25t63 -25t25 -63t-25 -63t-63 -25zM977 1028l-750 -928h777v-100h-928v82l749 928h-714v100h866v-82z" />
    <glyph glyph-name="Zcaron" unicode="&#x17d;" horiz-adv-x="1314" 
d="M1004 1939l-265 -321h-133l-262 321h117l213 -233l213 233h117zM1210 1378l-981 -1269h1016v-109h-1171v94l983 1272h-936v109h1089v-97z" />
    <glyph glyph-name="zcaron" unicode="&#x17e;" horiz-adv-x="1077" 
d="M877 1575l-265 -322h-133l-262 322h117l213 -234l213 234h117zM977 1028l-750 -928h777v-100h-928v82l749 928h-714v100h866v-82z" />
    <glyph glyph-name="uni018F" unicode="&#x18f;" horiz-adv-x="1697" 
d="M811 1501q228 0 402 -97.5t267 -270t93 -394.5q0 -221 -96 -396.5t-263.5 -272.5t-375.5 -97q-214 0 -382.5 101.5t-259 273.5t-90.5 381q0 21 5 41h1337q-11 277 -184 448t-457 171q-165 0 -308.5 -57.5t-219.5 -143.5l-82 82q91 104 252.5 167.5t361.5 63.5zM838 86
q245 0 414 159t192 419h-1211q6 -118 52.5 -223.5t124 -184t189 -124.5t239.5 -46z" />
    <glyph glyph-name="florin" unicode="&#x192;" horiz-adv-x="1017" 
d="M784 1456q-104 0 -163.5 -58.5t-59.5 -162.5v-289h311v-106h-311v-916q0 -147 -91.5 -233t-242.5 -86q-90 0 -164 26v111q85 -27 156 -27q102 0 161.5 55.5t59.5 157.5v912h-231v106h231v291q0 148 92 239t246 91q86 0 166 -27v-110q-85 26 -160 26z" />
    <glyph glyph-name="Ohorn" unicode="&#x1a0;" horiz-adv-x="1767" 
d="M1266 1393q177 -86 280 -259t103 -397q0 -163 -57.5 -305.5t-158 -243t-242 -158t-304.5 -57.5t-304.5 57.5t-242 158t-158 243t-57.5 305.5t57.5 305.5t158 243t242 158t304.5 57.5q118 0 287 -13t237 -13q176 0 176 147q0 64 -45 147h121q37 -61 37 -153
q0 -110 -72 -171t-203 -61q-22 0 -159 9zM887 86q182 0 327 83t226.5 232t81.5 336t-81.5 336t-226.5 232.5t-327 83.5t-327 -83.5t-226.5 -232.5t-81.5 -336t81.5 -336t226.5 -232t327 -83z" />
    <glyph glyph-name="ohorn" unicode="&#x1a1;" horiz-adv-x="1390" 
d="M1358 1251q0 -108 -68.5 -168.5t-187.5 -60.5q-35 0 -101 4q130 -75 199.5 -197.5t69.5 -273.5q0 -121 -44 -229t-120.5 -185.5t-184.5 -122.5t-231 -45q-163 0 -296 76.5t-208 210t-75 295.5t75 295.5t208 210t296 76.5q80 0 201.5 -13.5t200.5 -13.5q155 0 155 147
q0 62 -41 148h115q37 -61 37 -154zM1147 555q0 201 -131.5 336t-325.5 135t-325.5 -135t-131.5 -336t131.5 -336t325.5 -135t325.5 135t131.5 336z" />
    <glyph glyph-name="Uhorn" unicode="&#x1af;" horiz-adv-x="1705" 
d="M1585 1769h121q37 -56 37 -153q0 -109 -68.5 -170.5t-185.5 -61.5h-70v-860q0 -250 -168.5 -400.5t-441.5 -150.5q-272 0 -440 150.5t-168 400.5v951h123v-940q0 -207 133.5 -328t351.5 -121q219 0 353 121t134 328v940h174q158 0 158 147q0 68 -43 147z" />
    <glyph glyph-name="uhorn" unicode="&#x1b0;" 
d="M1296 1405h117q37 -61 37 -154q0 -108 -68.5 -168.5t-185.5 -60.5h-39v-1022h-115v186q-71 -110 -183.5 -161.5t-242.5 -51.5q-199 0 -317.5 113.5t-118.5 304.5v719h119v-700q0 -152 88.5 -239t249.5 -87q177 0 289 100.5t112 245.5v680h144q157 0 157 147q0 63 -43 148
z" />
    <glyph glyph-name="uni01C4" unicode="&#x1c4;" horiz-adv-x="2934" 
d="M2623 1939l-264 -321h-133l-262 321h117l213 -233l213 233h116zM772 1475q230 0 404 -93t267 -260t93 -385q0 -163 -54 -299.5t-152.5 -233t-241.5 -150.5t-316 -54h-555v1475h555zM2830 1378l-981 -1269h1016v-109h-1171v94l983 1272h-936v109h1089v-97zM340 111h428
q293 0 467 171.5t174 454.5t-174 455t-467 172h-428v-1253z" />
    <glyph glyph-name="uni01C5" unicode="&#x1c5;" horiz-adv-x="2719" 
d="M2519 1575l-264 -322h-133l-262 322h116l213 -234l213 234h117zM772 1475q230 0 404 -93t267 -260t93 -385q0 -163 -54 -299.5t-152.5 -233t-241.5 -150.5t-316 -54h-555v1475h555zM340 111h428q293 0 467 171.5t174 454.5t-174 455t-467 172h-428v-1253zM2619 1028
l-749 -928h776v-100h-928v82l750 928h-715v100h866v-82z" />
    <glyph glyph-name="uni01C6" unicode="&#x1c6;" horiz-adv-x="2562" 
d="M2361 1575l-264 -322h-133l-262 322h117l213 -234l213 234h116zM1135 879v661h118v-1540h-114v238q-69 -125 -192.5 -195t-276.5 -70q-159 0 -287.5 76t-200 209t-71.5 297t71.5 297t200 209t287.5 76q151 0 273.5 -68t191.5 -190zM2462 1028l-750 -928h776v-100h-927v82
l749 928h-715v100h867v-82zM682 82q124 0 228 57t167.5 166.5t63.5 249.5q0 139 -63.5 248.5t-167.5 167t-228 57.5q-198 0 -324.5 -134.5t-126.5 -338.5t126.5 -338.5t324.5 -134.5z" />
    <glyph glyph-name="uni01C7" unicode="&#x1c7;" horiz-adv-x="2471" 
d="M217 1475h123v-1362h879v-113h-1002v1475zM2144 434v1041h123v-1045q0 -213 -126.5 -335t-334.5 -122q-202 0 -329 117.5t-131 325.5h120q6 -161 99.5 -245.5t240.5 -84.5q156 0 247 92t91 256z" />
    <glyph glyph-name="uni01C8" unicode="&#x1c8;" horiz-adv-x="1890" 
d="M1634 1491q38 0 63 -25t25 -63t-25 -63t-63 -25t-63 25t-25 63t25 63t63 25zM217 1475h123v-1364h940v-111h-1063v1475zM1575 -119v1229h119v-1235q0 -118 -73 -188t-196 -70q-65 0 -118 21v104q47 -18 104 -18q77 0 120.5 42t43.5 115z" />
    <glyph glyph-name="uni01C9" unicode="&#x1c9;" horiz-adv-x="1003" 
d="M197 0v1540h118v-1540h-118zM748 1491q38 0 63 -25t25 -63t-25 -63t-63 -25t-63.5 25t-25.5 63t25.5 63t63.5 25zM539 -383q-67 0 -119 21v104q46 -18 104 -18q77 0 120.5 42t43.5 115v1229h119v-1235q0 -118 -72.5 -188t-195.5 -70z" />
    <glyph glyph-name="uni01CA" unicode="&#x1ca;" horiz-adv-x="2863" 
d="M354 1475l998 -1307v1307h118v-1475h-135l-999 1309v-1309h-119v1475h137zM2535 434v1041h123v-1045q0 -213 -126.5 -335t-333.5 -122q-202 0 -329.5 117.5t-131.5 325.5h121q6 -161 99.5 -245.5t240.5 -84.5q155 0 246 92t91 256z" />
    <glyph glyph-name="uni01CB" unicode="&#x1cb;" horiz-adv-x="2205" 
d="M1950 1491q38 0 63 -25t25 -63t-25 -63t-63 -25t-63 25t-25 63t25 63t63 25zM354 1475l998 -1307v1307h118v-1475h-135l-999 1309v-1309h-119v1475h137zM1890 -119v1229h119v-1235q0 -118 -72.5 -188t-195.5 -70q-67 0 -119 21v104q46 -18 104 -18q77 0 120.5 42
t43.5 115z" />
    <glyph glyph-name="uni01CC" unicode="&#x1cc;" horiz-adv-x="1880" 
d="M1624 1491q38 0 63 -25t25 -63t-25 -63t-63 -25t-63 25t-25 63t25 63t63 25zM741 1137q201 0 321 -113t120 -305v-719h-119v700q0 153 -89 239.5t-253 86.5q-180 0 -293 -100.5t-113 -245.5v-680h-118v1110h114v-186q71 110 184.5 161.5t245.5 51.5zM1565 -119v1229h118
v-1235q0 -118 -72.5 -188t-195.5 -70q-67 0 -119 21v104q47 -18 105 -18q77 0 120.5 42t43.5 115z" />
    <glyph glyph-name="Gcaron" unicode="&#x1e6;" horiz-adv-x="1671" 
d="M1221 1939l-265 -321h-133l-262 321h117l213 -233l213 233h117zM1528 797v-641q-102 -94 -254.5 -138.5t-315.5 -44.5q-187 0 -343.5 57.5t-264 158.5t-167.5 241.5t-60 304.5q0 219 103 394t288 273.5t418 98.5q172 0 313 -52t225 -132l-77 -90q-73 68 -196 115t-271 47
q-192 0 -346.5 -83t-242 -232.5t-87.5 -338.5q0 -286 195 -467.5t518 -181.5q273 0 444 125v477h-502v109h623z" />
    <glyph glyph-name="gcaron" unicode="&#x1e7;" horiz-adv-x="1419" 
d="M1030 1575l-264 -322h-133l-262 322h116l213 -234l213 234h117zM1114 895v215h115v-1010q0 -223 -152.5 -354t-408.5 -131q-268 0 -453 109l53 102q170 -102 400 -102q202 0 322 101.5t120 280.5v166q-70 -110 -188.5 -171.5t-259.5 -61.5q-152 0 -278 73t-197.5 199
t-71.5 277q0 113 42.5 214.5t115 175t174 116.5t215.5 43q145 0 264 -64t188 -178zM668 147q124 0 226 52.5t164 154.5t62 234q0 197 -131 318.5t-321 121.5q-181 0 -306.5 -127.5t-125.5 -312.5q0 -187 125.5 -314t306.5 -127z" />
    <glyph glyph-name="uni01EA" unicode="&#x1ea;" horiz-adv-x="1773" 
d="M887 1501q163 0 304.5 -57.5t242 -158t158 -243t57.5 -305.5q0 -198 -83 -359t-227 -257q-47 -36 -120 -71t-138 -60.5t-125 -54.5t-95.5 -66t-35.5 -82q0 -42 33 -65t90 -23q90 0 162 57l51 -73q-87 -80 -231 -80q-95 0 -155 44.5t-60 123.5q0 52 39 105.5t123 96.5
q-214 2 -386 100.5t-269 272.5t-97 391q0 163 57.5 305t157.5 243t242 158.5t305 57.5zM887 86q181 0 326 83t227 232t82 336t-81.5 336t-227 232.5t-326.5 83.5q-182 0 -327 -83.5t-226.5 -232.5t-81.5 -336t81.5 -336t226.5 -232t327 -83z" />
    <glyph glyph-name="uni01EB" unicode="&#x1eb;" horiz-adv-x="1378" 
d="M690 1137q122 0 230 -45t184 -122.5t120 -185.5t44 -229q0 -124 -46.5 -234.5t-129.5 -185.5q-39 -38 -104.5 -75.5t-125.5 -65.5t-116.5 -58.5t-90.5 -68t-34 -80.5q0 -41 30.5 -64.5t77.5 -23.5q80 0 152 57l49 -73q-83 -80 -215 -80q-88 0 -146.5 44.5t-58.5 123.5
q0 121 158 202q-242 12 -399.5 176.5t-157.5 405.5q0 162 75 295.5t208 210t296 76.5zM690 84q193 0 325 135.5t132 335.5t-132 335.5t-325 135.5q-194 0 -325.5 -135t-131.5 -336t131.5 -336t325.5 -135z" />
    <glyph glyph-name="Aringacute" unicode="&#x1fa;" horiz-adv-x="1519" 
d="M1036 2546v-15l-274 -309h-121l256 324h139zM756 1616q-118 0 -194.5 73t-76.5 181q0 110 76.5 183t194.5 73q119 0 194.5 -73t75.5 -183q0 -109 -75.5 -181.5t-194.5 -72.5zM756 2042q-74 0 -124 -49t-50 -123q0 -73 50 -121.5t124 -48.5q75 0 125.5 48.5t50.5 121.5
q0 75 -50.5 123.5t-125.5 48.5zM1475 0h-134l-184 436h-797l-186 -436h-129l641 1475h150zM762 1368l-354 -823h702z" />
    <glyph glyph-name="aringacute" unicode="&#x1fb;" horiz-adv-x="1288" 
d="M866 2157v-17l-231 -287h-111l215 304h127zM627 1251q-118 0 -194.5 73t-76.5 181q0 110 76.5 183t194.5 73q119 0 194.5 -73t75.5 -183q0 -109 -75.5 -181.5t-194.5 -72.5zM627 1677q-74 0 -124 -49t-50 -123q0 -73 50 -121.5t124 -48.5q75 0 125.5 48.5t50.5 121.5
q0 75 -50.5 123.5t-125.5 48.5zM1202 94q34 0 55 8v-98q-24 -12 -69 -12q-92 0 -147.5 57t-55.5 160v37q-44 -95 -123.5 -158t-166.5 -88t-185 -25q-117 0 -211.5 37t-153.5 113t-59 180q0 166 145 258t418 92h334v50q0 147 -101 234t-268 87q-104 0 -204 -35t-162 -96
l-74 86q80 74 198.5 114t245.5 40q218 0 349 -113.5t131 -308.5v-498q0 -59 27 -90t77 -31zM520 80q53 0 105 10.5t105 32.5t97.5 60t79.5 88.5t55 123.5t21 160h-334q-224 0 -335 -66t-111 -180q0 -106 90 -167.5t227 -61.5z" />
    <glyph glyph-name="AEacute" unicode="&#x1fc;" horiz-adv-x="2211" 
d="M1468 1939v-14l-274 -309h-121l256 323h139zM1184 111h923l33 -111h-1077v426h-657l-295 -426h-138l1024 1475h1123l-33 -111h-903v-530h618v-111h-618v-612zM1063 1380l-584 -845h584v845z" />
    <glyph glyph-name="aeacute" unicode="&#x1fd;" horiz-adv-x="2156" 
d="M1350 1575v-14l-275 -310h-121l256 324h140zM2058 584q0 -21 -4 -49h-960q8 -202 137 -327.5t332 -125.5q114 0 204 40t146 105l80 -80q-69 -80 -180.5 -127t-251.5 -47q-196 0 -332.5 92t-196.5 254q-29 -90 -86.5 -159t-130 -108.5t-150 -59t-157.5 -19.5
q-114 0 -209 38t-154 114t-59 176q0 166 144.5 254t410.5 88h336v59q0 149 -96.5 236.5t-264.5 87.5q-105 0 -205 -35.5t-165 -97.5l-70 86q79 75 198 114.5t247 39.5q173 0 286.5 -71.5t155.5 -203.5q66 130 189 203.5t288 73.5q113 0 211.5 -45.5t165 -121.5t104 -176
t37.5 -208zM1542 1026q-181 0 -300.5 -107t-143.5 -284h839q-14 164 -123.5 277.5t-271.5 113.5zM518 78q62 0 122.5 14t120.5 48.5t106 86t76.5 132.5t33.5 182l-336 2q-214 1 -324 -61.5t-110 -178.5q0 -101 89 -163t222 -62z" />
    <glyph glyph-name="Oslashacute" unicode="&#x1fe;" horiz-adv-x="1771" 
d="M1163 1939v-14l-274 -309h-121l256 323h139zM1575 1565l-182 -244q121 -105 187.5 -255t66.5 -329q0 -163 -57.5 -305.5t-157.5 -243.5t-242 -159t-305 -58q-238 0 -418 117l-135 -180h-135l182 244q-120 104 -187 255t-67 330q0 163 57.5 305t157.5 243t241 158.5
t304 57.5q238 0 420 -115l135 179h135zM250 737q0 -148 53 -274t148 -215l784 1044q-156 97 -350 97q-182 0 -327 -83.5t-226.5 -232.5t-81.5 -336zM885 86q182 0 327.5 83t227.5 232t82 336q0 148 -52.5 273.5t-148.5 214.5l-784 -1043q154 -96 348 -96z" />
    <glyph glyph-name="oslashacute" unicode="&#x1ff;" 
d="M969 1575v-14l-275 -310h-121l256 324h140zM1237 1204l-154 -207q92 -81 143.5 -195.5t51.5 -246.5q0 -162 -75.5 -295.5t-209.5 -210t-299 -76.5q-172 0 -305 82l-110 -149h-127l153 209q-92 79 -143 193.5t-51 246.5q0 121 44 229t121 185.5t185.5 122.5t232.5 45
q171 0 307 -82l109 149h127zM231 555q0 -102 38.5 -192t105.5 -154l559 754q-108 63 -240 63q-196 0 -329.5 -135.5t-133.5 -335.5zM694 84q198 0 331.5 135t133.5 336q0 104 -38 194t-107 154l-557 -756q108 -63 237 -63z" />
    <glyph glyph-name="uni0200" unicode="&#x200;" horiz-adv-x="1519" 
d="M489 1939l195 -323h-106l-211 309v14h122zM819 1939l160 -323h-107l-178 309v14h125zM1475 0h-134l-184 436h-797l-186 -436h-129l641 1475h150zM762 1368l-354 -823h702z" />
    <glyph glyph-name="uni0201" unicode="&#x201;" horiz-adv-x="1288" 
d="M360 1575l195 -324h-106l-211 310v14h122zM690 1575l160 -324h-107l-178 310v14h125zM1202 94q34 0 55 8v-98q-24 -12 -69 -12q-92 0 -147.5 57t-55.5 160v37q-44 -95 -123.5 -158t-166.5 -88t-185 -25q-117 0 -211.5 37t-153.5 113t-59 180q0 166 145 258t418 92h334v50
q0 147 -101 234t-268 87q-104 0 -204 -35t-162 -96l-74 86q80 74 198.5 114t245.5 40q218 0 349 -113.5t131 -308.5v-498q0 -59 27 -90t77 -31zM520 80q53 0 105 10.5t105 32.5t97.5 60t79.5 88.5t55 123.5t21 160h-334q-224 0 -335 -66t-111 -180q0 -106 90 -167.5
t227 -61.5z" />
    <glyph glyph-name="uni0202" unicode="&#x202;" horiz-adv-x="1519" 
d="M760 1843q-96 0 -160 -63.5t-65 -163.5h-95q0 144 90.5 235t229.5 91t229 -91t90 -235h-94q-1 100 -65 163.5t-160 63.5zM1475 0h-134l-184 436h-797l-186 -436h-129l641 1475h150zM762 1368l-354 -823h702z" />
    <glyph glyph-name="uni0203" unicode="&#x203;" horiz-adv-x="1288" 
d="M631 1479q-96 0 -160 -64t-65 -164h-95q0 144 90.5 235t229.5 91t229 -91t90 -235h-94q-1 100 -65 164t-160 64zM1202 94q34 0 55 8v-98q-24 -12 -69 -12q-92 0 -147.5 57t-55.5 160v37q-44 -95 -123.5 -158t-166.5 -88t-185 -25q-117 0 -211.5 37t-153.5 113t-59 180
q0 166 145 258t418 92h334v50q0 147 -101 234t-268 87q-104 0 -204 -35t-162 -96l-74 86q80 74 198.5 114t245.5 40q218 0 349 -113.5t131 -308.5v-498q0 -59 27 -90t77 -31zM520 80q53 0 105 10.5t105 32.5t97.5 60t79.5 88.5t55 123.5t21 160h-334q-224 0 -335 -66
t-111 -180q0 -106 90 -167.5t227 -61.5z" />
    <glyph glyph-name="uni0204" unicode="&#x204;" horiz-adv-x="1415" 
d="M492 1939l194 -323h-106l-211 309v14h123zM821 1939l160 -323h-107l-178 309v14h125zM340 111h971l32 -111h-1126v1475h1106l-33 -111h-950v-530h651v-111h-651v-612z" />
    <glyph glyph-name="uni0205" unicode="&#x205;" horiz-adv-x="1341" 
d="M410 1575l194 -324h-106l-211 310v14h123zM739 1575l160 -324h-106l-179 310v14h125zM1243 559q0 -7 -4 -39h-1006q12 -195 144.5 -316.5t339.5 -121.5q123 0 220.5 41t158.5 108l78 -81q-69 -80 -187.5 -128.5t-273.5 -48.5q-268 0 -434 163t-166 417t160 419t407 165
q166 0 295.5 -78t198.5 -209t69 -291zM680 1028q-176 0 -299 -112t-143 -298h882q-12 174 -134 292t-306 118z" />
    <glyph glyph-name="uni0206" unicode="&#x206;" horiz-adv-x="1415" 
d="M762 1843q-96 0 -160 -63.5t-65 -163.5h-95q0 144 90.5 235t229.5 91t229 -91t90 -235h-94q-1 100 -65 163.5t-160 63.5zM340 111h971l32 -111h-1126v1475h1106l-33 -111h-950v-530h651v-111h-651v-612z" />
    <glyph glyph-name="uni0207" unicode="&#x207;" horiz-adv-x="1341" 
d="M680 1479q-96 0 -160 -64t-65 -164h-95q0 144 90.5 235t229.5 91t229 -91t90 -235h-94q-1 100 -65 164t-160 64zM1243 559q0 -7 -4 -39h-1006q12 -195 144.5 -316.5t339.5 -121.5q123 0 220.5 41t158.5 108l78 -81q-69 -80 -187.5 -128.5t-273.5 -48.5q-268 0 -434 163
t-166 417t160 419t407 165q166 0 295.5 -78t198.5 -209t69 -291zM680 1028q-176 0 -299 -112t-143 -298h882q-12 174 -134 292t-306 118z" />
    <glyph glyph-name="uni0208" unicode="&#x208;" horiz-adv-x="557" 
d="M96 1616l-211 309v14h123l195 -323h-107zM391 1616l-178 309v14h125l160 -323h-107zM217 0v1475h123v-1475h-123z" />
    <glyph glyph-name="uni0209" unicode="&#x209;" horiz-adv-x="512" 
d="M74 1251l-211 310v14h123l194 -324h-106zM369 1251l-179 310v14h125l160 -324h-106zM315 0h-118v1110h118v-1110z" />
    <glyph glyph-name="uni020A" unicode="&#x20a;" horiz-adv-x="557" 
d="M279 1942q139 0 229 -91t90 -235h-94q-1 100 -65 163.5t-160 63.5t-160.5 -63.5t-65.5 -163.5h-94q0 144 90.5 235t229.5 91zM217 0v1475h123v-1475h-123z" />
    <glyph glyph-name="uni020B" unicode="&#x20b;" horiz-adv-x="512" 
d="M256 1577q139 0 229 -91t90 -235h-94q-1 100 -65 164t-160 64t-160 -64t-65 -164h-94q0 144 90 235t229 91zM315 0h-118v1110h118v-1110z" />
    <glyph glyph-name="uni020C" unicode="&#x20c;" horiz-adv-x="1773" 
d="M705 1616l-211 309v14h122l195 -323h-106zM999 1616l-178 309v14h125l160 -323h-107zM887 -27q-163 0 -305 57.5t-242 158.5t-157.5 243t-57.5 305t57.5 305t157.5 243t242 158.5t305 57.5t305 -57.5t242 -158.5t157.5 -243t57.5 -305t-57.5 -305t-157.5 -243
t-242 -158.5t-305 -57.5zM887 86q182 0 327 83t226.5 232t81.5 336t-81.5 336t-226.5 232.5t-327 83.5t-327 -83.5t-226.5 -232.5t-81.5 -336t81.5 -336t226.5 -232t327 -83z" />
    <glyph glyph-name="uni020D" unicode="&#x20d;" 
d="M512 1251l-211 310v14h123l194 -324h-106zM807 1251l-178 310v14h125l159 -324h-106zM694 -27q165 0 299 76.5t209.5 210t75.5 295.5t-75.5 295.5t-209.5 210t-299 76.5q-124 0 -232.5 -45t-185.5 -122.5t-121 -185.5t-44 -229t44 -229t121 -185.5t185.5 -122.5
t232.5 -45zM694 1026q196 0 329.5 -135.5t133.5 -335.5t-133.5 -335.5t-329.5 -135.5t-329.5 135.5t-133.5 335.5t133.5 335.5t329.5 135.5z" />
    <glyph glyph-name="uni020E" unicode="&#x20e;" horiz-adv-x="1773" 
d="M887 1942q139 0 229 -91t90 -235h-94q-1 100 -65 163.5t-160 63.5t-160 -63.5t-65 -163.5h-95q0 144 90.5 235t229.5 91zM887 -27q-163 0 -305 57.5t-242 158.5t-157.5 243t-57.5 305t57.5 305t157.5 243t242 158.5t305 57.5t305 -57.5t242 -158.5t157.5 -243t57.5 -305
t-57.5 -305t-157.5 -243t-242 -158.5t-305 -57.5zM887 86q182 0 327 83t226.5 232t81.5 336t-81.5 336t-226.5 232.5t-327 83.5t-327 -83.5t-226.5 -232.5t-81.5 -336t81.5 -336t226.5 -232t327 -83z" />
    <glyph glyph-name="uni020F" unicode="&#x20f;" 
d="M694 1577q139 0 229.5 -91t90.5 -235h-94q-1 100 -65.5 164t-160.5 64t-160 -64t-65 -164h-94q0 144 90 235t229 91zM694 -27q165 0 299 76.5t209.5 210t75.5 295.5t-75.5 295.5t-209.5 210t-299 76.5q-124 0 -232.5 -45t-185.5 -122.5t-121 -185.5t-44 -229t44 -229
t121 -185.5t185.5 -122.5t232.5 -45zM694 1026q196 0 329.5 -135.5t133.5 -335.5t-133.5 -335.5t-329.5 -135.5t-329.5 135.5t-133.5 335.5t133.5 335.5t329.5 135.5z" />
    <glyph glyph-name="uni0210" unicode="&#x210;" horiz-adv-x="1562" 
d="M502 1939l194 -323h-106l-211 309v14h123zM831 1939l160 -323h-106l-178 309v14h124zM1479 0h-146l-461 668h-534v-668h-121v1475h735q205 0 328 -114t123 -290q0 -163 -107.5 -273.5t-287.5 -127.5zM940 1364h-602v-588h602q157 0 247.5 81.5t90.5 211.5
q0 132 -90.5 213.5t-247.5 81.5z" />
    <glyph glyph-name="uni0211" unicode="&#x211;" horiz-adv-x="847" 
d="M223 1575l195 -324h-107l-211 310v14h123zM553 1575l160 -324h-107l-178 310v14h125zM700 1126q63 0 115 -14v-113q-59 15 -113 15q-166 0 -276.5 -102.5t-110.5 -260.5v-651h-118v1110h114v-207q42 77 110.5 129t138 73t140.5 21z" />
    <glyph glyph-name="uni0212" unicode="&#x212;" horiz-adv-x="1562" 
d="M772 1843q-96 0 -160 -63.5t-65 -163.5h-94q0 144 90 235t229 91t229.5 -91t90.5 -235h-95q-1 100 -65 163.5t-160 63.5zM1479 0h-146l-461 668h-534v-668h-121v1475h735q205 0 328 -114t123 -290q0 -163 -107.5 -273.5t-287.5 -127.5zM940 1364h-602v-588h602
q157 0 247.5 81.5t90.5 211.5q0 132 -90.5 213.5t-247.5 81.5z" />
    <glyph glyph-name="uni0213" unicode="&#x213;" horiz-adv-x="847" 
d="M494 1479q-96 0 -160.5 -64t-65.5 -164h-94q0 144 90.5 235t229.5 91t229 -91t90 -235h-94q-1 100 -65 164t-160 64zM700 1126q63 0 115 -14v-113q-59 15 -113 15q-166 0 -276.5 -102.5t-110.5 -260.5v-651h-118v1110h114v-207q42 77 110.5 129t138 73t140.5 21z" />
    <glyph glyph-name="uni0214" unicode="&#x214;" horiz-adv-x="1617" 
d="M627 1616l-211 309v14h123l194 -323h-106zM922 1616l-179 309v14h125l160 -323h-106zM809 -27q-272 0 -440 150.5t-168 400.5v951h123v-940q0 -207 133.5 -328t351.5 -121t351.5 121t133.5 328v940h123v-951q0 -250 -168 -400.5t-440 -150.5z" />
    <glyph glyph-name="uni0215" unicode="&#x215;" horiz-adv-x="1353" 
d="M399 1575l195 -324h-107l-211 310v14h123zM729 1575l160 -324h-107l-178 310v14h125zM1038 430v680h119v-1110h-115v186q-71 -110 -183.5 -161.5t-242.5 -51.5q-199 0 -317.5 113.5t-118.5 304.5v719h119v-700q0 -152 88.5 -239t249.5 -87q177 0 289 100.5t112 245.5z
" />
    <glyph glyph-name="uni0216" unicode="&#x216;" horiz-adv-x="1617" 
d="M809 1942q139 0 229 -91t90 -235h-94q-1 100 -65 163.5t-160 63.5t-160 -63.5t-65 -163.5h-95q0 144 90.5 235t229.5 91zM809 -27q-272 0 -440 150.5t-168 400.5v951h123v-940q0 -207 133.5 -328t351.5 -121t351.5 121t133.5 328v940h123v-951q0 -250 -168 -400.5
t-440 -150.5z" />
    <glyph glyph-name="uni0217" unicode="&#x217;" horiz-adv-x="1353" 
d="M670 1479q-96 0 -160.5 -64t-65.5 -164h-94q0 144 90.5 235t229.5 91t229 -91t90 -235h-94q-1 100 -65 164t-160 64zM1038 430v680h119v-1110h-115v186q-71 -110 -183.5 -161.5t-242.5 -51.5q-199 0 -317.5 113.5t-118.5 304.5v719h119v-700q0 -152 88.5 -239t249.5 -87
q177 0 289 100.5t112 245.5z" />
    <glyph glyph-name="uni0218" unicode="&#x218;" horiz-adv-x="1419" 
d="M745 -20q-186 0 -349 55t-281 155l82 97q111 -96 251.5 -145.5t292.5 -49.5q182 0 307.5 85t125.5 222q0 221 -328 285l-305 59q-387 76 -387 353q0 120 75.5 212.5t204 141.5t287.5 49q336 0 536 -186l-75 -90q-186 166 -463 166q-189 0 -316 -80.5t-127 -206.5
q0 -93 76.5 -152.5t241.5 -93.5l297 -59q200 -39 302.5 -140t102.5 -251q0 -189 -154 -307.5t-397 -118.5zM676 -432h-84l72 299h139z" />
    <glyph glyph-name="uni0219" unicode="&#x219;" horiz-adv-x="1175" 
d="M100 145l70 93q75 -63 194.5 -107.5t249.5 -44.5q149 0 241.5 59.5t92.5 157.5q0 74 -57.5 119t-173.5 67l-273 52q-162 31 -236.5 102.5t-74.5 171.5q0 137 122.5 227.5t336.5 90.5q273 0 448 -146l-67 -90q-73 62 -178 95.5t-213 33.5q-146 0 -238 -58.5t-92 -148.5
q0 -64 58.5 -104.5t187.5 -65.5l262 -51q166 -33 236.5 -110t70.5 -179q0 -147 -126 -238t-331 -91q-142 0 -281.5 44t-228.5 121zM565 -432h-84l72 299h139z" />
    <glyph glyph-name="uni021A" unicode="&#x21a;" horiz-adv-x="1343" 
d="M1274 1475v-111h-541v-1364h-123v1364h-540v111h1204zM637 -432h-84l72 299h139z" />
    <glyph glyph-name="uni021B" unicode="&#x21b;" horiz-adv-x="841" 
d="M610 90q95 0 178 39v-111q-63 -38 -186 -38q-168 0 -263 94t-95 258v676h-189v102h189v287l118 55v-342h418v-102h-418v-664q0 -121 67 -187.5t181 -66.5zM428 -432h-84l72 299h139z" />
    <glyph glyph-name="uni022A" unicode="&#x22a;" horiz-adv-x="1773" 
d="M1198 2021h-623v99h623v-99zM670 1679q-38 0 -63 25t-25 63t25 63t63 25t63 -25t25 -63t-25 -63t-63 -25zM1104 1679q-38 0 -63 25t-25 63t25 63t63 25t63 -25t25 -63t-25 -63t-63 -25zM887 -27q-163 0 -305 57.5t-242 158.5t-157.5 243t-57.5 305t57.5 305t157.5 243
t242 158.5t305 57.5t305 -57.5t242 -158.5t157.5 -243t57.5 -305t-57.5 -305t-157.5 -243t-242 -158.5t-305 -57.5zM887 86q182 0 327 83t226.5 232t81.5 336t-81.5 336t-226.5 232.5t-327 83.5t-327 -83.5t-226.5 -232.5t-81.5 -336t81.5 -336t226.5 -232t327 -83z" />
    <glyph glyph-name="uni022B" unicode="&#x22b;" 
d="M1006 1657h-623v98h623v-98zM477 1315q-38 0 -63 25t-25 63t25 63t63 25t63 -25t25 -63t-25 -63t-63 -25zM911 1315q-38 0 -63 25t-25 63t25 63t63 25t63 -25t25 -63t-25 -63t-63 -25zM694 -27q165 0 299 76.5t209.5 210t75.5 295.5t-75.5 295.5t-209.5 210t-299 76.5
q-124 0 -232.5 -45t-185.5 -122.5t-121 -185.5t-44 -229t44 -229t121 -185.5t185.5 -122.5t232.5 -45zM694 1026q196 0 329.5 -135.5t133.5 -335.5t-133.5 -335.5t-329.5 -135.5t-329.5 135.5t-133.5 335.5t133.5 335.5t329.5 135.5z" />
    <glyph glyph-name="uni022C" unicode="&#x22c;" horiz-adv-x="1773" 
d="M1198 2099h-623v99h623v-99zM1053 1636q-46 0 -88 19t-72 46t-58 54.5t-58.5 46.5t-61.5 19q-54 0 -86 -48.5t-35 -130.5h-98q3 125 61.5 201t159.5 76q47 0 89 -19t72 -46.5t57.5 -55t58 -46.5t61.5 -19q54 0 86 48t35 130h98q-3 -125 -61.5 -200t-159.5 -75zM887 -27
q-163 0 -305 57.5t-242 158.5t-157.5 243t-57.5 305t57.5 305t157.5 243t242 158.5t305 57.5t305 -57.5t242 -158.5t157.5 -243t57.5 -305t-57.5 -305t-157.5 -243t-242 -158.5t-305 -57.5zM887 86q182 0 327 83t226.5 232t81.5 336t-81.5 336t-226.5 232.5t-327 83.5
t-327 -83.5t-226.5 -232.5t-81.5 -336t81.5 -336t226.5 -232t327 -83z" />
    <glyph glyph-name="uni022D" unicode="&#x22d;" 
d="M1006 1704h-623v98h623v-98zM860 1272q-46 0 -88 19t-72 46t-58 54t-58.5 46t-61.5 19q-54 0 -86 -48t-35 -130h-98q3 125 61.5 200.5t159.5 75.5q47 0 89 -19t72 -46.5t57.5 -55t58 -46.5t61.5 -19q54 0 86 48t35 130h98q-3 -125 -61.5 -199.5t-159.5 -74.5zM694 -27
q165 0 299 76.5t209.5 210t75.5 295.5t-75.5 295.5t-209.5 210t-299 76.5q-124 0 -232.5 -45t-185.5 -122.5t-121 -185.5t-44 -229t44 -229t121 -185.5t185.5 -122.5t232.5 -45zM694 1026q196 0 329.5 -135.5t133.5 -335.5t-133.5 -335.5t-329.5 -135.5t-329.5 135.5
t-133.5 335.5t133.5 335.5t329.5 135.5z" />
    <glyph glyph-name="uni0230" unicode="&#x230;" horiz-adv-x="1773" 
d="M1198 2021h-623v99h623v-99zM887 1855q38 0 63 -25t25 -63t-25 -63t-63 -25t-63 25t-25 63t25 63t63 25zM887 -27q-163 0 -305 57.5t-242 158.5t-157.5 243t-57.5 305t57.5 305t157.5 243t242 158.5t305 57.5t305 -57.5t242 -158.5t157.5 -243t57.5 -305t-57.5 -305
t-157.5 -243t-242 -158.5t-305 -57.5zM887 86q182 0 327 83t226.5 232t81.5 336t-81.5 336t-226.5 232.5t-327 83.5t-327 -83.5t-226.5 -232.5t-81.5 -336t81.5 -336t226.5 -232t327 -83z" />
    <glyph glyph-name="uni0231" unicode="&#x231;" 
d="M1006 1657h-623v98h623v-98zM694 1491q38 0 63 -25t25 -63t-25 -63t-63 -25t-63 25t-25 63t25 63t63 25zM694 -27q165 0 299 76.5t209.5 210t75.5 295.5t-75.5 295.5t-209.5 210t-299 76.5q-124 0 -232.5 -45t-185.5 -122.5t-121 -185.5t-44 -229t44 -229t121 -185.5
t185.5 -122.5t232.5 -45zM694 1026q196 0 329.5 -135.5t133.5 -335.5t-133.5 -335.5t-329.5 -135.5t-329.5 135.5t-133.5 335.5t133.5 335.5t329.5 135.5z" />
    <glyph glyph-name="uni0232" unicode="&#x232;" horiz-adv-x="1454" 
d="M414 1786h622v-98h-622v98zM1268 1475h139l-619 -967v-508h-122v506l-623 969h143l541 -859z" />
    <glyph glyph-name="uni0233" unicode="&#x233;" horiz-adv-x="1224" 
d="M301 1421h623v-98h-623v98zM616 131l437 979h129l-584 -1268q-107 -231 -328 -231q-109 0 -211 45l41 104q84 -43 166 -43q156 0 236 174l53 115l-512 1104h133z" />
    <glyph glyph-name="uni0237" unicode="&#x237;" horiz-adv-x="528" 
d="M63 -383q-65 0 -118 21v104q46 -18 104 -18q77 0 120.5 42t43.5 115v1229h119v-1235q0 -118 -73 -188t-196 -70z" />
    <glyph glyph-name="uni0259" unicode="&#x259;" horiz-adv-x="1341" 
d="M629 1137q268 0 434 -163t166 -417t-160 -419t-407 -165q-166 0 -296 78t-199 209.5t-69 290.5q0 7 4 39h1006q-12 195 -144 316.5t-339 121.5q-123 0 -220.5 -41t-158.5 -108l-78 82q68 79 186.5 127.5t274.5 48.5zM662 82q176 0 299 112t143 298h-883
q12 -173 134 -291.5t307 -118.5z" />
    <glyph glyph-name="uni02B9" unicode="&#x2b9;" horiz-adv-x="559" 
d="M236 963h-86l131 512h139z" />
    <glyph glyph-name="uni02BA" unicode="&#x2ba;" horiz-adv-x="880" 
d="M557 967h-86l131 512h139zM236 963h-86l131 512h139z" />
    <glyph glyph-name="uni02BB" unicode="&#x2bb;" horiz-adv-x="0" 
d="M-664 1575h82l-65 -324h-139z" />
    <glyph glyph-name="uni02BC" unicode="&#x2bc;" horiz-adv-x="542" 
d="M252 1481q74 0 120 -67t46 -159q0 -96 -57 -176t-175 -116l-32 79q74 24 119.5 77.5t45.5 123.5q0 51 -26 84q-20 -20 -57 -20q-38 0 -61 24.5t-23 59.5q0 37 27.5 63.5t72.5 26.5z" />
    <glyph glyph-name="uni02BE" unicode="&#x2be;" horiz-adv-x="0" 
d="M-686 1679v82q118 0 194 -73.5t76 -182.5t-75.5 -181.5t-194.5 -72.5v80q75 0 125.5 50t50.5 124q0 75 -50.5 124.5t-125.5 49.5z" />
    <glyph glyph-name="uni02BF" unicode="&#x2bf;" horiz-adv-x="0" 
d="M-686 1331v-80q-118 0 -193 72.5t-75 181.5t75 182.5t193 73.5v-82q-75 0 -125.5 -49.5t-50.5 -124.5q0 -74 50.5 -124t125.5 -50z" />
    <glyph glyph-name="circumflex" unicode="&#x2c6;" horiz-adv-x="1200" 
d="M723 1575l264 -322h-117l-213 234l-213 -234h-116l262 322h133z" />
    <glyph glyph-name="caron" unicode="&#x2c7;" horiz-adv-x="1200" 
d="M657 1341l213 234h117l-264 -322h-133l-262 322h116z" />
    <glyph glyph-name="uni02C8" unicode="&#x2c8;" horiz-adv-x="403" 
d="M256 1229h-109v452h109v-452z" />
    <glyph glyph-name="uni02C9" unicode="&#x2c9;" horiz-adv-x="1200" 
d="M989 1323h-622v98h622v-98z" />
    <glyph glyph-name="uni02CA" unicode="&#x2ca;" horiz-adv-x="0" 
d="M-406 1575v-14l-274 -310h-121l256 324h139z" />
    <glyph glyph-name="uni02CB" unicode="&#x2cb;" horiz-adv-x="0" 
d="M-956 1556v17h137l237 -320h-118z" />
    <glyph glyph-name="uni02CC" unicode="&#x2cc;" horiz-adv-x="403" 
d="M256 -553h-109v453h109v-453z" />
    <glyph glyph-name="breve" unicode="&#x2d8;" horiz-adv-x="1200" 
d="M610 1249q-139 0 -229 91t-90 235h94q1 -100 65 -163.5t160 -63.5t160.5 63.5t65.5 163.5h94q0 -144 -90.5 -235t-229.5 -91z" />
    <glyph glyph-name="dotaccent" unicode="&#x2d9;" horiz-adv-x="1200" 
d="M336 1491q38 0 63 -25t25 -63t-25 -63t-63 -25t-63 25t-25 63t25 63t63 25z" />
    <glyph glyph-name="ring" unicode="&#x2da;" horiz-adv-x="1202" 
d="M610 1251q-117 0 -193.5 73t-76.5 181q0 110 76 183t194 73q119 0 195 -73t76 -183q0 -108 -76 -181t-195 -73zM610 1335q75 0 125.5 48.5t50.5 121.5q0 75 -50.5 123.5t-125.5 48.5q-74 0 -124 -49t-50 -123q0 -73 50 -121.5t124 -48.5z" />
    <glyph glyph-name="ogonek" unicode="&#x2db;" horiz-adv-x="1200" 
d="M602 41l98 -41q-260 -115 -260 -211q0 -43 31.5 -66.5t83.5 -23.5q84 0 156 57l51 -73q-87 -80 -223 -80q-91 0 -150 44.5t-59 125.5q0 68 66 137t206 131z" />
    <glyph glyph-name="tilde" unicode="&#x2dc;" horiz-adv-x="1200" 
d="M684 1272q-46 0 -88 19t-72 46t-58 54t-58.5 46t-61.5 19q-54 0 -86 -48t-35 -130h-98q3 125 61.5 200.5t159.5 75.5q47 0 89 -19t72 -46.5t57.5 -55t58 -46.5t61.5 -19q54 0 86 48t35 130h98q-3 -125 -61.5 -199.5t-159.5 -74.5z" />
    <glyph glyph-name="hungarumlaut" unicode="&#x2dd;" horiz-adv-x="1200" 
d="M776 1575v-14l-178 -310h-106l159 324h125zM1104 1575v-14l-211 -310h-107l195 324h123z" />
    <glyph glyph-name="gravecomb" unicode="&#x300;" horiz-adv-x="0" 
d="M-956 1556v17h137l237 -320h-118z" />
    <glyph glyph-name="acutecomb" unicode="&#x301;" horiz-adv-x="0" 
d="M-406 1575v-14l-274 -310h-121l256 324h139z" />
    <glyph glyph-name="uni0302" unicode="&#x302;" horiz-adv-x="0" 
d="M-618 1575l264 -322h-117l-213 234l-213 -234h-117l262 322h134z" />
    <glyph glyph-name="tildecomb" unicode="&#x303;" horiz-adv-x="0" 
d="M-518 1272q-46 0 -88 19t-72 46t-58 54t-58.5 46t-61.5 19q-54 0 -86 -48t-35 -130h-98q3 125 61.5 200.5t159.5 75.5q47 0 89 -19t72 -46.5t57.5 -55t58 -46.5t61.5 -19q54 0 86 48t35 130h98q-3 -125 -61.5 -199.5t-159.5 -74.5z" />
    <glyph glyph-name="uni0304" unicode="&#x304;" horiz-adv-x="0" 
d="M-373 1323h-622v98h622v-98z" />
    <glyph glyph-name="uni0306" unicode="&#x306;" horiz-adv-x="0" 
d="M-684 1249q-139 0 -229.5 91t-90.5 235h95q1 -100 65 -163.5t160 -63.5t160 63.5t65 163.5h94q0 -144 -90 -235t-229 -91z" />
    <glyph glyph-name="uni0307" unicode="&#x307;" horiz-adv-x="0" 
d="M-684 1491q38 0 63 -25t25 -63t-25 -63t-63 -25t-63 25t-25 63t25 63t63 25z" />
    <glyph glyph-name="uni0308" unicode="&#x308;" horiz-adv-x="0" 
d="M-895 1315q-38 0 -63 25t-25 63t25 63t63 25t63 -25t25 -63t-25 -63t-63 -25zM-461 1315q-38 0 -63 25t-25 63t25 63t63 25t63 -25t25 -63t-25 -63t-63 -25z" />
    <glyph glyph-name="hookabovecomb" unicode="&#x309;" horiz-adv-x="0" 
d="M-629 1247h-96v33q0 47 26 85t85 85q34 27 50 41t30 36t14 44q0 45 -40 72.5t-102 27.5q-70 0 -113.5 -36t-45.5 -87h-103q5 92 77 152.5t192 60.5q104 0 171.5 -52t67.5 -134q0 -52 -27 -90t-85 -86q-61 -50 -81 -75t-20 -52v-25z" />
    <glyph glyph-name="uni030A" unicode="&#x30a;" horiz-adv-x="0" 
d="M-688 1251q-117 0 -193.5 73t-76.5 181q0 110 76 183t194 73q119 0 194.5 -73t75.5 -183q0 -109 -75.5 -181.5t-194.5 -72.5zM-688 1335q75 0 125.5 48.5t50.5 121.5q0 75 -50.5 123.5t-125.5 48.5q-74 0 -124 -49t-50 -123q0 -73 50 -121.5t124 -48.5z" />
    <glyph glyph-name="uni030B" unicode="&#x30b;" horiz-adv-x="0" 
d="M-631 1575v-14l-178 -310h-106l159 324h125zM-303 1575v-14l-211 -310h-107l195 324h123z" />
    <glyph glyph-name="uni030C" unicode="&#x30c;" horiz-adv-x="0" 
d="M-684 1341l213 234h117l-264 -322h-134l-262 322h117z" />
    <glyph glyph-name="uni030F" unicode="&#x30f;" horiz-adv-x="0" 
d="M-866 1251l-211 310v14h123l194 -324h-106zM-571 1251l-179 310v14h125l160 -324h-106z" />
    <glyph glyph-name="uni0311" unicode="&#x311;" horiz-adv-x="0" 
d="M-684 1577q139 0 229 -91t90 -235h-94q-1 100 -65 164t-160 64t-160 -64t-65 -164h-95q0 144 90.5 235t229.5 91z" />
    <glyph glyph-name="uni0312" unicode="&#x312;" horiz-adv-x="0" 
d="M-664 1575h82l-65 -324h-139z" />
    <glyph glyph-name="uni031B" unicode="&#x31b;" horiz-adv-x="0" 
d="M-324 1022h-139v88h125q158 0 158 147q0 63 -43 148h117q36 -59 36 -154q0 -108 -68.5 -168.5t-185.5 -60.5z" />
    <glyph glyph-name="dotbelowcomb" unicode="&#x323;" horiz-adv-x="0" 
d="M-686 -195q38 0 63 -25t25 -63t-25 -63t-63 -25t-63 25t-25 63t25 63t63 25z" />
    <glyph glyph-name="uni0324" unicode="&#x324;" horiz-adv-x="0" 
d="M-897 -371q-38 0 -63 25t-25 63t25 63t63 25t63 -25t25 -63t-25 -63t-63 -25zM-463 -371q-38 0 -63 25t-25 63t25 63t63 25t63 -25t25 -63t-25 -63t-63 -25z" />
    <glyph glyph-name="uni0326" unicode="&#x326;" horiz-adv-x="0" 
d="M-719 -432h-84l72 299h139z" />
    <glyph glyph-name="uni0327" unicode="&#x327;" horiz-adv-x="0" 
d="M-641 -94q100 0 163.5 -45.5t63.5 -118.5q0 -82 -74.5 -130t-201.5 -48q-88 0 -164.5 22.5t-126.5 55.5l47 71q109 -67 244 -67q80 0 124 25t44 67t-41 67t-111 25q-72 0 -135 -29l-41 31l152 205h110l-127 -141q33 10 74 10z" />
    <glyph glyph-name="uni0328" unicode="&#x328;" horiz-adv-x="0" 
d="M-315 41l98 -41q-260 -115 -260 -211q0 -43 31.5 -66.5t83.5 -23.5q83 0 155 57l51 -73q-87 -80 -223 -80q-91 0 -150 44.5t-59 125.5q0 68 66.5 137t206.5 131z" />
    <glyph glyph-name="uni032E" unicode="&#x32e;" horiz-adv-x="0" 
d="M-684 -436q-139 0 -229.5 90.5t-90.5 234.5h95q1 -100 65 -163.5t160 -63.5t160 63.5t65 163.5h94q0 -144 -90 -234.5t-229 -90.5z" />
    <glyph glyph-name="uni0331" unicode="&#x331;" horiz-adv-x="0" 
d="M-373 -340h-622v98h622v-98z" />
    <glyph glyph-name="Xi" unicode="&#x39e;" horiz-adv-x="1273" 
d="M1159 1364h-1044v111h1044v-111zM997 723h-721v111h721v-111zM1159 0h-1044v111h1044v-111z" />
    <glyph glyph-name="pi" unicode="&#x3c0;" horiz-adv-x="1429" 
d="M1370 1110v-102h-297v-797q0 -59 32 -89t87 -30q40 0 86 17v-107q-45 -18 -100 -18q-103 0 -163.5 56t-60.5 157v811h-497v-1008h-119v1008h-305v102h1337z" />
    <glyph glyph-name="uni0400" unicode="&#x400;" horiz-adv-x="1415" 
d="M627 1937l237 -319h-119l-256 303v16h138zM340 111h971l32 -111h-1126v1475h1106l-33 -111h-950v-530h651v-111h-651v-612z" />
    <glyph glyph-name="uni0401" unicode="&#x401;" horiz-adv-x="1415" 
d="M545 1679q-38 0 -63 25t-25 63t25 63t63 25t63 -25t25 -63t-25 -63t-63 -25zM979 1679q-38 0 -63 25t-25 63t25 63t63 25t63 -25t25 -63t-25 -63t-63 -25zM340 111h971l32 -111h-1126v1475h1106l-33 -111h-950v-530h651v-111h-651v-612z" />
    <glyph glyph-name="uni0402" unicode="&#x402;" horiz-adv-x="1861" 
d="M1192 885q263 0 417 -123.5t154 -341.5q0 -206 -136.5 -323t-377.5 -117q-105 0 -190 16v113q100 -17 190 -17q188 0 288.5 85t100.5 243q0 173 -117 263.5t-341 90.5q-113 0 -248 -21.5t-244 -56.5v-696h-123v1364h-495v111h1341v-111h-723v-561q112 38 250 60t254 22z
" />
    <glyph glyph-name="uni0403" unicode="&#x403;" horiz-adv-x="1312" 
d="M979 1939v-14l-274 -309h-121l256 323h139zM1239 1475v-111h-899v-1364h-123v1475h1022z" />
    <glyph glyph-name="uni0404" unicode="&#x404;" horiz-adv-x="1533" 
d="M1372 248l86 -86q-95 -96 -236 -142.5t-296 -46.5q-227 0 -411.5 98.5t-289 273t-104.5 390.5q0 217 105 393t286 274.5t401 98.5q158 0 300 -49.5t231 -140.5l-82 -88q-81 78 -202 122t-251 44q-166 0 -309 -73t-236 -205t-112 -298h907v-108h-911q8 -176 99 -318
t242.5 -221.5t332.5 -79.5q130 0 251 41t199 121z" />
    <glyph glyph-name="uni0405" unicode="&#x405;" horiz-adv-x="1419" 
d="M745 -20q-186 0 -349 55t-281 155l82 97q111 -96 251.5 -145.5t292.5 -49.5q182 0 307.5 85t125.5 222q0 221 -328 285l-305 59q-387 76 -387 353q0 120 75.5 212.5t204 141.5t287.5 49q336 0 536 -186l-75 -90q-186 166 -463 166q-189 0 -316 -80.5t-127 -206.5
q0 -93 76.5 -152.5t241.5 -93.5l297 -59q200 -39 302.5 -140t102.5 -251q0 -189 -154 -307.5t-397 -118.5z" />
    <glyph glyph-name="uni0406" unicode="&#x406;" horiz-adv-x="557" 
d="M217 0v1475h123v-1475h-123z" />
    <glyph glyph-name="uni0407" unicode="&#x407;" horiz-adv-x="557" 
d="M98 1679q-38 0 -63 25t-25 63t25 63t63 25t63 -25t25 -63t-25 -63t-63 -25zM459 1679q-38 0 -63 25t-25 63t25 63t63 25t63 -25t25 -63t-25 -63t-63 -25zM217 0v1475h123v-1475h-123z" />
    <glyph glyph-name="uni0408" unicode="&#x408;" horiz-adv-x="1204" 
d="M877 434v1041h122v-1045q0 -213 -126.5 -335t-333.5 -122q-202 0 -329.5 117.5t-131.5 325.5h121q6 -161 99.5 -245.5t240.5 -84.5q156 0 247 92t91 256z" />
    <glyph glyph-name="uni0409" unicode="&#x409;" horiz-adv-x="2471" 
d="M1360 897h514q237 0 373.5 -125t136.5 -323t-137 -323.5t-373 -125.5h-637v1364h-750q-18 -553 -59 -1036q-14 -153 -101 -244.5t-221 -91.5q-35 0 -71 8v115q31 -6 67 -6q76 0 135.5 64t71.5 175q44 426 64 1127h987v-578zM1360 111h510q183 0 286 93t103 245
t-103 244.5t-286 92.5h-510v-675z" />
    <glyph glyph-name="uni040A" unicode="&#x40a;" horiz-adv-x="2519" 
d="M1409 860h537q233 0 360 -119t127 -311q0 -190 -130.5 -310t-356.5 -120h-660v750h-946v-750h-123v1475h123v-615h946v615h123v-615zM1409 111h533q172 0 269 87.5t97 231.5q0 146 -93.5 233t-272.5 87h-533v-639z" />
    <glyph glyph-name="uni040B" unicode="&#x40b;" horiz-adv-x="1875" 
d="M1208 868q247 0 396 -118.5t149 -317.5v-432h-123v420q0 162 -112.5 250t-321.5 88q-112 0 -255.5 -23.5t-252.5 -58.5v-676h-123v1364h-495v111h1341v-111h-723v-582q113 38 259 62t261 24z" />
    <glyph glyph-name="uni040C" unicode="&#x40c;" horiz-adv-x="1529" 
d="M1038 1939v-14l-274 -309h-121l256 323h139zM1509 0h-151l-567 729h-451v-729h-123v1475h123v-635h446l529 635h147l-571 -682z" />
    <glyph glyph-name="uni040D" unicode="&#x40d;" horiz-adv-x="1728" 
d="M725 1937l238 -319h-119l-256 303v16h137zM340 150l1036 1325h135v-1475h-122v1321l-1035 -1321h-137v1475h123v-1325z" />
    <glyph glyph-name="uni040E" unicode="&#x40e;" horiz-adv-x="1484" 
d="M780 1614q-145 0 -238 90.5t-93 234.5h104q0 -102 65 -168.5t162 -66.5t162.5 66.5t65.5 168.5h104q0 -144 -93.5 -234.5t-238.5 -90.5zM786 451l539 1024h135l-682 -1270q-63 -118 -148 -175t-198 -57q-93 0 -186 35l33 109q81 -33 149 -33q159 0 248 170l43 80
l-619 1141h144z" />
    <glyph glyph-name="uni040F" unicode="&#x40f;" horiz-adv-x="1683" 
d="M1343 111v1364h123v-1475h-567v-328h-115v328h-567v1475h123v-1364h1003z" />
    <glyph glyph-name="uni0410" unicode="&#x410;" horiz-adv-x="1519" 
d="M1475 0h-134l-184 436h-797l-186 -436h-129l641 1475h150zM762 1368l-354 -823h702z" />
    <glyph glyph-name="uni0411" unicode="&#x411;" horiz-adv-x="1497" 
d="M340 836h586q222 0 348.5 -116.5t126.5 -301.5t-126.5 -301.5t-348.5 -116.5h-709v1475h1059v-111h-936v-528zM340 111h582q168 0 261 84.5t93 222.5t-93 222.5t-261 84.5h-582v-614z" />
    <glyph glyph-name="uni0412" unicode="&#x412;" horiz-adv-x="1558" 
d="M1116 774q163 -33 246.5 -133t83.5 -238q0 -174 -127 -288.5t-352 -114.5h-750v1475h680q202 0 316 -106t114 -267q0 -104 -52 -192.5t-159 -135.5zM883 1366h-545v-557h555q87 0 151 25t97.5 67.5t49 89.5t15.5 99q0 125 -82.5 200.5t-240.5 75.5zM338 109h618
q169 0 268 81t99 220q0 134 -94.5 213t-259.5 79h-631v-593z" />
    <glyph glyph-name="uni0413" unicode="&#x413;" horiz-adv-x="1312" 
d="M1239 1475v-111h-899v-1364h-123v1475h1022z" />
    <glyph glyph-name="uni0414" unicode="&#x414;" horiz-adv-x="1738" 
d="M1479 1475v-1364h168v-439h-115v328h-1368v-328h-115v439h135q45 57 80 159.5t47 221.5q42 423 58 983h1110zM324 111h1032v1253h-873q-15 -456 -53 -885q-9 -104 -38 -206t-68 -162z" />
    <glyph glyph-name="uni0415" unicode="&#x415;" horiz-adv-x="1415" 
d="M340 111h971l32 -111h-1126v1475h1106l-33 -111h-950v-530h651v-111h-651v-612z" />
    <glyph glyph-name="uni0416" unicode="&#x416;" horiz-adv-x="2293" 
d="M2267 0h-143l-527 729h-389v-729h-123v729h-389l-526 -729h-143l571 793l-524 682h139l487 -635h385v635h123v-635h385l488 635h139l-524 -682z" />
    <glyph glyph-name="uni0417" unicode="&#x417;" horiz-adv-x="1390" 
d="M952 782q154 -38 236 -131t82 -231q0 -201 -163 -324t-431 -123q-176 0 -338 52.5t-260 142.5l76 92q90 -80 227 -127t297 -47q221 0 344 89t123 247q0 144 -107.5 219.5t-310.5 75.5h-299v108h268q185 0 287 72.5t102 202.5q0 134 -108 211.5t-299 77.5
q-115 0 -258.5 -44.5t-224.5 -113.5l-68 86q94 86 245.5 135t303.5 49q241 0 386.5 -108.5t145.5 -288.5q0 -118 -65.5 -200t-190.5 -122z" />
    <glyph glyph-name="uni0418" unicode="&#x418;" horiz-adv-x="1728" 
d="M340 150l1036 1325h135v-1475h-122v1321l-1035 -1321h-137v1475h123v-1325z" />
    <glyph glyph-name="uni0419" unicode="&#x419;" horiz-adv-x="1728" 
d="M860 1614q-145 0 -238.5 90.5t-93.5 234.5h105q0 -102 65 -168.5t162 -66.5t162 66.5t65 168.5h105q0 -144 -93.5 -234.5t-238.5 -90.5zM340 150l1036 1325h135v-1475h-122v1321l-1035 -1321h-137v1475h123v-1325z" />
    <glyph glyph-name="uni041A" unicode="&#x41a;" horiz-adv-x="1529" 
d="M1509 0h-151l-567 729h-451v-729h-123v1475h123v-635h446l529 635h147l-571 -682z" />
    <glyph glyph-name="uni041B" unicode="&#x41b;" horiz-adv-x="1687" 
d="M1470 1475v-1475h-122v1364h-861q-18 -553 -59 -1036q-14 -153 -101 -244.5t-221 -91.5q-35 0 -71 8v115q31 -6 67 -6q76 0 135.5 64t71.5 175q44 426 64 1127h1097z" />
    <glyph glyph-name="uni041C" unicode="&#x41c;" horiz-adv-x="2023" 
d="M1806 1475v-1475h-118v1329l-635 -1292h-90l-627 1278v-1315h-119v1475h166l627 -1280l628 1280h168z" />
    <glyph glyph-name="uni041D" unicode="&#x41d;" horiz-adv-x="1720" 
d="M1380 840v635h123v-1475h-123v729h-1040v-729h-123v1475h123v-635h1040z" />
    <glyph glyph-name="uni041E" unicode="&#x41e;" horiz-adv-x="1769" 
d="M887 -27q-163 0 -305 57.5t-242 158.5t-157.5 243t-57.5 305t57.5 305t157.5 243t242 158.5t305 57.5t305 -57.5t242 -158.5t157.5 -243t57.5 -305t-57.5 -305t-157.5 -243t-242 -158.5t-305 -57.5zM887 86q182 0 327 83t226.5 232t81.5 336t-81.5 336t-226.5 232.5
t-327 83.5t-327 -83.5t-226.5 -232.5t-81.5 -336t81.5 -336t226.5 -232t327 -83z" />
    <glyph glyph-name="uni041F" unicode="&#x41f;" horiz-adv-x="1695" 
d="M1479 1475v-1475h-123v1364h-1016v-1364h-123v1475h1262z" />
    <glyph glyph-name="uni0420" unicode="&#x420;" horiz-adv-x="1470" 
d="M907 1475q224 0 350.5 -115.5t126.5 -302.5q0 -189 -126.5 -304.5t-350.5 -115.5h-567v-637h-123v1475h690zM340 748h563q170 0 263.5 83.5t93.5 225.5q0 141 -93.5 224t-263.5 83h-563v-616z" />
    <glyph glyph-name="uni0421" unicode="&#x421;" horiz-adv-x="1536" 
d="M928 -27q-227 0 -411.5 98.5t-289 273t-104.5 390.5q0 217 105 393t286 274.5t401 98.5q158 0 300 -49.5t231 -140.5l-82 -88q-81 78 -202 122t-251 44q-178 0 -329 -83.5t-241.5 -234.5t-90.5 -336q0 -184 89.5 -333t243.5 -232.5t341 -83.5q130 0 251 41t199 121
l86 -86q-95 -96 -236 -142.5t-296 -46.5z" />
    <glyph glyph-name="uni0422" unicode="&#x422;" horiz-adv-x="1343" 
d="M1274 1475v-111h-541v-1364h-123v1364h-540v111h1204z" />
    <glyph glyph-name="uni0423" unicode="&#x423;" horiz-adv-x="1484" 
d="M786 451l539 1024h135l-682 -1270q-63 -118 -148 -175t-198 -57q-93 0 -186 35l33 109q81 -33 149 -33q159 0 248 170l43 80l-619 1141h144z" />
    <glyph glyph-name="uni0424" unicode="&#x424;" horiz-adv-x="1900" 
d="M1786 750q0 -190 -99 -331t-273 -215.5t-402 -78.5v-162h-123v162q-228 4 -402 78.5t-273 215.5t-99 331t99 331t273 215t402 78v154h123v-154q228 -4 402 -78t273 -215t99 -331zM242 750q0 -160 82.5 -275t227 -174t337.5 -63v1024q-193 -4 -337.5 -63t-227 -174
t-82.5 -275zM1012 1262v-1024q193 4 337.5 63t227 174t82.5 275t-82.5 275t-227 174t-337.5 63z" />
    <glyph glyph-name="uni0425" unicode="&#x425;" horiz-adv-x="1396" 
d="M776 760l586 -760h-156l-508 670l-514 -670h-149l588 750l-564 725h156l487 -633l484 633h149z" />
    <glyph glyph-name="uni0426" unicode="&#x426;" horiz-adv-x="1710" 
d="M1450 1475v-1364h168v-439h-115v328h-1286v1475h123v-1364h987v1364h123z" />
    <glyph glyph-name="uni0427" unicode="&#x427;" horiz-adv-x="1560" 
d="M1221 780v695h122v-1475h-122v674q-113 -38 -259.5 -62t-261.5 -24q-262 0 -419.5 127t-157.5 342v418h123v-406q0 -177 121.5 -274t345.5 -97q112 0 255.5 23.5t252.5 58.5z" />
    <glyph glyph-name="uni0428" unicode="&#x428;" horiz-adv-x="2375" 
d="M2036 111v1364h123v-1475h-1942v1475h123v-1364h786v1364h123v-1364h787z" />
    <glyph glyph-name="uni0429" unicode="&#x429;" horiz-adv-x="2418" 
d="M2159 1475v-1364h168v-439h-115v328h-1995v1475h123v-1364h786v1364h123v-1364h787v1364h123z" />
    <glyph glyph-name="uni042A" unicode="&#x42a;" horiz-adv-x="1828" 
d="M688 897h543q237 0 373.5 -125t136.5 -323t-137 -323.5t-373 -125.5h-666v1364h-495v111h618v-578zM688 111h539q183 0 286 93t103 245t-103 244.5t-286 92.5h-539v-675z" />
    <glyph glyph-name="uni042B" unicode="&#x42b;" horiz-adv-x="1949" 
d="M340 897h551q237 0 373.5 -125t136.5 -323t-137 -323.5t-373 -125.5h-674v1475h123v-578zM1610 0v1475h123v-1475h-123zM340 111h547q183 0 286 93t103 245t-103 244.5t-286 92.5h-547v-675z" />
    <glyph glyph-name="uni042C" unicode="&#x42c;" horiz-adv-x="1488" 
d="M340 897h551q237 0 373.5 -125t136.5 -323t-137 -323.5t-373 -125.5h-674v1475h123v-578zM340 111h547q183 0 286 93t103 245t-103 244.5t-286 92.5h-547v-675z" />
    <glyph glyph-name="uni042D" unicode="&#x42d;" horiz-adv-x="1533" 
d="M621 1501q220 0 401 -98.5t286 -274.5t105 -393q0 -216 -104.5 -390.5t-289 -273t-411.5 -98.5q-155 0 -296 46.5t-236 142.5l86 86q78 -80 199 -121t251 -41q181 0 332.5 79.5t242.5 221.5t99 318h-911v108h907q-19 166 -112 298t-236 205t-309 73q-130 0 -251 -44
t-202 -122l-82 88q89 91 231 140.5t300 49.5z" />
    <glyph glyph-name="uni042E" unicode="&#x42e;" horiz-adv-x="2291" 
d="M1415 1501q162 0 302.5 -57.5t239.5 -158.5t155.5 -243t56.5 -305t-56.5 -305t-155.5 -243t-239.5 -158.5t-302.5 -57.5q-161 0 -300.5 57t-238.5 156.5t-156 240t-58 302.5h-322v-729h-123v1475h123v-635h328q34 293 240 477t507 184zM1415 86q135 0 251.5 48.5
t199 134.5t129.5 207t47 261q0 187 -80 336t-223.5 232.5t-323.5 83.5t-323.5 -83.5t-223.5 -232.5t-80 -336q0 -140 47 -261t129.5 -207t199 -134.5t251.5 -48.5z" />
    <glyph glyph-name="uni042F" unicode="&#x42f;" horiz-adv-x="1552" 
d="M1335 1475v-1475h-121v635h-544l-426 -635h-138l435 639q-183 20 -291.5 134.5t-108.5 281.5q0 183 127.5 301.5t341.5 118.5h725zM623 743h591v621h-591q-166 0 -261.5 -86.5t-95.5 -224.5t95.5 -224t261.5 -86z" />
    <glyph glyph-name="uni0430" unicode="&#x430;" horiz-adv-x="1288" 
d="M1202 94q34 0 55 8v-98q-24 -12 -69 -12q-92 0 -147.5 57t-55.5 160v37q-44 -95 -123.5 -158t-166.5 -88t-185 -25q-117 0 -211.5 37t-153.5 113t-59 180q0 166 145 258t418 92h334v50q0 147 -101 234t-268 87q-104 0 -204 -35t-162 -96l-74 86q80 74 198.5 114t245.5 40
q218 0 349 -113.5t131 -308.5v-498q0 -59 27 -90t77 -31zM520 80q53 0 105 10.5t105 32.5t97.5 60t79.5 88.5t55 123.5t21 160h-334q-224 0 -335 -66t-111 -180q0 -106 90 -167.5t227 -61.5z" />
    <glyph glyph-name="uni0431" unicode="&#x431;" horiz-adv-x="1415" 
d="M733 1085q161 0 293 -75.5t205.5 -202t73.5 -275.5q0 -113 -43 -215.5t-118.5 -178.5t-183.5 -120.5t-231 -44.5q-124 0 -229.5 45t-186.5 132.5t-127.5 228.5t-46.5 321q0 738 613 803q12 1 72 6.5t102.5 10.5t102.5 12t110.5 16t87.5 19v-117q-72 -21 -164 -32
t-281 -25q-255 -20 -381.5 -166t-154.5 -453q59 143 189.5 227t297.5 84zM729 84q194 0 323.5 130.5t129.5 315.5q0 120 -58 222.5t-162.5 163.5t-232.5 61q-191 0 -318.5 -130t-127.5 -315q0 -187 127.5 -317.5t318.5 -130.5z" />
    <glyph glyph-name="uni0432" unicode="&#x432;" horiz-adv-x="1261" 
d="M909 586q123 -25 185.5 -101.5t62.5 -177.5q0 -134 -99.5 -220.5t-275.5 -86.5h-585v1110h532q157 0 246.5 -81t89.5 -204q0 -73 -37.5 -137.5t-118.5 -101.5zM715 1008h-402v-390h410q117 0 171 57.5t54 139.5q0 87 -60 140t-173 53zM313 102h459q123 0 193.5 57
t70.5 154q0 93 -67.5 149t-186.5 56h-469v-416z" />
    <glyph glyph-name="uni0433" unicode="&#x433;" horiz-adv-x="1007" 
d="M958 1110v-106h-643v-1004h-118v1110h761z" />
    <glyph glyph-name="uni0434" unicode="&#x434;" horiz-adv-x="1413" 
d="M1163 1110v-1004h164v-409h-110v303h-1074v-303h-110v409h114q45 54 79 149.5t44 211.5q27 310 37 643h856zM283 106h761v898h-626q-11 -290 -33 -549q-19 -234 -102 -349z" />
    <glyph glyph-name="uni0435" unicode="&#x435;" horiz-adv-x="1341" 
d="M1243 559q0 -7 -4 -39h-1006q12 -195 144.5 -316.5t339.5 -121.5q123 0 220.5 41t158.5 108l78 -81q-69 -80 -187.5 -128.5t-273.5 -48.5q-268 0 -434 163t-166 417t160 419t407 165q166 0 295.5 -78t198.5 -209t69 -291zM680 1028q-176 0 -299 -112t-143 -298h882
q-12 174 -134 292t-306 118z" />
    <glyph glyph-name="uni0436" unicode="&#x436;" horiz-adv-x="1884" 
d="M1858 0h-144l-434 537h-279v-537h-118v537h-279l-434 -537h-143l479 598l-438 512h137l403 -467h275v467h118v-467h275l403 467h138l-439 -512z" />
    <glyph glyph-name="uni0437" unicode="&#x437;" horiz-adv-x="1112" 
d="M752 592q122 -31 185.5 -102t63.5 -177q0 -152 -127.5 -245t-338.5 -93q-134 0 -263 40.5t-211 115.5l74 88q155 -135 400 -135q165 0 255.5 61t90.5 170q0 102 -81 157.5t-229 55.5h-235v103h211q136 0 212.5 53t76.5 143q0 92 -80 145.5t-221 53.5q-100 0 -202 -34.5
t-167 -90.5l-66 86q75 69 192.5 108.5t242.5 39.5q189 0 304 -83.5t115 -220.5q0 -178 -202 -239z" />
    <glyph glyph-name="uni0438" unicode="&#x438;" horiz-adv-x="1380" 
d="M315 152l744 958h125v-1110h-119v954l-739 -954h-129v1110h118v-958z" />
    <glyph glyph-name="uni0439" unicode="&#x439;" horiz-adv-x="1380" 
d="M688 1249q-145 0 -238.5 91t-93.5 235h105q0 -102 65 -169t162 -67t162 67t65 169h105q0 -144 -93.5 -235t-238.5 -91zM315 152l744 958h125v-1110h-119v954l-739 -954h-129v1110h118v-958z" />
    <glyph glyph-name="uni043A" unicode="&#x43a;" horiz-adv-x="1247" 
d="M1241 0h-151l-469 537h-306v-537h-118v1110h118v-467h301l439 467h145l-483 -512z" />
    <glyph glyph-name="uni043B" unicode="&#x43b;" horiz-adv-x="1333" 
d="M1137 1110v-1110h-119v1004h-602q-12 -362 -43 -701q-13 -148 -87.5 -229.5t-193.5 -81.5q-31 0 -55 6v111q31 -5 51 -5q61 0 110.5 56t59.5 164q33 324 47 786h832z" />
    <glyph glyph-name="uni043C" unicode="&#x43c;" horiz-adv-x="1646" 
d="M1450 1110v-1110h-115v971l-473 -942h-84l-467 934v-963h-114v1110h159l467 -934l465 934h162z" />
    <glyph glyph-name="uni043D" unicode="&#x43d;" horiz-adv-x="1372" 
d="M1057 643v467h119v-1110h-119v537h-742v-537h-118v1110h118v-467h742z" />
    <glyph glyph-name="uni043E" unicode="&#x43e;" 
d="M694 -27q165 0 299 76.5t209.5 210t75.5 295.5t-75.5 295.5t-209.5 210t-299 76.5q-124 0 -232.5 -45t-185.5 -122.5t-121 -185.5t-44 -229t44 -229t121 -185.5t185.5 -122.5t232.5 -45zM694 1026q196 0 329.5 -135.5t133.5 -335.5t-133.5 -335.5t-329.5 -135.5
t-329.5 135.5t-133.5 335.5t133.5 335.5t329.5 135.5z" />
    <glyph glyph-name="uni043F" unicode="&#x43f;" horiz-adv-x="1355" 
d="M1159 1110v-1110h-119v1004h-725v-1004h-118v1110h962z" />
    <glyph glyph-name="uni0440" unicode="&#x440;" horiz-adv-x="1449" 
d="M780 1137q159 0 287.5 -76t200 -209t71.5 -297t-71.5 -297t-200 -209t-287.5 -76q-150 0 -273 68t-192 188v-598h-118v1479h114v-238q69 125 192.5 195t276.5 70zM768 82q198 0 324.5 134.5t126.5 338.5t-126.5 338.5t-324.5 134.5q-124 0 -228 -57.5t-167.5 -167
t-63.5 -248.5q0 -140 63.5 -249.5t167.5 -166.5t228 -57z" />
    <glyph glyph-name="uni0441" unicode="&#x441;" horiz-adv-x="1202" 
d="M721 -27q-132 0 -245.5 43.5t-193.5 120.5t-125.5 185t-45.5 233q0 253 173 417.5t439 164.5q241 0 395 -148l-76 -88q-131 125 -325 125q-134 0 -244.5 -59t-176 -167.5t-65.5 -244.5q0 -206 140.5 -338.5t347.5 -132.5q100 0 190 33t142 92l79 -82q-64 -74 -172.5 -114
t-236.5 -40z" />
    <glyph glyph-name="uni0442" unicode="&#x442;" horiz-adv-x="1036" 
d="M987 1110v-106h-409v-1004h-119v1004h-410v106h938z" />
    <glyph glyph-name="uni0443" unicode="&#x443;" horiz-adv-x="1224" 
d="M616 131l437 979h129l-584 -1268q-107 -231 -328 -231q-109 0 -211 45l41 104q84 -43 166 -43q156 0 236 174l53 115l-512 1104h133z" />
    <glyph glyph-name="uni0444" unicode="&#x444;" horiz-adv-x="1642" 
d="M1534 555q0 -170 -88 -301.5t-235.5 -202.5t-329.5 -78v-342h-119v342q-182 7 -329.5 78t-235.5 202.5t-88 301.5t88 301.5t235.5 202.5t329.5 78v403h119v-403q182 -7 329.5 -78t235.5 -202.5t88 -301.5zM229 555q0 -212 149.5 -337.5t383.5 -133.5v942
q-234 -8 -383.5 -133.5t-149.5 -337.5zM881 1026v-942q153 5 272.5 61t189.5 162t70 248t-70 248t-189.5 162t-272.5 61z" />
    <glyph glyph-name="uni0445" unicode="&#x445;" horiz-adv-x="1159" 
d="M653 571l475 -571h-151l-397 489l-404 -489h-147l479 565l-449 545h152l373 -459l368 459h148z" />
    <glyph glyph-name="uni0446" unicode="&#x446;" 
d="M1139 1110v-1004h164v-409h-111v303h-995v1110h118v-1004h705v1004h119z" />
    <glyph glyph-name="uni0447" unicode="&#x447;" horiz-adv-x="1234" 
d="M920 594v516h118v-1110h-118v492q-76 -26 -182 -44t-191 -18q-201 0 -322 97t-121 259v324h119v-311q0 -126 88 -194t248 -68q79 0 181 16t180 41z" />
    <glyph glyph-name="uni0448" unicode="&#x448;" horiz-adv-x="2011" 
d="M1696 106v1004h119v-1110h-1618v1110h118v-1004h631v1004h119v-1004h631z" />
    <glyph glyph-name="uni0449" unicode="&#x449;" horiz-adv-x="2064" 
d="M1815 1110v-1004h163v-409h-110v303h-1671v1110h118v-1004h631v1004h119v-1004h631v1004h119z" />
    <glyph glyph-name="uni044A" unicode="&#x44a;" horiz-adv-x="1402" 
d="M524 700h400q185 0 292 -98t107 -252t-107 -252t-292 -98h-518v1004h-357v106h475v-410zM524 106h398q133 0 206.5 66.5t73.5 177.5t-73.5 177.5t-206.5 66.5h-398v-488z" />
    <glyph glyph-name="uni044B" unicode="&#x44b;" horiz-adv-x="1638" 
d="M315 700h408q185 0 292 -98t107 -252t-107 -252t-292 -98h-526v1110h118v-410zM1337 0v1110h119v-1110h-119zM315 106h406q133 0 206.5 66.5t73.5 177.5t-73.5 177.5t-206.5 66.5h-406v-488z" />
    <glyph glyph-name="uni044C" unicode="&#x44c;" horiz-adv-x="1202" 
d="M315 700h408q185 0 292 -98t107 -252t-107 -252t-292 -98h-526v1110h118v-410zM315 106h406q133 0 206.5 66.5t73.5 177.5t-73.5 177.5t-206.5 66.5h-406v-488z" />
    <glyph glyph-name="uni044D" unicode="&#x44d;" horiz-adv-x="1208" 
d="M485 1137q175 0 315 -74.5t219 -207.5t79 -300t-78 -300t-217.5 -207.5t-315.5 -74.5q-128 0 -236.5 40t-172.5 114l80 82q52 -59 141.5 -92t189.5 -33q197 0 335.5 121.5t150.5 312.5h-633v103h631q-23 181 -158.5 293t-322.5 112q-195 0 -326 -125l-76 88
q154 148 395 148z" />
    <glyph glyph-name="uni044E" unicode="&#x44e;" horiz-adv-x="1863" 
d="M1178 1137q163 0 295 -76.5t206 -210t74 -295.5t-74 -295.5t-206 -210t-295 -76.5q-120 0 -226 43.5t-181.5 118.5t-120.5 179.5t-48 222.5h-287v-537h-118v1110h118v-467h293q30 216 188 355t382 139zM1178 84q192 0 323 135t131 336t-131 336t-323 135
q-193 0 -324 -135.5t-131 -335.5t131 -335.5t324 -135.5z" />
    <glyph glyph-name="uni044F" unicode="&#x44f;" horiz-adv-x="1255" 
d="M1059 1110v-1110h-117v444h-399l-314 -444h-133l322 451q-135 23 -213 111.5t-78 213.5q0 144 102.5 239t272.5 95h557zM516 549h426v455h-426q-124 0 -196 -63t-72 -165t71.5 -164.5t196.5 -62.5z" />
    <glyph glyph-name="uni0450" unicode="&#x450;" horiz-adv-x="1341" 
d="M545 1573l237 -320h-118l-256 303v17h137zM1243 559q0 -7 -4 -39h-1006q12 -195 144.5 -316.5t339.5 -121.5q123 0 220.5 41t158.5 108l78 -81q-69 -80 -187.5 -128.5t-273.5 -48.5q-268 0 -434 163t-166 417t160 419t407 165q166 0 295.5 -78t198.5 -209t69 -291z
M680 1028q-176 0 -299 -112t-143 -298h882q-12 174 -134 292t-306 118z" />
    <glyph glyph-name="uni0451" unicode="&#x451;" horiz-adv-x="1341" 
d="M463 1315q-38 0 -63 25t-25 63t25 63t63 25t63 -25t25 -63t-25 -63t-63 -25zM897 1315q-38 0 -63 25t-25 63t25 63t63 25t63 -25t25 -63t-25 -63t-63 -25zM1243 559q0 -7 -4 -39h-1006q12 -195 144.5 -316.5t339.5 -121.5q123 0 220.5 41t158.5 108l78 -81
q-69 -80 -187.5 -128.5t-273.5 -48.5q-268 0 -434 163t-166 417t160 419t407 165q166 0 295.5 -78t198.5 -209t69 -291zM680 1028q-176 0 -299 -112t-143 -298h882q-12 174 -134 292t-306 118z" />
    <glyph glyph-name="uni0452" unicode="&#x452;" horiz-adv-x="1341" 
d="M737 1133q243 0 350 -140t107 -446q0 -375 -140 -608t-401 -291l-30 110q217 52 333.5 257t116.5 532q0 244 -79 358.5t-271 114.5q-183 0 -295.5 -99t-112.5 -245v-676h-118v1276h-183v96h183v168h118v-168h441v-96h-441v-350q72 107 184 157t238 50z" />
    <glyph glyph-name="uni0453" unicode="&#x453;" horiz-adv-x="1007" 
d="M836 1575v-14l-275 -310h-121l256 324h140zM958 1110v-106h-643v-1004h-118v1110h761z" />
    <glyph glyph-name="uni0454" unicode="&#x454;" horiz-adv-x="1208" 
d="M1051 209l79 -82q-64 -74 -172.5 -114t-236.5 -40q-132 0 -245.5 43.5t-193.5 120.5t-125.5 185t-45.5 233q0 253 173 417.5t439 164.5q241 0 395 -148l-76 -88q-131 125 -325 125q-187 0 -322.5 -112t-158.5 -293h630v-103h-633q12 -191 150.5 -312.5t335.5 -121.5
q100 0 190 33t142 92z" />
    <glyph glyph-name="uni0455" unicode="&#x455;" horiz-adv-x="1175" 
d="M100 145l70 93q75 -63 194.5 -107.5t249.5 -44.5q149 0 241.5 59.5t92.5 157.5q0 74 -57.5 119t-173.5 67l-273 52q-162 31 -236.5 102.5t-74.5 171.5q0 137 122.5 227.5t336.5 90.5q273 0 448 -146l-67 -90q-73 62 -178 95.5t-213 33.5q-146 0 -238 -58.5t-92 -148.5
q0 -64 58.5 -104.5t187.5 -65.5l262 -51q166 -33 236.5 -110t70.5 -179q0 -147 -126 -238t-331 -91q-142 0 -281.5 44t-228.5 121z" />
    <glyph glyph-name="uni0456" unicode="&#x456;" horiz-adv-x="512" 
d="M256 1491q38 0 63 -25t25 -63t-25 -63t-63 -25t-63 25t-25 63t25 63t63 25zM315 0h-118v1110h118v-1110z" />
    <glyph glyph-name="uni0457" unicode="&#x457;" horiz-adv-x="512" 
d="M76 1315q-38 0 -63 25t-25 63t25 63t63 25t63 -25t25 -63t-25 -63t-63 -25zM436 1315q-38 0 -63 25t-25 63t25 63t63 25t63 -25t25 -63t-25 -63t-63 -25zM315 0h-118v1110h118v-1110z" />
    <glyph glyph-name="uni0458" unicode="&#x458;" horiz-adv-x="528" 
d="M272 1491q38 0 63 -25t25 -63t-25 -63t-63 -25t-63 25t-25 63t25 63t63 25zM63 -383q-65 0 -118 21v104q46 -18 104 -18q77 0 120.5 42t43.5 115v1229h119v-1235q0 -118 -73 -188t-196 -70z" />
    <glyph glyph-name="uni0459" unicode="&#x459;" horiz-adv-x="1925" 
d="M1075 700h371q185 0 292 -98t107 -252t-107 -252t-292 -98h-490v1004h-540q-12 -362 -43 -701q-13 -148 -87.5 -229.5t-193.5 -81.5q-31 0 -55 6v111q31 -5 51 -5q61 0 110.5 56t59.5 164q33 324 47 786h770v-410zM1075 106h369q133 0 206.5 66.5t73.5 177.5t-73.5 177.5
t-206.5 66.5h-369v-488z" />
    <glyph glyph-name="uni045A" unicode="&#x45a;" horiz-adv-x="1961" 
d="M1114 664h391q176 0 277.5 -93t101.5 -239t-101.5 -239t-277.5 -93h-510v557h-680v-557h-118v1110h118v-446h680v446h119v-446zM1114 106h389q124 0 192 61.5t68 164.5t-68 164t-192 61h-389v-451z" />
    <glyph glyph-name="uni045B" unicode="&#x45b;" horiz-adv-x="1363" 
d="M737 1133q206 0 326.5 -112.5t120.5 -303.5v-717h-119v698q0 151 -89.5 236.5t-252.5 85.5q-183 0 -295.5 -99t-112.5 -245v-676h-118v1276h-183v96h183v168h118v-168h441v-96h-441v-350q72 107 184 157t238 50z" />
    <glyph glyph-name="uni045C" unicode="&#x45c;" horiz-adv-x="1247" 
d="M903 1575v-14l-274 -310h-121l256 324h139zM1241 0h-151l-469 537h-306v-537h-118v1110h118v-467h301l439 467h145l-483 -512z" />
    <glyph glyph-name="uni045D" unicode="&#x45d;" horiz-adv-x="1380" 
d="M553 1573l238 -320h-119l-256 303v17h137zM315 152l744 958h125v-1110h-119v954l-739 -954h-129v1110h118v-958z" />
    <glyph glyph-name="uni045E" unicode="&#x45e;" horiz-adv-x="1224" 
d="M612 1249q-145 0 -238 91t-93 235h104q0 -102 65 -169t162 -67t162.5 67t65.5 169h104q0 -144 -93.5 -235t-238.5 -91zM616 131l437 979h129l-584 -1268q-107 -231 -328 -231q-109 0 -211 45l41 104q84 -43 166 -43q156 0 236 174l53 115l-512 1104h133z" />
    <glyph glyph-name="uni045F" unicode="&#x45f;" horiz-adv-x="1343" 
d="M1028 106v1004h119v-1110h-420v-303h-111v303h-419v1110h118v-1004h713z" />
    <glyph glyph-name="uni0490" unicode="&#x490;" horiz-adv-x="1312" 
d="M1124 1475v327h115v-438h-899v-1364h-123v1475h907z" />
    <glyph glyph-name="uni0491" unicode="&#x491;" horiz-adv-x="1007" 
d="M848 1110v303h110v-409h-643v-1004h-118v1110h651z" />
    <glyph glyph-name="uni058F" unicode="&#x58f;" horiz-adv-x="1517" 
d="M1415 784v-98h-241v-213h241v-98h-241v-375h-121v375h-512v98h512v213h-512v98h512v244q0 160 -118 262.5t-302 102.5q-182 0 -301 -103t-119 -262v-242h-119v242q0 206 152.5 339.5t386.5 133.5q238 0 389.5 -133t151.5 -340v-244h241z" />
    <glyph glyph-name="uni0E3F" unicode="&#xe3f;" horiz-adv-x="1570" 
d="M1120 774q163 -33 246.5 -133t83.5 -238q0 -174 -127 -288.5t-352 -114.5h-137v-258h-111v258h-502v1475h502v200h111v-200h67q202 0 316 -106t114 -267q0 -104 -52 -192.5t-159 -135.5zM723 809v557h-381v-557h381zM887 1366h-53v-557h63q87 0 151 25t97.5 67.5t49 89.5
t15.5 99q0 125 -82.5 200.5t-240.5 75.5zM342 702v-593h381v593h-381zM834 109h127q169 0 267.5 81t98.5 220q0 134 -94.5 213t-259.5 79h-139v-593z" />
    <glyph glyph-name="uni1E08" unicode="&#x1e08;" horiz-adv-x="1536" 
d="M1153 1939v-14l-274 -309h-121l256 323h139zM928 -27h-21l-69 -77q33 10 73 10q100 0 164 -45.5t64 -118.5q0 -82 -75 -130t-202 -48q-88 0 -164.5 22.5t-126.5 55.5l47 71q109 -67 244 -67q80 0 124 25t44 67t-40.5 67t-110.5 25q-73 0 -136 -29l-41 31l111 148
q-150 18 -278 82.5t-218.5 162.5t-142 230t-51.5 280q0 217 105 393t286 274.5t401 98.5q158 0 300 -49.5t231 -140.5l-82 -88q-81 78 -202 122t-251 44q-178 0 -329 -83.5t-241.5 -234.5t-90.5 -336q0 -184 89.5 -333t243.5 -232.5t341 -83.5q130 0 251 41t199 121l86 -86
q-95 -96 -236 -142.5t-296 -46.5z" />
    <glyph glyph-name="uni1E09" unicode="&#x1e09;" horiz-adv-x="1202" 
d="M952 1575v-14l-274 -310h-121l256 324h139zM721 -27h-12l-70 -77q33 10 74 10q100 0 163.5 -45.5t63.5 -118.5q0 -82 -74.5 -130t-201.5 -48q-88 0 -164.5 22.5t-126.5 55.5l47 71q109 -67 244 -67q80 0 123.5 25t43.5 67t-40.5 67t-110.5 25q-72 0 -135 -29l-41 31
l110 150q-225 32 -364 189.5t-139 383.5q0 253 173 417.5t439 164.5q241 0 395 -148l-76 -88q-131 125 -325 125q-134 0 -244.5 -59t-176 -167.5t-65.5 -244.5q0 -206 140.5 -338.5t347.5 -132.5q100 0 190 33t142 92l79 -82q-64 -74 -172.5 -114t-236.5 -40z" />
    <glyph glyph-name="uni1E0C" unicode="&#x1e0c;" horiz-adv-x="1662" 
d="M772 1475q230 0 404 -93t267 -260t93 -385q0 -163 -54 -299.5t-152.5 -233t-241.5 -150.5t-316 -54h-555v1475h555zM340 111h428q293 0 467 171.5t174 454.5t-174 455t-467 172h-428v-1253zM831 -195q38 0 63.5 -25t25.5 -63t-25.5 -63t-63.5 -25t-63 25t-25 63t25 63
t63 25z" />
    <glyph glyph-name="uni1E0D" unicode="&#x1e0d;" horiz-adv-x="1449" 
d="M1135 879v661h118v-1540h-114v238q-69 -125 -192.5 -195t-276.5 -70q-159 0 -287.5 76t-200 209t-71.5 297t71.5 297t200 209t287.5 76q151 0 273.5 -68t191.5 -190zM682 82q124 0 228 57t167.5 166.5t63.5 249.5q0 139 -63.5 248.5t-167.5 167t-228 57.5
q-198 0 -324.5 -134.5t-126.5 -338.5t126.5 -338.5t324.5 -134.5zM719 -195q38 0 63 -25t25 -63t-25 -63t-63 -25t-63 25t-25 63t25 63t63 25z" />
    <glyph glyph-name="uni1E0E" unicode="&#x1e0e;" horiz-adv-x="1662" 
d="M772 1475q230 0 404 -93t267 -260t93 -385q0 -163 -54 -299.5t-152.5 -233t-241.5 -150.5t-316 -54h-555v1475h555zM340 111h428q293 0 467 171.5t174 454.5t-174 455t-467 172h-428v-1253zM1145 -340h-623v98h623v-98z" />
    <glyph glyph-name="uni1E0F" unicode="&#x1e0f;" horiz-adv-x="1449" 
d="M1135 879v661h118v-1540h-114v238q-69 -125 -192.5 -195t-276.5 -70q-159 0 -287.5 76t-200 209t-71.5 297t71.5 297t200 209t287.5 76q151 0 273.5 -68t191.5 -190zM682 82q124 0 228 57t167.5 166.5t63.5 249.5q0 139 -63.5 248.5t-167.5 167t-228 57.5
q-198 0 -324.5 -134.5t-126.5 -338.5t126.5 -338.5t324.5 -134.5zM1032 -340h-622v98h622v-98z" />
    <glyph glyph-name="uni1E14" unicode="&#x1e14;" horiz-adv-x="1415" 
d="M627 2249l237 -320h-119l-256 303v17h138zM451 1786h622v-98h-622v98zM340 111h971l32 -111h-1126v1475h1106l-33 -111h-950v-530h651v-111h-651v-612z" />
    <glyph glyph-name="uni1E15" unicode="&#x1e15;" horiz-adv-x="1341" 
d="M545 1884l237 -319h-118l-256 303v16h137zM369 1421h622v-98h-622v98zM1243 559q0 -7 -4 -39h-1006q12 -195 144.5 -316.5t339.5 -121.5q123 0 220.5 41t158.5 108l78 -81q-69 -80 -187.5 -128.5t-273.5 -48.5q-268 0 -434 163t-166 417t160 419t407 165q166 0 295.5 -78
t198.5 -209t69 -291zM680 1028q-176 0 -299 -112t-143 -298h882q-12 174 -134 292t-306 118z" />
    <glyph glyph-name="uni1E16" unicode="&#x1e16;" horiz-adv-x="1415" 
d="M1040 2251v-15l-274 -309h-121l256 324h139zM451 1786h622v-98h-622v98zM340 111h971l32 -111h-1126v1475h1106l-33 -111h-950v-530h651v-111h-651v-612z" />
    <glyph glyph-name="uni1E17" unicode="&#x1e17;" horiz-adv-x="1341" 
d="M958 1886v-14l-274 -309h-121l256 323h139zM369 1421h622v-98h-622v98zM1243 559q0 -7 -4 -39h-1006q12 -195 144.5 -316.5t339.5 -121.5q123 0 220.5 41t158.5 108l78 -81q-69 -80 -187.5 -128.5t-273.5 -48.5q-268 0 -434 163t-166 417t160 419t407 165
q166 0 295.5 -78t198.5 -209t69 -291zM680 1028q-176 0 -299 -112t-143 -298h882q-12 174 -134 292t-306 118z" />
    <glyph glyph-name="uni1E1C" unicode="&#x1e1c;" horiz-adv-x="1415" 
d="M762 1614q-139 0 -229.5 90.5t-90.5 234.5h95q1 -100 65 -163.5t160 -63.5t160 63.5t65 163.5h94q0 -144 -90 -234.5t-229 -90.5zM799 -94q100 0 163.5 -45.5t63.5 -118.5q0 -82 -74.5 -130t-201.5 -48q-88 0 -164.5 22.5t-126.5 55.5l47 71q109 -67 244 -67q80 0 124 25
t44 67t-41 67t-111 25q-72 0 -135 -29l-41 31l125 168h-498v1475h1106l-33 -111h-950v-530h651v-111h-651v-612h971l32 -111h-524l-94 -104q33 10 74 10z" />
    <glyph glyph-name="uni1E1D" unicode="&#x1e1d;" horiz-adv-x="1341" 
d="M680 1249q-139 0 -229.5 91t-90.5 235h95q1 -100 65 -163.5t160 -63.5t160 63.5t65 163.5h94q0 -144 -90 -235t-229 -91zM1243 559q0 -7 -4 -39h-1006q12 -195 144.5 -316.5t339.5 -121.5q123 0 220.5 41t158.5 108l78 -81q-69 -80 -187.5 -128.5t-273.5 -48.5l-70 -77
q33 10 74 10q100 0 163.5 -45.5t63.5 -118.5q0 -82 -74.5 -130t-201.5 -48q-88 0 -164.5 22.5t-126.5 55.5l47 71q109 -67 244 -67q80 0 124 25t44 67t-41 67t-111 25q-72 0 -135 -29l-41 31l108 148q-228 29 -365.5 186.5t-137.5 386.5q0 254 160 419t407 165
q166 0 295.5 -78t198.5 -209t69 -291zM680 1028q-176 0 -299 -112t-143 -298h882q-12 174 -134 292t-306 118z" />
    <glyph glyph-name="uni1E20" unicode="&#x1e20;" horiz-adv-x="1671" 
d="M580 1786h622v-98h-622v98zM1528 797v-641q-102 -94 -254.5 -138.5t-315.5 -44.5q-187 0 -343.5 57.5t-264 158.5t-167.5 241.5t-60 304.5q0 219 103 394t288 273.5t418 98.5q172 0 313 -52t225 -132l-77 -90q-73 68 -196 115t-271 47q-192 0 -346.5 -83t-242 -232.5
t-87.5 -338.5q0 -286 195 -467.5t518 -181.5q273 0 444 125v477h-502v109h623z" />
    <glyph glyph-name="uni1E21" unicode="&#x1e21;" horiz-adv-x="1419" 
d="M389 1421h623v-98h-623v98zM1114 895v215h115v-1010q0 -223 -152.5 -354t-408.5 -131q-268 0 -453 109l53 102q170 -102 400 -102q202 0 322 101.5t120 280.5v166q-70 -110 -188.5 -171.5t-259.5 -61.5q-152 0 -278 73t-197.5 199t-71.5 277q0 113 42.5 214.5t115 175
t174 116.5t215.5 43q145 0 264 -64t188 -178zM668 147q124 0 226 52.5t164 154.5t62 234q0 197 -131 318.5t-321 121.5q-181 0 -306.5 -127.5t-125.5 -312.5q0 -187 125.5 -314t306.5 -127z" />
    <glyph glyph-name="uni1E24" unicode="&#x1e24;" horiz-adv-x="1720" 
d="M1380 840v635h123v-1475h-123v729h-1040v-729h-123v1475h123v-635h1040zM858 -195q38 0 63 -25t25 -63t-25 -63t-63 -25t-63 25t-25 63t25 63t63 25z" />
    <glyph glyph-name="uni1E25" unicode="&#x1e25;" horiz-adv-x="1366" 
d="M743 1137q203 0 323 -113t120 -305v-719h-119v700q0 153 -89.5 239.5t-254.5 86.5q-181 0 -294.5 -100.5t-113.5 -245.5v-680h-118v1540h118v-610q73 107 185 157t243 50zM684 -195q38 0 63 -25t25 -63t-25 -63t-63 -25t-63 25t-25 63t25 63t63 25z" />
    <glyph glyph-name="uni1E2A" unicode="&#x1e2a;" horiz-adv-x="1720" 
d="M1380 840v635h123v-1475h-123v729h-1040v-729h-123v1475h123v-635h1040zM860 -338q96 0 160 63.5t65 163.5h95q0 -144 -90.5 -234.5t-229.5 -90.5t-229 90.5t-90 234.5h94q1 -100 65 -163.5t160 -63.5z" />
    <glyph glyph-name="uni1E2B" unicode="&#x1e2b;" horiz-adv-x="1366" 
d="M743 1137q203 0 323 -113t120 -305v-719h-119v700q0 153 -89.5 239.5t-254.5 86.5q-181 0 -294.5 -100.5t-113.5 -245.5v-680h-118v1540h118v-610q73 107 185 157t243 50zM686 -338q96 0 160 63.5t65 163.5h95q0 -144 -90.5 -234.5t-229.5 -90.5t-229 90.5t-90 234.5h94
q1 -100 65 -163.5t160 -63.5z" />
    <glyph glyph-name="uni1E2E" unicode="&#x1e2e;" horiz-adv-x="557" 
d="M557 2308v-14l-274 -309h-121l256 323h139zM98 1679q-38 0 -63 25t-25 63t25 63t63 25t63 -25t25 -63t-25 -63t-63 -25zM459 1679q-38 0 -63 25t-25 63t25 63t63 25t63 -25t25 -63t-25 -63t-63 -25zM217 0v1475h123v-1475h-123z" />
    <glyph glyph-name="uni1E2F" unicode="&#x1e2f;" horiz-adv-x="512" 
d="M535 1944v-15l-275 -309h-121l256 324h140zM76 1315q-38 0 -63 25t-25 63t25 63t63 25t63 -25t25 -63t-25 -63t-63 -25zM436 1315q-38 0 -63 25t-25 63t25 63t63 25t63 -25t25 -63t-25 -63t-63 -25zM315 0h-118v1110h118v-1110z" />
    <glyph glyph-name="uni1E36" unicode="&#x1e36;" horiz-adv-x="1353" 
d="M340 1475v-1364h940v-111h-1063v1475h123zM743 -195q38 0 63 -25t25 -63t-25 -63t-63 -25t-63 25t-25 63t25 63t63 25z" />
    <glyph glyph-name="uni1E37" unicode="&#x1e37;" horiz-adv-x="579" 
d="M201 199v1341h118v-1331q0 -58 32.5 -87.5t88.5 -29.5q46 0 84 14v-104q-43 -16 -92 -16q-109 0 -170 55.5t-61 157.5zM344 -195q38 0 63 -25t25 -63t-25 -63t-63 -25t-63 25t-25 63t25 63t63 25z" />
    <glyph glyph-name="uni1E3A" unicode="&#x1e3a;" horiz-adv-x="1353" 
d="M340 1475v-1364h940v-111h-1063v1475h123zM1057 -340h-623v98h623v-98z" />
    <glyph glyph-name="uni1E3B" unicode="&#x1e3b;" horiz-adv-x="579" 
d="M201 199v1341h118v-1331q0 -58 32.5 -87.5t88.5 -29.5q46 0 84 14v-104q-43 -16 -92 -16q-109 0 -170 55.5t-61 157.5zM627 -340h-559v98h559v-98z" />
    <glyph glyph-name="uni1E42" unicode="&#x1e42;" horiz-adv-x="2023" 
d="M1806 1475v-1475h-118v1329l-635 -1292h-90l-627 1278v-1315h-119v1475h166l627 -1280l628 1280h168zM1010 -195q38 0 63 -25t25 -63t-25 -63t-63 -25t-63 25t-25 63t25 63t63 25z" />
    <glyph glyph-name="uni1E43" unicode="&#x1e43;" horiz-adv-x="2125" 
d="M1524 1137q189 0 305.5 -113.5t116.5 -304.5v-719h-119v700q0 150 -85.5 238t-230.5 88q-163 0 -272 -101.5t-109 -244.5v-680h-118v700q0 150 -85.5 238t-230.5 88q-163 0 -272 -101.5t-109 -244.5v-680h-118v1110h114v-186q70 109 179.5 161t222.5 52q137 0 238 -63.5
t147 -176.5q48 83 124 139t151 78.5t151 22.5zM1069 -195q38 0 63 -25t25 -63t-25 -63t-63 -25t-63 25t-25 63t25 63t63 25z" />
    <glyph glyph-name="uni1E44" unicode="&#x1e44;" horiz-adv-x="1687" 
d="M848 1679q-38 0 -63 25t-25 63t25 63t63 25t63 -25t25 -63t-25 -63t-63 -25zM1352 168v1307h118v-1475h-135l-999 1309v-1309h-119v1475h137z" />
    <glyph glyph-name="uni1E45" unicode="&#x1e45;" horiz-adv-x="1361" 
d="M694 1315q-38 0 -63 25t-25 63t25 63t63 25t63 -25t25 -63t-25 -63t-63 -25zM741 1137q201 0 321 -113t120 -305v-719h-119v700q0 153 -89 239.5t-253 86.5q-180 0 -293 -100.5t-113 -245.5v-680h-118v1110h114v-186q71 110 184.5 161.5t245.5 51.5z" />
    <glyph glyph-name="uni1E46" unicode="&#x1e46;" horiz-adv-x="1687" 
d="M1352 168v1307h118v-1475h-135l-999 1309v-1309h-119v1475h137zM846 -195q38 0 63 -25t25 -63t-25 -63t-63 -25t-63 25t-25 63t25 63t63 25z" />
    <glyph glyph-name="uni1E47" unicode="&#x1e47;" horiz-adv-x="1361" 
d="M741 1137q201 0 321 -113t120 -305v-719h-119v700q0 153 -89 239.5t-253 86.5q-180 0 -293 -100.5t-113 -245.5v-680h-118v1110h114v-186q71 110 184.5 161.5t245.5 51.5zM692 -195q38 0 63 -25t25 -63t-25 -63t-63 -25t-63 25t-25 63t25 63t63 25z" />
    <glyph glyph-name="uni1E48" unicode="&#x1e48;" horiz-adv-x="1687" 
d="M1352 168v1307h118v-1475h-135l-999 1309v-1309h-119v1475h137zM1159 -340h-622v98h622v-98z" />
    <glyph glyph-name="uni1E49" unicode="&#x1e49;" horiz-adv-x="1361" 
d="M741 1137q201 0 321 -113t120 -305v-719h-119v700q0 153 -89 239.5t-253 86.5q-180 0 -293 -100.5t-113 -245.5v-680h-118v1110h114v-186q71 110 184.5 161.5t245.5 51.5zM1006 -340h-623v98h623v-98z" />
    <glyph glyph-name="uni1E4C" unicode="&#x1e4c;" horiz-adv-x="1773" 
d="M1165 2351v-14l-274 -309h-121l256 323h139zM1053 1636q-46 0 -88 19t-72 46t-58 54.5t-58.5 46.5t-61.5 19q-54 0 -86 -48.5t-35 -130.5h-98q3 125 61.5 201t159.5 76q47 0 89 -19t72 -46.5t57.5 -55t58 -46.5t61.5 -19q54 0 86 48t35 130h98q-3 -125 -61.5 -200
t-159.5 -75zM887 -27q-163 0 -305 57.5t-242 158.5t-157.5 243t-57.5 305t57.5 305t157.5 243t242 158.5t305 57.5t305 -57.5t242 -158.5t157.5 -243t57.5 -305t-57.5 -305t-157.5 -243t-242 -158.5t-305 -57.5zM887 86q182 0 327 83t226.5 232t81.5 336t-81.5 336
t-226.5 232.5t-327 83.5t-327 -83.5t-226.5 -232.5t-81.5 -336t81.5 -336t226.5 -232t327 -83z" />
    <glyph glyph-name="uni1E4D" unicode="&#x1e4d;" 
d="M973 1987v-15l-275 -309h-120l256 324h139zM860 1272q-46 0 -88 19t-72 46t-58 54t-58.5 46t-61.5 19q-54 0 -86 -48t-35 -130h-98q3 125 61.5 200.5t159.5 75.5q47 0 89 -19t72 -46.5t57.5 -55t58 -46.5t61.5 -19q54 0 86 48t35 130h98q-3 -125 -61.5 -199.5
t-159.5 -74.5zM694 -27q165 0 299 76.5t209.5 210t75.5 295.5t-75.5 295.5t-209.5 210t-299 76.5q-124 0 -232.5 -45t-185.5 -122.5t-121 -185.5t-44 -229t44 -229t121 -185.5t185.5 -122.5t232.5 -45zM694 1026q196 0 329.5 -135.5t133.5 -335.5t-133.5 -335.5
t-329.5 -135.5t-329.5 135.5t-133.5 335.5t133.5 335.5t329.5 135.5z" />
    <glyph glyph-name="uni1E4E" unicode="&#x1e4e;" horiz-adv-x="1773" 
d="M670 2091q-38 0 -63 25t-25 63t25 63t63 25t63 -25t25 -63t-25 -63t-63 -25zM1104 2091q-38 0 -63 25t-25 63t25 63t63 25t63 -25t25 -63t-25 -63t-63 -25zM1053 1636q-46 0 -88 19t-72 46t-58 54.5t-58.5 46.5t-61.5 19q-54 0 -86 -48.5t-35 -130.5h-98q3 125 61.5 201
t159.5 76q47 0 89 -19t72 -46.5t57.5 -55t58 -46.5t61.5 -19q54 0 86 48t35 130h98q-3 -125 -61.5 -200t-159.5 -75zM887 -27q-163 0 -305 57.5t-242 158.5t-157.5 243t-57.5 305t57.5 305t157.5 243t242 158.5t305 57.5t305 -57.5t242 -158.5t157.5 -243t57.5 -305
t-57.5 -305t-157.5 -243t-242 -158.5t-305 -57.5zM887 86q182 0 327 83t226.5 232t81.5 336t-81.5 336t-226.5 232.5t-327 83.5t-327 -83.5t-226.5 -232.5t-81.5 -336t81.5 -336t226.5 -232t327 -83z" />
    <glyph glyph-name="uni1E4F" unicode="&#x1e4f;" 
d="M477 1726q-38 0 -63 25.5t-25 63.5t25 63t63 25t63 -25t25 -63t-25 -63.5t-63 -25.5zM911 1726q-38 0 -63 25.5t-25 63.5t25 63t63 25t63 -25t25 -63t-25 -63.5t-63 -25.5zM860 1272q-46 0 -88 19t-72 46t-58 54t-58.5 46t-61.5 19q-54 0 -86 -48t-35 -130h-98
q3 125 61.5 200.5t159.5 75.5q47 0 89 -19t72 -46.5t57.5 -55t58 -46.5t61.5 -19q54 0 86 48t35 130h98q-3 -125 -61.5 -199.5t-159.5 -74.5zM694 -27q165 0 299 76.5t209.5 210t75.5 295.5t-75.5 295.5t-209.5 210t-299 76.5q-124 0 -232.5 -45t-185.5 -122.5t-121 -185.5
t-44 -229t44 -229t121 -185.5t185.5 -122.5t232.5 -45zM694 1026q196 0 329.5 -135.5t133.5 -335.5t-133.5 -335.5t-329.5 -135.5t-329.5 135.5t-133.5 335.5t133.5 335.5t329.5 135.5z" />
    <glyph glyph-name="uni1E50" unicode="&#x1e50;" horiz-adv-x="1773" 
d="M614 2232v17h138l237 -320h-119zM1198 1688h-623v98h623v-98zM887 -27q-163 0 -305 57.5t-242 158.5t-157.5 243t-57.5 305t57.5 305t157.5 243t242 158.5t305 57.5t305 -57.5t242 -158.5t157.5 -243t57.5 -305t-57.5 -305t-157.5 -243t-242 -158.5t-305 -57.5zM887 86
q182 0 327 83t226.5 232t81.5 336t-81.5 336t-226.5 232.5t-327 83.5t-327 -83.5t-226.5 -232.5t-81.5 -336t81.5 -336t226.5 -232t327 -83z" />
    <glyph glyph-name="uni1E51" unicode="&#x1e51;" 
d="M422 1868v16h137l238 -319h-119zM1006 1323h-623v98h623v-98zM694 -27q165 0 299 76.5t209.5 210t75.5 295.5t-75.5 295.5t-209.5 210t-299 76.5q-124 0 -232.5 -45t-185.5 -122.5t-121 -185.5t-44 -229t44 -229t121 -185.5t185.5 -122.5t232.5 -45zM694 1026
q196 0 329.5 -135.5t133.5 -335.5t-133.5 -335.5t-329.5 -135.5t-329.5 135.5t-133.5 335.5t133.5 335.5t329.5 135.5z" />
    <glyph glyph-name="uni1E52" unicode="&#x1e52;" horiz-adv-x="1773" 
d="M1165 2251v-15l-274 -309h-121l256 324h139zM1198 1688h-623v98h623v-98zM887 -27q-163 0 -305 57.5t-242 158.5t-157.5 243t-57.5 305t57.5 305t157.5 243t242 158.5t305 57.5t305 -57.5t242 -158.5t157.5 -243t57.5 -305t-57.5 -305t-157.5 -243t-242 -158.5
t-305 -57.5zM887 86q182 0 327 83t226.5 232t81.5 336t-81.5 336t-226.5 232.5t-327 83.5t-327 -83.5t-226.5 -232.5t-81.5 -336t81.5 -336t226.5 -232t327 -83z" />
    <glyph glyph-name="uni1E53" unicode="&#x1e53;" 
d="M973 1886v-14l-275 -309h-120l256 323h139zM1006 1323h-623v98h623v-98zM694 -27q165 0 299 76.5t209.5 210t75.5 295.5t-75.5 295.5t-209.5 210t-299 76.5q-124 0 -232.5 -45t-185.5 -122.5t-121 -185.5t-44 -229t44 -229t121 -185.5t185.5 -122.5t232.5 -45zM694 1026
q196 0 329.5 -135.5t133.5 -335.5t-133.5 -335.5t-329.5 -135.5t-329.5 135.5t-133.5 335.5t133.5 335.5t329.5 135.5z" />
    <glyph glyph-name="uni1E5A" unicode="&#x1e5a;" horiz-adv-x="1562" 
d="M1008 670l471 -670h-146l-461 668h-534v-668h-121v1475h735q205 0 328 -114t123 -290q0 -163 -107.5 -273.5t-287.5 -127.5zM940 1364h-602v-588h602q157 0 247.5 81.5t90.5 211.5q0 132 -90.5 213.5t-247.5 81.5zM770 -195q38 0 63 -25t25 -63t-25 -63t-63 -25t-63 25
t-25 63t25 63t63 25z" />
    <glyph glyph-name="uni1E5B" unicode="&#x1e5b;" horiz-adv-x="847" 
d="M700 1126q63 0 115 -14v-113q-59 15 -113 15q-166 0 -276.5 -102.5t-110.5 -260.5v-651h-118v1110h114v-207q42 77 110.5 129t138 73t140.5 21zM254 -195q38 0 63 -25t25 -63t-25 -63t-63 -25t-63 25t-25 63t25 63t63 25z" />
    <glyph glyph-name="uni1E5E" unicode="&#x1e5e;" horiz-adv-x="1562" 
d="M1008 670l471 -670h-146l-461 668h-534v-668h-121v1475h735q205 0 328 -114t123 -290q0 -163 -107.5 -273.5t-287.5 -127.5zM940 1364h-602v-588h602q157 0 247.5 81.5t90.5 211.5q0 132 -90.5 213.5t-247.5 81.5zM1083 -340h-622v98h622v-98z" />
    <glyph glyph-name="uni1E5F" unicode="&#x1e5f;" horiz-adv-x="847" 
d="M700 1126q63 0 115 -14v-113q-59 15 -113 15q-166 0 -276.5 -102.5t-110.5 -260.5v-651h-118v1110h114v-207q42 77 110.5 129t138 73t140.5 21zM537 -340h-560v98h560v-98z" />
    <glyph glyph-name="uni1E60" unicode="&#x1e60;" horiz-adv-x="1419" 
d="M711 1855q38 0 63 -25t25 -63t-25 -63t-63 -25t-63 25t-25 63t25 63t63 25zM745 -20q-186 0 -349 55t-281 155l82 97q111 -96 251.5 -145.5t292.5 -49.5q182 0 307.5 85t125.5 222q0 221 -328 285l-305 59q-387 76 -387 353q0 120 75.5 212.5t204 141.5t287.5 49
q336 0 536 -186l-75 -90q-186 166 -463 166q-189 0 -316 -80.5t-127 -206.5q0 -93 76.5 -152.5t241.5 -93.5l297 -59q200 -39 302.5 -140t102.5 -251q0 -189 -154 -307.5t-397 -118.5z" />
    <glyph glyph-name="uni1E61" unicode="&#x1e61;" horiz-adv-x="1175" 
d="M600 1491q38 0 63 -25t25 -63t-25 -63t-63 -25t-63 25t-25 63t25 63t63 25zM100 145l70 93q75 -63 194.5 -107.5t249.5 -44.5q149 0 241.5 59.5t92.5 157.5q0 74 -57.5 119t-173.5 67l-273 52q-162 31 -236.5 102.5t-74.5 171.5q0 137 122.5 227.5t336.5 90.5
q273 0 448 -146l-67 -90q-73 62 -178 95.5t-213 33.5q-146 0 -238 -58.5t-92 -148.5q0 -64 58.5 -104.5t187.5 -65.5l262 -51q166 -33 236.5 -110t70.5 -179q0 -147 -126 -238t-331 -91q-142 0 -281.5 44t-228.5 121z" />
    <glyph glyph-name="uni1E62" unicode="&#x1e62;" horiz-adv-x="1419" 
d="M745 -20q-186 0 -349 55t-281 155l82 97q111 -96 251.5 -145.5t292.5 -49.5q182 0 307.5 85t125.5 222q0 221 -328 285l-305 59q-387 76 -387 353q0 120 75.5 212.5t204 141.5t287.5 49q336 0 536 -186l-75 -90q-186 166 -463 166q-189 0 -316 -80.5t-127 -206.5
q0 -93 76.5 -152.5t241.5 -93.5l297 -59q200 -39 302.5 -140t102.5 -251q0 -189 -154 -307.5t-397 -118.5zM709 -195q38 0 63 -25t25 -63t-25 -63t-63 -25t-63 25t-25 63t25 63t63 25z" />
    <glyph glyph-name="uni1E63" unicode="&#x1e63;" horiz-adv-x="1175" 
d="M100 145l70 93q75 -63 194.5 -107.5t249.5 -44.5q149 0 241.5 59.5t92.5 157.5q0 74 -57.5 119t-173.5 67l-273 52q-162 31 -236.5 102.5t-74.5 171.5q0 137 122.5 227.5t336.5 90.5q273 0 448 -146l-67 -90q-73 62 -178 95.5t-213 33.5q-146 0 -238 -58.5t-92 -148.5
q0 -64 58.5 -104.5t187.5 -65.5l262 -51q166 -33 236.5 -110t70.5 -179q0 -147 -126 -238t-331 -91q-142 0 -281.5 44t-228.5 121zM598 -195q38 0 63 -25t25 -63t-25 -63t-63 -25t-63 25t-25 63t25 63t63 25z" />
    <glyph glyph-name="uni1E64" unicode="&#x1e64;" horiz-adv-x="1419" 
d="M559 2066q38 0 63 -25t25 -63t-25 -63t-63 -25t-63 25t-25 63t25 63t63 25zM1040 1939v-14l-274 -309h-121l256 323h139zM745 -20q-186 0 -349 55t-281 155l82 97q111 -96 251.5 -145.5t292.5 -49.5q182 0 307.5 85t125.5 222q0 221 -328 285l-305 59q-387 76 -387 353
q0 120 75.5 212.5t204 141.5t287.5 49q336 0 536 -186l-75 -90q-186 166 -463 166q-189 0 -316 -80.5t-127 -206.5q0 -93 76.5 -152.5t241.5 -93.5l297 -59q200 -39 302.5 -140t102.5 -251q0 -189 -154 -307.5t-397 -118.5z" />
    <glyph glyph-name="uni1E65" unicode="&#x1e65;" horiz-adv-x="1175" 
d="M389 1700q38 0 63 -25t25 -63t-25 -63t-63 -25t-63 25t-25 63t25 63t63 25zM870 1575v-14l-274 -310h-121l256 324h139zM100 145l70 93q75 -63 194.5 -107.5t249.5 -44.5q149 0 241.5 59.5t92.5 157.5q0 74 -57.5 119t-173.5 67l-273 52q-162 31 -236.5 102.5
t-74.5 171.5q0 137 122.5 227.5t336.5 90.5q273 0 448 -146l-67 -90q-73 62 -178 95.5t-213 33.5q-146 0 -238 -58.5t-92 -148.5q0 -64 58.5 -104.5t187.5 -65.5l262 -51q166 -33 236.5 -110t70.5 -179q0 -147 -126 -238t-331 -91q-142 0 -281.5 44t-228.5 121z" />
    <glyph glyph-name="uni1E66" unicode="&#x1e66;" horiz-adv-x="1419" 
d="M711 2040q-38 0 -63 25t-25 63t25 63t63 25t63 -25t25 -63t-25 -63t-63 -25zM1040 1939l-264 -321h-133l-262 321h117l213 -233l213 233h116zM594 856l297 -59q200 -39 302.5 -140t102.5 -251q0 -189 -154 -307.5t-397 -118.5q-186 0 -349 55t-281 155l82 97
q111 -96 251.5 -145.5t292.5 -49.5q182 0 307.5 85t125.5 222q0 221 -328 285l-305 59q-387 76 -387 353q0 120 75.5 212.5t204 141.5t287.5 49q336 0 536 -186l-75 -90q-186 166 -463 166q-189 0 -316 -80.5t-127 -206.5q0 -93 76.5 -152.5t241.5 -93.5z" />
    <glyph glyph-name="uni1E67" unicode="&#x1e67;" horiz-adv-x="1175" 
d="M600 1675q-38 0 -63 25t-25 63t25 63t63 25t63 -25t25 -63t-25 -63t-63 -25zM930 1575l-264 -322h-134l-262 322h117l213 -234l213 234h117zM498 649l262 -51q166 -33 236.5 -110t70.5 -179q0 -147 -126 -238t-331 -91q-142 0 -281.5 44t-228.5 121l70 93
q75 -63 194.5 -107.5t249.5 -44.5q149 0 241.5 59.5t92.5 157.5q0 74 -57.5 119t-173.5 67l-273 52q-162 31 -236.5 102.5t-74.5 171.5q0 137 122.5 227.5t336.5 90.5q273 0 448 -146l-67 -90q-73 62 -178 95.5t-213 33.5q-146 0 -238 -58.5t-92 -148.5q0 -64 58.5 -104.5
t187.5 -65.5z" />
    <glyph glyph-name="uni1E68" unicode="&#x1e68;" horiz-adv-x="1419" 
d="M711 1855q38 0 63 -25t25 -63t-25 -63t-63 -25t-63 25t-25 63t25 63t63 25zM745 -20q-186 0 -349 55t-281 155l82 97q111 -96 251.5 -145.5t292.5 -49.5q182 0 307.5 85t125.5 222q0 221 -328 285l-305 59q-387 76 -387 353q0 120 75.5 212.5t204 141.5t287.5 49
q336 0 536 -186l-75 -90q-186 166 -463 166q-189 0 -316 -80.5t-127 -206.5q0 -93 76.5 -152.5t241.5 -93.5l297 -59q200 -39 302.5 -140t102.5 -251q0 -189 -154 -307.5t-397 -118.5zM709 -195q38 0 63 -25t25 -63t-25 -63t-63 -25t-63 25t-25 63t25 63t63 25z" />
    <glyph glyph-name="uni1E69" unicode="&#x1e69;" horiz-adv-x="1175" 
d="M600 1491q38 0 63 -25t25 -63t-25 -63t-63 -25t-63 25t-25 63t25 63t63 25zM100 145l70 93q75 -63 194.5 -107.5t249.5 -44.5q149 0 241.5 59.5t92.5 157.5q0 74 -57.5 119t-173.5 67l-273 52q-162 31 -236.5 102.5t-74.5 171.5q0 137 122.5 227.5t336.5 90.5
q273 0 448 -146l-67 -90q-73 62 -178 95.5t-213 33.5q-146 0 -238 -58.5t-92 -148.5q0 -64 58.5 -104.5t187.5 -65.5l262 -51q166 -33 236.5 -110t70.5 -179q0 -147 -126 -238t-331 -91q-142 0 -281.5 44t-228.5 121zM598 -195q38 0 63 -25t25 -63t-25 -63t-63 -25t-63 25
t-25 63t25 63t63 25z" />
    <glyph glyph-name="uni1E6C" unicode="&#x1e6c;" horiz-adv-x="1343" 
d="M1274 1475v-111h-541v-1364h-123v1364h-540v111h1204zM670 -195q38 0 63 -25t25 -63t-25 -63t-63 -25t-63 25t-25 63t25 63t63 25z" />
    <glyph glyph-name="uni1E6D" unicode="&#x1e6d;" horiz-adv-x="841" 
d="M610 90q95 0 178 39v-111q-63 -38 -186 -38q-168 0 -263 94t-95 258v676h-189v102h189v287l118 55v-342h418v-102h-418v-664q0 -121 67 -187.5t181 -66.5zM461 -195q38 0 63 -25t25 -63t-25 -63t-63 -25t-63 25t-25 63t25 63t63 25z" />
    <glyph glyph-name="uni1E6E" unicode="&#x1e6e;" horiz-adv-x="1343" 
d="M1274 1475v-111h-541v-1364h-123v1364h-540v111h1204zM983 -340h-623v98h623v-98z" />
    <glyph glyph-name="uni1E6F" unicode="&#x1e6f;" horiz-adv-x="841" 
d="M610 90q95 0 178 39v-111q-63 -38 -186 -38q-168 0 -263 94t-95 258v676h-189v102h189v287l118 55v-342h418v-102h-418v-664q0 -121 67 -187.5t181 -66.5zM774 -340h-622v98h622v-98z" />
    <glyph glyph-name="uni1E78" unicode="&#x1e78;" horiz-adv-x="1617" 
d="M1087 2351v-14l-274 -309h-121l256 323h139zM975 1636q-46 0 -88 19t-72 46t-58 54.5t-58.5 46.5t-61.5 19q-54 0 -86 -48.5t-35 -130.5h-98q3 125 61.5 201t159.5 76q47 0 89 -19t72 -46.5t57.5 -55t58 -46.5t61.5 -19q54 0 86 48t35 130h98q-3 -125 -61.5 -200
t-159.5 -75zM809 -27q-272 0 -440 150.5t-168 400.5v951h123v-940q0 -207 133.5 -328t351.5 -121t351.5 121t133.5 328v940h123v-951q0 -250 -168 -400.5t-440 -150.5z" />
    <glyph glyph-name="uni1E79" unicode="&#x1e79;" horiz-adv-x="1353" 
d="M948 1987v-15l-274 -309h-121l256 324h139zM498 1456q-54 0 -86 -48t-35 -130h-98q3 125 61.5 200.5t159.5 75.5q47 0 89 -19t72 -46.5t57.5 -55t58 -46.5t61.5 -19q54 0 85.5 48t34.5 130h99q-3 -125 -61.5 -199.5t-159.5 -74.5q-46 0 -88 19t-72 46t-58 54t-58.5 46
t-61.5 19zM1038 430v680h119v-1110h-115v186q-71 -110 -183.5 -161.5t-242.5 -51.5q-199 0 -317.5 113.5t-118.5 304.5v719h119v-700q0 -152 88.5 -239t249.5 -87q177 0 289 100.5t112 245.5z" />
    <glyph glyph-name="uni1E7A" unicode="&#x1e7a;" horiz-adv-x="1617" 
d="M592 1991q-38 0 -63 25t-25 63t25 63t63 25t63 -25t25 -63t-25 -63t-63 -25zM1026 1991q-38 0 -63 25t-25 63t25 63t63 25t63 -25t25 -63t-25 -63t-63 -25zM1120 1688h-622v98h622v-98zM809 -27q-272 0 -440 150.5t-168 400.5v951h123v-940q0 -207 133.5 -328t351.5 -121
t351.5 121t133.5 328v940h123v-951q0 -250 -168 -400.5t-440 -150.5z" />
    <glyph glyph-name="uni1E7B" unicode="&#x1e7b;" horiz-adv-x="1353" 
d="M453 1626q-38 0 -63 25t-25 63t25 63t63 25t63 -25t25 -63t-25 -63t-63 -25zM887 1626q-38 0 -63 25t-25 63t25 63t63 25t63 -25t25 -63t-25 -63t-63 -25zM358 1421h623v-98h-623v98zM1038 430v680h119v-1110h-115v186q-71 -110 -183.5 -161.5t-242.5 -51.5
q-199 0 -317.5 113.5t-118.5 304.5v719h119v-700q0 -152 88.5 -239t249.5 -87q177 0 289 100.5t112 245.5z" />
    <glyph glyph-name="Wgrave" unicode="&#x1e80;" horiz-adv-x="2267" 
d="M993 1937l238 -319h-119l-256 303v16h137zM1622 131l463 1344h127l-516 -1475h-152l-416 1311l-399 -1311h-154l-524 1475h131l471 -1346l410 1339h135z" />
    <glyph glyph-name="wgrave" unicode="&#x1e81;" horiz-adv-x="1906" 
d="M819 1573l238 -320h-119l-256 303v17h137zM1364 113l369 997h127l-428 -1110h-142l-336 948l-336 -948h-143l-430 1110h131l371 -991l348 979h121z" />
    <glyph glyph-name="Wacute" unicode="&#x1e82;" horiz-adv-x="2267" 
d="M1407 1939v-14l-274 -309h-121l256 323h139zM1622 131l463 1344h127l-516 -1475h-152l-416 1311l-399 -1311h-154l-524 1475h131l471 -1346l410 1339h135z" />
    <glyph glyph-name="wacute" unicode="&#x1e83;" horiz-adv-x="1906" 
d="M1233 1575v-14l-275 -310h-120l256 324h139zM1364 113l369 997h127l-428 -1110h-142l-336 948l-336 -948h-143l-430 1110h131l371 -991l348 979h121z" />
    <glyph glyph-name="Wdieresis" unicode="&#x1e84;" horiz-adv-x="2267" 
d="M911 1679q-38 0 -63 25t-25 63t25 63t63 25t63 -25t25 -63t-25 -63t-63 -25zM1346 1679q-38 0 -63.5 25t-25.5 63t25.5 63t63.5 25t63 -25t25 -63t-25 -63t-63 -25zM1622 131l463 1344h127l-516 -1475h-152l-416 1311l-399 -1311h-154l-524 1475h131l471 -1346l410 1339
h135z" />
    <glyph glyph-name="wdieresis" unicode="&#x1e85;" horiz-adv-x="1906" 
d="M737 1315q-38 0 -63 25t-25 63t25 63t63 25t63 -25t25 -63t-25 -63t-63 -25zM1171 1315q-38 0 -63 25t-25 63t25 63t63 25t63.5 -25t25.5 -63t-25.5 -63t-63.5 -25zM1364 113l369 997h127l-428 -1110h-142l-336 948l-336 -948h-143l-430 1110h131l371 -991l348 979h121z
" />
    <glyph glyph-name="uni1E8E" unicode="&#x1e8e;" horiz-adv-x="1454" 
d="M725 1679q-38 0 -63 25t-25 63t25 63t63 25t63 -25t25 -63t-25 -63t-63 -25zM1268 1475h139l-619 -967v-508h-122v506l-623 969h143l541 -859z" />
    <glyph glyph-name="uni1E8F" unicode="&#x1e8f;" horiz-adv-x="1224" 
d="M612 1315q-38 0 -63 25t-25 63t25 63t63 25t63 -25t25 -63t-25 -63t-63 -25zM616 131l437 979h129l-584 -1268q-107 -231 -328 -231q-109 0 -211 45l41 104q84 -43 166 -43q156 0 236 174l53 115l-512 1104h133z" />
    <glyph glyph-name="uni1E92" unicode="&#x1e92;" horiz-adv-x="1314" 
d="M1210 1378l-981 -1269h1016v-109h-1171v94l983 1272h-936v109h1089v-97zM672 -195q38 0 63 -25t25 -63t-25 -63t-63 -25t-63 25t-25 63t25 63t63 25z" />
    <glyph glyph-name="uni1E93" unicode="&#x1e93;" horiz-adv-x="1077" 
d="M977 1028l-750 -928h777v-100h-928v82l749 928h-714v100h866v-82zM545 -195q38 0 63 -25t25 -63t-25 -63t-63 -25t-63 25t-25 63t25 63t63 25z" />
    <glyph glyph-name="uni1E97" unicode="&#x1e97;" horiz-adv-x="841" 
d="M199 1591q-38 0 -63 25t-25 63t25 63t63 25t63 -25t25 -63t-25 -63t-63 -25zM633 1591q-38 0 -63 25t-25 63t25 63t63 25t63 -25t25 -63t-25 -63t-63 -25zM610 90q95 0 178 39v-111q-63 -38 -186 -38q-168 0 -263 94t-95 258v676h-189v102h189v287l118 55v-342h418v-102
h-418v-664q0 -121 67 -187.5t181 -66.5z" />
    <glyph glyph-name="uni1E9E" unicode="&#x1e9e;" horiz-adv-x="1622" 
d="M793 844v-84q340 -109 474 -195t134 -209q0 -124 -111.5 -198t-296.5 -74q-222 0 -411 80v-119q183 -72 417 -72q236 0 382.5 105.5t146.5 277.5q0 159 -132 264.5t-460 215.5l508 485q-98 81 -254.5 130.5t-343.5 49.5q-292 0 -468.5 -161t-176.5 -422v-918h123v915
q0 211 143.5 342.5t378.5 131.5q231 0 420 -97z" />
    <glyph glyph-name="uni1EA0" unicode="&#x1ea0;" horiz-adv-x="1519" 
d="M836 1475l639 -1475h-134l-184 436h-797l-186 -436h-129l641 1475h150zM762 1368l-354 -823h702zM758 -195q38 0 63 -25t25 -63t-25 -63t-63 -25t-63 25t-25 63t25 63t63 25z" />
    <glyph glyph-name="uni1EA1" unicode="&#x1ea1;" horiz-adv-x="1288" 
d="M1202 94q34 0 55 8v-98q-24 -12 -69 -12q-92 0 -147.5 57t-55.5 160v37q-44 -95 -123.5 -158t-166.5 -88t-185 -25q-117 0 -211.5 37t-153.5 113t-59 180q0 166 145 258t418 92h334v50q0 147 -101 234t-268 87q-104 0 -204 -35t-162 -96l-74 86q80 74 198.5 114t245.5 40
q218 0 349 -113.5t131 -308.5v-498q0 -59 27 -90t77 -31zM520 80q53 0 105 10.5t105 32.5t97.5 60t79.5 88.5t55 123.5t21 160h-334q-224 0 -335 -66t-111 -180q0 -106 90 -167.5t227 -61.5zM633 -195q38 0 63 -25t25 -63t-25 -63t-63 -25t-63 25t-25 63t25 63t63 25z" />
    <glyph glyph-name="uni1EA2" unicode="&#x1ea2;" horiz-adv-x="1519" 
d="M764 2032q-70 0 -114 -36t-46 -87h-102q5 92 77 152.5t191 60.5q104 0 172 -52t68 -135q0 -52 -27 -89.5t-86 -86.5q-61 -50 -80.5 -75t-19.5 -52v-24h-97v32q0 47 26 85t85 85q34 27 50 41t30 36t14 44q0 45 -39.5 73t-101.5 28zM1475 0h-134l-184 436h-797l-186 -436
h-129l641 1475h150zM762 1368l-354 -823h702z" />
    <glyph glyph-name="uni1EA3" unicode="&#x1ea3;" horiz-adv-x="1288" 
d="M635 1667q-70 0 -114 -36t-46 -87h-102q5 92 77 152.5t191 60.5q104 0 172 -52t68 -134q0 -52 -27 -89.5t-86 -86.5q-61 -50 -80.5 -75t-19.5 -52v-25h-97v33q0 47 26 85t85 85q34 27 50 41t30 36t14 44q0 45 -39.5 72.5t-101.5 27.5zM1202 94q34 0 55 8v-98
q-24 -12 -69 -12q-92 0 -147.5 57t-55.5 160v37q-44 -95 -123.5 -158t-166.5 -88t-185 -25q-117 0 -211.5 37t-153.5 113t-59 180q0 166 145 258t418 92h334v50q0 147 -101 234t-268 87q-104 0 -204 -35t-162 -96l-74 86q80 74 198.5 114t245.5 40q218 0 349 -113.5
t131 -308.5v-498q0 -59 27 -90t77 -31zM520 80q53 0 105 10.5t105 32.5t97.5 60t79.5 88.5t55 123.5t21 160h-334q-224 0 -335 -66t-111 -180q0 -106 90 -167.5t227 -61.5z" />
    <glyph glyph-name="uni1EA4" unicode="&#x1ea4;" horiz-adv-x="1519" 
d="M1325 2138v-16l-231 -287h-111l215 303h127zM973 1618l-213 215l-213 -215h-119l266 297h133l265 -297h-119zM1475 0h-134l-184 436h-797l-186 -436h-129l641 1475h150zM762 1368l-354 -823h702z" />
    <glyph glyph-name="uni1EA5" unicode="&#x1ea5;" horiz-adv-x="1288" 
d="M1196 1774v-17l-231 -287h-111l215 304h127zM844 1253l-213 215l-213 -215h-119l266 297h133l265 -297h-119zM1202 94q34 0 55 8v-98q-24 -12 -69 -12q-92 0 -147.5 57t-55.5 160v37q-44 -95 -123.5 -158t-166.5 -88t-185 -25q-117 0 -211.5 37t-153.5 113t-59 180
q0 166 145 258t418 92h334v50q0 147 -101 234t-268 87q-104 0 -204 -35t-162 -96l-74 86q80 74 198.5 114t245.5 40q218 0 349 -113.5t131 -308.5v-498q0 -59 27 -90t77 -31zM520 80q53 0 105 10.5t105 32.5t97.5 60t79.5 88.5t55 123.5t21 160h-334q-224 0 -335 -66
t-111 -180q0 -106 90 -167.5t227 -61.5z" />
    <glyph glyph-name="uni1EA6" unicode="&#x1ea6;" horiz-adv-x="1519" 
d="M1020 2138l215 -303h-111l-231 287v16h127zM973 1618l-213 215l-213 -215h-119l266 297h133l265 -297h-119zM1475 0h-134l-184 436h-797l-186 -436h-129l641 1475h150zM762 1368l-354 -823h702z" />
    <glyph glyph-name="uni1EA7" unicode="&#x1ea7;" horiz-adv-x="1288" 
d="M891 1774l215 -304h-111l-231 287v17h127zM844 1253l-213 215l-213 -215h-119l266 297h133l265 -297h-119zM1202 94q34 0 55 8v-98q-24 -12 -69 -12q-92 0 -147.5 57t-55.5 160v37q-44 -95 -123.5 -158t-166.5 -88t-185 -25q-117 0 -211.5 37t-153.5 113t-59 180
q0 166 145 258t418 92h334v50q0 147 -101 234t-268 87q-104 0 -204 -35t-162 -96l-74 86q80 74 198.5 114t245.5 40q218 0 349 -113.5t131 -308.5v-498q0 -59 27 -90t77 -31zM520 80q53 0 105 10.5t105 32.5t97.5 60t79.5 88.5t55 123.5t21 160h-334q-224 0 -335 -66
t-111 -180q0 -106 90 -167.5t227 -61.5z" />
    <glyph glyph-name="uni1EA8" unicode="&#x1ea8;" horiz-adv-x="1519" 
d="M1096 2183q-61 0 -97 -29t-38 -75h-95q2 81 66 134.5t168 53.5q94 0 154.5 -46.5t60.5 -119.5q0 -44 -23.5 -77t-77.5 -78q-53 -43 -71.5 -65.5t-18.5 -47.5v-23h-90v31q0 43 23.5 75t77.5 77q33 27 45 38.5t24.5 30.5t12.5 37q0 38 -34 61t-87 23zM973 1618l-213 215
l-213 -215h-119l266 297h133l265 -297h-119zM1475 0h-134l-184 436h-797l-186 -436h-129l641 1475h150zM762 1368l-354 -823h702z" />
    <glyph glyph-name="uni1EA9" unicode="&#x1ea9;" horiz-adv-x="1288" 
d="M967 1819q-61 0 -97.5 -29.5t-38.5 -75.5h-94q2 81 66 135t168 54q94 0 154.5 -46.5t60.5 -119.5q0 -44 -24 -77.5t-77 -78.5q-53 -43 -71.5 -65.5t-18.5 -47.5v-22h-90v31q0 43 23.5 74.5t77.5 76.5q31 26 44.5 38.5t25 31t11.5 37.5q0 38 -33.5 61t-86.5 23zM844 1253
l-213 215l-213 -215h-119l266 297h133l265 -297h-119zM1202 94q34 0 55 8v-98q-24 -12 -69 -12q-92 0 -147.5 57t-55.5 160v37q-44 -95 -123.5 -158t-166.5 -88t-185 -25q-117 0 -211.5 37t-153.5 113t-59 180q0 166 145 258t418 92h334v50q0 147 -101 234t-268 87
q-104 0 -204 -35t-162 -96l-74 86q80 74 198.5 114t245.5 40q218 0 349 -113.5t131 -308.5v-498q0 -59 27 -90t77 -31zM520 80q53 0 105 10.5t105 32.5t97.5 60t79.5 88.5t55 123.5t21 160h-334q-224 0 -335 -66t-111 -180q0 -106 90 -167.5t227 -61.5z" />
    <glyph glyph-name="uni1EAA" unicode="&#x1eaa;" horiz-adv-x="1519" 
d="M614 2173q-42 0 -71.5 -46t-32.5 -122h-92q1 122 54.5 192t143.5 70q40 0 76 -18t62.5 -43.5t50 -51t49 -43.5t49.5 -18q42 0 72 46t33 122h94q-3 -122 -57 -192t-144 -70q-40 0 -75.5 18t-61.5 43.5t-49.5 51t-49.5 43.5t-51 18zM428 1618l266 297h133l265 -297h-119
l-213 215l-213 -215h-119zM1475 0h-134l-184 436h-797l-186 -436h-129l641 1475h150zM762 1368l-354 -823h702z" />
    <glyph glyph-name="uni1EAB" unicode="&#x1eab;" horiz-adv-x="1288" 
d="M485 1808q-42 0 -71.5 -46t-32.5 -122h-92q1 122 54.5 192.5t143.5 70.5q40 0 76 -18t62.5 -43.5t50 -51t49 -43.5t49.5 -18q42 0 72 45.5t33 121.5h94q-3 -122 -57 -192t-144 -70q-40 0 -75.5 18t-61.5 43.5t-49.5 51t-49.5 43.5t-51 18zM299 1253l266 297h133l265 -297
h-119l-213 215l-213 -215h-119zM1202 94q34 0 55 8v-98q-24 -12 -69 -12q-92 0 -147.5 57t-55.5 160v37q-44 -95 -123.5 -158t-166.5 -88t-185 -25q-117 0 -211.5 37t-153.5 113t-59 180q0 166 145 258t418 92h334v50q0 147 -101 234t-268 87q-104 0 -204 -35t-162 -96
l-74 86q80 74 198.5 114t245.5 40q218 0 349 -113.5t131 -308.5v-498q0 -59 27 -90t77 -31zM520 80q53 0 105 10.5t105 32.5t97.5 60t79.5 88.5t55 123.5t21 160h-334q-224 0 -335 -66t-111 -180q0 -106 90 -167.5t227 -61.5z" />
    <glyph glyph-name="uni1EAC" unicode="&#x1eac;" horiz-adv-x="1519" 
d="M973 1618l-213 233l-213 -233h-117l262 321h133l265 -321h-117zM836 1475l639 -1475h-134l-184 436h-797l-186 -436h-129l641 1475h150zM762 1368l-354 -823h702zM758 -195q38 0 63 -25t25 -63t-25 -63t-63 -25t-63 25t-25 63t25 63t63 25z" />
    <glyph glyph-name="uni1EAD" unicode="&#x1ead;" horiz-adv-x="1288" 
d="M844 1253l-213 234l-213 -234h-117l262 322h133l265 -322h-117zM1202 94q34 0 55 8v-98q-24 -12 -69 -12q-92 0 -147.5 57t-55.5 160v37q-44 -95 -123.5 -158t-166.5 -88t-185 -25q-117 0 -211.5 37t-153.5 113t-59 180q0 166 145 258t418 92h334v50q0 147 -101 234
t-268 87q-104 0 -204 -35t-162 -96l-74 86q80 74 198.5 114t245.5 40q218 0 349 -113.5t131 -308.5v-498q0 -59 27 -90t77 -31zM520 80q53 0 105 10.5t105 32.5t97.5 60t79.5 88.5t55 123.5t21 160h-334q-224 0 -335 -66t-111 -180q0 -106 90 -167.5t227 -61.5zM633 -195
q38 0 63 -25t25 -63t-25 -63t-63 -25t-63 25t-25 63t25 63t63 25z" />
    <glyph glyph-name="uni1EAE" unicode="&#x1eae;" horiz-adv-x="1519" 
d="M997 2218v-16l-231 -287h-111l215 303h127zM760 1614q-137 0 -228.5 87t-91.5 214h95q2 -84 66.5 -144.5t158.5 -60.5t158.5 60.5t66.5 144.5h94q0 -127 -91 -214t-228 -87zM1475 0h-134l-184 436h-797l-186 -436h-129l641 1475h150zM762 1368l-354 -823h702z" />
    <glyph glyph-name="uni1EAF" unicode="&#x1eaf;" horiz-adv-x="1288" 
d="M868 1853v-16l-231 -287h-111l215 303h127zM631 1249q-137 0 -228.5 87t-91.5 214h95q2 -84 66.5 -144t158.5 -60t158.5 60t66.5 144h94q0 -127 -91 -214t-228 -87zM1202 94q34 0 55 8v-98q-24 -12 -69 -12q-92 0 -147.5 57t-55.5 160v37q-44 -95 -123.5 -158t-166.5 -88
t-185 -25q-117 0 -211.5 37t-153.5 113t-59 180q0 166 145 258t418 92h334v50q0 147 -101 234t-268 87q-104 0 -204 -35t-162 -96l-74 86q80 74 198.5 114t245.5 40q218 0 349 -113.5t131 -308.5v-498q0 -59 27 -90t77 -31zM520 80q53 0 105 10.5t105 32.5t97.5 60
t79.5 88.5t55 123.5t21 160h-334q-224 0 -335 -66t-111 -180q0 -106 90 -167.5t227 -61.5z" />
    <glyph glyph-name="uni1EB0" unicode="&#x1eb0;" horiz-adv-x="1519" 
d="M649 2218l215 -303h-110l-232 287v16h127zM760 1614q-137 0 -228.5 87t-91.5 214h95q2 -84 66.5 -144.5t158.5 -60.5t158.5 60.5t66.5 144.5h94q0 -127 -91 -214t-228 -87zM1475 0h-134l-184 436h-797l-186 -436h-129l641 1475h150zM762 1368l-354 -823h702z" />
    <glyph glyph-name="uni1EB1" unicode="&#x1eb1;" horiz-adv-x="1288" 
d="M520 1853l215 -303h-110l-232 287v16h127zM631 1249q-137 0 -228.5 87t-91.5 214h95q2 -84 66.5 -144t158.5 -60t158.5 60t66.5 144h94q0 -127 -91 -214t-228 -87zM1202 94q34 0 55 8v-98q-24 -12 -69 -12q-92 0 -147.5 57t-55.5 160v37q-44 -95 -123.5 -158t-166.5 -88
t-185 -25q-117 0 -211.5 37t-153.5 113t-59 180q0 166 145 258t418 92h334v50q0 147 -101 234t-268 87q-104 0 -204 -35t-162 -96l-74 86q80 74 198.5 114t245.5 40q218 0 349 -113.5t131 -308.5v-498q0 -59 27 -90t77 -31zM520 80q53 0 105 10.5t105 32.5t97.5 60
t79.5 88.5t55 123.5t21 160h-334q-224 0 -335 -66t-111 -180q0 -106 90 -167.5t227 -61.5z" />
    <glyph glyph-name="uni1EB2" unicode="&#x1eb2;" horiz-adv-x="1519" 
d="M764 2253q-61 0 -97 -29.5t-38 -75.5h-94q2 81 65.5 135t167.5 54q94 0 154.5 -46.5t60.5 -119.5q0 -44 -23.5 -78t-76.5 -78q-54 -44 -72 -65.5t-18 -46.5v-23h-91v31q0 43 23.5 74.5t77.5 76.5q31 26 44.5 38.5t25.5 31.5t12 37q0 38 -34 61t-87 23zM760 1614
q-137 0 -228.5 87t-91.5 214h95q2 -84 66.5 -144.5t158.5 -60.5t158.5 60.5t66.5 144.5h94q0 -127 -91 -214t-228 -87zM1475 0h-134l-184 436h-797l-186 -436h-129l641 1475h150zM762 1368l-354 -823h702z" />
    <glyph glyph-name="uni1EB3" unicode="&#x1eb3;" horiz-adv-x="1288" 
d="M635 1888q-61 0 -97 -29t-38 -75h-94q2 81 65.5 134.5t167.5 53.5q94 0 154.5 -46.5t60.5 -119.5q0 -44 -23.5 -77t-76.5 -78q-53 -43 -71.5 -65.5t-18.5 -47.5v-22h-91v30q0 43 23.5 75t77.5 77q33 27 45 38.5t24.5 30.5t12.5 37q0 38 -34 61t-87 23zM631 1249
q-137 0 -228.5 87t-91.5 214h95q2 -84 66.5 -144t158.5 -60t158.5 60t66.5 144h94q0 -127 -91 -214t-228 -87zM1202 94q34 0 55 8v-98q-24 -12 -69 -12q-92 0 -147.5 57t-55.5 160v37q-44 -95 -123.5 -158t-166.5 -88t-185 -25q-117 0 -211.5 37t-153.5 113t-59 180
q0 166 145 258t418 92h334v50q0 147 -101 234t-268 87q-104 0 -204 -35t-162 -96l-74 86q80 74 198.5 114t245.5 40q218 0 349 -113.5t131 -308.5v-498q0 -59 27 -90t77 -31zM520 80q53 0 105 10.5t105 32.5t97.5 60t79.5 88.5t55 123.5t21 160h-334q-224 0 -335 -66
t-111 -180q0 -106 90 -167.5t227 -61.5z" />
    <glyph glyph-name="uni1EB4" unicode="&#x1eb4;" horiz-adv-x="1519" 
d="M614 2173q-42 0 -71.5 -46t-32.5 -122h-92q1 122 54.5 192t143.5 70q40 0 76 -18t62.5 -43.5t50 -51t49 -43.5t49.5 -18q42 0 72 46t33 122h94q-3 -122 -57 -192t-144 -70q-40 0 -75.5 18t-61.5 43.5t-49.5 51t-49.5 43.5t-51 18zM760 1710q94 0 158.5 60.5t66.5 144.5
h94q0 -127 -91 -214t-228 -87t-228.5 87t-91.5 214h95q2 -84 66.5 -144.5t158.5 -60.5zM1475 0h-134l-184 436h-797l-186 -436h-129l641 1475h150zM762 1368l-354 -823h702z" />
    <glyph glyph-name="uni1EB5" unicode="&#x1eb5;" horiz-adv-x="1288" 
d="M485 1808q-42 0 -71.5 -46t-32.5 -122h-92q1 122 54.5 192.5t143.5 70.5q40 0 76 -18t62.5 -43.5t50 -51t49 -43.5t49.5 -18q42 0 72 45.5t33 121.5h94q-3 -122 -57 -192t-144 -70q-40 0 -75.5 18t-61.5 43.5t-49.5 51t-49.5 43.5t-51 18zM631 1346q94 0 158.5 60
t66.5 144h94q0 -127 -91 -214t-228 -87t-228.5 87t-91.5 214h95q2 -84 66.5 -144t158.5 -60zM1202 94q34 0 55 8v-98q-24 -12 -69 -12q-92 0 -147.5 57t-55.5 160v37q-44 -95 -123.5 -158t-166.5 -88t-185 -25q-117 0 -211.5 37t-153.5 113t-59 180q0 166 145 258t418 92
h334v50q0 147 -101 234t-268 87q-104 0 -204 -35t-162 -96l-74 86q80 74 198.5 114t245.5 40q218 0 349 -113.5t131 -308.5v-498q0 -59 27 -90t77 -31zM520 80q53 0 105 10.5t105 32.5t97.5 60t79.5 88.5t55 123.5t21 160h-334q-224 0 -335 -66t-111 -180q0 -106 90 -167.5
t227 -61.5z" />
    <glyph glyph-name="uni1EB6" unicode="&#x1eb6;" horiz-adv-x="1519" 
d="M760 1614q-139 0 -229.5 90.5t-90.5 234.5h95q1 -100 65 -163.5t160 -63.5t160 63.5t65 163.5h94q0 -144 -90 -234.5t-229 -90.5zM836 1475l639 -1475h-134l-184 436h-797l-186 -436h-129l641 1475h150zM762 1368l-354 -823h702zM758 -195q38 0 63 -25t25 -63t-25 -63
t-63 -25t-63 25t-25 63t25 63t63 25z" />
    <glyph glyph-name="uni1EB7" unicode="&#x1eb7;" horiz-adv-x="1288" 
d="M631 1249q-139 0 -229.5 91t-90.5 235h95q1 -100 65 -163.5t160 -63.5t160 63.5t65 163.5h94q0 -144 -90 -235t-229 -91zM1202 94q34 0 55 8v-98q-24 -12 -69 -12q-92 0 -147.5 57t-55.5 160v37q-44 -95 -123.5 -158t-166.5 -88t-185 -25q-117 0 -211.5 37t-153.5 113
t-59 180q0 166 145 258t418 92h334v50q0 147 -101 234t-268 87q-104 0 -204 -35t-162 -96l-74 86q80 74 198.5 114t245.5 40q218 0 349 -113.5t131 -308.5v-498q0 -59 27 -90t77 -31zM520 80q53 0 105 10.5t105 32.5t97.5 60t79.5 88.5t55 123.5t21 160h-334
q-224 0 -335 -66t-111 -180q0 -106 90 -167.5t227 -61.5zM633 -195q38 0 63 -25t25 -63t-25 -63t-63 -25t-63 25t-25 63t25 63t63 25z" />
    <glyph glyph-name="uni1EB8" unicode="&#x1eb8;" horiz-adv-x="1415" 
d="M340 111h971l32 -111h-1126v1475h1106l-33 -111h-950v-530h651v-111h-651v-612zM760 -195q38 0 63 -25t25 -63t-25 -63t-63 -25t-63 25t-25 63t25 63t63 25z" />
    <glyph glyph-name="uni1EB9" unicode="&#x1eb9;" horiz-adv-x="1341" 
d="M1243 559q0 -7 -4 -39h-1006q12 -195 144.5 -316.5t339.5 -121.5q123 0 220.5 41t158.5 108l78 -81q-69 -80 -187.5 -128.5t-273.5 -48.5q-268 0 -434 163t-166 417t160 419t407 165q166 0 295.5 -78t198.5 -209t69 -291zM680 1028q-176 0 -299 -112t-143 -298h882
q-12 174 -134 292t-306 118zM678 -195q38 0 63 -25t25 -63t-25 -63t-63 -25t-63 25t-25 63t25 63t63 25z" />
    <glyph glyph-name="uni1EBA" unicode="&#x1eba;" horiz-adv-x="1415" 
d="M766 2032q-70 0 -114 -36t-46 -87h-102q5 92 77 152.5t191 60.5q104 0 172 -52t68 -135q0 -52 -27 -89.5t-86 -86.5q-61 -50 -80.5 -75t-19.5 -52v-24h-97v32q0 47 26 85t85 85q34 27 50 41t30 36t14 44q0 45 -39.5 73t-101.5 28zM340 111h971l32 -111h-1126v1475h1106
l-33 -111h-950v-530h651v-111h-651v-612z" />
    </font>
</defs>
</svg>
