<?xml version="1.0" standalone="no"?>
<!DOCTYPE svg PUBLIC "-//W3C//DTD SVG 1.1//EN" "http://www.w3.org/Graphics/SVG/1.1/DTD/svg11.dtd" >
<svg xmlns="http://www.w3.org/2000/svg" xmlns:xlink="http://www.w3.org/1999/xlink" version="1.1">
<metadata>
Created by FontForge 20170731 at Mon Sep 13 13:56:43 2021
 By Aleksey,,,
Copyright (c) 2020 The Coca-Cola Company. All Rights Reserved.
</metadata>
<defs>
<font id="TCCC-UnityText_CYR-Black" horiz-adv-x="0" >
  <font-face 
    font-family="TCCC-UnityText_CYR"
    font-weight="800"
    font-stretch="normal"
    units-per-em="2048"
    panose-1="2 11 10 5 3 3 3 2 2 4"
    ascent="1638"
    descent="-410"
    x-height="1155"
    cap-height="1475"
    bbox="-1262 -594 3062 2552"
    underline-thickness="102"
    underline-position="-307"
    unicode-range="U+0020-FB02"
  />
<missing-glyph horiz-adv-x="1701" 
d="M1536 0h-1370v1477h1370v-1477zM420 1223v-971h866v971h-866z" />
    <glyph glyph-name="fi" unicode="fi" horiz-adv-x="1605" 
d="M1278 1241q-89 0 -147 53.5t-58 137.5t58 137t147 53t147 -53t58 -137t-58 -137.5t-147 -53.5zM246 1155v31q0 173 115 277t333 104q130 0 201 -27v-264q-57 16 -127 16q-95 0 -131.5 -31.5t-36.5 -89.5v-26h295v-293h-285v-852h-364v852h-195v303h195zM1460 0h-364v1155
h364v-1155z" />
    <glyph glyph-name="fl" unicode="fl" horiz-adv-x="1691" 
d="M246 1155v31q0 173 115 277t333 104q130 0 201 -27v-264q-57 16 -127 16q-95 0 -131.5 -31.5t-36.5 -89.5v-26h295v-293h-285v-852h-364v852h-195v303h195zM1561 307q40 0 90 17v-308q-77 -32 -189 -32q-167 0 -265.5 93t-98.5 259v1204h364v-1149q0 -43 27 -63.5
t72 -20.5z" />
    <glyph glyph-name="f_f" unicode="ff" horiz-adv-x="1740" 
d="M1559 1292q-85 0 -129 -31.5t-44 -78.5v-37h330v-293h-321v-852h-365v852h-420v-852h-364v852h-195v303h195v23q0 173 111.5 277t322.5 104q117 0 190 -25v-264q-60 14 -125 14q-145 0 -145 -110v-19h430v31q0 170 125.5 275.5t341.5 105.5q146 0 219 -25v-264
q-80 14 -157 14z" />
    <glyph glyph-name="f_f_i" unicode="ffi" horiz-adv-x="2390" 
d="M2062 1241q-88 0 -146 53.5t-58 137.5t57.5 137t146.5 53t147 -53t58 -137t-58 -137.5t-147 -53.5zM1030 1155v31q0 173 115.5 277t333.5 104q129 0 200 -27v-264q-57 16 -127 16q-95 0 -131.5 -31.5t-36.5 -89.5v-26h295v-293h-284v-852h-365v852h-420v-852h-364v852
h-195v303h195v23q0 173 111.5 277t322.5 104q117 0 190 -25v-264q-60 14 -125 14q-145 0 -145 -110v-19h430zM2245 0h-365v1155h365v-1155z" />
    <glyph glyph-name="f_f_l" unicode="ffl" horiz-adv-x="2476" 
d="M1030 1155v31q0 173 115.5 277t333.5 104q129 0 200 -27v-264q-57 16 -127 16q-95 0 -131.5 -31.5t-36.5 -89.5v-26h295v-293h-284v-852h-365v852h-420v-852h-364v852h-195v303h195v23q0 173 111.5 277t322.5 104q117 0 190 -25v-264q-60 14 -125 14q-145 0 -145 -110
v-19h430zM2345 307q40 0 90 17v-308q-77 -32 -188 -32q-167 0 -266 93t-99 259v1204h365v-1149q0 -84 98 -84z" />
    <glyph glyph-name=".notdef" horiz-adv-x="1701" 
d="M1536 0h-1370v1477h1370v-1477zM420 1223v-971h866v971h-866z" />
    <glyph glyph-name=".null" 
 />
    <glyph glyph-name="nonmarkingreturn" horiz-adv-x="682" 
 />
    <glyph glyph-name="space" unicode=" " horiz-adv-x="620" 
 />
    <glyph glyph-name="exclam" unicode="!" horiz-adv-x="671" 
d="M455 518h-238l-86 957h410zM336 -18q-97 0 -159 61t-62 158q0 95 62 156t159 61t158 -61t61 -156q0 -97 -61 -158t-158 -61z" />
    <glyph glyph-name="quotedbl" unicode="&#x22;" horiz-adv-x="1064" 
d="M373 799h-238l15 676h380zM842 799h-238l14 676h381z" />
    <glyph glyph-name="numbersign" unicode="#" horiz-adv-x="1675" 
d="M1591 1151v-279h-301l-45 -272h268v-278h-315l-53 -322h-309l53 322h-250l-53 -322h-310l54 322h-256v278h303l45 272h-232v279h279l53 324h309l-53 -324h250l53 324h310l-54 -324h254zM686 600h250l45 272h-250z" />
    <glyph glyph-name="dollar" unicode="$" horiz-adv-x="1458" 
d="M1370 473q0 -191 -128 -316.5t-359 -156.5v-246h-258v240q-174 15 -322 74t-242 153l220 266q196 -182 462 -182q114 0 178 40.5t64 96.5q0 42 -25.5 70.5t-101.5 42.5l-299 53q-235 41 -338.5 147.5t-103.5 272.5q0 190 131.5 309t376.5 142v184h258v-186
q303 -40 473 -199l-207 -264q-195 155 -399 155q-114 0 -183 -34t-69 -82q0 -38 29 -64t83 -35l344 -59q211 -37 313.5 -148t102.5 -274z" />
    <glyph glyph-name="percent" unicode="%" horiz-adv-x="1939" 
d="M467 702q-177 0 -290.5 111.5t-113.5 288.5q0 176 113 287.5t291 111.5q177 0 290 -111t113 -288t-113 -288.5t-290 -111.5zM557 0h-246l1071 1475h246zM467 946q54 0 87.5 43.5t33.5 112.5t-33.5 112t-87.5 43t-87.5 -43t-33.5 -112t33.5 -112.5t87.5 -43.5zM1473 -27
q-177 0 -290.5 111.5t-113.5 288.5q0 176 113 287.5t291 111.5q177 0 290 -111t113 -288t-113 -288.5t-290 -111.5zM1473 217q54 0 87 43.5t33 112.5t-33 112t-87 43t-87.5 -43t-33.5 -112t33.5 -112.5t87.5 -43.5z" />
    <glyph glyph-name="ampersand" unicode="&#x26;" horiz-adv-x="1619" 
d="M1364 289l289 -271v-18h-432l-86 78q-180 -105 -424 -105q-275 0 -451 125.5t-176 325.5q0 127 73.5 214.5t204.5 149.5q-64 61 -103.5 143.5t-39.5 174.5q0 174 141 284.5t363 110.5t363 -110.5t141 -282.5q0 -243 -309 -401l204 -193q66 123 72 264h338
q-6 -128 -48.5 -255t-119.5 -234zM733 1223q-71 0 -117.5 -36.5t-46.5 -90.5q0 -61 82 -140l64 -59q91 39 133.5 84.5t42.5 101.5q0 63 -43.5 101.5t-114.5 38.5zM727 270q90 0 166 31l-330 301q-102 -58 -102 -153q0 -87 77.5 -133t188.5 -46z" />
    <glyph glyph-name="quotesingle" unicode="'" horiz-adv-x="595" 
d="M373 799h-238l15 676h380z" />
    <glyph glyph-name="parenleft" unicode="(" horiz-adv-x="770" 
d="M715 -285h-309q-152 203 -230 448.5t-78 498.5t78 498t230 448h309q-132 -219 -200.5 -462t-68.5 -484q0 -242 68.5 -485t200.5 -462z" />
    <glyph glyph-name="parenright" unicode=")" horiz-adv-x="770" 
d="M365 -285h-310q132 219 200.5 462t68.5 485q0 241 -68.5 484t-200.5 462h310q152 -203 229.5 -447.5t77.5 -498.5t-77.5 -499t-229.5 -448z" />
    <glyph glyph-name="asterisk" unicode="*" horiz-adv-x="1050" 
d="M893 1354l90 -267l-278 -49l194 -196l-237 -166l-136 239l-137 -239l-237 166l194 196l-278 49l90 267l256 -111l-35 262h293l-35 -262z" />
    <glyph glyph-name="plus" unicode="+" horiz-adv-x="1341" 
d="M831 893h394v-313h-394v-385h-321v385h-393v313h393v385h321v-385z" />
    <glyph glyph-name="comma" unicode="," horiz-adv-x="641" 
d="M303 -305h-264l121 643h383z" />
    <glyph glyph-name="hyphen" unicode="-" horiz-adv-x="847" 
d="M94 500l43 340h619l-43 -340h-619z" />
    <glyph glyph-name="period" unicode="." horiz-adv-x="630" 
d="M315 -18q-97 0 -159 61t-62 158q0 95 62 156t159 61t158.5 -61t61.5 -156q0 -97 -61.5 -158t-158.5 -61z" />
    <glyph glyph-name="slash" unicode="/" horiz-adv-x="1163" 
d="M39 -285l760 1893h323l-760 -1893h-323z" />
    <glyph glyph-name="zero" unicode="0" horiz-adv-x="1613" 
d="M807 -27q-324 0 -512.5 207.5t-188.5 556.5t188.5 556.5t512.5 207.5q325 0 512.5 -207t187.5 -557t-187.5 -557t-512.5 -207zM807 309q146 0 230.5 114.5t84.5 313.5q0 197 -84.5 312.5t-230.5 115.5t-230.5 -115.5t-84.5 -312.5q0 -199 84.5 -313.5t230.5 -114.5z" />
    <glyph glyph-name="one" unicode="1" horiz-adv-x="1026" 
d="M516 1475h322v-1475h-373v997q-142 -140 -395 -198v329q343 85 446 347z" />
    <glyph glyph-name="two" unicode="2" horiz-adv-x="1466" 
d="M104 1282l220 -268q182 151 391 151q103 0 168 -43t65 -110q0 -47 -29.5 -88t-79.5 -73.5t-114.5 -64.5t-136 -66.5t-143 -73.5t-136 -92t-114.5 -116t-79.5 -151t-29.5 -191v-96h1268v328h-795q45 43 115.5 85t140.5 74.5t146.5 69.5t141.5 80.5t118 97.5t83.5 130
t30.5 169q0 214 -162 340.5t-438 126.5q-375 0 -631 -219z" />
    <glyph glyph-name="three" unicode="3" horiz-adv-x="1460" 
d="M1280 1167l-305 -264q89 -18 158.5 -55t111 -80.5t68 -97.5t36 -102.5t9.5 -98.5q0 -99 -39.5 -186.5t-116 -157.5t-202 -111t-285.5 -41q-202 0 -386 63t-294 167l207 276q212 -172 465 -172q130 0 198 45t68 113q0 66 -63 112t-177 46q-115 0 -194 -43l-152 172
l449 395h-697v328h1141v-308z" />
    <glyph glyph-name="four" unicode="4" horiz-adv-x="1554" 
d="M1251 608h205v-319h-205v-289h-366v289h-817v297l729 889h454v-867zM885 1102l-400 -494h400v494z" />
    <glyph glyph-name="five" unicode="5" horiz-adv-x="1482" 
d="M819 981q259 0 417.5 -137t158.5 -357q0 -231 -175 -372.5t-470 -141.5q-198 0 -384 63.5t-290 164.5l209 274q93 -75 216.5 -121.5t241.5 -46.5q119 0 193 47.5t74 132.5q0 83 -69.5 133t-188.5 50q-165 0 -293 -95h-295l100 900h1024v-328h-723l-33 -238q115 72 287 72
z" />
    <glyph glyph-name="six" unicode="6" horiz-adv-x="1550" 
d="M870 981q257 0 419.5 -139.5t162.5 -356.5q0 -225 -175.5 -368.5t-455.5 -143.5q-151 0 -279.5 46.5t-226.5 137.5t-153.5 236.5t-55.5 331.5q0 191 59 340.5t164.5 244t246 143t309.5 48.5q299 0 499 -139l-167 -293q-170 105 -340 105q-163 0 -275 -90.5t-113 -231.5
q56 61 155.5 95t225.5 34zM801 301q120 0 193 55.5t73 135.5q0 79 -72.5 132.5t-189.5 53.5q-115 0 -191.5 -52t-76.5 -137q0 -84 74 -136t190 -52z" />
    <glyph glyph-name="seven" unicode="7" horiz-adv-x="1323" 
d="M63 1149v326h1190v-301q-223 -251 -364.5 -551.5t-188.5 -622.5h-413q67 324 208.5 620t352.5 529h-785z" />
    <glyph glyph-name="eight" unicode="8" horiz-adv-x="1572" 
d="M1208 762q75 -26 130 -66t84.5 -87t43 -93.5t13.5 -95.5q0 -88 -44 -167.5t-127.5 -142.5t-218 -100t-303.5 -37t-303.5 37t-218 100t-127 142.5t-43.5 167.5q0 49 13.5 95.5t43 93.5t84.5 87t130 66q-96 55 -138.5 135t-42.5 164q0 85 40 163.5t114 140.5t190.5 99
t257.5 37t257.5 -37t190.5 -99t114.5 -140.5t40.5 -163.5q0 -84 -42.5 -164t-138.5 -135zM786 1180q-101 0 -163 -42.5t-62 -105.5q0 -64 61.5 -104.5t163.5 -40.5t164 40.5t62 104.5q0 63 -62.5 105.5t-163.5 42.5zM786 297q131 0 219.5 43t88.5 109q0 65 -87 103t-221 38
t-220.5 -38t-86.5 -103q0 -66 88 -109t219 -43z" />
    <glyph glyph-name="nine" unicode="9" horiz-adv-x="1550" 
d="M729 1501q151 0 279.5 -46.5t226.5 -137t153.5 -236t55.5 -331.5q0 -191 -59 -341t-164 -244t-245.5 -143t-309.5 -49q-298 0 -500 140l168 293q170 -105 340 -105q163 0 274.5 90.5t112.5 231.5q-56 -61 -155.5 -95t-225.5 -34q-257 0 -419.5 139t-162.5 356
q0 225 175.5 368.5t455.5 143.5zM745 797q115 0 192 52t77 136t-74 136.5t-190 52.5q-120 0 -193.5 -55t-73.5 -134q0 -80 72.5 -134t189.5 -54z" />
    <glyph glyph-name="colon" unicode=":" horiz-adv-x="694" 
d="M348 649q-97 0 -159 61t-62 158q0 95 62 156t159 61t158 -61t61 -156q0 -97 -61 -158t-158 -61zM348 -18q-97 0 -159 61t-62 158q0 95 62 156t159 61t158 -61t61 -156q0 -97 -61 -158t-158 -61z" />
    <glyph glyph-name="semicolon" unicode=";" horiz-adv-x="702" 
d="M360 649q-97 0 -159 61t-62 158q0 95 62 156t159 61t158.5 -61t61.5 -156q0 -97 -61.5 -158t-158.5 -61zM330 -305h-264l120 643h383z" />
    <glyph glyph-name="less" unicode="&#x3c;" horiz-adv-x="1341" 
d="M121 858l1063 416v-336l-566 -201l566 -198v-336l-1063 415v240z" />
    <glyph glyph-name="equal" unicode="=" horiz-adv-x="1341" 
d="M1208 831h-1075v308h1075v-308zM1208 332h-1075v307h1075v-307z" />
    <glyph glyph-name="greater" unicode="&#x3e;" horiz-adv-x="1341" 
d="M158 938v336l1063 -416v-240l-1063 -415v336l565 198z" />
    <glyph glyph-name="question" unicode="?" horiz-adv-x="1206" 
d="M57 1036h367q3 59 51.5 101.5t126.5 42.5q60 0 98.5 -27.5t38.5 -69.5q0 -31 -23 -58.5t-90 -85.5q-13 -11 -20 -17q-103 -90 -148.5 -165t-45.5 -190v-49h354v19q0 43 30.5 85.5t139.5 141.5q68 63 107.5 108.5t66.5 106t27 127.5q0 169 -141.5 282t-385.5 113
q-126 0 -231 -37t-174.5 -100.5t-107.5 -147.5t-40 -180zM590 -18q-97 0 -159 61t-62 158q0 95 62 156t159 61t158 -61t61 -156q0 -97 -61 -158t-158 -61z" />
    <glyph glyph-name="at" unicode="@" horiz-adv-x="1990" 
d="M1223 926v63h254v-553q0 -88 92 -88q78 0 124 64.5t46 195.5q0 140 -56 259.5t-152 201.5t-226.5 128t-276.5 46q-204 0 -371 -85t-262.5 -235t-95.5 -335q0 -188 100.5 -340.5t274.5 -238t387 -85.5q230 0 407 105l101 -168q-84 -60 -217 -95.5t-287 -35.5
q-202 0 -383 66.5t-312 180t-207.5 273t-76.5 338.5q0 176 74 334t200 271t299.5 179t364.5 66q248 0 458 -105t335 -293.5t125 -418.5q0 -223 -115 -341t-295 -118q-93 0 -163 31.5t-101 85.5q-104 -127 -287 -127q-191 0 -320 123.5t-129 306.5q0 184 128.5 306t318.5 122
q150 0 244 -84zM1016 375q94 0 156.5 59.5t62.5 147.5t-62.5 146t-156.5 58q-93 0 -156 -58.5t-63 -145.5q0 -88 63.5 -147.5t155.5 -59.5z" />
    <glyph glyph-name="A" unicode="A" horiz-adv-x="1640" 
d="M1632 0h-393l-111 299h-620l-111 -299h-389l578 1475h467zM817 1141l-192 -525h387z" />
    <glyph glyph-name="B" unicode="B" horiz-adv-x="1636" 
d="M1305 807q72 -26 123.5 -68.5t78 -94.5t38 -102.5t11.5 -105.5q0 -199 -141.5 -317.5t-396.5 -118.5h-852v1475h792q232 0 353 -112t121 -292q0 -171 -127 -264zM903 1163h-368v-262h383q61 0 101 33.5t40 97.5q0 131 -156 131zM535 311h456q189 0 189 142
q0 65 -41.5 103t-114.5 38h-489v-283z" />
    <glyph glyph-name="C" unicode="C" horiz-adv-x="1601" 
d="M936 -27q-183 0 -341.5 58.5t-269 160.5t-173 243t-62.5 302t63 302t173 243t267.5 160.5t338.5 58.5q192 0 355 -62t263 -182l-237 -262q-88 89 -176 126.5t-193 37.5q-201 0 -331 -121t-130 -301q0 -181 130 -301.5t333 -120.5q220 0 377 160l238 -256
q-101 -124 -267 -185t-358 -61z" />
    <glyph glyph-name="D" unicode="D" horiz-adv-x="1726" 
d="M842 1475q187 0 339.5 -59.5t250 -161t150 -234.5t52.5 -283t-52.5 -282.5t-150 -234.5t-250 -161t-339.5 -59h-676v1475h676zM543 332h295q99 0 177 32t127 88t74 128.5t25 156.5q0 114 -43 204t-136 146t-224 56h-295v-811z" />
    <glyph glyph-name="E" unicode="E" horiz-adv-x="1511" 
d="M543 326h866l43 -326h-1286v1475h1266l-43 -326h-846v-231h583v-330h-583v-262z" />
    <glyph glyph-name="F" unicode="F" horiz-adv-x="1443" 
d="M1386 1475v-328h-843v-252h571v-330h-571v-565h-377v1475h1220z" />
    <glyph glyph-name="G" unicode="G" horiz-adv-x="1732" 
d="M1610 887v-742q-100 -75 -265.5 -123.5t-367.5 -48.5q-194 0 -359.5 56.5t-281 156.5t-181 240.5t-65.5 304.5q0 224 110.5 400t304 273t435.5 97q200 0 364.5 -56.5t278.5 -160.5l-211 -270q-190 151 -430 151q-125 0 -230 -54t-167 -153t-62 -221q0 -188 140.5 -308
t361.5 -120q137 0 254 43v207h-381v328h752z" />
    <glyph glyph-name="H" unicode="H" horiz-adv-x="1779" 
d="M1237 965v510h377v-1475h-377v627h-694v-627h-377v1475h377v-510h694z" />
    <glyph glyph-name="I" unicode="I" horiz-adv-x="708" 
d="M166 0v1475h377v-1475h-377z" />
    <glyph glyph-name="J" unicode="J" horiz-adv-x="1353" 
d="M825 512v963h377v-963q0 -166 -76 -289.5t-205 -186.5t-292 -63q-264 0 -424 151.5t-160 422.5h367q0 -123 61 -177.5t154 -54.5q90 0 144 53t54 144z" />
    <glyph glyph-name="K" unicode="K" horiz-adv-x="1654" 
d="M1667 0h-446l-433 641l-245 -242v-399h-377v1475h377v-650l637 650h448l-581 -576z" />
    <glyph glyph-name="L" unicode="L" horiz-adv-x="1411" 
d="M543 1475v-1139h817v-336h-1194v1475h377z" />
    <glyph glyph-name="M" unicode="M" horiz-adv-x="2134" 
d="M1968 1475v-1475h-366v1010l-412 -996h-250l-408 965v-979h-366v1475h508l401 -955l385 955h508z" />
    <glyph glyph-name="N" unicode="N" horiz-adv-x="1734" 
d="M1198 551v924h371v-1475h-379l-653 940v-940h-371v1475h391z" />
    <glyph glyph-name="O" unicode="O" horiz-adv-x="1798" 
d="M899 -27q174 0 324.5 56.5t257 156.5t167 242.5t60.5 308.5t-60.5 308.5t-167 242.5t-257 156.5t-324.5 56.5t-324.5 -56.5t-257 -156.5t-167 -242.5t-60.5 -308.5t60.5 -308.5t167 -242.5t257 -156.5t324.5 -56.5zM899 1157q183 0 299.5 -116.5t116.5 -303.5
t-116.5 -303.5t-299.5 -116.5t-299.5 116.5t-116.5 303.5t116.5 303.5t299.5 116.5z" />
    <glyph glyph-name="P" unicode="P" horiz-adv-x="1556" 
d="M954 1475q132 0 236.5 -37.5t170.5 -104t100 -153t34 -187.5t-34 -188t-100 -153t-170.5 -104t-236.5 -38h-411v-510h-377v1475h788zM543 844h403q80 0 124 38.5t44 110.5t-44 111t-124 39h-403v-299z" />
    <glyph glyph-name="Q" unicode="Q" horiz-adv-x="1814" 
d="M1722 737q0 -173 -64.5 -317.5t-182.5 -247.5l172 -217l-248 -193l-203 254q-133 -43 -291 -43q-232 0 -418 96.5t-291.5 271.5t-105.5 396t105.5 396t291.5 271.5t418 96.5q175 0 326.5 -56.5t259.5 -156.5t169.5 -242.5t61.5 -308.5zM905 313q35 0 53 2l-131 164
l246 195l166 -209q90 114 90 272q0 186 -120 303t-304 117q-183 0 -302.5 -117t-119.5 -303t119.5 -305t302.5 -119z" />
    <glyph glyph-name="R" unicode="R" horiz-adv-x="1656" 
d="M1618 0h-432l-359 539h-288v-539h-373v1475h840q154 0 268.5 -65t170.5 -170t56 -234q0 -148 -74.5 -263.5t-209.5 -167.5zM956 1147h-417v-285h417q74 0 118 39.5t44 104.5q0 64 -44 102.5t-118 38.5z" />
    <glyph glyph-name="S" unicode="S" horiz-adv-x="1521" 
d="M772 -20q-216 0 -407 62t-306 171l226 276q205 -182 489 -182q122 0 191 39.5t69 97.5q0 90 -143 111l-316 49q-458 72 -458 428q0 214 170.5 340.5t480.5 126.5q182 0 354.5 -52t290.5 -159l-213 -272q-200 155 -424 155q-120 0 -193 -33t-73 -81q0 -76 127 -96l356 -58
q223 -36 331 -148t108 -280q0 -227 -175.5 -361t-484.5 -134z" />
    <glyph glyph-name="T" unicode="T" horiz-adv-x="1447" 
d="M1399 1475v-338h-486v-1137h-378v1137h-486v338h1350z" />
    <glyph glyph-name="U" unicode="U" horiz-adv-x="1679" 
d="M840 -27q-320 0 -505 163.5t-185 447.5v891h378v-852q0 -150 79.5 -228t232.5 -78q311 0 311 306v852h379v-891q0 -285 -184 -448t-506 -163z" />
    <glyph glyph-name="V" unicode="V" horiz-adv-x="1583" 
d="M799 401l368 1074h404l-551 -1475h-457l-551 1475h414z" />
    <glyph glyph-name="W" unicode="W" horiz-adv-x="2365" 
d="M1647 389l313 1086h391l-479 -1475h-455l-235 907l-234 -907h-454l-478 1475h406l309 -1092l266 1085h385z" />
    <glyph glyph-name="X" unicode="X" horiz-adv-x="1542" 
d="M1004 772l542 -772h-440l-334 481l-338 -481h-434l545 762l-516 713h442l301 -422l299 422h434z" />
    <glyph glyph-name="Y" unicode="Y" horiz-adv-x="1540" 
d="M1126 1475h416l-579 -981v-494h-381v489l-588 986h424l358 -637z" />
    <glyph glyph-name="Z" unicode="Z" horiz-adv-x="1495" 
d="M1374 1171l-794 -845h825v-326h-1315v299l799 850h-760v326h1245v-304z" />
    <glyph glyph-name="bracketleft" unicode="[" horiz-adv-x="843" 
d="M762 1608v-301h-260v-1291h260v-301h-592v1893h592z" />
    <glyph glyph-name="backslash" unicode="\" horiz-adv-x="1163" 
d="M41 1608h324l759 -1893h-323z" />
    <glyph glyph-name="bracketright" unicode="]" horiz-adv-x="843" 
d="M674 1608v-1893h-592v301h260v1291h-260v301h592z" />
    <glyph glyph-name="asciicircum" unicode="^" horiz-adv-x="1341" 
d="M887 1475l346 -791h-363l-200 498l-203 -498h-361l347 791h434z" />
    <glyph glyph-name="underscore" unicode="_" horiz-adv-x="1091" 
d="M-2 -334v277h1096v-277h-1096z" />
    <glyph glyph-name="grave" unicode="`" horiz-adv-x="1187" 
d="M229 1573v22h420l193 -364h-334z" />
    <glyph glyph-name="a" unicode="a" horiz-adv-x="1390" 
d="M1300 274q20 0 48 7v-267q-45 -22 -136 -22q-211 0 -288 143q-129 -160 -402 -160q-131 0 -234.5 37.5t-169 120t-65.5 199.5q0 182 154 285.5t438 103.5h234q-11 77 -72.5 120.5t-165.5 43.5q-181 0 -340 -111l-168 258q110 79 249 114.5t277 35.5q267 0 414.5 -126.5
t147.5 -353.5v-350q0 -39 22.5 -58.5t56.5 -19.5zM571 246q50 0 98.5 13t93 39.5t75.5 73t39 107.5h-220q-136 0 -189.5 -37t-53.5 -88q0 -45 39 -76.5t118 -31.5z" />
    <glyph glyph-name="b" unicode="b" horiz-adv-x="1515" 
d="M848 1182q176 0 312.5 -81.5t208 -218.5t71.5 -304t-71.5 -304t-208 -219t-312.5 -82q-226 0 -363 154v-127h-340v1540h365v-487q126 129 338 129zM782 299q128 0 208.5 79t80.5 200t-80.5 199.5t-208.5 78.5q-129 0 -206.5 -79.5t-77.5 -198.5t77.5 -199t206.5 -80z" />
    <glyph glyph-name="c" unicode="c" horiz-adv-x="1277" 
d="M748 -27q-157 0 -286 47.5t-213 129.5t-129.5 190t-45.5 231q0 126 48 238t134 194.5t212.5 130.5t276.5 48q161 0 285.5 -52.5t200.5 -134.5l-211 -258q-119 119 -272 119q-123 0 -214.5 -75.5t-91.5 -202.5q0 -128 91.5 -203.5t218.5 -75.5q73 0 145.5 27t128.5 82
l209 -256q-77 -79 -199 -129t-288 -50z" />
    <glyph glyph-name="d" unicode="d" horiz-adv-x="1515" 
d="M1006 1053v487h364v-1540h-340v127q-137 -154 -362 -154q-176 0 -312.5 82t-208 219t-71.5 304t71.5 304t208 218.5t312.5 81.5q212 0 338 -129zM733 299q129 0 207 80t78 199t-78 198.5t-207 79.5q-128 0 -208.5 -78.5t-80.5 -199.5t80.5 -200t208.5 -79z" />
    <glyph glyph-name="e" unicode="e" horiz-adv-x="1402" 
d="M1331 563q0 -58 -10 -106h-889q33 -90 117.5 -139.5t210.5 -49.5q86 0 154.5 26t152.5 87l186 -231q-75 -79 -201.5 -128t-295.5 -49q-160 0 -290.5 47.5t-214.5 129.5t-129.5 191t-45.5 234q0 122 43 231.5t122 193.5t200 133t266 49t264.5 -49.5t197 -134t120 -196.5
t42.5 -239zM709 881q-105 0 -177 -49t-102 -136h549q-27 88 -96.5 136.5t-173.5 48.5z" />
    <glyph glyph-name="f" unicode="f" horiz-adv-x="956" 
d="M774 1292q-85 0 -128.5 -31t-43.5 -79v-37h330v-293h-322v-852h-364v852h-195v303h195v31q0 170 125.5 275.5t341.5 105.5q146 0 219 -25v-264q-80 14 -158 14z" />
    <glyph glyph-name="g" unicode="g" horiz-adv-x="1490" 
d="M1006 1034v121h344v-1034q0 -156 -84 -272t-235 -177t-351 -61q-266 0 -510 102l115 283q202 -88 397 -88q141 0 222 54t81 153v88q-103 -125 -330 -125q-131 0 -239.5 42t-182 115.5t-113.5 173t-40 214.5q0 155 68.5 281.5t200.5 202t304 75.5q225 0 353 -148zM721 377
q119 0 193.5 69.5t74.5 176.5q0 108 -74.5 176.5t-193.5 68.5q-118 0 -195 -68t-77 -177q0 -108 77 -177t195 -69z" />
    <glyph glyph-name="h" unicode="h" horiz-adv-x="1454" 
d="M848 1182q213 0 343 -123.5t130 -327.5v-731h-365v647q0 102 -56.5 155.5t-158.5 53.5q-104 0 -167.5 -54t-63.5 -153v-649h-365v1540h365v-481q123 123 338 123z" />
    <glyph glyph-name="i" unicode="i" horiz-adv-x="655" 
d="M532 1432q0 -84 -58 -137.5t-146 -53.5q-89 0 -147 53.5t-58 137.5t58 137t147 53t146.5 -53t57.5 -137zM510 0h-365v1155h365v-1155z" />
    <glyph glyph-name="j" unicode="j" horiz-adv-x="671" 
d="M549 1432q0 -84 -58 -137.5t-147 -53.5t-147 53.5t-58 137.5t58 137t147 53t147 -53t58 -137zM104 -375q-91 0 -167 25v295q43 -11 92 -11q133 0 133 134v1087h364v-1143q0 -184 -111.5 -285.5t-310.5 -101.5z" />
    <glyph glyph-name="k" unicode="k" horiz-adv-x="1402" 
d="M1425 0h-413l-314 473l-188 -186v-287h-365v1540h365v-850l444 465h432l-446 -442z" />
    <glyph glyph-name="l" unicode="l" horiz-adv-x="737" 
d="M143 336v1204h365v-1149q0 -84 98 -84q40 0 90 17v-308q-77 -32 -188 -32q-167 0 -266 93t-99 259z" />
    <glyph glyph-name="m" unicode="m" horiz-adv-x="2152" 
d="M1554 1182q207 0 336 -123.5t129 -331.5v-727h-364v666q0 93 -49 142.5t-136 49.5q-86 0 -146 -48.5t-60 -141.5v-668h-365v666q0 93 -47 142.5t-133 49.5q-88 0 -148.5 -48.5t-60.5 -141.5v-668h-365v1155h344v-102q113 129 324 129q109 0 199.5 -40.5t152.5 -115.5
q71 81 175.5 118.5t213.5 37.5z" />
    <glyph glyph-name="n" unicode="n" horiz-adv-x="1454" 
d="M848 1182q213 0 343 -123.5t130 -327.5v-731h-365v647q0 102 -56.5 155.5t-158.5 53.5q-104 0 -167.5 -54t-63.5 -153v-649h-365v1155h344v-119q121 146 359 146z" />
    <glyph glyph-name="o" unicode="o" horiz-adv-x="1458" 
d="M729 -27q-146 0 -269.5 47.5t-207 129.5t-130 192.5t-46.5 235.5t46.5 235.5t130 192t207 129t269.5 47.5t269.5 -47.5t207 -129t130 -192t46.5 -235.5t-46.5 -235.5t-130 -192.5t-207 -129.5t-269.5 -47.5zM729 301q120 0 202.5 77t82.5 200t-82.5 199.5t-202.5 76.5
t-202.5 -76.5t-82.5 -199.5t82.5 -200t202.5 -77z" />
    <glyph glyph-name="p" unicode="p" horiz-adv-x="1515" 
d="M848 1182q176 0 312.5 -81.5t208 -218.5t71.5 -304t-71.5 -304t-208 -219t-312.5 -82q-212 0 -338 129v-471h-365v1524h344v-123q133 150 359 150zM782 299q128 0 208.5 79t80.5 200t-80.5 199.5t-208.5 78.5q-129 0 -206.5 -79.5t-77.5 -198.5t77.5 -199t206.5 -80z" />
    <glyph glyph-name="q" unicode="q" horiz-adv-x="1515" 
d="M1026 1032v123h344v-1524h-364v471q-126 -129 -338 -129q-176 0 -312.5 82t-208 219t-71.5 304t71.5 304t208 218.5t312.5 81.5q225 0 358 -150zM733 299q129 0 207 80t78 199t-78 198.5t-207 79.5q-128 0 -208.5 -78.5t-80.5 -199.5t80.5 -200t208.5 -79z" />
    <glyph glyph-name="r" unicode="r" horiz-adv-x="983" 
d="M840 1171q60 0 104 -12v-334q-65 11 -119 11q-68 0 -121 -12.5t-98.5 -42t-70.5 -86.5t-25 -138v-557h-365v1155h344v-156q49 89 145 130.5t206 41.5z" />
    <glyph glyph-name="s" unicode="s" horiz-adv-x="1269" 
d="M55 147l166 246q83 -63 198 -101t228 -38q96 0 146.5 26.5t50.5 63.5q0 45 -80 59l-277 43q-197 31 -293 123t-96 230q0 176 144 279.5t393 103.5q138 0 282 -35t263 -115l-164 -244q-72 47 -176 81t-199 34q-80 0 -136 -22.5t-56 -57.5q0 -45 122 -63l244 -35
q379 -55 379 -348q0 -187 -147 -295.5t-394 -108.5q-164 0 -331 46t-267 128z" />
    <glyph glyph-name="t" unicode="t" horiz-adv-x="1003" 
d="M776 313q78 0 164 29v-317q-89 -39 -223 -39q-241 0 -362.5 116t-121.5 330v420h-194v303h199v209l360 170v-379h332v-303h-332v-391q0 -148 178 -148z" />
    <glyph glyph-name="u" unicode="u" horiz-adv-x="1452" 
d="M942 506v649h365v-1155h-344v117q-64 -75 -158 -109.5t-199 -34.5q-213 0 -343 123.5t-130 327.5v731h365v-647q0 -102 56.5 -155.5t158.5 -53.5q103 0 166 54t63 153z" />
    <glyph glyph-name="v" unicode="v" horiz-adv-x="1372" 
d="M692 356l293 799h381l-463 -1155h-434l-463 1155h397z" />
    <glyph glyph-name="w" unicode="w" horiz-adv-x="2117" 
d="M1489 346l252 809h370l-413 -1155h-418l-219 666l-219 -666h-424l-412 1155h387l250 -817l252 811h344z" />
    <glyph glyph-name="x" unicode="x" horiz-adv-x="1325" 
d="M872 600l457 -600h-426l-244 336l-249 -336h-412l453 586l-433 569h426l224 -305l227 305h412z" />
    <glyph glyph-name="y" unicode="y" horiz-adv-x="1368" 
d="M698 389l289 766h381l-524 -1214q-137 -320 -461 -320q-78 0 -169 19.5t-163 58.5l99 291q133 -56 221 -56q92 0 143 78l-516 1143h397z" />
    <glyph glyph-name="z" unicode="z" horiz-adv-x="1234" 
d="M1130 893l-579 -596h600v-297h-1067v262l580 596h-553v297h1019v-262z" />
    <glyph glyph-name="braceleft" unicode="{" horiz-adv-x="937" 
d="M856 1305h-88q-82 0 -122 -43.5t-40 -102.5q0 -40 6 -117t6 -116q0 -196 -215 -264q215 -68 215 -265q0 -39 -6 -116t-6 -117q0 -59 40 -102.5t122 -43.5h88v-303h-117q-231 0 -351 118.5t-120 320.5q0 25 6.5 98t6.5 115q0 71 -45.5 100t-161.5 45v299q115 12 161 43.5
t46 101.5q0 42 -6.5 115t-6.5 98q0 202 120 320.5t351 118.5h117v-303z" />
    <glyph glyph-name="bar" unicode="|" horiz-adv-x="628" 
d="M170 -285v1893h289v-1893h-289z" />
    <glyph glyph-name="braceright" unicode="}" horiz-adv-x="937" 
d="M657 956q0 -70 46 -101.5t161 -43.5v-299q-116 -16 -161.5 -45t-45.5 -100q0 -42 6.5 -115t6.5 -98q0 -202 -120 -320.5t-351 -118.5h-117v303h88q82 0 122 43.5t40 102.5q0 40 -6.5 117t-6.5 116q0 197 216 265q-216 68 -216 264q0 39 6.5 116t6.5 117q0 59 -40 102.5
t-122 43.5h-88v303h117q231 0 351 -118.5t120 -320.5q0 -25 -6.5 -98t-6.5 -115z" />
    <glyph glyph-name="asciitilde" unicode="~" horiz-adv-x="1341" 
d="M879 502q-64 0 -121 16t-96 39t-72 45.5t-62 38.5t-51 16q-34 0 -50.5 -30t-20.5 -117h-314q5 213 98.5 333t276.5 120q79 0 149 -24.5t109.5 -53.5t78.5 -53.5t64 -24.5q38 0 55 29.5t23 117.5h314q-6 -212 -100.5 -332t-280.5 -120z" />
    <glyph glyph-name="uni00A0" unicode="&#xa0;" horiz-adv-x="620" 
 />
    <glyph glyph-name="exclamdown" unicode="&#xa1;" horiz-adv-x="671" 
d="M336 1493q97 0 158 -61t61 -158q0 -95 -61 -156t-158 -61t-159 61t-62 156q0 97 62 158t159 61zM131 0l86 956h238l86 -956h-410z" />
    <glyph glyph-name="cent" unicode="&#xa2;" horiz-adv-x="1312" 
d="M1040 408l209 -256q-148 -151 -393 -175v-202h-207v205q-175 21 -304 106t-193 210t-64 275q0 234 153.5 403t407.5 202v196h207v-196q127 -13 226.5 -62t162.5 -119l-211 -258q-81 81 -178 107v-535q104 22 184 99zM457 578q0 -96 53 -164t139 -97v521
q-85 -30 -138.5 -97.5t-53.5 -162.5z" />
    <glyph glyph-name="sterling" unicode="&#xa3;" horiz-adv-x="1499" 
d="M616 326h787v-326h-1266v301q256 105 256 244q0 10 -4 30h-283v277h132q-37 82 -37 180q0 210 158.5 339.5t443.5 129.5q95 0 177.5 -15.5t156 -51t126.5 -89t85 -135t36 -184.5h-370q-11 76 -68.5 112t-146.5 36q-94 0 -147.5 -39t-53.5 -109q0 -65 61 -174h523v-277
h-400v-8q0 -26 -7 -53.5t-23.5 -61t-51.5 -67t-84 -59.5z" />
    <glyph glyph-name="currency" unicode="&#xa4;" horiz-adv-x="1409" 
d="M1231 737q0 -133 -66 -252l140 -137l-201 -198l-139 137q-126 -66 -260 -66q-137 0 -259 66l-139 -137l-201 198l140 135q-68 120 -68 254q0 133 66 252l-138 137l201 199l139 -137q120 65 259 65q136 0 260 -65l139 137l201 -199l-140 -137q66 -119 66 -252zM705 520
q94 0 159.5 63t65.5 154t-65.5 154t-159.5 63q-93 0 -159.5 -63.5t-66.5 -153.5t66.5 -153.5t159.5 -63.5z" />
    <glyph glyph-name="yen" unicode="&#xa5;" horiz-adv-x="1570" 
d="M1106 1475h403l-342 -594h224v-222h-353l-73 -129h10v-20h416v-221h-416v-289h-375v289h-414v221h414v20h4l-74 129h-344v222h215l-342 594h408l319 -578z" />
    <glyph glyph-name="brokenbar" unicode="&#xa6;" horiz-adv-x="628" 
d="M170 770v838h289v-838h-289zM170 -285v838h289v-838h-289z" />
    <glyph glyph-name="section" unicode="&#xa7;" horiz-adv-x="1398" 
d="M1182 248q86 -86 86 -219q0 -193 -154.5 -304.5t-415.5 -111.5q-175 0 -347 48t-263 118l174 276q101 -68 219.5 -99.5t223.5 -31.5q96 0 143 24.5t47 61.5q0 40 -107 68l-274 72q-207 54 -303 160.5t-96 246.5q0 175 137 287q-107 104 -107 248q0 181 156 295t428 114
q307 0 545 -153l-172 -269q-74 46 -178 79.5t-203 33.5q-98 0 -152.5 -32.5t-54.5 -74.5q0 -36 66 -55l409 -127q141 -44 223 -141.5t82 -239.5q0 -167 -112 -274zM459 614q0 -48 38.5 -84t129.5 -63l280 -80l8 -2q37 46 37 92q0 50 -40 84t-99 51l-309 97q-45 -40 -45 -95z
" />
    <glyph glyph-name="dieresis" unicode="&#xa8;" horiz-adv-x="1163" 
d="M313 1229q-90 0 -146 52t-56 136q0 83 57.5 137t144.5 54q85 0 143 -54t58 -137q0 -84 -56.5 -136t-144.5 -52zM829 1229q-90 0 -146 52t-56 136q0 83 57.5 137t144.5 54q85 0 143 -54t58 -137q0 -84 -56.5 -136t-144.5 -52z" />
    <glyph glyph-name="copyright" unicode="&#xa9;" horiz-adv-x="1910" 
d="M956 -74q-182 0 -343.5 64.5t-275.5 173.5t-180.5 259t-66.5 316q0 165 66.5 314.5t180.5 258.5t275.5 173.5t343.5 64.5q181 0 342 -64.5t275.5 -173.5t181 -258.5t66.5 -314.5q0 -166 -66.5 -316t-181 -259t-275.5 -173.5t-342 -64.5zM956 115q191 0 341.5 78
t235.5 220.5t85 325.5q0 182 -85 324.5t-235.5 220.5t-341.5 78q-143 0 -266.5 -46t-210.5 -127t-136.5 -197.5t-49.5 -252.5q0 -183 84.5 -325.5t235.5 -220.5t343 -78zM993 369q-183 0 -300.5 108t-117.5 271q0 158 117.5 265t298.5 107q98 0 178.5 -33t130.5 -98
l-133 -149q-46 46 -84 64t-84 18q-87 0 -141.5 -50.5t-54.5 -123.5q0 -79 54 -131t142 -52q94 0 168 82l138 -149q-53 -63 -134.5 -96t-177.5 -33z" />
    <glyph glyph-name="ordfeminine" unicode="&#xaa;" horiz-adv-x="1275" 
d="M1126 776q10 0 37 6v-239q-44 -17 -98 -17q-184 0 -256 111q-109 -125 -328 -125q-102 0 -186.5 30.5t-139.5 98.5t-55 162q0 152 142 238.5t397 86.5h123q-13 54 -61 81.5t-119 27.5q-137 0 -271 -86l-147 229q91 64 206.5 93.5t225.5 29.5q217 0 342 -104t125 -293
v-272q0 -58 63 -58zM512 758q37 0 74.5 9t73 26.5t62.5 48.5t38 71h-113q-69 0 -119 -8.5t-76 -23t-37.5 -30t-11.5 -32.5q0 -25 25.5 -43t83.5 -18z" />
    <glyph glyph-name="guillemotleft" unicode="&#xab;" horiz-adv-x="1296" 
d="M369 1044h344l-295 -466l295 -465h-344l-303 465zM868 1044h344l-294 -466l294 -465h-344l-303 465z" />
    <glyph glyph-name="logicalnot" unicode="&#xac;" horiz-adv-x="1341" 
d="M94 799v319h1120v-766h-323v447h-797z" />
    <glyph glyph-name="uni00AD" unicode="&#xad;" horiz-adv-x="847" 
d="M94 500l43 340h619l-43 -340h-619z" />
    <glyph glyph-name="registered" unicode="&#xae;" horiz-adv-x="1339" 
d="M670 1501q155 0 285.5 -75.5t206 -206t75.5 -285.5t-75.5 -285t-206 -205t-285.5 -75t-285 75t-205.5 205t-75.5 285q0 116 44.5 221t120 181t180.5 120.5t221 44.5zM670 479q188 0 318 132.5t130 322.5t-130 322.5t-318 132.5q-186 0 -316.5 -132.5t-130.5 -322.5
t130.5 -322.5t316.5 -132.5zM918 1030q0 -48 -24 -88.5t-65 -60.5l129 -195h-161l-115 178h-86v-178h-145v510h303q73 0 118.5 -49t45.5 -117zM725 1073h-129v-86h129q20 0 32.5 12t12.5 31t-12.5 31t-32.5 12z" />
    <glyph glyph-name="macron" unicode="&#xaf;" horiz-adv-x="1187" 
d="M1034 1270h-725v274h725v-274z" />
    <glyph glyph-name="degree" unicode="&#xb0;" horiz-adv-x="962" 
d="M481 748q-170 0 -283.5 106t-113.5 270t113.5 270.5t283.5 106.5t284 -106.5t114 -270.5t-114 -270t-284 -106zM481 977q65 0 108.5 42t43.5 105t-43.5 105.5t-108.5 42.5q-64 0 -107.5 -42.5t-43.5 -105.5t43 -105t108 -42z" />
    <glyph glyph-name="plusminus" unicode="&#xb1;" horiz-adv-x="1341" 
d="M831 1380v-313h394v-305h-394v-313h-321v313h-393v305h393v313h321zM1225 20h-1108v308h1108v-308z" />
    <glyph glyph-name="uni00B2" unicode="&#xb2;" horiz-adv-x="956" 
d="M82 1417l151 -192q54 49 118 69.5t118 20.5q51 0 82 -18.5t31 -51.5q0 -29 -28.5 -56t-74 -51.5t-100.5 -52t-110 -64.5t-100.5 -82t-74 -112.5t-28.5 -148.5v-43h802v239h-415q23 12 63.5 31.5t69 33.5t67 35.5t65 41t55 47.5t46 56.5t28.5 66.5t11 80
q0 133 -100.5 211.5t-280.5 78.5q-234 0 -395 -139z" />
    <glyph glyph-name="uni00B3" unicode="&#xb3;" horiz-adv-x="954" 
d="M831 1321l-163 -137q59 -14 102 -43.5t65.5 -67.5t33 -75.5t10.5 -75.5q0 -59 -25 -112t-73.5 -96.5t-129.5 -69.5t-184 -26q-135 0 -249.5 40t-178.5 104l141 203q133 -105 285 -105q69 0 104 20.5t35 53.5q0 31 -32 52.5t-91 21.5q-77 0 -112 -29l-109 111l246 215
h-410v235h735v-219z" />
    <glyph glyph-name="acute" unicode="&#xb4;" horiz-adv-x="1187" 
d="M1061 1591v-22l-299 -334h-332l213 356h418z" />
    <glyph glyph-name="uni00B5" unicode="&#xb5;" horiz-adv-x="1495" 
d="M971 506v649h364v-1155h-344v119q-121 -146 -358 -146q-45 0 -109 11v-353h-364v1524h364v-647q0 -102 56.5 -155.5t158.5 -53.5q104 0 168 54t64 153z" />
    <glyph glyph-name="paragraph" unicode="&#xb6;" horiz-adv-x="1527" 
d="M1343 1475v-1719h-266v1473h-194v-1473h-265v875h-90q-114 0 -204.5 32.5t-147.5 90t-87 133.5t-30 166q0 187 121.5 304.5t347.5 117.5h815z" />
    <glyph glyph-name="periodcentered" unicode="&#xb7;" horiz-adv-x="643" 
d="M322 633q-97 0 -159.5 61.5t-62.5 157.5q0 95 62.5 156t159.5 61t158 -61t61 -156q0 -97 -61 -158t-158 -61z" />
    <glyph glyph-name="cedilla" unicode="&#xb8;" horiz-adv-x="1163" 
d="M766 -55q111 0 177.5 -57t66.5 -136q0 -91 -92 -146t-252 -55q-178 0 -318 70l80 129q72 -31 118 -43t97 -12q55 0 83 16t28 41q0 26 -29 45t-80 19q-53 0 -104 -9l-47 27l155 209h193l-97 -98h21z" />
    <glyph glyph-name="uni00B9" unicode="&#xb9;" horiz-adv-x="698" 
d="M336 1540h229v-905h-266v549q-87 -56 -240 -92v233q219 57 277 215z" />
    <glyph glyph-name="ordmasculine" unicode="&#xba;" horiz-adv-x="1277" 
d="M639 508q-121 0 -222.5 39t-170 106t-106.5 158t-38 193q0 103 38 193.5t106.5 158t170 106.5t222.5 39t222.5 -39t170 -106.5t106.5 -158t38 -193.5q0 -102 -38 -193t-106.5 -158t-170 -106t-222.5 -39zM639 793q93 0 157 58.5t64 152.5q0 96 -64 154.5t-157 58.5
q-92 0 -156.5 -59t-64.5 -154q0 -94 64.5 -152.5t156.5 -58.5z" />
    <glyph glyph-name="guillemotright" unicode="&#xbb;" horiz-adv-x="1296" 
d="M84 1044h344l303 -466l-303 -465h-344l295 465zM584 1044h344l303 -466l-303 -465h-344l295 465z" />
    <glyph glyph-name="onequarter" unicode="&#xbc;" horiz-adv-x="2066" 
d="M567 1475v-906h-266v549q-87 -56 -240 -92v234q219 57 277 215h229zM344 0l995 1475h252l-995 -1475h-252zM1876 412h121v-232h-121v-176h-262v176h-498v213l434 516h326v-497zM1614 643l-191 -231h191v231z" />
    <glyph glyph-name="onehalf" unicode="&#xbd;" horiz-adv-x="2146" 
d="M567 1475v-906h-266v549q-87 -56 -240 -92v234q219 57 277 215h229zM344 0l995 1475h252l-995 -1475h-252zM1645 244h415v-240h-803v43q0 93 38.5 169t95.5 122t124.5 86t124.5 66t95.5 58t38.5 66q0 33 -31 51.5t-82 18.5q-54 0 -118 -20.5t-118 -69.5l-151 192
q162 140 395 140q180 0 280.5 -79t100.5 -212q0 -42 -11 -79.5t-28.5 -66.5t-46 -56.5t-55 -47t-64.5 -41t-67 -35.5t-69 -33.5t-64 -31.5z" />
    <glyph glyph-name="threequarters" unicode="&#xbe;" horiz-adv-x="2281" 
d="M901 856q0 -59 -25 -112t-73.5 -96.5t-129.5 -69t-184 -25.5q-136 0 -250 39.5t-178 103.5l142 203q132 -104 284 -104q69 0 104.5 20.5t35.5 52.5q0 31 -32 52.5t-91 21.5q-39 0 -70 -9.5t-43 -19.5l-108 111l245 215h-409v236h735v-220l-164 -137q59 -14 102 -43.5
t65.5 -67.5t33 -75.5t10.5 -75.5zM553 0l995 1475h252l-995 -1475h-252zM2091 412h121v-232h-121v-176h-262v176h-498v213l434 516h326v-497zM1829 643l-191 -231h191v231z" />
    <glyph glyph-name="questiondown" unicode="&#xbf;" horiz-adv-x="1206" 
d="M616 1493q97 0 159.5 -61.5t62.5 -157.5q0 -95 -62.5 -156t-159.5 -61t-158 61t-61 156q0 97 61 158t158 61zM1149 438h-367q-3 -59 -51.5 -101t-126.5 -42q-60 0 -98.5 27.5t-38.5 68.5q0 32 23.5 59.5t94.5 89.5q10 8 15 13q69 61 106.5 104t63 106.5t25.5 143.5v49
h-355v-18q0 -43 -30.5 -85.5t-139.5 -141.5q-103 -94 -151.5 -169.5t-48.5 -172.5q0 -169 141 -282.5t385 -113.5q126 0 231 37t174.5 100.5t107.5 147.5t40 180z" />
    <glyph glyph-name="Agrave" unicode="&#xc0;" horiz-adv-x="1640" 
d="M821 1937l193 -364h-334l-279 342v22h420zM1632 0h-393l-111 299h-620l-111 -299h-389l578 1475h467zM817 1141l-192 -525h387z" />
    <glyph glyph-name="Aacute" unicode="&#xc1;" horiz-adv-x="1640" 
d="M1249 1933v-22l-299 -334h-332l213 356h418zM1632 0h-393l-111 299h-620l-111 -299h-389l578 1475h467zM817 1141l-192 -525h387z" />
    <glyph glyph-name="Acircumflex" unicode="&#xc2;" horiz-adv-x="1640" 
d="M930 1595l-109 125l-110 -125h-312l232 338h379l229 -338h-309zM1632 0h-393l-111 299h-620l-111 -299h-389l578 1475h467zM817 1141l-192 -525h387z" />
    <glyph glyph-name="Atilde" unicode="&#xc3;" horiz-adv-x="1640" 
d="M670 1683q-21 0 -30 -19t-13 -77h-269q6 166 81 262.5t223 96.5q61 0 115.5 -19t84.5 -41.5t57.5 -41.5t41.5 -19q25 0 35.5 19.5t13.5 78.5h270q-6 -166 -81.5 -262t-225.5 -96q-61 0 -114.5 18.5t-84 40.5t-59.5 40.5t-45 18.5zM1632 0h-393l-111 299h-620l-111 -299
h-389l578 1475h467zM817 1141l-192 -525h387z" />
    <glyph glyph-name="Adieresis" unicode="&#xc4;" horiz-adv-x="1640" 
d="M563 1571q-90 0 -146.5 52t-56.5 136q0 83 58 137t145 54q85 0 143 -54t58 -137q0 -84 -56.5 -136t-144.5 -52zM1079 1571q-90 0 -146 52t-56 136q0 83 57.5 137t144.5 54q85 0 143 -54t58 -137q0 -84 -56.5 -136t-144.5 -52zM1632 0h-393l-111 299h-620l-111 -299h-389
l578 1475h467zM817 1141l-192 -525h387z" />
    <glyph glyph-name="Aring" unicode="&#xc5;" horiz-adv-x="1640" 
d="M819 1577q-135 0 -227 80t-92 203t92 202.5t227 79.5t227.5 -79.5t92.5 -202.5t-92.5 -203t-227.5 -80zM819 1958q-42 0 -72 -27.5t-30 -70.5t30 -71t72 -28t72.5 28t30.5 71t-30 70.5t-73 27.5zM1632 0h-393l-111 299h-620l-111 -299h-389l578 1475h467zM817 1141
l-192 -525h387z" />
    <glyph glyph-name="AE" unicode="&#xc6;" horiz-adv-x="2351" 
d="M1438 326h811l43 -326h-1231v297h-520l-181 -297h-409l907 1475h1413l-43 -326h-790v-231h528v-330h-528v-262zM1061 1151l-322 -528h322v528z" />
    <glyph glyph-name="Ccedilla" unicode="&#xc7;" horiz-adv-x="1601" 
d="M1323 475l238 -256q-97 -119 -255 -180t-343 -66l-29 -28h20q111 0 177.5 -57t66.5 -136q0 -91 -92 -146t-252 -55q-177 0 -317 70l79 129q72 -31 118 -43t97 -12q55 0 83 16t28 41q0 27 -28.5 45.5t-79.5 18.5q-54 0 -105 -9l-47 27l111 150q-314 41 -508.5 250
t-194.5 503q0 161 63 302t173 243t267.5 160.5t338.5 58.5q192 0 355 -62t263 -182l-237 -262q-88 89 -176 126.5t-193 37.5q-201 0 -331 -121t-130 -301q0 -181 130 -301.5t333 -120.5q220 0 377 160z" />
    <glyph glyph-name="Egrave" unicode="&#xc8;" horiz-adv-x="1511" 
d="M799 1937l192 -364h-334l-278 342v22h420zM543 326h866l43 -326h-1286v1475h1266l-43 -326h-846v-231h583v-330h-583v-262z" />
    <glyph glyph-name="Eacute" unicode="&#xc9;" horiz-adv-x="1511" 
d="M1227 1933v-22l-299 -334h-332l213 356h418zM543 326h866l43 -326h-1286v1475h1266l-43 -326h-846v-231h583v-330h-583v-262z" />
    <glyph glyph-name="Ecircumflex" unicode="&#xca;" horiz-adv-x="1511" 
d="M907 1595l-108 125l-111 -125h-311l231 338h379l230 -338h-310zM543 326h866l43 -326h-1286v1475h1266l-43 -326h-846v-231h583v-330h-583v-262z" />
    <glyph glyph-name="Edieresis" unicode="&#xcb;" horiz-adv-x="1511" 
d="M541 1571q-90 0 -146.5 52t-56.5 136q0 83 58 137t145 54q85 0 142.5 -54t57.5 -137q0 -84 -56 -136t-144 -52zM1057 1571q-90 0 -146.5 52t-56.5 136q0 83 58 137t145 54q85 0 142.5 -54t57.5 -137q0 -84 -56 -136t-144 -52zM543 326h866l43 -326h-1286v1475h1266
l-43 -326h-846v-231h583v-330h-583v-262z" />
    <glyph glyph-name="Igrave" unicode="&#xcc;" horiz-adv-x="708" 
d="M-59 1915v22h419l193 -364h-334zM166 0v1475h377v-1475h-377z" />
    <glyph glyph-name="Iacute" unicode="&#xcd;" horiz-adv-x="708" 
d="M788 1933v-22l-299 -334h-331l213 356h417zM166 0v1475h377v-1475h-377z" />
    <glyph glyph-name="Icircumflex" unicode="&#xce;" horiz-adv-x="708" 
d="M469 1595l-109 125l-110 -125h-311l231 338h379l229 -338h-309zM543 0h-377v1475h377v-1475z" />
    <glyph glyph-name="Idieresis" unicode="&#xcf;" horiz-adv-x="708" 
d="M115 1571q-88 0 -144.5 52t-56.5 136q0 83 57 137t144 54q86 0 143 -54t57 -137q0 -84 -56 -136t-144 -52zM604 1571q-88 0 -144.5 52t-56.5 136q0 83 57 137t144 54t144 -54t57 -137q0 -84 -55.5 -136t-145.5 -52zM166 0v1475h377v-1475h-377z" />
    <glyph glyph-name="Eth" unicode="&#xd0;" horiz-adv-x="1748" 
d="M864 1475q187 0 339.5 -59.5t250.5 -161t150.5 -234.5t52.5 -283t-52.5 -283t-150.5 -234.5t-250.5 -160.5t-339.5 -59h-676v610h-116v299h116v566h676zM565 332h295q195 0 299.5 115t104.5 290q0 84 -25.5 157t-74 129t-127 88t-177.5 32h-295v-234h449v-299h-449v-278z
" />
    <glyph glyph-name="Ntilde" unicode="&#xd1;" horiz-adv-x="1734" 
d="M719 1683q-21 0 -30 -19t-13 -77h-268q6 167 80.5 263t222.5 96q61 0 115.5 -19t84.5 -41.5t57.5 -41.5t41.5 -19q25 0 35.5 19.5t13.5 78.5h270q-6 -166 -81.5 -262t-225.5 -96q-61 0 -114.5 18.5t-84 40.5t-59.5 40.5t-45 18.5zM1198 551v924h371v-1475h-379l-653 940
v-940h-371v1475h391z" />
    <glyph glyph-name="Ograve" unicode="&#xd2;" horiz-adv-x="1798" 
d="M481 1915v22h420l193 -364h-334zM899 -27q174 0 324.5 56.5t257 156.5t167 242.5t60.5 308.5t-60.5 308.5t-167 242.5t-257 156.5t-324.5 56.5t-324.5 -56.5t-257 -156.5t-167 -242.5t-60.5 -308.5t60.5 -308.5t167 -242.5t257 -156.5t324.5 -56.5zM899 1157
q183 0 299.5 -116.5t116.5 -303.5t-116.5 -303.5t-299.5 -116.5t-299.5 116.5t-116.5 303.5t116.5 303.5t299.5 116.5z" />
    <glyph glyph-name="Oacute" unicode="&#xd3;" horiz-adv-x="1798" 
d="M1329 1933v-22l-299 -334h-332l213 356h418zM899 -27q174 0 324.5 56.5t257 156.5t167 242.5t60.5 308.5t-60.5 308.5t-167 242.5t-257 156.5t-324.5 56.5t-324.5 -56.5t-257 -156.5t-167 -242.5t-60.5 -308.5t60.5 -308.5t167 -242.5t257 -156.5t324.5 -56.5zM899 1157
q183 0 299.5 -116.5t116.5 -303.5t-116.5 -303.5t-299.5 -116.5t-299.5 116.5t-116.5 303.5t116.5 303.5t299.5 116.5z" />
    <glyph glyph-name="Ocircumflex" unicode="&#xd4;" horiz-adv-x="1798" 
d="M1010 1595l-109 125l-110 -125h-312l232 338h379l229 -338h-309zM899 1501q174 0 324.5 -56.5t257 -156.5t167 -242.5t60.5 -308.5t-60.5 -308.5t-167 -242.5t-257 -156.5t-324.5 -56.5t-324.5 56.5t-257 156.5t-167 242.5t-60.5 308.5t60.5 308.5t167 242.5t257 156.5
t324.5 56.5zM899 317q183 0 299.5 116.5t116.5 303.5t-116.5 303.5t-299.5 116.5t-299.5 -116.5t-116.5 -303.5t116.5 -303.5t299.5 -116.5z" />
    <glyph glyph-name="Otilde" unicode="&#xd5;" horiz-adv-x="1798" 
d="M1053 1565q-61 0 -114.5 18.5t-84 40.5t-59.5 40.5t-45 18.5q-21 0 -30 -19t-13 -77h-269q6 167 80.5 263t222.5 96q61 0 115.5 -19t84.5 -41.5t57.5 -41.5t41.5 -19q26 0 36.5 20t13.5 78h270q-6 -166 -81.5 -262t-225.5 -96zM899 -27q174 0 324.5 56.5t257 156.5
t167 242.5t60.5 308.5t-60.5 308.5t-167 242.5t-257 156.5t-324.5 56.5t-324.5 -56.5t-257 -156.5t-167 -242.5t-60.5 -308.5t60.5 -308.5t167 -242.5t257 -156.5t324.5 -56.5zM899 1157q183 0 299.5 -116.5t116.5 -303.5t-116.5 -303.5t-299.5 -116.5t-299.5 116.5
t-116.5 303.5t116.5 303.5t299.5 116.5z" />
    <glyph glyph-name="Odieresis" unicode="&#xd6;" horiz-adv-x="1798" 
d="M643 1571q-90 0 -146.5 52t-56.5 136q0 83 58 137t145 54q85 0 143 -54t58 -137q0 -84 -56.5 -136t-144.5 -52zM1159 1571q-90 0 -146.5 52t-56.5 136q0 83 58 137t145 54q85 0 143 -54t58 -137q0 -84 -56.5 -136t-144.5 -52zM899 -27q174 0 324.5 56.5t257 156.5
t167 242.5t60.5 308.5t-60.5 308.5t-167 242.5t-257 156.5t-324.5 56.5t-324.5 -56.5t-257 -156.5t-167 -242.5t-60.5 -308.5t60.5 -308.5t167 -242.5t257 -156.5t324.5 -56.5zM899 1157q183 0 299.5 -116.5t116.5 -303.5t-116.5 -303.5t-299.5 -116.5t-299.5 116.5
t-116.5 303.5t116.5 303.5t299.5 116.5z" />
    <glyph glyph-name="multiply" unicode="&#xd7;" horiz-adv-x="1341" 
d="M672 520l-322 -321l-223 223l328 315l-328 312l223 225l322 -318l321 318l224 -225l-328 -312l328 -315l-224 -223z" />
    <glyph glyph-name="Oslash" unicode="&#xd8;" horiz-adv-x="1798" 
d="M1671 1624l-215 -315q120 -103 186 -249.5t66 -322.5q0 -166 -60.5 -308.5t-167 -242.5t-257 -156.5t-324.5 -56.5q-159 0 -307 50l-119 -175h-344l213 316q-121 105 -186.5 251t-65.5 322q0 166 60.5 308.5t167 242.5t257 156.5t324.5 56.5q164 0 309 -51l119 174h344z
M899 1161q-183 0 -301.5 -118.5t-118.5 -305.5q0 -153 84 -264l449 674q-49 14 -113 14zM899 315q183 0 301.5 118t118.5 304q0 149 -82 262l-449 -671q57 -13 111 -13z" />
    <glyph glyph-name="Ugrave" unicode="&#xd9;" horiz-adv-x="1679" 
d="M422 1915v22h420l192 -364h-334zM840 -27q-320 0 -505 163.5t-185 447.5v891h378v-852q0 -150 79.5 -228t232.5 -78q311 0 311 306v852h379v-891q0 -285 -184 -448t-506 -163z" />
    <glyph glyph-name="Uacute" unicode="&#xda;" horiz-adv-x="1679" 
d="M1270 1933v-22l-299 -334h-332l213 356h418zM840 -27q-320 0 -505 163.5t-185 447.5v891h378v-852q0 -150 79.5 -228t232.5 -78q311 0 311 306v852h379v-891q0 -285 -184 -448t-506 -163z" />
    <glyph glyph-name="Ucircumflex" unicode="&#xdb;" horiz-adv-x="1679" 
d="M950 1595l-108 125l-111 -125h-311l231 338h379l230 -338h-310zM1151 623v852h379v-891q0 -285 -184 -448t-506 -163q-320 0 -505 163.5t-185 447.5v891h378v-852q0 -150 79.5 -228t232.5 -78q311 0 311 306z" />
    <glyph glyph-name="Udieresis" unicode="&#xdc;" horiz-adv-x="1679" 
d="M584 1571q-90 0 -146.5 52t-56.5 136q0 83 58 137t145 54q85 0 142.5 -54t57.5 -137q0 -84 -56 -136t-144 -52zM1100 1571q-90 0 -146.5 52t-56.5 136q0 83 58 137t145 54q85 0 142.5 -54t57.5 -137q0 -84 -56 -136t-144 -52zM840 -27q-320 0 -505 163.5t-185 447.5v891
h378v-852q0 -150 79.5 -228t232.5 -78q311 0 311 306v852h379v-891q0 -285 -184 -448t-506 -163z" />
    <glyph glyph-name="Yacute" unicode="&#xdd;" horiz-adv-x="1540" 
d="M1194 1933v-22l-299 -334h-332l213 356h418zM1126 1475h416l-579 -981v-494h-381v489l-588 986h424l358 -637z" />
    <glyph glyph-name="Thorn" unicode="&#xde;" horiz-adv-x="1568" 
d="M543 1237h405q132 0 236.5 -37.5t170.5 -103.5t100 -152.5t34 -187.5t-34 -188t-100 -153.5t-170.5 -104.5t-236.5 -38h-405v-272h-377v1475h377v-238zM543 606h397q80 0 124 39t44 111t-44 110.5t-124 38.5h-397v-299z" />
    <glyph glyph-name="germandbls" unicode="&#xdf;" horiz-adv-x="1519" 
d="M510 0v1026q0 96 62.5 157.5t164.5 61.5q71 0 117.5 -30.5t46.5 -77.5q0 -25 -20.5 -55.5t-87.5 -108.5q-34 -41 -51 -65t-31.5 -62t-14.5 -80q0 -133 129 -215l160 -100q88 -55 88 -103q0 -59 -112 -59q-138 0 -316 65v-319q141 -55 334 -55q224 0 348.5 99t124.5 269
q0 102 -48 183t-147 151l-135 96q-35 24 -35 45q0 11 11.5 26.5t54.5 61.5q62 67 91.5 126.5t29.5 131.5q0 168 -145 283t-386 115q-267 0 -432.5 -145.5t-165.5 -385.5v-1036h365z" />
    <glyph glyph-name="agrave" unicode="&#xe0;" horiz-adv-x="1390" 
d="M676 1618l192 -365h-333l-279 342v23h420zM1300 274q20 0 48 7v-267q-45 -22 -136 -22q-211 0 -288 143q-129 -160 -402 -160q-131 0 -234.5 37.5t-169 120t-65.5 199.5q0 182 154 285.5t438 103.5h234q-11 77 -72.5 120.5t-165.5 43.5q-181 0 -340 -111l-168 258
q110 79 249 114.5t277 35.5q267 0 414.5 -126.5t147.5 -353.5v-350q0 -39 22.5 -58.5t56.5 -19.5zM571 246q50 0 98.5 13t93 39.5t75.5 73t39 107.5h-220q-136 0 -189.5 -37t-53.5 -88q0 -45 39 -76.5t118 -31.5z" />
    <glyph glyph-name="aacute" unicode="&#xe1;" horiz-adv-x="1390" 
d="M1104 1614v-23l-299 -334h-332l213 357h418zM1300 274q20 0 48 7v-267q-45 -22 -136 -22q-211 0 -288 143q-129 -160 -402 -160q-131 0 -234.5 37.5t-169 120t-65.5 199.5q0 182 154 285.5t438 103.5h234q-11 77 -72.5 120.5t-165.5 43.5q-181 0 -340 -111l-168 258
q110 79 249 114.5t277 35.5q267 0 414.5 -126.5t147.5 -353.5v-350q0 -39 22.5 -58.5t56.5 -19.5zM571 246q50 0 98.5 13t93 39.5t75.5 73t39 107.5h-220q-136 0 -189.5 -37t-53.5 -88q0 -45 39 -76.5t118 -31.5z" />
    <glyph glyph-name="acircumflex" unicode="&#xe2;" horiz-adv-x="1390" 
d="M784 1276l-108 125l-111 -125h-311l231 338h379l230 -338h-310zM1300 274q20 0 48 7v-267q-45 -22 -136 -22q-211 0 -288 143q-129 -160 -402 -160q-131 0 -234.5 37.5t-169 120t-65.5 199.5q0 182 154 285.5t438 103.5h234q-11 77 -72.5 120.5t-165.5 43.5
q-181 0 -340 -111l-168 258q110 79 249 114.5t277 35.5q267 0 414.5 -126.5t147.5 -353.5v-350q0 -39 22.5 -58.5t56.5 -19.5zM571 246q50 0 98.5 13t93 39.5t75.5 73t39 107.5h-220q-136 0 -189.5 -37t-53.5 -88q0 -45 39 -76.5t118 -31.5z" />
    <glyph glyph-name="atilde" unicode="&#xe3;" horiz-adv-x="1390" 
d="M524 1364q-21 0 -30 -19t-13 -77h-268q6 166 80.5 262t222.5 96q61 0 115.5 -19t84.5 -41.5t57.5 -41.5t41.5 -19q25 0 35.5 20t13.5 79h271q-6 -166 -82 -262.5t-226 -96.5q-61 0 -114.5 18.5t-84 41t-59.5 41t-45 18.5zM1300 274q20 0 48 7v-267q-45 -22 -136 -22
q-211 0 -288 143q-129 -160 -402 -160q-131 0 -234.5 37.5t-169 120t-65.5 199.5q0 182 154 285.5t438 103.5h234q-11 77 -72.5 120.5t-165.5 43.5q-181 0 -340 -111l-168 258q110 79 249 114.5t277 35.5q267 0 414.5 -126.5t147.5 -353.5v-350q0 -39 22.5 -58.5t56.5 -19.5
zM571 246q50 0 98.5 13t93 39.5t75.5 73t39 107.5h-220q-136 0 -189.5 -37t-53.5 -88q0 -45 39 -76.5t118 -31.5z" />
    <glyph glyph-name="adieresis" unicode="&#xe4;" horiz-adv-x="1390" 
d="M418 1251q-90 0 -146.5 52.5t-56.5 136.5q0 83 58 136.5t145 53.5q85 0 142.5 -53.5t57.5 -136.5q0 -84 -56 -136.5t-144 -52.5zM934 1251q-90 0 -146.5 52.5t-56.5 136.5q0 83 58 136.5t145 53.5q86 0 143.5 -53.5t57.5 -136.5q0 -84 -56.5 -136.5t-144.5 -52.5z
M1300 274q20 0 48 7v-267q-45 -22 -136 -22q-211 0 -288 143q-129 -160 -402 -160q-131 0 -234.5 37.5t-169 120t-65.5 199.5q0 182 154 285.5t438 103.5h234q-11 77 -72.5 120.5t-165.5 43.5q-181 0 -340 -111l-168 258q110 79 249 114.5t277 35.5q267 0 414.5 -126.5
t147.5 -353.5v-350q0 -39 22.5 -58.5t56.5 -19.5zM571 246q50 0 98.5 13t93 39.5t75.5 73t39 107.5h-220q-136 0 -189.5 -37t-53.5 -88q0 -45 39 -76.5t118 -31.5z" />
    <glyph glyph-name="aring" unicode="&#xe5;" horiz-adv-x="1390" 
d="M674 1257q-135 0 -227.5 80t-92.5 203t92.5 203t227.5 80t227 -80t92 -203t-92 -203t-227 -80zM674 1638q-43 0 -73 -27.5t-30 -70.5t30 -70.5t73 -27.5q42 0 72 27.5t30 70.5t-30 70.5t-72 27.5zM1300 274q20 0 48 7v-267q-45 -22 -136 -22q-211 0 -288 143
q-129 -160 -402 -160q-131 0 -234.5 37.5t-169 120t-65.5 199.5q0 182 154 285.5t438 103.5h234q-11 77 -72.5 120.5t-165.5 43.5q-181 0 -340 -111l-168 258q110 79 249 114.5t277 35.5q267 0 414.5 -126.5t147.5 -353.5v-350q0 -39 22.5 -58.5t56.5 -19.5zM571 246
q50 0 98.5 13t93 39.5t75.5 73t39 107.5h-220q-136 0 -189.5 -37t-53.5 -88q0 -45 39 -76.5t118 -31.5z" />
    <glyph glyph-name="ae" unicode="&#xe6;" horiz-adv-x="2226" 
d="M2154 567q0 -60 -10 -108h-856q31 -96 112.5 -147.5t205.5 -51.5q82 0 149 26.5t146 88.5l180 -225q-169 -177 -473 -177q-200 0 -336.5 76t-206.5 211q-55 -126 -200 -205.5t-337 -79.5q-134 0 -239.5 39.5t-170.5 122.5t-65 199q0 178 151.5 277.5t440.5 99.5h211
q-9 81 -69.5 126.5t-163.5 45.5q-179 0 -334 -111l-160 250q105 77 238.5 112t267.5 35q344 0 465 -215q70 107 185.5 166.5t273.5 59.5q185 0 322 -84.5t205 -222.5t68 -308zM1552 891q-102 0 -171 -52t-97 -145h537q-25 92 -96 144.5t-173 52.5zM551 240q52 0 100.5 13.5
t91.5 40.5t73 74.5t38 110.5h-197q-272 0 -272 -123q0 -49 39 -82.5t127 -33.5z" />
    <glyph glyph-name="ccedilla" unicode="&#xe7;" horiz-adv-x="1280" 
d="M1028 408l209 -256q-165 -168 -457 -179l-28 -28h20q111 0 177.5 -57t66.5 -136q0 -91 -92 -146t-252 -55q-178 0 -318 70l80 129q72 -31 118 -43t97 -12q55 0 83 16t28 41q0 26 -29 45t-80 19q-53 0 -104 -9l-47 27l110 150q-126 19 -227.5 72.5t-168 131.5t-102.5 176
t-36 207q0 126 48 238t134 194.5t213 130.5t277 48q161 0 285 -52.5t200 -134.5l-211 -258q-119 119 -272 119q-123 0 -214.5 -75.5t-91.5 -202.5q0 -128 91.5 -203.5t218.5 -75.5q73 0 145.5 27t128.5 82z" />
    <glyph glyph-name="egrave" unicode="&#xe8;" horiz-adv-x="1402" 
d="M717 1618l192 -365h-334l-278 342v23h420zM1331 563q0 -58 -10 -106h-889q33 -90 117.5 -139.5t210.5 -49.5q86 0 154.5 26t152.5 87l186 -231q-75 -79 -201.5 -128t-295.5 -49q-160 0 -290.5 47.5t-214.5 129.5t-129.5 191t-45.5 234q0 122 43 231.5t122 193.5t200 133
t266 49t264.5 -49.5t197 -134t120 -196.5t42.5 -239zM709 881q-105 0 -177 -49t-102 -136h549q-27 88 -96.5 136.5t-173.5 48.5z" />
    <glyph glyph-name="eacute" unicode="&#xe9;" horiz-adv-x="1402" 
d="M1145 1614v-23l-299 -334h-332l213 357h418zM1331 563q0 -58 -10 -106h-889q33 -90 117.5 -139.5t210.5 -49.5q86 0 154.5 26t152.5 87l186 -231q-75 -79 -201.5 -128t-295.5 -49q-160 0 -290.5 47.5t-214.5 129.5t-129.5 191t-45.5 234q0 122 43 231.5t122 193.5
t200 133t266 49t264.5 -49.5t197 -134t120 -196.5t42.5 -239zM709 881q-105 0 -177 -49t-102 -136h549q-27 88 -96.5 136.5t-173.5 48.5z" />
    <glyph glyph-name="ecircumflex" unicode="&#xea;" horiz-adv-x="1402" 
d="M825 1276l-108 125l-111 -125h-311l231 338h379l230 -338h-310zM1331 563q0 -58 -10 -106h-889q33 -90 117.5 -139.5t210.5 -49.5q86 0 154.5 26t152.5 87l186 -231q-75 -79 -201.5 -128t-295.5 -49q-160 0 -290.5 47.5t-214.5 129.5t-129.5 191t-45.5 234
q0 122 43 231.5t122 193.5t200 133t266 49t264.5 -49.5t197 -134t120 -196.5t42.5 -239zM709 881q-105 0 -177 -49t-102 -136h549q-27 88 -96.5 136.5t-173.5 48.5z" />
    <glyph glyph-name="edieresis" unicode="&#xeb;" horiz-adv-x="1402" 
d="M459 1251q-90 0 -146.5 52.5t-56.5 136.5q0 83 58 136.5t145 53.5q85 0 142.5 -53.5t57.5 -136.5q0 -84 -56 -136.5t-144 -52.5zM975 1251q-90 0 -146.5 52.5t-56.5 136.5q0 83 58 136.5t145 53.5q86 0 143.5 -53.5t57.5 -136.5q0 -84 -56.5 -136.5t-144.5 -52.5z
M1331 563q0 -58 -10 -106h-889q33 -90 117.5 -139.5t210.5 -49.5q86 0 154.5 26t152.5 87l186 -231q-75 -79 -201.5 -128t-295.5 -49q-160 0 -290.5 47.5t-214.5 129.5t-129.5 191t-45.5 234q0 122 43 231.5t122 193.5t200 133t266 49t264.5 -49.5t197 -134t120 -196.5
t42.5 -239zM709 881q-105 0 -177 -49t-102 -136h549q-27 88 -96.5 136.5t-173.5 48.5z" />
    <glyph glyph-name="igrave" unicode="&#xec;" horiz-adv-x="655" 
d="M520 1253h-334l-239 297v23h422zM510 0h-365v1155h365v-1155z" />
    <glyph glyph-name="iacute" unicode="&#xed;" horiz-adv-x="655" 
d="M758 1614v-23l-299 -334h-332l213 357h418zM510 0h-365v1155h365v-1155z" />
    <glyph glyph-name="icircumflex" unicode="&#xee;" horiz-adv-x="655" 
d="M438 1276l-108 125l-111 -125h-311l231 338h379l230 -338h-310zM510 0h-365v1155h365v-1155z" />
    <glyph glyph-name="idieresis" unicode="&#xef;" horiz-adv-x="655" 
d="M84 1251q-88 0 -144.5 52.5t-56.5 136.5q0 83 57 136.5t144 53.5t144 -53.5t57 -136.5q0 -84 -56.5 -136.5t-144.5 -52.5zM573 1251q-88 0 -144 52.5t-56 136.5q0 83 56.5 136.5t143.5 53.5t144 -53.5t57 -136.5q0 -85 -56 -137t-145 -52zM510 0h-365v1155h365v-1155z
" />
    <glyph glyph-name="eth" unicode="&#xf0;" horiz-adv-x="1443" 
d="M1212 1407l-208 -74q99 -89 171 -186t112 -191t58.5 -181t18.5 -173q0 -134 -43.5 -249t-124.5 -199.5t-203.5 -132.5t-273.5 -48q-150 0 -274 46.5t-204 125t-123.5 179.5t-43.5 213q0 152 77 281t211.5 205.5t294.5 76.5q152 0 244 -82q-74 111 -196 209l-343 -123
l-53 151l238 84q-87 54 -156 88l131 211q190 -88 332 -188l305 109zM719 301q121 0 197.5 66.5t76.5 171.5q0 107 -76 174t-198 67t-199.5 -67t-77.5 -174q0 -104 78 -171t199 -67z" />
    <glyph glyph-name="ntilde" unicode="&#xf1;" horiz-adv-x="1454" 
d="M588 1364q-21 0 -30 -19t-13 -77h-269q6 166 81 262t223 96q61 0 115.5 -19t84.5 -41.5t57.5 -41.5t41.5 -19q25 0 35.5 20t13.5 79h270q-6 -166 -81.5 -262.5t-225.5 -96.5q-61 0 -114.5 18.5t-84 41t-59.5 41t-45 18.5zM848 1182q213 0 343 -123.5t130 -327.5v-731
h-365v647q0 102 -56.5 155.5t-158.5 53.5q-104 0 -167.5 -54t-63.5 -153v-649h-365v1155h344v-119q121 146 359 146z" />
    <glyph glyph-name="ograve" unicode="&#xf2;" horiz-adv-x="1458" 
d="M311 1595v23h420l193 -365h-334zM729 -27q-146 0 -269.5 47.5t-207 129.5t-130 192.5t-46.5 235.5t46.5 235.5t130 192t207 129t269.5 47.5t269.5 -47.5t207 -129t130 -192t46.5 -235.5t-46.5 -235.5t-130 -192.5t-207 -129.5t-269.5 -47.5zM729 301q120 0 202.5 77
t82.5 200t-82.5 199.5t-202.5 76.5t-202.5 -76.5t-82.5 -199.5t82.5 -200t202.5 -77z" />
    <glyph glyph-name="oacute" unicode="&#xf3;" horiz-adv-x="1458" 
d="M1159 1614v-23l-299 -334h-332l213 357h418zM729 -27q-146 0 -269.5 47.5t-207 129.5t-130 192.5t-46.5 235.5t46.5 235.5t130 192t207 129t269.5 47.5t269.5 -47.5t207 -129t130 -192t46.5 -235.5t-46.5 -235.5t-130 -192.5t-207 -129.5t-269.5 -47.5zM729 301
q120 0 202.5 77t82.5 200t-82.5 199.5t-202.5 76.5t-202.5 -76.5t-82.5 -199.5t82.5 -200t202.5 -77z" />
    <glyph glyph-name="ocircumflex" unicode="&#xf4;" horiz-adv-x="1458" 
d="M840 1276l-109 125l-110 -125h-312l232 338h379l229 -338h-309zM729 1182q146 0 269.5 -47.5t207 -129t130 -192t46.5 -235.5t-46.5 -235.5t-130 -192.5t-207 -129.5t-269.5 -47.5t-269.5 47.5t-207 129.5t-130 192.5t-46.5 235.5t46.5 235.5t130 192t207 129t269.5 47.5
zM729 301q120 0 202.5 77t82.5 200t-82.5 199.5t-202.5 76.5t-202.5 -76.5t-82.5 -199.5t82.5 -200t202.5 -77z" />
    <glyph glyph-name="otilde" unicode="&#xf5;" horiz-adv-x="1458" 
d="M883 1245q-61 0 -114.5 18.5t-84 41t-59.5 41t-45 18.5q-21 0 -30 -19t-13 -77h-269q6 166 80.5 262t222.5 96q61 0 115.5 -19t84.5 -41.5t57.5 -41.5t41.5 -19q25 0 36 20t14 79h270q-6 -166 -81.5 -262.5t-225.5 -96.5zM729 -27q-146 0 -269.5 47.5t-207 129.5
t-130 192.5t-46.5 235.5t46.5 235.5t130 192t207 129t269.5 47.5t269.5 -47.5t207 -129t130 -192t46.5 -235.5t-46.5 -235.5t-130 -192.5t-207 -129.5t-269.5 -47.5zM729 301q120 0 202.5 77t82.5 200t-82.5 199.5t-202.5 76.5t-202.5 -76.5t-82.5 -199.5t82.5 -200
t202.5 -77z" />
    <glyph glyph-name="odieresis" unicode="&#xf6;" horiz-adv-x="1458" 
d="M473 1251q-90 0 -146.5 52.5t-56.5 136.5q0 83 58 136.5t145 53.5q86 0 143.5 -53.5t57.5 -136.5q0 -84 -56.5 -136.5t-144.5 -52.5zM989 1251q-90 0 -146.5 52.5t-56.5 136.5q0 83 58 136.5t145 53.5q86 0 143.5 -53.5t57.5 -136.5q0 -84 -56.5 -136.5t-144.5 -52.5z
M729 -27q-146 0 -269.5 47.5t-207 129.5t-130 192.5t-46.5 235.5t46.5 235.5t130 192t207 129t269.5 47.5t269.5 -47.5t207 -129t130 -192t46.5 -235.5t-46.5 -235.5t-130 -192.5t-207 -129.5t-269.5 -47.5zM729 301q120 0 202.5 77t82.5 200t-82.5 199.5t-202.5 76.5
t-202.5 -76.5t-82.5 -199.5t82.5 -200t202.5 -77z" />
    <glyph glyph-name="divide" unicode="&#xf7;" horiz-adv-x="1341" 
d="M672 1374q94 0 153.5 -55.5t59.5 -144.5q0 -88 -59.5 -144.5t-153.5 -56.5t-153.5 56.5t-59.5 144.5q0 89 59.5 144.5t153.5 55.5zM1227 584h-1110v307h1110v-307zM672 502q94 0 153.5 -56.5t59.5 -144.5q0 -89 -59.5 -145t-153.5 -56t-153.5 56t-59.5 145
q0 88 59.5 144.5t153.5 56.5z" />
    <glyph glyph-name="oslash" unicode="&#xf8;" horiz-adv-x="1458" 
d="M1370 1272l-176 -256q91 -82 139.5 -195.5t48.5 -242.5q0 -125 -46.5 -235.5t-130 -192.5t-207 -129.5t-269.5 -47.5q-126 0 -233 35l-86 -125h-320l176 254q-91 84 -140.5 197.5t-49.5 243.5q0 125 46.5 235.5t130 192t207 129t269.5 47.5q126 0 236 -35l86 125h319z
M729 874q-127 0 -215 -82.5t-88 -213.5q0 -93 47 -166l313 458q-36 4 -57 4zM729 281q127 0 215 83t88 214q0 91 -45 161l-311 -454q36 -4 53 -4z" />
    <glyph glyph-name="ugrave" unicode="&#xf9;" horiz-adv-x="1452" 
d="M719 1618l192 -365h-333l-279 342v23h420zM942 506v649h365v-1155h-344v117q-64 -75 -158 -109.5t-199 -34.5q-213 0 -343 123.5t-130 327.5v731h365v-647q0 -102 56.5 -155.5t158.5 -53.5q103 0 166 54t63 153z" />
    <glyph glyph-name="uacute" unicode="&#xfa;" horiz-adv-x="1452" 
d="M1147 1614v-23l-299 -334h-332l213 357h418zM942 506v649h365v-1155h-344v117q-64 -75 -158 -109.5t-199 -34.5q-213 0 -343 123.5t-130 327.5v731h365v-647q0 -102 56.5 -155.5t158.5 -53.5q103 0 166 54t63 153z" />
    <glyph glyph-name="ucircumflex" unicode="&#xfb;" horiz-adv-x="1452" 
d="M827 1276l-108 125l-111 -125h-311l231 338h379l230 -338h-310zM942 506v649h365v-1155h-344v117q-64 -75 -158 -109.5t-199 -34.5q-213 0 -343 123.5t-130 327.5v731h365v-647q0 -102 56.5 -155.5t158.5 -53.5q103 0 166 54t63 153z" />
    <glyph glyph-name="udieresis" unicode="&#xfc;" horiz-adv-x="1452" 
d="M461 1251q-90 0 -146.5 52.5t-56.5 136.5q0 83 58 136.5t145 53.5q86 0 143.5 -53.5t57.5 -136.5q0 -84 -56.5 -136.5t-144.5 -52.5zM977 1251q-90 0 -146.5 52.5t-56.5 136.5q0 83 58 136.5t145 53.5q86 0 143.5 -53.5t57.5 -136.5q0 -84 -56.5 -136.5t-144.5 -52.5z
M942 506v649h365v-1155h-344v117q-64 -75 -158 -109.5t-199 -34.5q-213 0 -343 123.5t-130 327.5v731h365v-647q0 -102 56.5 -155.5t158.5 -53.5q103 0 166 54t63 153z" />
    <glyph glyph-name="yacute" unicode="&#xfd;" horiz-adv-x="1368" 
d="M1116 1614v-23l-299 -334h-332l213 357h418zM698 389l289 766h381l-524 -1214q-137 -320 -461 -320q-78 0 -169 19.5t-163 58.5l99 291q133 -56 221 -56q92 0 143 78l-516 1143h397z" />
    <glyph glyph-name="thorn" unicode="&#xfe;" horiz-adv-x="1515" 
d="M848 1182q176 0 312.5 -81.5t208 -218.5t71.5 -304t-71.5 -304t-208 -219t-312.5 -82q-212 0 -338 129v-471h-365v1909h365v-487q126 129 338 129zM782 299q128 0 208.5 79t80.5 200t-80.5 199.5t-208.5 78.5q-129 0 -206.5 -79.5t-77.5 -198.5t77.5 -199t206.5 -80z" />
    <glyph glyph-name="ydieresis" unicode="&#xff;" horiz-adv-x="1368" 
d="M430 1251q-90 0 -146.5 52.5t-56.5 136.5q0 83 58 136.5t145 53.5q86 0 143.5 -53.5t57.5 -136.5q0 -84 -56.5 -136.5t-144.5 -52.5zM946 1251q-90 0 -146.5 52.5t-56.5 136.5q0 83 58 136.5t145 53.5q86 0 143.5 -53.5t57.5 -136.5q0 -84 -56.5 -136.5t-144.5 -52.5z
M698 389l289 766h381l-524 -1214q-137 -320 -461 -320q-78 0 -169 19.5t-163 58.5l99 291q133 -56 221 -56q92 0 143 78l-516 1143h397z" />
    <glyph glyph-name="Amacron" unicode="&#x100;" horiz-adv-x="1640" 
d="M457 1886h725v-274h-725v274zM1632 0h-393l-111 299h-620l-111 -299h-389l578 1475h467zM817 1141l-192 -525h387z" />
    <glyph glyph-name="amacron" unicode="&#x101;" horiz-adv-x="1390" 
d="M311 1567h725v-275h-725v275zM1300 274q20 0 48 7v-267q-45 -22 -136 -22q-211 0 -288 143q-129 -160 -402 -160q-131 0 -234.5 37.5t-169 120t-65.5 199.5q0 182 154 285.5t438 103.5h234q-11 77 -72.5 120.5t-165.5 43.5q-181 0 -340 -111l-168 258q110 79 249 114.5
t277 35.5q267 0 414.5 -126.5t147.5 -353.5v-350q0 -39 22.5 -58.5t56.5 -19.5zM571 246q50 0 98.5 13t93 39.5t75.5 73t39 107.5h-220q-136 0 -189.5 -37t-53.5 -88q0 -45 39 -76.5t118 -31.5z" />
    <glyph glyph-name="Abreve" unicode="&#x102;" horiz-adv-x="1640" 
d="M819 1565q-168 0 -273.5 97t-105.5 271h254q3 -53 38 -81.5t87 -28.5t87 28.5t38 81.5h256q0 -174 -106.5 -271t-274.5 -97zM1632 0h-393l-111 299h-620l-111 -299h-389l578 1475h467zM817 1141l-192 -525h387z" />
    <glyph glyph-name="abreve" unicode="&#x103;" horiz-adv-x="1390" 
d="M674 1245q-168 0 -273.5 97.5t-105.5 271.5h254q3 -53 38 -82t87 -29t87 29t38 82h256q0 -174 -106.5 -271.5t-274.5 -97.5zM1300 274q20 0 48 7v-267q-45 -22 -136 -22q-211 0 -288 143q-129 -160 -402 -160q-131 0 -234.5 37.5t-169 120t-65.5 199.5q0 182 154 285.5
t438 103.5h234q-11 77 -72.5 120.5t-165.5 43.5q-181 0 -340 -111l-168 258q110 79 249 114.5t277 35.5q267 0 414.5 -126.5t147.5 -353.5v-350q0 -39 22.5 -58.5t56.5 -19.5zM571 246q50 0 98.5 13t93 39.5t75.5 73t39 107.5h-220q-136 0 -189.5 -37t-53.5 -88
q0 -45 39 -76.5t118 -31.5z" />
    <glyph glyph-name="Aogonek" unicode="&#x104;" horiz-adv-x="1634" 
d="M1053 1475l569 -1452q-117 1 -203.5 -11.5t-131 -33.5t-65 -43t-20.5 -46q0 -26 20.5 -39.5t55.5 -13.5q53 0 102 21l86 -211q-83 -58 -239 -58q-152 0 -242 69.5t-90 186.5q0 90 69.5 181t215.5 133l-52 141h-620l-111 -299h-389l578 1475h467zM817 1141l-192 -525h387z
" />
    <glyph glyph-name="aogonek" unicode="&#x105;" horiz-adv-x="1382" 
d="M1264 -145l86 -217q-85 -50 -234 -50q-64 0 -120 14t-102.5 42t-73.5 76t-27 112q0 67 48.5 128.5t143.5 100.5q-41 30 -65 74q-129 -160 -402 -160q-96 0 -179 22t-147.5 65t-101.5 112.5t-37 157.5q0 183 156 286t450 103h213q-12 76 -73 119t-162 43q-179 0 -338 -111
l-166 260q109 79 247 114.5t275 35.5q265 0 411 -126t146 -354v-350q0 -38 25 -58t59 -20q15 0 43 7v-267q-145 -40 -192 -68t-47 -63q0 -24 20 -35.5t51 -11.5q41 0 93 19zM563 250q70 0 132.5 21.5t112.5 75t62 132.5h-198q-81 0 -138 -11.5t-84 -31.5t-38 -39.5
t-11 -42.5q0 -44 39.5 -74t122.5 -30z" />
    <glyph glyph-name="Cacute" unicode="&#x106;" horiz-adv-x="1601" 
d="M1317 1933v-22l-299 -334h-332l213 356h418zM936 -27q-183 0 -341.5 58.5t-269 160.5t-173 243t-62.5 302t63 302t173 243t267.5 160.5t338.5 58.5q192 0 355 -62t263 -182l-237 -262q-88 89 -176 126.5t-193 37.5q-201 0 -331 -121t-130 -301q0 -181 130 -301.5
t333 -120.5q220 0 377 160l238 -256q-101 -124 -267 -185t-358 -61z" />
    <glyph glyph-name="cacute" unicode="&#x107;" horiz-adv-x="1277" 
d="M1122 1614v-23l-299 -334h-331l213 357h417zM748 -27q-157 0 -286 47.5t-213 129.5t-129.5 190t-45.5 231q0 126 48 238t134 194.5t212.5 130.5t276.5 48q161 0 285.5 -52.5t200.5 -134.5l-211 -258q-119 119 -272 119q-123 0 -214.5 -75.5t-91.5 -202.5
q0 -128 91.5 -203.5t218.5 -75.5q73 0 145.5 27t128.5 82l209 -256q-77 -79 -199 -129t-288 -50z" />
    <glyph glyph-name="Ccircumflex" unicode="&#x108;" horiz-adv-x="1601" 
d="M997 1595l-108 125l-111 -125h-311l231 338h379l230 -338h-310zM1323 475l238 -256q-101 -124 -267 -185t-358 -61q-183 0 -341.5 58.5t-269 160.5t-173 243t-62.5 302t63 302t173 243t267.5 160.5t338.5 58.5q192 0 355 -62t263 -182l-237 -262q-88 89 -176 126.5
t-193 37.5q-201 0 -331 -121t-130 -301q0 -181 130 -301.5t333 -120.5q220 0 377 160z" />
    <glyph glyph-name="ccircumflex" unicode="&#x109;" horiz-adv-x="1277" 
d="M803 1276l-109 125l-110 -125h-312l232 338h379l229 -338h-309zM1026 408l209 -256q-77 -79 -199 -129t-288 -50q-157 0 -286 47.5t-213 129.5t-129.5 190t-45.5 231q0 126 48 238t134 194.5t212.5 130.5t276.5 48q161 0 285.5 -52.5t200.5 -134.5l-211 -258
q-119 119 -272 119q-123 0 -214.5 -75.5t-91.5 -202.5q0 -128 91.5 -203.5t218.5 -75.5q73 0 145.5 27t128.5 82z" />
    <glyph glyph-name="Cdotaccent" unicode="&#x10a;" horiz-adv-x="1601" 
d="M1092 1751q0 -84 -58 -137t-147 -53t-147 53t-58 137t58 137.5t147 53.5t147 -53.5t58 -137.5zM936 -27q-183 0 -341.5 58.5t-269 160.5t-173 243t-62.5 302t63 302t173 243t267.5 160.5t338.5 58.5q192 0 355 -62t263 -182l-237 -262q-88 89 -176 126.5t-193 37.5
q-201 0 -331 -121t-130 -301q0 -181 130 -301.5t333 -120.5q220 0 377 160l238 -256q-101 -124 -267 -185t-358 -61z" />
    <glyph glyph-name="cdotaccent" unicode="&#x10b;" horiz-adv-x="1277" 
d="M897 1432q0 -84 -58 -137.5t-147 -53.5t-147 53.5t-58 137.5t58 137t147 53t147 -53t58 -137zM748 -27q-157 0 -286 47.5t-213 129.5t-129.5 190t-45.5 231q0 126 48 238t134 194.5t212.5 130.5t276.5 48q161 0 285.5 -52.5t200.5 -134.5l-211 -258q-119 119 -272 119
q-123 0 -214.5 -75.5t-91.5 -202.5q0 -128 91.5 -203.5t218.5 -75.5q73 0 145.5 27t128.5 82l209 -256q-77 -79 -199 -129t-288 -50z" />
    <glyph glyph-name="Ccaron" unicode="&#x10c;" horiz-adv-x="1601" 
d="M1307 1933l-230 -338h-379l-231 338h311l111 -125l108 125h310zM1323 475l238 -256q-101 -124 -267 -185t-358 -61q-183 0 -341.5 58.5t-269 160.5t-173 243t-62.5 302t63 302t173 243t267.5 160.5t338.5 58.5q192 0 355 -62t263 -182l-237 -262q-88 89 -176 126.5
t-193 37.5q-201 0 -331 -121t-130 -301q0 -181 130 -301.5t333 -120.5q220 0 377 160z" />
    <glyph glyph-name="ccaron" unicode="&#x10d;" horiz-adv-x="1277" 
d="M1112 1614l-229 -338h-379l-232 338h312l110 -125l109 125h309zM1026 408l209 -256q-77 -79 -199 -129t-288 -50q-157 0 -286 47.5t-213 129.5t-129.5 190t-45.5 231q0 126 48 238t134 194.5t212.5 130.5t276.5 48q161 0 285.5 -52.5t200.5 -134.5l-211 -258
q-119 119 -272 119q-123 0 -214.5 -75.5t-91.5 -202.5q0 -128 91.5 -203.5t218.5 -75.5q73 0 145.5 27t128.5 82z" />
    <glyph glyph-name="Dcaron" unicode="&#x10e;" horiz-adv-x="1726" 
d="M1272 1933l-230 -338h-378l-232 338h311l111 -125l109 125h309zM842 1475q187 0 339.5 -59.5t250 -161t150 -234.5t52.5 -283t-52.5 -282.5t-150 -234.5t-250 -161t-339.5 -59h-676v1475h676zM543 332h295q99 0 177 32t127 88t74 128.5t25 156.5q0 114 -43 204t-136 146
t-224 56h-295v-811z" />
    <glyph glyph-name="dcaron" unicode="&#x10f;" horiz-adv-x="1654" 
d="M1006 1053v487h364v-1540h-340v127q-137 -154 -362 -154q-176 0 -312.5 82t-208 219t-71.5 304t71.5 304t208 218.5t312.5 81.5q212 0 338 -129zM1425 1090l25 450h313l-104 -450h-234zM733 299q129 0 207 80t78 199t-78 198.5t-207 79.5q-128 0 -208.5 -78.5
t-80.5 -199.5t80.5 -200t208.5 -79z" />
    <glyph glyph-name="Dcroat" unicode="&#x110;" horiz-adv-x="1748" 
d="M864 1475q187 0 339.5 -59.5t250.5 -161t150.5 -234.5t52.5 -283t-52.5 -283t-150.5 -234.5t-250.5 -160.5t-339.5 -59h-676v610h-116v299h116v566h676zM565 332h295q195 0 299.5 115t104.5 290q0 84 -25.5 157t-74 129t-127 88t-177.5 32h-295v-234h449v-299h-449v-278z
" />
    <glyph glyph-name="dcroat" unicode="&#x111;" horiz-adv-x="1501" 
d="M1356 1419h143v-221h-143v-1198h-348v102q-129 -129 -340 -129q-176 0 -312.5 80t-208 212t-71.5 290q0 159 72 291.5t208.5 212.5t311.5 80q197 0 323 -113v172h-346v221h346v121h365v-121zM723 297q122 0 201.5 73t79.5 185t-80.5 185t-202.5 73t-199.5 -72.5
t-77.5 -185.5t78 -185.5t201 -72.5z" />
    <glyph glyph-name="Emacron" unicode="&#x112;" horiz-adv-x="1511" 
d="M434 1886h725v-274h-725v274zM543 326h866l43 -326h-1286v1475h1266l-43 -326h-846v-231h583v-330h-583v-262z" />
    <glyph glyph-name="emacron" unicode="&#x113;" horiz-adv-x="1402" 
d="M352 1567h725v-275h-725v275zM1331 563q0 -58 -10 -106h-889q33 -90 117.5 -139.5t210.5 -49.5q86 0 154.5 26t152.5 87l186 -231q-75 -79 -201.5 -128t-295.5 -49q-160 0 -290.5 47.5t-214.5 129.5t-129.5 191t-45.5 234q0 122 43 231.5t122 193.5t200 133t266 49
t264.5 -49.5t197 -134t120 -196.5t42.5 -239zM709 881q-105 0 -177 -49t-102 -136h549q-27 88 -96.5 136.5t-173.5 48.5z" />
    <glyph glyph-name="Ebreve" unicode="&#x114;" horiz-adv-x="1511" 
d="M797 1565q-168 0 -273.5 97t-105.5 271h254q3 -53 38 -81.5t87 -28.5t87 28.5t38 81.5h256q0 -174 -106.5 -271t-274.5 -97zM543 326h866l43 -326h-1286v1475h1266l-43 -326h-846v-231h583v-330h-583v-262z" />
    <glyph glyph-name="ebreve" unicode="&#x115;" horiz-adv-x="1402" 
d="M715 1245q-168 0 -273.5 97.5t-105.5 271.5h254q3 -53 38 -82t87 -29t87 29t38 82h256q0 -174 -106.5 -271.5t-274.5 -97.5zM1331 563q0 -58 -10 -106h-889q33 -90 117.5 -139.5t210.5 -49.5q86 0 154.5 26t152.5 87l186 -231q-75 -79 -201.5 -128t-295.5 -49
q-160 0 -290.5 47.5t-214.5 129.5t-129.5 191t-45.5 234q0 122 43 231.5t122 193.5t200 133t266 49t264.5 -49.5t197 -134t120 -196.5t42.5 -239zM709 881q-105 0 -177 -49t-102 -136h549q-27 88 -96.5 136.5t-173.5 48.5z" />
    <glyph glyph-name="Edotaccent" unicode="&#x116;" horiz-adv-x="1511" 
d="M797 1561q-89 0 -147 53t-58 137t58 137.5t147 53.5q88 0 146 -53.5t58 -137.5t-57.5 -137t-146.5 -53zM543 326h866l43 -326h-1286v1475h1266l-43 -326h-846v-231h583v-330h-583v-262z" />
    <glyph glyph-name="edotaccent" unicode="&#x117;" horiz-adv-x="1402" 
d="M715 1241q-89 0 -147 53.5t-58 137.5t58 137t147 53t147 -53t58 -137t-58 -137.5t-147 -53.5zM1331 563q0 -58 -10 -106h-889q33 -90 117.5 -139.5t210.5 -49.5q86 0 154.5 26t152.5 87l186 -231q-75 -79 -201.5 -128t-295.5 -49q-160 0 -290.5 47.5t-214.5 129.5
t-129.5 191t-45.5 234q0 122 43 231.5t122 193.5t200 133t266 49t264.5 -49.5t197 -134t120 -196.5t42.5 -239zM709 881q-105 0 -177 -49t-102 -136h549q-27 88 -96.5 136.5t-173.5 48.5z" />
    <glyph glyph-name="Eogonek" unicode="&#x118;" horiz-adv-x="1511" 
d="M1225 -164q55 0 106 25l86 -211q-88 -62 -243 -62q-154 0 -246 68t-92 178q0 98 65 166h-735v1475h1266l-43 -326h-846v-231h583v-330h-583v-262h866l41 -306q-95 -13 -159 -29.5t-94.5 -34.5t-42 -33.5t-11.5 -33.5q0 -25 22.5 -39t59.5 -14z" />
    <glyph glyph-name="eogonek" unicode="&#x119;" horiz-adv-x="1402" 
d="M1331 563q0 -58 -10 -106h-885q32 -91 115 -140t203 -49q91 0 160 25.5t153 87.5l186 -231q-42 -45 -110 -84t-121.5 -61t-94 -53.5t-40.5 -66.5q0 -49 76 -49q59 0 110 25l86 -211q-88 -62 -258 -62q-90 0 -164 23t-123 76t-49 129q0 88 82 164q-180 19 -311 104
t-195.5 211.5t-64.5 279.5q0 122 43 231.5t122 193.5t200 133t266 49t264.5 -49.5t197 -134t120 -196.5t42.5 -239zM709 881q-103 0 -175 -49t-100 -136h545q-27 87 -97 136t-173 49z" />
    <glyph glyph-name="Ecaron" unicode="&#x11a;" horiz-adv-x="1511" 
d="M1217 1933l-230 -338h-379l-231 338h311l111 -125l108 125h310zM543 326h866l43 -326h-1286v1475h1266l-43 -326h-846v-231h583v-330h-583v-262z" />
    <glyph glyph-name="ecaron" unicode="&#x11b;" horiz-adv-x="1402" 
d="M1135 1614l-230 -338h-379l-231 338h311l111 -125l108 125h310zM1331 563q0 -58 -10 -106h-889q33 -90 117.5 -139.5t210.5 -49.5q86 0 154.5 26t152.5 87l186 -231q-75 -79 -201.5 -128t-295.5 -49q-160 0 -290.5 47.5t-214.5 129.5t-129.5 191t-45.5 234
q0 122 43 231.5t122 193.5t200 133t266 49t264.5 -49.5t197 -134t120 -196.5t42.5 -239zM709 881q-105 0 -177 -49t-102 -136h549q-27 88 -96.5 136.5t-173.5 48.5z" />
    <glyph glyph-name="Gcircumflex" unicode="&#x11c;" horiz-adv-x="1732" 
d="M1014 1595l-109 125l-110 -125h-312l232 338h379l229 -338h-309zM1610 887v-742q-100 -75 -265.5 -123.5t-367.5 -48.5q-194 0 -359.5 56.5t-281 156.5t-181 240.5t-65.5 304.5q0 224 110.5 400t304 273t435.5 97q200 0 364.5 -56.5t278.5 -160.5l-211 -270
q-190 151 -430 151q-125 0 -230 -54t-167 -153t-62 -221q0 -188 140.5 -308t361.5 -120q137 0 254 43v207h-381v328h752z" />
    <glyph glyph-name="gcircumflex" unicode="&#x11d;" horiz-adv-x="1490" 
d="M856 1276l-108 125l-111 -125h-311l231 338h379l229 -338h-309zM1006 1034v121h344v-1034q0 -156 -84 -272t-235 -177t-351 -61q-266 0 -510 102l115 283q202 -88 397 -88q141 0 222 54t81 153v88q-103 -125 -330 -125q-131 0 -239.5 42t-182 115.5t-113.5 173t-40 214.5
q0 155 68.5 281.5t200.5 202t304 75.5q225 0 353 -148zM721 377q119 0 193.5 69.5t74.5 176.5q0 108 -74.5 176.5t-193.5 68.5q-118 0 -195 -68t-77 -177q0 -108 77 -177t195 -69z" />
    <glyph glyph-name="Gbreve" unicode="&#x11e;" horiz-adv-x="1732" 
d="M903 1565q-168 0 -273.5 97t-105.5 271h254q3 -53 38 -81.5t87 -28.5t87 28.5t38 81.5h256q0 -174 -106.5 -271t-274.5 -97zM1610 887v-742q-100 -75 -265.5 -123.5t-367.5 -48.5q-194 0 -359.5 56.5t-281 156.5t-181 240.5t-65.5 304.5q0 224 110.5 400t304 273
t435.5 97q200 0 364.5 -56.5t278.5 -160.5l-211 -270q-190 151 -430 151q-125 0 -230 -54t-167 -153t-62 -221q0 -188 140.5 -308t361.5 -120q137 0 254 43v207h-381v328h752z" />
    <glyph glyph-name="gbreve" unicode="&#x11f;" horiz-adv-x="1490" 
d="M745 1245q-168 0 -273 97.5t-105 271.5h254q3 -53 37.5 -82t86.5 -29t87 29t38 82h256q0 -174 -106.5 -271.5t-274.5 -97.5zM1006 1034v121h344v-1034q0 -156 -84 -272t-235 -177t-351 -61q-266 0 -510 102l115 283q202 -88 397 -88q141 0 222 54t81 153v88
q-103 -125 -330 -125q-131 0 -239.5 42t-182 115.5t-113.5 173t-40 214.5q0 155 68.5 281.5t200.5 202t304 75.5q225 0 353 -148zM721 377q119 0 193.5 69.5t74.5 176.5q0 108 -74.5 176.5t-193.5 68.5q-118 0 -195 -68t-77 -177q0 -108 77 -177t195 -69z" />
    <glyph glyph-name="Gdotaccent" unicode="&#x120;" horiz-adv-x="1732" 
d="M903 1561q-89 0 -147 53t-58 137t58 137.5t147 53.5t147 -53.5t58 -137.5t-58 -137t-147 -53zM1610 887v-742q-100 -75 -265.5 -123.5t-367.5 -48.5q-194 0 -359.5 56.5t-281 156.5t-181 240.5t-65.5 304.5q0 224 110.5 400t304 273t435.5 97q200 0 364.5 -56.5
t278.5 -160.5l-211 -270q-190 151 -430 151q-125 0 -230 -54t-167 -153t-62 -221q0 -188 140.5 -308t361.5 -120q137 0 254 43v207h-381v328h752z" />
    <glyph glyph-name="gdotaccent" unicode="&#x121;" horiz-adv-x="1490" 
d="M745 1241q-88 0 -146 53.5t-58 137.5t57.5 137t146.5 53t147 -53t58 -137t-58 -137.5t-147 -53.5zM1006 1034v121h344v-1034q0 -156 -84 -272t-235 -177t-351 -61q-266 0 -510 102l115 283q202 -88 397 -88q141 0 222 54t81 153v88q-103 -125 -330 -125q-131 0 -239.5 42
t-182 115.5t-113.5 173t-40 214.5q0 155 68.5 281.5t200.5 202t304 75.5q225 0 353 -148zM721 377q119 0 193.5 69.5t74.5 176.5q0 108 -74.5 176.5t-193.5 68.5q-118 0 -195 -68t-77 -177q0 -108 77 -177t195 -69z" />
    <glyph glyph-name="uni0122" unicode="&#x122;" horiz-adv-x="1732" 
d="M1610 887v-742q-100 -75 -265.5 -123.5t-367.5 -48.5q-194 0 -359.5 56.5t-281 156.5t-181 240.5t-65.5 304.5q0 224 110.5 400t304 273t435.5 97q200 0 364.5 -56.5t278.5 -160.5l-211 -270q-190 151 -430 151q-125 0 -230 -54t-167 -153t-62 -221q0 -188 140.5 -308
t361.5 -120q137 0 254 43v207h-381v328h752zM942 -446h-262l88 354h383z" />
    <glyph glyph-name="uni0123" unicode="&#x123;" horiz-adv-x="1490" 
d="M743 1614h261l-89 -357h-383zM1006 1034v121h344v-1034q0 -156 -84 -272t-235 -177t-351 -61q-266 0 -510 102l115 283q202 -88 397 -88q141 0 222 54t81 153v88q-103 -125 -330 -125q-131 0 -239.5 42t-182 115.5t-113.5 173t-40 214.5q0 155 68.5 281.5t200.5 202
t304 75.5q225 0 353 -148zM721 377q119 0 193.5 69.5t74.5 176.5q0 108 -74.5 176.5t-193.5 68.5q-118 0 -195 -68t-77 -177q0 -108 77 -177t195 -69z" />
    <glyph glyph-name="Hcircumflex" unicode="&#x124;" horiz-adv-x="1779" 
d="M1001 1595l-108 125l-111 -125h-311l231 338h379l230 -338h-310zM1237 965v510h377v-1475h-377v627h-694v-627h-377v1475h377v-510h694z" />
    <glyph glyph-name="hcircumflex" unicode="&#x125;" horiz-adv-x="1454" 
d="M438 1593l-108 125l-111 -125h-311l231 338h379l230 -338h-310zM848 1182q213 0 343 -123.5t130 -327.5v-731h-365v647q0 102 -56.5 155.5t-158.5 53.5q-104 0 -167.5 -54t-63.5 -153v-649h-365v1540h365v-481q123 123 338 123z" />
    <glyph glyph-name="Hbar" unicode="&#x126;" horiz-adv-x="1849" 
d="M1649 1292h137v-256h-137v-1036h-377v551h-694v-551h-377v1036h-138v256h138v183h377v-183h694v183h377v-183zM578 877h694v159h-694v-159z" />
    <glyph glyph-name="hbar" unicode="&#x127;" horiz-adv-x="1449" 
d="M846 1141q211 0 341 -124t130 -327v-690h-365v606q0 102 -56 155.5t-157 53.5q-103 0 -166 -54t-63 -153v-608h-365v1206h-139v217h139v117h365v-117h336v-217h-336v-188q123 123 336 123z" />
    <glyph glyph-name="Itilde" unicode="&#x128;" horiz-adv-x="708" 
d="M481 1565q-61 0 -107.5 18.5t-68 40.5t-43.5 40.5t-39 18.5q-21 0 -30 -19t-13 -77h-243q14 359 294 359q50 0 90 -12.5t63 -30t40.5 -35.5t32.5 -30.5t28 -12.5q26 0 36.5 20t13.5 78h245q-14 -358 -299 -358zM166 0v1475h377v-1475h-377z" />
    <glyph glyph-name="itilde" unicode="&#x129;" horiz-adv-x="655" 
d="M451 1245q-50 0 -89.5 12.5t-63 29.5t-41.5 34.5t-33.5 30t-30.5 12.5q-21 0 -30 -19t-13 -77h-244q14 358 295 358q50 0 90 -12.5t63 -30t40.5 -35.5t32.5 -30.5t28 -12.5q25 0 35.5 20t13.5 79h246q-14 -359 -299 -359zM510 0h-365v1155h365v-1155z" />
    <glyph glyph-name="Imacron" unicode="&#x12a;" horiz-adv-x="708" 
d="M721 1612h-725v274h725v-274zM166 0v1475h377v-1475h-377z" />
    <glyph glyph-name="imacron" unicode="&#x12b;" horiz-adv-x="657" 
d="M641 1268h-618v274h618v-274zM512 0h-367v1133h367v-1133z" />
    <glyph glyph-name="Ibreve" unicode="&#x12c;" horiz-adv-x="708" 
d="M358 1565q-168 0 -273 97t-105 271h253q3 -53 38 -81.5t87 -28.5t87 28.5t38 81.5h256q0 -174 -106.5 -271t-274.5 -97zM166 0v1475h377v-1475h-377z" />
    <glyph glyph-name="ibreve" unicode="&#x12d;" horiz-adv-x="655" 
d="M328 1245q-168 0 -273.5 97.5t-105.5 271.5h254q3 -53 38 -82t87 -29t87 29t38 82h256q0 -174 -106.5 -271.5t-274.5 -97.5zM510 0h-365v1155h365v-1155z" />
    <glyph glyph-name="Iogonek" unicode="&#x12e;" horiz-adv-x="716" 
d="M565 -137l88 -211q-95 -64 -264 -64q-100 0 -177.5 24.5t-126 78.5t-48.5 131q0 131 131 209v1444h383v-1475q-88 -29 -135.5 -52t-59.5 -36t-12 -29q0 -47 92 -47q68 0 129 27z" />
    <glyph glyph-name="iogonek" unicode="&#x12f;" horiz-adv-x="659" 
d="M332 1241q-89 0 -147 53.5t-58 137.5t58 137t147 53t147 -53t58 -137t-58 -137.5t-147 -53.5zM520 -137l86 -211q-90 -64 -268 -64q-87 0 -159 23t-121.5 79.5t-49.5 139.5q0 60 36.5 114t105.5 95v1116h364v-1155h-2q-85 -29 -130.5 -52t-56 -36t-10.5 -29q0 -47 91 -47
q56 0 114 27z" />
    <glyph glyph-name="Idotaccent" unicode="&#x130;" horiz-adv-x="708" 
d="M563 1751q0 -84 -58 -137t-147 -53t-146.5 53t-57.5 137t58 137.5t146 53.5q89 0 147 -53.5t58 -137.5zM166 0v1475h377v-1475h-377z" />
    <glyph glyph-name="dotlessi" unicode="&#x131;" horiz-adv-x="655" 
d="M510 0h-365v1155h365v-1155z" />
    <glyph glyph-name="Jcircumflex" unicode="&#x134;" horiz-adv-x="1353" 
d="M1124 1595l-108 125l-111 -125h-311l231 338h379l230 -338h-310zM825 512v963h377v-963q0 -166 -76 -289.5t-205 -186.5t-292 -63q-264 0 -424 151.5t-160 422.5h367q0 -123 61 -177.5t154 -54.5q90 0 144 53t54 144z" />
    <glyph glyph-name="jcircumflex" unicode="&#x135;" horiz-adv-x="671" 
d="M455 1276l-109 125l-110 -125h-312l232 338h379l229 -338h-309zM162 68v1087h364v-1143q0 -184 -111.5 -285.5t-310.5 -101.5q-91 0 -167 25v295q43 -11 92 -11q133 0 133 134z" />
    <glyph glyph-name="uni0136" unicode="&#x136;" horiz-adv-x="1654" 
d="M1628 1475l-581 -576l620 -899h-446l-433 641l-245 -242v-399h-377v1475h377v-650l637 650h448zM848 -446h-262l88 354h383z" />
    <glyph glyph-name="uni0137" unicode="&#x137;" horiz-adv-x="1402" 
d="M1386 1155l-446 -442l485 -713h-413l-314 473l-188 -186v-287h-365v1540h365v-850l444 465h432zM737 -446h-262l88 354h383z" />
    <glyph glyph-name="kgreenlandic" unicode="&#x138;" horiz-adv-x="1402" 
d="M1425 0h-413l-314 473l-188 -186v-287h-365v1155h365v-465l444 465h432l-446 -442z" />
    <glyph glyph-name="Lacute" unicode="&#x139;" horiz-adv-x="1411" 
d="M764 1933v-22l-299 -334h-332l213 356h418zM543 1475v-1139h817v-336h-1194v1475h377z" />
    <glyph glyph-name="lacute" unicode="&#x13a;" horiz-adv-x="737" 
d="M743 1999v-23l-299 -334h-331l213 357h417zM143 336v1204h365v-1149q0 -84 98 -84q40 0 90 17v-308q-77 -32 -188 -32q-167 0 -266 93t-99 259z" />
    <glyph glyph-name="uni013B" unicode="&#x13b;" horiz-adv-x="1411" 
d="M543 1475v-1139h817v-336h-1194v1475h377zM827 -446h-262l88 354h383z" />
    <glyph glyph-name="uni013C" unicode="&#x13c;" horiz-adv-x="737" 
d="M143 336v1204h365v-1149q0 -84 98 -84q40 0 90 17v-308q-77 -32 -188 -32q-167 0 -266 93t-99 259zM471 -446h-262l88 354h383z" />
    <glyph glyph-name="Lcaron" unicode="&#x13d;" horiz-adv-x="1413" 
d="M774 1540h313l-104 -450h-233zM543 1475v-1139h817v-336h-1194v1475h377z" />
    <glyph glyph-name="lcaron" unicode="&#x13e;" horiz-adv-x="794" 
d="M143 336v1204h365v-1149q0 -84 98 -84q40 0 90 17v-308q-77 -32 -188 -32q-167 0 -266 93t-99 259zM584 1090l24 450h314l-105 -450h-233z" />
    <glyph glyph-name="Ldot" unicode="&#x13f;" horiz-adv-x="1419" 
d="M543 1475v-1139h817v-336h-1194v1475h377zM1051 655q-97 0 -159.5 61.5t-62.5 157.5q0 95 62.5 156.5t159.5 61.5t158 -61t61 -157q0 -97 -61 -158t-158 -61z" />
    <glyph glyph-name="ldot" unicode="&#x140;" horiz-adv-x="903" 
d="M143 336v1204h365v-1149q0 -84 98 -84q40 0 90 17v-308q-77 -32 -188 -32q-167 0 -266 93t-99 259zM770 621q86 0 139.5 52.5t53.5 135.5t-53.5 135.5t-139.5 52.5t-139 -52t-53 -136t53 -136t139 -52z" />
    <glyph glyph-name="Lslash" unicode="&#x141;" horiz-adv-x="1499" 
d="M629 627v-291h817v-336h-1194v457l-162 -72v311l162 72v707h377v-537l536 240v-312z" />
    <glyph glyph-name="lslash" unicode="&#x142;" horiz-adv-x="925" 
d="M829 1145v-309l-211 -109v-336q0 -43 27 -63.5t72 -20.5q40 0 90 17v-308q-77 -32 -189 -32q-167 0 -265.5 93t-98.5 259v203l-164 -84h-14v309l178 92v684h364v-496l197 101h14z" />
    <glyph glyph-name="Nacute" unicode="&#x143;" horiz-adv-x="1734" 
d="M1298 1933v-22l-299 -334h-331l213 356h417zM1198 551v924h371v-1475h-379l-653 940v-940h-371v1475h391z" />
    <glyph glyph-name="nacute" unicode="&#x144;" horiz-adv-x="1454" 
d="M1167 1614v-23l-299 -334h-331l213 357h417zM848 1182q213 0 343 -123.5t130 -327.5v-731h-365v647q0 102 -56.5 155.5t-158.5 53.5q-104 0 -167.5 -54t-63.5 -153v-649h-365v1155h344v-119q121 146 359 146z" />
    <glyph glyph-name="uni0145" unicode="&#x145;" horiz-adv-x="1734" 
d="M1198 551v924h371v-1475h-379l-653 940v-940h-371v1475h391zM907 -446h-262l88 354h383z" />
    <glyph glyph-name="uni0146" unicode="&#x146;" horiz-adv-x="1454" 
d="M848 1182q213 0 343 -123.5t130 -327.5v-731h-365v647q0 102 -56.5 155.5t-158.5 53.5q-104 0 -167.5 -54t-63.5 -153v-649h-365v1155h344v-119q121 146 359 146zM776 -446h-262l88 354h383z" />
    <glyph glyph-name="Ncaron" unicode="&#x147;" horiz-adv-x="1734" 
d="M1288 1933l-229 -338h-379l-231 338h311l110 -125l109 125h309zM1198 551v924h371v-1475h-379l-653 940v-940h-371v1475h391z" />
    <glyph glyph-name="ncaron" unicode="&#x148;" horiz-adv-x="1454" 
d="M1157 1614l-229 -338h-379l-232 338h312l110 -125l109 125h309zM848 1182q213 0 343 -123.5t130 -327.5v-731h-365v647q0 102 -56.5 155.5t-158.5 53.5q-104 0 -167.5 -54t-63.5 -153v-649h-365v1155h344v-119q121 146 359 146z" />
    <glyph glyph-name="Eng" unicode="&#x14a;" horiz-adv-x="1718" 
d="M1178 600v875h374v-1440q0 -197 -124.5 -308.5t-346.5 -111.5q-78 0 -184 27v335q65 -24 143 -24q49 0 81.5 18t45.5 49l-626 889v-909h-375v1475h395z" />
    <glyph glyph-name="eng" unicode="&#x14b;" horiz-adv-x="1454" 
d="M848 1182q213 0 343 -123.5t130 -327.5v-731q0 -182 -111.5 -283.5t-310.5 -101.5q-92 0 -168 25v294q39 -10 92 -10q133 0 133 133v590q0 102 -56.5 155.5t-158.5 53.5q-104 0 -167.5 -54t-63.5 -153v-649h-365v1155h344v-119q121 146 359 146z" />
    <glyph glyph-name="Omacron" unicode="&#x14c;" horiz-adv-x="1798" 
d="M1262 1612h-725v274h725v-274zM899 -27q174 0 324.5 56.5t257 156.5t167 242.5t60.5 308.5t-60.5 308.5t-167 242.5t-257 156.5t-324.5 56.5t-324.5 -56.5t-257 -156.5t-167 -242.5t-60.5 -308.5t60.5 -308.5t167 -242.5t257 -156.5t324.5 -56.5zM899 1157
q183 0 299.5 -116.5t116.5 -303.5t-116.5 -303.5t-299.5 -116.5t-299.5 116.5t-116.5 303.5t116.5 303.5t299.5 116.5z" />
    <glyph glyph-name="omacron" unicode="&#x14d;" horiz-adv-x="1458" 
d="M1092 1292h-725v275h725v-275zM729 -27q-146 0 -269.5 47.5t-207 129.5t-130 192.5t-46.5 235.5t46.5 235.5t130 192t207 129t269.5 47.5t269.5 -47.5t207 -129t130 -192t46.5 -235.5t-46.5 -235.5t-130 -192.5t-207 -129.5t-269.5 -47.5zM729 301q120 0 202.5 77
t82.5 200t-82.5 199.5t-202.5 76.5t-202.5 -76.5t-82.5 -199.5t82.5 -200t202.5 -77z" />
    <glyph glyph-name="Obreve" unicode="&#x14e;" horiz-adv-x="1798" 
d="M899 1565q-168 0 -273.5 97t-105.5 271h254q3 -53 38 -81.5t87 -28.5t87 28.5t38 81.5h256q0 -174 -106.5 -271t-274.5 -97zM899 -27q174 0 324.5 56.5t257 156.5t167 242.5t60.5 308.5t-60.5 308.5t-167 242.5t-257 156.5t-324.5 56.5t-324.5 -56.5t-257 -156.5
t-167 -242.5t-60.5 -308.5t60.5 -308.5t167 -242.5t257 -156.5t324.5 -56.5zM899 1157q183 0 299.5 -116.5t116.5 -303.5t-116.5 -303.5t-299.5 -116.5t-299.5 116.5t-116.5 303.5t116.5 303.5t299.5 116.5z" />
    <glyph glyph-name="obreve" unicode="&#x14f;" horiz-adv-x="1458" 
d="M729 1245q-168 0 -273.5 97.5t-105.5 271.5h254q3 -53 38 -82t87 -29t87 29t38 82h256q0 -174 -106.5 -271.5t-274.5 -97.5zM729 -27q-146 0 -269.5 47.5t-207 129.5t-130 192.5t-46.5 235.5t46.5 235.5t130 192t207 129t269.5 47.5t269.5 -47.5t207 -129t130 -192
t46.5 -235.5t-46.5 -235.5t-130 -192.5t-207 -129.5t-269.5 -47.5zM729 301q120 0 202.5 77t82.5 200t-82.5 199.5t-202.5 76.5t-202.5 -76.5t-82.5 -199.5t82.5 -200t202.5 -77z" />
    <glyph glyph-name="Ohungarumlaut" unicode="&#x150;" horiz-adv-x="1798" 
d="M993 1933v-22l-202 -334h-265l119 356h348zM1427 1933v-22l-237 -334h-264l151 356h350zM899 -27q174 0 324.5 56.5t257 156.5t167 242.5t60.5 308.5t-60.5 308.5t-167 242.5t-257 156.5t-324.5 56.5t-324.5 -56.5t-257 -156.5t-167 -242.5t-60.5 -308.5t60.5 -308.5
t167 -242.5t257 -156.5t324.5 -56.5zM899 1157q183 0 299.5 -116.5t116.5 -303.5t-116.5 -303.5t-299.5 -116.5t-299.5 116.5t-116.5 303.5t116.5 303.5t299.5 116.5z" />
    <glyph glyph-name="ohungarumlaut" unicode="&#x151;" horiz-adv-x="1458" 
d="M823 1614v-23l-202 -334h-265l119 357h348zM1257 1614v-23l-237 -334h-264l151 357h350zM729 -27q-146 0 -269.5 47.5t-207 129.5t-130 192.5t-46.5 235.5t46.5 235.5t130 192t207 129t269.5 47.5t269.5 -47.5t207 -129t130 -192t46.5 -235.5t-46.5 -235.5t-130 -192.5
t-207 -129.5t-269.5 -47.5zM729 301q120 0 202.5 77t82.5 200t-82.5 199.5t-202.5 76.5t-202.5 -76.5t-82.5 -199.5t82.5 -200t202.5 -77z" />
    <glyph glyph-name="OE" unicode="&#x152;" horiz-adv-x="2584" 
d="M1671 326h811l43 -326h-1231v168q-145 -195 -454 -195q-161 0 -300 56.5t-237.5 156.5t-154.5 242.5t-56 308.5t56 308.5t154.5 242.5t237.5 156.5t300 56.5q310 0 454 -194v168h1211l-43 -326h-791v-231h529v-330h-529v-262zM893 315q178 0 292.5 118.5t114.5 303.5
t-114.5 303.5t-292.5 118.5q-180 0 -294 -118t-114 -304t114 -304t294 -118z" />
    <glyph glyph-name="oe" unicode="&#x153;" horiz-adv-x="2295" 
d="M2224 565q0 -58 -10 -106h-856q31 -96 112 -147.5t205 -51.5q82 0 149 26.5t146 88.5l180 -225q-74 -79 -194 -128t-283 -49q-338 0 -502 215q-76 -101 -196 -158t-275 -57q-187 0 -331 82t-218.5 218.5t-74.5 304.5t75 305t218.5 218t330.5 81q155 0 274 -56t195 -157
q155 213 453 213q186 0 324.5 -84.5t208 -223t69.5 -309.5zM1622 891q-102 0 -171 -52t-97 -145h532q-25 92 -94 144.5t-170 52.5zM711 287q120 0 201 81t81 210q0 128 -80.5 209t-201.5 81t-203 -81t-82 -209t82 -209.5t203 -81.5z" />
    <glyph glyph-name="Racute" unicode="&#x154;" horiz-adv-x="1656" 
d="M1225 1933v-22l-299 -334h-332l213 356h418zM1618 0h-432l-359 539h-288v-539h-373v1475h840q154 0 268.5 -65t170.5 -170t56 -234q0 -148 -74.5 -263.5t-209.5 -167.5zM956 1147h-417v-285h417q74 0 118 39.5t44 104.5q0 64 -44 102.5t-118 38.5z" />
    <glyph glyph-name="racute" unicode="&#x155;" horiz-adv-x="983" 
d="M334 1257l213 357h418v-23l-299 -334h-332zM489 1155v-156q49 89 145 130.5t206 41.5q60 0 104 -12v-334q-65 11 -119 11q-68 0 -121 -12.5t-98.5 -42t-70.5 -86.5t-25 -138v-557h-365v1155h344z" />
    <glyph glyph-name="uni0156" unicode="&#x156;" horiz-adv-x="1656" 
d="M1217 575l401 -575h-432l-359 539h-288v-539h-373v1475h840q154 0 268.5 -65t170.5 -170t56 -234q0 -148 -74.5 -263.5t-209.5 -167.5zM956 1147h-417v-285h417q74 0 118 39.5t44 104.5q0 64 -44 102.5t-118 38.5zM860 -446h-262l88 354h383z" />
    <glyph glyph-name="uni0157" unicode="&#x157;" horiz-adv-x="983" 
d="M840 1171q60 0 104 -12v-334q-65 11 -119 11q-68 0 -121 -12.5t-98.5 -42t-70.5 -86.5t-25 -138v-557h-365v1155h344v-156q49 89 145 130.5t206 41.5zM367 -446h-263l89 354h382z" />
    <glyph glyph-name="Rcaron" unicode="&#x158;" horiz-adv-x="1656" 
d="M1214 1933l-229 -338h-379l-231 338h311l111 -125l108 125h309zM1618 0h-432l-359 539h-288v-539h-373v1475h840q154 0 268.5 -65t170.5 -170t56 -234q0 -148 -74.5 -263.5t-209.5 -167.5zM956 1147h-417v-285h417q74 0 118 39.5t44 104.5q0 64 -44 102.5t-118 38.5z" />
    <glyph glyph-name="rcaron" unicode="&#x159;" horiz-adv-x="983" 
d="M954 1614l-229 -338h-379l-231 338h311l111 -125l108 125h309zM489 1155v-156q49 89 145 130.5t206 41.5q60 0 104 -12v-334q-65 11 -119 11q-68 0 -121 -12.5t-98.5 -42t-70.5 -86.5t-25 -138v-557h-365v1155h344z" />
    <glyph glyph-name="Sacute" unicode="&#x15a;" horiz-adv-x="1521" 
d="M1192 1935v-22l-299 -334h-332l213 356h418zM772 -20q-216 0 -407 62t-306 171l226 276q205 -182 489 -182q122 0 191 39.5t69 97.5q0 90 -143 111l-316 49q-458 72 -458 428q0 214 170.5 340.5t480.5 126.5q182 0 354.5 -52t290.5 -159l-213 -272q-200 155 -424 155
q-120 0 -193 -33t-73 -81q0 -76 127 -96l356 -58q223 -36 331 -148t108 -280q0 -227 -175.5 -361t-484.5 -134z" />
    <glyph glyph-name="sacute" unicode="&#x15b;" horiz-adv-x="1269" 
d="M1071 1614v-23l-299 -334h-332l213 357h418zM55 147l166 246q83 -63 198 -101t228 -38q96 0 146.5 26.5t50.5 63.5q0 45 -80 59l-277 43q-197 31 -293 123t-96 230q0 176 144 279.5t393 103.5q138 0 282 -35t263 -115l-164 -244q-72 47 -176 81t-199 34q-80 0 -136 -22.5
t-56 -57.5q0 -45 122 -63l244 -35q379 -55 379 -348q0 -187 -147 -295.5t-394 -108.5q-164 0 -331 46t-267 128z" />
    <glyph glyph-name="Scircumflex" unicode="&#x15c;" horiz-adv-x="1521" 
d="M872 1597l-108 125l-111 -125h-311l231 338h379l230 -338h-310zM637 961l356 -58q223 -36 331 -148t108 -280q0 -227 -175.5 -361t-484.5 -134q-216 0 -407 62t-306 171l226 276q205 -182 489 -182q122 0 191 39.5t69 97.5q0 90 -143 111l-316 49q-458 72 -458 428
q0 214 170.5 340.5t480.5 126.5q182 0 354.5 -52t290.5 -159l-213 -272q-200 155 -424 155q-120 0 -193 -33t-73 -81q0 -76 127 -96z" />
    <glyph glyph-name="scircumflex" unicode="&#x15d;" horiz-adv-x="1269" 
d="M752 1276l-109 125l-111 -125h-311l232 338h378l230 -338h-309zM571 760l244 -35q379 -55 379 -348q0 -187 -147 -295.5t-394 -108.5q-164 0 -331 46t-267 128l166 246q83 -63 198 -101t228 -38q96 0 146.5 26.5t50.5 63.5q0 45 -80 59l-277 43q-197 31 -293 123t-96 230
q0 176 144 279.5t393 103.5q138 0 282 -35t263 -115l-164 -244q-72 47 -176 81t-199 34q-80 0 -136 -22.5t-56 -57.5q0 -45 122 -63z" />
    <glyph glyph-name="Scedilla" unicode="&#x15e;" horiz-adv-x="1521" 
d="M1432 475q0 -213 -156 -345.5t-432 -147.5l-35 -35h20q111 0 177.5 -57t66.5 -136q0 -91 -91.5 -145.5t-252.5 -54.5q-179 0 -317 69l80 129q72 -31 118 -43t97 -12q55 0 82.5 16t27.5 41q0 27 -28.5 45.5t-79.5 18.5q-60 0 -105 -8l-47 26l111 148q-187 14 -347.5 74
t-261.5 155l226 276q205 -182 489 -182q122 0 191 39.5t69 97.5q0 90 -143 111l-316 49q-458 72 -458 428q0 214 170.5 340.5t480.5 126.5q182 0 354.5 -52t290.5 -159l-213 -272q-200 155 -424 155q-120 0 -193 -33t-73 -81q0 -76 127 -96l356 -58q223 -36 331 -148
t108 -280z" />
    <glyph glyph-name="scedilla" unicode="&#x15f;" horiz-adv-x="1269" 
d="M1194 377q0 -176 -130 -283t-351 -119l-25 -24h21q111 0 177 -57t66 -136q0 -91 -91.5 -145.5t-252.5 -54.5q-179 0 -317 69l80 129q72 -31 118 -43t97 -12q55 0 82.5 16t27.5 41q0 27 -28.5 45.5t-79.5 18.5q-60 0 -105 -8l-47 26l105 140q-140 12 -271 56t-215 111
l166 246q83 -63 198 -101t228 -38q96 0 146.5 26.5t50.5 63.5q0 45 -80 59l-277 43q-197 31 -293 123t-96 230q0 176 144 279.5t393 103.5q138 0 282 -35t263 -115l-164 -244q-72 47 -176 81t-199 34q-80 0 -136 -22.5t-56 -57.5q0 -45 122 -63l244 -35q379 -55 379 -348z
" />
    <glyph glyph-name="Scaron" unicode="&#x160;" horiz-adv-x="1521" 
d="M1182 1935l-230 -338h-379l-231 338h311l111 -125l108 125h310zM637 961l356 -58q223 -36 331 -148t108 -280q0 -227 -175.5 -361t-484.5 -134q-216 0 -407 62t-306 171l226 276q205 -182 489 -182q122 0 191 39.5t69 97.5q0 90 -143 111l-316 49q-458 72 -458 428
q0 214 170.5 340.5t480.5 126.5q182 0 354.5 -52t290.5 -159l-213 -272q-200 155 -424 155q-120 0 -193 -33t-73 -81q0 -76 127 -96z" />
    <glyph glyph-name="scaron" unicode="&#x161;" horiz-adv-x="1269" 
d="M1061 1614l-230 -338h-378l-232 338h311l111 -125l109 125h309zM571 760l244 -35q379 -55 379 -348q0 -187 -147 -295.5t-394 -108.5q-164 0 -331 46t-267 128l166 246q83 -63 198 -101t228 -38q96 0 146.5 26.5t50.5 63.5q0 45 -80 59l-277 43q-197 31 -293 123t-96 230
q0 176 144 279.5t393 103.5q138 0 282 -35t263 -115l-164 -244q-72 47 -176 81t-199 34q-80 0 -136 -22.5t-56 -57.5q0 -45 122 -63z" />
    <glyph glyph-name="uni0162" unicode="&#x162;" horiz-adv-x="1447" 
d="M913 1137v-1137h-100l-53 -55h20q111 0 177.5 -57t66.5 -136q0 -91 -92 -146t-252 -55q-178 0 -318 70l80 129q72 -31 118 -43t97 -12q55 0 83 16t28 41q0 26 -29 45t-80 19q-53 0 -104 -9l-47 27l123 166h-96v1137h-486v338h1350v-338h-486z" />
    <glyph glyph-name="uni0163" unicode="&#x163;" horiz-adv-x="1003" 
d="M717 -14q-26 0 -76 4l-43 -45h20q111 0 177.5 -57t66.5 -136q0 -91 -92 -146t-252 -55q-177 0 -317 70l80 129q72 -31 118 -43t97 -12q55 0 82.5 16t27.5 41q0 27 -28.5 45.5t-79.5 18.5q-54 0 -105 -9l-47 27l139 189q-252 93 -252 409v420h-194v303h199v209l360 170
v-379h332v-303h-332v-391q0 -148 178 -148q78 0 164 29v-317q-89 -39 -223 -39z" />
    <glyph glyph-name="Tcaron" unicode="&#x164;" horiz-adv-x="1447" 
d="M1145 1933l-230 -338h-378l-232 338h311l111 -125l109 125h309zM1399 1475v-338h-486v-1137h-378v1137h-486v338h1350z" />
    <glyph glyph-name="tcaron" unicode="&#x165;" horiz-adv-x="1003" 
d="M713 1688h329l-120 -457h-236zM598 852v-391q0 -148 178 -148q78 0 164 29v-317q-89 -39 -223 -39q-241 0 -362.5 116t-121.5 330v420h-194v303h199v209l360 170v-379h332v-303h-332z" />
    <glyph glyph-name="Tbar" unicode="&#x166;" horiz-adv-x="1484" 
d="M1417 1475v-338h-485v-275h340v-287h-340v-575h-379v575h-340v287h340v275h-485v338h1349z" />
    <glyph glyph-name="tbar" unicode="&#x167;" horiz-adv-x="1026" 
d="M780 313q90 0 176 29v-317q-89 -39 -225 -39q-240 0 -360.5 116t-120.5 330v88h-195v201h195v151h-195v283h199v209l360 170v-379h332v-283h-332v-151h332v-201h-332v-57q0 -78 46.5 -114t119.5 -36z" />
    <glyph glyph-name="Utilde" unicode="&#x168;" horiz-adv-x="1679" 
d="M993 1565q-61 0 -114.5 18.5t-84 40.5t-59.5 40.5t-45 18.5q-21 0 -30 -19t-13 -77h-268q6 167 80.5 263t222.5 96q61 0 115.5 -19t84.5 -41.5t57.5 -41.5t41.5 -19q25 0 35.5 19.5t13.5 78.5h270q-6 -166 -81.5 -262t-225.5 -96zM840 -27q-320 0 -505 163.5t-185 447.5
v891h378v-852q0 -150 79.5 -228t232.5 -78q311 0 311 306v852h379v-891q0 -285 -184 -448t-506 -163z" />
    <glyph glyph-name="utilde" unicode="&#x169;" horiz-adv-x="1452" 
d="M567 1364q-21 0 -30 -19t-13 -77h-268q6 166 80.5 262t222.5 96q61 0 115.5 -19t84.5 -41.5t57.5 -41.5t41.5 -19q25 0 35.5 20t13.5 79h271q-6 -166 -82 -262.5t-226 -96.5q-61 0 -114.5 18.5t-84 41t-59.5 41t-45 18.5zM942 506v649h365v-1155h-344v117
q-64 -75 -158 -109.5t-199 -34.5q-213 0 -343 123.5t-130 327.5v731h365v-647q0 -102 56.5 -155.5t158.5 -53.5q103 0 166 54t63 153z" />
    <glyph glyph-name="Umacron" unicode="&#x16a;" horiz-adv-x="1679" 
d="M1202 1612h-725v274h725v-274zM840 -27q-320 0 -505 163.5t-185 447.5v891h378v-852q0 -150 79.5 -228t232.5 -78q311 0 311 306v852h379v-891q0 -285 -184 -448t-506 -163z" />
    <glyph glyph-name="umacron" unicode="&#x16b;" horiz-adv-x="1452" 
d="M354 1567h725v-275h-725v275zM942 506v649h365v-1155h-344v117q-64 -75 -158 -109.5t-199 -34.5q-213 0 -343 123.5t-130 327.5v731h365v-647q0 -102 56.5 -155.5t158.5 -53.5q103 0 166 54t63 153z" />
    <glyph glyph-name="Ubreve" unicode="&#x16c;" horiz-adv-x="1679" 
d="M840 1565q-168 0 -273.5 97t-105.5 271h254q3 -53 38 -81.5t87 -28.5t87 28.5t38 81.5h256q0 -174 -106.5 -271t-274.5 -97zM840 -27q-320 0 -505 163.5t-185 447.5v891h378v-852q0 -150 79.5 -228t232.5 -78q311 0 311 306v852h379v-891q0 -285 -184 -448t-506 -163z
" />
    <glyph glyph-name="ubreve" unicode="&#x16d;" horiz-adv-x="1452" 
d="M717 1245q-168 0 -273.5 97.5t-105.5 271.5h254q3 -53 38 -82t87 -29t87 29t38 82h256q0 -174 -106.5 -271.5t-274.5 -97.5zM942 506v649h365v-1155h-344v117q-64 -75 -158 -109.5t-199 -34.5q-213 0 -343 123.5t-130 327.5v731h365v-647q0 -102 56.5 -155.5t158.5 -53.5
q103 0 166 54t63 153z" />
    <glyph glyph-name="Uring" unicode="&#x16e;" horiz-adv-x="1679" 
d="M840 1577q-135 0 -227.5 80t-92.5 203t92.5 202.5t227.5 79.5t227 -79.5t92 -202.5t-92 -203t-227 -80zM840 1761q42 0 72 28t30 71t-30 70.5t-72 27.5q-43 0 -73 -27.5t-30 -70.5t30.5 -71t72.5 -28zM840 -27q-320 0 -505 163.5t-185 447.5v891h378v-852
q0 -150 79.5 -228t232.5 -78q311 0 311 306v852h379v-891q0 -285 -184 -448t-506 -163z" />
    <glyph glyph-name="uring" unicode="&#x16f;" horiz-adv-x="1452" 
d="M717 1257q-135 0 -227.5 80t-92.5 203t92.5 203t227.5 80t227 -80t92 -203t-92 -203t-227 -80zM717 1638q-43 0 -73 -27.5t-30 -70.5t30 -70.5t73 -27.5q42 0 72 27.5t30 70.5t-30 70.5t-72 27.5zM942 506v649h365v-1155h-344v117q-64 -75 -158 -109.5t-199 -34.5
q-213 0 -343 123.5t-130 327.5v731h365v-647q0 -102 56.5 -155.5t158.5 -53.5q103 0 166 54t63 153z" />
    <glyph glyph-name="Uhungarumlaut" unicode="&#x170;" horiz-adv-x="1679" 
d="M934 1933v-22l-203 -334h-264l119 356h348zM1368 1933v-22l-238 -334h-264l152 356h350zM840 -27q-320 0 -505 163.5t-185 447.5v891h378v-852q0 -150 79.5 -228t232.5 -78q311 0 311 306v852h379v-891q0 -285 -184 -448t-506 -163z" />
    <glyph glyph-name="uhungarumlaut" unicode="&#x171;" horiz-adv-x="1452" 
d="M811 1614v-23l-203 -334h-264l119 357h348zM1245 1591l-237 -334h-265l152 357h350v-23zM942 506v649h365v-1155h-344v117q-64 -75 -158 -109.5t-199 -34.5q-213 0 -343 123.5t-130 327.5v731h365v-647q0 -102 56.5 -155.5t158.5 -53.5q103 0 166 54t63 153z" />
    <glyph glyph-name="Uogonek" unicode="&#x172;" horiz-adv-x="1679" 
d="M1151 1475h379v-891q0 -15 -4 -47q-4 -95 -32 -175.5t-69 -134.5t-90 -98.5t-97.5 -76t-88 -58.5t-64 -55t-24.5 -56q0 -47 86 -47q57 0 106 25l88 -211q-88 -62 -266 -62q-86 0 -157 23t-119.5 77.5t-48.5 133.5q0 89 71 151q-312 5 -491.5 168t-179.5 443v891h378v-852
q0 -150 79.5 -228t232.5 -78q311 0 311 306v852z" />
    <glyph glyph-name="uogonek" unicode="&#x173;" horiz-adv-x="1454" 
d="M1268 -139l84 -211q-85 -62 -260 -62q-138 0 -225 52t-87 155q0 149 185 242v82q-121 -146 -359 -146q-213 0 -343 123.5t-130 327.5v731h365v-647q0 -102 56.5 -155.5t158.5 -53.5q104 0 167.5 54t63.5 153v649h365v-1147q-224 -73 -224 -135q0 -37 74 -37q58 0 109 25z
" />
    <glyph glyph-name="Wcircumflex" unicode="&#x174;" horiz-adv-x="2365" 
d="M1294 1595l-108 125l-111 -125h-311l231 338h379l230 -338h-310zM1647 389l313 1086h391l-479 -1475h-455l-235 907l-234 -907h-454l-478 1475h406l309 -1092l266 1085h385z" />
    <glyph glyph-name="wcircumflex" unicode="&#x175;" horiz-adv-x="2117" 
d="M1169 1276l-108 125l-111 -125h-311l231 338h379l230 -338h-310zM1489 346l252 809h370l-413 -1155h-418l-219 666l-219 -666h-424l-412 1155h387l250 -817l252 811h344z" />
    <glyph glyph-name="Ycircumflex" unicode="&#x176;" horiz-adv-x="1540" 
d="M874 1595l-108 125l-111 -125h-311l231 338h379l230 -338h-310zM1126 1475h416l-579 -981v-494h-381v489l-588 986h424l358 -637z" />
    <glyph glyph-name="ycircumflex" unicode="&#x177;" horiz-adv-x="1368" 
d="M797 1276l-109 125l-110 -125h-312l232 338h379l229 -338h-309zM698 389l289 766h381l-524 -1214q-137 -320 -461 -320q-78 0 -169 19.5t-163 58.5l99 291q133 -56 221 -56q92 0 143 78l-516 1143h397z" />
    <glyph glyph-name="Ydieresis" unicode="&#x178;" horiz-adv-x="1540" 
d="M508 1571q-90 0 -146.5 52t-56.5 136q0 83 58 137t145 54q85 0 143 -54t58 -137q0 -84 -56.5 -136t-144.5 -52zM1024 1571q-90 0 -146.5 52t-56.5 136q0 83 58 137t145 54q85 0 143 -54t58 -137q0 -84 -56.5 -136t-144.5 -52zM1126 1475h416l-579 -981v-494h-381v489
l-588 986h424l358 -637z" />
    <glyph glyph-name="Zacute" unicode="&#x179;" horiz-adv-x="1495" 
d="M1206 1933v-22l-299 -334h-332l213 356h418zM1374 1171l-794 -845h825v-326h-1315v299l799 850h-760v326h1245v-304z" />
    <glyph glyph-name="zacute" unicode="&#x17a;" horiz-adv-x="1234" 
d="M1057 1614v-23l-299 -334h-332l213 357h418zM1130 893l-579 -596h600v-297h-1067v262l580 596h-553v297h1019v-262z" />
    <glyph glyph-name="Zdotaccent" unicode="&#x17b;" horiz-adv-x="1495" 
d="M776 1561q-89 0 -147 53t-58 137t58 137.5t147 53.5t147 -53.5t58 -137.5t-58 -137t-147 -53zM1374 1171l-794 -845h825v-326h-1315v299l799 850h-760v326h1245v-304z" />
    <glyph glyph-name="zdotaccent" unicode="&#x17c;" horiz-adv-x="1234" 
d="M627 1241q-89 0 -147 53.5t-58 137.5t58 137t147 53t146.5 -53t57.5 -137t-58 -137.5t-146 -53.5zM1130 893l-579 -596h600v-297h-1067v262l580 596h-553v297h1019v-262z" />
    <glyph glyph-name="Zcaron" unicode="&#x17d;" horiz-adv-x="1495" 
d="M1196 1933l-229 -338h-379l-232 338h312l110 -125l109 125h309zM1374 1171l-794 -845h825v-326h-1315v299l799 850h-760v326h1245v-304z" />
    <glyph glyph-name="zcaron" unicode="&#x17e;" horiz-adv-x="1234" 
d="M1047 1614l-230 -338h-379l-231 338h311l111 -125l108 125h310zM1130 893l-579 -596h600v-297h-1067v262l580 596h-553v297h1019v-262z" />
    <glyph glyph-name="uni018F" unicode="&#x18f;" horiz-adv-x="1738" 
d="M799 1495q198 0 360 -59.5t268.5 -162.5t164 -240.5t57.5 -295.5q0 -154 -54.5 -292t-153.5 -242.5t-248.5 -166t-328.5 -61.5q-181 0 -329.5 61.5t-245.5 167.5t-150 247.5t-53 302.5q0 68 12 123h1137q-40 131 -154.5 203.5t-281.5 72.5q-123 0 -210 -33.5t-190 -113.5
l-217 268q89 99 245 160t372 61zM864 319q141 0 239.5 72t133.5 201h-750q33 -129 131 -201t246 -72z" />
    <glyph glyph-name="florin" unicode="&#x192;" horiz-adv-x="1116" 
d="M891 1231q-160 0 -160 -146v-77h303v-332h-303v-639q0 -201 -124.5 -316.5t-338.5 -115.5q-126 0 -194 26v326q78 -16 139 -16q74 0 107.5 31t33.5 106v598h-231v332h231v100q0 203 136.5 331t353.5 128q128 0 196 -27v-326q-83 17 -149 17z" />
    <glyph glyph-name="Ohorn" unicode="&#x1a0;" horiz-adv-x="1830" 
d="M1821 1597q0 -148 -77.5 -238.5t-217.5 -117.5q182 -207 182 -504q0 -166 -60.5 -308.5t-167 -242.5t-257 -156.5t-324.5 -56.5t-324.5 56.5t-257 156.5t-167 242.5t-60.5 308.5t60.5 308.5t167 242.5t257 156.5t324.5 56.5q116 0 259.5 -13t174.5 -13q86 0 119 31t33 93
q0 82 -31 162h336q31 -61 31 -164zM899 317q183 0 299.5 116.5t116.5 303.5t-116.5 303.5t-299.5 116.5t-299.5 -116.5t-116.5 -303.5t116.5 -303.5t299.5 -116.5z" />
    <glyph glyph-name="ohorn" unicode="&#x1a1;" horiz-adv-x="1492" 
d="M1487 1276q0 -256 -234 -324q129 -160 129 -374q0 -125 -46.5 -235.5t-130 -192.5t-207 -129.5t-269.5 -47.5t-269.5 47.5t-207 129.5t-130 192.5t-46.5 235.5t46.5 235.5t130 192t207 129t269.5 47.5q67 0 148 -13.5t139 -13.5q158 0 158 125q0 77 -33 162h313
q33 -65 33 -166zM729 301q120 0 202.5 77t82.5 200t-82.5 199.5t-202.5 76.5t-202.5 -76.5t-82.5 -199.5t82.5 -200t202.5 -77z" />
    <glyph glyph-name="Uhorn" unicode="&#x1af;" horiz-adv-x="1771" 
d="M1833 1597q0 -150 -79 -240.5t-224 -115.5v-657q0 -285 -184 -448t-506 -163q-320 0 -505 163.5t-185 447.5v891h378v-852q0 -150 79.5 -228t232.5 -78q311 0 311 306v852h190q158 0 158 124q0 77 -33 162h334q33 -65 33 -164z" />
    <glyph glyph-name="uhorn" unicode="&#x1b0;" horiz-adv-x="1540" 
d="M1602 1276q0 -286 -295 -336v-940h-344v117q-64 -75 -158 -109.5t-199 -34.5q-213 0 -343 123.5t-130 327.5v731h365v-647q0 -102 56.5 -155.5t158.5 -53.5q103 0 166 54t63 153v649h191q157 0 157 125q0 77 -33 162h314q31 -61 31 -166z" />
    <glyph glyph-name="uni01C4" unicode="&#x1c4;" horiz-adv-x="3151" 
d="M2853 1933l-230 -338h-378l-232 338h311l111 -125l109 125h309zM842 1475q187 0 339.5 -59.5t250 -161t150 -234.5t52.5 -283t-52.5 -282.5t-150 -234.5t-250 -161t-339.5 -59h-676v1475h676zM3031 1171l-795 -845h826v-326h-1315v299l799 850h-760v326h1245v-304z
M543 332h295q99 0 177 32t127 88t74 128.5t25 156.5q0 114 -43 204t-136 146t-224 56h-295v-811z" />
    <glyph glyph-name="uni01C5" unicode="&#x1c5;" horiz-adv-x="2924" 
d="M2736 1614l-229 -338h-379l-232 338h312l110 -125l109 125h309zM842 1475q187 0 339.5 -59.5t250 -161t150 -234.5t52.5 -283t-52.5 -282.5t-150 -234.5t-250 -161t-339.5 -59h-676v1475h676zM2820 893l-579 -596h600v-297h-1067v262l579 596h-553v297h1020v-262z
M543 332h295q99 0 177 32t127 88t74 128.5t25 156.5q0 114 -43 204t-136 146t-224 56h-295v-811z" />
    <glyph glyph-name="uni01C6" unicode="&#x1c6;" horiz-adv-x="2756" 
d="M2568 1614l-229 -338h-379l-231 338h311l110 -125l109 125h309zM1006 1053v487h364v-1540h-340v127q-137 -154 -362 -154q-176 0 -312.5 82t-208 219t-71.5 304t71.5 304t208 218.5t312.5 81.5q212 0 338 -129zM2652 893l-579 -596h600v-297h-1067v262l579 596h-553v297
h1020v-262zM733 299q129 0 207 80t78 199t-78 198.5t-207 79.5q-128 0 -208.5 -78.5t-80.5 -199.5t80.5 -200t208.5 -79z" />
    <glyph glyph-name="uni01C7" unicode="&#x1c7;" horiz-adv-x="2680" 
d="M166 1475h377v-1139h739v-336h-1116v1475zM2152 512v963h377v-963q0 -166 -76 -289.5t-205 -186.5t-292 -63q-264 0 -424 151.5t-160 422.5h367q0 -123 61 -177.5t154 -54.5q90 0 144 53t54 144z" />
    <glyph glyph-name="uni01C8" unicode="&#x1c8;" horiz-adv-x="2097" 
d="M1769 1241q-88 0 -146 53.5t-58 137.5t57.5 137t146.5 53t147 -53t58 -137t-58 -137.5t-147 -53.5zM166 1475h377v-1139h817v-336h-1194v1475zM1587 68v1087h365v-1143q0 -184 -111.5 -285.5t-310.5 -101.5q-92 0 -168 25v295q43 -11 92 -11q133 0 133 134z" />
    <glyph glyph-name="uni01C9" unicode="&#x1c9;" horiz-adv-x="1306" 
d="M1184 1432q0 -84 -58 -137.5t-147 -53.5t-147 53.5t-58 137.5t58 137t147 53t147 -53t58 -137zM145 0v1540h365v-1540h-365zM739 -375q-92 0 -168 25v295q43 -11 93 -11q133 0 133 134v1087h364v-1143q0 -184 -111.5 -285.5t-310.5 -101.5z" />
    <glyph glyph-name="uni01CA" unicode="&#x1ca;" horiz-adv-x="3053" 
d="M557 1475l641 -924v924h371v-1475h-379l-653 940v-940h-371v1475h391zM2525 512v963h377v-963q0 -166 -76 -289.5t-205 -186.5t-292 -63q-264 0 -424 151.5t-160 422.5h366q0 -123 61.5 -177.5t154.5 -54.5q90 0 144 53t54 144z" />
    <glyph glyph-name="uni01CB" unicode="&#x1cb;" horiz-adv-x="2404" 
d="M2077 1241q-89 0 -147 53.5t-58 137.5t58 137t147 53t146.5 -53t57.5 -137t-58 -137.5t-146 -53.5zM557 1475l641 -924v924h371v-1475h-379l-653 940v-940h-371v1475h391zM1894 68v1087h365v-1143q0 -184 -111.5 -285.5t-310.5 -101.5q-92 0 -168 25v295q43 -11 92 -11
q133 0 133 134z" />
    <glyph glyph-name="uni01CC" unicode="&#x1cc;" horiz-adv-x="2123" 
d="M1796 1241q-89 0 -147 53.5t-58 137.5t58 137t147 53t147 -53t58 -137t-58 -137.5t-147 -53.5zM848 1182q213 0 343 -123.5t130 -327.5v-731h-365v647q0 102 -56.5 155.5t-158.5 53.5q-104 0 -167.5 -54t-63.5 -153v-649h-365v1155h344v-119q121 146 359 146zM1614 68
v1087h364v-1143q0 -184 -111.5 -285.5t-310.5 -101.5q-91 0 -167 25v295q43 -11 92 -11q133 0 133 134z" />
    <glyph glyph-name="Gcaron" unicode="&#x1e6;" horiz-adv-x="1732" 
d="M1323 1933l-229 -338h-379l-232 338h312l110 -125l109 125h309zM1610 887v-742q-100 -75 -265.5 -123.5t-367.5 -48.5q-194 0 -359.5 56.5t-281 156.5t-181 240.5t-65.5 304.5q0 224 110.5 400t304 273t435.5 97q200 0 364.5 -56.5t278.5 -160.5l-211 -270
q-190 151 -430 151q-125 0 -230 -54t-167 -153t-62 -221q0 -188 140.5 -308t361.5 -120q137 0 254 43v207h-381v328h752z" />
    <glyph glyph-name="gcaron" unicode="&#x1e7;" horiz-adv-x="1490" 
d="M1165 1614l-229 -338h-379l-231 338h311l111 -125l108 125h309zM1006 1034v121h344v-1034q0 -156 -84 -272t-235 -177t-351 -61q-266 0 -510 102l115 283q202 -88 397 -88q141 0 222 54t81 153v88q-103 -125 -330 -125q-131 0 -239.5 42t-182 115.5t-113.5 173t-40 214.5
q0 155 68.5 281.5t200.5 202t304 75.5q225 0 353 -148zM721 377q119 0 193.5 69.5t74.5 176.5q0 108 -74.5 176.5t-193.5 68.5q-118 0 -195 -68t-77 -177q0 -108 77 -177t195 -69z" />
    <glyph glyph-name="uni01EA" unicode="&#x1ea;" horiz-adv-x="1798" 
d="M899 1501q174 0 324.5 -56.5t257 -156.5t167 -242.5t60.5 -308.5q0 -256 -129 -430q-54 -74 -138 -134.5t-162.5 -96.5t-150.5 -67t-115.5 -61t-43.5 -63q0 -49 90 -49q64 0 115 25l88 -211q-107 -62 -267 -62q-144 0 -238.5 59t-94.5 167q0 97 81 172q-139 20 -259 85
t-207.5 162.5t-137 228.5t-49.5 279q0 163 60.5 304.5t167 241.5t257 157t324.5 57zM899 317q183 0 299.5 116.5t116.5 303.5t-116.5 303.5t-299.5 116.5t-299.5 -116.5t-116.5 -303.5t116.5 -303.5t299.5 -116.5z" />
    <glyph glyph-name="uni01EB" unicode="&#x1eb;" horiz-adv-x="1458" 
d="M1061 55q-37 -18 -94.5 -39.5t-90 -34.5t-58 -36.5t-25.5 -53.5q0 -55 88 -55q57 0 108 25l86 -211q-88 -62 -244 -62q-96 0 -172 24.5t-124 79t-48 132.5q0 96 76 166q-225 49 -356 210.5t-131 377.5q0 125 46.5 235.5t130 192t207 129t269.5 47.5t269.5 -47.5
t207 -129.5t130 -193.5t46.5 -238.5q0 -173 -83.5 -308t-237.5 -210zM444 578q0 -123 82.5 -200t202.5 -77t202.5 77t82.5 200t-82.5 199.5t-202.5 76.5t-202.5 -76.5t-82.5 -199.5z" />
    <glyph glyph-name="Aringacute" unicode="&#x1fa;" horiz-adv-x="1640" 
d="M1249 2552v-23l-299 -334h-332l213 357h418zM819 1577q-135 0 -227 80t-92 203t92 202.5t227 79.5t227.5 -79.5t92.5 -202.5t-92.5 -203t-227.5 -80zM819 1958q-42 0 -72 -27.5t-30 -70.5t30 -71t72 -28t72.5 28t30.5 71t-30 70.5t-73 27.5zM1632 0h-393l-111 299h-620
l-111 -299h-389l578 1475h467zM817 1141l-192 -525h387z" />
    <glyph glyph-name="aringacute" unicode="&#x1fb;" horiz-adv-x="1390" 
d="M1038 2189v-22l-237 -289h-283l162 311h358zM674 1257q-135 0 -227.5 80t-92.5 203t92.5 203t227.5 80t227 -80t92 -203t-92 -203t-227 -80zM674 1638q-43 0 -73 -27.5t-30 -70.5t30 -70.5t73 -27.5q42 0 72 27.5t30 70.5t-30 70.5t-72 27.5zM1300 274q20 0 48 7v-267
q-45 -22 -136 -22q-211 0 -288 143q-129 -160 -402 -160q-131 0 -234.5 37.5t-169 120t-65.5 199.5q0 182 154 285.5t438 103.5h234q-11 77 -72.5 120.5t-165.5 43.5q-181 0 -340 -111l-168 258q110 79 249 114.5t277 35.5q267 0 414.5 -126.5t147.5 -353.5v-350
q0 -39 22.5 -58.5t56.5 -19.5zM571 246q50 0 98.5 13t93 39.5t75.5 73t39 107.5h-220q-136 0 -189.5 -37t-53.5 -88q0 -45 39 -76.5t118 -31.5z" />
    <glyph glyph-name="AEacute" unicode="&#x1fc;" horiz-adv-x="2351" 
d="M1626 1933v-22l-299 -334h-332l213 356h418zM1438 326h811l43 -326h-1231v297h-520l-181 -297h-409l907 1475h1413l-43 -326h-790v-231h528v-330h-528v-262zM1061 1151l-322 -528h322v528z" />
    <glyph glyph-name="aeacute" unicode="&#x1fd;" horiz-adv-x="2226" 
d="M1546 1591v-22l-299 -334h-332l213 356h418zM2154 567q0 -60 -10 -108h-856q31 -96 112.5 -147.5t205.5 -51.5q82 0 149 26.5t146 88.5l180 -225q-169 -177 -473 -177q-200 0 -336.5 76t-206.5 211q-55 -126 -200 -205.5t-337 -79.5q-134 0 -239.5 39.5t-170.5 122.5
t-65 199q0 178 151.5 277.5t440.5 99.5h211q-9 81 -69.5 126.5t-163.5 45.5q-179 0 -334 -111l-160 250q105 77 238.5 112t267.5 35q344 0 465 -215q70 107 185.5 166.5t273.5 59.5q185 0 322 -84.5t205 -222.5t68 -308zM1552 891q-102 0 -171 -52t-97 -145h537
q-25 92 -96 144.5t-173 52.5zM551 240q52 0 100.5 13.5t91.5 40.5t73 74.5t38 110.5h-197q-272 0 -272 -123q0 -49 39 -82.5t127 -33.5z" />
    <glyph glyph-name="Oslashacute" unicode="&#x1fe;" horiz-adv-x="1798" 
d="M1329 1933v-22l-299 -334h-332l213 356h418zM1671 1624l-215 -315q120 -103 186 -249.5t66 -322.5q0 -166 -60.5 -308.5t-167 -242.5t-257 -156.5t-324.5 -56.5q-159 0 -307 50l-119 -175h-344l213 316q-121 105 -186.5 251t-65.5 322q0 166 60.5 308.5t167 242.5
t257 156.5t324.5 56.5q164 0 309 -51l119 174h344zM899 1161q-183 0 -301.5 -118.5t-118.5 -305.5q0 -153 84 -264l449 674q-49 14 -113 14zM899 315q183 0 301.5 118t118.5 304q0 149 -82 262l-449 -671q57 -13 111 -13z" />
    <glyph glyph-name="oslashacute" unicode="&#x1ff;" horiz-adv-x="1458" 
d="M1159 1591v-22l-299 -334h-332l213 356h418zM1370 1272l-176 -256q91 -82 139.5 -195.5t48.5 -242.5q0 -125 -46.5 -235.5t-130 -192.5t-207 -129.5t-269.5 -47.5q-126 0 -233 35l-86 -125h-320l176 254q-91 84 -140.5 197.5t-49.5 243.5q0 125 46.5 235.5t130 192
t207 129t269.5 47.5q126 0 236 -35l86 125h319zM729 874q-127 0 -215 -82.5t-88 -213.5q0 -93 47 -166l313 458q-36 4 -57 4zM729 281q127 0 215 83t88 214q0 91 -45 161l-311 -454q36 -4 53 -4z" />
    <glyph glyph-name="uni0200" unicode="&#x200;" horiz-adv-x="1640" 
d="M621 1933l151 -356h-264l-238 334v22h351zM1053 1933l118 -356h-264l-202 334v22h348zM1632 0h-393l-111 299h-620l-111 -299h-389l578 1475h467zM817 1141l-192 -525h387z" />
    <glyph glyph-name="uni0201" unicode="&#x201;" horiz-adv-x="1390" 
d="M475 1614l152 -357h-265l-237 334v23h350zM907 1614l119 -357h-264l-203 334v23h348zM1300 274q20 0 48 7v-267q-45 -22 -136 -22q-211 0 -288 143q-129 -160 -402 -160q-131 0 -234.5 37.5t-169 120t-65.5 199.5q0 182 154 285.5t438 103.5h234q-11 77 -72.5 120.5
t-165.5 43.5q-181 0 -340 -111l-168 258q110 79 249 114.5t277 35.5q267 0 414.5 -126.5t147.5 -353.5v-350q0 -39 22.5 -58.5t56.5 -19.5zM571 246q50 0 98.5 13t93 39.5t75.5 73t39 107.5h-220q-136 0 -189.5 -37t-53.5 -88q0 -45 39 -76.5t118 -31.5z" />
    <glyph glyph-name="uni0202" unicode="&#x202;" horiz-adv-x="1640" 
d="M819 1688q-52 0 -87 -29t-38 -82h-254q0 174 105.5 271.5t273.5 97.5t274.5 -97.5t106.5 -271.5h-256q-3 53 -38 82t-87 29zM1632 0h-393l-111 299h-620l-111 -299h-389l578 1475h467zM817 1141l-192 -525h387z" />
    <glyph glyph-name="uni0203" unicode="&#x203;" horiz-adv-x="1390" 
d="M674 1368q-52 0 -87 -29t-38 -82h-254q0 174 105.5 271.5t273.5 97.5t274.5 -97.5t106.5 -271.5h-256q-3 53 -38 82t-87 29zM1300 274q20 0 48 7v-267q-45 -22 -136 -22q-211 0 -288 143q-129 -160 -402 -160q-131 0 -234.5 37.5t-169 120t-65.5 199.5q0 182 154 285.5
t438 103.5h234q-11 77 -72.5 120.5t-165.5 43.5q-181 0 -340 -111l-168 258q110 79 249 114.5t277 35.5q267 0 414.5 -126.5t147.5 -353.5v-350q0 -39 22.5 -58.5t56.5 -19.5zM571 246q50 0 98.5 13t93 39.5t75.5 73t39 107.5h-220q-136 0 -189.5 -37t-53.5 -88
q0 -45 39 -76.5t118 -31.5z" />
    <glyph glyph-name="uni0204" unicode="&#x204;" horiz-adv-x="1511" 
d="M598 1933l152 -356h-265l-237 334v22h350zM1030 1933l119 -356h-264l-203 334v22h348zM543 326h866l43 -326h-1286v1475h1266l-43 -326h-846v-231h583v-330h-583v-262z" />
    <glyph glyph-name="uni0205" unicode="&#x205;" horiz-adv-x="1402" 
d="M516 1614l152 -357h-265l-237 334v23h350zM948 1614l119 -357h-264l-203 334v23h348zM1331 563q0 -58 -10 -106h-889q33 -90 117.5 -139.5t210.5 -49.5q86 0 154.5 26t152.5 87l186 -231q-75 -79 -201.5 -128t-295.5 -49q-160 0 -290.5 47.5t-214.5 129.5t-129.5 191
t-45.5 234q0 122 43 231.5t122 193.5t200 133t266 49t264.5 -49.5t197 -134t120 -196.5t42.5 -239zM709 881q-105 0 -177 -49t-102 -136h549q-27 88 -96.5 136.5t-173.5 48.5z" />
    <glyph glyph-name="uni0206" unicode="&#x206;" horiz-adv-x="1511" 
d="M797 1688q-52 0 -87 -29t-38 -82h-254q0 174 105.5 271.5t273.5 97.5t274.5 -97.5t106.5 -271.5h-256q-3 53 -38 82t-87 29zM543 326h866l43 -326h-1286v1475h1266l-43 -326h-846v-231h583v-330h-583v-262z" />
    <glyph glyph-name="uni0207" unicode="&#x207;" horiz-adv-x="1402" 
d="M715 1368q-52 0 -87 -29t-38 -82h-254q0 174 105.5 271.5t273.5 97.5t274.5 -97.5t106.5 -271.5h-256q-3 53 -38 82t-87 29zM1331 563q0 -58 -10 -106h-889q33 -90 117.5 -139.5t210.5 -49.5q86 0 154.5 26t152.5 87l186 -231q-75 -79 -201.5 -128t-295.5 -49
q-160 0 -290.5 47.5t-214.5 129.5t-129.5 191t-45.5 234q0 122 43 231.5t122 193.5t200 133t266 49t264.5 -49.5t197 -134t120 -196.5t42.5 -239zM709 881q-105 0 -177 -49t-102 -136h549q-27 88 -96.5 136.5t-173.5 48.5z" />
    <glyph glyph-name="uni0208" unicode="&#x208;" horiz-adv-x="708" 
d="M47 1577l-237 334v22h350l151 -356h-264zM446 1577l-202 334v22h348l119 -356h-265zM166 0v1475h377v-1475h-377z" />
    <glyph glyph-name="uni0209" unicode="&#x209;" horiz-adv-x="655" 
d="M16 1257l-237 334v23h350l152 -357h-265zM416 1257l-203 334v23h348l119 -357h-264zM510 0h-365v1155h365v-1155z" />
    <glyph glyph-name="uni020A" unicode="&#x20a;" horiz-adv-x="708" 
d="M358 1946q168 0 274.5 -97.5t106.5 -271.5h-256q-3 53 -38 82t-87 29t-87 -29t-38 -82h-253q0 174 105 271.5t273 97.5zM166 0v1475h377v-1475h-377z" />
    <glyph glyph-name="uni020B" unicode="&#x20b;" horiz-adv-x="655" 
d="M328 1626q168 0 274.5 -97.5t106.5 -271.5h-256q-3 53 -38 82t-87 29t-87 -29t-38 -82h-254q0 174 105.5 271.5t273.5 97.5zM510 0h-365v1155h365v-1155z" />
    <glyph glyph-name="uni020C" unicode="&#x20c;" horiz-adv-x="1798" 
d="M588 1577l-238 334v22h350l152 -356h-264zM987 1577l-203 334v22h349l118 -356h-264zM899 -27q174 0 324.5 56.5t257 156.5t167 242.5t60.5 308.5t-60.5 308.5t-167 242.5t-257 156.5t-324.5 56.5t-324.5 -56.5t-257 -156.5t-167 -242.5t-60.5 -308.5t60.5 -308.5
t167 -242.5t257 -156.5t324.5 -56.5zM899 1157q183 0 299.5 -116.5t116.5 -303.5t-116.5 -303.5t-299.5 -116.5t-299.5 116.5t-116.5 303.5t116.5 303.5t299.5 116.5z" />
    <glyph glyph-name="uni020D" unicode="&#x20d;" horiz-adv-x="1458" 
d="M418 1257l-238 334v23h350l152 -357h-264zM817 1257l-203 334v23h349l118 -357h-264zM729 -27q-146 0 -269.5 47.5t-207 129.5t-130 192.5t-46.5 235.5t46.5 235.5t130 192t207 129t269.5 47.5t269.5 -47.5t207 -129t130 -192t46.5 -235.5t-46.5 -235.5t-130 -192.5
t-207 -129.5t-269.5 -47.5zM729 301q120 0 202.5 77t82.5 200t-82.5 199.5t-202.5 76.5t-202.5 -76.5t-82.5 -199.5t82.5 -200t202.5 -77z" />
    <glyph glyph-name="uni020E" unicode="&#x20e;" horiz-adv-x="1798" 
d="M899 1946q168 0 274.5 -97.5t106.5 -271.5h-256q-3 53 -38 82t-87 29t-87 -29t-38 -82h-254q0 174 105.5 271.5t273.5 97.5zM899 -27q174 0 324.5 56.5t257 156.5t167 242.5t60.5 308.5t-60.5 308.5t-167 242.5t-257 156.5t-324.5 56.5t-324.5 -56.5t-257 -156.5
t-167 -242.5t-60.5 -308.5t60.5 -308.5t167 -242.5t257 -156.5t324.5 -56.5zM899 1157q183 0 299.5 -116.5t116.5 -303.5t-116.5 -303.5t-299.5 -116.5t-299.5 116.5t-116.5 303.5t116.5 303.5t299.5 116.5z" />
    <glyph glyph-name="uni020F" unicode="&#x20f;" horiz-adv-x="1458" 
d="M729 1626q168 0 274.5 -97.5t106.5 -271.5h-256q-3 53 -38 82t-87 29t-87 -29t-38 -82h-254q0 174 105.5 271.5t273.5 97.5zM729 -27q-146 0 -269.5 47.5t-207 129.5t-130 192.5t-46.5 235.5t46.5 235.5t130 192t207 129t269.5 47.5t269.5 -47.5t207 -129t130 -192
t46.5 -235.5t-46.5 -235.5t-130 -192.5t-207 -129.5t-269.5 -47.5zM729 301q120 0 202.5 77t82.5 200t-82.5 199.5t-202.5 76.5t-202.5 -76.5t-82.5 -199.5t82.5 -200t202.5 -77z" />
    <glyph glyph-name="uni0210" unicode="&#x210;" horiz-adv-x="1656" 
d="M596 1933l152 -356h-265l-237 334v22h350zM1028 1933l119 -356h-264l-203 334v22h348zM1618 0h-432l-359 539h-288v-539h-373v1475h840q154 0 268.5 -65t170.5 -170t56 -234q0 -148 -74.5 -263.5t-209.5 -167.5zM956 1147h-417v-285h417q74 0 118 39.5t44 104.5
q0 64 -44 102.5t-118 38.5z" />
    <glyph glyph-name="uni0211" unicode="&#x211;" horiz-adv-x="983" 
d="M336 1614l151 -357h-264l-237 334v23h350zM768 1614l119 -357h-264l-203 334v23h348zM840 1171q60 0 104 -12v-334q-65 11 -119 11q-68 0 -121 -12.5t-98.5 -42t-70.5 -86.5t-25 -138v-557h-365v1155h344v-156q49 89 145 130.5t206 41.5z" />
    <glyph glyph-name="uni0212" unicode="&#x212;" horiz-adv-x="1656" 
d="M795 1688q-52 0 -87 -29t-38 -82h-254q0 174 105.5 271.5t273.5 97.5t274.5 -97.5t106.5 -271.5h-256q-3 53 -38 82t-87 29zM1618 0h-432l-359 539h-288v-539h-373v1475h840q154 0 268.5 -65t170.5 -170t56 -234q0 -148 -74.5 -263.5t-209.5 -167.5zM956 1147h-417v-285
h417q74 0 118 39.5t44 104.5q0 64 -44 102.5t-118 38.5z" />
    <glyph glyph-name="uni0213" unicode="&#x213;" horiz-adv-x="983" 
d="M535 1368q-52 0 -87 -29t-38 -82h-254q0 174 105.5 271.5t273.5 97.5t274 -97.5t106 -271.5h-256q-3 53 -37.5 82t-86.5 29zM840 1171q60 0 104 -12v-334q-65 11 -119 11q-68 0 -121 -12.5t-98.5 -42t-70.5 -86.5t-25 -138v-557h-365v1155h344v-156q49 89 145 130.5
t206 41.5z" />
    <glyph glyph-name="uni0214" unicode="&#x214;" horiz-adv-x="1679" 
d="M528 1577l-237 334v22h350l152 -356h-265zM928 1577l-203 334v22h348l119 -356h-264zM840 -27q-320 0 -505 163.5t-185 447.5v891h378v-852q0 -150 79.5 -228t232.5 -78q311 0 311 306v852h379v-891q0 -285 -184 -448t-506 -163z" />
    <glyph glyph-name="uni0215" unicode="&#x215;" horiz-adv-x="1452" 
d="M518 1614l152 -357h-264l-238 334v23h350zM950 1614l119 -357h-264l-203 334v23h348zM942 506v649h365v-1155h-344v117q-64 -75 -158 -109.5t-199 -34.5q-213 0 -343 123.5t-130 327.5v731h365v-647q0 -102 56.5 -155.5t158.5 -53.5q103 0 166 54t63 153z" />
    <glyph glyph-name="uni0216" unicode="&#x216;" horiz-adv-x="1679" 
d="M840 1946q168 0 274.5 -97.5t106.5 -271.5h-256q-3 53 -38 82t-87 29t-87 -29t-38 -82h-254q0 174 105.5 271.5t273.5 97.5zM840 -27q-320 0 -505 163.5t-185 447.5v891h378v-852q0 -150 79.5 -228t232.5 -78q311 0 311 306v852h379v-891q0 -285 -184 -448t-506 -163z
" />
    <glyph glyph-name="uni0217" unicode="&#x217;" horiz-adv-x="1452" 
d="M717 1368q-52 0 -87 -29t-38 -82h-254q0 174 105.5 271.5t273.5 97.5t274.5 -97.5t106.5 -271.5h-256q-3 53 -38 82t-87 29zM942 506v649h365v-1155h-344v117q-64 -75 -158 -109.5t-199 -34.5q-213 0 -343 123.5t-130 327.5v731h365v-647q0 -102 56.5 -155.5t158.5 -53.5
q103 0 166 54t63 153z" />
    <glyph glyph-name="uni0218" unicode="&#x218;" horiz-adv-x="1521" 
d="M772 -20q-216 0 -407 62t-306 171l226 276q205 -182 489 -182q122 0 191 39.5t69 97.5q0 90 -143 111l-316 49q-458 72 -458 428q0 214 170.5 340.5t480.5 126.5q182 0 354.5 -52t290.5 -159l-213 -272q-200 155 -424 155q-120 0 -193 -33t-73 -81q0 -76 127 -96l356 -58
q223 -36 331 -148t108 -280q0 -227 -175.5 -361t-484.5 -134zM801 -444h-262l88 354h383z" />
    <glyph glyph-name="uni0219" unicode="&#x219;" horiz-adv-x="1269" 
d="M55 147l166 246q83 -63 198 -101t228 -38q96 0 146.5 26.5t50.5 63.5q0 45 -80 59l-277 43q-197 31 -293 123t-96 230q0 176 144 279.5t393 103.5q138 0 282 -35t263 -115l-164 -244q-72 47 -176 81t-199 34q-80 0 -136 -22.5t-56 -57.5q0 -45 122 -63l244 -35
q379 -55 379 -348q0 -187 -147 -295.5t-394 -108.5q-164 0 -331 46t-267 128zM680 -440h-262l88 354h383z" />
    <glyph glyph-name="uni021A" unicode="&#x21a;" horiz-adv-x="1447" 
d="M1399 1475v-338h-486v-1137h-378v1137h-486v338h1350zM764 -446h-262l88 354h383z" />
    <glyph glyph-name="uni021B" unicode="&#x21b;" horiz-adv-x="1003" 
d="M776 313q78 0 164 29v-317q-89 -39 -223 -39q-241 0 -362.5 116t-121.5 330v420h-194v303h199v209l360 170v-379h332v-303h-332v-391q0 -148 178 -148zM590 -446h-262l88 354h383z" />
    <glyph glyph-name="uni022A" unicode="&#x22a;" horiz-adv-x="1798" 
d="M1262 2040h-725v274h725v-274zM643 1571q-90 0 -146.5 52t-56.5 136q0 83 58 137t145 54q85 0 143 -54t58 -137q0 -84 -56.5 -136t-144.5 -52zM1159 1571q-90 0 -146.5 52t-56.5 136q0 83 58 137t145 54q85 0 143 -54t58 -137q0 -84 -56.5 -136t-144.5 -52zM899 -27
q174 0 324.5 56.5t257 156.5t167 242.5t60.5 308.5t-60.5 308.5t-167 242.5t-257 156.5t-324.5 56.5t-324.5 -56.5t-257 -156.5t-167 -242.5t-60.5 -308.5t60.5 -308.5t167 -242.5t257 -156.5t324.5 -56.5zM899 1157q183 0 299.5 -116.5t116.5 -303.5t-116.5 -303.5
t-299.5 -116.5t-299.5 116.5t-116.5 303.5t116.5 303.5t299.5 116.5z" />
    <glyph glyph-name="uni022B" unicode="&#x22b;" horiz-adv-x="1458" 
d="M1092 1720h-725v275h725v-275zM473 1251q-90 0 -146.5 52.5t-56.5 136.5q0 83 58 136.5t145 53.5q86 0 143.5 -53.5t57.5 -136.5q0 -84 -56.5 -136.5t-144.5 -52.5zM989 1251q-90 0 -146.5 52.5t-56.5 136.5q0 83 58 136.5t145 53.5q86 0 143.5 -53.5t57.5 -136.5
q0 -84 -56.5 -136.5t-144.5 -52.5zM729 -27q-146 0 -269.5 47.5t-207 129.5t-130 192.5t-46.5 235.5t46.5 235.5t130 192t207 129t269.5 47.5t269.5 -47.5t207 -129t130 -192t46.5 -235.5t-46.5 -235.5t-130 -192.5t-207 -129.5t-269.5 -47.5zM729 301q120 0 202.5 77
t82.5 200t-82.5 199.5t-202.5 76.5t-202.5 -76.5t-82.5 -199.5t82.5 -200t202.5 -77z" />
    <glyph glyph-name="uni022C" unicode="&#x22c;" horiz-adv-x="1798" 
d="M1262 2040h-725v274h725v-274zM1053 1565q-61 0 -114.5 18.5t-84 40.5t-59.5 40.5t-45 18.5q-21 0 -30 -19t-13 -77h-269q6 167 80.5 263t222.5 96q61 0 115.5 -19t84.5 -41.5t57.5 -41.5t41.5 -19q26 0 36.5 20t13.5 78h270q-6 -166 -81.5 -262t-225.5 -96zM899 -27
q174 0 324.5 56.5t257 156.5t167 242.5t60.5 308.5t-60.5 308.5t-167 242.5t-257 156.5t-324.5 56.5t-324.5 -56.5t-257 -156.5t-167 -242.5t-60.5 -308.5t60.5 -308.5t167 -242.5t257 -156.5t324.5 -56.5zM899 1157q183 0 299.5 -116.5t116.5 -303.5t-116.5 -303.5
t-299.5 -116.5t-299.5 116.5t-116.5 303.5t116.5 303.5t299.5 116.5z" />
    <glyph glyph-name="uni022D" unicode="&#x22d;" horiz-adv-x="1458" 
d="M1092 1698h-725v274h725v-274zM883 1245q-61 0 -114.5 18.5t-84 41t-59.5 41t-45 18.5q-21 0 -30 -19t-13 -77h-269q6 166 80.5 262t222.5 96q61 0 115.5 -19t84.5 -41.5t57.5 -41.5t41.5 -19q25 0 36 20t14 79h270q-6 -166 -81.5 -262.5t-225.5 -96.5zM729 -27
q-146 0 -269.5 47.5t-207 129.5t-130 192.5t-46.5 235.5t46.5 235.5t130 192t207 129t269.5 47.5t269.5 -47.5t207 -129t130 -192t46.5 -235.5t-46.5 -235.5t-130 -192.5t-207 -129.5t-269.5 -47.5zM729 301q120 0 202.5 77t82.5 200t-82.5 199.5t-202.5 76.5t-202.5 -76.5
t-82.5 -199.5t82.5 -200t202.5 -77z" />
    <glyph glyph-name="uni0230" unicode="&#x230;" horiz-adv-x="1798" 
d="M1262 2017h-725v275h725v-275zM1104 1751q0 -84 -58 -137t-147 -53t-147 53t-58 137t58 137.5t147 53.5t147 -53.5t58 -137.5zM899 -27q174 0 324.5 56.5t257 156.5t167 242.5t60.5 308.5t-60.5 308.5t-167 242.5t-257 156.5t-324.5 56.5t-324.5 -56.5t-257 -156.5
t-167 -242.5t-60.5 -308.5t60.5 -308.5t167 -242.5t257 -156.5t324.5 -56.5zM899 1157q183 0 299.5 -116.5t116.5 -303.5t-116.5 -303.5t-299.5 -116.5t-299.5 116.5t-116.5 303.5t116.5 303.5t299.5 116.5z" />
    <glyph glyph-name="uni0231" unicode="&#x231;" horiz-adv-x="1458" 
d="M1092 1665h-725v274h725v-274zM934 1432q0 -84 -58 -137.5t-147 -53.5t-147 53.5t-58 137.5t58 137t147 53t147 -53t58 -137zM729 -27q-146 0 -269.5 47.5t-207 129.5t-130 192.5t-46.5 235.5t46.5 235.5t130 192t207 129t269.5 47.5t269.5 -47.5t207 -129t130 -192
t46.5 -235.5t-46.5 -235.5t-130 -192.5t-207 -129.5t-269.5 -47.5zM729 301q120 0 202.5 77t82.5 200t-82.5 199.5t-202.5 76.5t-202.5 -76.5t-82.5 -199.5t82.5 -200t202.5 -77z" />
    <glyph glyph-name="uni0232" unicode="&#x232;" horiz-adv-x="1540" 
d="M401 1886h725v-274h-725v274zM1126 1475h416l-579 -981v-494h-381v489l-588 986h424l358 -637z" />
    <glyph glyph-name="uni0233" unicode="&#x233;" horiz-adv-x="1368" 
d="M324 1567h725v-275h-725v275zM698 389l289 766h381l-524 -1214q-137 -320 -461 -320q-78 0 -169 19.5t-163 58.5l99 291q133 -56 221 -56q92 0 143 78l-516 1143h397z" />
    <glyph glyph-name="uni0237" unicode="&#x237;" horiz-adv-x="671" 
d="M104 -375q-91 0 -167 25v295q43 -11 92 -11q133 0 133 134v1087h364v-1143q0 -184 -111.5 -285.5t-310.5 -101.5z" />
    <glyph glyph-name="uni0259" unicode="&#x259;" horiz-adv-x="1402" 
d="M647 1182q160 0 290.5 -47.5t214.5 -129.5t129.5 -191t45.5 -234q0 -122 -43 -231.5t-122 -193.5t-200 -133t-266 -49t-264.5 49.5t-197 134t-120 196.5t-42.5 239q0 58 10 106h889q-33 90 -117.5 139.5t-210.5 49.5q-86 0 -154.5 -26t-152.5 -87l-186 232q75 78 201 127
t296 49zM694 274q105 0 177 49t102 136h-549q27 -88 96.5 -136.5t173.5 -48.5z" />
    <glyph glyph-name="uni02B9" unicode="&#x2b9;" horiz-adv-x="739" 
d="M373 881h-254l125 594h407z" />
    <glyph glyph-name="uni02BA" unicode="&#x2ba;" horiz-adv-x="1226" 
d="M373 881h-254l125 594h407zM860 881h-254l125 594h408z" />
    <glyph glyph-name="uni02BB" unicode="&#x2bb;" 
d="M-715 1591h260l-88 -356h-383z" />
    <glyph glyph-name="uni02BC" unicode="&#x2bc;" horiz-adv-x="630" 
d="M322 1481q76 0 129 -39t76.5 -98t23.5 -130q0 -59 -17 -119t-53.5 -125t-106.5 -125.5t-165 -105.5l-96 170q137 71 180 160q-82 9 -134.5 65t-52.5 142q0 88 62 146.5t154 58.5z" />
    <glyph glyph-name="uni02BE" unicode="&#x2be;" 
d="M-715 1616v186q136 0 224 -79t88 -203q0 -125 -88 -205t-224 -80v188q42 0 69.5 26.5t27.5 70.5q0 42 -27.5 69t-69.5 27z" />
    <glyph glyph-name="uni02BF" unicode="&#x2bf;" 
d="M-715 1423v-188q-134 0 -221.5 80t-87.5 205q0 124 87.5 203t221.5 79v-186q-40 0 -67 -27t-27 -69q0 -44 26.5 -70.5t67.5 -26.5z" />
    <glyph glyph-name="circumflex" unicode="&#x2c6;" horiz-adv-x="1187" 
d="M840 1591l229 -338h-309l-109 125l-110 -125h-312l232 338h379z" />
    <glyph glyph-name="caron" unicode="&#x2c7;" horiz-adv-x="1187" 
d="M639 1466l109 125h309l-230 -338h-378l-232 338h311z" />
    <glyph glyph-name="uni02C8" unicode="&#x2c8;" horiz-adv-x="509" 
d="M406 1188h-302v493h302v-493z" />
    <glyph glyph-name="uni02C9" unicode="&#x2c9;" horiz-adv-x="1187" 
d="M1022 1270h-725v274h725v-274z" />
    <glyph glyph-name="uni02CA" unicode="&#x2ca;" 
d="M-283 1591v-22l-299 -334h-331l213 356h417z" />
    <glyph glyph-name="uni02CB" unicode="&#x2cb;" 
d="M-1171 1573v22h419l193 -364h-334z" />
    <glyph glyph-name="uni02CC" unicode="&#x2cc;" horiz-adv-x="509" 
d="M406 -594h-302v494h302v-494z" />
    <glyph glyph-name="breve" unicode="&#x2d8;" horiz-adv-x="1187" 
d="M604 1223q-168 0 -273.5 97t-105.5 271h254q3 -53 38 -81.5t87 -28.5t87 28.5t38 81.5h256q0 -174 -106.5 -271t-274.5 -97z" />
    <glyph glyph-name="dotaccent" unicode="&#x2d9;" horiz-adv-x="1210" 
d="M543 1432q0 -84 -58 -137.5t-147 -53.5t-147 53.5t-58 137.5t58 137t147 53t147 -53t58 -137z" />
    <glyph glyph-name="ring" unicode="&#x2da;" horiz-adv-x="1185" 
d="M604 1235q-135 0 -227 80t-92 203t92 202.5t227 79.5t227.5 -79.5t92.5 -202.5t-92.5 -203t-227.5 -80zM604 1419q42 0 72.5 28t30.5 71t-30 70.5t-73 27.5q-42 0 -72 -27.5t-30 -70.5t30 -71t72 -28z" />
    <glyph glyph-name="ogonek" unicode="&#x2db;" horiz-adv-x="1187" 
d="M463 82l280 -82q-123 -43 -164.5 -67.5t-41.5 -49.5q0 -47 79 -47q46 0 97 25l86 -211q-88 -62 -248 -62q-63 0 -119 14t-102.5 42t-73.5 76.5t-27 111.5q0 76 60 142t174 108z" />
    <glyph glyph-name="tilde" unicode="&#x2dc;" horiz-adv-x="1187" 
d="M625 1223q-61 0 -114.5 18.5t-84 40.5t-59.5 40.5t-45 18.5q-21 0 -30 -19t-13 -77h-269q6 167 80.5 263t222.5 96q61 0 115.5 -19t84.5 -41.5t57.5 -41.5t41.5 -19q26 0 36.5 20t13.5 78h270q-6 -166 -81.5 -262t-225.5 -96z" />
    <glyph glyph-name="hungarumlaut" unicode="&#x2dd;" horiz-adv-x="1187" 
d="M961 1591v-22l-203 -334h-264l118 356h349zM1395 1591v-22l-238 -334h-264l151 356h351z" />
    <glyph glyph-name="gravecomb" unicode="&#x300;" 
d="M-1171 1573v22h419l193 -364h-334z" />
    <glyph glyph-name="acutecomb" unicode="&#x301;" 
d="M-283 1591v-22l-299 -334h-331l213 356h417z" />
    <glyph glyph-name="uni0302" unicode="&#x302;" 
d="M-537 1591l230 -338h-309l-111 125l-109 -125h-311l232 338h378z" />
    <glyph glyph-name="tildecomb" unicode="&#x303;" 
d="M-571 1223q-61 0 -114.5 18.5t-84 40.5t-59.5 40.5t-45 18.5q-21 0 -30.5 -19t-13.5 -77h-268q6 167 80.5 263t222.5 96q61 0 115.5 -19t84.5 -41.5t57.5 -41.5t41.5 -19q25 0 35.5 19.5t13.5 78.5h271q-6 -166 -81.5 -262t-225.5 -96z" />
    <glyph glyph-name="uni0304" unicode="&#x304;" 
d="M-362 1270h-725v274h725v-274z" />
    <glyph glyph-name="uni0306" unicode="&#x306;" 
d="M-725 1223q-168 0 -273.5 97t-105.5 271h254q3 -53 38 -81.5t87 -28.5t87 28.5t38 81.5h256q0 -174 -106.5 -271t-274.5 -97z" />
    <glyph glyph-name="uni0307" unicode="&#x307;" 
d="M-535 1432q0 -84 -58 -137.5t-146 -53.5q-89 0 -147 53.5t-58 137.5t58 137t147 53t146.5 -53t57.5 -137z" />
    <glyph glyph-name="uni0308" unicode="&#x308;" 
d="M-989 1229q-90 0 -146.5 52t-56.5 136q0 83 58 137t145 54q85 0 143 -54t58 -137q0 -84 -56.5 -136t-144.5 -52zM-473 1229q-90 0 -146.5 52t-56.5 136q0 83 58 137t145 54q85 0 143 -54t58 -137q0 -84 -56.5 -136t-144.5 -52z" />
    <glyph glyph-name="hookabovecomb" unicode="&#x309;" 
d="M-633 1235h-225v29q0 33 10 62t31.5 56t37 42.5t44.5 41.5q63 53 63 86q0 43 -63 43q-73 0 -76 -69h-233q5 128 90.5 201t236.5 73q128 0 211.5 -66.5t83.5 -170.5q0 -55 -24.5 -101t-81.5 -100q-84 -76 -94 -90q-11 -15 -11 -31v-6z" />
    <glyph glyph-name="uni030A" unicode="&#x30a;" 
d="M-727 1235q-135 0 -227.5 80t-92.5 203t92.5 202.5t227.5 79.5t227 -79.5t92 -202.5t-92 -203t-227 -80zM-727 1419q42 0 72 28t30 71t-30 70.5t-72 27.5t-72 -27.5t-30 -70.5t30 -71t72 -28z" />
    <glyph glyph-name="uni030B" unicode="&#x30b;" 
d="M-618 1591v-22l-203 -334h-264l118 356h349zM-184 1591v-22l-238 -334h-264l151 356h351z" />
    <glyph glyph-name="uni030C" unicode="&#x30c;" 
d="M-739 1466l110 125h310l-230 -338h-379l-231 338h311z" />
    <glyph glyph-name="uni030F" unicode="&#x30f;" 
d="M-1024 1235l-238 334v22h351l151 -356h-264zM-625 1235l-202 334v22h348l119 -356h-265z" />
    <glyph glyph-name="uni0311" unicode="&#x311;" 
d="M-725 1604q168 0 274.5 -97.5t106.5 -271.5h-256q-3 53 -38 82t-87 29t-87 -29t-38 -82h-254q0 174 105.5 271.5t273.5 97.5z" />
    <glyph glyph-name="uni0312" unicode="&#x312;" 
d="M-715 1591h260l-88 -356h-383z" />
    <glyph glyph-name="uni031B" unicode="&#x31b;" 
d="M-389 907h-113v226h62q84 0 120.5 32t36.5 92q0 80 -32 162h313q31 -61 31 -166q0 -175 -109 -260.5t-309 -85.5z" />
    <glyph glyph-name="dotbelowcomb" unicode="&#x323;" 
d="M-514 -254q0 -84 -58 -137t-147 -53t-147 53t-58 137t58 137.5t147 53.5t147 -53.5t58 -137.5z" />
    <glyph glyph-name="uni0324" unicode="&#x324;" 
d="M-989 -457q-90 0 -146.5 52.5t-56.5 136.5q0 83 58 136.5t145 53.5q86 0 143.5 -53.5t57.5 -136.5q0 -84 -56.5 -136.5t-144.5 -52.5zM-473 -457q-90 0 -146.5 52.5t-56.5 136.5q0 83 58 136.5t145 53.5q86 0 143.5 -53.5t57.5 -136.5q0 -84 -56.5 -136.5t-144.5 -52.5z
" />
    <glyph glyph-name="uni0326" unicode="&#x326;" 
d="M-674 -446h-262l88 354h383z" />
    <glyph glyph-name="uni0327" unicode="&#x327;" 
d="M-651 -55q111 0 177 -57t66 -136q0 -91 -92 -146t-252 -55q-177 0 -317 70l80 129q72 -31 118 -43t97 -12q55 0 82.5 16t27.5 41q0 27 -28.5 45.5t-79.5 18.5q-54 0 -105 -9l-47 27l156 209h193l-97 -98h21z" />
    <glyph glyph-name="uni0328" unicode="&#x328;" 
d="M-530 82l280 -82q-123 -43 -165 -67.5t-42 -49.5q0 -47 80 -47q45 0 96 25l86 -211q-88 -62 -247 -62q-63 0 -119 14t-102.5 42t-73.5 76.5t-27 111.5q0 76 60 142t174 108z" />
    <glyph glyph-name="uni032E" unicode="&#x32e;" 
d="M-727 -457q-168 0 -273.5 97.5t-105.5 271.5h254q3 -53 38 -82t87 -29t87 29t38 82h256q0 -174 -106.5 -271.5t-274.5 -97.5z" />
    <glyph glyph-name="uni0331" unicode="&#x331;" 
d="M-362 -399h-725v274h725v-274z" />
    <glyph glyph-name="Xi" unicode="&#x39e;" horiz-adv-x="1439" 
d="M1327 1141h-1214v334h1214v-334zM1184 590h-928v336h928v-336zM1327 0h-1214v334h1214v-334z" />
    <glyph glyph-name="pi" unicode="&#x3c0;" horiz-adv-x="1652" 
d="M1591 1155v-303h-276v-457q0 -86 96 -86q43 0 84 13v-310q-62 -26 -190 -26q-160 0 -259.5 96t-99.5 254v516h-276v-852h-369v852h-260v303h1550z" />
    <glyph glyph-name="uni0400" unicode="&#x400;" horiz-adv-x="1511" 
d="M799 1937l192 -364h-334l-278 342v22h420zM543 326h866l43 -326h-1286v1475h1266l-43 -326h-846v-231h583v-330h-583v-262z" />
    <glyph glyph-name="uni0401" unicode="&#x401;" horiz-adv-x="1511" 
d="M541 1571q-90 0 -146.5 52t-56.5 136q0 83 58 137t145 54q85 0 142.5 -54t57.5 -137q0 -84 -56 -136t-144 -52zM1057 1571q-90 0 -146.5 52t-56.5 136q0 83 58 137t145 54q85 0 142.5 -54t57.5 -137q0 -84 -56 -136t-144 -52zM543 326h866l43 -326h-1286v1475h1266
l-43 -326h-846v-231h583v-330h-583v-262z" />
    <glyph glyph-name="uni0402" unicode="&#x402;" horiz-adv-x="1927" 
d="M1214 942q300 0 467.5 -124t167.5 -357q0 -236 -168.5 -358.5t-482.5 -122.5q-98 0 -170 16v334q103 -15 170 -15q129 0 199.5 36.5t70.5 109.5q0 153 -307 153q-138 0 -295 -36v-578h-377v1145h-440v330h1450v-330h-633v-254q155 51 348 51z" />
    <glyph glyph-name="uni0403" unicode="&#x403;" horiz-adv-x="1370" 
d="M1151 1933v-22l-299 -334h-332l213 356h418zM1319 1475v-338h-776v-1137h-377v1475h1153z" />
    <glyph glyph-name="uni0404" unicode="&#x404;" horiz-adv-x="1613" 
d="M1325 473l236 -254q-101 -124 -267 -185t-358 -61q-183 0 -341.5 58.5t-269 160.5t-173 243t-62.5 302t63 302t173 243t267.5 160.5t338.5 58.5q192 0 355 -62t263 -182l-235 -260q-90 92 -178.5 132t-192.5 40q-151 0 -264.5 -69t-167.5 -185h684v-313h-700
q42 -134 162 -215.5t288 -81.5q214 0 379 168z" />
    <glyph glyph-name="uni0405" unicode="&#x405;" horiz-adv-x="1521" 
d="M772 -20q-216 0 -407 62t-306 171l226 276q205 -182 489 -182q122 0 191 39.5t69 97.5q0 90 -143 111l-316 49q-458 72 -458 428q0 214 170.5 340.5t480.5 126.5q182 0 354.5 -52t290.5 -159l-213 -272q-200 155 -424 155q-120 0 -193 -33t-73 -81q0 -76 127 -96l356 -58
q223 -36 331 -148t108 -280q0 -227 -175.5 -361t-484.5 -134z" />
    <glyph glyph-name="uni0406" unicode="&#x406;" horiz-adv-x="708" 
d="M166 0v1475h377v-1475h-377z" />
    <glyph glyph-name="uni0407" unicode="&#x407;" horiz-adv-x="708" 
d="M115 1571q-88 0 -144.5 52t-56.5 136q0 83 57 137t144 54q86 0 143 -54t57 -137q0 -84 -56 -136t-144 -52zM604 1571q-88 0 -144.5 52t-56.5 136q0 83 57 137t144 54t144 -54t57 -137q0 -84 -55.5 -136t-145.5 -52zM166 0v1475h377v-1475h-377z" />
    <glyph glyph-name="uni0408" unicode="&#x408;" horiz-adv-x="1353" 
d="M825 512v963h377v-963q0 -166 -76 -289.5t-205 -186.5t-292 -63q-264 0 -424 151.5t-160 422.5h367q0 -123 61 -177.5t154 -54.5q90 0 144 53t54 144z" />
    <glyph glyph-name="uni0409" unicode="&#x409;" horiz-adv-x="2502" 
d="M1497 1020h371q111 0 205 -27t161 -74.5t114 -111.5t70 -139.5t23 -157.5t-23 -157.5t-70 -139.5t-114 -111.5t-161 -74.5t-205 -27h-748v1137h-422q-14 -302 -47 -686q-19 -210 -137 -335.5t-299 -125.5q-82 0 -164 16v342q39 -8 74 -8q79 0 125 44.5t55 131.5
q45 436 60 959h1132v-455zM1497 332h363q93 0 146.5 47.5t53.5 130.5t-53.5 130.5t-146.5 47.5h-363v-356z" />
    <glyph glyph-name="uni040A" unicode="&#x40a;" horiz-adv-x="2535" 
d="M1532 987h389q134 0 241.5 -40t175 -108.5t103 -156.5t35.5 -188t-35.5 -188t-103 -157t-175 -109t-241.5 -40h-766v647h-612v-647h-377v1475h377v-490h612v490h377v-488zM1532 332h381q85 0 133.5 43.5t48.5 118.5t-48.5 118t-133.5 43h-381v-323z" />
    <glyph glyph-name="uni040B" unicode="&#x40b;" horiz-adv-x="1935" 
d="M1231 926q280 0 443 -135t163 -373v-418h-377v365q0 111 -72.5 172t-209.5 61q-141 0 -312 -41v-557h-377v1145h-440v330h1458v-330h-641v-275q170 56 365 56z" />
    <glyph glyph-name="uni040C" unicode="&#x40c;" horiz-adv-x="1638" 
d="M1223 1933v-22l-299 -334h-332l213 356h418zM1651 0h-451l-444 627h-213v-627h-377v1475h377v-510h205l428 510h432l-553 -658z" />
    <glyph glyph-name="uni040D" unicode="&#x40d;" horiz-adv-x="1812" 
d="M901 1937l193 -364h-334l-279 342v22h420zM539 473l735 1002h373v-1475h-373v985l-723 -985h-385v1475h373v-1002z" />
    <glyph glyph-name="uni040E" unicode="&#x40e;" horiz-adv-x="1595" 
d="M817 1565q-179 0 -289 97t-110 271h276q1 -63 35 -99t88 -36t88 36t35 99h279q0 -174 -111 -271t-291 -97zM836 721l342 754h411l-588 -1186q-156 -316 -495 -316q-175 0 -303 64l86 307q121 -45 205 -45q81 0 131 53l-588 1123h434z" />
    <glyph glyph-name="uni040F" unicode="&#x40f;" horiz-adv-x="1748" 
d="M1206 338v1137h377v-1475h-536v-328h-345v328h-536v1475h377v-1137h663z" />
    <glyph glyph-name="uni0410" unicode="&#x410;" horiz-adv-x="1640" 
d="M1632 0h-393l-111 299h-620l-111 -299h-389l578 1475h467zM817 1141l-192 -525h387z" />
    <glyph glyph-name="uni0411" unicode="&#x411;" horiz-adv-x="1579" 
d="M543 926h446q127 0 228.5 -37.5t164.5 -102t96 -146.5t33 -175t-33 -176t-96 -148t-164.5 -103t-228.5 -38h-823v1475h1202v-326h-825v-223zM543 332h438q70 0 109.5 35.5t39.5 97.5t-39.5 97.5t-109.5 35.5h-438v-266z" />
    <glyph glyph-name="uni0412" unicode="&#x412;" horiz-adv-x="1636" 
d="M1305 807q72 -26 123.5 -68.5t78 -94.5t38 -102.5t11.5 -105.5q0 -199 -141.5 -317.5t-396.5 -118.5h-852v1475h792q232 0 353 -112t121 -292q0 -171 -127 -264zM903 1163h-368v-262h383q61 0 101 33.5t40 97.5q0 131 -156 131zM535 311h456q189 0 189 142
q0 65 -41.5 103t-114.5 38h-489v-283z" />
    <glyph glyph-name="uni0413" unicode="&#x413;" horiz-adv-x="1370" 
d="M1319 1475v-338h-776v-1137h-377v1475h1153z" />
    <glyph glyph-name="uni0414" unicode="&#x414;" horiz-adv-x="1896" 
d="M1622 1475v-1137h188v-666h-344v328h-1067v-328h-344v666h172q36 53 63.5 140t37.5 184q1 13 9 88t10.5 103.5t9 107.5t10 142t7.5 162.5t7 209.5h1241zM586 334h661v807h-536q-8 -157 -41 -525q-17 -159 -84 -282z" />
    <glyph glyph-name="uni0415" unicode="&#x415;" horiz-adv-x="1511" 
d="M543 326h866l43 -326h-1286v1475h1266l-43 -326h-846v-231h583v-330h-583v-262z" />
    <glyph glyph-name="uni0416" unicode="&#x416;" horiz-adv-x="2383" 
d="M2390 0h-438l-408 627h-164v-627h-376v627h-164l-408 -627h-438l553 817l-510 658h420l391 -510h156v510h376v-510h156l391 510h420l-510 -658z" />
    <glyph glyph-name="uni0417" unicode="&#x417;" horiz-adv-x="1480" 
d="M1153 786q118 -47 180 -134.5t62 -207.5q0 -214 -178.5 -342.5t-473.5 -128.5q-219 0 -404.5 59t-299.5 165l203 274q204 -164 493 -164q127 0 199 42.5t72 115.5q0 67 -63.5 102t-178.5 35h-336v313h320q90 0 142 36.5t52 95.5q0 56 -55 88t-152 32q-126 0 -232.5 -37
t-209.5 -116l-199 276q110 100 278 155.5t371 55.5q264 0 424 -117t160 -309q0 -198 -174 -289z" />
    <glyph glyph-name="uni0418" unicode="&#x418;" horiz-adv-x="1812" 
d="M539 473l735 1002h373v-1475h-373v985l-723 -985h-385v1475h373v-1002z" />
    <glyph glyph-name="uni0419" unicode="&#x419;" horiz-adv-x="1812" 
d="M899 1565q-179 0 -289 97t-110 271h276q1 -63 35 -99t88 -36t88 36t35 99h278q0 -174 -110.5 -271t-290.5 -97zM539 473l735 1002h373v-1475h-373v985l-723 -985h-385v1475h373v-1002z" />
    <glyph glyph-name="uni041A" unicode="&#x41a;" horiz-adv-x="1638" 
d="M1651 0h-451l-444 627h-213v-627h-377v1475h377v-510h205l428 510h432l-553 -658z" />
    <glyph glyph-name="uni041B" unicode="&#x41b;" horiz-adv-x="1761" 
d="M1595 1475v-1475h-376v1137h-521q-14 -302 -47 -686q-19 -210 -137 -335.5t-299 -125.5q-82 0 -164 16v342q39 -8 74 -8q79 0 125 44.5t55 131.5q45 436 60 959h1230z" />
    <glyph glyph-name="uni041C" unicode="&#x41c;" horiz-adv-x="2134" 
d="M1968 1475v-1475h-366v1010l-412 -996h-250l-408 965v-979h-366v1475h508l401 -955l385 955h508z" />
    <glyph glyph-name="uni041D" unicode="&#x41d;" horiz-adv-x="1779" 
d="M1237 965v510h377v-1475h-377v627h-694v-627h-377v1475h377v-510h694z" />
    <glyph glyph-name="uni041E" unicode="&#x41e;" horiz-adv-x="1798" 
d="M899 -27q174 0 324.5 56.5t257 156.5t167 242.5t60.5 308.5t-60.5 308.5t-167 242.5t-257 156.5t-324.5 56.5t-324.5 -56.5t-257 -156.5t-167 -242.5t-60.5 -308.5t60.5 -308.5t167 -242.5t257 -156.5t324.5 -56.5zM899 1157q183 0 299.5 -116.5t116.5 -303.5
t-116.5 -303.5t-299.5 -116.5t-299.5 116.5t-116.5 303.5t116.5 303.5t299.5 116.5z" />
    <glyph glyph-name="uni041F" unicode="&#x41f;" horiz-adv-x="1753" 
d="M1587 1475v-1475h-377v1137h-667v-1137h-377v1475h1421z" />
    <glyph glyph-name="uni0420" unicode="&#x420;" horiz-adv-x="1556" 
d="M954 1475q132 0 236.5 -37.5t170.5 -104t100 -153t34 -187.5t-34 -188t-100 -153t-170.5 -104t-236.5 -38h-411v-510h-377v1475h788zM543 844h403q80 0 124 38.5t44 110.5t-44 111t-124 39h-403v-299z" />
    <glyph glyph-name="uni0421" unicode="&#x421;" horiz-adv-x="1601" 
d="M936 -27q-183 0 -341.5 58.5t-269 160.5t-173 243t-62.5 302t63 302t173 243t267.5 160.5t338.5 58.5q192 0 355 -62t263 -182l-237 -262q-88 89 -176 126.5t-193 37.5q-201 0 -331 -121t-130 -301q0 -181 130 -301.5t333 -120.5q220 0 377 160l238 -256
q-101 -124 -267 -185t-358 -61z" />
    <glyph glyph-name="uni0422" unicode="&#x422;" horiz-adv-x="1447" 
d="M1399 1475v-338h-486v-1137h-378v1137h-486v338h1350z" />
    <glyph glyph-name="uni0423" unicode="&#x423;" horiz-adv-x="1595" 
d="M836 721l342 754h411l-588 -1186q-156 -316 -495 -316q-175 0 -303 64l86 307q121 -45 205 -45q81 0 131 53l-588 1123h434z" />
    <glyph glyph-name="uni0424" unicode="&#x424;" horiz-adv-x="2105" 
d="M2023 750q0 -187 -100 -333.5t-278.5 -229t-407.5 -87.5v-149h-369v149q-229 5 -407.5 87.5t-278.5 229t-100 333.5t100 333.5t278.5 228.5t407.5 87v141h369v-141q229 -5 407.5 -87t278.5 -228.5t100 -333.5zM467 750q0 -78 33.5 -140t91 -100t128.5 -59t152 -23v643
q-81 -2 -152 -23t-128.5 -59t-91 -99.5t-33.5 -139.5zM1233 1071v-643q81 2 152 23t128.5 59t91 100t33.5 140t-33.5 139.5t-91 99.5t-128.5 59t-152 23z" />
    <glyph glyph-name="uni0425" unicode="&#x425;" horiz-adv-x="1542" 
d="M1004 772l542 -772h-440l-334 481l-338 -481h-434l545 762l-516 713h442l301 -422l299 422h434z" />
    <glyph glyph-name="uni0426" unicode="&#x426;" horiz-adv-x="1845" 
d="M1571 1475v-1137h188v-666h-344v328h-1249v1475h377v-1137h651v1137h377z" />
    <glyph glyph-name="uni0427" unicode="&#x427;" horiz-adv-x="1646" 
d="M1104 842v633h377v-1475h-377v516q-167 -55 -365 -55q-291 0 -465 150t-174 403v461h377v-408q0 -127 82.5 -196.5t233.5 -69.5q140 0 311 41z" />
    <glyph glyph-name="uni0428" unicode="&#x428;" horiz-adv-x="2363" 
d="M1821 338v1137h377v-1475h-2032v1475h377v-1137h450v1137h377v-1137h451z" />
    <glyph glyph-name="uni0429" unicode="&#x429;" horiz-adv-x="2471" 
d="M2198 1475v-1137h188v-666h-344v328h-1876v1475h377v-1137h450v1137h377v-1137h451v1137h377z" />
    <glyph glyph-name="uni042A" unicode="&#x42a;" horiz-adv-x="1890" 
d="M868 1020h387q138 0 249 -41t181 -112t107 -162.5t37 -194.5t-37 -194.5t-107 -162.5t-181 -112t-249 -41h-763v1137h-441v338h817v-455zM868 332h379q93 0 147 47.5t54 130.5t-54 130.5t-147 47.5h-379v-356z" />
    <glyph glyph-name="uni042B" unicode="&#x42b;" horiz-adv-x="2179" 
d="M543 1020h395q111 0 205 -27t161 -74.5t114 -111.5t70 -139.5t23 -157.5t-23 -157.5t-70 -139.5t-114 -111.5t-161 -74.5t-205 -27h-772v1475h377v-455zM1636 0v1475h377v-1475h-377zM543 332h387q93 0 146.5 47.5t53.5 130.5t-53.5 130.5t-146.5 47.5h-387v-356z" />
    <glyph glyph-name="uni042C" unicode="&#x42c;" horiz-adv-x="1572" 
d="M543 1020h395q111 0 205 -27t161 -74.5t114 -111.5t70 -139.5t23 -157.5t-23 -157.5t-70 -139.5t-114 -111.5t-161 -74.5t-205 -27h-772v1475h377v-455zM543 332h387q93 0 146.5 47.5t53.5 130.5t-53.5 130.5t-146.5 47.5h-387v-356z" />
    <glyph glyph-name="uni042D" unicode="&#x42d;" horiz-adv-x="1613" 
d="M682 1501q181 0 338.5 -58.5t267.5 -160.5t173 -243t63 -302t-62.5 -302t-173 -243t-269 -160.5t-341.5 -58.5q-192 0 -358 61t-267 185l236 254q165 -168 379 -168q168 0 288 81.5t162 215.5h-700v313h684q-54 116 -167.5 185t-264.5 69q-104 0 -192.5 -40t-178.5 -132
l-236 260q100 120 263.5 182t355.5 62z" />
    <glyph glyph-name="uni042E" unicode="&#x42e;" horiz-adv-x="2379" 
d="M1489 1501q231 0 413.5 -96.5t285 -271t102.5 -396.5t-102.5 -396.5t-285 -271t-413.5 -96.5q-320 0 -539 181.5t-256 474.5h-151v-629h-377v1475h377v-512h176q69 246 276 392t494 146zM1489 317q179 0 293 116.5t114 303.5t-114 303.5t-293 116.5t-293.5 -116.5
t-114.5 -303.5t114.5 -303.5t293.5 -116.5z" />
    <glyph glyph-name="uni042F" unicode="&#x42f;" horiz-adv-x="1640" 
d="M1475 1475v-1475h-373v506h-301l-330 -506h-416l377 553q-145 51 -223 168t-78 268q0 100 34 187.5t98 154.5t162.5 105.5t219.5 38.5h830zM694 829h408v318h-408q-84 0 -132 -43.5t-48 -114.5q0 -73 48 -116.5t132 -43.5z" />
    <glyph glyph-name="uni0430" unicode="&#x430;" horiz-adv-x="1390" 
d="M1300 274q20 0 48 7v-267q-45 -22 -136 -22q-211 0 -288 143q-129 -160 -402 -160q-131 0 -234.5 37.5t-169 120t-65.5 199.5q0 182 154 285.5t438 103.5h234q-11 77 -72.5 120.5t-165.5 43.5q-181 0 -340 -111l-168 258q110 79 249 114.5t277 35.5q267 0 414.5 -126.5
t147.5 -353.5v-350q0 -39 22.5 -58.5t56.5 -19.5zM571 246q50 0 98.5 13t93 39.5t75.5 73t39 107.5h-220q-136 0 -189.5 -37t-53.5 -88q0 -45 39 -76.5t118 -31.5z" />
    <glyph glyph-name="uni0431" unicode="&#x431;" horiz-adv-x="1488" 
d="M829 1092q162 0 296.5 -74t211 -202.5t76.5 -283.5q0 -110 -43.5 -210t-123.5 -178t-204 -124.5t-274 -46.5q-309 0 -489.5 192.5t-180.5 555.5q0 385 174.5 588t538.5 241q14 1 75 7t108 11t110 12.5t116.5 16.5t90.5 19v-326q-72 -21 -174 -33t-295 -26
q-213 -15 -313 -104t-128 -289q59 123 168.5 188.5t259.5 65.5zM768 301q121 0 198.5 67t77.5 171q0 107 -77 174t-199 67t-198 -67t-76 -174q0 -105 76.5 -171.5t197.5 -66.5z" />
    <glyph glyph-name="uni0432" unicode="&#x432;" horiz-adv-x="1359" 
d="M1112 641q178 -79 178 -291q0 -161 -116.5 -255.5t-327.5 -94.5h-701v1155h660q192 0 291.5 -89t99.5 -235q0 -122 -84 -190zM748 860h-250v-153h262q33 0 57.5 18t24.5 57q0 38 -26 58t-68 20zM498 297h323q109 0 109 80q0 37 -23.5 60.5t-64.5 23.5h-344v-164z" />
    <glyph glyph-name="uni0433" unicode="&#x433;" horiz-adv-x="1105" 
d="M1063 1155v-326h-553v-829h-365v1155h918z" />
    <glyph glyph-name="uni0434" unicode="&#x434;" horiz-adv-x="1591" 
d="M1331 1155v-831h180v-627h-331v303h-803v-303h-332v627h145q79 106 97 307q25 253 32 524h1012zM537 319h434v517h-336q-2 -50 -21 -250q-15 -153 -77 -267z" />
    <glyph glyph-name="uni0435" unicode="&#x435;" horiz-adv-x="1402" 
d="M1331 563q0 -58 -10 -106h-889q33 -90 117.5 -139.5t210.5 -49.5q86 0 154.5 26t152.5 87l186 -231q-75 -79 -201.5 -128t-295.5 -49q-160 0 -290.5 47.5t-214.5 129.5t-129.5 191t-45.5 234q0 122 43 231.5t122 193.5t200 133t266 49t264.5 -49.5t197 -134t120 -196.5
t42.5 -239zM709 881q-105 0 -177 -49t-102 -136h549q-27 88 -96.5 136.5t-173.5 48.5z" />
    <glyph glyph-name="uni0436" unicode="&#x436;" horiz-adv-x="2027" 
d="M2034 0h-406l-297 461h-139v-461h-356v461h-140l-297 -461h-405l434 647l-391 508h403l262 -369h134v369h356v-369h133l262 369h404l-392 -508z" />
    <glyph glyph-name="uni0437" unicode="&#x437;" horiz-adv-x="1224" 
d="M958 608q195 -76 195 -260q0 -170 -147.5 -271.5t-389.5 -101.5q-187 0 -340.5 48.5t-242.5 132.5l184 247q160 -122 391 -122q86 0 134.5 24.5t48.5 65.5t-44 66.5t-120 25.5h-271v260h265q57 0 88.5 22t31.5 60q0 34 -35 53t-98 19q-198 0 -350 -115l-180 248
q85 78 224.5 124t313.5 46q216 0 350 -96.5t134 -252.5q0 -154 -142 -223z" />
    <glyph glyph-name="uni0438" unicode="&#x438;" horiz-adv-x="1495" 
d="M502 461l493 694h355v-1155h-357v678l-481 -678h-367v1155h357v-694z" />
    <glyph glyph-name="uni0439" unicode="&#x439;" horiz-adv-x="1495" 
d="M741 1245q-179 0 -289 97t-110 272h276q1 -63 35 -99t88 -36t88 36t35 99h279q0 -174 -111 -271.5t-291 -97.5zM502 461l493 694h355v-1155h-357v678l-481 -678h-367v1155h357v-694z" />
    <glyph glyph-name="uni043A" unicode="&#x43a;" horiz-adv-x="1386" 
d="M1409 0h-418l-329 461h-152v-461h-365v1155h365v-369h143l297 369h416l-430 -512z" />
    <glyph glyph-name="uni043B" unicode="&#x43b;" horiz-adv-x="1437" 
d="M1292 1155v-1155h-364v831h-303q-8 -126 -31 -405q-19 -208 -121.5 -322t-265.5 -114q-83 0 -148 14v315q30 -6 58 -6q54 0 94 44t49 130q32 318 43 668h989z" />
    <glyph glyph-name="uni043C" unicode="&#x43c;" horiz-adv-x="1814" 
d="M1669 1155v-1155h-350v741l-305 -735h-215l-303 715v-721h-351v1155h494l276 -657l261 657h493z" />
    <glyph glyph-name="uni043D" unicode="&#x43d;" horiz-adv-x="1462" 
d="M952 786v369h365v-1155h-365v461h-442v-461h-365v1155h365v-369h442z" />
    <glyph glyph-name="uni043E" unicode="&#x43e;" horiz-adv-x="1458" 
d="M729 -27q-146 0 -269.5 47.5t-207 129.5t-130 192.5t-46.5 235.5t46.5 235.5t130 192t207 129t269.5 47.5t269.5 -47.5t207 -129t130 -192t46.5 -235.5t-46.5 -235.5t-130 -192.5t-207 -129.5t-269.5 -47.5zM729 301q120 0 202.5 77t82.5 200t-82.5 199.5t-202.5 76.5
t-202.5 -76.5t-82.5 -199.5t82.5 -200t202.5 -77z" />
    <glyph glyph-name="uni043F" unicode="&#x43f;" horiz-adv-x="1445" 
d="M1300 1155v-1155h-364v831h-426v-831h-365v1155h1155z" />
    <glyph glyph-name="uni0440" unicode="&#x440;" horiz-adv-x="1515" 
d="M848 1182q176 0 312.5 -81.5t208 -218.5t71.5 -304t-71.5 -304t-208 -219t-312.5 -82q-212 0 -338 129v-471h-365v1524h344v-123q133 150 359 150zM782 299q128 0 208.5 79t80.5 200t-80.5 199.5t-208.5 78.5q-129 0 -206.5 -79.5t-77.5 -198.5t77.5 -199t206.5 -80z" />
    <glyph glyph-name="uni0441" unicode="&#x441;" horiz-adv-x="1277" 
d="M748 -27q-157 0 -286 47.5t-213 129.5t-129.5 190t-45.5 231q0 126 48 238t134 194.5t212.5 130.5t276.5 48q161 0 285.5 -52.5t200.5 -134.5l-211 -258q-119 119 -272 119q-123 0 -214.5 -75.5t-91.5 -202.5q0 -128 91.5 -203.5t218.5 -75.5q73 0 145.5 27t128.5 82
l209 -256q-77 -79 -199 -129t-288 -50z" />
    <glyph glyph-name="uni0442" unicode="&#x442;" horiz-adv-x="1196" 
d="M1153 1155v-326h-373v-829h-364v829h-373v326h1110z" />
    <glyph glyph-name="uni0443" unicode="&#x443;" horiz-adv-x="1368" 
d="M698 389l289 766h381l-524 -1214q-137 -320 -461 -320q-78 0 -169 19.5t-163 58.5l99 291q133 -56 221 -56q92 0 143 78l-516 1143h397z" />
    <glyph glyph-name="uni0444" unicode="&#x444;" horiz-adv-x="1851" 
d="M1778 578q0 -174 -90 -309.5t-242.5 -210t-341.5 -81.5v-346h-356v346q-189 7 -341.5 81.5t-242.5 210t-90 309.5q0 131 52.5 241.5t143 187t214 121.5t264.5 50v362h356v-362q141 -5 264.5 -50t214 -121.5t143 -187t52.5 -241.5zM434 578q0 -70 27.5 -124.5t73.5 -86.5
t101 -49.5t116 -20.5v561q-49 -2 -93.5 -13t-86 -33t-72 -53.5t-48.5 -77.5t-18 -103zM1100 858v-561q61 3 115.5 20.5t101 49.5t73.5 86.5t27 124.5q0 57 -18 103t-48.5 77.5t-72 53.5t-85.5 33t-93 13z" />
    <glyph glyph-name="uni0445" unicode="&#x445;" horiz-adv-x="1325" 
d="M872 600l457 -600h-426l-244 336l-249 -336h-412l453 586l-433 569h426l224 -305l227 305h412z" />
    <glyph glyph-name="uni0446" unicode="&#x446;" horiz-adv-x="1552" 
d="M1292 1155v-831h181v-627h-332v303h-996v1155h365v-831h418v831h364z" />
    <glyph glyph-name="uni0447" unicode="&#x447;" horiz-adv-x="1345" 
d="M836 680v475h364v-1155h-364v358q-120 -30 -242 -30q-234 0 -374 119.5t-140 322.5v385h364v-330q0 -82 53 -126t150 -44q83 0 189 25z" />
    <glyph glyph-name="uni0448" unicode="&#x448;" horiz-adv-x="2072" 
d="M1563 324v831h364v-1155h-1782v1155h365v-831h344v831h365v-831h344z" />
    <glyph glyph-name="uni0449" unicode="&#x449;" horiz-adv-x="2187" 
d="M1927 1155v-831h180v-627h-331v303h-1631v1155h365v-831h344v831h365v-831h344v831h364z" />
    <glyph glyph-name="uni044A" unicode="&#x44a;" horiz-adv-x="1517" 
d="M729 846h268q112 0 203.5 -34.5t149.5 -94t89 -135t31 -160.5t-31 -160.5t-89 -134t-149.5 -93t-203.5 -34.5h-632v829h-320v326h684v-309zM729 322h260q51 0 82 27t31 73t-31 74t-82 28h-260v-202z" />
    <glyph glyph-name="uni044B" unicode="&#x44b;" horiz-adv-x="1882" 
d="M510 846h276q112 0 203.5 -34.5t150 -94t89.5 -135t31 -160.5t-31 -160.5t-89.5 -134t-150 -93t-203.5 -34.5h-641v1155h365v-309zM1378 0v1155h365v-1155h-365zM510 322h268q51 0 82 27t31 73t-31 74t-82 28h-268v-202z" />
    <glyph glyph-name="uni044C" unicode="&#x44c;" horiz-adv-x="1306" 
d="M510 846h276q112 0 203.5 -34.5t150 -94t89.5 -135t31 -160.5t-31 -160.5t-89.5 -134t-150 -93t-203.5 -34.5h-641v1155h365v-309zM510 322h268q51 0 82 27t31 73t-31 74t-82 28h-268v-202z" />
    <glyph glyph-name="uni044D" unicode="&#x44d;" horiz-adv-x="1286" 
d="M539 1182q150 0 276.5 -48t212.5 -130.5t134 -194.5t48 -238q0 -123 -45.5 -231t-129 -190t-212.5 -129.5t-286 -47.5q-166 0 -288.5 50t-199.5 129l203 247q119 -116 280 -116q106 0 189 46.5t117 133.5h-459v260h444q-40 72 -116.5 110.5t-169.5 38.5q-152 0 -279 -127
l-205 250q76 82 200.5 134.5t285.5 52.5z" />
    <glyph glyph-name="uni044E" unicode="&#x44e;" horiz-adv-x="1986" 
d="M1266 1182q145 0 267 -47.5t204 -129t128 -192t46 -235.5t-46 -235.5t-128 -192.5t-204 -129.5t-267 -47.5q-254 0 -425 137.5t-210 352.5h-121v-463h-365v1155h365v-371h145q62 179 223.5 288.5t387.5 109.5zM1266 301q117 0 196.5 77t79.5 200t-79.5 199.5t-196.5 76.5
t-197 -76.5t-80 -199.5t80 -200t197 -77z" />
    <glyph glyph-name="uni044F" unicode="&#x44f;" horiz-adv-x="1372" 
d="M1227 1155v-1155h-361v340h-184l-233 -340h-402l287 397q-105 49 -161 142t-56 209q0 113 48.5 204t148 147t235.5 56h678zM602 651h264v189h-264q-54 0 -84.5 -25.5t-30.5 -69.5t30.5 -69t84.5 -25z" />
    <glyph glyph-name="uni0450" unicode="&#x450;" horiz-adv-x="1402" 
d="M717 1618l192 -365h-334l-278 342v23h420zM1331 563q0 -58 -10 -106h-889q33 -90 117.5 -139.5t210.5 -49.5q86 0 154.5 26t152.5 87l186 -231q-75 -79 -201.5 -128t-295.5 -49q-160 0 -290.5 47.5t-214.5 129.5t-129.5 191t-45.5 234q0 122 43 231.5t122 193.5t200 133
t266 49t264.5 -49.5t197 -134t120 -196.5t42.5 -239zM709 881q-105 0 -177 -49t-102 -136h549q-27 88 -96.5 136.5t-173.5 48.5z" />
    <glyph glyph-name="uni0451" unicode="&#x451;" horiz-adv-x="1402" 
d="M459 1251q-90 0 -146.5 52.5t-56.5 136.5q0 83 58 136.5t145 53.5q85 0 142.5 -53.5t57.5 -136.5q0 -84 -56 -136.5t-144 -52.5zM975 1251q-90 0 -146.5 52.5t-56.5 136.5q0 83 58 136.5t145 53.5q86 0 143.5 -53.5t57.5 -136.5q0 -84 -56.5 -136.5t-144.5 -52.5z
M1331 563q0 -58 -10 -106h-889q33 -90 117.5 -139.5t210.5 -49.5q86 0 154.5 26t152.5 87l186 -231q-75 -79 -201.5 -128t-295.5 -49q-160 0 -290.5 47.5t-214.5 129.5t-129.5 191t-45.5 234q0 122 43 231.5t122 193.5t200 133t266 49t264.5 -49.5t197 -134t120 -196.5
t42.5 -239zM709 881q-105 0 -177 -49t-102 -136h549q-27 88 -96.5 136.5t-173.5 48.5z" />
    <glyph glyph-name="uni0452" unicode="&#x452;" horiz-adv-x="1429" 
d="M846 1141q253 0 368 -152.5t115 -484.5q0 -356 -132 -547.5t-458 -308.5l-108 286q183 60 256.5 180t73.5 357q0 180 -47 262t-175 82q-103 0 -166 -54t-63 -153v-608h-365v1206h-139v217h139v117h365v-117h336v-217h-336v-188q123 123 336 123z" />
    <glyph glyph-name="uni0453" unicode="&#x453;" horiz-adv-x="1105" 
d="M1018 1614v-23l-299 -334h-332l213 357h418zM1063 1155v-326h-553v-829h-365v1155h918z" />
    <glyph glyph-name="uni0454" unicode="&#x454;" horiz-adv-x="1286" 
d="M1034 399l203 -247q-77 -79 -199 -129t-288 -50q-157 0 -286 47.5t-213 129.5t-129.5 190t-45.5 231q0 126 48 238t134 194.5t213 130.5t277 48q161 0 285 -52.5t200 -134.5l-205 -250q-127 127 -278 127q-93 0 -170 -38.5t-117 -110.5h444v-260h-458
q34 -87 116.5 -133.5t188.5 -46.5q161 0 280 116z" />
    <glyph glyph-name="uni0455" unicode="&#x455;" horiz-adv-x="1269" 
d="M55 147l166 246q83 -63 198 -101t228 -38q96 0 146.5 26.5t50.5 63.5q0 45 -80 59l-277 43q-197 31 -293 123t-96 230q0 176 144 279.5t393 103.5q138 0 282 -35t263 -115l-164 -244q-72 47 -176 81t-199 34q-80 0 -136 -22.5t-56 -57.5q0 -45 122 -63l244 -35
q379 -55 379 -348q0 -187 -147 -295.5t-394 -108.5q-164 0 -331 46t-267 128z" />
    <glyph glyph-name="uni0456" unicode="&#x456;" horiz-adv-x="655" 
d="M532 1432q0 -84 -58 -137.5t-146 -53.5q-89 0 -147 53.5t-58 137.5t58 137t147 53t146.5 -53t57.5 -137zM510 0h-365v1155h365v-1155z" />
    <glyph glyph-name="uni0457" unicode="&#x457;" horiz-adv-x="655" 
d="M84 1251q-88 0 -144.5 52.5t-56.5 136.5q0 83 57 136.5t144 53.5t144 -53.5t57 -136.5q0 -84 -56.5 -136.5t-144.5 -52.5zM573 1251q-88 0 -144 52.5t-56 136.5q0 83 56.5 136.5t143.5 53.5t144 -53.5t57 -136.5q0 -85 -56 -137t-145 -52zM510 0h-365v1155h365v-1155z
" />
    <glyph glyph-name="uni0458" unicode="&#x458;" horiz-adv-x="671" 
d="M549 1432q0 -84 -58 -137.5t-147 -53.5t-147 53.5t-58 137.5t58 137t147 53t147 -53t58 -137zM104 -375q-91 0 -167 25v295q43 -11 92 -11q133 0 133 134v1087h364v-1143q0 -184 -111.5 -285.5t-310.5 -101.5z" />
    <glyph glyph-name="uni0459" unicode="&#x459;" horiz-adv-x="2015" 
d="M1243 846h252q112 0 203.5 -34.5t149.5 -94t89 -135t31 -160.5t-31 -160.5t-89 -134t-149.5 -93t-203.5 -34.5h-616v831h-254q-8 -126 -31 -405q-19 -208 -121.5 -322t-265.5 -114q-83 0 -148 14v315q30 -6 58 -6q54 0 94 44t49 130q32 318 43 668h940v-309zM1243 322
h244q51 0 81.5 27t30.5 73t-30.5 74t-81.5 28h-244v-202z" />
    <glyph glyph-name="uni045A" unicode="&#x45a;" horiz-adv-x="2056" 
d="M1284 809h270q109 0 197 -33.5t143.5 -90t85 -129t29.5 -153.5q0 -169 -120.5 -286t-334.5 -117h-634v481h-410v-481h-365v1155h365v-348h410v348h364v-346zM1284 317h260q43 0 69.5 24t26.5 62t-26.5 62t-69.5 24h-260v-172z" />
    <glyph glyph-name="uni045B" unicode="&#x45b;" horiz-adv-x="1449" 
d="M846 1141q211 0 341 -124t130 -327v-690h-365v606q0 102 -56 155.5t-157 53.5q-103 0 -166 -54t-63 -153v-608h-365v1206h-139v217h139v117h365v-117h336v-217h-336v-188q123 123 336 123z" />
    <glyph glyph-name="uni045C" unicode="&#x45c;" horiz-adv-x="1386" 
d="M1112 1614v-23l-299 -334h-332l213 357h418zM1409 0h-418l-329 461h-152v-461h-365v1155h365v-369h143l297 369h416l-430 -512z" />
    <glyph glyph-name="uni045D" unicode="&#x45d;" horiz-adv-x="1495" 
d="M743 1618l193 -365h-334l-278 342v23h419zM502 461l493 694h355v-1155h-357v678l-481 -678h-367v1155h357v-694z" />
    <glyph glyph-name="uni045E" unicode="&#x45e;" horiz-adv-x="1368" 
d="M686 1245q-179 0 -289 97t-110 272h276q1 -63 35 -99t88 -36t88 36t35 99h278q0 -174 -111 -271.5t-290 -97.5zM698 389l289 766h381l-524 -1214q-137 -320 -461 -320q-78 0 -169 19.5t-163 58.5l99 291q133 -56 221 -56q92 0 143 78l-516 1143h397z" />
    <glyph glyph-name="uni045F" unicode="&#x45f;" horiz-adv-x="1441" 
d="M932 324v831h364v-1155h-409v-303h-332v303h-410v1155h365v-831h422z" />
    <glyph glyph-name="uni0490" unicode="&#x490;" horiz-adv-x="1370" 
d="M975 1475v327h344v-665h-776v-1137h-377v1475h809z" />
    <glyph glyph-name="uni0491" unicode="&#x491;" horiz-adv-x="1105" 
d="M731 1155v303h332v-629h-553v-829h-365v1155h586z" />
    <glyph glyph-name="uni058F" unicode="&#x58f;" horiz-adv-x="1593" 
d="M1489 838v-203h-191v-98h191v-203h-191v-334h-387v334h-307v203h307v98h-307v203h307v110q0 100 -64.5 164t-164.5 64t-166.5 -64.5t-66.5 -163.5v-229h-381v231q0 159 78 285t218 196t318 70q271 0 443.5 -154.5t172.5 -396.5v-112h191z" />
    <glyph glyph-name="uni0E3F" unicode="&#xe3f;" horiz-adv-x="1650" 
d="M1309 807q72 -26 123.5 -68.5t78.5 -94.5t38.5 -102.5t11.5 -105.5q0 -199 -142 -317.5t-397 -118.5h-96v-225h-209v225h-547v1475h547v167h209v-167h37q232 0 352.5 -112t120.5 -292q0 -171 -127 -264zM717 901v262h-178v-262h178zM1063 1032q0 122 -137 131v-262
q59 2 98 35t39 96zM539 594v-283h178v283h-178zM926 311h69q189 0 189 142q0 65 -41.5 103t-114.5 38h-102v-283z" />
    <glyph glyph-name="uni1E08" unicode="&#x1e08;" horiz-adv-x="1601" 
d="M1317 1933v-22l-299 -334h-332l213 356h418zM1323 475l238 -256q-97 -119 -255 -180t-343 -66l-29 -28h20q111 0 177.5 -57t66.5 -136q0 -91 -92 -146t-252 -55q-177 0 -317 70l79 129q72 -31 118 -43t97 -12q55 0 83 16t28 41q0 27 -28.5 45.5t-79.5 18.5q-54 0 -105 -9
l-47 27l111 150q-314 41 -508.5 250t-194.5 503q0 161 63 302t173 243t267.5 160.5t338.5 58.5q192 0 355 -62t263 -182l-237 -262q-88 89 -176 126.5t-193 37.5q-201 0 -331 -121t-130 -301q0 -181 130 -301.5t333 -120.5q220 0 377 160z" />
    <glyph glyph-name="uni1E09" unicode="&#x1e09;" horiz-adv-x="1280" 
d="M1124 1614v-23l-299 -334h-331l213 357h417zM1028 408l209 -256q-165 -168 -457 -179l-28 -28h20q111 0 177.5 -57t66.5 -136q0 -91 -92 -146t-252 -55q-178 0 -318 70l80 129q72 -31 118 -43t97 -12q55 0 83 16t28 41q0 26 -29 45t-80 19q-53 0 -104 -9l-47 27l110 150
q-126 19 -227.5 72.5t-168 131.5t-102.5 176t-36 207q0 126 48 238t134 194.5t213 130.5t277 48q161 0 285 -52.5t200 -134.5l-211 -258q-119 119 -272 119q-123 0 -214.5 -75.5t-91.5 -202.5q0 -128 91.5 -203.5t218.5 -75.5q73 0 145.5 27t128.5 82z" />
    <glyph glyph-name="uni1E0C" unicode="&#x1e0c;" horiz-adv-x="1726" 
d="M842 1475q187 0 339.5 -59.5t250 -161t150 -234.5t52.5 -283t-52.5 -282.5t-150 -234.5t-250 -161t-339.5 -59h-676v1475h676zM543 332h295q99 0 177 32t127 88t74 128.5t25 156.5q0 114 -43 204t-136 146t-224 56h-295v-811zM846 -63q89 0 147 -53.5t58 -137.5t-58 -137
t-147 -53t-147 53t-58 137t58 137.5t147 53.5z" />
    <glyph glyph-name="uni1E0D" unicode="&#x1e0d;" horiz-adv-x="1515" 
d="M1006 1053v487h364v-1540h-340v127q-137 -154 -362 -154q-176 0 -312.5 82t-208 219t-71.5 304t71.5 304t208 218.5t312.5 81.5q212 0 338 -129zM733 299q129 0 207 80t78 199t-78 198.5t-207 79.5q-128 0 -208.5 -78.5t-80.5 -199.5t80.5 -200t208.5 -79zM735 -63
q89 0 147 -53.5t58 -137.5t-58 -137t-147 -53t-147 53t-58 137t58 137.5t147 53.5z" />
    <glyph glyph-name="uni1E0E" unicode="&#x1e0e;" horiz-adv-x="1726" 
d="M842 1475q187 0 339.5 -59.5t250 -161t150 -234.5t52.5 -283t-52.5 -282.5t-150 -234.5t-250 -161t-339.5 -59h-676v1475h676zM543 332h295q99 0 177 32t127 88t74 128.5t25 156.5q0 114 -43 204t-136 146t-224 56h-295v-811zM1214 -399h-725v274h725v-274z" />
    <glyph glyph-name="uni1E0F" unicode="&#x1e0f;" horiz-adv-x="1515" 
d="M1006 1053v487h364v-1540h-340v127q-137 -154 -362 -154q-176 0 -312.5 82t-208 219t-71.5 304t71.5 304t208 218.5t312.5 81.5q212 0 338 -129zM733 299q129 0 207 80t78 199t-78 198.5t-207 79.5q-128 0 -208.5 -78.5t-80.5 -199.5t80.5 -200t208.5 -79zM1104 -399
h-725v274h725v-274z" />
    <glyph glyph-name="uni1E14" unicode="&#x1e14;" horiz-adv-x="1511" 
d="M799 2349l192 -364h-334l-278 342v22h420zM1159 1612h-725v274h725v-274zM543 326h866l43 -326h-1286v1475h1266l-43 -326h-846v-231h583v-330h-583v-262z" />
    <glyph glyph-name="uni1E15" unicode="&#x1e15;" horiz-adv-x="1402" 
d="M717 2030l192 -365h-334l-278 342v23h420zM1077 1292h-725v275h725v-275zM1331 563q0 -58 -10 -106h-889q33 -90 117.5 -139.5t210.5 -49.5q86 0 154.5 26t152.5 87l186 -231q-75 -79 -201.5 -128t-295.5 -49q-160 0 -290.5 47.5t-214.5 129.5t-129.5 191t-45.5 234
q0 122 43 231.5t122 193.5t200 133t266 49t264.5 -49.5t197 -134t120 -196.5t42.5 -239zM709 881q-105 0 -177 -49t-102 -136h549q-27 88 -96.5 136.5t-173.5 48.5z" />
    <glyph glyph-name="uni1E16" unicode="&#x1e16;" horiz-adv-x="1511" 
d="M1227 2345v-23l-299 -333h-332l213 356h418zM434 1886h725v-274h-725v274zM543 326h866l43 -326h-1286v1475h1266l-43 -326h-846v-231h583v-330h-583v-262z" />
    <glyph glyph-name="uni1E17" unicode="&#x1e17;" horiz-adv-x="1402" 
d="M1145 2025v-22l-299 -334h-332l213 356h418zM352 1567h725v-275h-725v275zM1331 563q0 -58 -10 -106h-889q33 -90 117.5 -139.5t210.5 -49.5q86 0 154.5 26t152.5 87l186 -231q-75 -79 -201.5 -128t-295.5 -49q-160 0 -290.5 47.5t-214.5 129.5t-129.5 191t-45.5 234
q0 122 43 231.5t122 193.5t200 133t266 49t264.5 -49.5t197 -134t120 -196.5t42.5 -239zM709 881q-105 0 -177 -49t-102 -136h549q-27 88 -96.5 136.5t-173.5 48.5z" />
    <glyph glyph-name="uni1E1C" unicode="&#x1e1c;" horiz-adv-x="1511" 
d="M797 1565q-168 0 -273.5 97t-105.5 271h254q3 -53 38 -81.5t87 -28.5t87 28.5t38 81.5h256q0 -174 -106.5 -271t-274.5 -97zM864 -55q111 0 177.5 -57t66.5 -136q0 -91 -92 -146t-252 -55q-178 0 -318 70l80 129q72 -31 118 -43t97 -12q55 0 83 16t28 41q0 26 -29 45
t-80 19q-53 0 -104 -9l-47 27l123 166h-549v1475h1266l-43 -326h-846v-231h583v-330h-583v-262h866l43 -326h-555l-53 -55h20z" />
    <glyph glyph-name="uni1E1D" unicode="&#x1e1d;" horiz-adv-x="1402" 
d="M715 1245q-168 0 -273.5 97.5t-105.5 271.5h254q3 -53 38 -82t87 -29t87 29t38 82h256q0 -174 -106.5 -271.5t-274.5 -97.5zM1331 563q0 -58 -10 -106h-889q33 -90 117.5 -139.5t210.5 -49.5q86 0 154.5 26t152.5 87l186 -231q-71 -75 -188 -123t-274 -54l-29 -28h20
q111 0 177.5 -57t66.5 -136q0 -91 -92 -146t-252 -55q-177 0 -317 70l79 129q72 -31 118 -43t97 -12q55 0 83 16t28 41q0 27 -28.5 45.5t-79.5 18.5q-54 0 -105 -9l-47 27l111 148q-172 25 -296.5 110.5t-186.5 209.5t-62 273q0 122 43 231.5t122 193.5t200 133t266 49
t264.5 -49.5t197 -134t120 -196.5t42.5 -239zM709 881q-105 0 -177 -49t-102 -136h549q-27 88 -96.5 136.5t-173.5 48.5z" />
    <glyph glyph-name="uni1E20" unicode="&#x1e20;" horiz-adv-x="1732" 
d="M541 1886h725v-274h-725v274zM1610 887v-742q-100 -75 -265.5 -123.5t-367.5 -48.5q-194 0 -359.5 56.5t-281 156.5t-181 240.5t-65.5 304.5q0 224 110.5 400t304 273t435.5 97q200 0 364.5 -56.5t278.5 -160.5l-211 -270q-190 151 -430 151q-125 0 -230 -54t-167 -153
t-62 -221q0 -188 140.5 -308t361.5 -120q137 0 254 43v207h-381v328h752z" />
    <glyph glyph-name="uni1E21" unicode="&#x1e21;" horiz-adv-x="1490" 
d="M383 1567h725v-275h-725v275zM1006 1034v121h344v-1034q0 -156 -84 -272t-235 -177t-351 -61q-266 0 -510 102l115 283q202 -88 397 -88q141 0 222 54t81 153v88q-103 -125 -330 -125q-131 0 -239.5 42t-182 115.5t-113.5 173t-40 214.5q0 155 68.5 281.5t200.5 202
t304 75.5q225 0 353 -148zM721 377q119 0 193.5 69.5t74.5 176.5q0 108 -74.5 176.5t-193.5 68.5q-118 0 -195 -68t-77 -177q0 -108 77 -177t195 -69z" />
    <glyph glyph-name="uni1E24" unicode="&#x1e24;" horiz-adv-x="1779" 
d="M1237 965v510h377v-1475h-377v627h-694v-627h-377v1475h377v-510h694zM885 -63q89 0 147 -53.5t58 -137.5t-58 -137t-147 -53t-147 53t-58 137t58 137.5t147 53.5z" />
    <glyph glyph-name="uni1E25" unicode="&#x1e25;" horiz-adv-x="1454" 
d="M848 1182q213 0 343 -123.5t130 -327.5v-731h-365v647q0 102 -56.5 155.5t-158.5 53.5q-104 0 -167.5 -54t-63.5 -153v-649h-365v1540h365v-481q123 123 338 123zM717 -63q89 0 147 -53.5t58 -137.5t-58 -137t-147 -53t-147 53t-58 137t58 137.5t147 53.5z" />
    <glyph glyph-name="uni1E2A" unicode="&#x1e2a;" horiz-adv-x="1779" 
d="M1237 965v510h377v-1475h-377v627h-694v-627h-377v1475h377v-510h694zM891 -199q52 0 87 29t38 82h256q0 -174 -106.5 -271.5t-274.5 -97.5t-273.5 97.5t-105.5 271.5h254q3 -53 38 -82t87 -29z" />
    <glyph glyph-name="uni1E2B" unicode="&#x1e2b;" horiz-adv-x="1454" 
d="M848 1182q213 0 343 -123.5t130 -327.5v-731h-365v647q0 102 -56.5 155.5t-158.5 53.5q-104 0 -167.5 -54t-63.5 -153v-649h-365v1540h365v-481q123 123 338 123zM723 -199q52 0 87 29t38 82h256q0 -174 -106.5 -271.5t-274.5 -97.5t-273.5 97.5t-105.5 271.5h254
q3 -53 38 -82t87 -29z" />
    <glyph glyph-name="uni1E2E" unicode="&#x1e2e;" horiz-adv-x="708" 
d="M788 2406v-22l-299 -334h-331l213 356h417zM115 1571q-88 0 -144.5 52t-56.5 136q0 83 57 137t144 54q86 0 143 -54t57 -137q0 -84 -56 -136t-144 -52zM604 1571q-88 0 -144.5 52t-56.5 136q0 83 57 137t144 54t144 -54t57 -137q0 -84 -55.5 -136t-145.5 -52zM166 0v1475
h377v-1475h-377z" />
    <glyph glyph-name="uni1E2F" unicode="&#x1e2f;" horiz-adv-x="655" 
d="M758 2087v-23l-299 -333h-332l213 356h418zM84 1251q-88 0 -144.5 52.5t-56.5 136.5q0 83 57 136.5t144 53.5t144 -53.5t57 -136.5q0 -84 -56.5 -136.5t-144.5 -52.5zM573 1251q-88 0 -144 52.5t-56 136.5q0 83 56.5 136.5t143.5 53.5t144 -53.5t57 -136.5
q0 -85 -56 -137t-145 -52zM510 0h-365v1155h365v-1155z" />
    <glyph glyph-name="uni1E36" unicode="&#x1e36;" horiz-adv-x="1411" 
d="M543 1475v-1139h817v-336h-1194v1475h377zM782 -63q89 0 147 -53.5t58 -137.5t-58 -137t-147 -53t-146.5 53t-57.5 137t58 137.5t146 53.5z" />
    <glyph glyph-name="uni1E37" unicode="&#x1e37;" horiz-adv-x="737" 
d="M143 336v1204h365v-1149q0 -84 98 -84q40 0 90 17v-308q-77 -32 -188 -32q-167 0 -266 93t-99 259zM631 -254q0 -84 -58 -137t-147 -53t-147 53t-58 137t58 137.5t147 53.5t147 -53.5t58 -137.5z" />
    <glyph glyph-name="uni1E3A" unicode="&#x1e3a;" horiz-adv-x="1411" 
d="M543 1475v-1139h817v-336h-1194v1475h377zM1151 -399h-725v274h725v-274z" />
    <glyph glyph-name="uni1E3B" unicode="&#x1e3b;" horiz-adv-x="737" 
d="M143 336v1204h365v-1149q0 -84 98 -84q40 0 90 17v-308q-77 -32 -188 -32q-167 0 -266 93t-99 259zM760 -399h-654v274h654v-274z" />
    <glyph glyph-name="uni1E42" unicode="&#x1e42;" horiz-adv-x="2134" 
d="M1968 1475v-1475h-366v1010l-412 -996h-250l-408 965v-979h-366v1475h508l401 -955l385 955h508zM1061 -63q89 0 147 -53.5t58 -137.5t-58 -137t-147 -53t-147 53t-58 137t58 137.5t147 53.5z" />
    <glyph glyph-name="uni1E43" unicode="&#x1e43;" horiz-adv-x="2152" 
d="M1554 1182q207 0 336 -123.5t129 -331.5v-727h-364v666q0 93 -49 142.5t-136 49.5q-86 0 -146 -48.5t-60 -141.5v-668h-365v666q0 93 -47 142.5t-133 49.5q-88 0 -148.5 -48.5t-60.5 -141.5v-668h-365v1155h344v-102q113 129 324 129q109 0 199.5 -40.5t152.5 -115.5
q71 81 175.5 118.5t213.5 37.5zM1075 -63q89 0 147 -53.5t58 -137.5t-58 -137t-147 -53t-147 53t-58 137t58 137.5t147 53.5z" />
    <glyph glyph-name="uni1E44" unicode="&#x1e44;" horiz-adv-x="1734" 
d="M868 1561q-89 0 -146.5 53t-57.5 137t58 137.5t146 53.5q89 0 147 -53.5t58 -137.5t-58 -137t-147 -53zM1198 551v924h371v-1475h-379l-653 940v-940h-371v1475h391z" />
    <glyph glyph-name="uni1E45" unicode="&#x1e45;" horiz-adv-x="1454" 
d="M737 1241q-89 0 -147 53.5t-58 137.5t58 137t147 53t147 -53t58 -137t-58 -137.5t-147 -53.5zM848 1182q213 0 343 -123.5t130 -327.5v-731h-365v647q0 102 -56.5 155.5t-158.5 53.5q-104 0 -167.5 -54t-63.5 -153v-649h-365v1155h344v-119q121 146 359 146z" />
    <glyph glyph-name="uni1E46" unicode="&#x1e46;" horiz-adv-x="1734" 
d="M1198 551v924h371v-1475h-379l-653 940v-940h-371v1475h391zM862 -63q89 0 147 -53.5t58 -137.5t-58 -137t-147 -53t-147 53t-58 137t58 137.5t147 53.5z" />
    <glyph glyph-name="uni1E47" unicode="&#x1e47;" horiz-adv-x="1454" 
d="M848 1182q213 0 343 -123.5t130 -327.5v-731h-365v647q0 102 -56.5 155.5t-158.5 53.5q-104 0 -167.5 -54t-63.5 -153v-649h-365v1155h344v-119q121 146 359 146zM731 -63q89 0 147 -53.5t58 -137.5t-58 -137t-147 -53t-147 53t-58 137t58 137.5t147 53.5z" />
    <glyph glyph-name="uni1E48" unicode="&#x1e48;" horiz-adv-x="1734" 
d="M1198 551v924h371v-1475h-379l-653 940v-940h-371v1475h391zM1231 -399h-725v274h725v-274z" />
    <glyph glyph-name="uni1E49" unicode="&#x1e49;" horiz-adv-x="1454" 
d="M848 1182q213 0 343 -123.5t130 -327.5v-731h-365v647q0 102 -56.5 155.5t-158.5 53.5q-104 0 -167.5 -54t-63.5 -153v-649h-365v1155h344v-119q121 146 359 146zM1100 -399h-725v274h725v-274z" />
    <glyph glyph-name="uni1E4C" unicode="&#x1e4c;" horiz-adv-x="1798" 
d="M1329 2361v-22l-299 -334h-332l213 356h418zM1053 1565q-61 0 -114.5 18.5t-84 40.5t-59.5 40.5t-45 18.5q-21 0 -30 -19t-13 -77h-269q6 167 80.5 263t222.5 96q61 0 115.5 -19t84.5 -41.5t57.5 -41.5t41.5 -19q26 0 36.5 20t13.5 78h270q-6 -166 -81.5 -262t-225.5 -96
zM899 -27q174 0 324.5 56.5t257 156.5t167 242.5t60.5 308.5t-60.5 308.5t-167 242.5t-257 156.5t-324.5 56.5t-324.5 -56.5t-257 -156.5t-167 -242.5t-60.5 -308.5t60.5 -308.5t167 -242.5t257 -156.5t324.5 -56.5zM899 1157q183 0 299.5 -116.5t116.5 -303.5
t-116.5 -303.5t-299.5 -116.5t-299.5 116.5t-116.5 303.5t116.5 303.5t299.5 116.5z" />
    <glyph glyph-name="uni1E4D" unicode="&#x1e4d;" horiz-adv-x="1458" 
d="M1159 2042v-23l-299 -333h-332l213 356h418zM883 1245q-61 0 -114.5 18.5t-84 41t-59.5 41t-45 18.5q-21 0 -30 -19t-13 -77h-269q6 166 80.5 262t222.5 96q61 0 115.5 -19t84.5 -41.5t57.5 -41.5t41.5 -19q25 0 36 20t14 79h270q-6 -166 -81.5 -262.5t-225.5 -96.5z
M729 -27q-146 0 -269.5 47.5t-207 129.5t-130 192.5t-46.5 235.5t46.5 235.5t130 192t207 129t269.5 47.5t269.5 -47.5t207 -129t130 -192t46.5 -235.5t-46.5 -235.5t-130 -192.5t-207 -129.5t-269.5 -47.5zM729 301q120 0 202.5 77t82.5 200t-82.5 199.5t-202.5 76.5
t-202.5 -76.5t-82.5 -199.5t82.5 -200t202.5 -77z" />
    <glyph glyph-name="uni1E4E" unicode="&#x1e4e;" horiz-adv-x="1798" 
d="M643 1999q-90 0 -146.5 52t-56.5 136q0 83 58 137t145 54q85 0 143 -54t58 -137q0 -84 -56.5 -136t-144.5 -52zM1159 1999q-90 0 -146.5 52t-56.5 136q0 83 58 137t145 54q85 0 143 -54t58 -137q0 -84 -56.5 -136t-144.5 -52zM1053 1565q-61 0 -114.5 18.5t-84 40.5
t-59.5 40.5t-45 18.5q-21 0 -30 -19t-13 -77h-269q6 167 80.5 263t222.5 96q61 0 115.5 -19t84.5 -41.5t57.5 -41.5t41.5 -19q26 0 36.5 20t13.5 78h270q-6 -166 -81.5 -262t-225.5 -96zM899 -27q174 0 324.5 56.5t257 156.5t167 242.5t60.5 308.5t-60.5 308.5t-167 242.5
t-257 156.5t-324.5 56.5t-324.5 -56.5t-257 -156.5t-167 -242.5t-60.5 -308.5t60.5 -308.5t167 -242.5t257 -156.5t324.5 -56.5zM899 1157q183 0 299.5 -116.5t116.5 -303.5t-116.5 -303.5t-299.5 -116.5t-299.5 116.5t-116.5 303.5t116.5 303.5t299.5 116.5z" />
    <glyph glyph-name="uni1E4F" unicode="&#x1e4f;" horiz-adv-x="1458" 
d="M473 1679q-90 0 -146.5 52.5t-56.5 136.5q0 83 58 136.5t145 53.5q86 0 143.5 -53.5t57.5 -136.5q0 -84 -56.5 -136.5t-144.5 -52.5zM989 1679q-90 0 -146.5 52.5t-56.5 136.5q0 83 58 136.5t145 53.5q86 0 143.5 -53.5t57.5 -136.5q0 -84 -56.5 -136.5t-144.5 -52.5z
M883 1245q-61 0 -114.5 18.5t-84 41t-59.5 41t-45 18.5q-21 0 -30 -19t-13 -77h-269q6 166 80.5 262t222.5 96q61 0 115.5 -19t84.5 -41.5t57.5 -41.5t41.5 -19q25 0 36 20t14 79h270q-6 -166 -81.5 -262.5t-225.5 -96.5zM729 -27q-146 0 -269.5 47.5t-207 129.5t-130 192.5
t-46.5 235.5t46.5 235.5t130 192t207 129t269.5 47.5t269.5 -47.5t207 -129t130 -192t46.5 -235.5t-46.5 -235.5t-130 -192.5t-207 -129.5t-269.5 -47.5zM729 301q120 0 202.5 77t82.5 200t-82.5 199.5t-202.5 76.5t-202.5 -76.5t-82.5 -199.5t82.5 -200t202.5 -77z" />
    <glyph glyph-name="uni1E50" unicode="&#x1e50;" horiz-adv-x="1798" 
d="M481 2327v22h420l193 -364h-334zM1262 1612h-725v274h725v-274zM899 -27q174 0 324.5 56.5t257 156.5t167 242.5t60.5 308.5t-60.5 308.5t-167 242.5t-257 156.5t-324.5 56.5t-324.5 -56.5t-257 -156.5t-167 -242.5t-60.5 -308.5t60.5 -308.5t167 -242.5t257 -156.5
t324.5 -56.5zM899 1157q183 0 299.5 -116.5t116.5 -303.5t-116.5 -303.5t-299.5 -116.5t-299.5 116.5t-116.5 303.5t116.5 303.5t299.5 116.5z" />
    <glyph glyph-name="uni1E51" unicode="&#x1e51;" horiz-adv-x="1458" 
d="M311 2007v23h420l193 -365h-334zM1092 1292h-725v275h725v-275zM729 -27q-146 0 -269.5 47.5t-207 129.5t-130 192.5t-46.5 235.5t46.5 235.5t130 192t207 129t269.5 47.5t269.5 -47.5t207 -129t130 -192t46.5 -235.5t-46.5 -235.5t-130 -192.5t-207 -129.5t-269.5 -47.5
zM729 301q120 0 202.5 77t82.5 200t-82.5 199.5t-202.5 76.5t-202.5 -76.5t-82.5 -199.5t82.5 -200t202.5 -77z" />
    <glyph glyph-name="uni1E52" unicode="&#x1e52;" horiz-adv-x="1798" 
d="M1329 2345v-23l-299 -333h-332l213 356h418zM1262 1612h-725v274h725v-274zM899 -27q174 0 324.5 56.5t257 156.5t167 242.5t60.5 308.5t-60.5 308.5t-167 242.5t-257 156.5t-324.5 56.5t-324.5 -56.5t-257 -156.5t-167 -242.5t-60.5 -308.5t60.5 -308.5t167 -242.5
t257 -156.5t324.5 -56.5zM899 1157q183 0 299.5 -116.5t116.5 -303.5t-116.5 -303.5t-299.5 -116.5t-299.5 116.5t-116.5 303.5t116.5 303.5t299.5 116.5z" />
    <glyph glyph-name="uni1E53" unicode="&#x1e53;" horiz-adv-x="1458" 
d="M1159 2025v-22l-299 -334h-332l213 356h418zM1092 1292h-725v275h725v-275zM729 -27q-146 0 -269.5 47.5t-207 129.5t-130 192.5t-46.5 235.5t46.5 235.5t130 192t207 129t269.5 47.5t269.5 -47.5t207 -129t130 -192t46.5 -235.5t-46.5 -235.5t-130 -192.5t-207 -129.5
t-269.5 -47.5zM729 301q120 0 202.5 77t82.5 200t-82.5 199.5t-202.5 76.5t-202.5 -76.5t-82.5 -199.5t82.5 -200t202.5 -77z" />
    <glyph glyph-name="uni1E5A" unicode="&#x1e5a;" horiz-adv-x="1656" 
d="M1217 575l401 -575h-432l-359 539h-288v-539h-373v1475h840q154 0 268.5 -65t170.5 -170t56 -234q0 -148 -74.5 -263.5t-209.5 -167.5zM956 1147h-417v-285h417q74 0 118 39.5t44 104.5q0 64 -44 102.5t-118 38.5zM815 -63q89 0 147 -53.5t58 -137.5t-58 -137t-147 -53
t-147 53t-58 137t58 137.5t147 53.5z" />
    <glyph glyph-name="uni1E5B" unicode="&#x1e5b;" horiz-adv-x="983" 
d="M840 1171q60 0 104 -12v-334q-65 11 -119 11q-68 0 -121 -12.5t-98.5 -42t-70.5 -86.5t-25 -138v-557h-365v1155h344v-156q49 89 145 130.5t206 41.5zM322 -63q88 0 146 -53.5t58 -137.5t-57.5 -137t-146.5 -53t-147 53t-58 137t58 137.5t147 53.5z" />
    <glyph glyph-name="uni1E5E" unicode="&#x1e5e;" horiz-adv-x="1656" 
d="M1217 575l401 -575h-432l-359 539h-288v-539h-373v1475h840q154 0 268.5 -65t170.5 -170t56 -234q0 -148 -74.5 -263.5t-209.5 -167.5zM956 1147h-417v-285h417q74 0 118 39.5t44 104.5q0 64 -44 102.5t-118 38.5zM1184 -399h-725v274h725v-274z" />
    <glyph glyph-name="uni1E5F" unicode="&#x1e5f;" horiz-adv-x="983" 
d="M840 1171q60 0 104 -12v-334q-65 11 -119 11q-68 0 -121 -12.5t-98.5 -42t-70.5 -86.5t-25 -138v-557h-365v1155h344v-156q49 89 145 130.5t206 41.5zM655 -399h-653v274h653v-274z" />
    <glyph glyph-name="uni1E60" unicode="&#x1e60;" horiz-adv-x="1521" 
d="M967 1753q0 -84 -58 -137t-147 -53t-147 53t-58 137t58 137.5t147 53.5t147 -53.5t58 -137.5zM772 -20q-216 0 -407 62t-306 171l226 276q205 -182 489 -182q122 0 191 39.5t69 97.5q0 90 -143 111l-316 49q-458 72 -458 428q0 214 170.5 340.5t480.5 126.5
q182 0 354.5 -52t290.5 -159l-213 -272q-200 155 -424 155q-120 0 -193 -33t-73 -81q0 -76 127 -96l356 -58q223 -36 331 -148t108 -280q0 -227 -175.5 -361t-484.5 -134z" />
    <glyph glyph-name="uni1E61" unicode="&#x1e61;" horiz-adv-x="1269" 
d="M846 1432q0 -84 -58 -137.5t-147 -53.5t-147 53.5t-58 137.5t58 137t147 53t147 -53t58 -137zM55 147l166 246q83 -63 198 -101t228 -38q96 0 146.5 26.5t50.5 63.5q0 45 -80 59l-277 43q-197 31 -293 123t-96 230q0 176 144 279.5t393 103.5q138 0 282 -35t263 -115
l-164 -244q-72 47 -176 81t-199 34q-80 0 -136 -22.5t-56 -57.5q0 -45 122 -63l244 -35q379 -55 379 -348q0 -187 -147 -295.5t-394 -108.5q-164 0 -331 46t-267 128z" />
    <glyph glyph-name="uni1E62" unicode="&#x1e62;" horiz-adv-x="1521" 
d="M772 -20q-216 0 -407 62t-306 171l226 276q205 -182 489 -182q122 0 191 39.5t69 97.5q0 90 -143 111l-316 49q-458 72 -458 428q0 214 170.5 340.5t480.5 126.5q182 0 354.5 -52t290.5 -159l-213 -272q-200 155 -424 155q-120 0 -193 -33t-73 -81q0 -76 127 -96l356 -58
q223 -36 331 -148t108 -280q0 -227 -175.5 -361t-484.5 -134zM961 -252q0 -84 -58 -137t-147 -53t-147 53t-58 137t58 137.5t147 53.5t147 -53.5t58 -137.5z" />
    <glyph glyph-name="uni1E63" unicode="&#x1e63;" horiz-adv-x="1269" 
d="M55 147l166 246q83 -63 198 -101t228 -38q96 0 146.5 26.5t50.5 63.5q0 45 -80 59l-277 43q-197 31 -293 123t-96 230q0 176 144 279.5t393 103.5q138 0 282 -35t263 -115l-164 -244q-72 47 -176 81t-199 34q-80 0 -136 -22.5t-56 -57.5q0 -45 122 -63l244 -35
q379 -55 379 -348q0 -187 -147 -295.5t-394 -108.5q-164 0 -331 46t-267 128zM840 -248q0 -84 -58 -137t-147 -53t-147 53t-58 137t58 137.5t147 53.5t147 -53.5t58 -137.5z" />
    <glyph glyph-name="uni1E64" unicode="&#x1e64;" horiz-adv-x="1521" 
d="M741 2060q0 -84 -57.5 -137t-146.5 -53t-147 53t-58 137t58 137.5t147 53.5q88 0 146 -53.5t58 -137.5zM1233 1933v-22l-299 -334h-332l213 356h418zM772 -20q-216 0 -407 62t-306 171l226 276q205 -182 489 -182q122 0 191 39.5t69 97.5q0 90 -143 111l-316 49
q-458 72 -458 428q0 214 170.5 340.5t480.5 126.5q182 0 354.5 -52t290.5 -159l-213 -272q-200 155 -424 155q-120 0 -193 -33t-73 -81q0 -76 127 -96l356 -58q223 -36 331 -148t108 -280q0 -227 -175.5 -361t-484.5 -134z" />
    <glyph glyph-name="uni1E65" unicode="&#x1e65;" horiz-adv-x="1269" 
d="M590 1718q0 -84 -58 -137t-147 -53t-147 53t-58 137t58 137.5t147 53.5t147 -53.5t58 -137.5zM1081 1591v-22l-299 -334h-331l213 356h417zM55 147l166 246q83 -63 198 -101t228 -38q96 0 146.5 26.5t50.5 63.5q0 45 -80 59l-277 43q-197 31 -293 123t-96 230
q0 176 144 279.5t393 103.5q138 0 282 -35t263 -115l-164 -244q-72 47 -176 81t-199 34q-80 0 -136 -22.5t-56 -57.5q0 -45 122 -63l244 -35q379 -55 379 -348q0 -187 -147 -295.5t-394 -108.5q-164 0 -331 46t-267 128z" />
    <glyph glyph-name="uni1E66" unicode="&#x1e66;" horiz-adv-x="1521" 
d="M762 2011q-89 0 -147 53.5t-58 137.5t58 137t147 53t147 -53t58 -137t-58 -137.5t-147 -53.5zM1182 1935l-230 -338h-379l-231 338h311l111 -125l108 125h310zM637 961l356 -58q223 -36 331 -148t108 -280q0 -227 -175.5 -361t-484.5 -134q-216 0 -407 62t-306 171
l226 276q205 -182 489 -182q122 0 191 39.5t69 97.5q0 90 -143 111l-316 49q-458 72 -458 428q0 214 170.5 340.5t480.5 126.5q182 0 354.5 -52t290.5 -159l-213 -272q-200 155 -424 155q-120 0 -193 -33t-73 -81q0 -76 127 -96z" />
    <glyph glyph-name="uni1E67" unicode="&#x1e67;" horiz-adv-x="1269" 
d="M641 1690q-89 0 -147 53t-58 137t58 137.5t147 53.5t147 -53.5t58 -137.5t-58 -137t-147 -53zM1061 1614l-230 -338h-378l-232 338h311l111 -125l109 125h309zM571 760l244 -35q379 -55 379 -348q0 -187 -147 -295.5t-394 -108.5q-164 0 -331 46t-267 128l166 246
q83 -63 198 -101t228 -38q96 0 146.5 26.5t50.5 63.5q0 45 -80 59l-277 43q-197 31 -293 123t-96 230q0 176 144 279.5t393 103.5q138 0 282 -35t263 -115l-164 -244q-72 47 -176 81t-199 34q-80 0 -136 -22.5t-56 -57.5q0 -45 122 -63z" />
    <glyph glyph-name="uni1E68" unicode="&#x1e68;" horiz-adv-x="1521" 
d="M967 1753q0 -84 -58 -137t-147 -53t-147 53t-58 137t58 137.5t147 53.5t147 -53.5t58 -137.5zM772 -20q-216 0 -407 62t-306 171l226 276q205 -182 489 -182q122 0 191 39.5t69 97.5q0 90 -143 111l-316 49q-458 72 -458 428q0 214 170.5 340.5t480.5 126.5
q182 0 354.5 -52t290.5 -159l-213 -272q-200 155 -424 155q-120 0 -193 -33t-73 -81q0 -76 127 -96l356 -58q223 -36 331 -148t108 -280q0 -227 -175.5 -361t-484.5 -134zM961 -252q0 -84 -58 -137t-147 -53t-147 53t-58 137t58 137.5t147 53.5t147 -53.5t58 -137.5z" />
    <glyph glyph-name="uni1E69" unicode="&#x1e69;" horiz-adv-x="1269" 
d="M846 1432q0 -84 -58 -137.5t-147 -53.5t-147 53.5t-58 137.5t58 137t147 53t147 -53t58 -137zM55 147l166 246q83 -63 198 -101t228 -38q96 0 146.5 26.5t50.5 63.5q0 45 -80 59l-277 43q-197 31 -293 123t-96 230q0 176 144 279.5t393 103.5q138 0 282 -35t263 -115
l-164 -244q-72 47 -176 81t-199 34q-80 0 -136 -22.5t-56 -57.5q0 -45 122 -63l244 -35q379 -55 379 -348q0 -187 -147 -295.5t-394 -108.5q-164 0 -331 46t-267 128zM840 -248q0 -84 -58 -137t-147 -53t-147 53t-58 137t58 137.5t147 53.5t147 -53.5t58 -137.5z" />
    <glyph glyph-name="uni1E6C" unicode="&#x1e6c;" horiz-adv-x="1447" 
d="M1399 1475v-338h-486v-1137h-378v1137h-486v338h1350zM719 -63q89 0 147 -53.5t58 -137.5t-58 -137t-147 -53t-147 53t-58 137t58 137.5t147 53.5z" />
    <glyph glyph-name="uni1E6D" unicode="&#x1e6d;" horiz-adv-x="1003" 
d="M776 313q78 0 164 29v-317q-89 -39 -223 -39q-241 0 -362.5 116t-121.5 330v420h-194v303h199v209l360 170v-379h332v-303h-332v-391q0 -148 178 -148zM545 -63q89 0 147 -53.5t58 -137.5t-58 -137t-147 -53t-147 53t-58 137t58 137.5t147 53.5z" />
    <glyph glyph-name="uni1E6E" unicode="&#x1e6e;" horiz-adv-x="1447" 
d="M1399 1475v-338h-486v-1137h-378v1137h-486v338h1350zM1087 -399h-725v274h725v-274z" />
    <glyph glyph-name="uni1E6F" unicode="&#x1e6f;" horiz-adv-x="1003" 
d="M776 313q78 0 164 29v-317q-89 -39 -223 -39q-241 0 -362.5 116t-121.5 330v420h-194v303h199v209l360 170v-379h332v-303h-332v-391q0 -148 178 -148zM913 -399h-725v274h725v-274z" />
    <glyph glyph-name="uni1E78" unicode="&#x1e78;" horiz-adv-x="1679" 
d="M1270 2361v-22l-299 -334h-332l213 356h418zM993 1565q-61 0 -114.5 18.5t-84 40.5t-59.5 40.5t-45 18.5q-21 0 -30 -19t-13 -77h-268q6 167 80.5 263t222.5 96q61 0 115.5 -19t84.5 -41.5t57.5 -41.5t41.5 -19q25 0 35.5 19.5t13.5 78.5h270q-6 -166 -81.5 -262
t-225.5 -96zM840 -27q-320 0 -505 163.5t-185 447.5v891h378v-852q0 -150 79.5 -228t232.5 -78q311 0 311 306v852h379v-891q0 -285 -184 -448t-506 -163z" />
    <glyph glyph-name="uni1E79" unicode="&#x1e79;" horiz-adv-x="1452" 
d="M1147 2042v-23l-299 -333h-332l213 356h418zM567 1364q-21 0 -30 -19t-13 -77h-268q6 166 80.5 262t222.5 96q61 0 115.5 -19t84.5 -41.5t57.5 -41.5t41.5 -19q25 0 35.5 20t13.5 79h271q-6 -166 -82 -262.5t-226 -96.5q-61 0 -114.5 18.5t-84 41t-59.5 41t-45 18.5z
M942 506v649h365v-1155h-344v117q-64 -75 -158 -109.5t-199 -34.5q-213 0 -343 123.5t-130 327.5v731h365v-647q0 -102 56.5 -155.5t158.5 -53.5q103 0 166 54t63 153z" />
    <glyph glyph-name="uni1E7A" unicode="&#x1e7a;" horiz-adv-x="1679" 
d="M584 1982q-90 0 -146.5 52.5t-56.5 136.5q0 83 58 136.5t145 53.5q85 0 142.5 -53.5t57.5 -136.5q0 -84 -56 -136.5t-144 -52.5zM1100 1982q-90 0 -146.5 52.5t-56.5 136.5q0 83 58 136.5t145 53.5q85 0 142.5 -53.5t57.5 -136.5q0 -84 -56 -136.5t-144 -52.5zM1202 1612
h-725v274h725v-274zM840 -27q-320 0 -505 163.5t-185 447.5v891h378v-852q0 -150 79.5 -228t232.5 -78q311 0 311 306v852h379v-891q0 -285 -184 -448t-506 -163z" />
    <glyph glyph-name="uni1E7B" unicode="&#x1e7b;" horiz-adv-x="1452" 
d="M461 1663q-90 0 -146.5 52t-56.5 136q0 83 58 137t145 54q85 0 143 -54t58 -137q0 -84 -56.5 -136t-144.5 -52zM977 1663q-90 0 -146.5 52t-56.5 136q0 83 58 137t145 54q85 0 143 -54t58 -137q0 -84 -56.5 -136t-144.5 -52zM1079 1292h-725v275h725v-275zM942 506v649
h365v-1155h-344v117q-64 -75 -158 -109.5t-199 -34.5q-213 0 -343 123.5t-130 327.5v731h365v-647q0 -102 56.5 -155.5t158.5 -53.5q103 0 166 54t63 153z" />
    <glyph glyph-name="Wgrave" unicode="&#x1e80;" horiz-adv-x="2365" 
d="M1186 1937l192 -364h-334l-278 342v22h420zM1647 389l313 1086h391l-479 -1475h-455l-235 907l-234 -907h-454l-478 1475h406l309 -1092l266 1085h385z" />
    <glyph glyph-name="wgrave" unicode="&#x1e81;" horiz-adv-x="2117" 
d="M1061 1618l192 -365h-333l-279 342v23h420zM1489 346l252 809h370l-413 -1155h-418l-219 666l-219 -666h-424l-412 1155h387l250 -817l252 811h344z" />
    <glyph glyph-name="Wacute" unicode="&#x1e82;" horiz-adv-x="2365" 
d="M1614 1933v-22l-299 -334h-332l213 356h418zM1647 389l313 1086h391l-479 -1475h-455l-235 907l-234 -907h-454l-478 1475h406l309 -1092l266 1085h385z" />
    <glyph glyph-name="wacute" unicode="&#x1e83;" horiz-adv-x="2117" 
d="M1489 1614v-23l-299 -334h-332l213 357h418zM1489 346l252 809h370l-413 -1155h-418l-219 666l-219 -666h-424l-412 1155h387l250 -817l252 811h344z" />
    <glyph glyph-name="Wdieresis" unicode="&#x1e84;" horiz-adv-x="2365" 
d="M928 1571q-90 0 -146.5 52t-56.5 136q0 83 58 137t145 54q85 0 142.5 -54t57.5 -137q0 -84 -56 -136t-144 -52zM1444 1571q-90 0 -146.5 52t-56.5 136q0 83 58 137t145 54q85 0 143 -54t58 -137q0 -84 -56.5 -136t-144.5 -52zM1647 389l313 1086h391l-479 -1475h-455
l-235 907l-234 -907h-454l-478 1475h406l309 -1092l266 1085h385z" />
    <glyph glyph-name="wdieresis" unicode="&#x1e85;" horiz-adv-x="2117" 
d="M803 1251q-90 0 -146.5 52.5t-56.5 136.5q0 83 58 136.5t145 53.5q86 0 143.5 -53.5t57.5 -136.5q0 -84 -56.5 -136.5t-144.5 -52.5zM1319 1251q-90 0 -146.5 52.5t-56.5 136.5q0 83 58 136.5t145 53.5q86 0 143.5 -53.5t57.5 -136.5q0 -84 -56.5 -136.5t-144.5 -52.5z
M1489 346l252 809h370l-413 -1155h-418l-219 666l-219 -666h-424l-412 1155h387l250 -817l252 811h344z" />
    <glyph glyph-name="uni1E8E" unicode="&#x1e8e;" horiz-adv-x="1540" 
d="M764 1561q-89 0 -147 53t-58 137t58 137.5t147 53.5t147 -53.5t58 -137.5t-58 -137t-147 -53zM1126 1475h416l-579 -981v-494h-381v489l-588 986h424l358 -637z" />
    <glyph glyph-name="uni1E8F" unicode="&#x1e8f;" horiz-adv-x="1368" 
d="M686 1241q-89 0 -147 53.5t-58 137.5t58 137t147 53t147 -53t58 -137t-58 -137.5t-147 -53.5zM698 389l289 766h381l-524 -1214q-137 -320 -461 -320q-78 0 -169 19.5t-163 58.5l99 291q133 -56 221 -56q92 0 143 78l-516 1143h397z" />
    <glyph glyph-name="uni1E92" unicode="&#x1e92;" horiz-adv-x="1495" 
d="M1374 1171l-794 -845h825v-326h-1315v299l799 850h-760v326h1245v-304zM770 -63q89 0 147 -53.5t58 -137.5t-58 -137t-147 -53t-147 53t-58 137t58 137.5t147 53.5z" />
    <glyph glyph-name="uni1E93" unicode="&#x1e93;" horiz-adv-x="1234" 
d="M1130 893l-579 -596h600v-297h-1067v262l580 596h-553v297h1019v-262zM621 -63q88 0 146 -53.5t58 -137.5t-57.5 -137t-146.5 -53t-147 53t-58 137t58 137.5t147 53.5z" />
    <glyph glyph-name="uni1E97" unicode="&#x1e97;" horiz-adv-x="1003" 
d="M246 1524q-90 0 -146.5 52t-56.5 136q0 83 58 137t145 54q85 0 142.5 -54t57.5 -137q0 -84 -56 -136t-144 -52zM762 1524q-90 0 -146.5 52t-56.5 136q0 83 58 137t145 54q85 0 143 -54t58 -137q0 -84 -56.5 -136t-144.5 -52zM598 852v-391q0 -148 178 -148q78 0 164 29
v-317q-89 -39 -223 -39q-241 0 -362.5 116t-121.5 330v420h-194v303h199v209l360 170v-379h332v-303h-332z" />
    <glyph glyph-name="uni1E9E" unicode="&#x1e9e;" horiz-adv-x="1718" 
d="M819 858v-254q119 -38 205 -72.5t131.5 -61t65.5 -46t20 -35.5q0 -72 -188 -72q-182 0 -379 80v-354q109 -39 200.5 -54.5t212.5 -15.5q246 0 397.5 116.5t151.5 301.5q0 162 -93.5 263t-315.5 200l332 438q-271 209 -699 209q-341 0 -525.5 -152.5t-184.5 -430.5v-918
h382v897q0 258 330 258q85 0 158 -20z" />
    <glyph glyph-name="uni1EA0" unicode="&#x1ea0;" horiz-adv-x="1640" 
d="M1053 1475l579 -1475h-393l-111 299h-620l-111 -299h-389l578 1475h467zM817 1141l-192 -525h387zM813 -63q89 0 147 -53.5t58 -137.5t-58 -137t-147 -53t-147 53t-58 137t58 137.5t147 53.5z" />
    <glyph glyph-name="uni1EA1" unicode="&#x1ea1;" horiz-adv-x="1390" 
d="M1300 274q20 0 48 7v-267q-45 -22 -136 -22q-211 0 -288 143q-129 -160 -402 -160q-131 0 -234.5 37.5t-169 120t-65.5 199.5q0 182 154 285.5t438 103.5h234q-11 77 -72.5 120.5t-165.5 43.5q-181 0 -340 -111l-168 258q110 79 249 114.5t277 35.5q267 0 414.5 -126.5
t147.5 -353.5v-350q0 -39 22.5 -58.5t56.5 -19.5zM571 246q50 0 98.5 13t93 39.5t75.5 73t39 107.5h-220q-136 0 -189.5 -37t-53.5 -88q0 -45 39 -76.5t118 -31.5zM668 -63q88 0 146 -53.5t58 -137.5t-57.5 -137t-146.5 -53t-147 53t-58 137t58 137.5t147 53.5z" />
    <glyph glyph-name="uni1EA2" unicode="&#x1ea2;" horiz-adv-x="1640" 
d="M823 1939q-72 0 -75 -69h-234q5 128 91 201t237 73q128 0 211.5 -66.5t83.5 -170.5q0 -55 -24.5 -100.5t-82.5 -100.5q-83 -76 -94 -91q-10 -14 -10 -30v-6h-226v29q0 33 10 62t31.5 56t37 42.5t44.5 41.5q64 54 64 86q0 43 -64 43zM1632 0h-393l-111 299h-620l-111 -299
h-389l578 1475h467zM817 1141l-192 -525h387z" />
    <glyph glyph-name="uni1EA3" unicode="&#x1ea3;" horiz-adv-x="1390" 
d="M678 1620q-73 0 -76 -70h-233q5 129 90.5 202t236.5 73q128 0 211.5 -67t83.5 -171q0 -55 -24.5 -101t-81.5 -100q-11 -10 -31 -28q-49 -44 -61.5 -59t-12.5 -33v-6h-225v28q0 43 21.5 84t42.5 63t59 56q63 53 63 86q0 43 -63 43zM1300 274q20 0 48 7v-267
q-45 -22 -136 -22q-211 0 -288 143q-129 -160 -402 -160q-131 0 -234.5 37.5t-169 120t-65.5 199.5q0 182 154 285.5t438 103.5h234q-11 77 -72.5 120.5t-165.5 43.5q-181 0 -340 -111l-168 258q110 79 249 114.5t277 35.5q267 0 414.5 -126.5t147.5 -353.5v-350
q0 -39 22.5 -58.5t56.5 -19.5zM571 246q50 0 98.5 13t93 39.5t75.5 73t39 107.5h-220q-136 0 -189.5 -37t-53.5 -88q0 -45 39 -76.5t118 -31.5z" />
    <glyph glyph-name="uni1EA4" unicode="&#x1ea4;" horiz-adv-x="1640" 
d="M1118 1823l162 311h358v-23l-237 -288h-283zM928 1595l-109 127l-110 -127h-310l230 326h381l227 -326h-309zM1053 1475l579 -1475h-393l-111 299h-620l-111 -299h-389l578 1475h467zM817 1141l-192 -525h387z" />
    <glyph glyph-name="uni1EA5" unicode="&#x1ea5;" horiz-adv-x="1390" 
d="M973 1503l162 312h358v-23l-238 -289h-282zM782 1276l-108 127l-111 -127h-309l229 326h381l228 -326h-310zM1221 702v-350q0 -39 22.5 -58.5t56.5 -19.5q20 0 48 7v-267q-45 -22 -136 -22q-211 0 -288 143q-129 -160 -402 -160q-131 0 -234.5 37.5t-169 120t-65.5 199.5
q0 182 154 285.5t438 103.5h234q-11 77 -72.5 120.5t-165.5 43.5q-181 0 -340 -111l-168 258q110 79 249 114.5t277 35.5q267 0 414.5 -126.5t147.5 -353.5zM571 246q50 0 98.5 13t93 39.5t75.5 73t39 107.5h-220q-136 0 -189.5 -37t-53.5 -88q0 -45 39 -76.5t118 -31.5z
" />
    <glyph glyph-name="uni1EA6" unicode="&#x1ea6;" horiz-adv-x="1640" 
d="M1354 2134l159 -311h-280l-238 288v23h359zM928 1595l-109 127l-110 -127h-310l230 326h381l227 -326h-309zM1632 0h-393l-111 299h-620l-111 -299h-389l578 1475h467zM817 1141l-192 -525h387z" />
    <glyph glyph-name="uni1EA7" unicode="&#x1ea7;" horiz-adv-x="1390" 
d="M1208 1815l160 -312h-281l-237 289v23h358zM782 1276l-108 127l-111 -127h-309l229 326h381l228 -326h-310zM1221 702v-350q0 -39 22.5 -58.5t56.5 -19.5q20 0 48 7v-267q-45 -22 -136 -22q-211 0 -288 143q-129 -160 -402 -160q-131 0 -234.5 37.5t-169 120t-65.5 199.5
q0 182 154 285.5t438 103.5h234q-11 77 -72.5 120.5t-165.5 43.5q-181 0 -340 -111l-168 258q110 79 249 114.5t277 35.5q267 0 414.5 -126.5t147.5 -353.5zM571 246q50 0 98.5 13t93 39.5t75.5 73t39 107.5h-220q-136 0 -189.5 -37t-53.5 -88q0 -45 39 -76.5t118 -31.5z
" />
    <glyph glyph-name="uni1EA8" unicode="&#x1ea8;" horiz-adv-x="1640" 
d="M1257 2089q-60 0 -63 -64h-205q3 113 77.5 177.5t207.5 64.5q110 0 183 -59t73 -150q0 -88 -90 -172q-73 -68 -82 -81q-8 -13 -8 -27v-4h-201v24q0 53 29 93.5t79 82.5q52 46 52 76q0 39 -52 39zM928 1595l-109 127l-110 -127h-310l230 326h381l227 -326h-309zM1632 0
h-393l-111 299h-620l-111 -299h-389l578 1475h467zM817 1141l-192 -525h387z" />
    <glyph glyph-name="uni1EA9" unicode="&#x1ea9;" horiz-adv-x="1390" 
d="M1112 1769q-60 0 -63 -63h-205q3 113 77.5 177.5t206.5 64.5q110 0 183 -59t73 -150q0 -88 -90 -172q-63 -58 -76.5 -74t-13.5 -35v-4h-200v25q0 53 29 93.5t79 82.5q51 45 51 76q0 38 -51 38zM782 1276l-108 127l-111 -127h-309l229 326h381l228 -326h-310zM1221 702
v-350q0 -39 22.5 -58.5t56.5 -19.5q20 0 48 7v-267q-45 -22 -136 -22q-211 0 -288 143q-129 -160 -402 -160q-131 0 -234.5 37.5t-169 120t-65.5 199.5q0 182 154 285.5t438 103.5h234q-11 77 -72.5 120.5t-165.5 43.5q-181 0 -340 -111l-168 258q110 79 249 114.5t277 35.5
q267 0 414.5 -126.5t147.5 -353.5zM571 246q50 0 98.5 13t93 39.5t75.5 73t39 107.5h-220q-136 0 -189.5 -37t-53.5 -88q0 -45 39 -76.5t118 -31.5z" />
    <glyph glyph-name="uni1EAA" unicode="&#x1eaa;" horiz-adv-x="1640" 
d="M682 2105q-38 0 -47 -114h-240q4 80 21 144t48.5 113.5t83 76t120.5 26.5q51 0 94.5 -14t70.5 -33.5t48.5 -39.5t40 -34t32.5 -14q42 0 50 115h239q-4 -80 -21 -144.5t-49 -114.5t-83.5 -77t-120.5 -27q-62 0 -113.5 21.5t-78 47t-52.5 47t-43 21.5zM399 1595l230 326
h381l227 -326h-309l-109 127l-110 -127h-310zM1632 0h-393l-111 299h-620l-111 -299h-389l578 1475h467zM817 1141l-192 -525h387z" />
    <glyph glyph-name="uni1EAB" unicode="&#x1eab;" horiz-adv-x="1390" 
d="M537 1786q-39 0 -48 -115h-239q4 80 20.5 144t48 113.5t83 76.5t120.5 27q51 0 94.5 -14t71 -34t49 -40t40 -34t32.5 -14q41 0 49 115h240q-4 -80 -21 -144t-49.5 -114t-84 -77t-120.5 -27q-51 0 -94 14t-70.5 34.5t-49 40.5t-40 34t-32.5 14zM254 1276l229 326h381
l228 -326h-310l-108 127l-111 -127h-309zM1300 274q20 0 48 7v-267q-45 -22 -136 -22q-211 0 -288 143q-129 -160 -402 -160q-131 0 -234.5 37.5t-169 120t-65.5 199.5q0 182 154 285.5t438 103.5h234q-11 77 -72.5 120.5t-165.5 43.5q-181 0 -340 -111l-168 258
q110 79 249 114.5t277 35.5q267 0 414.5 -126.5t147.5 -353.5v-350q0 -39 22.5 -58.5t56.5 -19.5zM571 246q50 0 98.5 13t93 39.5t75.5 73t39 107.5h-220q-136 0 -189.5 -37t-53.5 -88q0 -45 39 -76.5t118 -31.5z" />
    <glyph glyph-name="uni1EAC" unicode="&#x1eac;" horiz-adv-x="1640" 
d="M930 1595l-109 125l-110 -125h-312l232 338h379l229 -338h-309zM1053 1475l579 -1475h-393l-111 299h-620l-111 -299h-389l578 1475h467zM817 1141l-192 -525h387zM813 -63q89 0 147 -53.5t58 -137.5t-58 -137t-147 -53t-147 53t-58 137t58 137.5t147 53.5z" />
    <glyph glyph-name="uni1EAD" unicode="&#x1ead;" horiz-adv-x="1390" 
d="M784 1276l-108 125l-111 -125h-311l231 338h379l230 -338h-310zM1300 274q20 0 48 7v-267q-45 -22 -136 -22q-211 0 -288 143q-129 -160 -402 -160q-131 0 -234.5 37.5t-169 120t-65.5 199.5q0 182 154 285.5t438 103.5h234q-11 77 -72.5 120.5t-165.5 43.5
q-181 0 -340 -111l-168 258q110 79 249 114.5t277 35.5q267 0 414.5 -126.5t147.5 -353.5v-350q0 -39 22.5 -58.5t56.5 -19.5zM571 246q50 0 98.5 13t93 39.5t75.5 73t39 107.5h-220q-136 0 -189.5 -37t-53.5 -88q0 -45 39 -76.5t118 -31.5zM668 -63q88 0 146 -53.5
t58 -137.5t-57.5 -137t-146.5 -53t-147 53t-58 137t58 137.5t147 53.5z" />
    <glyph glyph-name="uni1EAE" unicode="&#x1eae;" horiz-adv-x="1640" 
d="M1184 2269v-22l-238 -289h-282l161 311h359zM819 1565q-167 0 -273 95.5t-106 260.5h254q3 -44 38.5 -70t86.5 -26t86.5 26t38.5 70h256q0 -165 -107 -260.5t-274 -95.5zM1632 0h-393l-111 299h-620l-111 -299h-389l578 1475h467zM817 1141l-192 -525h387z" />
    <glyph glyph-name="uni1EAF" unicode="&#x1eaf;" horiz-adv-x="1390" 
d="M1038 1950v-23l-237 -289h-283l162 312h358zM674 1245q-167 0 -273 96t-106 261h254q3 -45 38.5 -71t86.5 -26t86.5 26t38.5 71h256q0 -165 -107 -261t-274 -96zM1300 274q20 0 48 7v-267q-45 -22 -136 -22q-211 0 -288 143q-129 -160 -402 -160q-131 0 -234.5 37.5
t-169 120t-65.5 199.5q0 182 154 285.5t438 103.5h234q-11 77 -72.5 120.5t-165.5 43.5q-181 0 -340 -111l-168 258q110 79 249 114.5t277 35.5q267 0 414.5 -126.5t147.5 -353.5v-350q0 -39 22.5 -58.5t56.5 -19.5zM571 246q50 0 98.5 13t93 39.5t75.5 73t39 107.5h-220
q-136 0 -189.5 -37t-53.5 -88q0 -45 39 -76.5t118 -31.5z" />
    <glyph glyph-name="uni1EB0" unicode="&#x1eb0;" horiz-adv-x="1640" 
d="M813 2269l160 -311h-281l-237 289v22h358zM819 1565q-167 0 -273 95.5t-106 260.5h254q3 -44 38.5 -70t86.5 -26t86.5 26t38.5 70h256q0 -165 -107 -260.5t-274 -95.5zM1632 0h-393l-111 299h-620l-111 -299h-389l578 1475h467zM817 1141l-192 -525h387z" />
    <glyph glyph-name="uni1EB1" unicode="&#x1eb1;" horiz-adv-x="1390" 
d="M668 1950l159 -312h-280l-238 289v23h359zM674 1245q-167 0 -273 96t-106 261h254q3 -45 38.5 -71t86.5 -26t86.5 26t38.5 71h256q0 -165 -107 -261t-274 -96zM1300 274q20 0 48 7v-267q-45 -22 -136 -22q-211 0 -288 143q-129 -160 -402 -160q-131 0 -234.5 37.5
t-169 120t-65.5 199.5q0 182 154 285.5t438 103.5h234q-11 77 -72.5 120.5t-165.5 43.5q-181 0 -340 -111l-168 258q110 79 249 114.5t277 35.5q267 0 414.5 -126.5t147.5 -353.5v-350q0 -39 22.5 -58.5t56.5 -19.5zM571 246q50 0 98.5 13t93 39.5t75.5 73t39 107.5h-220
q-136 0 -189.5 -37t-53.5 -88q0 -45 39 -76.5t118 -31.5z" />
    <glyph glyph-name="uni1EB2" unicode="&#x1eb2;" horiz-adv-x="1640" 
d="M817 2253q-60 0 -63 -64h-205q3 113 77.5 177.5t207.5 64.5q110 0 183 -59t73 -150q0 -87 -91 -172q-73 -68 -82 -81q-8 -13 -8 -27v-5h-200v25q0 53 29 93.5t79 82.5q51 45 51 76q0 39 -51 39zM819 1565q-167 0 -273 95.5t-106 260.5h254q3 -44 38.5 -70t86.5 -26
t86.5 26t38.5 70h256q0 -165 -107 -260.5t-274 -95.5zM1632 0h-393l-111 299h-620l-111 -299h-389l578 1475h467zM817 1141l-192 -525h387z" />
    <glyph glyph-name="uni1EB3" unicode="&#x1eb3;" horiz-adv-x="1390" 
d="M672 1933q-61 0 -64 -63h-205q3 113 77.5 177t207.5 64q110 0 183 -58.5t73 -149.5q0 -88 -90 -172q-63 -58 -76.5 -74t-13.5 -35v-4h-201v24q0 53 29.5 94t79.5 83q51 45 51 75q0 39 -51 39zM674 1245q-167 0 -273 96t-106 261h254q3 -45 38.5 -71t86.5 -26t86.5 26
t38.5 71h256q0 -165 -107 -261t-274 -96zM1300 274q20 0 48 7v-267q-45 -22 -136 -22q-211 0 -288 143q-129 -160 -402 -160q-131 0 -234.5 37.5t-169 120t-65.5 199.5q0 182 154 285.5t438 103.5h234q-11 77 -72.5 120.5t-165.5 43.5q-181 0 -340 -111l-168 258
q110 79 249 114.5t277 35.5q267 0 414.5 -126.5t147.5 -353.5v-350q0 -39 22.5 -58.5t56.5 -19.5zM571 246q50 0 98.5 13t93 39.5t75.5 73t39 107.5h-220q-136 0 -189.5 -37t-53.5 -88q0 -45 39 -76.5t118 -31.5z" />
    <glyph glyph-name="uni1EB4" unicode="&#x1eb4;" horiz-adv-x="1640" 
d="M682 2101q-38 0 -47 -114h-240q4 80 21 144t48.5 113.5t83 76t120.5 26.5q51 0 94.5 -14t70.5 -33.5t48.5 -39.5t40 -34t32.5 -14q42 0 50 115h239q-4 -80 -21 -144.5t-49 -114.5t-83.5 -77t-120.5 -27q-62 0 -113.5 21.5t-78 47t-52.5 47t-43 21.5zM819 1825
q51 0 86.5 26t38.5 70h256q0 -165 -107 -260.5t-274 -95.5t-273 95.5t-106 260.5h254q3 -44 38.5 -70t86.5 -26zM1632 0h-393l-111 299h-620l-111 -299h-389l578 1475h467zM817 1141l-192 -525h387z" />
    <glyph glyph-name="uni1EB5" unicode="&#x1eb5;" horiz-adv-x="1390" 
d="M537 1782q-39 0 -48 -115h-239q4 80 20.5 144t48 113.5t83 76.5t120.5 27q51 0 94.5 -14t71 -34t49 -40t40 -34t32.5 -14q41 0 49 115h240q-4 -80 -21 -144t-49.5 -114t-84 -77t-120.5 -27q-51 0 -94 14t-70.5 34.5t-49 40.5t-40 34t-32.5 14zM674 1505q51 0 86.5 26
t38.5 71h256q0 -165 -107 -261t-274 -96t-273 96t-106 261h254q3 -45 38.5 -71t86.5 -26zM1300 274q20 0 48 7v-267q-45 -22 -136 -22q-211 0 -288 143q-129 -160 -402 -160q-131 0 -234.5 37.5t-169 120t-65.5 199.5q0 182 154 285.5t438 103.5h234q-11 77 -72.5 120.5
t-165.5 43.5q-181 0 -340 -111l-168 258q110 79 249 114.5t277 35.5q267 0 414.5 -126.5t147.5 -353.5v-350q0 -39 22.5 -58.5t56.5 -19.5zM571 246q50 0 98.5 13t93 39.5t75.5 73t39 107.5h-220q-136 0 -189.5 -37t-53.5 -88q0 -45 39 -76.5t118 -31.5z" />
    <glyph glyph-name="uni1EB6" unicode="&#x1eb6;" horiz-adv-x="1640" 
d="M819 1565q-168 0 -273.5 97t-105.5 271h254q3 -53 38 -81.5t87 -28.5t87 28.5t38 81.5h256q0 -174 -106.5 -271t-274.5 -97zM1053 1475l579 -1475h-393l-111 299h-620l-111 -299h-389l578 1475h467zM817 1141l-192 -525h387zM813 -63q89 0 147 -53.5t58 -137.5t-58 -137
t-147 -53t-147 53t-58 137t58 137.5t147 53.5z" />
    <glyph glyph-name="uni1EB7" unicode="&#x1eb7;" horiz-adv-x="1390" 
d="M674 1245q-168 0 -273.5 97.5t-105.5 271.5h254q3 -53 38 -82t87 -29t87 29t38 82h256q0 -174 -106.5 -271.5t-274.5 -97.5zM1300 274q20 0 48 7v-267q-45 -22 -136 -22q-211 0 -288 143q-129 -160 -402 -160q-131 0 -234.5 37.5t-169 120t-65.5 199.5q0 182 154 285.5
t438 103.5h234q-11 77 -72.5 120.5t-165.5 43.5q-181 0 -340 -111l-168 258q110 79 249 114.5t277 35.5q267 0 414.5 -126.5t147.5 -353.5v-350q0 -39 22.5 -58.5t56.5 -19.5zM571 246q50 0 98.5 13t93 39.5t75.5 73t39 107.5h-220q-136 0 -189.5 -37t-53.5 -88
q0 -45 39 -76.5t118 -31.5zM668 -63q88 0 146 -53.5t58 -137.5t-57.5 -137t-146.5 -53t-147 53t-58 137t58 137.5t147 53.5z" />
    <glyph glyph-name="uni1EB8" unicode="&#x1eb8;" horiz-adv-x="1511" 
d="M543 326h866l43 -326h-1286v1475h1266l-43 -326h-846v-231h583v-330h-583v-262zM791 -63q88 0 146 -53.5t58 -137.5t-57.5 -137t-146.5 -53t-147 53t-58 137t58 137.5t147 53.5z" />
    <glyph glyph-name="uni1EB9" unicode="&#x1eb9;" horiz-adv-x="1402" 
d="M1331 563q0 -58 -10 -106h-889q33 -90 117.5 -139.5t210.5 -49.5q86 0 154.5 26t152.5 87l186 -231q-75 -79 -201.5 -128t-295.5 -49q-160 0 -290.5 47.5t-214.5 129.5t-129.5 191t-45.5 234q0 122 43 231.5t122 193.5t200 133t266 49t264.5 -49.5t197 -134t120 -196.5
t42.5 -239zM709 881q-105 0 -177 -49t-102 -136h549q-27 88 -96.5 136.5t-173.5 48.5zM709 -63q88 0 146 -53.5t58 -137.5t-57.5 -137t-146.5 -53t-147 53t-58 137t58 137.5t147 53.5z" />
    <glyph glyph-name="uni1EBA" unicode="&#x1eba;" horiz-adv-x="1511" 
d="M801 1939q-73 0 -76 -69h-233q5 128 90.5 201t236.5 73q128 0 211.5 -66.5t83.5 -170.5q0 -55 -24.5 -101t-81.5 -100q-84 -76 -94 -90q-11 -15 -11 -31v-6h-225v29q0 33 10 62t31.5 56t37 42.5t44.5 41.5q63 53 63 86q0 43 -63 43zM543 326h866l43 -326h-1286v1475h1266
l-43 -326h-846v-231h583v-330h-583v-262z" />
    </font>
</defs>
</svg>
