<?xml version="1.0" standalone="no"?>
<!DOCTYPE svg PUBLIC "-//W3C//DTD SVG 1.1//EN" "http://www.w3.org/Graphics/SVG/1.1/DTD/svg11.dtd" >
<svg xmlns="http://www.w3.org/2000/svg" xmlns:xlink="http://www.w3.org/1999/xlink" version="1.1">
<metadata>
Created by FontForge 20170731 at Mon Sep 13 13:56:45 2021
 By Aleksey,,,
Copyright (c) 2020 The Coca-Cola Company. All Rights Reserved.
</metadata>
<defs>
<font id="TCCC-UnityText_CYR-Regular" horiz-adv-x="1560" >
  <font-face 
    font-family="TCCC-UnityText_CYR"
    font-weight="400"
    font-stretch="normal"
    units-per-em="2048"
    panose-1="2 11 5 5 3 3 3 2 2 4"
    ascent="1638"
    descent="-410"
    x-height="1116"
    cap-height="1475"
    bbox="-1137 -565 2929 2550"
    underline-thickness="102"
    underline-position="-307"
    unicode-range="U+0020-FB02"
  />
<missing-glyph horiz-adv-x="1697" 
d="M1495 0h-1292v1473h1292v-1473zM346 1329v-1186h1004v1186h-1004z" />
    <glyph glyph-name="fi" unicode="fi" horiz-adv-x="1351" 
d="M260 1116v113q0 146 99.5 242t250.5 96q97 0 168 -25v-166q-79 21 -139 21q-79 0 -131.5 -49.5t-52.5 -126.5v-105h323v-166h-321v-950h-197v950h-190v166h190zM1069 1284q-56 0 -92.5 34.5t-36.5 88.5t36.5 88.5t92.5 34.5t92.5 -34.5t36.5 -88.5t-36.5 -88.5
t-92.5 -34.5zM1167 0h-196v1116h196v-1116z" />
    <glyph glyph-name="fl" unicode="fl" horiz-adv-x="1425" 
d="M260 1116v113q0 146 99.5 242t250.5 96q97 0 168 -25v-166q-79 21 -139 21q-79 0 -131.5 -49.5t-52.5 -126.5v-105h323v-166h-321v-950h-197v950h-190v166h190zM1276 166q40 0 90 18v-178q-56 -22 -127 -22q-123 0 -195.5 65.5t-72.5 181.5v1309h196v-1270
q0 -53 29.5 -78.5t79.5 -25.5z" />
    <glyph glyph-name="f_f" unicode="ff" horiz-adv-x="1439" 
d="M1313 1395q-112 0 -170 -52t-58 -145v-82h316v-166h-314v-950h-196v950h-434v-950h-197v950h-190v166h190v121q0 138 94 230t234 92q92 0 166 -25v-166q-80 21 -138 21q-71 0 -116 -45t-45 -115v-113h436v94q0 156 106.5 256.5t288.5 100.5q110 0 184 -27v-170
q-85 25 -157 25z" />
    <glyph glyph-name="f_f_i" unicode="ffi" horiz-adv-x="1982" 
d="M891 1116v113q0 146 99.5 242t250.5 96q97 0 168 -25v-166q-79 21 -139 21q-79 0 -132 -49.5t-53 -126.5v-105h324v-166h-322v-950h-196v950h-434v-950h-197v950h-190v166h190v121q0 138 94 230t234 92q92 0 166 -25v-166q-80 21 -138 21q-71 0 -116 -45t-45 -115v-113
h436zM1700 1284q-56 0 -92.5 34.5t-36.5 88.5t36.5 88.5t92.5 34.5t92.5 -34.5t36.5 -88.5t-36.5 -88.5t-92.5 -34.5zM1798 0h-196v1116h196v-1116z" />
    <glyph glyph-name="f_f_l" unicode="ffl" horiz-adv-x="2056" 
d="M891 1116v113q0 146 99.5 242t250.5 96q97 0 168 -25v-166q-79 21 -139 21q-79 0 -132 -49.5t-53 -126.5v-105h324v-166h-322v-950h-196v950h-434v-950h-197v950h-190v166h190v121q0 138 94 230t234 92q92 0 166 -25v-166q-80 21 -138 21q-71 0 -116 -45t-45 -115v-113
h436zM1907 166q41 0 90 18v-178q-56 -22 -127 -22q-123 0 -195.5 65.5t-72.5 181.5v1309h196v-1270q0 -53 29.5 -78.5t79.5 -25.5z" />
    <glyph glyph-name=".notdef" horiz-adv-x="1697" 
d="M1495 0h-1292v1473h1292v-1473zM346 1329v-1186h1004v1186h-1004z" />
    <glyph glyph-name=".null" horiz-adv-x="0" 
 />
    <glyph glyph-name="nonmarkingreturn" horiz-adv-x="682" 
 />
    <glyph glyph-name="space" unicode=" " horiz-adv-x="661" 
 />
    <glyph glyph-name="exclam" unicode="!" horiz-adv-x="598" 
d="M362 471h-126l-52 1004h228zM299 -14q-60 0 -96.5 37t-36.5 96t36.5 96t96.5 37t96.5 -37t36.5 -96t-36.5 -96t-96.5 -37z" />
    <glyph glyph-name="quotedbl" unicode="&#x22;" horiz-adv-x="870" 
d="M283 911h-127l32 564h211zM645 911h-127l33 564h211z" />
    <glyph glyph-name="numbersign" unicode="#" horiz-adv-x="1552" 
d="M1466 1085v-153h-297l-65 -387h262v-154h-287l-65 -391h-168l65 391h-393l-65 -391h-168l65 391h-268v154h293l65 387h-241v153h266l65 390h168l-65 -390h393l66 390h168l-66 -390h272zM543 545h393l65 387h-393z" />
    <glyph glyph-name="dollar" unicode="$" horiz-adv-x="1370" 
d="M1280 426q0 -182 -135.5 -300.5t-360.5 -137.5v-236h-151v236q-166 12 -310.5 67t-248.5 144l116 151q198 -163 443 -184v514l-129 25q-191 37 -289 129.5t-98 234.5q0 117 67 209.5t183.5 145.5t265.5 63v178h151v-180q283 -24 463 -191l-117 -143q-152 131 -346 158
v-465l88 -17q202 -38 305 -141t103 -260zM584 883l49 -11v441q-138 -12 -226 -75t-88 -155q0 -74 60.5 -123t204.5 -77zM784 649v-483q130 15 211.5 82.5t81.5 165.5q0 88 -65 145t-207 86z" />
    <glyph glyph-name="percent" unicode="%" horiz-adv-x="1861" 
d="M438 735q-161 0 -262.5 105t-101.5 276q0 173 101.5 279t262.5 106t263 -106t102 -279q0 -171 -102 -276t-263 -105zM530 0h-172l973 1475h172zM438 887q86 0 139.5 63t53.5 166q0 104 -53.5 168t-139.5 64t-139 -64t-53 -168q0 -103 53 -166t139 -63zM1423 -27
q-161 0 -262.5 105t-101.5 276q0 173 101.5 279t262.5 106t263 -106t102 -279q0 -171 -102 -276t-263 -105zM1423 125q86 0 139.5 63t53.5 166q0 104 -53.5 168t-139.5 64t-139 -64t-53 -168q0 -103 53 -166t139 -63z" />
    <glyph glyph-name="ampersand" unicode="&#x26;" horiz-adv-x="1554" 
d="M1272 281l297 -263v-18h-248l-170 150q-205 -177 -492 -177q-245 0 -396.5 119t-151.5 301q0 247 321 389q-186 167 -186 348q0 162 125.5 266.5t318.5 104.5q189 0 311.5 -100t122.5 -252q0 -248 -370 -408l381 -338q108 166 114 359h191q-5 -122 -48 -248.5
t-120 -232.5zM690 1333q-107 0 -176.5 -57t-69.5 -146q0 -61 39 -122.5t133 -145.5l7 -6q163 63 236 131t73 150q0 85 -67.5 140.5t-174.5 55.5zM668 150q202 0 346 118l-457 404q-125 -56 -185.5 -122t-60.5 -149q0 -113 99.5 -182t257.5 -69z" />
    <glyph glyph-name="quotesingle" unicode="'" horiz-adv-x="507" 
d="M283 911h-127l32 564h211z" />
    <glyph glyph-name="parenleft" unicode="(" horiz-adv-x="661" 
d="M582 -285h-172q-139 203 -212 445t-73 502t73 501t212 445h172q-269 -446 -269 -946q0 -501 269 -947z" />
    <glyph glyph-name="parenright" unicode=")" horiz-adv-x="661" 
d="M252 -285h-172q268 444 268 947q0 502 -268 946h172q139 -204 212 -445t73 -501t-73 -502t-212 -445z" />
    <glyph glyph-name="asterisk" unicode="*" horiz-adv-x="1011" 
d="M864 1315l47 -152l-307 -76l203 -235l-131 -94l-170 262l-170 -262l-131 94l203 235l-308 76l47 152l297 -115l-20 305h164l-21 -305z" />
    <glyph glyph-name="plus" unicode="+" horiz-adv-x="1296" 
d="M737 821h426v-170h-426v-426h-176v426h-426v170h426v426h176v-426z" />
    <glyph glyph-name="comma" unicode="," horiz-adv-x="544" 
d="M213 -287h-150l130 596h215z" />
    <glyph glyph-name="hyphen" unicode="-" horiz-adv-x="796" 
d="M115 563l37 187h530l-37 -187h-530z" />
    <glyph glyph-name="period" unicode="." horiz-adv-x="532" 
d="M266 -14q-60 0 -96.5 37t-36.5 96t36.5 96t96.5 37t96.5 -37t36.5 -96t-36.5 -96t-96.5 -37z" />
    <glyph glyph-name="slash" unicode="/" horiz-adv-x="1019" 
d="M53 -285l729 1893h183l-729 -1893h-183z" />
    <glyph glyph-name="zero" unicode="0" 
d="M780 -27q-298 0 -473.5 208t-175.5 556t175.5 556t473.5 208t474 -208t176 -556t-176 -556t-474 -208zM780 158q203 0 323 156.5t120 422.5q0 267 -120 423.5t-323 156.5t-322.5 -156.5t-119.5 -423.5t119.5 -423t322.5 -156z" />
    <glyph glyph-name="one" unicode="1" horiz-adv-x="884" 
d="M479 1475h176v-1475h-200v1157q-146 -149 -379 -211v180q156 41 253.5 127t149.5 222z" />
    <glyph glyph-name="two" unicode="2" horiz-adv-x="1398" 
d="M131 1286l123 -145q89 79 208.5 127.5t244.5 48.5q150 0 243.5 -70t93.5 -184q0 -62 -32 -117.5t-86 -99t-124 -85t-148 -82.5t-155.5 -84t-147.5 -96t-124 -113.5t-86 -141t-32 -172.5v-72h1169v180h-946q19 57 63 108.5t101.5 92t127 80.5t141 78t142 78.5t132 87.5
t108.5 100.5t74.5 122.5t27.5 147q0 190 -146 308t-388 118q-345 0 -584 -215z" />
    <glyph glyph-name="three" unicode="3" horiz-adv-x="1386" 
d="M750 885q228 0 371 -127.5t143 -319.5q0 -202 -162.5 -333.5t-446.5 -131.5q-171 0 -336.5 54t-261.5 143l117 154q86 -73 219 -119.5t264 -46.5q182 0 291 78t109 202q0 88 -51.5 154.5t-131 98.5t-172.5 32q-99 0 -208 -37l-88 98l528 510h-793v181h1047v-166
l-445 -424h7z" />
    <glyph glyph-name="four" unicode="4" horiz-adv-x="1456" 
d="M1135 541h221v-176h-221v-365h-199v365h-864v159l813 951h250v-934zM936 1278l-627 -737h627v737z" />
    <glyph glyph-name="five" unicode="5" horiz-adv-x="1400" 
d="M743 950q247 0 398 -135.5t151 -345.5q0 -218 -164 -357t-436 -139q-170 0 -336 54t-262 143l117 152q86 -72 219 -118t262 -46q175 0 284 86.5t109 224.5q0 134 -103 221.5t-273 87.5q-127 0 -224.5 -49t-152.5 -123h-162l94 869h940v-181h-776l-53 -469
q140 125 368 125z" />
    <glyph glyph-name="six" unicode="6" horiz-adv-x="1468" 
d="M803 958q246 0 401.5 -135.5t155.5 -347.5q0 -218 -162 -360t-416 -142q-296 0 -473.5 200.5t-177.5 545.5q0 182 52.5 330.5t146 247t222 151.5t279.5 53q124 0 247 -36t218 -113l-100 -156q-79 63 -177 94t-192 31q-217 0 -353 -153.5t-136 -409.5v-39
q65 120 187 179.5t278 59.5zM780 156q161 0 267 91t106 228q0 135 -106.5 223t-270.5 88t-274.5 -89t-110.5 -222q0 -137 113 -228t276 -91z" />
    <glyph glyph-name="seven" unicode="7" horiz-adv-x="1241" 
d="M61 1298v177h1106v-160q-220 -253 -374.5 -601t-206.5 -714h-221q63 365 214 706t369 592h-887z" />
    <glyph glyph-name="eight" unicode="8" horiz-adv-x="1511" 
d="M1061 774q158 -42 244 -144.5t86 -221.5q0 -90 -44.5 -169t-124.5 -138.5t-200.5 -93.5t-265.5 -34t-265.5 34t-200.5 93.5t-124.5 138.5t-44.5 169q0 119 86 221.5t244 144.5q-117 51 -180.5 138t-63.5 188q0 168 151.5 284.5t397.5 116.5t397.5 -116.5t151.5 -284.5
q0 -101 -63.5 -188t-180.5 -138zM756 1323q-153 0 -250.5 -66t-97.5 -167q0 -100 98.5 -170t249.5 -70t249.5 70t98.5 170q0 101 -97.5 167t-250.5 66zM756 154q185 0 306.5 73.5t121.5 188.5q0 117 -120.5 187.5t-307.5 70.5t-307.5 -70.5t-120.5 -187.5
q0 -115 121.5 -188.5t306.5 -73.5z" />
    <glyph glyph-name="nine" unicode="9" horiz-adv-x="1468" 
d="M688 1501q296 0 472.5 -201t176.5 -548q0 -182 -51 -329.5t-142.5 -245.5t-218.5 -151t-278 -53q-127 0 -253 36.5t-220 113.5l102 153q76 -60 175 -91t196 -31q217 0 350 149t133 404v36q-65 -118 -187 -178.5t-279 -60.5q-243 0 -399 137.5t-156 353.5q0 220 162.5 363
t416.5 143zM694 676q167 0 275 89.5t108 229.5q0 141 -110.5 232.5t-272.5 91.5q-163 0 -271 -92.5t-108 -233.5q0 -139 106.5 -228t272.5 -89z" />
    <glyph glyph-name="colon" unicode=":" horiz-adv-x="593" 
d="M297 729q-60 0 -96.5 37t-36.5 96t36.5 96t96.5 37t96.5 -37t36.5 -96t-36.5 -96t-96.5 -37zM297 -14q-60 0 -96.5 37t-36.5 96t36.5 96t96.5 37t96.5 -37t36.5 -96t-36.5 -96t-96.5 -37z" />
    <glyph glyph-name="semicolon" unicode=";" horiz-adv-x="616" 
d="M324 729q-60 0 -97 37t-37 96t37 96t97 37t96.5 -37t36.5 -96t-36.5 -96t-96.5 -37zM248 -287h-150l129 596h215z" />
    <glyph glyph-name="less" unicode="&#x3c;" horiz-adv-x="1296" 
d="M129 799l999 446v-188l-747 -324l747 -323v-189l-999 447v131z" />
    <glyph glyph-name="equal" unicode="=" horiz-adv-x="1296" 
d="M1147 889h-1000v170h1000v-170zM1147 412h-1000v170h1000v-170z" />
    <glyph glyph-name="greater" unicode="&#x3e;" horiz-adv-x="1296" 
d="M168 1057v188l999 -446v-131l-999 -447v189l747 323z" />
    <glyph glyph-name="question" unicode="?" horiz-adv-x="1150" 
d="M70 1077h202q6 103 87 173.5t216 70.5q121 0 204 -55.5t83 -147.5q0 -53 -40 -103t-146 -136q-59 -48 -95 -83t-66 -76.5t-43 -85.5t-13 -97v-66h194v51q0 65 41 118t156 146q119 95 170 172.5t51 171.5q0 161 -133.5 266t-351.5 105q-232 0 -371 -121.5t-145 -302.5z
M557 -14q-60 0 -96.5 37t-36.5 96t36.5 96t96.5 37t96.5 -37t36.5 -96t-36.5 -96t-96.5 -37z" />
    <glyph glyph-name="at" unicode="@" horiz-adv-x="2027" 
d="M1270 866v111h160v-557q0 -59 31.5 -88t86.5 -29q98 0 161 87.5t63 236.5q0 140 -59 266t-160 217.5t-240.5 145t-294.5 53.5q-210 0 -385.5 -94t-277 -259.5t-101.5 -365.5q0 -154 62.5 -290t170 -232.5t257 -152.5t317.5 -56q246 0 432 114l68 -112q-83 -60 -216 -95.5
t-282 -35.5q-198 0 -374.5 66.5t-303 180.5t-200.5 273t-74 338q0 176 71.5 334t193 271t288.5 179t352 66q182 0 347 -64t284 -172t189.5 -257t70.5 -312q0 -210 -107 -334.5t-270 -124.5q-90 0 -154 38.5t-86 106.5q-105 -153 -305 -153q-182 0 -303 120t-121 296
q0 175 121.5 294t302.5 119t285 -129zM1004 313q115 0 191.5 76.5t76.5 192.5q0 115 -76 190.5t-192 75.5q-115 0 -193 -76.5t-78 -189.5t78 -191t193 -78z" />
    <glyph glyph-name="A" unicode="A" 
d="M1524 0h-219l-158 393h-735l-160 -393h-215l618 1475h252zM780 1300l-297 -731h592z" />
    <glyph glyph-name="B" unicode="B" horiz-adv-x="1585" 
d="M1178 784q153 -38 227 -138t74 -234q0 -181 -132 -296.5t-366 -115.5h-776v1475h710q210 0 327.5 -108.5t117.5 -274.5q0 -95 -43.5 -177t-138.5 -131zM891 1298h-483v-458h493q131 0 193.5 66.5t62.5 164.5q0 103 -68 165t-198 62zM408 176h557q144 0 224.5 66t80.5 182
q0 111 -76.5 176.5t-210.5 65.5h-575v-490z" />
    <glyph glyph-name="C" unicode="C" horiz-adv-x="1558" 
d="M932 -27q-232 0 -419 99t-292.5 274t-105.5 391t105.5 391t290 274t411.5 99q168 0 315.5 -54t239.5 -155l-131 -143q-169 166 -424 166q-162 0 -298 -74.5t-216 -207.5t-80 -296t79 -295.5t217.5 -207t307.5 -74.5q121 0 232 40t192 122l133 -142q-96 -105 -243.5 -156
t-313.5 -51z" />
    <glyph glyph-name="D" unicode="D" horiz-adv-x="1683" 
d="M797 1475q176 0 321.5 -55.5t243 -153.5t150.5 -234t53 -295t-53 -294.5t-150.5 -233.5t-243 -153.5t-321.5 -55.5h-592v1475h592zM410 182h385q258 0 407.5 153t149.5 402t-149.5 402t-407.5 153h-385v-1110z" />
    <glyph glyph-name="E" unicode="E" horiz-adv-x="1447" 
d="M410 180h929l37 -180h-1171v1475h1151l-37 -181h-909v-432h624v-182h-624v-500z" />
    <glyph glyph-name="F" unicode="F" horiz-adv-x="1392" 
d="M1317 1475v-183h-907v-442h630v-182h-630v-668h-205v1475h1112z" />
    <glyph glyph-name="G" unicode="G" horiz-adv-x="1689" 
d="M1550 825v-673q-217 -179 -602 -179q-239 0 -429 98t-296 272t-106 392q0 220 105.5 395t291 273t416.5 98q181 0 328 -52t243 -142l-121 -150q-78 70 -193.5 114t-256.5 44q-168 0 -305 -73.5t-216 -206t-79 -298.5q0 -253 175 -415t449 -162q128 0 219 21t175 71v393
h-459v180h661z" />
    <glyph glyph-name="H" unicode="H" horiz-adv-x="1740" 
d="M1331 881v594h205v-1475h-205v698h-921v-698h-205v1475h205v-594h921z" />
    <glyph glyph-name="I" unicode="I" horiz-adv-x="614" 
d="M205 0v1475h205v-1475h-205z" />
    <glyph glyph-name="J" unicode="J" horiz-adv-x="1255" 
d="M858 459v1016h205v-1020q0 -224 -137 -353t-357 -129q-144 0 -253.5 54.5t-175 168t-66.5 273.5h200q3 -86 28 -148t67.5 -96t91 -49.5t106.5 -15.5q134 0 212.5 78t78.5 221z" />
    <glyph glyph-name="K" unicode="K" horiz-adv-x="1583" 
d="M1569 0h-250l-541 760l-368 -350v-410h-205v1475h205v-816l862 816h258l-606 -576z" />
    <glyph glyph-name="L" unicode="L" horiz-adv-x="1372" 
d="M410 1475v-1291h895v-184h-1100v1475h205z" />
    <glyph glyph-name="M" unicode="M" horiz-adv-x="2060" 
d="M1855 1475v-1475h-198v1225l-559 -1194h-142l-553 1173v-1204h-198v1475h276l549 -1174l549 1174h276z" />
    <glyph glyph-name="N" unicode="N" horiz-adv-x="1703" 
d="M1300 297v1178h199v-1475h-213l-883 1186v-1186h-198v1475h219z" />
    <glyph glyph-name="O" unicode="O" horiz-adv-x="1781" 
d="M891 -27q-223 0 -399.5 98t-275.5 272.5t-99 393.5t99 393.5t275.5 272.5t399.5 98t399.5 -98t275.5 -272.5t99 -393.5t-99 -393.5t-275.5 -272.5t-399.5 -98zM891 160q246 0 403.5 162t157.5 415t-157.5 415.5t-403.5 162.5t-403.5 -162.5t-157.5 -415.5t157.5 -415
t403.5 -162z" />
    <glyph glyph-name="P" unicode="P" horiz-adv-x="1499" 
d="M924 1475q235 0 364 -122t129 -317q0 -196 -129 -318t-364 -122h-514v-596h-205v1475h719zM410 778h508q139 0 215.5 69t76.5 189t-76 188t-216 68h-508v-514z" />
    <glyph glyph-name="Q" unicode="Q" horiz-adv-x="1789" 
d="M1673 737q0 -185 -72 -339t-202 -257l196 -250l-143 -112l-209 266q-159 -72 -348 -72q-223 0 -400.5 98t-277.5 272.5t-100 393.5t100 393.5t277.5 272.5t400.5 98t400.5 -98t277.5 -272.5t100 -393.5zM895 160q122 0 223 43l-180 229l141 113l195 -248q89 79 137.5 192
t48.5 248q0 253 -160 415.5t-405 162.5t-405 -162.5t-160 -415.5t160 -415t405 -162z" />
    <glyph glyph-name="R" unicode="R" horiz-adv-x="1595" 
d="M1522 0h-244l-422 625h-448v-625h-203v1475h772q208 0 331.5 -120.5t123.5 -305.5q0 -156 -94 -270t-255 -144zM946 1292h-538v-487h538q130 0 204.5 67.5t74.5 176.5q0 110 -74.5 176.5t-204.5 66.5z" />
    <glyph glyph-name="S" unicode="S" horiz-adv-x="1460" 
d="M750 -23q-187 0 -361.5 59.5t-290.5 162.5l129 155q110 -94 247.5 -143t277.5 -49q172 0 280.5 69.5t108.5 182.5q0 85 -69.5 140.5t-217.5 84.5l-311 59q-197 38 -298.5 134t-101.5 241q0 128 79 226t214.5 149t306.5 51q158 0 307 -47.5t263 -151.5l-121 -149
q-196 166 -457 166q-163 0 -274 -65.5t-111 -166.5q0 -72 66.5 -119.5t210.5 -74.5l299 -57q212 -40 317 -147.5t105 -262.5q0 -201 -162.5 -324t-435.5 -123z" />
    <glyph glyph-name="T" unicode="T" horiz-adv-x="1372" 
d="M1309 1475v-185h-521v-1290h-204v1290h-521v185h1246z" />
    <glyph glyph-name="U" unicode="U" horiz-adv-x="1642" 
d="M821 -27q-286 0 -458.5 153t-172.5 411v938h205v-916q0 -186 115.5 -292.5t310.5 -106.5q196 0 311 106.5t115 292.5v916h205v-938q0 -259 -172 -411.5t-459 -152.5z" />
    <glyph glyph-name="V" unicode="V" horiz-adv-x="1525" 
d="M764 199l504 1276h217l-596 -1475h-252l-596 1475h223z" />
    <glyph glyph-name="W" unicode="W" horiz-adv-x="2299" 
d="M1630 215l410 1260h215l-502 -1475h-250l-354 1194l-350 -1194h-250l-504 1475h221l412 -1262l366 1255h216z" />
    <glyph glyph-name="X" unicode="X" horiz-adv-x="1437" 
d="M844 766l569 -766h-254l-442 612l-447 -612h-243l569 756l-545 719h254l420 -566l412 566h243z" />
    <glyph glyph-name="Y" unicode="Y" horiz-adv-x="1480" 
d="M1219 1475h229l-604 -971v-504h-205v500l-608 975h237l475 -783z" />
    <glyph glyph-name="Z" unicode="Z" horiz-adv-x="1378" 
d="M1262 1315l-922 -1139h958v-176h-1212v158l922 1140h-881v177h1135v-160z" />
    <glyph glyph-name="bracketleft" unicode="[" horiz-adv-x="737" 
d="M659 1608v-164h-274v-1565h274v-164h-454v1893h454z" />
    <glyph glyph-name="backslash" unicode="\" horiz-adv-x="1019" 
d="M55 1608h183l729 -1893h-183z" />
    <glyph glyph-name="bracketright" unicode="]" horiz-adv-x="737" 
d="M532 1608v-1893h-454v164h274v1565h-274v164h454z" />
    <glyph glyph-name="asciicircum" unicode="^" horiz-adv-x="1296" 
d="M762 1475l373 -736h-199l-289 586l-287 -586h-200l372 736h230z" />
    <glyph glyph-name="underscore" unicode="_" horiz-adv-x="1024" 
d="M-2 -272v159h1028v-159h-1028z" />
    <glyph glyph-name="grave" unicode="`" horiz-adv-x="1200" 
d="M326 1554v19h227l223 -320h-186z" />
    <glyph glyph-name="a" unicode="a" horiz-adv-x="1325" 
d="M1231 162q34 0 57 10v-164q-37 -16 -96 -16q-93 0 -161 47t-79 137q-67 -99 -183.5 -150t-252.5 -51q-121 0 -218.5 37.5t-158.5 117t-61 189.5q0 168 144.5 263.5t428.5 95.5h295v14q0 129 -87 201t-234 72q-95 0 -189 -30.5t-164 -88.5l-108 143q88 76 213 114t256 38
q232 0 369 -117t137 -322v-450q0 -90 92 -90zM532 145q56 0 109.5 11t107.5 38.5t95 68.5t69 106t33 147h-291q-381 0 -381 -190q0 -85 70.5 -133t187.5 -48z" />
    <glyph glyph-name="b" unicode="b" horiz-adv-x="1474" 
d="M801 1143q163 0 293.5 -77t203 -210.5t72.5 -296.5q0 -164 -72.5 -297.5t-203 -211t-293.5 -77.5q-139 0 -249 56.5t-181 156.5v-186h-187v1540h197v-596q71 94 178.5 146.5t241.5 52.5zM778 154q170 0 280.5 114t110.5 291q0 175 -110.5 289.5t-280.5 114.5
t-286.5 -112.5t-116.5 -291.5q0 -180 116.5 -292.5t286.5 -112.5z" />
    <glyph glyph-name="c" unicode="c" horiz-adv-x="1226" 
d="M729 -27q-279 0 -454 166t-175 418q0 166 79.5 300t223 210t324.5 76q259 0 426 -160l-119 -143q-128 125 -311 125q-176 0 -299 -113.5t-123 -292.5q0 -180 123.5 -292.5t302.5 -112.5q94 0 177 31.5t138 88.5l119 -139q-69 -76 -181 -119t-251 -43z" />
    <glyph glyph-name="d" unicode="d" horiz-adv-x="1474" 
d="M1094 944v596h196v-1540h-186v186q-71 -100 -181 -156.5t-249 -56.5q-163 0 -294 77.5t-203.5 211t-72.5 297.5q0 163 72.5 296.5t203.5 210.5t294 77q134 0 241.5 -52.5t178.5 -146.5zM696 154q170 0 287 112.5t117 292.5q0 179 -117 291.5t-287 112.5t-280.5 -114.5
t-110.5 -289.5q0 -177 110.5 -291t280.5 -114z" />
    <glyph glyph-name="e" unicode="e" horiz-adv-x="1353" 
d="M1262 555q0 -29 -9 -72h-948q23 -154 135 -243.5t285 -89.5q215 0 348 133l117 -136q-70 -78 -189.5 -126t-277.5 -48q-282 0 -451.5 165.5t-169.5 420.5q0 162 72 295t206 211t304 78q130 0 240 -46.5t183 -126t114 -187t41 -228.5zM684 967q-148 0 -250.5 -86.5
t-128.5 -235.5h758q-21 142 -123 232t-256 90z" />
    <glyph glyph-name="f" unicode="f" horiz-adv-x="808" 
d="M682 1395q-112 0 -169.5 -52t-57.5 -145v-82h315v-166h-313v-950h-197v950h-190v166h190v94q0 156 106.5 256.5t288.5 100.5q112 0 185 -27v-170q-85 25 -158 25z" />
    <glyph glyph-name="g" unicode="g" horiz-adv-x="1456" 
d="M1090 936v180h186v-1012q0 -225 -163.5 -359t-428.5 -134q-268 0 -475 106l74 166q189 -98 399 -98q178 0 287.5 87t109.5 239v127q-69 -90 -173 -139.5t-236 -49.5q-248 0 -404.5 154.5t-156.5 390.5q0 235 157 392t404 157q137 0 243.5 -55t176.5 -152zM688 227
q168 0 280.5 99.5t112.5 267.5q0 166 -113 268.5t-280 102.5q-165 0 -273 -104t-108 -267q0 -164 107.5 -265.5t273.5 -101.5z" />
    <glyph glyph-name="h" unicode="h" horiz-adv-x="1396" 
d="M768 1143q208 0 333.5 -116t125.5 -310v-717h-197v678q0 132 -78 207.5t-221 75.5q-156 0 -253 -84.5t-97 -212.5v-664h-197v1540h197v-571q69 90 171.5 132t215.5 42z" />
    <glyph glyph-name="i" unicode="i" horiz-adv-x="565" 
d="M283 1284q-56 0 -92.5 34.5t-36.5 88.5t36.5 88.5t92.5 34.5t92.5 -34.5t36.5 -88.5t-36.5 -88.5t-92.5 -34.5zM381 0h-197v1116h197v-1116z" />
    <glyph glyph-name="j" unicode="j" horiz-adv-x="581" 
d="M299 1284q-56 0 -92.5 34.5t-36.5 88.5t36.5 88.5t92.5 34.5t92.5 -34.5t36.5 -88.5t-36.5 -88.5t-92.5 -34.5zM82 -385q-73 0 -135 20v172q47 -18 98 -18q73 0 114.5 38.5t41.5 104.5v1184h196v-1202q0 -138 -84.5 -218.5t-230.5 -80.5z" />
    <glyph glyph-name="k" unicode="k" horiz-adv-x="1316" 
d="M1317 0h-242l-426 545l-268 -244v-301h-197v1540h197v-1016l649 592h250l-492 -444z" />
    <glyph glyph-name="l" unicode="l" horiz-adv-x="638" 
d="M184 231v1309h197v-1270q0 -53 29 -78.5t79 -25.5q41 0 91 18v-178q-56 -22 -127 -22q-123 0 -196 65.5t-73 181.5z" />
    <glyph glyph-name="m" unicode="m" horiz-adv-x="2140" 
d="M1534 1143q193 0 314.5 -116.5t121.5 -309.5v-717h-196v680q0 130 -73.5 205.5t-199.5 75.5q-138 0 -231.5 -84.5t-93.5 -210.5v-666h-197v680q0 130 -73.5 205.5t-198.5 75.5q-139 0 -232.5 -84.5t-93.5 -210.5v-666h-197v1116h187v-153q68 94 169 137t205 43
q124 0 222.5 -54t152.5 -151q73 106 185 155.5t229 49.5z" />
    <glyph glyph-name="n" unicode="n" horiz-adv-x="1396" 
d="M768 1143q208 0 333.5 -116t125.5 -310v-717h-197v680q0 132 -78 206.5t-221 74.5q-156 0 -253 -83.5t-97 -211.5v-666h-197v1116h187v-153q69 94 174 137t223 43z" />
    <glyph glyph-name="o" unicode="o" horiz-adv-x="1404" 
d="M702 -27q-173 0 -311 78t-213.5 211.5t-75.5 296.5t75.5 296t213 210.5t311.5 77.5q130 0 242.5 -45.5t191 -123.5t123 -185.5t44.5 -229.5t-44.5 -230t-123 -186.5t-191 -124t-242.5 -45.5zM702 154q170 0 285 115.5t115 289.5t-115 289t-285 115t-284.5 -115
t-114.5 -289t114.5 -289.5t284.5 -115.5z" />
    <glyph glyph-name="p" unicode="p" horiz-adv-x="1474" 
d="M801 1143q163 0 293.5 -77t203 -210.5t72.5 -296.5q0 -164 -72.5 -297.5t-203 -211t-293.5 -77.5q-134 0 -241.5 52.5t-178.5 146.5v-541h-197v1485h187v-186q71 100 181 156.5t249 56.5zM778 154q170 0 280.5 114t110.5 291q0 175 -110.5 289.5t-280.5 114.5
t-286.5 -112.5t-116.5 -291.5q0 -180 116.5 -292.5t286.5 -112.5z" />
    <glyph glyph-name="q" unicode="q" horiz-adv-x="1474" 
d="M1104 930v186h186v-1485h-196v541q-71 -94 -178.5 -146.5t-241.5 -52.5q-163 0 -294 77.5t-203.5 211t-72.5 297.5q0 163 72.5 296.5t203.5 210.5t294 77q139 0 249 -56.5t181 -156.5zM696 154q170 0 287 112.5t117 292.5q0 179 -117 291.5t-287 112.5t-280.5 -114.5
t-110.5 -289.5q0 -177 110.5 -291t280.5 -114z" />
    <glyph glyph-name="r" unicode="r" horiz-adv-x="903" 
d="M752 1133q59 0 112 -13v-184q-56 12 -114 12q-162 0 -265.5 -87.5t-103.5 -244.5v-616h-197v1116h187v-174q61 98 167 144.5t214 46.5z" />
    <glyph glyph-name="s" unicode="s" horiz-adv-x="1212" 
d="M86 147l102 154q80 -64 197 -106.5t242 -42.5q129 0 206.5 46t77.5 119q0 53 -42 84t-124 45l-296 54q-164 30 -244 107t-80 190q0 153 131 247.5t354 94.5q285 0 480 -150l-105 -145q-72 57 -176.5 92t-210.5 35q-119 0 -195.5 -44.5t-76.5 -115.5q0 -48 43.5 -78.5
t144.5 -48.5l277 -49q163 -30 242 -108t79 -193q0 -157 -134 -255.5t-351 -98.5q-146 0 -296.5 45t-244.5 122z" />
    <glyph glyph-name="t" unicode="t" horiz-adv-x="911" 
d="M664 162q93 0 180 37v-176q-74 -41 -203 -41q-193 0 -295 98.5t-102 269.5v600h-191v166h193v264l194 93v-357h394v-166h-394v-575q0 -104 61 -158.5t163 -54.5z" />
    <glyph glyph-name="u" unicode="u" horiz-adv-x="1386" 
d="M1006 451v665h196v-1116h-186v154q-69 -96 -175 -138.5t-220 -42.5q-203 0 -328 116t-125 310v717h197v-680q0 -131 77 -205.5t217 -74.5q154 0 250.5 84t96.5 211z" />
    <glyph glyph-name="v" unicode="v" horiz-adv-x="1277" 
d="M641 182l387 934h213l-483 -1116h-238l-483 1116h219z" />
    <glyph glyph-name="w" unicode="w" horiz-adv-x="1978" 
d="M1405 186l326 930h211l-422 -1116h-232l-295 868l-301 -868h-231l-424 1116h217l328 -930l313 922h197z" />
    <glyph glyph-name="x" unicode="x" horiz-adv-x="1224" 
d="M731 580l469 -580h-244l-346 438l-356 -438h-231l473 569l-447 547h244l325 -405l324 405h232z" />
    <glyph glyph-name="y" unicode="y" horiz-adv-x="1269" 
d="M641 219l383 897h213l-565 -1253q-114 -252 -365 -252q-133 0 -246 55l58 164q98 -45 180 -45q141 0 209 147l35 76l-510 1108h219z" />
    <glyph glyph-name="z" unicode="z" horiz-adv-x="1142" 
d="M1034 975l-696 -809h721v-166h-975v141l698 811h-665v164h917v-141z" />
    <glyph glyph-name="braceleft" unicode="{" horiz-adv-x="806" 
d="M729 1442h-84q-97 0 -146.5 -50t-49.5 -130q0 -56 9 -168t9 -168q0 -197 -199 -264q199 -67 199 -265q0 -57 -9 -168t-9 -168q0 -80 49.5 -130t146.5 -50h84v-166h-98q-177 0 -271 93t-94 249q0 50 9.5 160t9.5 168q0 88 -47 132t-150 65v159q103 21 150 65.5t47 131.5
q0 58 -9.5 168t-9.5 160q0 156 94 249t271 93h98v-166z" />
    <glyph glyph-name="bar" unicode="|" horiz-adv-x="569" 
d="M205 -285v1893h160v-1893h-160z" />
    <glyph glyph-name="braceright" unicode="}" horiz-adv-x="806" 
d="M522 938q0 -87 47 -131.5t150 -65.5v-159q-103 -21 -150 -65t-47 -132q0 -58 9.5 -168t9.5 -160q0 -156 -94 -249t-271 -93h-98v166h84q97 0 146.5 50t49.5 130q0 57 -9 168t-9 168q0 198 199 265q-199 67 -199 264q0 56 9 168t9 168q0 80 -49.5 130t-146.5 50h-84v166
h98q177 0 271 -93t94 -249q0 -50 -9.5 -160t-9.5 -168z" />
    <glyph glyph-name="asciitilde" unicode="~" horiz-adv-x="1296" 
d="M862 549q-60 0 -114 21t-92 50.5t-72.5 59.5t-71 51t-70.5 21q-60 0 -96 -50.5t-39 -144.5h-172q3 166 82 264.5t221 98.5q61 0 115.5 -21t93 -51t73 -59.5t70 -50.5t68.5 -21q61 0 97.5 50t39.5 144h172q-3 -167 -81.5 -264.5t-223.5 -97.5z" />
    <glyph glyph-name="uni00A0" unicode="&#xa0;" horiz-adv-x="661" 
 />
    <glyph glyph-name="exclamdown" unicode="&#xa1;" horiz-adv-x="598" 
d="M299 1489q60 0 96.5 -37t36.5 -96t-36.5 -96t-96.5 -37t-96.5 37t-36.5 96t36.5 96t96.5 37zM184 0l52 1004h126l50 -1004h-228z" />
    <glyph glyph-name="cent" unicode="&#xa2;" horiz-adv-x="1257" 
d="M1053 274l118 -139q-63 -69 -163 -111.5t-224 -48.5v-223h-145v228q-240 31 -384 190t-144 387t146.5 388.5t381.5 191.5v215h145v-211q229 -14 379 -158l-119 -143q-108 105 -260 123v-807q81 8 151.5 38.5t117.5 79.5zM311 559q0 -154 92 -260t236 -135v790
q-144 -29 -236 -135.5t-92 -259.5z" />
    <glyph glyph-name="sterling" unicode="&#xa3;" horiz-adv-x="1474" 
d="M457 178h909v-178h-1196v158q54 23 102 52.5t93 70t71.5 93t26.5 109.5q0 76 -53 156h-304v164h187q-64 112 -64 229q0 206 154 337.5t405 131.5q155 0 279 -51.5t199 -153.5t80 -239h-201q-7 120 -107.5 193t-246.5 73q-160 0 -258.5 -84t-98.5 -205q0 -42 15 -85.5
t31.5 -71.5t47.5 -74h576v-164h-469q37 -72 37 -150q0 -198 -215 -311z" />
    <glyph glyph-name="currency" unicode="&#xa4;" horiz-adv-x="1351" 
d="M1149 737q0 -147 -86 -274l137 -137l-113 -111l-137 137q-125 -88 -274 -88q-150 0 -275 88l-137 -137l-112 111l137 137q-86 127 -86 274q0 148 86 275l-137 137l112 111l137 -136q127 86 275 86q147 0 274 -86l137 136l113 -111l-137 -137q86 -127 86 -275zM676 432
q128 0 216.5 89t88.5 216t-88.5 216t-216.5 89t-216.5 -89t-88.5 -216t88.5 -216t216.5 -89z" />
    <glyph glyph-name="yen" unicode="&#xa5;" horiz-adv-x="1495" 
d="M1208 1475h217l-419 -682h292v-146h-380l-68 -108v-64h448v-145h-448v-330h-203v330h-448v145h448v60l-69 112h-379v146h288l-419 682h221l461 -752z" />
    <glyph glyph-name="brokenbar" unicode="&#xa6;" horiz-adv-x="569" 
d="M205 782v826h157v-826h-157zM205 -285v826h157v-826h-157z" />
    <glyph glyph-name="section" unicode="&#xa7;" horiz-adv-x="1300" 
d="M1020 231q135 -93 135 -245q0 -168 -137 -270.5t-371 -102.5q-157 0 -306.5 46t-234.5 116l103 149q97 -75 218 -108t224 -33q133 0 220 52.5t87 141.5q0 52 -40.5 93t-139.5 73l-332 105q-313 98 -313 327q0 93 49 168.5t142 122.5q-162 106 -162 271q0 162 141 263
t377 101q267 0 481 -149l-100 -144q-172 125 -387 125q-143 0 -229.5 -56t-86.5 -136q0 -114 181 -180l391 -140q127 -45 188.5 -127t61.5 -184q0 -84 -40 -156.5t-120 -122.5zM317 604q0 -61 46 -106t147 -78l338 -111l20 -6q125 72 125 182q0 122 -164 181l-354 129
q-75 -31 -116.5 -80t-41.5 -111z" />
    <glyph glyph-name="dieresis" unicode="&#xa8;" horiz-adv-x="1247" 
d="M369 1284q-56 0 -92.5 34.5t-36.5 88.5t36.5 88.5t92.5 34.5t92.5 -34.5t36.5 -88.5t-36.5 -88.5t-92.5 -34.5zM825 1284q-56 0 -92.5 34.5t-36.5 88.5t36.5 88.5t92.5 34.5t92.5 -34.5t36.5 -88.5t-36.5 -88.5t-92.5 -34.5z" />
    <glyph glyph-name="copyright" unicode="&#xa9;" horiz-adv-x="1916" 
d="M958 -74q-178 0 -335.5 64t-267.5 173.5t-174 259.5t-64 316q0 165 64 314.5t174 258.5t267.5 173.5t335.5 64.5t335.5 -64.5t268 -173.5t174.5 -258.5t64 -314.5q0 -166 -64 -316t-174.5 -259.5t-268 -173.5t-335.5 -64zM958 51q202 0 364.5 90.5t253.5 248t91 349.5
q0 191 -91 348t-254 247.5t-364 90.5q-151 0 -283 -53t-225 -144.5t-146.5 -218.5t-53.5 -270q0 -144 53.5 -271.5t146.5 -219t225 -144.5t283 -53zM995 362q-178 0 -293.5 108t-115.5 273q0 163 116 271t289 108q89 0 165 -28t124 -82l-84 -94q-86 86 -203 86
q-114 0 -192 -76t-78 -185q0 -112 78.5 -187t195.5 -75q118 0 203 82l84 -92q-100 -109 -289 -109z" />
    <glyph glyph-name="ordfeminine" unicode="&#xaa;" horiz-adv-x="1234" 
d="M1071 713q18 0 39 6v-148q-21 -14 -74 -14q-82 0 -140.5 38.5t-70.5 109.5q-58 -83 -153.5 -122.5t-200.5 -39.5q-151 0 -254.5 72.5t-103.5 203.5q0 142 132 220.5t382 78.5h186v6q0 100 -67 156.5t-181 56.5q-75 0 -152.5 -24t-136.5 -74l-94 137q76 61 180 92t209 31
q194 0 308 -96.5t114 -267.5v-344q0 -37 21.5 -57.5t56.5 -20.5zM489 698q55 0 107 15t99.5 46.5t79 88t36.5 131.5h-180q-174 0 -254 -41t-80 -109q0 -60 51.5 -95.5t140.5 -35.5z" />
    <glyph glyph-name="guillemotleft" unicode="&#xab;" horiz-adv-x="1136" 
d="M418 1022h194l-323 -451l323 -452h-194l-328 452zM831 1022h195l-324 -451l324 -452h-195l-327 452z" />
    <glyph glyph-name="logicalnot" unicode="&#xac;" horiz-adv-x="1296" 
d="M117 887v172h1022v-647h-176v475h-846z" />
    <glyph glyph-name="uni00AD" unicode="&#xad;" horiz-adv-x="796" 
d="M115 563l37 187h530l-37 -187h-530z" />
    <glyph glyph-name="registered" unicode="&#xae;" horiz-adv-x="1351" 
d="M676 1501q149 0 274.5 -72.5t198 -198t72.5 -274.5t-72.5 -274t-198 -197.5t-274.5 -72.5t-274.5 72.5t-198 197.5t-72.5 274t72.5 274.5t198 198t274.5 72.5zM676 498q190 0 322 133t132 325t-132 325.5t-322 133.5t-322.5 -133.5t-132.5 -325.5t132 -325t323 -133z
M905 1063q0 -53 -27.5 -92.5t-76.5 -52.5l137 -205h-113l-127 196h-129v-196h-98v499h277q72 0 114.5 -43t42.5 -106zM729 1128h-160v-133h160q35 0 54.5 18.5t19.5 49.5q0 30 -19.5 47.5t-54.5 17.5z" />
    <glyph glyph-name="macron" unicode="&#xaf;" horiz-adv-x="1200" 
d="M1006 1307h-656v153h656v-153z" />
    <glyph glyph-name="degree" unicode="&#xb0;" horiz-adv-x="950" 
d="M475 801q-153 0 -257.5 99.5t-104.5 250.5t104.5 250.5t257.5 99.5q154 0 258.5 -99.5t104.5 -250.5t-104.5 -250.5t-258.5 -99.5zM475 940q91 0 152 59.5t61 151.5t-61 151.5t-152 59.5t-152 -59.5t-61 -151.5t61 -151.5t152 -59.5z" />
    <glyph glyph-name="plusminus" unicode="&#xb1;" horiz-adv-x="1296" 
d="M735 1294v-346h414v-170h-414v-346h-176v346h-414v170h414v346h176zM1149 80h-1004v172h1004v-172z" />
    <glyph glyph-name="uni00B2" unicode="&#xb2;" horiz-adv-x="923" 
d="M100 1423l99 -123q54 50 124.5 75.5t137.5 25.5q77 0 125.5 -33t48.5 -88q0 -40 -30.5 -76t-79 -64.5t-107 -58.5t-117.5 -66t-107.5 -79t-79 -105t-30.5 -137v-35h743v152h-536q32 44 99 86.5t136 77.5t135 77t108 103t42 137q0 118 -93 191t-251 73q-219 0 -367 -133z
" />
    <glyph glyph-name="uni00B3" unicode="&#xb3;" horiz-adv-x="913" 
d="M774 1401l-235 -211q140 -10 211 -84.5t71 -173.5q0 -123 -101 -206t-284 -83q-113 0 -219 34.5t-166 90.5l92 131q130 -102 291 -102q100 0 155.5 38t55.5 99q0 58 -50.5 95.5t-137.5 37.5q-65 0 -121 -25l-72 74l299 273h-461v151h672v-139z" />
    <glyph glyph-name="acute" unicode="&#xb4;" horiz-adv-x="1200" 
d="M967 1581v-18l-283 -318h-188l243 336h228z" />
    <glyph glyph-name="uni00B5" unicode="&#xb5;" horiz-adv-x="1435" 
d="M1042 453v663h197v-1116h-188v154q-69 -92 -174.5 -134.5t-223.5 -42.5q-156 0 -260 78v-424h-196v1485h196v-678q0 -132 77 -205t222 -73q155 0 252.5 83t97.5 210z" />
    <glyph glyph-name="paragraph" unicode="&#xb6;" horiz-adv-x="1417" 
d="M1198 1475v-1719h-149v1579h-236v-1579h-149v934h-158q-211 0 -324.5 109t-113.5 282t114 283.5t324 110.5h692z" />
    <glyph glyph-name="periodcentered" unicode="&#xb7;" horiz-adv-x="565" 
d="M283 680q-60 0 -96.5 37t-36.5 96t36.5 96t96.5 37t96.5 -37t36.5 -96t-36.5 -96t-96.5 -37z" />
    <glyph glyph-name="cedilla" unicode="&#xb8;" horiz-adv-x="1245" 
d="M758 -74q106 0 170.5 -51t64.5 -127q0 -87 -82 -138.5t-221 -51.5q-185 0 -303 73l64 103q116 -62 235 -62q68 0 102.5 20.5t34.5 55.5q0 33 -34.5 53.5t-100.5 20.5q-59 0 -121 -19l-43 31l152 205h151l-108 -115q12 2 39 2z" />
    <glyph glyph-name="uni00B9" unicode="&#xb9;" horiz-adv-x="636" 
d="M324 1540h149v-881h-172v631q-91 -73 -231 -108v149q193 52 254 209z" />
    <glyph glyph-name="ordmasculine" unicode="&#xba;" horiz-adv-x="1247" 
d="M625 543q-218 0 -356 137t-138 340q0 206 138 343.5t356 137.5q216 0 353.5 -138t137.5 -343q0 -202 -138 -339.5t-353 -137.5zM625 711q131 0 219 88t88 221q0 137 -87.5 225t-219.5 88t-221 -88t-89 -225q0 -133 89.5 -221t220.5 -88z" />
    <glyph glyph-name="guillemotright" unicode="&#xbb;" horiz-adv-x="1136" 
d="M111 1022h194l328 -451l-328 -452h-194l323 452zM524 1022h195l328 -451l-328 -452h-195l324 452z" />
    <glyph glyph-name="onequarter" unicode="&#xbc;" horiz-adv-x="1884" 
d="M473 594h-172v631q-93 -74 -231 -109v150q193 52 254 209h149v-881zM299 0l995 1475h160l-995 -1475h-160zM1677 354h129v-147h-129v-209h-168v209h-516v135l473 537h211v-525zM1509 715l-313 -361h313v361z" />
    <glyph glyph-name="onehalf" unicode="&#xbd;" horiz-adv-x="2004" 
d="M473 594h-172v631q-93 -74 -231 -109v150q193 52 254 209h149v-881zM299 0l995 1475h160l-995 -1475h-160zM1372 150h537v-152h-744v35q0 75 30.5 137t79 104.5t107 79t117.5 66t107.5 58.5t79 64.5t30.5 75.5q0 55 -48.5 88t-125.5 33q-68 0 -138 -25t-124 -75l-98 123
q148 133 366 133q158 0 251 -73t93 -191q0 -76 -42 -137t-108 -103t-135 -77t-136 -77.5t-99 -86.5z" />
    <glyph glyph-name="threequarters" unicode="&#xbe;" horiz-adv-x="2115" 
d="M842 866q0 -123 -101 -205.5t-284 -82.5q-114 0 -219.5 34t-165.5 90l92 132q131 -103 291 -103q100 0 155.5 38t55.5 99q0 58 -51 95.5t-138 37.5q-67 0 -121 -24l-71 74l299 272h-461v152h672v-140l-236 -211q140 -10 211.5 -84.5t71.5 -173.5zM545 0l995 1475h160
l-995 -1475h-160zM1913 354h129v-147h-129v-209h-168v209h-516v135l473 537h211v-525zM1745 715l-313 -361h313v361z" />
    <glyph glyph-name="questiondown" unicode="&#xbf;" horiz-adv-x="1150" 
d="M594 1489q60 0 96.5 -37t36.5 -96t-36.5 -96t-96.5 -37t-96.5 37t-36.5 96t36.5 96t96.5 37zM1081 397h-202q-6 -103 -87 -173t-217 -70q-121 0 -203.5 55t-82.5 147q0 53 40.5 104t145.5 136q59 48 95 83t66 76.5t43 85.5t13 97v66h-194v-52q0 -65 -41 -118t-156 -146
q-119 -95 -170 -172.5t-51 -171.5q0 -161 133.5 -266t351.5 -105q232 0 371 121.5t145 302.5z" />
    <glyph glyph-name="Agrave" unicode="&#xc0;" 
d="M678 1931l223 -319h-186l-264 301v18h227zM1524 0h-219l-158 393h-735l-160 -393h-215l618 1475h252zM780 1300l-297 -731h592z" />
    <glyph glyph-name="Aacute" unicode="&#xc1;" 
d="M1110 1939v-18l-283 -317h-188l244 335h227zM1524 0h-219l-158 393h-735l-160 -393h-215l618 1475h252zM780 1300l-297 -731h592z" />
    <glyph glyph-name="Acircumflex" unicode="&#xc2;" 
d="M961 1612l-181 200l-182 -200h-176l252 327h211l254 -327h-178zM1524 0h-219l-158 393h-735l-160 -393h-215l618 1475h252zM780 1300l-297 -731h592z" />
    <glyph glyph-name="Atilde" unicode="&#xc3;" 
d="M614 1778q-87 0 -96 -152h-151q3 138 66.5 219.5t178.5 81.5q48 0 91 -17t73.5 -41t57 -48t54 -41t52.5 -17q43 0 69 39.5t29 112.5h152q-3 -137 -67 -218t-181 -81q-58 0 -110 25.5t-83.5 55.5t-67.5 55.5t-67 25.5zM1524 0h-219l-158 393h-735l-160 -393h-215l618 1475
h252zM780 1300l-297 -731h592z" />
    <glyph glyph-name="Adieresis" unicode="&#xc4;" 
d="M551 1642q-56 0 -92.5 34.5t-36.5 88.5t36.5 88.5t92.5 34.5t92.5 -34.5t36.5 -88.5t-36.5 -88.5t-92.5 -34.5zM1008 1642q-56 0 -92.5 34.5t-36.5 88.5t36.5 88.5t92.5 34.5t92.5 -34.5t36.5 -88.5t-36.5 -88.5t-92.5 -34.5zM1524 0h-219l-158 393h-735l-160 -393h-215
l618 1475h252zM780 1300l-297 -731h592z" />
    <glyph glyph-name="Aring" unicode="&#xc5;" 
d="M778 1604q-124 0 -204 75t-80 191t80 191t204 75t204.5 -75t80.5 -191t-80.5 -191t-204.5 -75zM778 2015q-63 0 -105 -41t-42 -104t42 -104.5t105 -41.5t105.5 41.5t42.5 104.5t-42.5 104t-105.5 41zM1524 0h-219l-158 393h-735l-160 -393h-215l618 1475h252zM780 1300
l-297 -731h592z" />
    <glyph glyph-name="AE" unicode="&#xc6;" horiz-adv-x="2256" 
d="M1262 180h886l35 -180h-1120v385h-614l-256 -385h-224l983 1475h1211l-35 -181h-866v-432h589v-180h-589v-502zM1063 1315l-498 -752h498v752z" />
    <glyph glyph-name="Ccedilla" unicode="&#xc7;" 
d="M1358 322l133 -142q-93 -102 -235.5 -153t-303.5 -54l-47 -49q12 2 39 2q106 0 171 -51t65 -127q0 -87 -82 -138.5t-221 -51.5q-186 0 -304 73l64 103q116 -62 235 -62q68 0 103 20.5t35 55.5q0 32 -35 53t-101 21q-58 0 -120 -19l-43 31l108 146q-204 24 -364 127.5
t-249 267.5t-89 362q0 216 105.5 391t290 274t411.5 99q168 0 315.5 -54t239.5 -155l-131 -143q-169 166 -424 166q-162 0 -298 -74.5t-216 -207.5t-80 -296t79 -295.5t217.5 -207t307.5 -74.5q121 0 232 40t192 122z" />
    <glyph glyph-name="Egrave" unicode="&#xc8;" horiz-adv-x="1447" 
d="M668 1931l223 -319h-186l-265 301v18h228zM410 180h929l37 -180h-1171v1475h1151l-37 -181h-909v-432h624v-182h-624v-500z" />
    <glyph glyph-name="Eacute" unicode="&#xc9;" horiz-adv-x="1447" 
d="M1100 1939v-18l-283 -317h-188l243 335h228zM410 180h929l37 -180h-1171v1475h1151l-37 -181h-909v-432h624v-182h-624v-500z" />
    <glyph glyph-name="Ecircumflex" unicode="&#xca;" horiz-adv-x="1447" 
d="M950 1612l-180 200l-182 -200h-176l252 327h210l254 -327h-178zM410 180h929l37 -180h-1171v1475h1151l-37 -181h-909v-432h624v-182h-624v-500z" />
    <glyph glyph-name="Edieresis" unicode="&#xcb;" horiz-adv-x="1447" 
d="M541 1642q-56 0 -92.5 34.5t-36.5 88.5t36.5 88.5t92.5 34.5t92.5 -34.5t36.5 -88.5t-36.5 -88.5t-92.5 -34.5zM997 1642q-56 0 -92.5 34.5t-36.5 88.5t36.5 88.5t92.5 34.5t92.5 -34.5t36.5 -88.5t-36.5 -88.5t-92.5 -34.5zM410 180h929l37 -180h-1171v1475h1151
l-37 -181h-909v-432h624v-182h-624v-500z" />
    <glyph glyph-name="Igrave" unicode="&#xcc;" horiz-adv-x="614" 
d="M-23 1913v18h228l223 -319h-186zM205 0v1475h205v-1475h-205z" />
    <glyph glyph-name="Iacute" unicode="&#xcd;" horiz-adv-x="614" 
d="M637 1939v-18l-283 -317h-188l244 335h227zM205 0v1475h205v-1475h-205z" />
    <glyph glyph-name="Icircumflex" unicode="&#xce;" horiz-adv-x="614" 
d="M201 1939h211l254 -327h-179l-180 200l-182 -200h-176zM410 0h-205v1475h205v-1475z" />
    <glyph glyph-name="Idieresis" unicode="&#xcf;" horiz-adv-x="614" 
d="M106 1642q-56 0 -92.5 34.5t-36.5 88.5t36.5 88.5t92.5 34.5t93 -34.5t37 -88.5t-37 -88.5t-93 -34.5zM506 1642q-56 0 -92.5 34.5t-36.5 88.5t36.5 88.5t92.5 34.5t92.5 -34.5t36.5 -88.5t-36.5 -88.5t-92.5 -34.5zM205 0v1475h205v-1475h-205z" />
    <glyph glyph-name="Eth" unicode="&#xd0;" horiz-adv-x="1716" 
d="M829 1475q176 0 321.5 -55.5t243 -153.5t150.5 -234t53 -295t-53 -294.5t-150.5 -233.5t-243 -153.5t-321.5 -55.5h-591v690h-175v178h175v607h591zM442 182h385q258 0 407.5 153t149.5 402t-149.5 402t-407.5 153h-385v-424h539v-178h-539v-508z" />
    <glyph glyph-name="Ntilde" unicode="&#xd1;" horiz-adv-x="1703" 
d="M690 1778q-87 0 -96 -152h-152q3 137 66.5 219t179.5 82q48 0 91 -17t73.5 -41t57 -48t54 -41t52.5 -17q43 0 69 39.5t29 112.5h152q-3 -137 -67 -218t-181 -81q-58 0 -110 25.5t-83.5 55.5t-67.5 55.5t-67 25.5zM1300 297v1178h199v-1475h-213l-883 1186v-1186h-198
v1475h219z" />
    <glyph glyph-name="Ograve" unicode="&#xd2;" horiz-adv-x="1781" 
d="M561 1913v18h227l224 -319h-187zM891 -27q-223 0 -399.5 98t-275.5 272.5t-99 393.5t99 393.5t275.5 272.5t399.5 98t399.5 -98t275.5 -272.5t99 -393.5t-99 -393.5t-275.5 -272.5t-399.5 -98zM891 160q246 0 403.5 162t157.5 415t-157.5 415.5t-403.5 162.5
t-403.5 -162.5t-157.5 -415.5t157.5 -415t403.5 -162z" />
    <glyph glyph-name="Oacute" unicode="&#xd3;" horiz-adv-x="1781" 
d="M1221 1939v-18l-283 -317h-188l243 335h228zM891 -27q-223 0 -399.5 98t-275.5 272.5t-99 393.5t99 393.5t275.5 272.5t399.5 98t399.5 -98t275.5 -272.5t99 -393.5t-99 -393.5t-275.5 -272.5t-399.5 -98zM891 160q246 0 403.5 162t157.5 415t-157.5 415.5t-403.5 162.5
t-403.5 -162.5t-157.5 -415.5t157.5 -415t403.5 -162z" />
    <glyph glyph-name="Ocircumflex" unicode="&#xd4;" horiz-adv-x="1781" 
d="M1071 1612l-180 200l-182 -200h-177l252 327h211l254 -327h-178zM891 1501q223 0 399.5 -98t275.5 -272.5t99 -393.5t-99 -393.5t-275.5 -272.5t-399.5 -98t-399.5 98t-275.5 272.5t-99 393.5t99 393.5t275.5 272.5t399.5 98zM891 160q246 0 403.5 162t157.5 415
t-157.5 415.5t-403.5 162.5t-403.5 -162.5t-157.5 -415.5t157.5 -415t403.5 -162z" />
    <glyph glyph-name="Otilde" unicode="&#xd5;" horiz-adv-x="1781" 
d="M1053 1616q-48 0 -90.5 16.5t-73 40.5t-57.5 48t-54.5 40.5t-52.5 16.5q-87 0 -96 -152h-152q3 137 66.5 219t179.5 82q48 0 91 -17t73.5 -41t57 -48t54 -41t52.5 -17q43 0 69 39.5t29 112.5h151q-3 -137 -66.5 -218t-180.5 -81zM891 -27q-223 0 -399.5 98t-275.5 272.5
t-99 393.5t99 393.5t275.5 272.5t399.5 98t399.5 -98t275.5 -272.5t99 -393.5t-99 -393.5t-275.5 -272.5t-399.5 -98zM891 160q246 0 403.5 162t157.5 415t-157.5 415.5t-403.5 162.5t-403.5 -162.5t-157.5 -415.5t157.5 -415t403.5 -162z" />
    <glyph glyph-name="Odieresis" unicode="&#xd6;" horiz-adv-x="1781" 
d="M662 1642q-56 0 -93 34.5t-37 88.5t37 88.5t93 34.5t92.5 -34.5t36.5 -88.5t-36.5 -88.5t-92.5 -34.5zM1118 1642q-56 0 -92.5 34.5t-36.5 88.5t36.5 88.5t92.5 34.5t92.5 -34.5t36.5 -88.5t-36.5 -88.5t-92.5 -34.5zM891 -27q-223 0 -399.5 98t-275.5 272.5t-99 393.5
t99 393.5t275.5 272.5t399.5 98t399.5 -98t275.5 -272.5t99 -393.5t-99 -393.5t-275.5 -272.5t-399.5 -98zM891 160q246 0 403.5 162t157.5 415t-157.5 415.5t-403.5 162.5t-403.5 -162.5t-157.5 -415.5t157.5 -415t403.5 -162z" />
    <glyph glyph-name="multiply" unicode="&#xd7;" horiz-adv-x="1296" 
d="M647 616l-352 -354l-123 123l354 352l-354 353l123 122l352 -354l352 354l123 -122l-354 -353l354 -352l-123 -123z" />
    <glyph glyph-name="Oslash" unicode="&#xd8;" horiz-adv-x="1777" 
d="M1602 1583l-193 -266q120 -104 186 -253t66 -327q0 -164 -58 -306t-159.5 -242.5t-245 -158t-309.5 -57.5q-212 0 -387 93l-129 -177h-195l191 267q-120 104 -186 253.5t-66 327.5q0 164 58 306t159.5 242.5t245 158t309.5 57.5q217 0 391 -94l127 176h195zM328 737
q0 -252 157 -415l680 925q-127 68 -276 68q-246 0 -403.5 -162.5t-157.5 -415.5zM889 160q246 0 403.5 162t157.5 415q0 125 -41 232t-117 184l-678 -928q118 -65 275 -65z" />
    <glyph glyph-name="Ugrave" unicode="&#xd9;" horiz-adv-x="1642" 
d="M492 1913v18h227l223 -319h-186zM821 -27q-286 0 -458.5 153t-172.5 411v938h205v-916q0 -186 115.5 -292.5t310.5 -106.5q196 0 311 106.5t115 292.5v916h205v-938q0 -259 -172 -411.5t-459 -152.5z" />
    <glyph glyph-name="Uacute" unicode="&#xda;" horiz-adv-x="1642" 
d="M1151 1939v-18l-283 -317h-188l244 335h227zM821 -27q-286 0 -458.5 153t-172.5 411v938h205v-916q0 -186 115.5 -292.5t310.5 -106.5q196 0 311 106.5t115 292.5v916h205v-938q0 -259 -172 -411.5t-459 -152.5z" />
    <glyph glyph-name="Ucircumflex" unicode="&#xdb;" horiz-adv-x="1642" 
d="M1001 1612l-180 200l-182 -200h-176l252 327h211l254 -327h-179zM1247 559v916h205v-938q0 -259 -172 -411.5t-459 -152.5q-286 0 -458.5 153t-172.5 411v938h205v-916q0 -186 115.5 -292.5t310.5 -106.5q196 0 311 106.5t115 292.5z" />
    <glyph glyph-name="Udieresis" unicode="&#xdc;" horiz-adv-x="1642" 
d="M592 1642q-56 0 -92.5 34.5t-36.5 88.5t36.5 88.5t92.5 34.5t92.5 -34.5t36.5 -88.5t-36.5 -88.5t-92.5 -34.5zM1049 1642q-56 0 -92.5 34.5t-36.5 88.5t36.5 88.5t92.5 34.5t92.5 -34.5t36.5 -88.5t-36.5 -88.5t-92.5 -34.5zM821 -27q-286 0 -458.5 153t-172.5 411v938
h205v-916q0 -186 115.5 -292.5t310.5 -106.5q196 0 311 106.5t115 292.5v916h205v-938q0 -259 -172 -411.5t-459 -152.5z" />
    <glyph glyph-name="Yacute" unicode="&#xdd;" horiz-adv-x="1480" 
d="M1067 1939v-18l-283 -317h-188l244 335h227zM1219 1475h229l-604 -971v-504h-205v500l-608 975h237l475 -783z" />
    <glyph glyph-name="Thorn" unicode="&#xde;" horiz-adv-x="1517" 
d="M410 1190h508q236 0 365.5 -121.5t129.5 -316.5q0 -197 -129.5 -319t-365.5 -122h-508v-311h-205v1475h205v-285zM410 494h501q141 0 217 68.5t76 189.5q0 119 -76 186.5t-217 67.5h-501v-512z" />
    <glyph glyph-name="germandbls" unicode="&#xdf;" horiz-adv-x="1433" 
d="M381 0v1051q0 153 94.5 246.5t245.5 93.5q111 0 185.5 -54t74.5 -135q0 -42 -28 -81t-103 -107q-83 -77 -111 -125t-28 -96q0 -55 23.5 -98.5t84.5 -82.5l199 -129q82 -53 111.5 -90t29.5 -82q0 -64 -58 -109.5t-167 -45.5q-186 0 -375 84v-185q173 -75 381 -75
q188 0 307 94t119 237q0 68 -25 123t-64.5 94t-105.5 82l-186 123q-42 27 -57 43.5t-15 34.5q0 17 17.5 38.5t83.5 82.5q95 90 130.5 151.5t35.5 137.5q0 146 -128.5 246t-324.5 100q-242 0 -392.5 -138.5t-150.5 -369.5v-1059h197z" />
    <glyph glyph-name="agrave" unicode="&#xe0;" horiz-adv-x="1325" 
d="M537 1573l223 -320h-187l-264 301v19h228zM1231 162q34 0 57 10v-164q-37 -16 -96 -16q-93 0 -161 47t-79 137q-67 -99 -183.5 -150t-252.5 -51q-121 0 -218.5 37.5t-158.5 117t-61 189.5q0 168 144.5 263.5t428.5 95.5h295v14q0 129 -87 201t-234 72q-95 0 -189 -30.5
t-164 -88.5l-108 143q88 76 213 114t256 38q232 0 369 -117t137 -322v-450q0 -90 92 -90zM532 145q56 0 109.5 11t107.5 38.5t95 68.5t69 106t33 147h-291q-381 0 -381 -190q0 -85 70.5 -133t187.5 -48z" />
    <glyph glyph-name="aacute" unicode="&#xe1;" horiz-adv-x="1325" 
d="M969 1581v-18l-283 -318h-188l243 336h228zM1231 162q34 0 57 10v-164q-37 -16 -96 -16q-93 0 -161 47t-79 137q-67 -99 -183.5 -150t-252.5 -51q-121 0 -218.5 37.5t-158.5 117t-61 189.5q0 168 144.5 263.5t428.5 95.5h295v14q0 129 -87 201t-234 72q-95 0 -189 -30.5
t-164 -88.5l-108 143q88 76 213 114t256 38q232 0 369 -117t137 -322v-450q0 -90 92 -90zM532 145q56 0 109.5 11t107.5 38.5t95 68.5t69 106t33 147h-291q-381 0 -381 -190q0 -85 70.5 -133t187.5 -48z" />
    <glyph glyph-name="acircumflex" unicode="&#xe2;" horiz-adv-x="1325" 
d="M819 1253l-180 201l-182 -201h-176l251 328h211l254 -328h-178zM1231 162q34 0 57 10v-164q-37 -16 -96 -16q-93 0 -161 47t-79 137q-67 -99 -183.5 -150t-252.5 -51q-121 0 -218.5 37.5t-158.5 117t-61 189.5q0 168 144.5 263.5t428.5 95.5h295v14q0 129 -87 201
t-234 72q-95 0 -189 -30.5t-164 -88.5l-108 143q88 76 213 114t256 38q232 0 369 -117t137 -322v-450q0 -90 92 -90zM532 145q56 0 109.5 11t107.5 38.5t95 68.5t69 106t33 147h-291q-381 0 -381 -190q0 -85 70.5 -133t187.5 -48z" />
    <glyph glyph-name="atilde" unicode="&#xe3;" horiz-adv-x="1325" 
d="M473 1419q-87 0 -96 -151h-152q3 137 66.5 219t179.5 82q48 0 91 -17t73.5 -41t57 -48t54 -41t52.5 -17q43 0 69 39t29 112h152q-3 -137 -67 -218t-181 -81q-48 0 -90.5 16.5t-73 40.5t-57.5 48t-54.5 40.5t-52.5 16.5zM1231 162q34 0 57 10v-164q-37 -16 -96 -16
q-93 0 -161 47t-79 137q-67 -99 -183.5 -150t-252.5 -51q-121 0 -218.5 37.5t-158.5 117t-61 189.5q0 168 144.5 263.5t428.5 95.5h295v14q0 129 -87 201t-234 72q-95 0 -189 -30.5t-164 -88.5l-108 143q88 76 213 114t256 38q232 0 369 -117t137 -322v-450q0 -90 92 -90z
M532 145q56 0 109.5 11t107.5 38.5t95 68.5t69 106t33 147h-291q-381 0 -381 -190q0 -85 70.5 -133t187.5 -48z" />
    <glyph glyph-name="adieresis" unicode="&#xe4;" horiz-adv-x="1325" 
d="M410 1284q-56 0 -92.5 34.5t-36.5 88.5t36.5 88.5t92.5 34.5t92.5 -34.5t36.5 -88.5t-36.5 -88.5t-92.5 -34.5zM866 1284q-56 0 -92.5 34.5t-36.5 88.5t36.5 88.5t92.5 34.5t92.5 -34.5t36.5 -88.5t-36.5 -88.5t-92.5 -34.5zM1231 162q34 0 57 10v-164q-37 -16 -96 -16
q-93 0 -161 47t-79 137q-67 -99 -183.5 -150t-252.5 -51q-121 0 -218.5 37.5t-158.5 117t-61 189.5q0 168 144.5 263.5t428.5 95.5h295v14q0 129 -87 201t-234 72q-95 0 -189 -30.5t-164 -88.5l-108 143q88 76 213 114t256 38q232 0 369 -117t137 -322v-450q0 -90 92 -90z
M532 145q56 0 109.5 11t107.5 38.5t95 68.5t69 106t33 147h-291q-381 0 -381 -190q0 -85 70.5 -133t187.5 -48z" />
    <glyph glyph-name="aring" unicode="&#xe5;" horiz-adv-x="1325" 
d="M637 1245q-124 0 -204.5 75t-80.5 191t80.5 191.5t204.5 75.5t204.5 -75.5t80.5 -191.5t-80.5 -191t-204.5 -75zM637 1657q-63 0 -105.5 -41.5t-42.5 -104.5t42.5 -104t105.5 -41t105 41t42 104t-42 104.5t-105 41.5zM1231 162q34 0 57 10v-164q-37 -16 -96 -16
q-93 0 -161 47t-79 137q-67 -99 -183.5 -150t-252.5 -51q-121 0 -218.5 37.5t-158.5 117t-61 189.5q0 168 144.5 263.5t428.5 95.5h295v14q0 129 -87 201t-234 72q-95 0 -189 -30.5t-164 -88.5l-108 143q88 76 213 114t256 38q232 0 369 -117t137 -322v-450q0 -90 92 -90z
M532 145q56 0 109.5 11t107.5 38.5t95 68.5t69 106t33 147h-291q-381 0 -381 -190q0 -85 70.5 -133t187.5 -48z" />
    <glyph glyph-name="ae" unicode="&#xe6;" horiz-adv-x="2174" 
d="M2083 561q0 -40 -6 -67h-936q22 -159 136.5 -253t291.5 -94q197 0 334 134l116 -136q-71 -77 -185 -125.5t-267 -48.5q-195 0 -330.5 81t-200.5 224q-31 -79 -89 -139t-129.5 -94t-147.5 -51t-154 -17q-121 0 -219 37t-159.5 115t-61.5 186q0 166 146.5 260t428.5 95
l295 2v20q0 130 -86 204.5t-237 74.5q-95 0 -191 -31t-168 -92l-102 143q88 76 213.5 114t257.5 38q164 0 275.5 -59t164.5 -171q68 108 180 169t260 61q170 0 301.5 -79.5t200 -211t68.5 -289.5zM1516 969q-142 0 -242.5 -85.5t-128.5 -228.5h737q-24 139 -122 226.5
t-244 87.5zM528 145q56 0 109 11t106 37.5t94 66.5t70 103.5t37 142.5l-297 2q-188 1 -281.5 -50t-93.5 -141q0 -79 69.5 -125.5t186.5 -46.5z" />
    <glyph glyph-name="ccedilla" unicode="&#xe7;" horiz-adv-x="1228" 
d="M1044 274l119 -139q-66 -72 -170 -115t-235 -47l-47 -49q12 2 39 2q106 0 170.5 -51t64.5 -127q0 -87 -82 -138.5t-221 -51.5q-185 0 -303 73l63 103q116 -62 236 -62q68 0 102.5 20.5t34.5 55.5q0 33 -34.5 53.5t-100.5 20.5q-59 0 -121 -19l-43 31l109 146
q-236 32 -379.5 191.5t-143.5 385.5q0 166 79.5 300t223 210t324.5 76q259 0 426 -160l-119 -143q-128 125 -311 125q-176 0 -299 -113.5t-123 -292.5q0 -180 123.5 -292.5t302.5 -112.5q94 0 177 31.5t138 88.5z" />
    <glyph glyph-name="egrave" unicode="&#xe8;" horiz-adv-x="1353" 
d="M584 1573l223 -320h-186l-265 301v19h228zM1262 555q0 -29 -9 -72h-948q23 -154 135 -243.5t285 -89.5q215 0 348 133l117 -136q-70 -78 -189.5 -126t-277.5 -48q-282 0 -451.5 165.5t-169.5 420.5q0 162 72 295t206 211t304 78q130 0 240 -46.5t183 -126t114 -187
t41 -228.5zM684 967q-148 0 -250.5 -86.5t-128.5 -235.5h758q-21 142 -123 232t-256 90z" />
    <glyph glyph-name="eacute" unicode="&#xe9;" horiz-adv-x="1353" 
d="M1016 1581v-18l-283 -318h-188l243 336h228zM1262 555q0 -29 -9 -72h-948q23 -154 135 -243.5t285 -89.5q215 0 348 133l117 -136q-70 -78 -189.5 -126t-277.5 -48q-282 0 -451.5 165.5t-169.5 420.5q0 162 72 295t206 211t304 78q130 0 240 -46.5t183 -126t114 -187
t41 -228.5zM684 967q-148 0 -250.5 -86.5t-128.5 -235.5h758q-21 142 -123 232t-256 90z" />
    <glyph glyph-name="ecircumflex" unicode="&#xea;" horiz-adv-x="1353" 
d="M866 1253l-180 201l-182 -201h-176l252 328h211l253 -328h-178zM1262 555q0 -29 -9 -72h-948q23 -154 135 -243.5t285 -89.5q215 0 348 133l117 -136q-70 -78 -189.5 -126t-277.5 -48q-282 0 -451.5 165.5t-169.5 420.5q0 162 72 295t206 211t304 78q130 0 240 -46.5
t183 -126t114 -187t41 -228.5zM684 967q-148 0 -250.5 -86.5t-128.5 -235.5h758q-21 142 -123 232t-256 90z" />
    <glyph glyph-name="edieresis" unicode="&#xeb;" horiz-adv-x="1353" 
d="M457 1284q-56 0 -92.5 34.5t-36.5 88.5t36.5 88.5t92.5 34.5t92.5 -34.5t36.5 -88.5t-36.5 -88.5t-92.5 -34.5zM913 1284q-56 0 -92.5 34.5t-36.5 88.5t36.5 88.5t92.5 34.5t92.5 -34.5t36.5 -88.5t-36.5 -88.5t-92.5 -34.5zM1262 555q0 -29 -9 -72h-948
q23 -154 135 -243.5t285 -89.5q215 0 348 133l117 -136q-70 -78 -189.5 -126t-277.5 -48q-282 0 -451.5 165.5t-169.5 420.5q0 162 72 295t206 211t304 78q130 0 240 -46.5t183 -126t114 -187t41 -228.5zM684 967q-148 0 -250.5 -86.5t-128.5 -235.5h758q-21 142 -123 232
t-256 90z" />
    <glyph glyph-name="igrave" unicode="&#xec;" horiz-adv-x="565" 
d="M377 1253h-187l-223 301v19h228zM381 0h-197v1116h197v-1116z" />
    <glyph glyph-name="iacute" unicode="&#xed;" horiz-adv-x="565" 
d="M612 1581v-18l-282 -318h-189l244 336h227zM381 0h-197v1116h197v-1116z" />
    <glyph glyph-name="icircumflex" unicode="&#xee;" horiz-adv-x="565" 
d="M176 1581h211l254 -328h-178l-180 201l-183 -201h-176zM381 0h-197v1116h197v-1116z" />
    <glyph glyph-name="idieresis" unicode="&#xef;" horiz-adv-x="565" 
d="M82 1284q-56 0 -92.5 34.5t-36.5 88.5t36.5 88.5t92.5 34.5t92.5 -34.5t36.5 -88.5t-36.5 -88.5t-92.5 -34.5zM481 1284q-56 0 -92.5 34.5t-36.5 88.5t36.5 88.5t92.5 34.5t92.5 -34.5t36.5 -88.5t-36.5 -88.5t-92.5 -34.5zM381 0h-197v1116h197v-1116z" />
    <glyph glyph-name="eth" unicode="&#xf0;" horiz-adv-x="1398" 
d="M1135 1427l-242 -92q198 -174 299.5 -380.5t101.5 -393.5q0 -164 -73.5 -298t-210 -212t-310.5 -78q-131 0 -244 45t-190 121.5t-120.5 178.5t-43.5 214q0 151 75 279t207.5 203.5t293.5 75.5q112 0 189.5 -39t140.5 -119q-102 178 -301 332l-322 -123l-43 114l244 95
q-78 48 -195 106l80 141q174 -76 311 -174l310 119zM700 154q170 0 283 111t113 270q0 158 -113 267t-283 109q-172 0 -284.5 -110.5t-112.5 -268.5t112.5 -268t284.5 -110z" />
    <glyph glyph-name="ntilde" unicode="&#xf1;" horiz-adv-x="1396" 
d="M543 1419q-88 0 -97 -151h-151q3 137 66.5 219t179.5 82q48 0 91 -17t73 -41t56.5 -48t54 -41t52.5 -17q43 0 69.5 39t29.5 112h151q-3 -137 -67 -218t-181 -81q-58 0 -110 25.5t-83 55.5t-67 55.5t-67 25.5zM768 1143q208 0 333.5 -116t125.5 -310v-717h-197v680
q0 132 -78 206.5t-221 74.5q-156 0 -253 -83.5t-97 -211.5v-666h-197v1116h187v-153q69 94 174 137t223 43z" />
    <glyph glyph-name="ograve" unicode="&#xf2;" horiz-adv-x="1404" 
d="M373 1554v19h227l223 -320h-186zM702 -27q-173 0 -311 78t-213.5 211.5t-75.5 296.5t75.5 296t213 210.5t311.5 77.5q130 0 242.5 -45.5t191 -123.5t123 -185.5t44.5 -229.5t-44.5 -230t-123 -186.5t-191 -124t-242.5 -45.5zM702 154q170 0 285 115.5t115 289.5t-115 289
t-285 115t-284.5 -115t-114.5 -289t114.5 -289.5t284.5 -115.5z" />
    <glyph glyph-name="oacute" unicode="&#xf3;" horiz-adv-x="1404" 
d="M1032 1581v-18l-282 -318h-189l244 336h227zM702 -27q-173 0 -311 78t-213.5 211.5t-75.5 296.5t75.5 296t213 210.5t311.5 77.5q130 0 242.5 -45.5t191 -123.5t123 -185.5t44.5 -229.5t-44.5 -230t-123 -186.5t-191 -124t-242.5 -45.5zM702 154q170 0 285 115.5
t115 289.5t-115 289t-285 115t-284.5 -115t-114.5 -289t114.5 -289.5t284.5 -115.5z" />
    <glyph glyph-name="ocircumflex" unicode="&#xf4;" horiz-adv-x="1404" 
d="M883 1253l-181 201l-182 -201h-176l252 328h211l254 -328h-178zM702 1143q130 0 242.5 -45.5t191 -123.5t123 -185.5t44.5 -229.5t-44.5 -230t-123 -186.5t-191 -124t-242.5 -45.5q-173 0 -311 78t-213.5 211.5t-75.5 296.5t75.5 296t213 210.5t311.5 77.5zM702 154
q170 0 285 115.5t115 289.5t-115 289t-285 115t-284.5 -115t-114.5 -289t114.5 -289.5t284.5 -115.5z" />
    <glyph glyph-name="otilde" unicode="&#xf5;" horiz-adv-x="1404" 
d="M864 1257q-58 0 -110 25.5t-83 55.5t-67 55.5t-67 25.5q-88 0 -97 -151h-151q3 137 66.5 219t179.5 82q48 0 91 -17t73 -41t56.5 -48t54 -41t52.5 -17q43 0 69.5 39t29.5 112h151q-3 -137 -67 -218t-181 -81zM702 -27q-173 0 -311 78t-213.5 211.5t-75.5 296.5t75.5 296
t213 210.5t311.5 77.5q130 0 242.5 -45.5t191 -123.5t123 -185.5t44.5 -229.5t-44.5 -230t-123 -186.5t-191 -124t-242.5 -45.5zM702 154q170 0 285 115.5t115 289.5t-115 289t-285 115t-284.5 -115t-114.5 -289t114.5 -289.5t284.5 -115.5z" />
    <glyph glyph-name="odieresis" unicode="&#xf6;" horiz-adv-x="1404" 
d="M473 1284q-56 0 -92.5 34.5t-36.5 88.5t36.5 88.5t92.5 34.5t92.5 -34.5t36.5 -88.5t-36.5 -88.5t-92.5 -34.5zM930 1284q-56 0 -92.5 34.5t-36.5 88.5t36.5 88.5t92.5 34.5t92.5 -34.5t36.5 -88.5t-36.5 -88.5t-92.5 -34.5zM702 -27q-173 0 -311 78t-213.5 211.5
t-75.5 296.5t75.5 296t213 210.5t311.5 77.5q130 0 242.5 -45.5t191 -123.5t123 -185.5t44.5 -229.5t-44.5 -230t-123 -186.5t-191 -124t-242.5 -45.5zM702 154q170 0 285 115.5t115 289.5t-115 289t-285 115t-284.5 -115t-114.5 -289t114.5 -289.5t284.5 -115.5z" />
    <glyph glyph-name="divide" unicode="&#xf7;" horiz-adv-x="1296" 
d="M647 1004q-57 0 -95 38t-38 93t38 93t95 38t95 -38t38 -93t-38 -93t-95 -38zM1151 651h-1008v170h1008v-170zM647 207q-57 0 -95 38.5t-38 92.5t38 92.5t95 38.5t95 -38.5t38 -92.5t-38 -92.5t-95 -38.5z" />
    <glyph glyph-name="oslash" unicode="&#xf8;" horiz-adv-x="1404" 
d="M1280 1223l-166 -228q90 -80 139.5 -193.5t49.5 -242.5q0 -122 -44.5 -230t-122.5 -186.5t-190.5 -124t-243.5 -45.5q-153 0 -288 66l-105 -143h-182l164 227q-90 80 -139.5 193.5t-49.5 242.5q0 163 75.5 296t213 210.5t311.5 77.5q156 0 291 -66l105 146h182zM702 967
q-171 0 -285 -116t-114 -292q0 -168 105 -283l479 650q-84 41 -185 41zM702 152q171 0 286.5 115.5t115.5 291.5q0 166 -105 281l-477 -650q84 -38 180 -38z" />
    <glyph glyph-name="ugrave" unicode="&#xf9;" horiz-adv-x="1386" 
d="M584 1573l223 -320h-186l-265 301v19h228zM1006 451v665h196v-1116h-186v154q-69 -96 -175 -138.5t-220 -42.5q-203 0 -328 116t-125 310v717h197v-680q0 -131 77 -205.5t217 -74.5q154 0 250.5 84t96.5 211z" />
    <glyph glyph-name="uacute" unicode="&#xfa;" horiz-adv-x="1386" 
d="M1016 1581v-18l-283 -318h-188l243 336h228zM1006 451v665h196v-1116h-186v154q-69 -96 -175 -138.5t-220 -42.5q-203 0 -328 116t-125 310v717h197v-680q0 -131 77 -205.5t217 -74.5q154 0 250.5 84t96.5 211z" />
    <glyph glyph-name="ucircumflex" unicode="&#xfb;" horiz-adv-x="1386" 
d="M866 1253l-180 201l-182 -201h-176l252 328h211l253 -328h-178zM1006 451v665h196v-1116h-186v154q-69 -96 -175 -138.5t-220 -42.5q-203 0 -328 116t-125 310v717h197v-680q0 -131 77 -205.5t217 -74.5q154 0 250.5 84t96.5 211z" />
    <glyph glyph-name="udieresis" unicode="&#xfc;" horiz-adv-x="1386" 
d="M457 1284q-56 0 -92.5 34.5t-36.5 88.5t36.5 88.5t92.5 34.5t92.5 -34.5t36.5 -88.5t-36.5 -88.5t-92.5 -34.5zM913 1284q-56 0 -92.5 34.5t-36.5 88.5t36.5 88.5t92.5 34.5t92.5 -34.5t36.5 -88.5t-36.5 -88.5t-92.5 -34.5zM1006 451v665h196v-1116h-186v154
q-69 -96 -175 -138.5t-220 -42.5q-203 0 -328 116t-125 310v717h197v-680q0 -131 77 -205.5t217 -74.5q154 0 250.5 84t96.5 211z" />
    <glyph glyph-name="yacute" unicode="&#xfd;" horiz-adv-x="1269" 
d="M965 1581v-18l-283 -318h-188l243 336h228zM641 219l383 897h213l-565 -1253q-114 -252 -365 -252q-133 0 -246 55l58 164q98 -45 180 -45q141 0 209 147l35 76l-510 1108h219z" />
    <glyph glyph-name="thorn" unicode="&#xfe;" horiz-adv-x="1474" 
d="M801 1143q163 0 293.5 -77t203 -210.5t72.5 -296.5q0 -164 -72.5 -297.5t-203 -211t-293.5 -77.5q-134 0 -241.5 52.5t-178.5 146.5v-541h-197v1909h197v-596q71 94 178.5 146.5t241.5 52.5zM778 154q170 0 280.5 114t110.5 291q0 175 -110.5 289.5t-280.5 114.5
t-286.5 -112.5t-116.5 -291.5q0 -180 116.5 -292.5t286.5 -112.5z" />
    <glyph glyph-name="ydieresis" unicode="&#xff;" horiz-adv-x="1269" 
d="M406 1284q-56 0 -93 34.5t-37 88.5t37 88.5t93 34.5t92.5 -34.5t36.5 -88.5t-36.5 -88.5t-92.5 -34.5zM862 1284q-56 0 -92.5 34.5t-36.5 88.5t36.5 88.5t92.5 34.5t92.5 -34.5t36.5 -88.5t-36.5 -88.5t-92.5 -34.5zM641 219l383 897h213l-565 -1253q-114 -252 -365 -252
q-133 0 -246 55l58 164q98 -45 180 -45q141 0 209 147l35 76l-510 1108h219z" />
    <glyph glyph-name="Amacron" unicode="&#x100;" 
d="M453 1819h655v-154h-655v154zM1524 0h-219l-158 393h-735l-160 -393h-215l618 1475h252zM780 1300l-297 -731h592z" />
    <glyph glyph-name="amacron" unicode="&#x101;" horiz-adv-x="1325" 
d="M311 1460h656v-153h-656v153zM1231 162q34 0 57 10v-164q-37 -16 -96 -16q-93 0 -161 47t-79 137q-67 -99 -183.5 -150t-252.5 -51q-121 0 -218.5 37.5t-158.5 117t-61 189.5q0 168 144.5 263.5t428.5 95.5h295v14q0 129 -87 201t-234 72q-95 0 -189 -30.5t-164 -88.5
l-108 143q88 76 213 114t256 38q232 0 369 -117t137 -322v-450q0 -90 92 -90zM532 145q56 0 109.5 11t107.5 38.5t95 68.5t69 106t33 147h-291q-381 0 -381 -190q0 -85 70.5 -133t187.5 -48z" />
    <glyph glyph-name="Abreve" unicode="&#x102;" 
d="M780 1599q-149 0 -243.5 93t-94.5 247h144q1 -86 56.5 -138t137.5 -52t138 52t57 138h145q0 -154 -95.5 -247t-244.5 -93zM1524 0h-219l-158 393h-735l-160 -393h-215l618 1475h252zM780 1300l-297 -731h592z" />
    <glyph glyph-name="abreve" unicode="&#x103;" horiz-adv-x="1325" 
d="M639 1241q-149 0 -243.5 93t-94.5 247h143q1 -86 57 -138t138 -52t138 52t57 138h145q0 -154 -95.5 -247t-244.5 -93zM1231 162q34 0 57 10v-164q-37 -16 -96 -16q-93 0 -161 47t-79 137q-67 -99 -183.5 -150t-252.5 -51q-121 0 -218.5 37.5t-158.5 117t-61 189.5
q0 168 144.5 263.5t428.5 95.5h295v14q0 129 -87 201t-234 72q-95 0 -189 -30.5t-164 -88.5l-108 143q88 76 213 114t256 38q232 0 369 -117t137 -322v-450q0 -90 92 -90zM532 145q56 0 109.5 11t107.5 38.5t95 68.5t69 106t33 147h-291q-381 0 -381 -190q0 -85 70.5 -133
t187.5 -48z" />
    <glyph glyph-name="Aogonek" unicode="&#x104;" 
d="M1290 -258q75 0 140 47l61 -117q-87 -73 -227 -73q-109 0 -176.5 53t-67.5 145q0 47 22.5 94.5t83 97.5t152.5 81l-129 321h-739l-160 -391h-213l618 1475h252l613 -1463q-96 -21 -163.5 -46.5t-101.5 -51.5t-48.5 -48.5t-14.5 -45.5q0 -36 28 -57t70 -21zM780 1300
l-297 -731h594z" />
    <glyph glyph-name="aogonek" unicode="&#x105;" horiz-adv-x="1325" 
d="M1233 -211l61 -117q-85 -73 -229 -73q-105 0 -175.5 49.5t-70.5 142.5q0 67 54.5 130t170.5 110q-78 48 -92 145q-68 -102 -184.5 -151.5t-251.5 -49.5q-119 0 -217 37.5t-159.5 115.5t-61.5 185q0 172 160.5 268.5t463.5 96.5h244v12q0 129 -87 202t-234 73
q-95 0 -189 -30.5t-164 -88.5l-108 143q88 76 213 114t256 38q232 0 369 -117t137 -322v-450q0 -90 92 -90q35 0 57 10v-166q-172 -56 -234.5 -101t-62.5 -87q0 -36 29.5 -56t75.5 -20q72 0 137 47zM532 147q56 0 109.5 11t107.5 38t95 68t69 106t33 146h-241
q-225 0 -328 -53.5t-103 -143.5q0 -79 71 -125.5t187 -46.5z" />
    <glyph glyph-name="Cacute" unicode="&#x106;" horiz-adv-x="1558" 
d="M1208 1939v-18l-282 -317h-189l244 335h227zM932 -27q-232 0 -419 99t-292.5 274t-105.5 391t105.5 391t290 274t411.5 99q168 0 315.5 -54t239.5 -155l-131 -143q-169 166 -424 166q-162 0 -298 -74.5t-216 -207.5t-80 -296t79 -295.5t217.5 -207t307.5 -74.5
q121 0 232 40t192 122l133 -142q-96 -105 -243.5 -156t-313.5 -51z" />
    <glyph glyph-name="cacute" unicode="&#x107;" horiz-adv-x="1226" 
d="M1012 1581v-18l-283 -318h-188l243 336h228zM729 -27q-279 0 -454 166t-175 418q0 166 79.5 300t223 210t324.5 76q259 0 426 -160l-119 -143q-128 125 -311 125q-176 0 -299 -113.5t-123 -292.5q0 -180 123.5 -292.5t302.5 -112.5q94 0 177 31.5t138 88.5l119 -139
q-69 -76 -181 -119t-251 -43z" />
    <glyph glyph-name="Ccircumflex" unicode="&#x108;" horiz-adv-x="1558" 
d="M1059 1612l-180 200l-183 -200h-176l252 327h211l254 -327h-178zM1356 322l133 -142q-96 -105 -243.5 -156t-313.5 -51q-232 0 -419 99t-292.5 274t-105.5 391t105.5 391t290 274t411.5 99q168 0 315.5 -54t239.5 -155l-131 -143q-169 166 -424 166q-162 0 -298 -74.5
t-216 -207.5t-80 -296t79 -295.5t217.5 -207t307.5 -74.5q121 0 232 40t192 122z" />
    <glyph glyph-name="ccircumflex" unicode="&#x109;" horiz-adv-x="1226" 
d="M862 1253l-180 201l-182 -201h-176l251 328h211l254 -328h-178zM1042 274l119 -139q-69 -76 -181 -119t-251 -43q-279 0 -454 166t-175 418q0 166 79.5 300t223 210t324.5 76q259 0 426 -160l-119 -143q-128 125 -311 125q-176 0 -299 -113.5t-123 -292.5
q0 -180 123.5 -292.5t302.5 -112.5q94 0 177 31.5t138 88.5z" />
    <glyph glyph-name="Cdotaccent" unicode="&#x10a;" horiz-adv-x="1558" 
d="M879 1642q-56 0 -92.5 34.5t-36.5 88.5t36.5 88.5t92.5 34.5t92.5 -34.5t36.5 -88.5t-36.5 -88.5t-92.5 -34.5zM932 -27q-232 0 -419 99t-292.5 274t-105.5 391t105.5 391t290 274t411.5 99q168 0 315.5 -54t239.5 -155l-131 -143q-169 166 -424 166q-162 0 -298 -74.5
t-216 -207.5t-80 -296t79 -295.5t217.5 -207t307.5 -74.5q121 0 232 40t192 122l133 -142q-96 -105 -243.5 -156t-313.5 -51z" />
    <glyph glyph-name="cdotaccent" unicode="&#x10b;" horiz-adv-x="1226" 
d="M682 1284q-56 0 -92.5 34.5t-36.5 88.5t36.5 88.5t92.5 34.5t92.5 -34.5t36.5 -88.5t-36.5 -88.5t-92.5 -34.5zM729 -27q-279 0 -454 166t-175 418q0 166 79.5 300t223 210t324.5 76q259 0 426 -160l-119 -143q-128 125 -311 125q-176 0 -299 -113.5t-123 -292.5
q0 -180 123.5 -292.5t302.5 -112.5q94 0 177 31.5t138 88.5l119 -139q-69 -76 -181 -119t-251 -43z" />
    <glyph glyph-name="Ccaron" unicode="&#x10c;" horiz-adv-x="1558" 
d="M1237 1939l-254 -327h-211l-252 327h176l183 -200l180 200h178zM1356 322l133 -142q-96 -105 -243.5 -156t-313.5 -51q-232 0 -419 99t-292.5 274t-105.5 391t105.5 391t290 274t411.5 99q168 0 315.5 -54t239.5 -155l-131 -143q-169 166 -424 166q-162 0 -298 -74.5
t-216 -207.5t-80 -296t79 -295.5t217.5 -207t307.5 -74.5q121 0 232 40t192 122z" />
    <glyph glyph-name="ccaron" unicode="&#x10d;" horiz-adv-x="1226" 
d="M1040 1581l-254 -328h-211l-251 328h176l182 -201l180 201h178zM1042 274l119 -139q-69 -76 -181 -119t-251 -43q-279 0 -454 166t-175 418q0 166 79.5 300t223 210t324.5 76q259 0 426 -160l-119 -143q-128 125 -311 125q-176 0 -299 -113.5t-123 -292.5
q0 -180 123.5 -292.5t302.5 -112.5q94 0 177 31.5t138 88.5z" />
    <glyph glyph-name="Dcaron" unicode="&#x10e;" horiz-adv-x="1683" 
d="M1200 1939l-254 -327h-211l-252 327h176l183 -200l180 200h178zM797 1475q176 0 321.5 -55.5t243 -153.5t150.5 -234t53 -295t-53 -294.5t-150.5 -233.5t-243 -153.5t-321.5 -55.5h-592v1475h592zM410 182h385q258 0 407.5 153t149.5 402t-149.5 402t-407.5 153h-385
v-1110z" />
    <glyph glyph-name="dcaron" unicode="&#x10f;" horiz-adv-x="1529" 
d="M1094 944v596h196v-1540h-186v186q-71 -100 -181 -156.5t-249 -56.5q-163 0 -294 77.5t-203.5 211t-72.5 297.5q0 163 72.5 296.5t203.5 210.5t294 77q134 0 241.5 -52.5t178.5 -146.5zM1374 1090l60 450h182l-107 -450h-135zM696 154q170 0 287 112.5t117 292.5
q0 179 -117 291.5t-287 112.5t-280.5 -114.5t-110.5 -289.5q0 -177 110.5 -291t280.5 -114z" />
    <glyph glyph-name="Dcroat" unicode="&#x110;" horiz-adv-x="1716" 
d="M829 1475q176 0 321.5 -55.5t243 -153.5t150.5 -234t53 -295t-53 -294.5t-150.5 -233.5t-243 -153.5t-321.5 -55.5h-591v690h-175v178h175v607h591zM442 182h385q258 0 407.5 153t149.5 402t-149.5 402t-407.5 153h-385v-424h539v-178h-539v-508z" />
    <glyph glyph-name="dcroat" unicode="&#x111;" horiz-adv-x="1476" 
d="M1292 1391h170v-146h-170v-1245h-186v193q-71 -103 -181.5 -161.5t-250.5 -58.5q-167 0 -298 77.5t-201.5 209.5t-70.5 295q0 162 70.5 293.5t201.5 209t298 77.5q135 0 243 -54.5t179 -150.5v315h-410v146h410v149h196v-149zM696 154q171 0 287.5 111.5t116.5 289.5
q0 177 -116.5 288t-287.5 111q-170 0 -280.5 -113.5t-110.5 -285.5q0 -174 110.5 -287.5t280.5 -113.5z" />
    <glyph glyph-name="Emacron" unicode="&#x112;" horiz-adv-x="1447" 
d="M442 1819h656v-154h-656v154zM410 180h929l37 -180h-1171v1475h1151l-37 -181h-909v-432h624v-182h-624v-500z" />
    <glyph glyph-name="emacron" unicode="&#x113;" horiz-adv-x="1353" 
d="M358 1460h656v-153h-656v153zM1262 555q0 -29 -9 -72h-948q23 -154 135 -243.5t285 -89.5q215 0 348 133l117 -136q-70 -78 -189.5 -126t-277.5 -48q-282 0 -451.5 165.5t-169.5 420.5q0 162 72 295t206 211t304 78q130 0 240 -46.5t183 -126t114 -187t41 -228.5z
M684 967q-148 0 -250.5 -86.5t-128.5 -235.5h758q-21 142 -123 232t-256 90z" />
    <glyph glyph-name="Ebreve" unicode="&#x114;" horiz-adv-x="1447" 
d="M770 1599q-149 0 -243.5 93t-94.5 247h143q1 -86 57 -138t138 -52t138 52t57 138h145q0 -154 -95.5 -247t-244.5 -93zM410 180h929l37 -180h-1171v1475h1151l-37 -181h-909v-432h624v-182h-624v-500z" />
    <glyph glyph-name="ebreve" unicode="&#x115;" horiz-adv-x="1353" 
d="M686 1241q-149 0 -243.5 93t-94.5 247h144q1 -86 56.5 -138t137.5 -52t138 52t57 138h145q0 -154 -95.5 -247t-244.5 -93zM1262 555q0 -29 -9 -72h-948q23 -154 135 -243.5t285 -89.5q215 0 348 133l117 -136q-70 -78 -189.5 -126t-277.5 -48q-282 0 -451.5 165.5
t-169.5 420.5q0 162 72 295t206 211t304 78q130 0 240 -46.5t183 -126t114 -187t41 -228.5zM684 967q-148 0 -250.5 -86.5t-128.5 -235.5h758q-21 142 -123 232t-256 90z" />
    <glyph glyph-name="Edotaccent" unicode="&#x116;" horiz-adv-x="1447" 
d="M770 1642q-56 0 -92.5 34.5t-36.5 88.5t36.5 88.5t92.5 34.5t92.5 -34.5t36.5 -88.5t-36.5 -88.5t-92.5 -34.5zM410 180h929l37 -180h-1171v1475h1151l-37 -181h-909v-432h624v-182h-624v-500z" />
    <glyph glyph-name="edotaccent" unicode="&#x117;" horiz-adv-x="1353" 
d="M686 1284q-56 0 -92.5 34.5t-36.5 88.5t36.5 88.5t92.5 34.5t92.5 -34.5t36.5 -88.5t-36.5 -88.5t-92.5 -34.5zM1262 555q0 -29 -9 -72h-948q23 -154 135 -243.5t285 -89.5q215 0 348 133l117 -136q-70 -78 -189.5 -126t-277.5 -48q-282 0 -451.5 165.5t-169.5 420.5
q0 162 72 295t206 211t304 78q130 0 240 -46.5t183 -126t114 -187t41 -228.5zM684 967q-148 0 -250.5 -86.5t-128.5 -235.5h758q-21 142 -123 232t-256 90z" />
    <glyph glyph-name="Eogonek" unicode="&#x118;" horiz-adv-x="1447" 
d="M1126 -258q75 0 140 47l63 -117q-87 -73 -227 -73q-106 0 -173 51.5t-67 140.5q0 54 33 110.5t104 98.5h-794v1475h1151l-37 -181h-909v-432h632v-182h-632v-500h929l35 -172l-22 -2q-149 -13 -233.5 -70t-84.5 -118q0 -36 26 -56t66 -20z" />
    <glyph glyph-name="eogonek" unicode="&#x119;" horiz-adv-x="1351" 
d="M1262 555q0 -23 -7 -70h-950q22 -154 134.5 -244.5t285.5 -90.5q209 -5 352 131l113 -134q-31 -36 -84.5 -71t-103.5 -61t-97 -54t-75.5 -63t-28.5 -76q0 -37 31 -58.5t77 -21.5q70 0 135 47l62 -117q-85 -73 -227 -73q-106 0 -178 50t-72 146q0 97 102 178h-8
q-282 0 -451.5 165.5t-169.5 420.5q0 162 72 295t206 211t304 78q130 0 240 -46.5t183 -126t114 -187t41 -228.5zM684 967q-148 0 -251 -87.5t-128 -236.5h758q-21 142 -123 233t-256 91z" />
    <glyph glyph-name="Ecaron" unicode="&#x11a;" horiz-adv-x="1447" 
d="M1128 1939l-254 -327h-210l-252 327h176l182 -200l180 200h178zM410 180h929l37 -180h-1171v1475h1151l-37 -181h-909v-432h624v-182h-624v-500z" />
    <glyph glyph-name="ecaron" unicode="&#x11b;" horiz-adv-x="1353" 
d="M1044 1581l-253 -328h-211l-252 328h176l182 -201l180 201h178zM1262 555q0 -29 -9 -72h-948q23 -154 135 -243.5t285 -89.5q215 0 348 133l117 -136q-70 -78 -189.5 -126t-277.5 -48q-282 0 -451.5 165.5t-169.5 420.5q0 162 72 295t206 211t304 78q130 0 240 -46.5
t183 -126t114 -187t41 -228.5zM684 967q-148 0 -250.5 -86.5t-128.5 -235.5h758q-21 142 -123 232t-256 90z" />
    <glyph glyph-name="Gcircumflex" unicode="&#x11c;" horiz-adv-x="1689" 
d="M1079 1612l-180 200l-182 -200h-176l252 327h211l253 -327h-178zM1550 825v-673q-217 -179 -602 -179q-239 0 -429 98t-296 272t-106 392q0 220 105.5 395t291 273t416.5 98q181 0 328 -52t243 -142l-121 -150q-78 70 -193.5 114t-256.5 44q-168 0 -305 -73.5t-216 -206
t-79 -298.5q0 -253 175 -415t449 -162q128 0 219 21t175 71v393h-459v180h661z" />
    <glyph glyph-name="gcircumflex" unicode="&#x11d;" horiz-adv-x="1456" 
d="M905 1253l-180 201l-182 -201h-176l251 328h211l254 -328h-178zM1090 936v180h186v-1012q0 -225 -163.5 -359t-428.5 -134q-268 0 -475 106l74 166q189 -98 399 -98q178 0 287.5 87t109.5 239v127q-69 -90 -173 -139.5t-236 -49.5q-248 0 -404.5 154.5t-156.5 390.5
q0 235 157 392t404 157q137 0 243.5 -55t176.5 -152zM688 227q168 0 280.5 99.5t112.5 267.5q0 166 -113 268.5t-280 102.5q-165 0 -273 -104t-108 -267q0 -164 107.5 -265.5t273.5 -101.5z" />
    <glyph glyph-name="Gbreve" unicode="&#x11e;" horiz-adv-x="1689" 
d="M899 1599q-149 0 -243.5 93t-94.5 247h144q1 -86 56.5 -138t137.5 -52t138 52t57 138h145q0 -154 -95.5 -247t-244.5 -93zM1550 825v-673q-217 -179 -602 -179q-239 0 -429 98t-296 272t-106 392q0 220 105.5 395t291 273t416.5 98q181 0 328 -52t243 -142l-121 -150
q-78 70 -193.5 114t-256.5 44q-168 0 -305 -73.5t-216 -206t-79 -298.5q0 -253 175 -415t449 -162q128 0 219 21t175 71v393h-459v180h661z" />
    <glyph glyph-name="gbreve" unicode="&#x11f;" horiz-adv-x="1456" 
d="M725 1241q-149 0 -243.5 93t-94.5 247h143q1 -86 57 -138t138 -52t138 52t57 138h145q0 -154 -95.5 -247t-244.5 -93zM1090 936v180h186v-1012q0 -225 -163.5 -359t-428.5 -134q-268 0 -475 106l74 166q189 -98 399 -98q178 0 287.5 87t109.5 239v127
q-69 -90 -173 -139.5t-236 -49.5q-248 0 -404.5 154.5t-156.5 390.5q0 235 157 392t404 157q137 0 243.5 -55t176.5 -152zM688 227q168 0 280.5 99.5t112.5 267.5q0 166 -113 268.5t-280 102.5q-165 0 -273 -104t-108 -267q0 -164 107.5 -265.5t273.5 -101.5z" />
    <glyph glyph-name="Gdotaccent" unicode="&#x120;" horiz-adv-x="1689" 
d="M899 1642q-56 0 -92.5 34.5t-36.5 88.5t36.5 88.5t92.5 34.5t92.5 -34.5t36.5 -88.5t-36.5 -88.5t-92.5 -34.5zM1550 825v-673q-217 -179 -602 -179q-239 0 -429 98t-296 272t-106 392q0 220 105.5 395t291 273t416.5 98q181 0 328 -52t243 -142l-121 -150
q-78 70 -193.5 114t-256.5 44q-168 0 -305 -73.5t-216 -206t-79 -298.5q0 -253 175 -415t449 -162q128 0 219 21t175 71v393h-459v180h661z" />
    <glyph glyph-name="gdotaccent" unicode="&#x121;" horiz-adv-x="1456" 
d="M725 1284q-56 0 -92.5 34.5t-36.5 88.5t36.5 88.5t92.5 34.5t92.5 -34.5t36.5 -88.5t-36.5 -88.5t-92.5 -34.5zM1090 936v180h186v-1012q0 -225 -163.5 -359t-428.5 -134q-268 0 -475 106l74 166q189 -98 399 -98q178 0 287.5 87t109.5 239v127q-69 -90 -173 -139.5
t-236 -49.5q-248 0 -404.5 154.5t-156.5 390.5q0 235 157 392t404 157q137 0 243.5 -55t176.5 -152zM688 227q168 0 280.5 99.5t112.5 267.5q0 166 -113 268.5t-280 102.5q-165 0 -273 -104t-108 -267q0 -164 107.5 -265.5t273.5 -101.5z" />
    <glyph glyph-name="uni0122" unicode="&#x122;" horiz-adv-x="1689" 
d="M1550 825v-673q-217 -179 -602 -179q-239 0 -429 98t-296 272t-106 392q0 220 105.5 395t291 273t416.5 98q181 0 328 -52t243 -142l-121 -150q-78 70 -193.5 114t-256.5 44q-168 0 -305 -73.5t-216 -206t-79 -298.5q0 -253 175 -415t449 -162q128 0 219 21t175 71v393
h-459v180h661zM887 -436h-139l75 315h217z" />
    <glyph glyph-name="uni0123" unicode="&#x123;" horiz-adv-x="1456" 
d="M737 1581h140l-74 -336h-217zM1090 936v180h186v-1012q0 -225 -163.5 -359t-428.5 -134q-268 0 -475 106l74 166q189 -98 399 -98q178 0 287.5 87t109.5 239v127q-69 -90 -173 -139.5t-236 -49.5q-248 0 -404.5 154.5t-156.5 390.5q0 235 157 392t404 157
q137 0 243.5 -55t176.5 -152zM688 227q168 0 280.5 99.5t112.5 267.5q0 166 -113 268.5t-280 102.5q-165 0 -273 -104t-108 -267q0 -164 107.5 -265.5t273.5 -101.5z" />
    <glyph glyph-name="Hcircumflex" unicode="&#x124;" horiz-adv-x="1740" 
d="M1051 1612l-181 200l-182 -200h-176l252 327h211l254 -327h-178zM1331 881v594h205v-1475h-205v698h-921v-698h-205v1475h205v-594h921z" />
    <glyph glyph-name="hcircumflex" unicode="&#x125;" horiz-adv-x="1396" 
d="M641 1587h-178l-180 201l-183 -201h-176l252 328h211zM768 1143q208 0 333.5 -116t125.5 -310v-717h-197v678q0 132 -78 207.5t-221 75.5q-156 0 -253 -84.5t-97 -212.5v-664h-197v1540h197v-571q69 90 171.5 132t215.5 42z" />
    <glyph glyph-name="Hbar" unicode="&#x126;" horiz-adv-x="1826" 
d="M1581 1239h178v-164h-178v-1075h-205v674h-925v-674h-205v1075h-178v164h178v236h205v-236h925v236h205v-236zM451 856h925v219h-925v-219z" />
    <glyph glyph-name="hbar" unicode="&#x127;" horiz-adv-x="1396" 
d="M768 1130q208 0 333.5 -115t125.5 -308v-707h-197v670q0 132 -77.5 205t-221.5 73q-156 0 -253 -82.5t-97 -210.5v-655h-197v1245h-170v146h170v149h197v-149h410v-146h-410v-287q69 90 171 131t216 41z" />
    <glyph glyph-name="Itilde" unicode="&#x128;" horiz-adv-x="614" 
d="M432 1616q-48 0 -84 16.5t-56.5 40.5t-38 48t-37.5 40.5t-44 16.5q-41 0 -65 -39t-29 -113h-139q3 138 63.5 219.5t173.5 81.5q48 0 84 -17t57 -41t38.5 -48t37 -41t43.5 -17q42 0 66.5 39.5t27.5 112.5h142q-3 -138 -64 -218.5t-176 -80.5zM205 0v1475h205v-1475h-205z
" />
    <glyph glyph-name="itilde" unicode="&#x129;" horiz-adv-x="565" 
d="M408 1257q-48 0 -84 16.5t-57 40.5t-38 48t-37.5 40.5t-44.5 16.5q-85 0 -94 -151h-139q3 138 63.5 219.5t174.5 81.5q48 0 84 -17t57 -41t38.5 -48t37 -41t43.5 -17q42 0 66.5 39t27.5 112h141q-3 -138 -63.5 -218.5t-175.5 -80.5zM381 0h-197v1116h197v-1116z" />
    <glyph glyph-name="Imacron" unicode="&#x12a;" horiz-adv-x="614" 
d="M635 1665h-655v154h655v-154zM205 0v1475h205v-1475h-205z" />
    <glyph glyph-name="imacron" unicode="&#x12b;" horiz-adv-x="565" 
d="M528 1311h-499v153h499v-153zM381 0h-197v1116h197v-1116z" />
    <glyph glyph-name="Ibreve" unicode="&#x12c;" horiz-adv-x="614" 
d="M307 1599q-149 0 -243.5 93t-94.5 247h144q1 -86 56.5 -138t137.5 -52t138 52t57 138h145q0 -154 -95.5 -247t-244.5 -93zM205 0v1475h205v-1475h-205z" />
    <glyph glyph-name="ibreve" unicode="&#x12d;" horiz-adv-x="565" 
d="M283 1241q-149 0 -243.5 93t-94.5 247h143q1 -86 57 -138t138 -52t137.5 52t56.5 138h146q0 -154 -95.5 -247t-244.5 -93zM381 0h-197v1116h197v-1116z" />
    <glyph glyph-name="Iogonek" unicode="&#x12e;" horiz-adv-x="616" 
d="M453 -215l61 -117q-79 -69 -221 -69q-102 0 -170 50t-68 144q0 66 39.5 126t112.5 104v1452h205v-1475q-107 -50 -146 -92t-39 -88q0 -36 27.5 -57t71.5 -21q66 0 127 43z" />
    <glyph glyph-name="iogonek" unicode="&#x12f;" horiz-adv-x="567" 
d="M285 1284q-56 0 -92.5 34.5t-36.5 88.5t36.5 88.5t92.5 34.5t92.5 -34.5t36.5 -88.5t-36.5 -88.5t-92.5 -34.5zM424 -215l61 -117q-79 -69 -221 -69q-101 0 -169 50t-68 144q0 68 41.5 129t117.5 107v1087h197v-1116q-106 -50 -145 -92t-39 -88q0 -36 27 -57t71 -21
q66 0 127 43z" />
    <glyph glyph-name="Idotaccent" unicode="&#x130;" horiz-adv-x="614" 
d="M307 1642q-56 0 -92.5 34.5t-36.5 88.5t36.5 88.5t92.5 34.5t92.5 -34.5t36.5 -88.5t-36.5 -88.5t-92.5 -34.5zM205 0v1475h205v-1475h-205z" />
    <glyph glyph-name="dotlessi" unicode="&#x131;" horiz-adv-x="565" 
d="M381 0h-197v1116h197v-1116z" />
    <glyph glyph-name="Jcircumflex" unicode="&#x134;" horiz-adv-x="1255" 
d="M858 1939h211l254 -327h-178l-180 200l-183 -200h-176zM858 459v1016h205v-1020q0 -224 -137 -353t-357 -129q-144 0 -253.5 54.5t-175 168t-66.5 273.5h200q3 -86 28 -148t67.5 -96t91 -49.5t106.5 -15.5q134 0 212.5 78t78.5 221z" />
    <glyph glyph-name="jcircumflex" unicode="&#x135;" horiz-adv-x="581" 
d="M193 1581h210l254 -328h-178l-180 201l-182 -201h-176zM201 -68v1184h196v-1202q0 -138 -84.5 -218.5t-230.5 -80.5q-73 0 -135 20v172q47 -18 98 -18q73 0 114.5 38.5t41.5 104.5z" />
    <glyph glyph-name="uni0136" unicode="&#x136;" horiz-adv-x="1583" 
d="M1530 1475l-606 -576l645 -899h-250l-541 760l-368 -350v-410h-205v1475h205v-816l862 816h258zM776 -436h-139l76 315h217z" />
    <glyph glyph-name="uni0137" unicode="&#x137;" horiz-adv-x="1316" 
d="M1280 1116l-492 -444l529 -672h-242l-426 545l-268 -244v-301h-197v1540h197v-1016l649 592h250zM623 -436h-140l76 315h217z" />
    <glyph glyph-name="kgreenlandic" unicode="&#x138;" horiz-adv-x="1316" 
d="M1317 0h-242l-426 545l-268 -244v-301h-197v1116h197v-592l649 592h250l-492 -444z" />
    <glyph glyph-name="Lacute" unicode="&#x139;" horiz-adv-x="1372" 
d="M637 1939v-18l-283 -317h-188l244 335h227zM410 1475v-1291h895v-184h-1100v1475h205z" />
    <glyph glyph-name="lacute" unicode="&#x13a;" horiz-adv-x="638" 
d="M618 2005v-18l-282 -318h-189l244 336h227zM184 231v1309h197v-1270q0 -53 29 -78.5t79 -25.5q41 0 91 18v-178q-56 -22 -127 -22q-123 0 -196 65.5t-73 181.5z" />
    <glyph glyph-name="uni013B" unicode="&#x13b;" horiz-adv-x="1372" 
d="M410 1475v-1291h895v-184h-1100v1475h205zM741 -436h-139l76 315h217z" />
    <glyph glyph-name="uni013C" unicode="&#x13c;" horiz-adv-x="638" 
d="M184 231v1309h197v-1270q0 -53 29 -78.5t79 -25.5q41 0 91 18v-178q-56 -22 -127 -22q-123 0 -196 65.5t-73 181.5zM362 -436h-139l76 315h217z" />
    <glyph glyph-name="Lcaron" unicode="&#x13d;" horiz-adv-x="1372" 
d="M725 1540h182l-106 -450h-135zM410 1475v-1291h895v-184h-1100v1475h205z" />
    <glyph glyph-name="lcaron" unicode="&#x13e;" horiz-adv-x="679" 
d="M184 231v1309h197v-1270q0 -53 29 -78.5t79 -25.5q41 0 91 18v-178q-56 -22 -127 -22q-123 0 -196 65.5t-73 181.5zM496 1090l59 450h182l-106 -450h-135z" />
    <glyph glyph-name="Ldot" unicode="&#x13f;" horiz-adv-x="1378" 
d="M410 1475v-1291h895v-184h-1100v1475h205zM1022 713q-60 0 -96.5 37t-36.5 96t36.5 96t96.5 37t96.5 -37t36.5 -96t-36.5 -96t-96.5 -37z" />
    <glyph glyph-name="ldot" unicode="&#x140;" horiz-adv-x="745" 
d="M184 231v1309h197v-1270q0 -53 29 -78.5t79 -25.5q41 0 91 18v-178q-56 -22 -127 -22q-123 0 -196 65.5t-73 181.5zM637 664q-60 0 -96.5 37t-36.5 96t36.5 96t96.5 37t96.5 -37t36.5 -96t-36.5 -96t-96.5 -37z" />
    <glyph glyph-name="Lslash" unicode="&#x141;" horiz-adv-x="1449" 
d="M485 612v-428h895v-184h-1099v516l-179 -86v188l179 87v770h204v-674l527 252v-189z" />
    <glyph glyph-name="lslash" unicode="&#x142;" horiz-adv-x="813" 
d="M721 1069v-170l-242 -145v-484q0 -53 29.5 -78.5t79.5 -25.5q40 0 90 18v-178q-56 -22 -127 -22q-123 0 -195.5 65.5t-72.5 181.5v404l-185 -111h-14v170l199 119v727h196v-608l228 137h14z" />
    <glyph glyph-name="Nacute" unicode="&#x143;" horiz-adv-x="1703" 
d="M1186 1939v-18l-283 -317h-188l243 335h228zM1300 297v1178h199v-1475h-213l-883 1186v-1186h-198v1475h219z" />
    <glyph glyph-name="nacute" unicode="&#x144;" horiz-adv-x="1396" 
d="M1038 1581v-18l-282 -318h-189l244 336h227zM768 1143q208 0 333.5 -116t125.5 -310v-717h-197v680q0 132 -78 206.5t-221 74.5q-156 0 -253 -83.5t-97 -211.5v-666h-197v1116h187v-153q69 94 174 137t223 43z" />
    <glyph glyph-name="uni0145" unicode="&#x145;" horiz-adv-x="1703" 
d="M1300 297v1178h199v-1475h-213l-883 1186v-1186h-198v1475h219zM844 -436h-139l75 315h217z" />
    <glyph glyph-name="uni0146" unicode="&#x146;" horiz-adv-x="1396" 
d="M768 1143q208 0 333.5 -116t125.5 -310v-717h-197v680q0 132 -78 206.5t-221 74.5q-156 0 -253 -83.5t-97 -211.5v-666h-197v1116h187v-153q69 94 174 137t223 43zM696 -436h-139l76 315h217z" />
    <glyph glyph-name="Ncaron" unicode="&#x147;" horiz-adv-x="1703" 
d="M1214 1939l-253 -327h-211l-252 327h176l182 -200l180 200h178zM1300 297v1178h199v-1475h-213l-883 1186v-1186h-198v1475h219z" />
    <glyph glyph-name="ncaron" unicode="&#x148;" horiz-adv-x="1396" 
d="M1067 1581l-254 -328h-211l-252 328h176l183 -201l180 201h178zM768 1143q208 0 333.5 -116t125.5 -310v-717h-197v680q0 132 -78 206.5t-221 74.5q-156 0 -253 -83.5t-97 -211.5v-666h-197v1116h187v-153q69 94 174 137t223 43z" />
    <glyph glyph-name="Eng" unicode="&#x14a;" horiz-adv-x="1703" 
d="M1300 307v1168h199v-1504q0 -165 -102 -260.5t-277 -95.5q-85 0 -164 27v182q73 -27 148 -27q90 0 142 51t52 136v18l-895 1190v-1192h-198v1475h219z" />
    <glyph glyph-name="eng" unicode="&#x14b;" horiz-adv-x="1396" 
d="M768 1143q208 0 333.5 -116t125.5 -310v-803q0 -138 -85 -218.5t-231 -80.5q-73 0 -135 20v172q46 -18 98 -18q73 0 114.5 38.5t41.5 104.5v748q0 132 -78 206.5t-221 74.5q-156 0 -253 -83.5t-97 -211.5v-666h-197v1116h187v-153q69 94 174 137t223 43z" />
    <glyph glyph-name="Omacron" unicode="&#x14c;" horiz-adv-x="1781" 
d="M1219 1665h-656v154h656v-154zM891 -27q-223 0 -399.5 98t-275.5 272.5t-99 393.5t99 393.5t275.5 272.5t399.5 98t399.5 -98t275.5 -272.5t99 -393.5t-99 -393.5t-275.5 -272.5t-399.5 -98zM891 160q246 0 403.5 162t157.5 415t-157.5 415.5t-403.5 162.5t-403.5 -162.5
t-157.5 -415.5t157.5 -415t403.5 -162z" />
    <glyph glyph-name="omacron" unicode="&#x14d;" horiz-adv-x="1404" 
d="M1030 1307h-655v153h655v-153zM702 -27q-173 0 -311 78t-213.5 211.5t-75.5 296.5t75.5 296t213 210.5t311.5 77.5q130 0 242.5 -45.5t191 -123.5t123 -185.5t44.5 -229.5t-44.5 -230t-123 -186.5t-191 -124t-242.5 -45.5zM702 154q170 0 285 115.5t115 289.5t-115 289
t-285 115t-284.5 -115t-114.5 -289t114.5 -289.5t284.5 -115.5z" />
    <glyph glyph-name="Obreve" unicode="&#x14e;" horiz-adv-x="1781" 
d="M891 1599q-149 0 -243.5 93t-94.5 247h143q1 -86 57 -138t138 -52t137.5 52t56.5 138h146q0 -154 -95.5 -247t-244.5 -93zM891 -27q-223 0 -399.5 98t-275.5 272.5t-99 393.5t99 393.5t275.5 272.5t399.5 98t399.5 -98t275.5 -272.5t99 -393.5t-99 -393.5t-275.5 -272.5
t-399.5 -98zM891 160q246 0 403.5 162t157.5 415t-157.5 415.5t-403.5 162.5t-403.5 -162.5t-157.5 -415.5t157.5 -415t403.5 -162z" />
    <glyph glyph-name="obreve" unicode="&#x14f;" horiz-adv-x="1404" 
d="M702 1241q-148 0 -242.5 92.5t-94.5 247.5h143q1 -86 56.5 -138t137.5 -52t138 52t57 138h145q0 -154 -95.5 -247t-244.5 -93zM702 -27q-173 0 -311 78t-213.5 211.5t-75.5 296.5t75.5 296t213 210.5t311.5 77.5q130 0 242.5 -45.5t191 -123.5t123 -185.5t44.5 -229.5
t-44.5 -230t-123 -186.5t-191 -124t-242.5 -45.5zM702 154q170 0 285 115.5t115 289.5t-115 289t-285 115t-284.5 -115t-114.5 -289t114.5 -289.5t284.5 -115.5z" />
    <glyph glyph-name="Ohungarumlaut" unicode="&#x150;" horiz-adv-x="1781" 
d="M961 1939v-18l-187 -317h-158l148 335h197zM1321 1939v-18l-219 -317h-158l180 335h197zM891 -27q-223 0 -399.5 98t-275.5 272.5t-99 393.5t99 393.5t275.5 272.5t399.5 98t399.5 -98t275.5 -272.5t99 -393.5t-99 -393.5t-275.5 -272.5t-399.5 -98zM891 160
q246 0 403.5 162t157.5 415t-157.5 415.5t-403.5 162.5t-403.5 -162.5t-157.5 -415.5t157.5 -415t403.5 -162z" />
    <glyph glyph-name="ohungarumlaut" unicode="&#x151;" horiz-adv-x="1404" 
d="M772 1581v-18l-186 -318h-158l147 336h197zM1133 1581v-18l-220 -318h-157l180 336h197zM702 -27q-173 0 -311 78t-213.5 211.5t-75.5 296.5t75.5 296t213 210.5t311.5 77.5q130 0 242.5 -45.5t191 -123.5t123 -185.5t44.5 -229.5t-44.5 -230t-123 -186.5t-191 -124
t-242.5 -45.5zM702 154q170 0 285 115.5t115 289.5t-115 289t-285 115t-284.5 -115t-114.5 -289t114.5 -289.5t284.5 -115.5z" />
    <glyph glyph-name="OE" unicode="&#x152;" horiz-adv-x="2617" 
d="M1626 180h883l35 -180h-1117v264q-89 -139 -232 -215t-333 -76q-212 0 -382 98t-265.5 272.5t-95.5 393.5t95.5 393.5t265.5 272.5t382 98q190 0 333 -76t232 -215v265h1096l-35 -181h-862v-432h588v-182h-588v-500zM881 160q239 0 395 162.5t156 414.5
q0 166 -71.5 298.5t-197 206t-282.5 73.5t-282.5 -73.5t-197 -206t-71.5 -298.5q0 -252 156 -414.5t395 -162.5z" />
    <glyph glyph-name="oe" unicode="&#x153;" horiz-adv-x="2306" 
d="M2212 561q0 -33 -6 -80h-934q25 -155 137.5 -244.5t286.5 -89.5q199 0 336 134l116 -136q-70 -77 -184.5 -125.5t-267.5 -48.5q-191 0 -324.5 79t-200.5 218q-64 -138 -188.5 -216.5t-292.5 -78.5q-170 0 -305.5 78t-209 211.5t-73.5 296.5t73.5 296t208 210.5
t304.5 77.5t294 -78t187 -215q63 136 185 213.5t291 77.5q127 0 234.5 -46t180 -125t112.5 -184.5t40 -224.5zM1645 965q-146 0 -247 -87t-126 -235h741q-21 143 -120 232.5t-248 89.5zM692 154q164 0 275.5 115.5t111.5 289.5t-111.5 289t-275.5 115q-165 0 -277 -115
t-112 -289t112 -289.5t277 -115.5z" />
    <glyph glyph-name="Racute" unicode="&#x154;" horiz-adv-x="1595" 
d="M1108 1939v-18l-283 -317h-188l244 335h227zM1522 0h-244l-422 625h-448v-625h-203v1475h772q208 0 331.5 -120.5t123.5 -305.5q0 -156 -94 -270t-255 -144zM946 1292h-538v-487h538q130 0 204.5 67.5t74.5 176.5q0 110 -74.5 176.5t-204.5 66.5z" />
    <glyph glyph-name="racute" unicode="&#x155;" horiz-adv-x="903" 
d="M842 1581v-18l-283 -318h-188l243 336h228zM752 1133q59 0 112 -13v-184q-56 12 -114 12q-162 0 -265.5 -87.5t-103.5 -244.5v-616h-197v1116h187v-174q61 98 167 144.5t214 46.5z" />
    <glyph glyph-name="uni0156" unicode="&#x156;" horiz-adv-x="1595" 
d="M1083 635l439 -635h-244l-422 625h-448v-625h-203v1475h772q208 0 331.5 -120.5t123.5 -305.5q0 -156 -94 -270t-255 -144zM946 1292h-538v-487h538q130 0 204.5 67.5t74.5 176.5q0 110 -74.5 176.5t-204.5 66.5zM766 -436h-139l75 315h218z" />
    <glyph glyph-name="uni0157" unicode="&#x157;" horiz-adv-x="903" 
d="M752 1133q59 0 112 -13v-184q-56 12 -114 12q-162 0 -265.5 -87.5t-103.5 -244.5v-616h-197v1116h187v-174q61 98 167 144.5t214 46.5zM270 -436h-139l76 315h217z" />
    <glyph glyph-name="Rcaron" unicode="&#x158;" horiz-adv-x="1595" 
d="M1137 1939l-254 -327h-211l-252 327h176l182 -200l180 200h179zM1522 0h-244l-422 625h-448v-625h-203v1475h772q208 0 331.5 -120.5t123.5 -305.5q0 -156 -94 -270t-255 -144zM946 1292h-538v-487h538q130 0 204.5 67.5t74.5 176.5q0 110 -74.5 176.5t-204.5 66.5z" />
    <glyph glyph-name="rcaron" unicode="&#x159;" horiz-adv-x="903" 
d="M870 1581l-254 -328h-210l-252 328h176l182 -201l180 201h178zM371 1116v-174q61 98 167 144.5t214 46.5q59 0 112 -13v-184q-56 12 -114 12q-162 0 -265.5 -87.5t-103.5 -244.5v-616h-197v1116h187z" />
    <glyph glyph-name="Sacute" unicode="&#x15a;" horiz-adv-x="1460" 
d="M1061 1942v-19l-283 -317h-188l244 336h227zM750 -23q-187 0 -361.5 59.5t-290.5 162.5l129 155q110 -94 247.5 -143t277.5 -49q172 0 280.5 69.5t108.5 182.5q0 85 -69.5 140.5t-217.5 84.5l-311 59q-197 38 -298.5 134t-101.5 241q0 128 79 226t214.5 149t306.5 51
q158 0 307 -47.5t263 -151.5l-121 -149q-196 166 -457 166q-163 0 -274 -65.5t-111 -166.5q0 -72 66.5 -119.5t210.5 -74.5l299 -57q212 -40 317 -147.5t105 -262.5q0 -201 -162.5 -324t-435.5 -123z" />
    <glyph glyph-name="sacute" unicode="&#x15b;" horiz-adv-x="1212" 
d="M946 1581v-18l-282 -318h-189l244 336h227zM86 147l102 154q80 -64 197 -106.5t242 -42.5q129 0 206.5 46t77.5 119q0 53 -42 84t-124 45l-296 54q-164 30 -244 107t-80 190q0 153 131 247.5t354 94.5q285 0 480 -150l-105 -145q-72 57 -176.5 92t-210.5 35
q-119 0 -195.5 -44.5t-76.5 -115.5q0 -48 43.5 -78.5t144.5 -48.5l277 -49q163 -30 242 -108t79 -193q0 -157 -134 -255.5t-351 -98.5q-146 0 -296.5 45t-244.5 122z" />
    <glyph glyph-name="Scircumflex" unicode="&#x15c;" horiz-adv-x="1460" 
d="M911 1614l-180 201l-182 -201h-176l252 328h211l254 -328h-179zM627 891l299 -57q212 -40 317 -147.5t105 -262.5q0 -201 -162.5 -324t-435.5 -123q-187 0 -361.5 59.5t-290.5 162.5l129 155q110 -94 247.5 -143t277.5 -49q172 0 280.5 69.5t108.5 182.5
q0 85 -69.5 140.5t-217.5 84.5l-311 59q-197 38 -298.5 134t-101.5 241q0 128 79 226t214.5 149t306.5 51q158 0 307 -47.5t263 -151.5l-121 -149q-196 166 -457 166q-163 0 -274 -65.5t-111 -166.5q0 -72 66.5 -119.5t210.5 -74.5z" />
    <glyph glyph-name="scircumflex" unicode="&#x15d;" horiz-adv-x="1212" 
d="M797 1253l-181 201l-182 -201h-176l252 328h211l254 -328h-178zM514 684l277 -49q163 -30 242 -108t79 -193q0 -157 -134 -255.5t-351 -98.5q-146 0 -296.5 45t-244.5 122l102 154q80 -64 197 -106.5t242 -42.5q129 0 206.5 46t77.5 119q0 53 -42 84t-124 45l-296 54
q-164 30 -244 107t-80 190q0 153 131 247.5t354 94.5q285 0 480 -150l-105 -145q-72 57 -176.5 92t-210.5 35q-119 0 -195.5 -44.5t-76.5 -115.5q0 -48 43.5 -78.5t144.5 -48.5z" />
    <glyph glyph-name="Scedilla" unicode="&#x15e;" horiz-adv-x="1460" 
d="M1348 424q0 -190 -147 -311t-396 -133l-49 -54q12 2 39 2q106 0 170.5 -51t64.5 -127q0 -87 -82 -138.5t-221 -51.5q-185 0 -303 73l63 103q116 -62 236 -62q68 0 102.5 20.5t34.5 55.5q0 33 -34.5 53.5t-100.5 20.5q-59 0 -121 -19l-43 31l107 144q-167 12 -317.5 69.5
t-252.5 149.5l129 155q110 -94 247.5 -143t277.5 -49q172 0 280.5 69.5t108.5 182.5q0 85 -69.5 140.5t-217.5 84.5l-311 59q-197 38 -298.5 134t-101.5 241q0 128 79 226t214.5 149t306.5 51q158 0 307 -47.5t263 -151.5l-121 -149q-196 166 -457 166q-163 0 -274 -65.5
t-111 -166.5q0 -72 66.5 -119.5t210.5 -74.5l299 -57q212 -40 317 -147.5t105 -262.5z" />
    <glyph glyph-name="scedilla" unicode="&#x15f;" horiz-adv-x="1212" 
d="M1112 334q0 -144 -113 -239.5t-303 -112.5l-55 -58q12 2 39 2q106 0 170.5 -51t64.5 -127q0 -87 -82 -138.5t-221 -51.5q-185 0 -303 73l64 103q116 -62 235 -62q68 0 102.5 20.5t34.5 55.5q0 33 -34.5 53.5t-100.5 20.5q-59 0 -121 -19l-43 31l111 148q-135 11 -262 54
t-209 111l102 154q80 -64 197 -106.5t242 -42.5q129 0 206.5 46t77.5 119q0 53 -42 84t-124 45l-296 54q-164 30 -244 107t-80 190q0 153 131 247.5t354 94.5q285 0 480 -150l-105 -145q-72 57 -176.5 92t-210.5 35q-119 0 -195.5 -44.5t-76.5 -115.5q0 -48 43.5 -78.5
t144.5 -48.5l277 -49q163 -30 242 -108t79 -193z" />
    <glyph glyph-name="Scaron" unicode="&#x160;" horiz-adv-x="1460" 
d="M1090 1942l-254 -328h-211l-252 328h176l182 -201l180 201h179zM627 891l299 -57q212 -40 317 -147.5t105 -262.5q0 -201 -162.5 -324t-435.5 -123q-187 0 -361.5 59.5t-290.5 162.5l129 155q110 -94 247.5 -143t277.5 -49q172 0 280.5 69.5t108.5 182.5
q0 85 -69.5 140.5t-217.5 84.5l-311 59q-197 38 -298.5 134t-101.5 241q0 128 79 226t214.5 149t306.5 51q158 0 307 -47.5t263 -151.5l-121 -149q-196 166 -457 166q-163 0 -274 -65.5t-111 -166.5q0 -72 66.5 -119.5t210.5 -74.5z" />
    <glyph glyph-name="scaron" unicode="&#x161;" horiz-adv-x="1212" 
d="M975 1581l-254 -328h-211l-252 328h176l182 -201l181 201h178zM514 684l277 -49q163 -30 242 -108t79 -193q0 -157 -134 -255.5t-351 -98.5q-146 0 -296.5 45t-244.5 122l102 154q80 -64 197 -106.5t242 -42.5q129 0 206.5 46t77.5 119q0 53 -42 84t-124 45l-296 54
q-164 30 -244 107t-80 190q0 153 131 247.5t354 94.5q285 0 480 -150l-105 -145q-72 57 -176.5 92t-210.5 35q-119 0 -195.5 -44.5t-76.5 -115.5q0 -48 43.5 -78.5t144.5 -48.5z" />
    <glyph glyph-name="uni0162" unicode="&#x162;" horiz-adv-x="1372" 
d="M788 1290v-1290h-45l-65 -78q28 4 45 4q106 0 170.5 -51t64.5 -127q0 -87 -82 -138.5t-221 -51.5q-185 0 -303 73l64 103q116 -62 235 -62q68 0 102.5 20.5t34.5 55.5q0 33 -34.5 53.5t-100.5 20.5q-59 0 -121 -19l-43 31l109 166h-14v1290h-521v185h1246v-185h-521z" />
    <glyph glyph-name="uni0163" unicode="&#x163;" horiz-adv-x="911" 
d="M641 -18q-26 0 -66 4l-57 -62q12 2 39 2q106 0 171 -51t65 -127q0 -86 -82.5 -138t-221.5 -52q-185 0 -303 73l64 103q116 -62 235 -62q68 0 103 20.5t35 55.5q0 32 -35 53t-101 21q-58 0 -120 -19l-43 31l131 178q-103 39 -157 127t-54 211v600h-191v166h193v264l194 93
v-357h394v-166h-394v-575q0 -104 61 -158.5t163 -54.5q93 0 180 37v-176q-74 -41 -203 -41z" />
    <glyph glyph-name="Tcaron" unicode="&#x164;" horiz-adv-x="1372" 
d="M1042 1939l-254 -327h-210l-252 327h176l182 -200l180 200h178zM1309 1475v-185h-521v-1290h-204v1290h-521v185h1246z" />
    <glyph glyph-name="tcaron" unicode="&#x165;" horiz-adv-x="911" 
d="M637 1694h184l-104 -439h-135zM664 162q93 0 180 37v-176q-74 -41 -203 -41q-193 0 -295 98.5t-102 269.5v600h-191v166h193v264l194 93v-357h394v-166h-394v-575q0 -104 61 -158.5t163 -54.5z" />
    <glyph glyph-name="Tbar" unicode="&#x166;" horiz-adv-x="1409" 
d="M1327 1475v-185h-520v-403h364v-164h-364v-723h-205v723h-364v164h364v403h-520v185h1245z" />
    <glyph glyph-name="tbar" unicode="&#x167;" horiz-adv-x="935" 
d="M680 162q93 0 180 37v-176q-74 -41 -203 -41q-193 0 -295 98.5t-102 269.5v258h-190v146h190v196h-190v166h192v264l195 93v-357h393v-166h-393v-196h393v-146h-393v-233q0 -104 60.5 -158.5t162.5 -54.5z" />
    <glyph glyph-name="Utilde" unicode="&#x168;" horiz-adv-x="1642" 
d="M983 1616q-48 0 -90.5 16.5t-73 40.5t-57.5 48t-54.5 40.5t-52.5 16.5q-87 0 -96 -152h-151q3 138 66.5 219.5t178.5 81.5q48 0 91 -17t73.5 -41t57 -48t54 -41t52.5 -17q43 0 69 39.5t29 112.5h152q-3 -137 -67 -218t-181 -81zM821 -27q-286 0 -458.5 153t-172.5 411
v938h205v-916q0 -186 115.5 -292.5t310.5 -106.5q196 0 311 106.5t115 292.5v916h205v-938q0 -259 -172 -411.5t-459 -152.5z" />
    <glyph glyph-name="utilde" unicode="&#x169;" horiz-adv-x="1386" 
d="M520 1419q-87 0 -96 -151h-152q3 137 66.5 219t179.5 82q48 0 91 -17t73.5 -41t57 -48t54 -41t52.5 -17q43 0 69 39t29 112h152q-3 -137 -67 -218t-181 -81q-58 0 -110 25.5t-83.5 55.5t-67.5 55.5t-67 25.5zM1006 451v665h196v-1116h-186v154q-69 -96 -175 -138.5
t-220 -42.5q-203 0 -328 116t-125 310v717h197v-680q0 -131 77 -205.5t217 -74.5q154 0 250.5 84t96.5 211z" />
    <glyph glyph-name="Umacron" unicode="&#x16a;" horiz-adv-x="1642" 
d="M1149 1665h-655v154h655v-154zM821 -27q-286 0 -458.5 153t-172.5 411v938h205v-916q0 -186 115.5 -292.5t310.5 -106.5q196 0 311 106.5t115 292.5v916h205v-938q0 -259 -172 -411.5t-459 -152.5z" />
    <glyph glyph-name="umacron" unicode="&#x16b;" horiz-adv-x="1386" 
d="M358 1460h656v-153h-656v153zM1006 451v665h196v-1116h-186v154q-69 -96 -175 -138.5t-220 -42.5q-203 0 -328 116t-125 310v717h197v-680q0 -131 77 -205.5t217 -74.5q154 0 250.5 84t96.5 211z" />
    <glyph glyph-name="Ubreve" unicode="&#x16c;" horiz-adv-x="1642" 
d="M821 1599q-149 0 -243.5 93t-94.5 247h144q1 -86 56.5 -138t137.5 -52t138 52t57 138h145q0 -154 -95.5 -247t-244.5 -93zM821 -27q-286 0 -458.5 153t-172.5 411v938h205v-916q0 -186 115.5 -292.5t310.5 -106.5q196 0 311 106.5t115 292.5v916h205v-938
q0 -259 -172 -411.5t-459 -152.5z" />
    <glyph glyph-name="ubreve" unicode="&#x16d;" horiz-adv-x="1386" 
d="M686 1241q-149 0 -243.5 93t-94.5 247h144q1 -86 56.5 -138t137.5 -52t138 52t57 138h145q0 -154 -95.5 -247t-244.5 -93zM1006 451v665h196v-1116h-186v154q-69 -96 -175 -138.5t-220 -42.5q-203 0 -328 116t-125 310v717h197v-680q0 -131 77 -205.5t217 -74.5
q154 0 250.5 84t96.5 211z" />
    <glyph glyph-name="Uring" unicode="&#x16e;" horiz-adv-x="1642" 
d="M819 1604q-124 0 -204 75t-80 191t80 191t204 75t204.5 -75t80.5 -191t-80.5 -191t-204.5 -75zM819 1724q63 0 105.5 41.5t42.5 104.5t-42.5 104t-105.5 41t-105 -41t-42 -104t42 -104.5t105 -41.5zM821 -27q-286 0 -458.5 153t-172.5 411v938h205v-916
q0 -186 115.5 -292.5t310.5 -106.5q196 0 311 106.5t115 292.5v916h205v-938q0 -259 -172 -411.5t-459 -152.5z" />
    <glyph glyph-name="uring" unicode="&#x16f;" horiz-adv-x="1386" 
d="M684 1245q-124 0 -204.5 75t-80.5 191t80.5 191.5t204.5 75.5t204.5 -75.5t80.5 -191.5t-80.5 -191t-204.5 -75zM684 1657q-63 0 -105 -41.5t-42 -104.5t42 -104t105 -41t105 41t42 104t-42 104.5t-105 41.5zM1006 451v665h196v-1116h-186v154q-69 -96 -175 -138.5
t-220 -42.5q-203 0 -328 116t-125 310v717h197v-680q0 -131 77 -205.5t217 -74.5q154 0 250.5 84t96.5 211z" />
    <glyph glyph-name="Uhungarumlaut" unicode="&#x170;" horiz-adv-x="1642" 
d="M891 1939v-18l-186 -317h-158l147 335h197zM1251 1939v-18l-219 -317h-158l181 335h196zM821 -27q-286 0 -458.5 153t-172.5 411v938h205v-916q0 -186 115.5 -292.5t310.5 -106.5q196 0 311 106.5t115 292.5v916h205v-938q0 -259 -172 -411.5t-459 -152.5z" />
    <glyph glyph-name="uhungarumlaut" unicode="&#x171;" horiz-adv-x="1386" 
d="M756 1581v-18l-187 -318h-157l147 336h197zM1116 1563l-219 -318h-158l181 336h196v-18zM1006 451v665h196v-1116h-186v154q-69 -96 -175 -138.5t-220 -42.5q-203 0 -328 116t-125 310v717h197v-680q0 -131 77 -205.5t217 -74.5q154 0 250.5 84t96.5 211z" />
    <glyph glyph-name="Uogonek" unicode="&#x172;" horiz-adv-x="1642" 
d="M1452 535q0 -92 -25 -173.5t-64.5 -140t-87.5 -109t-95.5 -89.5t-87 -72.5t-64 -67.5t-24.5 -65q0 -36 30 -56t80 -20q78 0 143 47l62 -117q-85 -73 -240 -73q-106 0 -177 48.5t-71 139.5q0 95 121 197q-75 -11 -129 -11q-287 0 -460 153t-173 411v938h205v-916
q0 -186 116 -292.5t312 -106.5q201 0 312.5 104.5t111.5 294.5v916h205v-938v-2z" />
    <glyph glyph-name="uogonek" unicode="&#x173;" horiz-adv-x="1394" 
d="M1178 -211l63 -117q-87 -73 -231 -73q-102 0 -170 46t-68 132q0 155 250 258v135q-67 -101 -172 -149t-225 -48q-207 0 -332 116.5t-125 309.5v717h197v-680q0 -132 77 -205t222 -73q155 0 252.5 83t97.5 210v665h196v-1112q-266 -98 -266 -188q0 -37 25.5 -55.5
t66.5 -18.5q77 0 142 47z" />
    <glyph glyph-name="Wcircumflex" unicode="&#x174;" horiz-adv-x="2299" 
d="M1329 1612l-180 200l-182 -200h-176l251 327h211l254 -327h-178zM1630 215l410 1260h215l-502 -1475h-250l-354 1194l-350 -1194h-250l-504 1475h221l412 -1262l366 1255h216z" />
    <glyph glyph-name="wcircumflex" unicode="&#x175;" horiz-adv-x="1978" 
d="M1171 1253l-180 201l-182 -201h-176l252 328h211l254 -328h-179zM1405 186l326 930h211l-422 -1116h-232l-295 868l-301 -868h-231l-424 1116h217l328 -930l313 922h197z" />
    <glyph glyph-name="Ycircumflex" unicode="&#x176;" horiz-adv-x="1480" 
d="M918 1612l-181 200l-182 -200h-176l252 327h211l254 -327h-178zM1219 1475h229l-604 -971v-504h-205v500l-608 975h237l475 -783z" />
    <glyph glyph-name="ycircumflex" unicode="&#x177;" horiz-adv-x="1269" 
d="M815 1253l-180 201l-182 -201h-177l252 328h211l254 -328h-178zM641 219l383 897h213l-565 -1253q-114 -252 -365 -252q-133 0 -246 55l58 164q98 -45 180 -45q141 0 209 147l35 76l-510 1108h219z" />
    <glyph glyph-name="Ydieresis" unicode="&#x178;" horiz-adv-x="1480" 
d="M508 1642q-56 0 -92.5 34.5t-36.5 88.5t36.5 88.5t92.5 34.5t92.5 -34.5t36.5 -88.5t-36.5 -88.5t-92.5 -34.5zM965 1642q-56 0 -92.5 34.5t-36.5 88.5t36.5 88.5t92.5 34.5t92.5 -34.5t36.5 -88.5t-36.5 -88.5t-92.5 -34.5zM1219 1475h229l-604 -971v-504h-205v500
l-608 975h237l475 -783z" />
    <glyph glyph-name="Zacute" unicode="&#x179;" horiz-adv-x="1378" 
d="M1040 1939v-18l-282 -317h-189l244 335h227zM1262 1315l-922 -1139h958v-176h-1212v158l922 1140h-881v177h1135v-160z" />
    <glyph glyph-name="zacute" unicode="&#x17a;" horiz-adv-x="1142" 
d="M909 1581v-18l-282 -318h-189l244 336h227zM1034 975l-696 -809h721v-166h-975v141l698 811h-665v164h917v-141z" />
    <glyph glyph-name="Zdotaccent" unicode="&#x17b;" horiz-adv-x="1378" 
d="M711 1642q-56 0 -92.5 34.5t-36.5 88.5t36.5 88.5t92.5 34.5t92.5 -34.5t36.5 -88.5t-36.5 -88.5t-92.5 -34.5zM1262 1315l-922 -1139h958v-176h-1212v158l922 1140h-881v177h1135v-160z" />
    <glyph glyph-name="zdotaccent" unicode="&#x17c;" horiz-adv-x="1142" 
d="M580 1284q-56 0 -92.5 34.5t-36.5 88.5t36.5 88.5t92.5 34.5t92.5 -34.5t36.5 -88.5t-36.5 -88.5t-92.5 -34.5zM1034 975l-696 -809h721v-166h-975v141l698 811h-665v164h917v-141z" />
    <glyph glyph-name="Zcaron" unicode="&#x17d;" horiz-adv-x="1378" 
d="M1069 1939l-254 -327h-211l-252 327h176l183 -200l180 200h178zM1262 1315l-922 -1139h958v-176h-1212v158l922 1140h-881v177h1135v-160z" />
    <glyph glyph-name="zcaron" unicode="&#x17e;" horiz-adv-x="1142" 
d="M938 1581l-254 -328h-211l-252 328h176l183 -201l180 201h178zM1034 975l-696 -809h721v-166h-975v141l698 811h-665v164h917v-141z" />
    <glyph glyph-name="uni018F" unicode="&#x18f;" horiz-adv-x="1722" 
d="M823 1501q237 0 415.5 -99.5t272 -272t93.5 -392.5q0 -215 -95.5 -389.5t-268.5 -274.5t-390 -100q-134 0 -252 38.5t-208 109t-155.5 165.5t-99 211t-33.5 242q0 33 9 70h1278q-22 232 -173.5 370t-396.5 138q-150 0 -283 -51.5t-217 -135.5l-122 142
q98 104 260.5 166.5t365.5 62.5zM850 158q213 0 360 131.5t176 351.5h-1069q22 -209 167 -346t366 -137z" />
    <glyph glyph-name="florin" unicode="&#x192;" horiz-adv-x="1048" 
d="M819 1384q-98 0 -151.5 -50t-53.5 -146v-221h310v-179h-310v-829q0 -163 -101 -258.5t-271 -95.5q-103 0 -174 26v179q88 -23 151 -23q93 0 144 46.5t51 141.5v813h-232v179h232v229q0 165 106 268t279 103q103 0 176 -27v-178q-84 22 -156 22z" />
    <glyph glyph-name="Ohorn" unicode="&#x1a0;" horiz-adv-x="1785" 
d="M1739 1610q0 -131 -84 -202t-234 -71q-40 0 -65 2q146 -90 227.5 -247t81.5 -355q0 -219 -99.5 -393.5t-276 -272.5t-398.5 -98t-398.5 98t-276 272.5t-99.5 393.5t99.5 393.5t276 272.5t398.5 98q118 0 280 -13t218 -13q89 0 128 35t39 106q0 67 -40 151h188
q35 -63 35 -157zM891 160q246 0 403.5 162t157.5 415t-157.5 415.5t-403.5 162.5t-403.5 -162.5t-157.5 -415.5t157.5 -415t403.5 -162z" />
    <glyph glyph-name="ohorn" unicode="&#x1a1;" horiz-adv-x="1423" 
d="M1401 1253q0 -130 -82 -199t-227 -69h-5q105 -76 160.5 -186t55.5 -240q0 -122 -44.5 -230t-122.5 -186.5t-190.5 -124t-243.5 -45.5q-174 0 -312 78t-213 211.5t-75 296.5t75 296t213 210.5t312 77.5q71 0 182 -13.5t185 -13.5q158 0 158 141q0 73 -39 152h178
q35 -60 35 -156zM702 154q170 0 285 115.5t115 289.5t-115 289t-285 115t-284.5 -115t-114.5 -289t114.5 -289.5t284.5 -115.5z" />
    <glyph glyph-name="Uhorn" unicode="&#x1af;" horiz-adv-x="1753" 
d="M1573 1767h188q35 -63 35 -157q0 -130 -82 -201.5t-223 -71.5h-39v-800q0 -259 -172 -411.5t-459 -152.5q-286 0 -458.5 153t-172.5 411v938h205v-916q0 -186 115.5 -292.5t310.5 -106.5q196 0 311 106.5t115 292.5v916h207q158 0 158 141q0 69 -39 151z" />
    <glyph glyph-name="uhorn" unicode="&#x1b0;" horiz-adv-x="1445" 
d="M1505 1253q0 -130 -81 -199t-222 -69v-985h-186v154q-69 -96 -175 -138.5t-220 -42.5q-203 0 -328 116t-125 310v717h197v-680q0 -131 77 -205.5t217 -74.5q154 0 250.5 84t96.5 211v665h168q157 0 157 141q0 73 -39 152h178q35 -60 35 -156z" />
    <glyph glyph-name="uni01C4" unicode="&#x1c4;" horiz-adv-x="3008" 
d="M2699 1939l-254 -327h-211l-252 327h177l182 -200l180 200h178zM797 1475q176 0 321.5 -55.5t243 -153.5t150.5 -234t53 -295t-53 -294.5t-150.5 -233.5t-243 -153.5t-321.5 -55.5h-592v1475h592zM2892 1315l-922 -1139h959v-176h-1213v158l922 1140h-881v177h1135v-160z
M410 182h385q258 0 407.5 153t149.5 402t-149.5 402t-407.5 153h-385v-1110z" />
    <glyph glyph-name="uni01C5" unicode="&#x1c5;" horiz-adv-x="2799" 
d="M2595 1581l-254 -328h-211l-252 328h176l182 -201l181 201h178zM797 1475q176 0 321.5 -55.5t243 -153.5t150.5 -234t53 -295t-53 -294.5t-150.5 -233.5t-243 -153.5t-321.5 -55.5h-592v1475h592zM410 182h385q258 0 407.5 153t149.5 402t-149.5 402t-407.5 153h-385
v-1110zM2691 975l-696 -809h721v-166h-975v141l698 811h-665v164h917v-141z" />
    <glyph glyph-name="uni01C6" unicode="&#x1c6;" horiz-adv-x="2641" 
d="M2437 1581l-254 -328h-211l-252 328h176l183 -201l180 201h178zM1094 944v596h196v-1540h-186v186q-71 -100 -181 -156.5t-249 -56.5q-163 0 -294 77.5t-203.5 211t-72.5 297.5q0 163 72.5 296.5t203.5 210.5t294 77q134 0 241.5 -52.5t178.5 -146.5zM2533 975l-696 -809
h721v-166h-975v141l698 811h-665v164h917v-141zM696 154q170 0 287 112.5t117 292.5q0 179 -117 291.5t-287 112.5t-280.5 -114.5t-110.5 -289.5q0 -177 110.5 -291t280.5 -114z" />
    <glyph glyph-name="uni01C7" unicode="&#x1c7;" horiz-adv-x="2547" 
d="M205 1475h205v-1291h833v-184h-1038v1475zM2150 459v1016h205v-1020q0 -224 -136.5 -353t-356.5 -129q-144 0 -254 54.5t-175.5 168t-66.5 273.5h201q3 -86 28 -148t67.5 -96t91 -49.5t106.5 -15.5q134 0 212 78t78 221z" />
    <glyph glyph-name="uni01C8" unicode="&#x1c8;" horiz-adv-x="1966" 
d="M1683 1284q-56 0 -92.5 34.5t-36.5 88.5t36.5 88.5t92.5 34.5t92.5 -34.5t36.5 -88.5t-36.5 -88.5t-92.5 -34.5zM205 1475h205v-1291h895v-184h-1100v1475zM1585 -68v1184h197v-1202q0 -138 -85 -218.5t-231 -80.5q-73 0 -135 20v172q47 -18 99 -18q73 0 114 38.5
t41 104.5z" />
    <glyph glyph-name="uni01C9" unicode="&#x1c9;" horiz-adv-x="1120" 
d="M184 0v1540h197v-1540h-197zM838 1284q-56 0 -92.5 34.5t-36.5 88.5t36.5 88.5t92.5 34.5t92.5 -34.5t36.5 -88.5t-36.5 -88.5t-92.5 -34.5zM621 -385q-74 0 -136 20v172q47 -18 99 -18q73 0 114 38.5t41 104.5v1184h197v-1202q0 -138 -84.5 -218.5t-230.5 -80.5z" />
    <glyph glyph-name="uni01CA" unicode="&#x1ca;" horiz-adv-x="2926" 
d="M424 1475l876 -1178v1178h199v-1475h-213l-883 1186v-1186h-198v1475h219zM2529 459v1016h205v-1020q0 -224 -136.5 -353t-356.5 -129q-144 0 -254 54.5t-175.5 168t-66.5 273.5h201q6 -165 87.5 -237t204.5 -72q134 0 212.5 78t78.5 221z" />
    <glyph glyph-name="uni01CB" unicode="&#x1cb;" horiz-adv-x="2277" 
d="M1995 1284q-56 0 -92.5 34.5t-36.5 88.5t36.5 88.5t92.5 34.5t92.5 -34.5t36.5 -88.5t-36.5 -88.5t-92.5 -34.5zM424 1475l876 -1178v1178h199v-1475h-213l-883 1186v-1186h-198v1475h219zM1896 -68v1184h197v-1202q0 -138 -84.5 -218.5t-230.5 -80.5q-74 0 -136 20v172
q46 -18 99 -18q73 0 114 38.5t41 104.5z" />
    <glyph glyph-name="uni01CC" unicode="&#x1cc;" horiz-adv-x="1970" 
d="M1688 1284q-56 0 -92.5 34.5t-36.5 88.5t36.5 88.5t92.5 34.5t92.5 -34.5t36.5 -88.5t-36.5 -88.5t-92.5 -34.5zM768 1143q208 0 333.5 -116t125.5 -310v-717h-197v680q0 132 -78 206.5t-221 74.5q-156 0 -253 -83.5t-97 -211.5v-666h-197v1116h187v-153q69 94 174 137
t223 43zM1589 -68v1184h197v-1202q0 -138 -85 -218.5t-231 -80.5q-73 0 -135 20v172q47 -18 99 -18q73 0 114 38.5t41 104.5z" />
    <glyph glyph-name="Gcaron" unicode="&#x1e6;" horiz-adv-x="1689" 
d="M1257 1939l-253 -327h-211l-252 327h176l182 -200l180 200h178zM1550 825v-673q-217 -179 -602 -179q-239 0 -429 98t-296 272t-106 392q0 220 105.5 395t291 273t416.5 98q181 0 328 -52t243 -142l-121 -150q-78 70 -193.5 114t-256.5 44q-168 0 -305 -73.5t-216 -206
t-79 -298.5q0 -253 175 -415t449 -162q128 0 219 21t175 71v393h-459v180h661z" />
    <glyph glyph-name="gcaron" unicode="&#x1e7;" horiz-adv-x="1456" 
d="M1083 1581l-254 -328h-211l-251 328h176l182 -201l180 201h178zM1090 936v180h186v-1012q0 -225 -163.5 -359t-428.5 -134q-268 0 -475 106l74 166q189 -98 399 -98q178 0 287.5 87t109.5 239v127q-69 -90 -173 -139.5t-236 -49.5q-248 0 -404.5 154.5t-156.5 390.5
q0 235 157 392t404 157q137 0 243.5 -55t176.5 -152zM688 227q168 0 280.5 99.5t112.5 267.5q0 166 -113 268.5t-280 102.5q-165 0 -273 -104t-108 -267q0 -164 107.5 -265.5t273.5 -101.5z" />
    <glyph glyph-name="uni01EA" unicode="&#x1ea;" horiz-adv-x="1779" 
d="M891 1501q166 0 309.5 -57.5t245 -158t159.5 -242.5t58 -306q0 -176 -66.5 -322.5t-179.5 -236.5q-54 -52 -132.5 -96t-147 -71.5t-130.5 -55t-98.5 -61t-36.5 -76.5q0 -36 30 -56t83 -20q78 0 143 47l62 -117q-85 -73 -242 -73q-107 0 -177.5 48.5t-70.5 139.5
q0 106 129 190q-206 13 -368 113.5t-253 269.5t-91 377q0 219 99 393.5t275.5 272.5t399.5 98zM891 160q245 0 402 162t157 415t-157 415.5t-402 162.5q-246 0 -403.5 -162.5t-157.5 -415.5t157.5 -415t403.5 -162z" />
    <glyph glyph-name="uni01EB" unicode="&#x1eb;" horiz-adv-x="1402" 
d="M702 1143q174 0 311.5 -77.5t212 -210.5t74.5 -296q0 -136 -54.5 -255t-153.5 -193q-48 -38 -128 -77.5t-139.5 -64.5t-105 -64.5t-45.5 -86.5q0 -36 28 -56t72 -20q70 0 135 47l64 -117q-87 -73 -230 -73q-103 0 -172 49.5t-69 142.5q0 107 125 186
q-234 26 -379.5 189.5t-145.5 392.5q0 163 75 296t213 210.5t312 77.5zM702 154q170 0 285 115.5t115 289.5t-115 289t-285 115t-284.5 -115t-114.5 -289t114.5 -289.5t284.5 -115.5z" />
    <glyph glyph-name="Aringacute" unicode="&#x1fa;" 
d="M1108 2550v-19l-283 -317h-188l244 336h227zM778 1604q-124 0 -204 75t-80 191t80 191t204 75t204.5 -75t80.5 -191t-80.5 -191t-204.5 -75zM778 2015q-63 0 -105 -41t-42 -104t42 -104.5t105 -41.5t105.5 41.5t42.5 104.5t-42.5 104t-105.5 41zM1524 0h-219l-158 393
h-735l-160 -393h-215l618 1475h252zM780 1300l-297 -731h592z" />
    <glyph glyph-name="aringacute" unicode="&#x1fb;" horiz-adv-x="1325" 
d="M926 2161v-19l-234 -287h-164l197 306h201zM637 1245q-124 0 -204.5 75t-80.5 191t80.5 191.5t204.5 75.5t204.5 -75.5t80.5 -191.5t-80.5 -191t-204.5 -75zM637 1657q-63 0 -105.5 -41.5t-42.5 -104.5t42.5 -104t105.5 -41t105 41t42 104t-42 104.5t-105 41.5zM1231 162
q34 0 57 10v-164q-37 -16 -96 -16q-93 0 -161 47t-79 137q-67 -99 -183.5 -150t-252.5 -51q-121 0 -218.5 37.5t-158.5 117t-61 189.5q0 168 144.5 263.5t428.5 95.5h295v14q0 129 -87 201t-234 72q-95 0 -189 -30.5t-164 -88.5l-108 143q88 76 213 114t256 38
q232 0 369 -117t137 -322v-450q0 -90 92 -90zM532 145q56 0 109.5 11t107.5 38.5t95 68.5t69 106t33 147h-291q-381 0 -381 -190q0 -85 70.5 -133t187.5 -48z" />
    <glyph glyph-name="AEacute" unicode="&#x1fc;" horiz-adv-x="2256" 
d="M1520 1939v-18l-283 -317h-188l243 335h228zM1262 180h886l35 -180h-1120v385h-614l-256 -385h-224l983 1475h1211l-35 -181h-866v-432h589v-180h-589v-502zM1063 1315l-498 -752h498v752z" />
    <glyph glyph-name="aeacute" unicode="&#x1fd;" horiz-adv-x="2174" 
d="M1409 1581v-18l-283 -318h-188l244 336h227zM2083 561q0 -40 -6 -67h-936q22 -159 136.5 -253t291.5 -94q197 0 334 134l116 -136q-71 -77 -185 -125.5t-267 -48.5q-195 0 -330.5 81t-200.5 224q-31 -79 -89 -139t-129.5 -94t-147.5 -51t-154 -17q-121 0 -219 37
t-159.5 115t-61.5 186q0 166 146.5 260t428.5 95l295 2v20q0 130 -86 204.5t-237 74.5q-95 0 -191 -31t-168 -92l-102 143q88 76 213.5 114t257.5 38q164 0 275.5 -59t164.5 -171q68 108 180 169t260 61q170 0 301.5 -79.5t200 -211t68.5 -289.5zM1516 969
q-142 0 -242.5 -85.5t-128.5 -228.5h737q-24 139 -122 226.5t-244 87.5zM528 145q56 0 109 11t106 37.5t94 66.5t70 103.5t37 142.5l-297 2q-188 1 -281.5 -50t-93.5 -141q0 -79 69.5 -125.5t186.5 -46.5z" />
    <glyph glyph-name="Oslashacute" unicode="&#x1fe;" horiz-adv-x="1777" 
d="M1219 1939v-18l-283 -317h-188l243 335h228zM1602 1583l-193 -266q120 -104 186 -253t66 -327q0 -164 -58 -306t-159.5 -242.5t-245 -158t-309.5 -57.5q-212 0 -387 93l-129 -177h-195l191 267q-120 104 -186 253.5t-66 327.5q0 164 58 306t159.5 242.5t245 158
t309.5 57.5q217 0 391 -94l127 176h195zM328 737q0 -252 157 -415l680 925q-127 68 -276 68q-246 0 -403.5 -162.5t-157.5 -415.5zM889 160q246 0 403.5 162t157.5 415q0 125 -41 232t-117 184l-678 -928q118 -65 275 -65z" />
    <glyph glyph-name="oslashacute" unicode="&#x1ff;" horiz-adv-x="1404" 
d="M1032 1581v-18l-282 -318h-189l244 336h227zM1280 1223l-166 -228q90 -80 139.5 -193.5t49.5 -242.5q0 -122 -44.5 -230t-122.5 -186.5t-190.5 -124t-243.5 -45.5q-153 0 -288 66l-105 -143h-182l164 227q-90 80 -139.5 193.5t-49.5 242.5q0 163 75.5 296t213 210.5
t311.5 77.5q156 0 291 -66l105 146h182zM702 967q-171 0 -285 -116t-114 -292q0 -168 105 -283l479 650q-84 41 -185 41zM702 152q171 0 286.5 115.5t115.5 291.5q0 166 -105 281l-477 -650q84 -38 180 -38z" />
    <glyph glyph-name="uni0200" unicode="&#x200;" 
d="M530 1939l181 -335h-158l-219 317v18h196zM891 1939l147 -335h-157l-187 317v18h197zM1524 0h-219l-158 393h-735l-160 -393h-215l618 1475h252zM780 1300l-297 -731h592z" />
    <glyph glyph-name="uni0201" unicode="&#x201;" horiz-adv-x="1325" 
d="M389 1581l180 -336h-157l-219 318v18h196zM750 1581l147 -336h-158l-186 318v18h197zM1231 162q34 0 57 10v-164q-37 -16 -96 -16q-93 0 -161 47t-79 137q-67 -99 -183.5 -150t-252.5 -51q-121 0 -218.5 37.5t-158.5 117t-61 189.5q0 168 144.5 263.5t428.5 95.5h295v14
q0 129 -87 201t-234 72q-95 0 -189 -30.5t-164 -88.5l-108 143q88 76 213 114t256 38q232 0 369 -117t137 -322v-450q0 -90 92 -90zM532 145q56 0 109.5 11t107.5 38.5t95 68.5t69 106t33 147h-291q-381 0 -381 -190q0 -85 70.5 -133t187.5 -48z" />
    <glyph glyph-name="uni0202" unicode="&#x202;" 
d="M780 1794q-82 0 -137.5 -52t-56.5 -138h-144q0 154 94.5 247t243.5 93t244.5 -93t95.5 -247h-145q-1 86 -57 138t-138 52zM1524 0h-219l-158 393h-735l-160 -393h-215l618 1475h252zM780 1300l-297 -731h592z" />
    <glyph glyph-name="uni0203" unicode="&#x203;" horiz-adv-x="1325" 
d="M639 1436q-82 0 -138 -52.5t-57 -138.5h-143q0 154 94.5 247t243.5 93t244.5 -93t95.5 -247h-145q-1 86 -57 138.5t-138 52.5zM1231 162q34 0 57 10v-164q-37 -16 -96 -16q-93 0 -161 47t-79 137q-67 -99 -183.5 -150t-252.5 -51q-121 0 -218.5 37.5t-158.5 117
t-61 189.5q0 168 144.5 263.5t428.5 95.5h295v14q0 129 -87 201t-234 72q-95 0 -189 -30.5t-164 -88.5l-108 143q88 76 213 114t256 38q232 0 369 -117t137 -322v-450q0 -90 92 -90zM532 145q56 0 109.5 11t107.5 38.5t95 68.5t69 106t33 147h-291q-381 0 -381 -190
q0 -85 70.5 -133t187.5 -48z" />
    <glyph glyph-name="uni0204" unicode="&#x204;" horiz-adv-x="1447" 
d="M520 1939l180 -335h-157l-219 317v18h196zM881 1939l147 -335h-158l-186 317v18h197zM410 180h929l37 -180h-1171v1475h1151l-37 -181h-909v-432h624v-182h-624v-500z" />
    <glyph glyph-name="uni0205" unicode="&#x205;" horiz-adv-x="1353" 
d="M436 1581l180 -336h-157l-219 318v18h196zM797 1581l147 -336h-158l-186 318v18h197zM1262 555q0 -29 -9 -72h-948q23 -154 135 -243.5t285 -89.5q215 0 348 133l117 -136q-70 -78 -189.5 -126t-277.5 -48q-282 0 -451.5 165.5t-169.5 420.5q0 162 72 295t206 211t304 78
q130 0 240 -46.5t183 -126t114 -187t41 -228.5zM684 967q-148 0 -250.5 -86.5t-128.5 -235.5h758q-21 142 -123 232t-256 90z" />
    <glyph glyph-name="uni0206" unicode="&#x206;" horiz-adv-x="1447" 
d="M770 1794q-82 0 -138 -52t-57 -138h-143q0 154 94.5 247t243.5 93t244.5 -93t95.5 -247h-145q-1 86 -57 138t-138 52zM410 180h929l37 -180h-1171v1475h1151l-37 -181h-909v-432h624v-182h-624v-500z" />
    <glyph glyph-name="uni0207" unicode="&#x207;" horiz-adv-x="1353" 
d="M686 1436q-81 0 -137 -52.5t-57 -138.5h-144q0 154 94.5 247t243.5 93t244.5 -93t95.5 -247h-145q-1 86 -57 138.5t-138 52.5zM1262 555q0 -29 -9 -72h-948q23 -154 135 -243.5t285 -89.5q215 0 348 133l117 -136q-70 -78 -189.5 -126t-277.5 -48q-282 0 -451.5 165.5
t-169.5 420.5q0 162 72 295t206 211t304 78q130 0 240 -46.5t183 -126t114 -187t41 -228.5zM684 967q-148 0 -250.5 -86.5t-128.5 -235.5h758q-21 142 -123 232t-256 90z" />
    <glyph glyph-name="uni0208" unicode="&#x208;" horiz-adv-x="614" 
d="M80 1604l-219 317v18h196l181 -335h-158zM408 1604l-187 317v18h197l147 -335h-157zM205 0v1475h205v-1475h-205z" />
    <glyph glyph-name="uni0209" unicode="&#x209;" horiz-adv-x="565" 
d="M55 1245l-219 318v18h197l180 -336h-158zM383 1245l-186 318v18h196l148 -336h-158zM381 0h-197v1116h197v-1116z" />
    <glyph glyph-name="uni020A" unicode="&#x20a;" horiz-adv-x="614" 
d="M307 1944q149 0 244.5 -93t95.5 -247h-145q-1 86 -57 138t-138 52t-137.5 -52t-56.5 -138h-144q0 154 94.5 247t243.5 93zM205 0v1475h205v-1475h-205z" />
    <glyph glyph-name="uni020B" unicode="&#x20b;" horiz-adv-x="565" 
d="M283 1585q149 0 244.5 -93t95.5 -247h-146q-1 86 -57 138.5t-137 52.5q-82 0 -138 -52.5t-57 -138.5h-143q0 154 94.5 247t243.5 93zM381 0h-197v1116h197v-1116z" />
    <glyph glyph-name="uni020C" unicode="&#x20c;" horiz-adv-x="1781" 
d="M664 1604l-220 317v18h197l180 -335h-157zM991 1604l-186 317v18h196l148 -335h-158zM891 -27q-223 0 -399.5 98t-275.5 272.5t-99 393.5t99 393.5t275.5 272.5t399.5 98t399.5 -98t275.5 -272.5t99 -393.5t-99 -393.5t-275.5 -272.5t-399.5 -98zM891 160
q246 0 403.5 162t157.5 415t-157.5 415.5t-403.5 162.5t-403.5 -162.5t-157.5 -415.5t157.5 -415t403.5 -162z" />
    <glyph glyph-name="uni020D" unicode="&#x20d;" horiz-adv-x="1404" 
d="M475 1245l-219 318v18h197l180 -336h-158zM803 1245l-187 318v18h197l148 -336h-158zM702 -27q-173 0 -311 78t-213.5 211.5t-75.5 296.5t75.5 296t213 210.5t311.5 77.5q130 0 242.5 -45.5t191 -123.5t123 -185.5t44.5 -229.5t-44.5 -230t-123 -186.5t-191 -124
t-242.5 -45.5zM702 154q170 0 285 115.5t115 289.5t-115 289t-285 115t-284.5 -115t-114.5 -289t114.5 -289.5t284.5 -115.5z" />
    <glyph glyph-name="uni020E" unicode="&#x20e;" horiz-adv-x="1781" 
d="M891 1944q149 0 244.5 -93t95.5 -247h-146q-1 86 -56.5 138t-137.5 52t-138 -52t-57 -138h-143q0 154 94.5 247t243.5 93zM891 -27q-223 0 -399.5 98t-275.5 272.5t-99 393.5t99 393.5t275.5 272.5t399.5 98t399.5 -98t275.5 -272.5t99 -393.5t-99 -393.5t-275.5 -272.5
t-399.5 -98zM891 160q246 0 403.5 162t157.5 415t-157.5 415.5t-403.5 162.5t-403.5 -162.5t-157.5 -415.5t157.5 -415t403.5 -162z" />
    <glyph glyph-name="uni020F" unicode="&#x20f;" horiz-adv-x="1404" 
d="M702 1585q149 0 244.5 -93t95.5 -247h-145q-1 86 -57 138.5t-138 52.5q-81 0 -137 -52.5t-57 -138.5h-143q0 155 94.5 247.5t242.5 92.5zM702 -27q-173 0 -311 78t-213.5 211.5t-75.5 296.5t75.5 296t213 210.5t311.5 77.5q130 0 242.5 -45.5t191 -123.5t123 -185.5
t44.5 -229.5t-44.5 -230t-123 -186.5t-191 -124t-242.5 -45.5zM702 154q170 0 285 115.5t115 289.5t-115 289t-285 115t-284.5 -115t-114.5 -289t114.5 -289.5t284.5 -115.5z" />
    <glyph glyph-name="uni0210" unicode="&#x210;" horiz-adv-x="1595" 
d="M528 1939l181 -335h-158l-219 317v18h196zM889 1939l147 -335h-157l-187 317v18h197zM1522 0h-244l-422 625h-448v-625h-203v1475h772q208 0 331.5 -120.5t123.5 -305.5q0 -156 -94 -270t-255 -144zM946 1292h-538v-487h538q130 0 204.5 67.5t74.5 176.5
q0 110 -74.5 176.5t-204.5 66.5z" />
    <glyph glyph-name="uni0211" unicode="&#x211;" horiz-adv-x="903" 
d="M262 1581l180 -336h-157l-219 318v18h196zM623 1581l147 -336h-158l-186 318v18h197zM752 1133q59 0 112 -13v-184q-56 12 -114 12q-162 0 -265.5 -87.5t-103.5 -244.5v-616h-197v1116h187v-174q61 98 167 144.5t214 46.5z" />
    <glyph glyph-name="uni0212" unicode="&#x212;" horiz-adv-x="1595" 
d="M778 1794q-82 0 -137.5 -52t-56.5 -138h-144q0 154 94.5 247t243.5 93t244.5 -93t95.5 -247h-145q-1 86 -57 138t-138 52zM1522 0h-244l-422 625h-448v-625h-203v1475h772q208 0 331.5 -120.5t123.5 -305.5q0 -156 -94 -270t-255 -144zM946 1292h-538v-487h538
q130 0 204.5 67.5t74.5 176.5q0 110 -74.5 176.5t-204.5 66.5z" />
    <glyph glyph-name="uni0213" unicode="&#x213;" horiz-adv-x="903" 
d="M512 1436q-82 0 -138 -52.5t-57 -138.5h-143q0 154 94.5 247t243.5 93t244.5 -93t95.5 -247h-145q-1 86 -57 138.5t-138 52.5zM752 1133q59 0 112 -13v-184q-56 12 -114 12q-162 0 -265.5 -87.5t-103.5 -244.5v-616h-197v1116h187v-174q61 98 167 144.5t214 46.5z" />
    <glyph glyph-name="uni0214" unicode="&#x214;" horiz-adv-x="1642" 
d="M594 1604l-219 317v18h196l181 -335h-158zM922 1604l-187 317v18h197l147 -335h-157zM821 -27q-286 0 -458.5 153t-172.5 411v938h205v-916q0 -186 115.5 -292.5t310.5 -106.5q196 0 311 106.5t115 292.5v916h205v-938q0 -259 -172 -411.5t-459 -152.5z" />
    <glyph glyph-name="uni0215" unicode="&#x215;" horiz-adv-x="1386" 
d="M436 1581l180 -336h-157l-219 318v18h196zM797 1581l147 -336h-158l-186 318v18h197zM1006 451v665h196v-1116h-186v154q-69 -96 -175 -138.5t-220 -42.5q-203 0 -328 116t-125 310v717h197v-680q0 -131 77 -205.5t217 -74.5q154 0 250.5 84t96.5 211z" />
    <glyph glyph-name="uni0216" unicode="&#x216;" horiz-adv-x="1642" 
d="M821 1944q149 0 244.5 -93t95.5 -247h-145q-1 86 -57 138t-138 52t-137.5 -52t-56.5 -138h-144q0 154 94.5 247t243.5 93zM821 -27q-286 0 -458.5 153t-172.5 411v938h205v-916q0 -186 115.5 -292.5t310.5 -106.5q196 0 311 106.5t115 292.5v916h205v-938
q0 -259 -172 -411.5t-459 -152.5z" />
    <glyph glyph-name="uni0217" unicode="&#x217;" horiz-adv-x="1386" 
d="M686 1436q-81 0 -137 -52.5t-57 -138.5h-144q0 154 94.5 247t243.5 93t244.5 -93t95.5 -247h-145q-1 86 -57 138.5t-138 52.5zM1006 451v665h196v-1116h-186v154q-69 -96 -175 -138.5t-220 -42.5q-203 0 -328 116t-125 310v717h197v-680q0 -131 77 -205.5t217 -74.5
q154 0 250.5 84t96.5 211z" />
    <glyph glyph-name="uni0218" unicode="&#x218;" horiz-adv-x="1460" 
d="M750 -23q-187 0 -361.5 59.5t-290.5 162.5l129 155q110 -94 247.5 -143t277.5 -49q172 0 280.5 69.5t108.5 182.5q0 85 -69.5 140.5t-217.5 84.5l-311 59q-197 38 -298.5 134t-101.5 241q0 128 79 226t214.5 149t306.5 51q158 0 307 -47.5t263 -151.5l-121 -149
q-196 166 -457 166q-163 0 -274 -65.5t-111 -166.5q0 -72 66.5 -119.5t210.5 -74.5l299 -57q212 -40 317 -147.5t105 -262.5q0 -201 -162.5 -324t-435.5 -123zM719 -434h-139l75 315h217z" />
    <glyph glyph-name="uni0219" unicode="&#x219;" horiz-adv-x="1212" 
d="M86 147l102 154q80 -64 197 -106.5t242 -42.5q129 0 206.5 46t77.5 119q0 53 -42 84t-124 45l-296 54q-164 30 -244 107t-80 190q0 153 131 247.5t354 94.5q285 0 480 -150l-105 -145q-72 57 -176.5 92t-210.5 35q-119 0 -195.5 -44.5t-76.5 -115.5q0 -48 43.5 -78.5
t144.5 -48.5l277 -49q163 -30 242 -108t79 -193q0 -157 -134 -255.5t-351 -98.5q-146 0 -296.5 45t-244.5 122zM604 -436h-139l76 315h217z" />
    <glyph glyph-name="uni021A" unicode="&#x21a;" horiz-adv-x="1372" 
d="M1309 1475v-185h-521v-1290h-204v1290h-521v185h1246zM674 -436h-139l75 315h217z" />
    <glyph glyph-name="uni021B" unicode="&#x21b;" horiz-adv-x="911" 
d="M664 162q93 0 180 37v-176q-74 -41 -203 -41q-193 0 -295 98.5t-102 269.5v600h-191v166h193v264l194 93v-357h394v-166h-394v-575q0 -104 61 -158.5t163 -54.5zM481 -436h-139l76 315h217z" />
    <glyph glyph-name="uni022A" unicode="&#x22a;" horiz-adv-x="1781" 
d="M1219 2013h-656v154h656v-154zM662 1642q-56 0 -93 34.5t-37 88.5t37 88.5t93 34.5t92.5 -34.5t36.5 -88.5t-36.5 -88.5t-92.5 -34.5zM1118 1642q-56 0 -92.5 34.5t-36.5 88.5t36.5 88.5t92.5 34.5t92.5 -34.5t36.5 -88.5t-36.5 -88.5t-92.5 -34.5zM891 -27
q-223 0 -399.5 98t-275.5 272.5t-99 393.5t99 393.5t275.5 272.5t399.5 98t399.5 -98t275.5 -272.5t99 -393.5t-99 -393.5t-275.5 -272.5t-399.5 -98zM891 160q246 0 403.5 162t157.5 415t-157.5 415.5t-403.5 162.5t-403.5 -162.5t-157.5 -415.5t157.5 -415t403.5 -162z
" />
    <glyph glyph-name="uni022B" unicode="&#x22b;" horiz-adv-x="1404" 
d="M1030 1655h-655v153h655v-153zM473 1284q-56 0 -92.5 34.5t-36.5 88.5t36.5 88.5t92.5 34.5t92.5 -34.5t36.5 -88.5t-36.5 -88.5t-92.5 -34.5zM930 1284q-56 0 -92.5 34.5t-36.5 88.5t36.5 88.5t92.5 34.5t92.5 -34.5t36.5 -88.5t-36.5 -88.5t-92.5 -34.5zM702 -27
q-173 0 -311 78t-213.5 211.5t-75.5 296.5t75.5 296t213 210.5t311.5 77.5q130 0 242.5 -45.5t191 -123.5t123 -185.5t44.5 -229.5t-44.5 -230t-123 -186.5t-191 -124t-242.5 -45.5zM702 154q170 0 285 115.5t115 289.5t-115 289t-285 115t-284.5 -115t-114.5 -289
t114.5 -289.5t284.5 -115.5z" />
    <glyph glyph-name="uni022C" unicode="&#x22c;" horiz-adv-x="1781" 
d="M1219 2083h-656v153h656v-153zM1053 1616q-48 0 -90.5 16.5t-73 40.5t-57.5 48t-54.5 40.5t-52.5 16.5q-87 0 -96 -152h-152q3 137 66.5 219t179.5 82q48 0 91 -17t73.5 -41t57 -48t54 -41t52.5 -17q43 0 69 39.5t29 112.5h151q-3 -137 -66.5 -218t-180.5 -81zM891 -27
q-223 0 -399.5 98t-275.5 272.5t-99 393.5t99 393.5t275.5 272.5t399.5 98t399.5 -98t275.5 -272.5t99 -393.5t-99 -393.5t-275.5 -272.5t-399.5 -98zM891 160q246 0 403.5 162t157.5 415t-157.5 415.5t-403.5 162.5t-403.5 -162.5t-157.5 -415.5t157.5 -415t403.5 -162z
" />
    <glyph glyph-name="uni022D" unicode="&#x22d;" horiz-adv-x="1404" 
d="M1030 1694h-655v153h655v-153zM864 1257q-58 0 -110 25.5t-83 55.5t-67 55.5t-67 25.5q-88 0 -97 -151h-151q3 137 66.5 219t179.5 82q48 0 91 -17t73 -41t56.5 -48t54 -41t52.5 -17q43 0 69.5 39t29.5 112h151q-3 -137 -67 -218t-181 -81zM702 -27q-173 0 -311 78
t-213.5 211.5t-75.5 296.5t75.5 296t213 210.5t311.5 77.5q130 0 242.5 -45.5t191 -123.5t123 -185.5t44.5 -229.5t-44.5 -230t-123 -186.5t-191 -124t-242.5 -45.5zM702 154q170 0 285 115.5t115 289.5t-115 289t-285 115t-284.5 -115t-114.5 -289t114.5 -289.5
t284.5 -115.5z" />
    <glyph glyph-name="uni0230" unicode="&#x230;" horiz-adv-x="1781" 
d="M1219 2013h-656v154h656v-154zM891 1642q-56 0 -92.5 34.5t-36.5 88.5t36.5 88.5t92.5 34.5t92.5 -34.5t36.5 -88.5t-36.5 -88.5t-92.5 -34.5zM891 -27q-223 0 -399.5 98t-275.5 272.5t-99 393.5t99 393.5t275.5 272.5t399.5 98t399.5 -98t275.5 -272.5t99 -393.5
t-99 -393.5t-275.5 -272.5t-399.5 -98zM891 160q246 0 403.5 162t157.5 415t-157.5 415.5t-403.5 162.5t-403.5 -162.5t-157.5 -415.5t157.5 -415t403.5 -162z" />
    <glyph glyph-name="uni0231" unicode="&#x231;" horiz-adv-x="1404" 
d="M1030 1655h-655v153h655v-153zM702 1284q-56 0 -92.5 34.5t-36.5 88.5t36.5 88.5t92.5 34.5t92.5 -34.5t36.5 -88.5t-36.5 -88.5t-92.5 -34.5zM702 -27q-173 0 -311 78t-213.5 211.5t-75.5 296.5t75.5 296t213 210.5t311.5 77.5q130 0 242.5 -45.5t191 -123.5t123 -185.5
t44.5 -229.5t-44.5 -230t-123 -186.5t-191 -124t-242.5 -45.5zM702 154q170 0 285 115.5t115 289.5t-115 289t-285 115t-284.5 -115t-114.5 -289t114.5 -289.5t284.5 -115.5z" />
    <glyph glyph-name="uni0232" unicode="&#x232;" horiz-adv-x="1480" 
d="M410 1819h655v-154h-655v154zM1219 1475h229l-604 -971v-504h-205v500l-608 975h237l475 -783z" />
    <glyph glyph-name="uni0233" unicode="&#x233;" horiz-adv-x="1269" 
d="M307 1460h656v-153h-656v153zM641 219l383 897h213l-565 -1253q-114 -252 -365 -252q-133 0 -246 55l58 164q98 -45 180 -45q141 0 209 147l35 76l-510 1108h219z" />
    <glyph glyph-name="uni0237" unicode="&#x237;" horiz-adv-x="581" 
d="M82 -385q-73 0 -135 20v172q47 -18 98 -18q73 0 114.5 38.5t41.5 104.5v1184h196v-1202q0 -138 -84.5 -218.5t-230.5 -80.5z" />
    <glyph glyph-name="uni0259" unicode="&#x259;" horiz-adv-x="1351" 
d="M629 1143q141 0 258 -44.5t196 -123t122.5 -186t43.5 -232.5q0 -163 -72 -295.5t-205.5 -210.5t-303.5 -78q-130 0 -240 46.5t-183 126t-114 187t-41 228.5q0 33 8 72h949q-23 154 -135.5 244t-284.5 90q-215 0 -348 -133l-117 135q70 78 189.5 126t277.5 48zM668 150
q148 0 250.5 86t128.5 235h-758q21 -142 122.5 -231.5t256.5 -89.5z" />
    <glyph glyph-name="uni02B9" unicode="&#x2b9;" horiz-adv-x="624" 
d="M283 936h-140l129 539h224z" />
    <glyph glyph-name="uni02BA" unicode="&#x2ba;" horiz-adv-x="999" 
d="M657 938h-139l129 539h223zM283 936h-140l129 539h224z" />
    <glyph glyph-name="uni02BB" unicode="&#x2bb;" horiz-adv-x="0" 
d="M-678 1581h139l-73 -336h-217z" />
    <glyph glyph-name="uni02BC" unicode="&#x2bc;" horiz-adv-x="577" 
d="M279 1481q87 0 136.5 -69t49.5 -167q0 -108 -64.5 -204t-203.5 -148l-56 113q78 31 127 87t49 128q0 10 -2 16q-19 -8 -47 -8q-58 0 -92.5 35t-34.5 90t38 91t100 36z" />
    <glyph glyph-name="uni02BE" unicode="&#x2be;" horiz-adv-x="0" 
d="M-692 1659v115q123 0 202.5 -75.5t79.5 -189.5t-79.5 -189t-202.5 -75v115q65 0 108 42.5t43 106.5t-43 107t-108 43z" />
    <glyph glyph-name="uni02BF" unicode="&#x2bf;" horiz-adv-x="0" 
d="M-692 1360v-115q-124 0 -203.5 74.5t-79.5 189.5t79.5 190t203.5 75v-115q-65 0 -108.5 -43t-43.5 -107t43.5 -106.5t108.5 -42.5z" />
    <glyph glyph-name="circumflex" unicode="&#x2c6;" horiz-adv-x="1200" 
d="M762 1581l254 -328h-178l-181 201l-182 -201h-176l252 328h211z" />
    <glyph glyph-name="caron" unicode="&#x2c7;" horiz-adv-x="1200" 
d="M657 1380l181 201h178l-254 -328h-211l-252 328h176z" />
    <glyph glyph-name="uni02C8" unicode="&#x2c8;" horiz-adv-x="444" 
d="M307 1217h-170v464h170v-464z" />
    <glyph glyph-name="uni02C9" unicode="&#x2c9;" horiz-adv-x="1200" 
d="M1006 1307h-656v153h656v-153z" />
    <glyph glyph-name="uni02CA" unicode="&#x2ca;" horiz-adv-x="0" 
d="M-360 1581v-18l-283 -318h-188l243 336h228z" />
    <glyph glyph-name="uni02CB" unicode="&#x2cb;" horiz-adv-x="0" 
d="M-1020 1554v19h227l224 -320h-187z" />
    <glyph glyph-name="uni02CC" unicode="&#x2cc;" horiz-adv-x="444" 
d="M307 -565h-170v465h170v-465z" />
    <glyph glyph-name="breve" unicode="&#x2d8;" horiz-adv-x="1200" 
d="M610 1241q-149 0 -243.5 93t-94.5 247h144q1 -86 56.5 -138t137.5 -52t138 52t57 138h145q0 -154 -95.5 -247t-244.5 -93z" />
    <glyph glyph-name="dotaccent" unicode="&#x2d9;" horiz-adv-x="1202" 
d="M338 1284q-56 0 -92.5 34.5t-36.5 88.5t36.5 88.5t92.5 34.5t92.5 -34.5t36.5 -88.5t-36.5 -88.5t-92.5 -34.5z" />
    <glyph glyph-name="ring" unicode="&#x2da;" horiz-adv-x="1204" 
d="M612 1245q-124 0 -204 75t-80 191t80 191.5t204 75.5t204.5 -75.5t80.5 -191.5t-80.5 -191t-204.5 -75zM612 1366q63 0 105.5 41t42.5 104t-42.5 104.5t-105.5 41.5t-105 -41.5t-42 -104.5t42 -104t105 -41z" />
    <glyph glyph-name="ogonek" unicode="&#x2db;" horiz-adv-x="1200" 
d="M559 53l156 -53q-139 -59 -191.5 -101.5t-52.5 -80.5q0 -36 29 -56t75 -20q73 0 138 47l61 -117q-85 -73 -229 -73q-105 0 -174.5 49.5t-69.5 142.5q0 72 63.5 139.5t194.5 122.5z" />
    <glyph glyph-name="tilde" unicode="&#x2dc;" horiz-adv-x="1200" 
d="M668 1257q-48 0 -90.5 16.5t-73 40.5t-57.5 48t-54.5 40.5t-52.5 16.5q-87 0 -96 -151h-152q3 137 66.5 219t179.5 82q48 0 91 -17t73.5 -41t57 -48t54 -41t52.5 -17q43 0 69 39t29 112h151q-3 -137 -66.5 -218t-180.5 -81z" />
    <glyph glyph-name="hungarumlaut" unicode="&#x2dd;" horiz-adv-x="1200" 
d="M838 1581v-18l-187 -318h-157l147 336h197zM1198 1581v-18l-219 -318h-158l180 336h197z" />
    <glyph glyph-name="gravecomb" unicode="&#x300;" horiz-adv-x="0" 
d="M-1020 1554v19h227l224 -320h-187z" />
    <glyph glyph-name="acutecomb" unicode="&#x301;" horiz-adv-x="0" 
d="M-360 1581v-18l-283 -318h-188l243 336h228z" />
    <glyph glyph-name="uni0302" unicode="&#x302;" horiz-adv-x="0" 
d="M-586 1581l254 -328h-178l-182 201l-180 -201h-177l252 328h211z" />
    <glyph glyph-name="tildecomb" unicode="&#x303;" horiz-adv-x="0" 
d="M-528 1257q-58 0 -110 25.5t-83.5 55.5t-67.5 55.5t-67 25.5q-87 0 -96 -151h-152q3 137 66.5 219t179.5 82q48 0 91 -17t73.5 -41t57 -48t54 -41t52.5 -17q43 0 69 39t29 112h151q-3 -137 -66.5 -218t-180.5 -81z" />
    <glyph glyph-name="uni0304" unicode="&#x304;" horiz-adv-x="0" 
d="M-362 1307h-656v153h656v-153z" />
    <glyph glyph-name="uni0306" unicode="&#x306;" horiz-adv-x="0" 
d="M-690 1241q-149 0 -243.5 93t-94.5 247h143q1 -86 57 -138t138 -52t137.5 52t56.5 138h146q0 -154 -95.5 -247t-244.5 -93z" />
    <glyph glyph-name="uni0307" unicode="&#x307;" horiz-adv-x="0" 
d="M-692 1284q-56 0 -92.5 34.5t-36.5 88.5t36.5 88.5t92.5 34.5t92.5 -34.5t36.5 -88.5t-36.5 -88.5t-92.5 -34.5z" />
    <glyph glyph-name="uni0308" unicode="&#x308;" horiz-adv-x="0" 
d="M-905 1284q-56 0 -92.5 34.5t-36.5 88.5t36.5 88.5t92.5 34.5t92.5 -34.5t36.5 -88.5t-36.5 -88.5t-92.5 -34.5zM-449 1284q-56 0 -92.5 34.5t-36.5 88.5t36.5 88.5t92.5 34.5t93 -34.5t37 -88.5t-37 -88.5t-93 -34.5z" />
    <glyph glyph-name="hookabovecomb" unicode="&#x309;" horiz-adv-x="0" 
d="M-586 1241h-147v33q0 53 30 95t87 87q42 33 61.5 57.5t19.5 51.5q0 36 -31.5 56.5t-78.5 20.5q-58 0 -92.5 -29t-36.5 -75h-152q5 106 82.5 172t208.5 66q114 0 188 -58t74 -149q0 -52 -27 -93.5t-85 -91.5q-66 -58 -83.5 -78.5t-17.5 -45.5v-19z" />
    <glyph glyph-name="uni030A" unicode="&#x30a;" horiz-adv-x="0" 
d="M-694 1245q-124 0 -204.5 75t-80.5 191t80.5 191.5t204.5 75.5t204 -75.5t80 -191.5t-80 -191t-204 -75zM-694 1366q63 0 105 41t42 104t-42 104.5t-105 41.5t-105.5 -41.5t-42.5 -104.5t42.5 -104t105.5 -41z" />
    <glyph glyph-name="uni030B" unicode="&#x30b;" horiz-adv-x="0" 
d="M-621 1581v-18l-186 -318h-158l148 336h196zM-260 1581v-18l-219 -318h-158l180 336h197z" />
    <glyph glyph-name="uni030C" unicode="&#x30c;" horiz-adv-x="0" 
d="M-692 1380l182 201h178l-254 -328h-211l-252 328h177z" />
    <glyph glyph-name="uni030F" unicode="&#x30f;" horiz-adv-x="0" 
d="M-918 1245l-219 318v18h197l180 -336h-158zM-590 1245l-186 318v18h196l148 -336h-158z" />
    <glyph glyph-name="uni0311" unicode="&#x311;" horiz-adv-x="0" 
d="M-690 1585q149 0 244.5 -93t95.5 -247h-146q-1 86 -57 138.5t-137 52.5q-82 0 -138 -52.5t-57 -138.5h-143q0 154 94.5 247t243.5 93z" />
    <glyph glyph-name="uni0312" unicode="&#x312;" horiz-adv-x="0" 
d="M-678 1581h139l-73 -336h-217z" />
    <glyph glyph-name="uni031B" unicode="&#x31b;" horiz-adv-x="0" 
d="M-342 985h-131v131h104q158 0 158 141q0 73 -39 152h178q35 -60 35 -156q0 -130 -81.5 -199t-223.5 -69z" />
    <glyph glyph-name="dotbelowcomb" unicode="&#x323;" horiz-adv-x="0" 
d="M-692 -401q-56 0 -92.5 34t-36.5 88t36.5 88.5t92.5 34.5t92.5 -34.5t36.5 -88.5t-36.5 -88t-92.5 -34z" />
    <glyph glyph-name="uni0324" unicode="&#x324;" horiz-adv-x="0" 
d="M-905 -401q-56 0 -92.5 34t-36.5 88t36.5 88.5t92.5 34.5t92.5 -34.5t36.5 -88.5t-36.5 -88t-92.5 -34zM-449 -401q-56 0 -92.5 34t-36.5 88t36.5 88.5t92.5 34.5t93 -34.5t37 -88.5t-37 -88t-93 -34z" />
    <glyph glyph-name="uni0326" unicode="&#x326;" horiz-adv-x="0" 
d="M-702 -436h-140l76 315h217z" />
    <glyph glyph-name="uni0327" unicode="&#x327;" horiz-adv-x="0" 
d="M-612 -74q106 0 170.5 -51t64.5 -127q0 -87 -82 -138.5t-221 -51.5q-185 0 -303 73l63 103q116 -62 236 -62q68 0 102.5 20.5t34.5 55.5q0 33 -34.5 53.5t-100.5 20.5q-59 0 -121 -19l-43 31l152 205h151l-108 -115q12 2 39 2z" />
    <glyph glyph-name="uni0328" unicode="&#x328;" horiz-adv-x="0" 
d="M-379 53l156 -53q-139 -59 -191.5 -101.5t-52.5 -80.5q0 -36 29.5 -56t75.5 -20q72 0 137 47l61 -117q-85 -73 -229 -73q-105 0 -174.5 49.5t-69.5 142.5q0 72 63.5 139.5t194.5 122.5z" />
    <glyph glyph-name="uni032E" unicode="&#x32e;" horiz-adv-x="0" 
d="M-692 -442q-149 0 -243.5 93t-94.5 247h143q1 -86 57 -138.5t138 -52.5q81 0 137 52.5t57 138.5h146q0 -154 -95.5 -247t-244.5 -93z" />
    <glyph glyph-name="uni0331" unicode="&#x331;" horiz-adv-x="0" 
d="M-362 -358h-656v153h656v-153z" />
    <glyph glyph-name="Xi" unicode="&#x39e;" horiz-adv-x="1335" 
d="M1217 1294h-1098v181h1098v-181zM1061 680h-787v182h787v-182zM1217 0h-1098v180h1098v-180z" />
    <glyph glyph-name="pi" unicode="&#x3c0;" horiz-adv-x="1511" 
d="M1444 1116v-166h-291v-686q0 -55 30.5 -80.5t80.5 -25.5q47 0 88 16v-172q-56 -22 -129 -22q-122 0 -194.5 65.5t-72.5 181.5v723h-428v-950h-196v950h-291v166h1403z" />
    <glyph glyph-name="uni0400" unicode="&#x400;" horiz-adv-x="1447" 
d="M668 1931l223 -319h-186l-265 301v18h228zM410 180h929l37 -180h-1171v1475h1151l-37 -181h-909v-432h624v-182h-624v-500z" />
    <glyph glyph-name="uni0401" unicode="&#x401;" horiz-adv-x="1447" 
d="M541 1642q-56 0 -92.5 34.5t-36.5 88.5t36.5 88.5t92.5 34.5t92.5 -34.5t36.5 -88.5t-36.5 -88.5t-92.5 -34.5zM997 1642q-56 0 -92.5 34.5t-36.5 88.5t36.5 88.5t92.5 34.5t92.5 -34.5t36.5 -88.5t-36.5 -88.5t-92.5 -34.5zM410 180h929l37 -180h-1171v1475h1151
l-37 -181h-909v-432h624v-182h-624v-500z" />
    <glyph glyph-name="uni0402" unicode="&#x402;" horiz-adv-x="1878" 
d="M1188 903q279 0 437.5 -124t158.5 -353q0 -217 -144 -331.5t-411 -114.5q-104 0 -182 16v184q88 -16 182 -16q165 0 255.5 66t90.5 196q0 145 -105 221t-303 76q-213 0 -424 -61v-662h-204v1294h-476v181h1371v-181h-691v-463q97 33 217.5 52.5t227.5 19.5z" />
    <glyph glyph-name="uni0403" unicode="&#x403;" horiz-adv-x="1331" 
d="M1038 1939v-18l-282 -317h-189l244 335h227zM1264 1475v-185h-854v-1290h-205v1475h1059z" />
    <glyph glyph-name="uni0404" unicode="&#x404;" horiz-adv-x="1556" 
d="M1356 322l133 -142q-96 -105 -243.5 -156t-313.5 -51q-232 0 -419 99t-292.5 274t-105.5 391t105.5 391t290 274t411.5 99q168 0 315.5 -54t239.5 -155l-131 -143q-173 170 -424 170q-218 0 -382 -130.5t-204 -336.5h835v-178h-841q23 -226 192 -372t410 -146
q120 0 230.5 41t193.5 125z" />
    <glyph glyph-name="uni0405" unicode="&#x405;" horiz-adv-x="1460" 
d="M750 -23q-187 0 -361.5 59.5t-290.5 162.5l129 155q110 -94 247.5 -143t277.5 -49q172 0 280.5 69.5t108.5 182.5q0 85 -69.5 140.5t-217.5 84.5l-311 59q-197 38 -298.5 134t-101.5 241q0 128 79 226t214.5 149t306.5 51q158 0 307 -47.5t263 -151.5l-121 -149
q-196 166 -457 166q-163 0 -274 -65.5t-111 -166.5q0 -72 66.5 -119.5t210.5 -74.5l299 -57q212 -40 317 -147.5t105 -262.5q0 -201 -162.5 -324t-435.5 -123z" />
    <glyph glyph-name="uni0406" unicode="&#x406;" horiz-adv-x="614" 
d="M205 0v1475h205v-1475h-205z" />
    <glyph glyph-name="uni0407" unicode="&#x407;" horiz-adv-x="614" 
d="M106 1642q-56 0 -92.5 34.5t-36.5 88.5t36.5 88.5t92.5 34.5t93 -34.5t37 -88.5t-37 -88.5t-93 -34.5zM506 1642q-56 0 -92.5 34.5t-36.5 88.5t36.5 88.5t92.5 34.5t92.5 -34.5t36.5 -88.5t-36.5 -88.5t-92.5 -34.5zM205 0v1475h205v-1475h-205z" />
    <glyph glyph-name="uni0408" unicode="&#x408;" horiz-adv-x="1255" 
d="M858 459v1016h205v-1020q0 -224 -137 -353t-357 -129q-144 0 -253.5 54.5t-175 168t-66.5 273.5h200q3 -86 28 -148t67.5 -96t91 -49.5t106.5 -15.5q134 0 212.5 78t78.5 221z" />
    <glyph glyph-name="uni0409" unicode="&#x409;" horiz-adv-x="2482" 
d="M1407 938h465q246 0 386 -132t140 -337t-140 -337t-386 -132h-670v1292h-639q-23 -573 -55 -925q-15 -173 -112.5 -275t-248.5 -102q-44 0 -102 10v190q39 -8 74 -8q85 0 136 58.5t62 165.5q41 395 60 1069h1030v-537zM1407 182h459q152 0 238.5 78.5t86.5 208.5
t-86.5 208.5t-238.5 78.5h-459v-574z" />
    <glyph glyph-name="uni040A" unicode="&#x40a;" horiz-adv-x="2519" 
d="M1446 901h485q237 0 371.5 -126.5t134.5 -323.5t-134.5 -324t-371.5 -127h-690v719h-831v-719h-205v1475h205v-574h831v574h205v-574zM1446 182h479q143 0 224 73.5t81 195.5t-81 195t-224 73h-479v-537z" />
    <glyph glyph-name="uni040B" unicode="&#x40b;" horiz-adv-x="1890" 
d="M1204 887q258 0 413 -128.5t155 -348.5v-410h-205v389q0 150 -100.5 234t-282.5 84q-94 0 -216 -18.5t-225 -47.5v-641h-204v1294h-476v181h1371v-181h-691v-483q100 34 227 55t234 21z" />
    <glyph glyph-name="uni040C" unicode="&#x40c;" horiz-adv-x="1564" 
d="M1102 1939v-18l-283 -317h-188l243 335h228zM1552 0h-254l-524 698h-364v-698h-205v1475h205v-594h360l498 594h241l-565 -670z" />
    <glyph glyph-name="uni040D" unicode="&#x40d;" horiz-adv-x="1757" 
d="M772 1931l223 -319h-186l-264 301v18h227zM410 258l931 1217h211v-1475h-204v1208l-926 -1208h-217v1475h205v-1217z" />
    <glyph glyph-name="uni040E" unicode="&#x40e;" horiz-adv-x="1511" 
d="M782 1599q-154 0 -252 92.5t-98 247.5h158q0 -91 54.5 -146.5t137.5 -55.5t138 55.5t55 146.5h160q0 -154 -99 -247t-254 -93zM795 528l471 947h223l-647 -1254q-129 -248 -393 -248q-124 0 -222 45l49 170q86 -34 164 -34q156 0 228 141l16 33l-608 1147h233z" />
    <glyph glyph-name="uni040F" unicode="&#x40f;" horiz-adv-x="1708" 
d="M1298 180v1295h205v-1475h-555v-328h-188v328h-555v1475h205v-1295h888z" />
    <glyph glyph-name="uni0410" unicode="&#x410;" 
d="M1524 0h-219l-158 393h-735l-160 -393h-215l618 1475h252zM780 1300l-297 -731h592z" />
    <glyph glyph-name="uni0411" unicode="&#x411;" horiz-adv-x="1525" 
d="M410 862h528q233 0 364.5 -120t131.5 -310t-131.5 -311t-364.5 -121h-733v1475h1100v-181h-895v-432zM410 182h522q138 0 216.5 67.5t78.5 182.5t-78.5 182.5t-216.5 67.5h-522v-500z" />
    <glyph glyph-name="uni0412" unicode="&#x412;" horiz-adv-x="1585" 
d="M1178 784q153 -38 227 -138t74 -234q0 -181 -132 -296.5t-366 -115.5h-776v1475h710q210 0 327.5 -108.5t117.5 -274.5q0 -95 -43.5 -177t-138.5 -131zM891 1298h-483v-458h493q131 0 193.5 66.5t62.5 164.5q0 103 -68 165t-198 62zM408 176h557q144 0 224.5 66t80.5 182
q0 111 -76.5 176.5t-210.5 65.5h-575v-490z" />
    <glyph glyph-name="uni0413" unicode="&#x413;" horiz-adv-x="1331" 
d="M1264 1475v-185h-854v-1290h-205v1475h1059z" />
    <glyph glyph-name="uni0414" unicode="&#x414;" horiz-adv-x="1802" 
d="M1528 1475v-1295h180v-508h-188v328h-1278v-328h-189v508h150q45 55 79 154.5t44 214.5q40 445 53 926h1149zM412 180h911v1114h-760q-16 -391 -49 -768q-22 -227 -102 -346z" />
    <glyph glyph-name="uni0415" unicode="&#x415;" horiz-adv-x="1447" 
d="M410 180h929l37 -180h-1171v1475h1151l-37 -181h-909v-432h624v-182h-624v-500z" />
    <glyph glyph-name="uni0416" unicode="&#x416;" horiz-adv-x="2322" 
d="M2300 0h-242l-487 698h-307v-698h-205v698h-307l-488 -698h-241l565 805l-522 670h229l461 -594h303v594h205v-594h303l461 594h229l-522 -670z" />
    <glyph glyph-name="uni0417" unicode="&#x417;" horiz-adv-x="1425" 
d="M997 788q152 -41 233 -135.5t81 -232.5q0 -201 -169 -324t-448 -123q-186 0 -353.5 56t-268.5 151l121 152q92 -81 222 -127.5t281 -46.5q192 0 298 70t106 196q0 121 -95.5 188.5t-267.5 67.5h-307v178h277q159 0 248 62t89 170q0 106 -92 166.5t-256 60.5
q-133 0 -250.5 -45t-207.5 -121l-117 154q99 91 249 143.5t324 52.5q252 0 403.5 -109.5t151.5 -289.5q0 -112 -64.5 -192.5t-187.5 -121.5z" />
    <glyph glyph-name="uni0418" unicode="&#x418;" horiz-adv-x="1757" 
d="M410 258l931 1217h211v-1475h-204v1208l-926 -1208h-217v1475h205v-1217z" />
    <glyph glyph-name="uni0419" unicode="&#x419;" horiz-adv-x="1757" 
d="M874 1599q-154 0 -252 92.5t-98 247.5h158q0 -91 54.5 -146.5t137.5 -55.5t138 55.5t55 146.5h160q0 -154 -99 -247t-254 -93zM410 258l931 1217h211v-1475h-204v1208l-926 -1208h-217v1475h205v-1217z" />
    <glyph glyph-name="uni041A" unicode="&#x41a;" horiz-adv-x="1564" 
d="M1552 0h-254l-524 698h-364v-698h-205v1475h205v-594h360l498 594h241l-565 -670z" />
    <glyph glyph-name="uni041B" unicode="&#x41b;" horiz-adv-x="1718" 
d="M1513 1475v-1475h-204v1292h-746q-23 -573 -55 -925q-15 -173 -112.5 -275t-248.5 -102q-44 0 -102 10v190q39 -8 74 -8q85 0 136 58.5t62 165.5q41 395 60 1069h1136z" />
    <glyph glyph-name="uni041C" unicode="&#x41c;" horiz-adv-x="2060" 
d="M1855 1475v-1475h-198v1225l-559 -1194h-142l-553 1173v-1204h-198v1475h276l549 -1174l549 1174h276z" />
    <glyph glyph-name="uni041D" unicode="&#x41d;" horiz-adv-x="1740" 
d="M1331 881v594h205v-1475h-205v698h-921v-698h-205v1475h205v-594h921z" />
    <glyph glyph-name="uni041E" unicode="&#x41e;" horiz-adv-x="1781" 
d="M891 -27q-223 0 -399.5 98t-275.5 272.5t-99 393.5t99 393.5t275.5 272.5t399.5 98t399.5 -98t275.5 -272.5t99 -393.5t-99 -393.5t-275.5 -272.5t-399.5 -98zM891 160q246 0 403.5 162t157.5 415t-157.5 415.5t-403.5 162.5t-403.5 -162.5t-157.5 -415.5t157.5 -415
t403.5 -162z" />
    <glyph glyph-name="uni041F" unicode="&#x41f;" horiz-adv-x="1716" 
d="M1511 1475v-1475h-204v1292h-897v-1292h-205v1475h1306z" />
    <glyph glyph-name="uni0420" unicode="&#x420;" horiz-adv-x="1499" 
d="M924 1475q235 0 364 -122t129 -317q0 -196 -129 -318t-364 -122h-514v-596h-205v1475h719zM410 778h508q139 0 215.5 69t76.5 189t-76 188t-216 68h-508v-514z" />
    <glyph glyph-name="uni0421" unicode="&#x421;" 
d="M932 -27q-232 0 -419 99t-292.5 274t-105.5 391t105.5 391t290 274t411.5 99q168 0 315.5 -54t239.5 -155l-131 -143q-169 166 -424 166q-162 0 -298 -74.5t-216 -207.5t-80 -296t79 -295.5t217.5 -207t307.5 -74.5q121 0 232 40t192 122l133 -142q-96 -105 -243.5 -156
t-313.5 -51z" />
    <glyph glyph-name="uni0422" unicode="&#x422;" horiz-adv-x="1372" 
d="M1309 1475v-185h-521v-1290h-204v1290h-521v185h1246z" />
    <glyph glyph-name="uni0423" unicode="&#x423;" horiz-adv-x="1511" 
d="M795 528l471 947h223l-647 -1254q-129 -248 -393 -248q-124 0 -222 45l49 170q86 -34 164 -34q156 0 228 141l16 33l-608 1147h233z" />
    <glyph glyph-name="uni0424" unicode="&#x424;" horiz-adv-x="1970" 
d="M1864 750q0 -184 -98.5 -326t-275 -220.5t-405.5 -82.5v-162h-200v162q-229 4 -405.5 82.5t-275 220.5t-98.5 326t98.5 325.5t275 220t405.5 82.5v154h200v-154q229 -4 405.5 -82.5t275 -220t98.5 -325.5zM315 750q0 -137 74 -239t202 -155t294 -57v901q-166 -4 -294 -57
t-202 -154.5t-74 -238.5zM1085 1200v-901q166 4 294 57t202 155t74 239t-74 238.5t-202 154.5t-294 57z" />
    <glyph glyph-name="uni0425" unicode="&#x425;" horiz-adv-x="1437" 
d="M844 766l569 -766h-254l-442 612l-447 -612h-243l569 756l-545 719h254l420 -566l412 566h243z" />
    <glyph glyph-name="uni0426" unicode="&#x426;" horiz-adv-x="1761" 
d="M1487 1475v-1295h180v-508h-188v328h-1274v1475h205v-1295h872v1295h205z" />
    <glyph glyph-name="uni0427" unicode="&#x427;" horiz-adv-x="1587" 
d="M1178 797v678h204v-1475h-204v623q-100 -34 -227 -55t-234 -21q-272 0 -436 140t-164 374v414h205v-394q0 -167 108.5 -258.5t306.5 -91.5q93 0 215.5 18.5t225.5 47.5z" />
    <glyph glyph-name="uni0428" unicode="&#x428;" horiz-adv-x="2367" 
d="M1958 180v1295h205v-1475h-1958v1475h205v-1295h671v1295h205v-1295h672z" />
    <glyph glyph-name="uni0429" unicode="&#x429;" horiz-adv-x="2437" 
d="M2163 1475v-1295h180v-508h-189v328h-1949v1475h205v-1295h671v1295h205v-1295h672v1295h205z" />
    <glyph glyph-name="uni042A" unicode="&#x42a;" horiz-adv-x="1843" 
d="M743 938h490q246 0 386 -132t140 -337t-140 -337t-386 -132h-694v1292h-476v183h680v-537zM743 182h484q152 0 238.5 78.5t86.5 208.5t-86.5 208.5t-238.5 78.5h-484v-574z" />
    <glyph glyph-name="uni042B" unicode="&#x42b;" horiz-adv-x="2027" 
d="M410 938h497q246 0 386.5 -132t140.5 -337t-140.5 -337t-386.5 -132h-702v1475h205v-537zM1618 0v1475h205v-1475h-205zM410 182h491q152 0 239 79t87 208t-87 208t-239 79h-491v-574z" />
    <glyph glyph-name="uni042C" unicode="&#x42c;" horiz-adv-x="1517" 
d="M410 938h497q246 0 386.5 -132t140.5 -337t-140.5 -337t-386.5 -132h-702v1475h205v-537zM410 182h491q152 0 239 79t87 208t-87 208t-239 79h-491v-574z" />
    <glyph glyph-name="uni042D" unicode="&#x42d;" horiz-adv-x="1556" 
d="M635 1501q227 0 411.5 -99t290 -274t105.5 -391t-105.5 -391t-292.5 -274t-419 -99q-166 0 -313.5 51t-243.5 156l133 142q83 -84 193.5 -125t230.5 -41q241 0 410 146t192 372h-842v178h836q-40 206 -204 336.5t-382 130.5q-251 0 -424 -170l-131 143q92 101 239.5 155
t315.5 54z" />
    <glyph glyph-name="uni042E" unicode="&#x42e;" horiz-adv-x="2324" 
d="M1440 1501q220 0 395 -98t273 -272.5t98 -393.5t-98 -393.5t-273 -272.5t-395 -98q-214 0 -386 92.5t-271.5 258t-108.5 376.5h-264v-700h-205v1475h205v-596h274q46 278 253 450t503 172zM1440 160q243 0 398 161.5t155 415.5t-155 416t-398 162t-398 -162t-155 -416
t155 -415.5t398 -161.5z" />
    <glyph glyph-name="uni042F" unicode="&#x42f;" horiz-adv-x="1583" 
d="M1378 1475v-1475h-202v592h-463l-391 -592h-228l404 604q-165 33 -260 149.5t-95 278.5q0 191 129 317t344 126h762zM647 772h529v520h-529q-139 0 -218 -71.5t-79 -188.5t79 -188.5t218 -71.5z" />
    <glyph glyph-name="uni0430" unicode="&#x430;" horiz-adv-x="1325" 
d="M1231 162q34 0 57 10v-164q-37 -16 -96 -16q-93 0 -161 47t-79 137q-67 -99 -183.5 -150t-252.5 -51q-121 0 -218.5 37.5t-158.5 117t-61 189.5q0 168 144.5 263.5t428.5 95.5h295v14q0 129 -87 201t-234 72q-95 0 -189 -30.5t-164 -88.5l-108 143q88 76 213 114t256 38
q232 0 369 -117t137 -322v-450q0 -90 92 -90zM532 145q56 0 109.5 11t107.5 38.5t95 68.5t69 106t33 147h-291q-381 0 -381 -190q0 -85 70.5 -133t187.5 -48z" />
    <glyph glyph-name="uni0431" unicode="&#x431;" horiz-adv-x="1443" 
d="M766 1090q120 0 227.5 -44.5t183.5 -120t120 -178t44 -215.5q0 -112 -43.5 -214t-120.5 -178.5t-190 -121.5t-244 -45q-132 0 -243 46t-194.5 135t-130 230t-46.5 321q0 374 160 573t483 233q4 0 93.5 8.5t140.5 14.5t127 17.5t122 23.5v-184q-72 -22 -168 -33t-284 -25
q-239 -19 -360 -145.5t-152 -396.5q68 145 190 222t285 77zM743 154q172 0 285 110t113 268t-113 268.5t-285 110.5q-170 0 -282.5 -109t-112.5 -267q0 -159 112.5 -270t282.5 -111z" />
    <glyph glyph-name="uni0432" unicode="&#x432;" horiz-adv-x="1296" 
d="M977 598q113 -30 168 -106.5t55 -174.5q0 -140 -105.5 -228.5t-291.5 -88.5h-619v1116h570q167 0 260.5 -83t93.5 -212q0 -151 -131 -223zM729 948h-350v-297h360q85 0 129.5 42.5t44.5 107.5q0 68 -47.5 107.5t-136.5 39.5zM379 168h407q102 0 157.5 43t55.5 117
q0 72 -52 114.5t-142 42.5h-426v-317z" />
    <glyph glyph-name="uni0433" unicode="&#x433;" horiz-adv-x="1042" 
d="M991 1116v-174h-610v-942h-197v1116h807z" />
    <glyph glyph-name="uni0434" unicode="&#x434;" horiz-adv-x="1476" 
d="M1221 1116v-944h172v-475h-181v303h-987v-303h-180v475h125q43 52 75 144t42 208q22 250 32 592h902zM371 172h653v772h-528q-6 -164 -29 -442q-19 -214 -96 -330z" />
    <glyph glyph-name="uni0435" unicode="&#x435;" horiz-adv-x="1353" 
d="M1262 555q0 -29 -9 -72h-948q23 -154 135 -243.5t285 -89.5q215 0 348 133l117 -136q-70 -78 -189.5 -126t-277.5 -48q-282 0 -451.5 165.5t-169.5 420.5q0 162 72 295t206 211t304 78q130 0 240 -46.5t183 -126t114 -187t41 -228.5zM684 967q-148 0 -250.5 -86.5
t-128.5 -235.5h758q-21 142 -123 232t-256 90z" />
    <glyph glyph-name="uni0436" unicode="&#x436;" horiz-adv-x="1937" 
d="M1919 0h-233l-390 510h-231v-510h-193v510h-231l-389 -510h-234l471 612l-430 504h222l364 -432h227v432h193v-432h227l365 432h221l-430 -504z" />
    <glyph glyph-name="uni0437" unicode="&#x437;" horiz-adv-x="1155" 
d="M829 596q108 -36 166 -105.5t58 -168.5q0 -157 -134.5 -252t-357.5 -95q-152 0 -287 44.5t-219 121.5l115 144q73 -62 173.5 -97.5t217.5 -35.5q138 0 214.5 46t76.5 128q0 80 -69 126t-193 46h-244v166h223q112 0 176 41t64 112q0 68 -66 108t-182 40q-201 0 -356 -127
l-111 145q78 71 201.5 114.5t265.5 43.5q200 0 322.5 -87t122.5 -227q0 -162 -177 -231z" />
    <glyph glyph-name="uni0438" unicode="&#x438;" horiz-adv-x="1421" 
d="M381 250l655 866h201v-1116h-197v858l-649 -858h-207v1116h197v-866z" />
    <glyph glyph-name="uni0439" unicode="&#x439;" horiz-adv-x="1421" 
d="M707 1241q-155 0 -253 92.5t-98 247.5h158q0 -91 55 -147t138 -56t137.5 56t54.5 147h160q0 -154 -98.5 -247t-253.5 -93zM381 250l655 866h201v-1116h-197v858l-649 -858h-207v1116h197v-866z" />
    <glyph glyph-name="uni043A" unicode="&#x43a;" horiz-adv-x="1300" 
d="M1300 0h-245l-424 510h-250v-510h-197v1116h197v-432h246l399 432h234l-472 -504z" />
    <glyph glyph-name="uni043B" unicode="&#x43b;" horiz-adv-x="1370" 
d="M1186 1116v-1116h-197v944h-504q-12 -298 -39 -602q-15 -168 -98 -260t-217 -92q-45 0 -86 8v180q30 -6 57 -6q61 0 106.5 52t55.5 157q30 290 43 735h879z" />
    <glyph glyph-name="uni043C" unicode="&#x43c;" horiz-adv-x="1699" 
d="M1516 1116v-1116h-191v891l-412 -868h-133l-405 851v-874h-191v1116h267l401 -846l397 846h267z" />
    <glyph glyph-name="uni043D" unicode="&#x43d;" horiz-adv-x="1404" 
d="M1024 684v432h197v-1116h-197v510h-643v-510h-197v1116h197v-432h643z" />
    <glyph glyph-name="uni043E" unicode="&#x43e;" horiz-adv-x="1404" 
d="M702 -27q-173 0 -311 78t-213.5 211.5t-75.5 296.5t75.5 296t213 210.5t311.5 77.5q130 0 242.5 -45.5t191 -123.5t123 -185.5t44.5 -229.5t-44.5 -230t-123 -186.5t-191 -124t-242.5 -45.5zM702 154q170 0 285 115.5t115 289.5t-115 289t-285 115t-284.5 -115
t-114.5 -289t114.5 -289.5t284.5 -115.5z" />
    <glyph glyph-name="uni043F" unicode="&#x43f;" horiz-adv-x="1388" 
d="M1204 1116v-1116h-196v944h-627v-944h-197v1116h1020z" />
    <glyph glyph-name="uni0440" unicode="&#x440;" horiz-adv-x="1472" 
d="M801 1143q163 0 293.5 -77t203 -210.5t72.5 -296.5q0 -164 -72.5 -297.5t-203 -211t-293.5 -77.5q-134 0 -241.5 52.5t-178.5 146.5v-541h-197v1485h187v-186q71 100 181 156.5t249 56.5zM778 154q170 0 280.5 114t110.5 291q0 175 -110.5 289.5t-280.5 114.5
t-286.5 -112.5t-116.5 -291.5q0 -180 116.5 -292.5t286.5 -112.5z" />
    <glyph glyph-name="uni0441" unicode="&#x441;" horiz-adv-x="1228" 
d="M729 -27q-279 0 -454 166t-175 418q0 166 79.5 300t223 210t324.5 76q259 0 426 -160l-119 -143q-128 125 -311 125q-176 0 -299 -113.5t-123 -292.5q0 -180 123.5 -292.5t302.5 -112.5q94 0 177 31.5t138 88.5l119 -139q-69 -76 -181 -119t-251 -43z" />
    <glyph glyph-name="uni0442" unicode="&#x442;" horiz-adv-x="1093" 
d="M1042 1116v-174h-397v-942h-196v942h-398v174h991z" />
    <glyph glyph-name="uni0443" unicode="&#x443;" horiz-adv-x="1269" 
d="M641 219l383 897h213l-565 -1253q-114 -252 -365 -252q-133 0 -246 55l58 164q98 -45 180 -45q141 0 209 147l35 76l-510 1108h219z" />
    <glyph glyph-name="uni0444" unicode="&#x444;" horiz-adv-x="1716" 
d="M1616 559q0 -171 -88 -303t-237.5 -204t-336.5 -79v-342h-192v342q-187 7 -336.5 79t-237.5 204t-88 303t88 302.5t237.5 203t336.5 78.5v397h192v-397q187 -7 336.5 -78.5t237.5 -203t88 -302.5zM297 559q0 -126 63 -218.5t166 -139t236 -51.5v817q-99 -4 -182.5 -32
t-147 -78t-99.5 -126.5t-36 -171.5zM954 967v-817q133 5 236 51.5t166 139t63 218.5q0 95 -36 171.5t-99.5 126.5t-147 78t-182.5 32z" />
    <glyph glyph-name="uni0445" unicode="&#x445;" horiz-adv-x="1224" 
d="M731 580l469 -580h-244l-346 438l-356 -438h-231l473 569l-447 547h244l325 -405l324 405h232z" />
    <glyph glyph-name="uni0446" unicode="&#x446;" horiz-adv-x="1443" 
d="M1188 1116v-944h172v-475h-180v303h-996v1116h197v-944h610v944h197z" />
    <glyph glyph-name="uni0447" unicode="&#x447;" horiz-adv-x="1271" 
d="M891 614v502h196v-1116h-196v446q-154 -53 -326 -53q-212 0 -339.5 108.5t-127.5 289.5v325h197v-303q0 -116 76.5 -180t214.5 -64q142 0 305 45z" />
    <glyph glyph-name="uni0448" unicode="&#x448;" horiz-adv-x="2031" 
d="M1651 172v944h196v-1116h-1663v1116h197v-944h537v944h196v-944h537z" />
    <glyph glyph-name="uni0449" unicode="&#x449;" horiz-adv-x="2103" 
d="M1847 1116v-944h172v-475h-180v303h-1655v1116h197v-944h537v944h196v-944h537v944h196z" />
    <glyph glyph-name="uni044A" unicode="&#x44a;" horiz-adv-x="1441" 
d="M592 741h358q195 0 306.5 -104.5t111.5 -265.5t-111.5 -266t-306.5 -105h-555v942h-344v174h541v-375zM592 174h354q102 0 162.5 55t60.5 142t-60.5 141.5t-162.5 54.5h-354v-393z" />
    <glyph glyph-name="uni044B" unicode="&#x44b;" horiz-adv-x="1720" 
d="M381 741h367q195 0 306 -104.5t111 -265.5t-111 -266t-306 -105h-564v1116h197v-375zM1354 0v1116h196v-1116h-196zM381 174h362q102 0 163 55t61 142t-61 141.5t-163 54.5h-362v-393z" />
    <glyph glyph-name="uni044C" unicode="&#x44c;" horiz-adv-x="1239" 
d="M381 741h367q195 0 306 -104.5t111 -265.5t-111 -266t-306 -105h-564v1116h197v-375zM381 174h362q102 0 163 55t61 142t-61 141.5t-163 54.5h-362v-393z" />
    <glyph glyph-name="uni044D" unicode="&#x44d;" horiz-adv-x="1232" 
d="M506 1143q181 0 324.5 -76t223 -210t79.5 -300q0 -252 -175 -418t-454 -166q-139 0 -251 43t-181 119l118 139q57 -59 140 -91.5t176 -32.5q164 0 283.5 94t142.5 250h-578v165h570q-32 141 -147.5 225.5t-266.5 84.5q-179 0 -311 -129l-119 143q167 160 426 160z" />
    <glyph glyph-name="uni044E" unicode="&#x44e;" horiz-adv-x="1896" 
d="M1202 1143q172 0 308 -77.5t210 -210.5t74 -296t-74 -296.5t-210.5 -211.5t-307.5 -78q-246 0 -409 153t-181 386h-231v-512h-197v1116h197v-434h242q39 203 196.5 332t382.5 129zM1202 154q166 0 278.5 115.5t112.5 289.5t-112 289t-279 115t-279 -115t-112 -289
t112.5 -289.5t278.5 -115.5z" />
    <glyph glyph-name="uni044F" unicode="&#x44f;" horiz-adv-x="1296" 
d="M1112 1116v-1116h-194v406h-330l-287 -406h-217l301 422q-121 33 -189.5 124.5t-68.5 213.5q0 153 105 254.5t280 101.5h600zM545 578h373v364h-373q-102 0 -160.5 -49.5t-58.5 -132.5q0 -84 58.5 -133t160.5 -49z" />
    <glyph glyph-name="uni0450" unicode="&#x450;" horiz-adv-x="1353" 
d="M584 1573l223 -320h-186l-265 301v19h228zM1262 555q0 -29 -9 -72h-948q23 -154 135 -243.5t285 -89.5q215 0 348 133l117 -136q-70 -78 -189.5 -126t-277.5 -48q-282 0 -451.5 165.5t-169.5 420.5q0 162 72 295t206 211t304 78q130 0 240 -46.5t183 -126t114 -187
t41 -228.5zM684 967q-148 0 -250.5 -86.5t-128.5 -235.5h758q-21 142 -123 232t-256 90z" />
    <glyph glyph-name="uni0451" unicode="&#x451;" horiz-adv-x="1353" 
d="M457 1284q-56 0 -92.5 34.5t-36.5 88.5t36.5 88.5t92.5 34.5t92.5 -34.5t36.5 -88.5t-36.5 -88.5t-92.5 -34.5zM913 1284q-56 0 -92.5 34.5t-36.5 88.5t36.5 88.5t92.5 34.5t92.5 -34.5t36.5 -88.5t-36.5 -88.5t-92.5 -34.5zM1262 555q0 -29 -9 -72h-948
q23 -154 135 -243.5t285 -89.5q215 0 348 133l117 -136q-70 -78 -189.5 -126t-277.5 -48q-282 0 -451.5 165.5t-169.5 420.5q0 162 72 295t206 211t304 78q130 0 240 -46.5t183 -126t114 -187t41 -228.5zM684 967q-148 0 -250.5 -86.5t-128.5 -235.5h758q-21 142 -123 232
t-256 90z" />
    <glyph glyph-name="uni0452" unicode="&#x452;" horiz-adv-x="1374" 
d="M768 1130q248 0 359.5 -145.5t111.5 -458.5q0 -367 -138 -584.5t-419 -293.5l-59 172q211 57 313 231t102 475q0 219 -66.5 320.5t-240.5 101.5q-156 0 -253 -82.5t-97 -210.5v-655h-197v1245h-170v146h170v149h197v-149h410v-146h-410v-287q69 90 171 131t216 41z" />
    <glyph glyph-name="uni0453" unicode="&#x453;" horiz-adv-x="1042" 
d="M899 1581v-18l-283 -318h-188l244 336h227zM991 1116v-174h-610v-942h-197v1116h807z" />
    <glyph glyph-name="uni0454" unicode="&#x454;" horiz-adv-x="1232" 
d="M1042 274l119 -139q-69 -76 -181 -119t-251 -43q-279 0 -454 166t-175 418q0 166 79.5 300t223 210t324.5 76q259 0 426 -160l-119 -143q-132 129 -311 129q-151 0 -266.5 -84.5t-147.5 -225.5h570v-165h-578q23 -156 142.5 -250t283.5 -94q93 0 175.5 32.5t139.5 91.5z
" />
    <glyph glyph-name="uni0455" unicode="&#x455;" horiz-adv-x="1210" 
d="M86 147l102 154q80 -64 197 -106.5t242 -42.5q129 0 206.5 46t77.5 119q0 53 -42 84t-124 45l-296 54q-164 30 -244 107t-80 190q0 153 131 247.5t354 94.5q285 0 480 -150l-105 -145q-72 57 -176.5 92t-210.5 35q-119 0 -195.5 -44.5t-76.5 -115.5q0 -48 43.5 -78.5
t144.5 -48.5l277 -49q163 -30 242 -108t79 -193q0 -157 -134 -255.5t-351 -98.5q-146 0 -296.5 45t-244.5 122z" />
    <glyph glyph-name="uni0456" unicode="&#x456;" horiz-adv-x="565" 
d="M283 1284q-56 0 -92.5 34.5t-36.5 88.5t36.5 88.5t92.5 34.5t92.5 -34.5t36.5 -88.5t-36.5 -88.5t-92.5 -34.5zM381 0h-197v1116h197v-1116z" />
    <glyph glyph-name="uni0457" unicode="&#x457;" horiz-adv-x="565" 
d="M82 1284q-56 0 -92.5 34.5t-36.5 88.5t36.5 88.5t92.5 34.5t92.5 -34.5t36.5 -88.5t-36.5 -88.5t-92.5 -34.5zM481 1284q-56 0 -92.5 34.5t-36.5 88.5t36.5 88.5t92.5 34.5t92.5 -34.5t36.5 -88.5t-36.5 -88.5t-92.5 -34.5zM381 0h-197v1116h197v-1116z" />
    <glyph glyph-name="uni0458" unicode="&#x458;" horiz-adv-x="581" 
d="M299 1284q-56 0 -92.5 34.5t-36.5 88.5t36.5 88.5t92.5 34.5t92.5 -34.5t36.5 -88.5t-36.5 -88.5t-92.5 -34.5zM82 -385q-73 0 -135 20v172q47 -18 98 -18q73 0 114.5 38.5t41.5 104.5v1184h196v-1202q0 -138 -84.5 -218.5t-230.5 -80.5z" />
    <glyph glyph-name="uni0459" unicode="&#x459;" horiz-adv-x="1953" 
d="M1128 741h334q195 0 306.5 -104.5t111.5 -265.5t-111.5 -266t-306.5 -105h-530v944h-447q-12 -298 -39 -602q-15 -168 -98 -260t-217 -92q-45 0 -86 8v180q30 -6 57 -6q61 0 106.5 52t55.5 157q30 290 43 735h821v-375zM1128 174h330q102 0 162.5 55t60.5 142
t-60.5 141.5t-162.5 54.5h-330v-393z" />
    <glyph glyph-name="uni045A" unicode="&#x45a;" horiz-adv-x="2002" 
d="M1180 705h354q186 0 291.5 -100t105.5 -253t-105.5 -252.5t-291.5 -99.5h-551v530h-602v-530h-197v1116h197v-411h602v411h197v-411zM1180 174h350q93 0 148 49.5t55 128.5t-55 128.5t-148 49.5h-350v-356z" />
    <glyph glyph-name="uni045B" unicode="&#x45b;" horiz-adv-x="1396" 
d="M768 1130q208 0 333.5 -115t125.5 -308v-707h-197v670q0 132 -77.5 205t-221.5 73q-156 0 -253 -82.5t-97 -210.5v-655h-197v1245h-170v146h170v149h197v-149h410v-146h-410v-287q69 90 171 131t216 41z" />
    <glyph glyph-name="uni045C" unicode="&#x45c;" horiz-adv-x="1300" 
d="M977 1581v-18l-283 -318h-188l244 336h227zM1300 0h-245l-424 510h-250v-510h-197v1116h197v-432h246l399 432h234l-472 -504z" />
    <glyph glyph-name="uni045D" unicode="&#x45d;" horiz-adv-x="1421" 
d="M604 1573l223 -320h-186l-264 301v19h227zM381 250l655 866h201v-1116h-197v858l-649 -858h-207v1116h197v-866z" />
    <glyph glyph-name="uni045E" unicode="&#x45e;" horiz-adv-x="1269" 
d="M635 1241q-154 0 -252 92.5t-98 247.5h157q0 -91 55 -147t138 -56t137.5 56t54.5 147h160q0 -154 -98.5 -247t-253.5 -93zM641 219l383 897h213l-565 -1253q-114 -252 -365 -252q-133 0 -246 55l58 164q98 -45 180 -45q141 0 209 147l35 76l-510 1108h219z" />
    <glyph glyph-name="uni045F" unicode="&#x45f;" horiz-adv-x="1380" 
d="M999 172v944h197v-1116h-416v-303h-180v303h-416v1116h197v-944h618z" />
    <glyph glyph-name="uni0490" unicode="&#x490;" horiz-adv-x="1331" 
d="M1075 1475v325h189v-510h-854v-1290h-205v1475h870z" />
    <glyph glyph-name="uni0491" unicode="&#x491;" horiz-adv-x="1042" 
d="M811 1116v303h180v-477h-610v-942h-197v1116h627z" />
    <glyph glyph-name="uni058F" unicode="&#x58f;" horiz-adv-x="1548" 
d="M1442 811v-149h-228v-162h228v-148h-228v-352h-202v352h-449v148h449v162h-449v149h449v193q0 140 -101.5 230.5t-259.5 90.5q-157 0 -258.5 -90.5t-101.5 -230.5v-238h-203v238q0 218 158.5 357.5t404.5 139.5q247 0 405 -139.5t158 -357.5v-193h228z" />
    <glyph glyph-name="uni0E3F" unicode="&#xe3f;" horiz-adv-x="1597" 
d="M1182 784q153 -38 227 -138t74 -234q0 -181 -132 -296.5t-366 -115.5h-117v-248h-143v248h-516v1475h516v190h143v-190h52q209 0 326.5 -108.5t117.5 -274.5q0 -95 -43.5 -177t-138.5 -131zM725 840v458h-313v-458h313zM895 1298h-27v-458h37q131 0 193.5 66.5
t62.5 164.5q0 103 -68 165t-198 62zM412 666v-490h313v490h-313zM868 176h101q144 0 224.5 66t80.5 182q0 111 -76.5 176.5t-210.5 65.5h-119v-490z" />
    <glyph glyph-name="uni1E08" unicode="&#x1e08;" 
d="M1210 1939v-18l-282 -317h-189l244 335h227zM1358 322l133 -142q-93 -102 -235.5 -153t-303.5 -54l-47 -49q12 2 39 2q106 0 171 -51t65 -127q0 -87 -82 -138.5t-221 -51.5q-186 0 -304 73l64 103q116 -62 235 -62q68 0 103 20.5t35 55.5q0 32 -35 53t-101 21
q-58 0 -120 -19l-43 31l108 146q-204 24 -364 127.5t-249 267.5t-89 362q0 216 105.5 391t290 274t411.5 99q168 0 315.5 -54t239.5 -155l-131 -143q-169 166 -424 166q-162 0 -298 -74.5t-216 -207.5t-80 -296t79 -295.5t217.5 -207t307.5 -74.5q121 0 232 40t192 122z" />
    <glyph glyph-name="uni1E09" unicode="&#x1e09;" horiz-adv-x="1228" 
d="M1014 1581v-18l-283 -318h-188l243 336h228zM1044 274l119 -139q-66 -72 -170 -115t-235 -47l-47 -49q12 2 39 2q106 0 170.5 -51t64.5 -127q0 -87 -82 -138.5t-221 -51.5q-185 0 -303 73l63 103q116 -62 236 -62q68 0 102.5 20.5t34.5 55.5q0 33 -34.5 53.5t-100.5 20.5
q-59 0 -121 -19l-43 31l109 146q-236 32 -379.5 191.5t-143.5 385.5q0 166 79.5 300t223 210t324.5 76q259 0 426 -160l-119 -143q-128 125 -311 125q-176 0 -299 -113.5t-123 -292.5q0 -180 123.5 -292.5t302.5 -112.5q94 0 177 31.5t138 88.5z" />
    <glyph glyph-name="uni1E0C" unicode="&#x1e0c;" horiz-adv-x="1683" 
d="M797 1475q176 0 321.5 -55.5t243 -153.5t150.5 -234t53 -295t-53 -294.5t-150.5 -233.5t-243 -153.5t-321.5 -55.5h-592v1475h592zM410 182h385q258 0 407.5 153t149.5 402t-149.5 402t-407.5 153h-385v-1110zM842 -156q56 0 92.5 -34.5t36.5 -88.5t-36.5 -88t-92.5 -34
t-92.5 34t-36.5 88t36.5 88.5t92.5 34.5z" />
    <glyph glyph-name="uni1E0D" unicode="&#x1e0d;" horiz-adv-x="1474" 
d="M1094 944v596h196v-1540h-186v186q-71 -100 -181 -156.5t-249 -56.5q-163 0 -294 77.5t-203.5 211t-72.5 297.5q0 163 72.5 296.5t203.5 210.5t294 77q134 0 241.5 -52.5t178.5 -146.5zM696 154q170 0 287 112.5t117 292.5q0 179 -117 291.5t-287 112.5t-280.5 -114.5
t-110.5 -289.5q0 -177 110.5 -291t280.5 -114zM715 -156q56 0 92.5 -34.5t36.5 -88.5t-36.5 -88t-92.5 -34t-92.5 34t-36.5 88t36.5 88.5t92.5 34.5z" />
    <glyph glyph-name="uni1E0E" unicode="&#x1e0e;" horiz-adv-x="1683" 
d="M797 1475q176 0 321.5 -55.5t243 -153.5t150.5 -234t53 -295t-53 -294.5t-150.5 -233.5t-243 -153.5t-321.5 -55.5h-592v1475h592zM410 182h385q258 0 407.5 153t149.5 402t-149.5 402t-407.5 153h-385v-1110zM1169 -358h-655v153h655v-153z" />
    <glyph glyph-name="uni1E0F" unicode="&#x1e0f;" horiz-adv-x="1474" 
d="M1094 944v596h196v-1540h-186v186q-71 -100 -181 -156.5t-249 -56.5q-163 0 -294 77.5t-203.5 211t-72.5 297.5q0 163 72.5 296.5t203.5 210.5t294 77q134 0 241.5 -52.5t178.5 -146.5zM696 154q170 0 287 112.5t117 292.5q0 179 -117 291.5t-287 112.5t-280.5 -114.5
t-110.5 -289.5q0 -177 110.5 -291t280.5 -114zM1042 -358h-655v153h655v-153z" />
    <glyph glyph-name="uni1E14" unicode="&#x1e14;" horiz-adv-x="1447" 
d="M668 2275l223 -319h-186l-265 301v18h228zM1098 1665h-656v154h656v-154zM410 180h929l37 -180h-1171v1475h1151l-37 -181h-909v-432h624v-182h-624v-500z" />
    <glyph glyph-name="uni1E15" unicode="&#x1e15;" horiz-adv-x="1353" 
d="M584 1917l223 -320h-186l-265 301v19h228zM1014 1307h-656v153h656v-153zM1262 555q0 -29 -9 -72h-948q23 -154 135 -243.5t285 -89.5q215 0 348 133l117 -136q-70 -78 -189.5 -126t-277.5 -48q-282 0 -451.5 165.5t-169.5 420.5q0 162 72 295t206 211t304 78
q130 0 240 -46.5t183 -126t114 -187t41 -228.5zM684 967q-148 0 -250.5 -86.5t-128.5 -235.5h758q-21 142 -123 232t-256 90z" />
    <glyph glyph-name="uni1E16" unicode="&#x1e16;" horiz-adv-x="1447" 
d="M1100 2284v-19l-283 -317h-188l243 336h228zM442 1819h656v-154h-656v154zM410 180h929l37 -180h-1171v1475h1151l-37 -181h-909v-432h624v-182h-624v-500z" />
    <glyph glyph-name="uni1E17" unicode="&#x1e17;" horiz-adv-x="1353" 
d="M1016 1925v-18l-283 -318h-188l243 336h228zM358 1460h656v-153h-656v153zM1262 555q0 -29 -9 -72h-948q23 -154 135 -243.5t285 -89.5q215 0 348 133l117 -136q-70 -78 -189.5 -126t-277.5 -48q-282 0 -451.5 165.5t-169.5 420.5q0 162 72 295t206 211t304 78
q130 0 240 -46.5t183 -126t114 -187t41 -228.5zM684 967q-148 0 -250.5 -86.5t-128.5 -235.5h758q-21 142 -123 232t-256 90z" />
    <glyph glyph-name="uni1E1C" unicode="&#x1e1c;" horiz-adv-x="1447" 
d="M770 1599q-149 0 -243.5 93t-94.5 247h143q1 -86 57 -138t138 -52t138 52t57 138h145q0 -154 -95.5 -247t-244.5 -93zM834 -74q106 0 170.5 -51t64.5 -127q0 -87 -82 -138.5t-221 -51.5q-185 0 -303 73l63 103q116 -62 236 -62q68 0 102.5 20.5t34.5 55.5
q0 33 -34.5 53.5t-100.5 20.5q-59 0 -121 -19l-43 31l123 166h-518v1475h1151l-37 -181h-909v-432h624v-182h-624v-500h929l37 -180h-510l-71 -76q12 2 39 2z" />
    <glyph glyph-name="uni1E1D" unicode="&#x1e1d;" horiz-adv-x="1355" 
d="M688 1241q-149 0 -243.5 93t-94.5 247h144q1 -86 56.5 -138t137.5 -52t138 52t57 138h145q0 -154 -95.5 -247t-244.5 -93zM1264 555q0 -29 -9 -72h-948q23 -154 135 -243.5t285 -89.5q215 0 348 133l117 -136q-66 -74 -176 -121t-256 -53l-47 -49q12 2 39 2
q106 0 170.5 -51t64.5 -127q0 -87 -82 -138.5t-221 -51.5q-185 0 -303 73l63 103q116 -62 236 -62q68 0 102.5 20.5t34.5 55.5q0 33 -34.5 53.5t-100.5 20.5q-59 0 -121 -19l-43 31l107 146q-240 29 -380.5 188.5t-140.5 390.5q0 162 72 295t206 211t304 78q130 0 240 -46.5
t183 -126t114 -187t41 -228.5zM686 967q-148 0 -250.5 -86.5t-128.5 -235.5h758q-21 142 -123 232t-256 90z" />
    <glyph glyph-name="uni1E20" unicode="&#x1e20;" horiz-adv-x="1689" 
d="M571 1819h656v-154h-656v154zM1550 825v-673q-217 -179 -602 -179q-239 0 -429 98t-296 272t-106 392q0 220 105.5 395t291 273t416.5 98q181 0 328 -52t243 -142l-121 -150q-78 70 -193.5 114t-256.5 44q-168 0 -305 -73.5t-216 -206t-79 -298.5q0 -253 175 -415
t449 -162q128 0 219 21t175 71v393h-459v180h661z" />
    <glyph glyph-name="uni1E21" unicode="&#x1e21;" horiz-adv-x="1456" 
d="M397 1460h656v-153h-656v153zM1090 936v180h186v-1012q0 -225 -163.5 -359t-428.5 -134q-268 0 -475 106l74 166q189 -98 399 -98q178 0 287.5 87t109.5 239v127q-69 -90 -173 -139.5t-236 -49.5q-248 0 -404.5 154.5t-156.5 390.5q0 235 157 392t404 157
q137 0 243.5 -55t176.5 -152zM688 227q168 0 280.5 99.5t112.5 267.5q0 166 -113 268.5t-280 102.5q-165 0 -273 -104t-108 -267q0 -164 107.5 -265.5t273.5 -101.5z" />
    <glyph glyph-name="uni1E24" unicode="&#x1e24;" horiz-adv-x="1740" 
d="M1331 881v594h205v-1475h-205v698h-921v-698h-205v1475h205v-594h921zM870 -156q56 0 92.5 -34.5t36.5 -88.5t-36.5 -88t-92.5 -34t-92.5 34t-36.5 88t36.5 88.5t92.5 34.5z" />
    <glyph glyph-name="uni1E25" unicode="&#x1e25;" horiz-adv-x="1396" 
d="M768 1143q208 0 333.5 -116t125.5 -310v-717h-197v678q0 132 -78 207.5t-221 75.5q-156 0 -253 -84.5t-97 -212.5v-664h-197v1540h197v-571q69 90 171.5 132t215.5 42zM694 -156q56 0 92.5 -34.5t36.5 -88.5t-36.5 -88t-92.5 -34t-92.5 34t-36.5 88t36.5 88.5t92.5 34.5z
" />
    <glyph glyph-name="uni1E2A" unicode="&#x1e2a;" horiz-adv-x="1740" 
d="M1331 881v594h205v-1475h-205v698h-921v-698h-205v1475h205v-594h921zM868 -293q82 0 138 52.5t57 138.5h145q0 -154 -95.5 -247t-244.5 -93t-243.5 93t-94.5 247h144q1 -86 57 -138.5t137 -52.5z" />
    <glyph glyph-name="uni1E2B" unicode="&#x1e2b;" horiz-adv-x="1396" 
d="M768 1143q208 0 333.5 -116t125.5 -310v-717h-197v678q0 132 -78 207.5t-221 75.5q-156 0 -253 -84.5t-97 -212.5v-664h-197v1540h197v-571q69 90 171.5 132t215.5 42zM692 -293q82 0 138 52.5t57 138.5h145q0 -154 -95.5 -247t-244.5 -93t-243.5 93t-94.5 247h144
q1 -86 57 -138.5t137 -52.5z" />
    <glyph glyph-name="uni1E2E" unicode="&#x1e2e;" horiz-adv-x="614" 
d="M637 2353v-18l-283 -318h-188l244 336h227zM106 1642q-56 0 -92.5 34.5t-36.5 88.5t36.5 88.5t92.5 34.5t93 -34.5t37 -88.5t-37 -88.5t-93 -34.5zM506 1642q-56 0 -92.5 34.5t-36.5 88.5t36.5 88.5t92.5 34.5t92.5 -34.5t36.5 -88.5t-36.5 -88.5t-92.5 -34.5zM205 0
v1475h205v-1475h-205z" />
    <glyph glyph-name="uni1E2F" unicode="&#x1e2f;" horiz-adv-x="565" 
d="M612 1995v-19l-282 -317h-189l244 336h227zM82 1284q-56 0 -92.5 34.5t-36.5 88.5t36.5 88.5t92.5 34.5t92.5 -34.5t36.5 -88.5t-36.5 -88.5t-92.5 -34.5zM481 1284q-56 0 -92.5 34.5t-36.5 88.5t36.5 88.5t92.5 34.5t92.5 -34.5t36.5 -88.5t-36.5 -88.5t-92.5 -34.5z
M381 0h-197v1116h197v-1116z" />
    <glyph glyph-name="uni1E36" unicode="&#x1e36;" horiz-adv-x="1372" 
d="M410 1475v-1291h895v-184h-1100v1475h205zM754 -156q56 0 92.5 -34.5t36.5 -88.5t-36.5 -88t-92.5 -34t-92.5 34t-36.5 88t36.5 88.5t92.5 34.5z" />
    <glyph glyph-name="uni1E37" unicode="&#x1e37;" horiz-adv-x="638" 
d="M184 231v1309h197v-1270q0 -53 29 -78.5t79 -25.5q41 0 91 18v-178q-56 -22 -127 -22q-123 0 -196 65.5t-73 181.5zM375 -401q-56 0 -92.5 34t-36.5 88t36.5 88.5t92.5 34.5t92.5 -34.5t36.5 -88.5t-36.5 -88t-92.5 -34z" />
    <glyph glyph-name="uni1E3A" unicode="&#x1e3a;" horiz-adv-x="1372" 
d="M410 1475v-1291h895v-184h-1100v1475h205zM1081 -358h-655v153h655v-153z" />
    <glyph glyph-name="uni1E3B" unicode="&#x1e3b;" horiz-adv-x="638" 
d="M184 231v1309h197v-1270q0 -53 29 -78.5t79 -25.5q41 0 91 18v-178q-56 -22 -127 -22q-123 0 -196 65.5t-73 181.5zM670 -358h-590v153h590v-153z" />
    <glyph glyph-name="uni1E42" unicode="&#x1e42;" horiz-adv-x="2060" 
d="M1855 1475v-1475h-198v1225l-559 -1194h-142l-553 1173v-1204h-198v1475h276l549 -1174l549 1174h276zM1030 -156q56 0 92.5 -34.5t36.5 -88.5t-36.5 -88t-92.5 -34t-92.5 34t-36.5 88t36.5 88.5t92.5 34.5z" />
    <glyph glyph-name="uni1E43" unicode="&#x1e43;" horiz-adv-x="2140" 
d="M1534 1143q193 0 314.5 -116.5t121.5 -309.5v-717h-196v680q0 130 -73.5 205.5t-199.5 75.5q-138 0 -231.5 -84.5t-93.5 -210.5v-666h-197v680q0 130 -73.5 205.5t-198.5 75.5q-139 0 -232.5 -84.5t-93.5 -210.5v-666h-197v1116h187v-153q68 94 169 137t205 43
q124 0 222.5 -54t152.5 -151q73 106 185 155.5t229 49.5zM1077 -156q56 0 92.5 -34.5t36.5 -88.5t-36.5 -88t-92.5 -34t-92.5 34t-36.5 88t36.5 88.5t92.5 34.5z" />
    <glyph glyph-name="uni1E44" unicode="&#x1e44;" horiz-adv-x="1703" 
d="M856 1642q-56 0 -92.5 34.5t-36.5 88.5t36.5 88.5t92.5 34.5t92.5 -34.5t36.5 -88.5t-36.5 -88.5t-92.5 -34.5zM1300 297v1178h199v-1475h-213l-883 1186v-1186h-198v1475h219z" />
    <glyph glyph-name="uni1E45" unicode="&#x1e45;" horiz-adv-x="1396" 
d="M709 1284q-56 0 -92.5 34.5t-36.5 88.5t36.5 88.5t92.5 34.5t92.5 -34.5t36.5 -88.5t-36.5 -88.5t-92.5 -34.5zM768 1143q208 0 333.5 -116t125.5 -310v-717h-197v680q0 132 -78 206.5t-221 74.5q-156 0 -253 -83.5t-97 -211.5v-666h-197v1116h187v-153q69 94 174 137
t223 43z" />
    <glyph glyph-name="uni1E46" unicode="&#x1e46;" horiz-adv-x="1703" 
d="M1300 297v1178h199v-1475h-213l-883 1186v-1186h-198v1475h219zM856 -156q56 0 92.5 -34.5t36.5 -88.5t-36.5 -88t-92.5 -34t-92.5 34t-36.5 88t36.5 88.5t92.5 34.5z" />
    <glyph glyph-name="uni1E47" unicode="&#x1e47;" horiz-adv-x="1396" 
d="M768 1143q208 0 333.5 -116t125.5 -310v-717h-197v680q0 132 -78 206.5t-221 74.5q-156 0 -253 -83.5t-97 -211.5v-666h-197v1116h187v-153q69 94 174 137t223 43zM709 -156q56 0 92.5 -34.5t36.5 -88.5t-36.5 -88t-92.5 -34t-92.5 34t-36.5 88t36.5 88.5t92.5 34.5z" />
    <glyph glyph-name="uni1E48" unicode="&#x1e48;" horiz-adv-x="1703" 
d="M1300 297v1178h199v-1475h-213l-883 1186v-1186h-198v1475h219zM1184 -358h-656v153h656v-153z" />
    <glyph glyph-name="uni1E49" unicode="&#x1e49;" horiz-adv-x="1396" 
d="M768 1143q208 0 333.5 -116t125.5 -310v-717h-197v680q0 132 -78 206.5t-221 74.5q-156 0 -253 -83.5t-97 -211.5v-666h-197v1116h187v-153q69 94 174 137t223 43zM1036 -358h-655v153h655v-153z" />
    <glyph glyph-name="uni1E4C" unicode="&#x1e4c;" horiz-adv-x="1781" 
d="M1221 2357v-18l-283 -318h-188l243 336h228zM1053 1616q-48 0 -90.5 16.5t-73 40.5t-57.5 48t-54.5 40.5t-52.5 16.5q-87 0 -96 -152h-152q3 137 66.5 219t179.5 82q48 0 91 -17t73.5 -41t57 -48t54 -41t52.5 -17q43 0 69 39.5t29 112.5h151q-3 -137 -66.5 -218
t-180.5 -81zM891 -27q-223 0 -399.5 98t-275.5 272.5t-99 393.5t99 393.5t275.5 272.5t399.5 98t399.5 -98t275.5 -272.5t99 -393.5t-99 -393.5t-275.5 -272.5t-399.5 -98zM891 160q246 0 403.5 162t157.5 415t-157.5 415.5t-403.5 162.5t-403.5 -162.5t-157.5 -415.5
t157.5 -415t403.5 -162z" />
    <glyph glyph-name="uni1E4D" unicode="&#x1e4d;" horiz-adv-x="1404" 
d="M1032 1999v-19l-282 -317h-189l244 336h227zM864 1257q-58 0 -110 25.5t-83 55.5t-67 55.5t-67 25.5q-88 0 -97 -151h-151q3 137 66.5 219t179.5 82q48 0 91 -17t73 -41t56.5 -48t54 -41t52.5 -17q43 0 69.5 39t29.5 112h151q-3 -137 -67 -218t-181 -81zM702 -27
q-173 0 -311 78t-213.5 211.5t-75.5 296.5t75.5 296t213 210.5t311.5 77.5q130 0 242.5 -45.5t191 -123.5t123 -185.5t44.5 -229.5t-44.5 -230t-123 -186.5t-191 -124t-242.5 -45.5zM702 154q170 0 285 115.5t115 289.5t-115 289t-285 115t-284.5 -115t-114.5 -289
t114.5 -289.5t284.5 -115.5z" />
    <glyph glyph-name="uni1E4E" unicode="&#x1e4e;" horiz-adv-x="1781" 
d="M662 2060q-56 0 -93 34.5t-37 88.5t37 88.5t93 34.5t92.5 -34.5t36.5 -88.5t-36.5 -88.5t-92.5 -34.5zM1118 2060q-56 0 -92.5 34.5t-36.5 88.5t36.5 88.5t92.5 34.5t92.5 -34.5t36.5 -88.5t-36.5 -88.5t-92.5 -34.5zM1053 1616q-48 0 -90.5 16.5t-73 40.5t-57.5 48
t-54.5 40.5t-52.5 16.5q-87 0 -96 -152h-152q3 137 66.5 219t179.5 82q48 0 91 -17t73.5 -41t57 -48t54 -41t52.5 -17q43 0 69 39.5t29 112.5h151q-3 -137 -66.5 -218t-180.5 -81zM891 -27q-223 0 -399.5 98t-275.5 272.5t-99 393.5t99 393.5t275.5 272.5t399.5 98
t399.5 -98t275.5 -272.5t99 -393.5t-99 -393.5t-275.5 -272.5t-399.5 -98zM891 160q246 0 403.5 162t157.5 415t-157.5 415.5t-403.5 162.5t-403.5 -162.5t-157.5 -415.5t157.5 -415t403.5 -162z" />
    <glyph glyph-name="uni1E4F" unicode="&#x1e4f;" horiz-adv-x="1404" 
d="M473 1702q-56 0 -92.5 34.5t-36.5 88.5t36.5 88.5t92.5 34.5t92.5 -34.5t36.5 -88.5t-36.5 -88.5t-92.5 -34.5zM930 1702q-56 0 -92.5 34.5t-36.5 88.5t36.5 88.5t92.5 34.5t92.5 -34.5t36.5 -88.5t-36.5 -88.5t-92.5 -34.5zM864 1257q-58 0 -110 25.5t-83 55.5t-67 55.5
t-67 25.5q-88 0 -97 -151h-151q3 137 66.5 219t179.5 82q48 0 91 -17t73 -41t56.5 -48t54 -41t52.5 -17q43 0 69.5 39t29.5 112h151q-3 -137 -67 -218t-181 -81zM702 -27q-173 0 -311 78t-213.5 211.5t-75.5 296.5t75.5 296t213 210.5t311.5 77.5q130 0 242.5 -45.5
t191 -123.5t123 -185.5t44.5 -229.5t-44.5 -230t-123 -186.5t-191 -124t-242.5 -45.5zM702 154q170 0 285 115.5t115 289.5t-115 289t-285 115t-284.5 -115t-114.5 -289t114.5 -289.5t284.5 -115.5z" />
    <glyph glyph-name="uni1E50" unicode="&#x1e50;" horiz-adv-x="1781" 
d="M561 2257v18h227l224 -319h-187zM1219 1665h-656v154h656v-154zM891 -27q-223 0 -399.5 98t-275.5 272.5t-99 393.5t99 393.5t275.5 272.5t399.5 98t399.5 -98t275.5 -272.5t99 -393.5t-99 -393.5t-275.5 -272.5t-399.5 -98zM891 160q246 0 403.5 162t157.5 415
t-157.5 415.5t-403.5 162.5t-403.5 -162.5t-157.5 -415.5t157.5 -415t403.5 -162z" />
    <glyph glyph-name="uni1E51" unicode="&#x1e51;" horiz-adv-x="1404" 
d="M373 1898v19h227l223 -320h-186zM1030 1307h-655v153h655v-153zM702 -27q-173 0 -311 78t-213.5 211.5t-75.5 296.5t75.5 296t213 210.5t311.5 77.5q130 0 242.5 -45.5t191 -123.5t123 -185.5t44.5 -229.5t-44.5 -230t-123 -186.5t-191 -124t-242.5 -45.5zM702 154
q170 0 285 115.5t115 289.5t-115 289t-285 115t-284.5 -115t-114.5 -289t114.5 -289.5t284.5 -115.5z" />
    <glyph glyph-name="uni1E52" unicode="&#x1e52;" horiz-adv-x="1781" 
d="M1221 2284v-19l-283 -317h-188l243 336h228zM1219 1665h-656v154h656v-154zM891 -27q-223 0 -399.5 98t-275.5 272.5t-99 393.5t99 393.5t275.5 272.5t399.5 98t399.5 -98t275.5 -272.5t99 -393.5t-99 -393.5t-275.5 -272.5t-399.5 -98zM891 160q246 0 403.5 162
t157.5 415t-157.5 415.5t-403.5 162.5t-403.5 -162.5t-157.5 -415.5t157.5 -415t403.5 -162z" />
    <glyph glyph-name="uni1E53" unicode="&#x1e53;" horiz-adv-x="1404" 
d="M1032 1925v-18l-282 -318h-189l244 336h227zM1030 1307h-655v153h655v-153zM702 -27q-173 0 -311 78t-213.5 211.5t-75.5 296.5t75.5 296t213 210.5t311.5 77.5q130 0 242.5 -45.5t191 -123.5t123 -185.5t44.5 -229.5t-44.5 -230t-123 -186.5t-191 -124t-242.5 -45.5z
M702 154q170 0 285 115.5t115 289.5t-115 289t-285 115t-284.5 -115t-114.5 -289t114.5 -289.5t284.5 -115.5z" />
    <glyph glyph-name="uni1E5A" unicode="&#x1e5a;" horiz-adv-x="1595" 
d="M1083 635l439 -635h-244l-422 625h-448v-625h-203v1475h772q208 0 331.5 -120.5t123.5 -305.5q0 -156 -94 -270t-255 -144zM946 1292h-538v-487h538q130 0 204.5 67.5t74.5 176.5q0 110 -74.5 176.5t-204.5 66.5zM778 -156q56 0 92.5 -34.5t36.5 -88.5t-36.5 -88
t-92.5 -34t-92.5 34t-36.5 88t36.5 88.5t92.5 34.5z" />
    <glyph glyph-name="uni1E5B" unicode="&#x1e5b;" horiz-adv-x="903" 
d="M752 1133q59 0 112 -13v-184q-56 12 -114 12q-162 0 -265.5 -87.5t-103.5 -244.5v-616h-197v1116h187v-174q61 98 167 144.5t214 46.5zM283 -156q56 0 92.5 -34.5t36.5 -88.5t-36.5 -88t-92.5 -34t-92.5 34t-36.5 88t36.5 88.5t92.5 34.5z" />
    <glyph glyph-name="uni1E5E" unicode="&#x1e5e;" horiz-adv-x="1595" 
d="M1083 635l439 -635h-244l-422 625h-448v-625h-203v1475h772q208 0 331.5 -120.5t123.5 -305.5q0 -156 -94 -270t-255 -144zM946 1292h-538v-487h538q130 0 204.5 67.5t74.5 176.5q0 110 -74.5 176.5t-204.5 66.5zM1106 -358h-655v153h655v-153z" />
    <glyph glyph-name="uni1E5F" unicode="&#x1e5f;" horiz-adv-x="903" 
d="M752 1133q59 0 112 -13v-184q-56 12 -114 12q-162 0 -265.5 -87.5t-103.5 -244.5v-616h-197v1116h187v-174q61 98 167 144.5t214 46.5zM578 -358h-590v153h590v-153z" />
    <glyph glyph-name="uni1E60" unicode="&#x1e60;" horiz-adv-x="1460" 
d="M731 1645q-56 0 -92.5 34t-36.5 88t36.5 88.5t92.5 34.5t92.5 -34.5t36.5 -88.5t-36.5 -88t-92.5 -34zM750 -23q-187 0 -361.5 59.5t-290.5 162.5l129 155q110 -94 247.5 -143t277.5 -49q172 0 280.5 69.5t108.5 182.5q0 85 -69.5 140.5t-217.5 84.5l-311 59
q-197 38 -298.5 134t-101.5 241q0 128 79 226t214.5 149t306.5 51q158 0 307 -47.5t263 -151.5l-121 -149q-196 166 -457 166q-163 0 -274 -65.5t-111 -166.5q0 -72 66.5 -119.5t210.5 -74.5l299 -57q212 -40 317 -147.5t105 -262.5q0 -201 -162.5 -324t-435.5 -123z" />
    <glyph glyph-name="uni1E61" unicode="&#x1e61;" horiz-adv-x="1212" 
d="M616 1284q-56 0 -92.5 34.5t-36.5 88.5t36.5 88.5t92.5 34.5t92.5 -34.5t36.5 -88.5t-36.5 -88.5t-92.5 -34.5zM86 147l102 154q80 -64 197 -106.5t242 -42.5q129 0 206.5 46t77.5 119q0 53 -42 84t-124 45l-296 54q-164 30 -244 107t-80 190q0 153 131 247.5t354 94.5
q285 0 480 -150l-105 -145q-72 57 -176.5 92t-210.5 35q-119 0 -195.5 -44.5t-76.5 -115.5q0 -48 43.5 -78.5t144.5 -48.5l277 -49q163 -30 242 -108t79 -193q0 -157 -134 -255.5t-351 -98.5q-146 0 -296.5 45t-244.5 122z" />
    <glyph glyph-name="uni1E62" unicode="&#x1e62;" horiz-adv-x="1460" 
d="M750 -23q-187 0 -361.5 59.5t-290.5 162.5l129 155q110 -94 247.5 -143t277.5 -49q172 0 280.5 69.5t108.5 182.5q0 85 -69.5 140.5t-217.5 84.5l-311 59q-197 38 -298.5 134t-101.5 241q0 128 79 226t214.5 149t306.5 51q158 0 307 -47.5t263 -151.5l-121 -149
q-196 166 -457 166q-163 0 -274 -65.5t-111 -166.5q0 -72 66.5 -119.5t210.5 -74.5l299 -57q212 -40 317 -147.5t105 -262.5q0 -201 -162.5 -324t-435.5 -123zM731 -399q-56 0 -92.5 34.5t-36.5 88.5t36.5 88t92.5 34t92.5 -34t36.5 -88t-36.5 -88.5t-92.5 -34.5z" />
    <glyph glyph-name="uni1E63" unicode="&#x1e63;" horiz-adv-x="1212" 
d="M86 147l102 154q80 -64 197 -106.5t242 -42.5q129 0 206.5 46t77.5 119q0 53 -42 84t-124 45l-296 54q-164 30 -244 107t-80 190q0 153 131 247.5t354 94.5q285 0 480 -150l-105 -145q-72 57 -176.5 92t-210.5 35q-119 0 -195.5 -44.5t-76.5 -115.5q0 -48 43.5 -78.5
t144.5 -48.5l277 -49q163 -30 242 -108t79 -193q0 -157 -134 -255.5t-351 -98.5q-146 0 -296.5 45t-244.5 122zM616 -401q-56 0 -92.5 34t-36.5 88t36.5 88.5t92.5 34.5t92.5 -34.5t36.5 -88.5t-36.5 -88t-92.5 -34z" />
    <glyph glyph-name="uni1E64" unicode="&#x1e64;" horiz-adv-x="1460" 
d="M553 1876q-56 0 -92.5 34.5t-36.5 88.5t36.5 88.5t92.5 34.5t92.5 -34.5t36.5 -88.5t-36.5 -88.5t-92.5 -34.5zM1110 1939v-18l-283 -317h-188l244 335h227zM750 -23q-187 0 -361.5 59.5t-290.5 162.5l129 155q110 -94 247.5 -143t277.5 -49q172 0 280.5 69.5
t108.5 182.5q0 85 -69.5 140.5t-217.5 84.5l-311 59q-197 38 -298.5 134t-101.5 241q0 128 79 226t214.5 149t306.5 51q158 0 307 -47.5t263 -151.5l-121 -149q-196 166 -457 166q-163 0 -274 -65.5t-111 -166.5q0 -72 66.5 -119.5t210.5 -74.5l299 -57q212 -40 317 -147.5
t105 -262.5q0 -201 -162.5 -324t-435.5 -123z" />
    <glyph glyph-name="uni1E65" unicode="&#x1e65;" horiz-adv-x="1212" 
d="M410 1518q-56 0 -92.5 34t-36.5 88t36.5 88.5t92.5 34.5t92.5 -34.5t36.5 -88.5t-36.5 -88t-92.5 -34zM936 1581v-18l-283 -318h-188l244 336h227zM86 147l102 154q80 -64 197 -106.5t242 -42.5q129 0 206.5 46t77.5 119q0 53 -42 84t-124 45l-296 54q-164 30 -244 107
t-80 190q0 153 131 247.5t354 94.5q285 0 480 -150l-105 -145q-72 57 -176.5 92t-210.5 35q-119 0 -195.5 -44.5t-76.5 -115.5q0 -48 43.5 -78.5t144.5 -48.5l277 -49q163 -30 242 -108t79 -193q0 -157 -134 -255.5t-351 -98.5q-146 0 -296.5 45t-244.5 122z" />
    <glyph glyph-name="uni1E66" unicode="&#x1e66;" horiz-adv-x="1460" 
d="M731 2034q-56 0 -92.5 34.5t-36.5 88.5t36.5 88t92.5 34t92.5 -34t36.5 -88t-36.5 -88.5t-92.5 -34.5zM1090 1942l-254 -328h-211l-252 328h176l182 -201l180 201h179zM627 891l299 -57q212 -40 317 -147.5t105 -262.5q0 -201 -162.5 -324t-435.5 -123
q-187 0 -361.5 59.5t-290.5 162.5l129 155q110 -94 247.5 -143t277.5 -49q172 0 280.5 69.5t108.5 182.5q0 85 -69.5 140.5t-217.5 84.5l-311 59q-197 38 -298.5 134t-101.5 241q0 128 79 226t214.5 149t306.5 51q158 0 307 -47.5t263 -151.5l-121 -149q-196 166 -457 166
q-163 0 -274 -65.5t-111 -166.5q0 -72 66.5 -119.5t210.5 -74.5z" />
    <glyph glyph-name="uni1E67" unicode="&#x1e67;" horiz-adv-x="1212" 
d="M616 1673q-56 0 -92.5 34.5t-36.5 88.5t36.5 88.5t92.5 34.5t92.5 -34.5t36.5 -88.5t-36.5 -88.5t-92.5 -34.5zM975 1581l-254 -328h-211l-252 328h176l182 -201l181 201h178zM514 684l277 -49q163 -30 242 -108t79 -193q0 -157 -134 -255.5t-351 -98.5q-146 0 -296.5 45
t-244.5 122l102 154q80 -64 197 -106.5t242 -42.5q129 0 206.5 46t77.5 119q0 53 -42 84t-124 45l-296 54q-164 30 -244 107t-80 190q0 153 131 247.5t354 94.5q285 0 480 -150l-105 -145q-72 57 -176.5 92t-210.5 35q-119 0 -195.5 -44.5t-76.5 -115.5q0 -48 43.5 -78.5
t144.5 -48.5z" />
    <glyph glyph-name="uni1E68" unicode="&#x1e68;" horiz-adv-x="1460" 
d="M731 1645q-56 0 -92.5 34t-36.5 88t36.5 88.5t92.5 34.5t92.5 -34.5t36.5 -88.5t-36.5 -88t-92.5 -34zM750 -23q-187 0 -361.5 59.5t-290.5 162.5l129 155q110 -94 247.5 -143t277.5 -49q172 0 280.5 69.5t108.5 182.5q0 85 -69.5 140.5t-217.5 84.5l-311 59
q-197 38 -298.5 134t-101.5 241q0 128 79 226t214.5 149t306.5 51q158 0 307 -47.5t263 -151.5l-121 -149q-196 166 -457 166q-163 0 -274 -65.5t-111 -166.5q0 -72 66.5 -119.5t210.5 -74.5l299 -57q212 -40 317 -147.5t105 -262.5q0 -201 -162.5 -324t-435.5 -123z
M731 -399q-56 0 -92.5 34.5t-36.5 88.5t36.5 88t92.5 34t92.5 -34t36.5 -88t-36.5 -88.5t-92.5 -34.5z" />
    <glyph glyph-name="uni1E69" unicode="&#x1e69;" horiz-adv-x="1212" 
d="M616 1284q-56 0 -92.5 34.5t-36.5 88.5t36.5 88.5t92.5 34.5t92.5 -34.5t36.5 -88.5t-36.5 -88.5t-92.5 -34.5zM86 147l102 154q80 -64 197 -106.5t242 -42.5q129 0 206.5 46t77.5 119q0 53 -42 84t-124 45l-296 54q-164 30 -244 107t-80 190q0 153 131 247.5t354 94.5
q285 0 480 -150l-105 -145q-72 57 -176.5 92t-210.5 35q-119 0 -195.5 -44.5t-76.5 -115.5q0 -48 43.5 -78.5t144.5 -48.5l277 -49q163 -30 242 -108t79 -193q0 -157 -134 -255.5t-351 -98.5q-146 0 -296.5 45t-244.5 122zM616 -401q-56 0 -92.5 34t-36.5 88t36.5 88.5
t92.5 34.5t92.5 -34.5t36.5 -88.5t-36.5 -88t-92.5 -34z" />
    <glyph glyph-name="uni1E6C" unicode="&#x1e6c;" horiz-adv-x="1372" 
d="M1309 1475v-185h-521v-1290h-204v1290h-521v185h1246zM686 -156q56 0 92.5 -34.5t36.5 -88.5t-36.5 -88t-92.5 -34t-92.5 34t-36.5 88t36.5 88.5t92.5 34.5z" />
    <glyph glyph-name="uni1E6D" unicode="&#x1e6d;" horiz-adv-x="911" 
d="M664 162q93 0 180 37v-176q-74 -41 -203 -41q-193 0 -295 98.5t-102 269.5v600h-191v166h193v264l194 93v-357h394v-166h-394v-575q0 -104 61 -158.5t163 -54.5zM494 -156q56 0 92.5 -34.5t36.5 -88.5t-36.5 -88t-92.5 -34t-92.5 34t-36.5 88t36.5 88.5t92.5 34.5z" />
    <glyph glyph-name="uni1E6E" unicode="&#x1e6e;" horiz-adv-x="1372" 
d="M1309 1475v-185h-521v-1290h-204v1290h-521v185h1246zM1014 -358h-656v153h656v-153z" />
    <glyph glyph-name="uni1E6F" unicode="&#x1e6f;" horiz-adv-x="911" 
d="M664 162q93 0 180 37v-176q-74 -41 -203 -41q-193 0 -295 98.5t-102 269.5v600h-191v166h193v264l194 93v-357h394v-166h-394v-575q0 -104 61 -158.5t163 -54.5zM821 -358h-655v153h655v-153z" />
    <glyph glyph-name="uni1E78" unicode="&#x1e78;" horiz-adv-x="1642" 
d="M1151 2357v-18l-283 -318h-188l244 336h227zM983 1616q-48 0 -90.5 16.5t-73 40.5t-57.5 48t-54.5 40.5t-52.5 16.5q-87 0 -96 -152h-151q3 138 66.5 219.5t178.5 81.5q48 0 91 -17t73.5 -41t57 -48t54 -41t52.5 -17q43 0 69 39.5t29 112.5h152q-3 -137 -67 -218
t-181 -81zM821 -27q-286 0 -458.5 153t-172.5 411v938h205v-916q0 -186 115.5 -292.5t310.5 -106.5q196 0 311 106.5t115 292.5v916h205v-938q0 -259 -172 -411.5t-459 -152.5z" />
    <glyph glyph-name="uni1E79" unicode="&#x1e79;" horiz-adv-x="1386" 
d="M1016 1999v-19l-283 -317h-188l243 336h228zM520 1419q-87 0 -96 -151h-152q3 137 66.5 219t179.5 82q48 0 91 -17t73.5 -41t57 -48t54 -41t52.5 -17q43 0 69 39t29 112h152q-3 -137 -67 -218t-181 -81q-58 0 -110 25.5t-83.5 55.5t-67.5 55.5t-67 25.5zM1006 451v665
h196v-1116h-186v154q-69 -96 -175 -138.5t-220 -42.5q-203 0 -328 116t-125 310v717h197v-680q0 -131 77 -205.5t217 -74.5q154 0 250.5 84t96.5 211z" />
    <glyph glyph-name="uni1E7A" unicode="&#x1e7a;" horiz-adv-x="1642" 
d="M592 1987q-56 0 -92.5 34t-36.5 88t36.5 88.5t92.5 34.5t92.5 -34.5t36.5 -88.5t-36.5 -88t-92.5 -34zM1049 1987q-56 0 -92.5 34t-36.5 88t36.5 88.5t92.5 34.5t92.5 -34.5t36.5 -88.5t-36.5 -88t-92.5 -34zM1149 1665h-655v154h655v-154zM821 -27q-286 0 -458.5 153
t-172.5 411v938h205v-916q0 -186 115.5 -292.5t310.5 -106.5q196 0 311 106.5t115 292.5v916h205v-938q0 -259 -172 -411.5t-459 -152.5z" />
    <glyph glyph-name="uni1E7B" unicode="&#x1e7b;" horiz-adv-x="1386" 
d="M457 1628q-56 0 -92.5 34.5t-36.5 88.5t36.5 88.5t92.5 34.5t92.5 -34.5t36.5 -88.5t-36.5 -88.5t-92.5 -34.5zM913 1628q-56 0 -92.5 34.5t-36.5 88.5t36.5 88.5t92.5 34.5t92.5 -34.5t36.5 -88.5t-36.5 -88.5t-92.5 -34.5zM1014 1307h-656v153h656v-153zM1006 451v665
h196v-1116h-186v154q-69 -96 -175 -138.5t-220 -42.5q-203 0 -328 116t-125 310v717h197v-680q0 -131 77 -205.5t217 -74.5q154 0 250.5 84t96.5 211z" />
    <glyph glyph-name="Wgrave" unicode="&#x1e80;" horiz-adv-x="2299" 
d="M1047 1931l223 -319h-187l-264 301v18h228zM1630 215l410 1260h215l-502 -1475h-250l-354 1194l-350 -1194h-250l-504 1475h221l412 -1262l366 1255h216z" />
    <glyph glyph-name="wgrave" unicode="&#x1e81;" horiz-adv-x="1978" 
d="M889 1573l223 -320h-186l-264 301v19h227zM1405 186l326 930h211l-422 -1116h-232l-295 868l-301 -868h-231l-424 1116h217l328 -930l313 922h197z" />
    <glyph glyph-name="Wacute" unicode="&#x1e82;" horiz-adv-x="2299" 
d="M1479 1939v-18l-283 -317h-188l243 335h228zM1630 215l410 1260h215l-502 -1475h-250l-354 1194l-350 -1194h-250l-504 1475h221l412 -1262l366 1255h216z" />
    <glyph glyph-name="wacute" unicode="&#x1e83;" horiz-adv-x="1978" 
d="M1321 1581v-18l-283 -318h-188l244 336h227zM1405 186l326 930h211l-422 -1116h-232l-295 868l-301 -868h-231l-424 1116h217l328 -930l313 922h197z" />
    <glyph glyph-name="Wdieresis" unicode="&#x1e84;" horiz-adv-x="2299" 
d="M920 1642q-56 0 -92.5 34.5t-36.5 88.5t36.5 88.5t92.5 34.5t92.5 -34.5t36.5 -88.5t-36.5 -88.5t-92.5 -34.5zM1376 1642q-56 0 -92.5 34.5t-36.5 88.5t36.5 88.5t92.5 34.5t92.5 -34.5t36.5 -88.5t-36.5 -88.5t-92.5 -34.5zM1630 215l410 1260h215l-502 -1475h-250
l-354 1194l-350 -1194h-250l-504 1475h221l412 -1262l366 1255h216z" />
    <glyph glyph-name="wdieresis" unicode="&#x1e85;" horiz-adv-x="1978" 
d="M762 1284q-56 0 -92.5 34.5t-36.5 88.5t36.5 88.5t92.5 34.5t92.5 -34.5t36.5 -88.5t-36.5 -88.5t-92.5 -34.5zM1219 1284q-56 0 -92.5 34.5t-36.5 88.5t36.5 88.5t92.5 34.5t92.5 -34.5t36.5 -88.5t-36.5 -88.5t-92.5 -34.5zM1405 186l326 930h211l-422 -1116h-232
l-295 868l-301 -868h-231l-424 1116h217l328 -930l313 922h197z" />
    <glyph glyph-name="uni1E8E" unicode="&#x1e8e;" horiz-adv-x="1480" 
d="M737 1642q-56 0 -92.5 34.5t-36.5 88.5t36.5 88.5t92.5 34.5t92.5 -34.5t36.5 -88.5t-36.5 -88.5t-92.5 -34.5zM1219 1475h229l-604 -971v-504h-205v500l-608 975h237l475 -783z" />
    <glyph glyph-name="uni1E8F" unicode="&#x1e8f;" horiz-adv-x="1269" 
d="M635 1284q-56 0 -92.5 34.5t-36.5 88.5t36.5 88.5t92.5 34.5t92.5 -34.5t36.5 -88.5t-36.5 -88.5t-92.5 -34.5zM641 219l383 897h213l-565 -1253q-114 -252 -365 -252q-133 0 -246 55l58 164q98 -45 180 -45q141 0 209 147l35 76l-510 1108h219z" />
    <glyph glyph-name="uni1E92" unicode="&#x1e92;" horiz-adv-x="1378" 
d="M1262 1315l-922 -1139h958v-176h-1212v158l922 1140h-881v177h1135v-160zM711 -156q56 0 92.5 -34.5t36.5 -88.5t-36.5 -88t-92.5 -34t-92.5 34t-36.5 88t36.5 88.5t92.5 34.5z" />
    <glyph glyph-name="uni1E93" unicode="&#x1e93;" horiz-adv-x="1142" 
d="M1034 975l-696 -809h721v-166h-975v141l698 811h-665v164h917v-141zM580 -156q56 0 92.5 -34.5t36.5 -88.5t-36.5 -88t-92.5 -34t-92.5 34t-36.5 88t36.5 88.5t92.5 34.5z" />
    <glyph glyph-name="uni1E97" unicode="&#x1e97;" horiz-adv-x="911" 
d="M219 1559q-56 0 -92.5 34t-36.5 88t36.5 88.5t92.5 34.5t92.5 -34.5t36.5 -88.5t-36.5 -88t-92.5 -34zM676 1559q-56 0 -92.5 34t-36.5 88t36.5 88.5t92.5 34.5t92.5 -34.5t36.5 -88.5t-36.5 -88t-92.5 -34zM664 162q93 0 180 37v-176q-74 -41 -203 -41q-193 0 -295 98.5
t-102 269.5v600h-191v166h193v264l194 93v-357h394v-166h-394v-575q0 -104 61 -158.5t163 -54.5z" />
    <glyph glyph-name="uni1E9E" unicode="&#x1e9e;" horiz-adv-x="1656" 
d="M805 848v-137q307 -99 428 -174t121 -170q0 -97 -90.5 -153t-247.5 -56q-214 0 -402 80v-195q184 -70 418 -70q239 0 386 109.5t147 284.5q0 159 -118.5 263t-410.5 210l449 471q-103 85 -264.5 137.5t-366.5 52.5q-307 0 -486.5 -158.5t-179.5 -424.5v-918h205v909
q0 185 124 295.5t337 110.5q193 0 336 -70z" />
    <glyph glyph-name="uni1EA0" unicode="&#x1ea0;" 
d="M907 1475l617 -1475h-219l-158 393h-735l-160 -393h-215l618 1475h252zM780 1300l-297 -731h592zM780 -156q56 0 92.5 -34.5t36.5 -88.5t-36.5 -88t-92.5 -34t-92.5 34t-36.5 88t36.5 88.5t92.5 34.5z" />
    <glyph glyph-name="uni1EA1" unicode="&#x1ea1;" horiz-adv-x="1325" 
d="M1231 162q34 0 57 10v-164q-37 -16 -96 -16q-93 0 -161 47t-79 137q-67 -99 -183.5 -150t-252.5 -51q-121 0 -218.5 37.5t-158.5 117t-61 189.5q0 168 144.5 263.5t428.5 95.5h295v14q0 129 -87 201t-234 72q-95 0 -189 -30.5t-164 -88.5l-108 143q88 76 213 114t256 38
q232 0 369 -117t137 -322v-450q0 -90 92 -90zM532 145q56 0 109.5 11t107.5 38.5t95 68.5t69 106t33 147h-291q-381 0 -381 -190q0 -85 70.5 -133t187.5 -48zM639 -156q56 0 92.5 -34.5t36.5 -88.5t-36.5 -88t-92.5 -34t-92.5 34t-36.5 88t36.5 88.5t92.5 34.5z" />
    <glyph glyph-name="uni1EA2" unicode="&#x1ea2;" 
d="M772 1997q-58 0 -92.5 -29t-36.5 -76h-151q5 107 82 172.5t208 65.5q114 0 188 -58t74 -149q0 -52 -27 -92.5t-85 -91.5q-65 -57 -83 -78.5t-18 -46.5v-19h-147v33q0 53 30 95t87 87q42 34 62 58t20 51q0 36 -32 57t-79 21zM1524 0h-219l-158 393h-735l-160 -393h-215
l618 1475h252zM780 1300l-297 -731h592z" />
    <glyph glyph-name="uni1EA3" unicode="&#x1ea3;" horiz-adv-x="1325" 
d="M631 1638q-58 0 -92.5 -29t-36.5 -75h-152q5 106 82.5 172t208.5 66q114 0 188 -58t74 -149q0 -52 -27 -93.5t-85 -91.5q-65 -57 -83 -78.5t-18 -46.5v-18h-147v33q0 53 29.5 95.5t86.5 86.5q42 34 62 58t20 51q0 36 -31.5 56.5t-78.5 20.5zM1231 162q34 0 57 10v-164
q-37 -16 -96 -16q-93 0 -161 47t-79 137q-67 -99 -183.5 -150t-252.5 -51q-121 0 -218.5 37.5t-158.5 117t-61 189.5q0 168 144.5 263.5t428.5 95.5h295v14q0 129 -87 201t-234 72q-95 0 -189 -30.5t-164 -88.5l-108 143q88 76 213 114t256 38q232 0 369 -117t137 -322v-450
q0 -90 92 -90zM532 145q56 0 109.5 11t107.5 38.5t95 68.5t69 106t33 147h-291q-381 0 -381 -190q0 -85 70.5 -133t187.5 -48z" />
    <glyph glyph-name="uni1EA4" unicode="&#x1ea4;" 
d="M1415 2138v-18l-233 -287h-164l196 305h201zM961 1612l-181 188l-182 -188h-178l254 307h211l254 -307h-178zM1524 0h-219l-158 393h-735l-160 -393h-215l618 1475h252zM780 1300l-297 -731h592z" />
    <glyph glyph-name="uni1EA5" unicode="&#x1ea5;" horiz-adv-x="1325" 
d="M1274 1780v-19l-234 -286h-163l196 305h201zM819 1253l-180 189l-182 -189h-178l253 308h211l254 -308h-178zM1231 162q34 0 57 10v-164q-37 -16 -96 -16q-93 0 -161 47t-79 137q-67 -99 -183.5 -150t-252.5 -51q-121 0 -218.5 37.5t-158.5 117t-61 189.5
q0 168 144.5 263.5t428.5 95.5h295v14q0 129 -87 201t-234 72q-95 0 -189 -30.5t-164 -88.5l-108 143q88 76 213 114t256 38q232 0 369 -117t137 -322v-450q0 -90 92 -90zM532 145q56 0 109.5 11t107.5 38.5t95 68.5t69 106t33 147h-291q-381 0 -381 -190q0 -85 70.5 -133
t187.5 -48z" />
    <glyph glyph-name="uni1EA6" unicode="&#x1ea6;" 
d="M1126 2138l199 -305h-166l-233 287v18h200zM961 1612l-181 188l-182 -188h-178l254 307h211l254 -307h-178zM1524 0h-219l-158 393h-735l-160 -393h-215l618 1475h252zM780 1300l-297 -731h592z" />
    <glyph glyph-name="uni1EA7" unicode="&#x1ea7;" horiz-adv-x="1325" 
d="M985 1780l199 -305h-166l-234 286v19h201zM819 1253l-180 189l-182 -189h-178l253 308h211l254 -308h-178zM1231 162q34 0 57 10v-164q-37 -16 -96 -16q-93 0 -161 47t-79 137q-67 -99 -183.5 -150t-252.5 -51q-121 0 -218.5 37.5t-158.5 117t-61 189.5
q0 168 144.5 263.5t428.5 95.5h295v14q0 129 -87 201t-234 72q-95 0 -189 -30.5t-164 -88.5l-108 143q88 76 213 114t256 38q232 0 369 -117t137 -322v-450q0 -90 92 -90zM532 145q56 0 109.5 11t107.5 38.5t95 68.5t69 106t33 147h-291q-381 0 -381 -190q0 -85 70.5 -133
t187.5 -48z" />
    <glyph glyph-name="uni1EA8" unicode="&#x1ea8;" 
d="M1147 2148q-47 0 -76 -24t-31 -64h-137q2 94 70.5 151.5t183.5 57.5q100 0 166 -51.5t66 -130.5q0 -46 -23 -83.5t-74 -80.5q-56 -46 -73 -65.5t-17 -42.5v-17h-135v29q0 33 16 63t33.5 48t54.5 49q37 32 53.5 52.5t16.5 41.5q0 32 -26 49.5t-68 17.5zM961 1612l-181 188
l-182 -188h-178l254 307h211l254 -307h-178zM1524 0h-219l-158 393h-735l-160 -393h-215l618 1475h252zM780 1300l-297 -731h592z" />
    <glyph glyph-name="uni1EA9" unicode="&#x1ea9;" horiz-adv-x="1325" 
d="M1006 1790q-47 0 -76 -24t-31 -64h-137q2 94 70.5 151.5t183.5 57.5q100 0 165.5 -51.5t65.5 -130.5q0 -46 -22.5 -84t-73.5 -80q-56 -46 -73 -66t-17 -43v-16h-135v28q0 33 16 63t33.5 48t54.5 49q37 32 53.5 52.5t16.5 41.5q0 33 -26.5 50.5t-67.5 17.5zM819 1253
l-180 189l-182 -189h-178l253 308h211l254 -308h-178zM1231 162q34 0 57 10v-164q-37 -16 -96 -16q-93 0 -161 47t-79 137q-67 -99 -183.5 -150t-252.5 -51q-121 0 -218.5 37.5t-158.5 117t-61 189.5q0 168 144.5 263.5t428.5 95.5h295v14q0 129 -87 201t-234 72
q-95 0 -189 -30.5t-164 -88.5l-108 143q88 76 213 114t256 38q232 0 369 -117t137 -322v-450q0 -90 92 -90zM532 145q56 0 109.5 11t107.5 38.5t95 68.5t69 106t33 147h-291q-381 0 -381 -190q0 -85 70.5 -133t187.5 -48z" />
    <glyph glyph-name="uni1EAA" unicode="&#x1eaa;" 
d="M637 2150q-36 0 -59.5 -39t-26.5 -110h-139q3 135 61 214t162 79q43 0 81.5 -17t65 -41t49.5 -48t46 -41t45 -17q34 0 58 40t28 111h139q-5 -136 -62 -214t-161 -78q-43 0 -81.5 16.5t-65 40.5t-49.5 47.5t-46 40t-45 16.5zM420 1612l254 307h211l254 -307h-178l-181 188
l-182 -188h-178zM1524 0h-219l-158 393h-735l-160 -393h-215l618 1475h252zM780 1300l-297 -731h592z" />
    <glyph glyph-name="uni1EAB" unicode="&#x1eab;" horiz-adv-x="1325" 
d="M496 1792q-36 0 -59.5 -39.5t-26.5 -110.5h-140q3 135 61.5 214t162.5 79q43 0 81 -17t64.5 -40.5t49.5 -47.5t46 -41t45 -17q34 0 58 40t28 111h140q-5 -136 -62.5 -214.5t-161.5 -78.5q-43 0 -81 16.5t-64.5 40.5t-49.5 48t-46 40.5t-45 16.5zM279 1253l253 308h211
l254 -308h-178l-180 189l-182 -189h-178zM1231 162q34 0 57 10v-164q-37 -16 -96 -16q-93 0 -161 47t-79 137q-67 -99 -183.5 -150t-252.5 -51q-121 0 -218.5 37.5t-158.5 117t-61 189.5q0 168 144.5 263.5t428.5 95.5h295v14q0 129 -87 201t-234 72q-95 0 -189 -30.5
t-164 -88.5l-108 143q88 76 213 114t256 38q232 0 369 -117t137 -322v-450q0 -90 92 -90zM532 145q56 0 109.5 11t107.5 38.5t95 68.5t69 106t33 147h-291q-381 0 -381 -190q0 -85 70.5 -133t187.5 -48z" />
    <glyph glyph-name="uni1EAC" unicode="&#x1eac;" 
d="M961 1612l-181 200l-182 -200h-176l252 327h211l254 -327h-178zM907 1475l617 -1475h-219l-158 393h-735l-160 -393h-215l618 1475h252zM780 1300l-297 -731h592zM780 -156q56 0 92.5 -34.5t36.5 -88.5t-36.5 -88t-92.5 -34t-92.5 34t-36.5 88t36.5 88.5t92.5 34.5z" />
    <glyph glyph-name="uni1EAD" unicode="&#x1ead;" horiz-adv-x="1325" 
d="M819 1253l-180 201l-182 -201h-176l251 328h211l254 -328h-178zM1231 162q34 0 57 10v-164q-37 -16 -96 -16q-93 0 -161 47t-79 137q-67 -99 -183.5 -150t-252.5 -51q-121 0 -218.5 37.5t-158.5 117t-61 189.5q0 168 144.5 263.5t428.5 95.5h295v14q0 129 -87 201
t-234 72q-95 0 -189 -30.5t-164 -88.5l-108 143q88 76 213 114t256 38q232 0 369 -117t137 -322v-450q0 -90 92 -90zM532 145q56 0 109.5 11t107.5 38.5t95 68.5t69 106t33 147h-291q-381 0 -381 -190q0 -85 70.5 -133t187.5 -48zM639 -156q56 0 92.5 -34.5t36.5 -88.5
t-36.5 -88t-92.5 -34t-92.5 34t-36.5 88t36.5 88.5t92.5 34.5z" />
    <glyph glyph-name="uni1EAE" unicode="&#x1eae;" 
d="M1069 2236v-18l-233 -287h-164l196 305h201zM780 1599q-147 0 -242.5 90t-95.5 230h144q1 -72 57.5 -122t136.5 -50t137 50t58 122h145q0 -140 -96.5 -230t-243.5 -90zM1524 0h-219l-158 393h-735l-160 -393h-215l618 1475h252zM780 1300l-297 -731h592z" />
    <glyph glyph-name="uni1EAF" unicode="&#x1eaf;" horiz-adv-x="1325" 
d="M928 1878v-18l-234 -287h-164l197 305h201zM639 1241q-147 0 -242.5 90t-95.5 230h143q1 -72 58 -122t137 -50t137 50t58 122h145q0 -140 -96.5 -230t-243.5 -90zM1231 162q34 0 57 10v-164q-37 -16 -96 -16q-93 0 -161 47t-79 137q-67 -99 -183.5 -150t-252.5 -51
q-121 0 -218.5 37.5t-158.5 117t-61 189.5q0 168 144.5 263.5t428.5 95.5h295v14q0 129 -87 201t-234 72q-95 0 -189 -30.5t-164 -88.5l-108 143q88 76 213 114t256 38q232 0 369 -117t137 -322v-450q0 -90 92 -90zM532 145q56 0 109.5 11t107.5 38.5t95 68.5t69 106t33 147
h-291q-381 0 -381 -190q0 -85 70.5 -133t187.5 -48z" />
    <glyph glyph-name="uni1EB0" unicode="&#x1eb0;" 
d="M692 2236l199 -305h-166l-233 287v18h200zM780 1599q-147 0 -242.5 90t-95.5 230h144q1 -72 57.5 -122t136.5 -50t137 50t58 122h145q0 -140 -96.5 -230t-243.5 -90zM1524 0h-219l-158 393h-735l-160 -393h-215l618 1475h252zM780 1300l-297 -731h592z" />
    <glyph glyph-name="uni1EB1" unicode="&#x1eb1;" horiz-adv-x="1325" 
d="M551 1878l199 -305h-166l-234 287v18h201zM639 1241q-147 0 -242.5 90t-95.5 230h143q1 -72 58 -122t137 -50t137 50t58 122h145q0 -140 -96.5 -230t-243.5 -90zM1231 162q34 0 57 10v-164q-37 -16 -96 -16q-93 0 -161 47t-79 137q-67 -99 -183.5 -150t-252.5 -51
q-121 0 -218.5 37.5t-158.5 117t-61 189.5q0 168 144.5 263.5t428.5 95.5h295v14q0 129 -87 201t-234 72q-95 0 -189 -30.5t-164 -88.5l-108 143q88 76 213 114t256 38q232 0 369 -117t137 -322v-450q0 -90 92 -90zM532 145q56 0 109.5 11t107.5 38.5t95 68.5t69 106t33 147
h-291q-381 0 -381 -190q0 -85 70.5 -133t187.5 -48z" />
    <glyph glyph-name="uni1EB2" unicode="&#x1eb2;" 
d="M782 2247q-47 0 -75.5 -24t-30.5 -64h-137q2 93 70 150.5t184 57.5q100 0 165.5 -51.5t65.5 -130.5q0 -46 -22.5 -84t-73.5 -80q-56 -46 -73 -65.5t-17 -42.5v-17h-136v29q0 33 16.5 63.5t34 47.5t54.5 49t53.5 52.5t16.5 41.5q0 33 -26.5 50.5t-68.5 17.5zM780 1599
q-147 0 -242.5 90t-95.5 230h144q1 -72 57.5 -122t136.5 -50t137 50t58 122h145q0 -140 -96.5 -230t-243.5 -90zM1524 0h-219l-158 393h-735l-160 -393h-215l618 1475h252zM780 1300l-297 -731h592z" />
    <glyph glyph-name="uni1EB3" unicode="&#x1eb3;" horiz-adv-x="1325" 
d="M641 1888q-47 0 -75.5 -24t-30.5 -64h-138q2 94 70.5 151.5t183.5 57.5q100 0 166 -51.5t66 -130.5q0 -46 -23 -83.5t-74 -80.5q-56 -46 -73 -66t-17 -43v-16h-135v29q0 33 16.5 63t33.5 46.5t55 49.5q36 31 52.5 52t16.5 43q0 32 -26 49.5t-68 17.5zM639 1241
q-147 0 -242.5 90t-95.5 230h143q1 -72 58 -122t137 -50t137 50t58 122h145q0 -140 -96.5 -230t-243.5 -90zM1231 162q34 0 57 10v-164q-37 -16 -96 -16q-93 0 -161 47t-79 137q-67 -99 -183.5 -150t-252.5 -51q-121 0 -218.5 37.5t-158.5 117t-61 189.5q0 168 144.5 263.5
t428.5 95.5h295v14q0 129 -87 201t-234 72q-95 0 -189 -30.5t-164 -88.5l-108 143q88 76 213 114t256 38q232 0 369 -117t137 -322v-450q0 -90 92 -90zM532 145q56 0 109.5 11t107.5 38.5t95 68.5t69 106t33 147h-291q-381 0 -381 -190q0 -85 70.5 -133t187.5 -48z" />
    <glyph glyph-name="uni1EB4" unicode="&#x1eb4;" 
d="M637 2152q-36 0 -59.5 -39t-26.5 -110h-139q3 135 61 214t162 79q43 0 81.5 -17t65 -41t49.5 -48t46 -41t45 -17q34 0 58 40.5t28 111.5h139q-5 -136 -62 -214.5t-161 -78.5q-43 0 -81.5 16.5t-65 40.5t-49.5 47.5t-46 40t-45 16.5zM780 1747q80 0 137 50t58 122h145
q0 -140 -96.5 -230t-243.5 -90t-242.5 90t-95.5 230h144q1 -72 57.5 -122t136.5 -50zM1524 0h-219l-158 393h-735l-160 -393h-215l618 1475h252zM780 1300l-297 -731h592z" />
    <glyph glyph-name="uni1EB5" unicode="&#x1eb5;" horiz-adv-x="1325" 
d="M496 1794q-36 0 -59.5 -39t-26.5 -110h-140q3 134 61.5 213t162.5 79q43 0 81 -17t64.5 -40.5t49.5 -47.5t46 -41t45 -17q34 0 58 40t28 111h140q-5 -136 -62.5 -214.5t-161.5 -78.5q-43 0 -81 16.5t-64.5 40.5t-49.5 48t-46 40.5t-45 16.5zM639 1389q80 0 137 50t58 122
h145q0 -140 -96.5 -230t-243.5 -90t-242.5 90t-95.5 230h143q1 -72 58 -122t137 -50zM1231 162q34 0 57 10v-164q-37 -16 -96 -16q-93 0 -161 47t-79 137q-67 -99 -183.5 -150t-252.5 -51q-121 0 -218.5 37.5t-158.5 117t-61 189.5q0 168 144.5 263.5t428.5 95.5h295v14
q0 129 -87 201t-234 72q-95 0 -189 -30.5t-164 -88.5l-108 143q88 76 213 114t256 38q232 0 369 -117t137 -322v-450q0 -90 92 -90zM532 145q56 0 109.5 11t107.5 38.5t95 68.5t69 106t33 147h-291q-381 0 -381 -190q0 -85 70.5 -133t187.5 -48z" />
    <glyph glyph-name="uni1EB6" unicode="&#x1eb6;" 
d="M780 1599q-149 0 -243.5 93t-94.5 247h144q1 -86 56.5 -138t137.5 -52t138 52t57 138h145q0 -154 -95.5 -247t-244.5 -93zM907 1475l617 -1475h-219l-158 393h-735l-160 -393h-215l618 1475h252zM780 1300l-297 -731h592zM780 -156q56 0 92.5 -34.5t36.5 -88.5t-36.5 -88
t-92.5 -34t-92.5 34t-36.5 88t36.5 88.5t92.5 34.5z" />
    <glyph glyph-name="uni1EB7" unicode="&#x1eb7;" horiz-adv-x="1325" 
d="M639 1241q-149 0 -243.5 93t-94.5 247h143q1 -86 57 -138t138 -52t138 52t57 138h145q0 -154 -95.5 -247t-244.5 -93zM1231 162q34 0 57 10v-164q-37 -16 -96 -16q-93 0 -161 47t-79 137q-67 -99 -183.5 -150t-252.5 -51q-121 0 -218.5 37.5t-158.5 117t-61 189.5
q0 168 144.5 263.5t428.5 95.5h295v14q0 129 -87 201t-234 72q-95 0 -189 -30.5t-164 -88.5l-108 143q88 76 213 114t256 38q232 0 369 -117t137 -322v-450q0 -90 92 -90zM532 145q56 0 109.5 11t107.5 38.5t95 68.5t69 106t33 147h-291q-381 0 -381 -190q0 -85 70.5 -133
t187.5 -48zM639 -156q56 0 92.5 -34.5t36.5 -88.5t-36.5 -88t-92.5 -34t-92.5 34t-36.5 88t36.5 88.5t92.5 34.5z" />
    <glyph glyph-name="uni1EB8" unicode="&#x1eb8;" horiz-adv-x="1447" 
d="M410 180h929l37 -180h-1171v1475h1151l-37 -181h-909v-432h624v-182h-624v-500zM770 -156q56 0 92.5 -34.5t36.5 -88.5t-36.5 -88t-92.5 -34t-92.5 34t-36.5 88t36.5 88.5t92.5 34.5z" />
    <glyph glyph-name="uni1EB9" unicode="&#x1eb9;" horiz-adv-x="1353" 
d="M1262 555q0 -29 -9 -72h-948q23 -154 135 -243.5t285 -89.5q215 0 348 133l117 -136q-70 -78 -189.5 -126t-277.5 -48q-282 0 -451.5 165.5t-169.5 420.5q0 162 72 295t206 211t304 78q130 0 240 -46.5t183 -126t114 -187t41 -228.5zM684 967q-148 0 -250.5 -86.5
t-128.5 -235.5h758q-21 142 -123 232t-256 90zM686 -156q56 0 92.5 -34.5t36.5 -88.5t-36.5 -88t-92.5 -34t-92.5 34t-36.5 88t36.5 88.5t92.5 34.5z" />
    <glyph glyph-name="uni1EBA" unicode="&#x1eba;" horiz-adv-x="1447" 
d="M762 1997q-58 0 -92.5 -29t-36.5 -76h-152q5 106 82.5 172t208.5 66q114 0 188 -58t74 -149q0 -52 -27 -92.5t-85 -91.5q-65 -57 -83 -78.5t-18 -46.5v-19h-147v33q0 53 30 95t87 87q42 33 61.5 57.5t19.5 51.5q0 36 -31.5 57t-78.5 21zM410 180h929l37 -180h-1171v1475
h1151l-37 -181h-909v-432h624v-182h-624v-500z" />
    <glyph glyph-name="uni1EBB" unicode="&#x1ebb;" horiz-adv-x="1353" 
d="M678 1638q-58 0 -92.5 -29t-36.5 -75h-152q5 106 82.5 172t208.5 66q114 0 188 -58t74 -149q0 -52 -27 -93.5t-85 -91.5q-65 -57 -83 -78.5t-18 -46.5v-18h-147v33q0 53 30 95t87 87q42 33 61.5 57.5t19.5 51.5q0 36 -31.5 56.5t-78.5 20.5zM1262 555q0 -29 -9 -72h-948
q23 -154 135 -243.5t285 -89.5q215 0 348 133l117 -136q-70 -78 -189.5 -126t-277.5 -48q-282 0 -451.5 165.5t-169.5 420.5q0 162 72 295t206 211t304 78q130 0 240 -46.5t183 -126t114 -187t41 -228.5zM684 967q-148 0 -250.5 -86.5t-128.5 -235.5h758q-21 142 -123 232
t-256 90z" />
    <glyph glyph-name="uni1EBC" unicode="&#x1ebc;" horiz-adv-x="1447" 
d="M604 1778q-87 0 -96 -152h-152q3 137 66.5 219t179.5 82q48 0 91 -17t73.5 -41t57 -48t54 -41t52.5 -17q43 0 69 39.5t29 112.5h152q-3 -137 -67 -218t-181 -81q-58 0 -110 25.5t-83.5 55.5t-67.5 55.5t-67 25.5zM410 180h929l37 -180h-1171v1475h1151l-37 -181h-909
v-432h624v-182h-624v-500z" />
    </font>
</defs>
</svg>
